%TF.GenerationSoftware,KiCad,Pcbnew,10.0.1*%
%TF.CreationDate,2026-05-14T20:43:56+08:00*%
%TF.ProjectId,z80handheld,7a383068-616e-4646-9865-6c642e6b6963,rev?*%
%TF.SameCoordinates,Original*%
%TF.FileFunction,Soldermask,Bot*%
%TF.FilePolarity,Negative*%
%FSLAX46Y46*%
G04 Gerber Fmt 4.6, Leading zero omitted, Abs format (unit mm)*
G04 Created by KiCad (PCBNEW 10.0.1) date 2026-05-14 20:43:56*
%MOMM*%
%LPD*%
G01*
G04 APERTURE LIST*
G04 Aperture macros list*
%AMRoundRect*
0 Rectangle with rounded corners*
0 $1 Rounding radius*
0 $2 $3 $4 $5 $6 $7 $8 $9 X,Y pos of 4 corners*
0 Add a 4 corners polygon primitive as box body*
4,1,4,$2,$3,$4,$5,$6,$7,$8,$9,$2,$3,0*
0 Add four circle primitives for the rounded corners*
1,1,$1+$1,$2,$3*
1,1,$1+$1,$4,$5*
1,1,$1+$1,$6,$7*
1,1,$1+$1,$8,$9*
0 Add four rect primitives between the rounded corners*
20,1,$1+$1,$2,$3,$4,$5,0*
20,1,$1+$1,$4,$5,$6,$7,0*
20,1,$1+$1,$6,$7,$8,$9,0*
20,1,$1+$1,$8,$9,$2,$3,0*%
G04 Aperture macros list end*
%ADD10C,1.600000*%
%ADD11R,1.700000X1.700000*%
%ADD12C,1.700000*%
%ADD13RoundRect,0.250000X0.550000X0.550000X-0.550000X0.550000X-0.550000X-0.550000X0.550000X-0.550000X0*%
%ADD14RoundRect,0.250000X-0.550000X-0.550000X0.550000X-0.550000X0.550000X0.550000X-0.550000X0.550000X0*%
%ADD15R,1.600000X1.600000*%
%ADD16RoundRect,0.250000X0.550000X-0.550000X0.550000X0.550000X-0.550000X0.550000X-0.550000X-0.550000X0*%
%ADD17R,1.524000X2.524000*%
%ADD18O,1.524000X2.524000*%
%ADD19R,1.110000X1.110000*%
%ADD20C,1.110000*%
%ADD21C,2.000000*%
%ADD22R,2.000000X2.000000*%
%ADD23RoundRect,0.250000X-0.550000X0.550000X-0.550000X-0.550000X0.550000X-0.550000X0.550000X0.550000X0*%
%ADD24C,1.000000*%
%ADD25R,1.440000X2.000000*%
%ADD26O,1.440000X2.000000*%
G04 APERTURE END LIST*
D10*
%TO.C,R2*%
X49880049Y-118000000D03*
X42260049Y-118000000D03*
%TD*%
D11*
%TO.C,J5*%
X24170049Y-140007167D03*
D12*
X24170049Y-137467167D03*
X24170049Y-134927167D03*
X24170049Y-132387167D03*
X24170049Y-129847167D03*
X24170049Y-127307167D03*
X24170049Y-124767167D03*
X24170049Y-122227167D03*
X24170049Y-119687167D03*
X24170049Y-117147167D03*
X24170049Y-114607167D03*
X24170049Y-112067167D03*
X24170049Y-109527167D03*
X24170049Y-106987167D03*
X24170049Y-104447167D03*
X24170049Y-101907167D03*
X24170049Y-99367167D03*
X24170049Y-96827167D03*
X24170049Y-94287167D03*
X24170049Y-91747167D03*
X24170049Y-89207167D03*
X24170049Y-86667167D03*
X24170049Y-84127167D03*
X24170049Y-81587167D03*
X24170049Y-79047167D03*
X24170049Y-76507167D03*
X24170049Y-73967167D03*
X24170049Y-71427167D03*
X24170049Y-68887167D03*
X24170049Y-66347167D03*
X24170049Y-63807167D03*
X24170049Y-61267167D03*
X24170049Y-58727167D03*
X24170049Y-56187167D03*
X24170049Y-53647167D03*
X24170049Y-51107167D03*
X24170049Y-48567167D03*
X24170049Y-46027167D03*
X24170049Y-43487167D03*
X24170049Y-40947167D03*
%TD*%
D13*
%TO.C,U18*%
X80470049Y-97840000D03*
D10*
X80470049Y-95300000D03*
X80470049Y-92760000D03*
X80470049Y-90220000D03*
X80470049Y-87680000D03*
X80470049Y-85140000D03*
X80470049Y-82600000D03*
X72850049Y-82600000D03*
X72850049Y-85140000D03*
X72850049Y-87680000D03*
X72850049Y-90220000D03*
X72850049Y-92760000D03*
X72850049Y-95300000D03*
X72850049Y-97840000D03*
%TD*%
%TO.C,R5*%
X139870049Y-88090000D03*
X139870049Y-95710000D03*
%TD*%
D14*
%TO.C,U10*%
X33730049Y-65960000D03*
D10*
X33730049Y-68500000D03*
X33730049Y-71040000D03*
X33730049Y-73580000D03*
X33730049Y-76120000D03*
X33730049Y-78660000D03*
X33730049Y-81200000D03*
X33730049Y-83740000D03*
X33730049Y-86280000D03*
X33730049Y-88820000D03*
X33730049Y-91360000D03*
X33730049Y-93900000D03*
X33730049Y-96440000D03*
X33730049Y-98980000D03*
X33730049Y-101520000D03*
X33730049Y-104060000D03*
X33730049Y-106600000D03*
X33730049Y-109140000D03*
X33730049Y-111680000D03*
X33730049Y-114220000D03*
X48970049Y-114220000D03*
X48970049Y-111680000D03*
X48970049Y-109140000D03*
X48970049Y-106600000D03*
X48970049Y-104060000D03*
X48970049Y-101520000D03*
X48970049Y-98980000D03*
X48970049Y-96440000D03*
X48970049Y-93900000D03*
X48970049Y-91360000D03*
X48970049Y-88820000D03*
X48970049Y-86280000D03*
X48970049Y-83740000D03*
X48970049Y-81200000D03*
X48970049Y-78660000D03*
X48970049Y-76120000D03*
X48970049Y-73580000D03*
X48970049Y-71040000D03*
X48970049Y-68500000D03*
X48970049Y-65960000D03*
%TD*%
D15*
%TO.C,Y3*%
X35250049Y-43500000D03*
D10*
X35250049Y-58740000D03*
X42870049Y-58740000D03*
X42870049Y-43500000D03*
%TD*%
D13*
%TO.C,U1*%
X59770049Y-116800000D03*
D10*
X59770049Y-114260000D03*
X59770049Y-111720000D03*
X59770049Y-109180000D03*
X59770049Y-106640000D03*
X59770049Y-104100000D03*
X59770049Y-101560000D03*
X52150049Y-101560000D03*
X52150049Y-104100000D03*
X52150049Y-106640000D03*
X52150049Y-109180000D03*
X52150049Y-111720000D03*
X52150049Y-114260000D03*
X52150049Y-116800000D03*
%TD*%
D13*
%TO.C,U3*%
X80270049Y-118340000D03*
D10*
X80270049Y-115800000D03*
X80270049Y-113260000D03*
X80270049Y-110720000D03*
X80270049Y-108180000D03*
X80270049Y-105640000D03*
X80270049Y-103100000D03*
X72650049Y-103100000D03*
X72650049Y-105640000D03*
X72650049Y-108180000D03*
X72650049Y-110720000D03*
X72650049Y-113260000D03*
X72650049Y-115800000D03*
X72650049Y-118340000D03*
%TD*%
D11*
%TO.C,J3*%
X48770049Y-27860000D03*
D12*
X48770049Y-30400000D03*
X48770049Y-32940000D03*
X48770049Y-35480000D03*
X48770049Y-38020000D03*
X48770049Y-40560000D03*
X48770049Y-43100000D03*
X48770049Y-45640000D03*
X48770049Y-48180000D03*
X48770049Y-50720000D03*
X48770049Y-53260000D03*
X48770049Y-55800000D03*
X48770049Y-58340000D03*
X48770049Y-60880000D03*
%TD*%
D16*
%TO.C,U6*%
X83850049Y-111410000D03*
D10*
X86390049Y-111410000D03*
X88930049Y-111410000D03*
X91470049Y-111410000D03*
X94010049Y-111410000D03*
X96550049Y-111410000D03*
X99090049Y-111410000D03*
X101630049Y-111410000D03*
X104170049Y-111410000D03*
X106710049Y-111410000D03*
X106710049Y-103790000D03*
X104170049Y-103790000D03*
X101630049Y-103790000D03*
X99090049Y-103790000D03*
X96550049Y-103790000D03*
X94010049Y-103790000D03*
X91470049Y-103790000D03*
X88930049Y-103790000D03*
X86390049Y-103790000D03*
X83850049Y-103790000D03*
%TD*%
D11*
%TO.C,J4*%
X23940049Y-35690000D03*
D12*
X23940049Y-33150000D03*
X23940049Y-30610000D03*
X23940049Y-28070000D03*
X23940049Y-25530000D03*
X23940049Y-22990000D03*
X23940049Y-20450000D03*
X23940049Y-17910000D03*
%TD*%
D17*
%TO.C,U14*%
X110090049Y-94820000D03*
D18*
X112630049Y-94820000D03*
X115170049Y-94820000D03*
X117710049Y-94820000D03*
X120250049Y-94820000D03*
X120250049Y-79580000D03*
X117710049Y-79580000D03*
X115170049Y-79580000D03*
X112630049Y-79580000D03*
X110090049Y-79580000D03*
%TD*%
D19*
%TO.C,IC1*%
X138870049Y-98100000D03*
D20*
X136330049Y-98100000D03*
X133790049Y-98100000D03*
X131250049Y-98100000D03*
X128710049Y-98100000D03*
X126170049Y-98100000D03*
X123630049Y-98100000D03*
X121090049Y-98100000D03*
X118550049Y-98100000D03*
X116010049Y-98100000D03*
X113470049Y-98100000D03*
X110930049Y-98100000D03*
X110930049Y-113340000D03*
X113470049Y-113340000D03*
X116010049Y-113340000D03*
X118550049Y-113340000D03*
X121090049Y-113340000D03*
X123630049Y-113340000D03*
X126170049Y-113340000D03*
X128710049Y-113340000D03*
X131250049Y-113340000D03*
X133790049Y-113340000D03*
X136330049Y-113340000D03*
X138870049Y-113340000D03*
%TD*%
D16*
%TO.C,U13*%
X83890049Y-96020000D03*
D10*
X86430049Y-96020000D03*
X88970049Y-96020000D03*
X91510049Y-96020000D03*
X94050049Y-96020000D03*
X96590049Y-96020000D03*
X99130049Y-96020000D03*
X101670049Y-96020000D03*
X104210049Y-96020000D03*
X106750049Y-96020000D03*
X106750049Y-88400000D03*
X104210049Y-88400000D03*
X101670049Y-88400000D03*
X99130049Y-88400000D03*
X96590049Y-88400000D03*
X94050049Y-88400000D03*
X91510049Y-88400000D03*
X88970049Y-88400000D03*
X86430049Y-88400000D03*
X83890049Y-88400000D03*
%TD*%
D21*
%TO.C,SW65*%
X77970049Y-69500000D03*
X77970049Y-76000000D03*
X73470049Y-69500000D03*
X73470049Y-76000000D03*
%TD*%
D17*
%TO.C,U12*%
X123590049Y-94620000D03*
D18*
X126130049Y-94620000D03*
X128670049Y-94620000D03*
X131210049Y-94620000D03*
X133750049Y-94620000D03*
X133750049Y-79380000D03*
X131210049Y-79380000D03*
X128670049Y-79380000D03*
X126130049Y-79380000D03*
X123590049Y-79380000D03*
%TD*%
D13*
%TO.C,U2*%
X59770049Y-98300000D03*
D10*
X59770049Y-95760000D03*
X59770049Y-93220000D03*
X59770049Y-90680000D03*
X59770049Y-88140000D03*
X59770049Y-85600000D03*
X59770049Y-83060000D03*
X52150049Y-83060000D03*
X52150049Y-85600000D03*
X52150049Y-88140000D03*
X52150049Y-90680000D03*
X52150049Y-93220000D03*
X52150049Y-95760000D03*
X52150049Y-98300000D03*
%TD*%
D22*
%TO.C,BZ1*%
X47270049Y-16000000D03*
D21*
X47270049Y-23600000D03*
%TD*%
D11*
%TO.C,J1*%
X84170049Y-73575000D03*
D12*
X84170049Y-71035000D03*
%TD*%
D14*
%TO.C,U16*%
X72370049Y-16860000D03*
D10*
X72370049Y-19400000D03*
X72370049Y-21940000D03*
X72370049Y-24480000D03*
X72370049Y-27020000D03*
X72370049Y-29560000D03*
X72370049Y-32100000D03*
X72370049Y-34640000D03*
X72370049Y-37180000D03*
X72370049Y-39720000D03*
X72370049Y-42260000D03*
X72370049Y-44800000D03*
X72370049Y-47340000D03*
X72370049Y-49880000D03*
X72370049Y-52420000D03*
X72370049Y-54960000D03*
X72370049Y-57500000D03*
X72370049Y-60040000D03*
X72370049Y-62580000D03*
X72370049Y-65120000D03*
X87610049Y-65120000D03*
X87610049Y-62580000D03*
X87610049Y-60040000D03*
X87610049Y-57500000D03*
X87610049Y-54960000D03*
X87610049Y-52420000D03*
X87610049Y-49880000D03*
X87610049Y-47340000D03*
X87610049Y-44800000D03*
X87610049Y-42260000D03*
X87610049Y-39720000D03*
X87610049Y-37180000D03*
X87610049Y-34640000D03*
X87610049Y-32100000D03*
X87610049Y-29560000D03*
X87610049Y-27020000D03*
X87610049Y-24480000D03*
X87610049Y-21940000D03*
X87610049Y-19400000D03*
X87610049Y-16860000D03*
%TD*%
D13*
%TO.C,U4*%
X70175049Y-111060000D03*
D10*
X70175049Y-108520000D03*
X70175049Y-105980000D03*
X70175049Y-103440000D03*
X70175049Y-100900000D03*
X70175049Y-98360000D03*
X70175049Y-95820000D03*
X70175049Y-93280000D03*
X70175049Y-90740000D03*
X70175049Y-88200000D03*
X70175049Y-85660000D03*
X70175049Y-83120000D03*
X62555049Y-83120000D03*
X62555049Y-85660000D03*
X62555049Y-88200000D03*
X62555049Y-90740000D03*
X62555049Y-93280000D03*
X62555049Y-95820000D03*
X62555049Y-98360000D03*
X62555049Y-100900000D03*
X62555049Y-103440000D03*
X62555049Y-105980000D03*
X62555049Y-108520000D03*
X62555049Y-111060000D03*
%TD*%
D14*
%TO.C,U17*%
X54830049Y-16860000D03*
D10*
X54830049Y-19400000D03*
X54830049Y-21940000D03*
X54830049Y-24480000D03*
X54830049Y-27020000D03*
X54830049Y-29560000D03*
X54830049Y-32100000D03*
X54830049Y-34640000D03*
X54830049Y-37180000D03*
X54830049Y-39720000D03*
X54830049Y-42260000D03*
X54830049Y-44800000D03*
X54830049Y-47340000D03*
X54830049Y-49880000D03*
X54830049Y-52420000D03*
X54830049Y-54960000D03*
X54830049Y-57500000D03*
X54830049Y-60040000D03*
X54830049Y-62580000D03*
X54830049Y-65120000D03*
X70070049Y-65120000D03*
X70070049Y-62580000D03*
X70070049Y-60040000D03*
X70070049Y-57500000D03*
X70070049Y-54960000D03*
X70070049Y-52420000D03*
X70070049Y-49880000D03*
X70070049Y-47340000D03*
X70070049Y-44800000D03*
X70070049Y-42260000D03*
X70070049Y-39720000D03*
X70070049Y-37180000D03*
X70070049Y-34640000D03*
X70070049Y-32100000D03*
X70070049Y-29560000D03*
X70070049Y-27020000D03*
X70070049Y-24480000D03*
X70070049Y-21940000D03*
X70070049Y-19400000D03*
X70070049Y-16860000D03*
%TD*%
%TO.C,R3*%
X55980049Y-123500000D03*
X48360049Y-123500000D03*
%TD*%
D23*
%TO.C,U5*%
X139367249Y-115953300D03*
D10*
X136827249Y-115953300D03*
X134287249Y-115953300D03*
X131747249Y-115953300D03*
X129207249Y-115953300D03*
X126667249Y-115953300D03*
X124127249Y-115953300D03*
X121587249Y-115953300D03*
X119047249Y-115953300D03*
X116507249Y-115953300D03*
X116507249Y-123573300D03*
X119047249Y-123573300D03*
X121587249Y-123573300D03*
X124127249Y-123573300D03*
X126667249Y-123573300D03*
X129207249Y-123573300D03*
X131747249Y-123573300D03*
X134287249Y-123573300D03*
X136827249Y-123573300D03*
X139367249Y-123573300D03*
%TD*%
%TO.C,R4*%
X136770049Y-95710000D03*
X136770049Y-88090000D03*
%TD*%
%TO.C,R1*%
X54680049Y-121200000D03*
X47060049Y-121200000D03*
%TD*%
D16*
%TO.C,U15*%
X83940049Y-86220000D03*
D10*
X86480049Y-86220000D03*
X89020049Y-86220000D03*
X91560049Y-86220000D03*
X94100049Y-86220000D03*
X96640049Y-86220000D03*
X99180049Y-86220000D03*
X101720049Y-86220000D03*
X104260049Y-86220000D03*
X106800049Y-86220000D03*
X106800049Y-78600000D03*
X104260049Y-78600000D03*
X101720049Y-78600000D03*
X99180049Y-78600000D03*
X96640049Y-78600000D03*
X94100049Y-78600000D03*
X91560049Y-78600000D03*
X89020049Y-78600000D03*
X86480049Y-78600000D03*
X83940049Y-78600000D03*
%TD*%
D24*
%TO.C,Y2*%
X140470049Y-83500000D03*
X140470049Y-85400000D03*
%TD*%
D11*
%TO.C,J2*%
X39170049Y-17910000D03*
D12*
X39170049Y-20450000D03*
X39170049Y-22990000D03*
X39170049Y-25530000D03*
X39170049Y-28070000D03*
X39170049Y-30610000D03*
X39170049Y-33150000D03*
X39170049Y-35690000D03*
%TD*%
D16*
%TO.C,U11*%
X87307249Y-123578300D03*
D10*
X89847249Y-123578300D03*
X92387249Y-123578300D03*
X94927249Y-123578300D03*
X97467249Y-123578300D03*
X100007249Y-123578300D03*
X102547249Y-123578300D03*
X105087249Y-123578300D03*
X107627249Y-123578300D03*
X110167249Y-123578300D03*
X110167249Y-115958300D03*
X107627249Y-115958300D03*
X105087249Y-115958300D03*
X102547249Y-115958300D03*
X100007249Y-115958300D03*
X97467249Y-115958300D03*
X94927249Y-115958300D03*
X92387249Y-115958300D03*
X89847249Y-115958300D03*
X87307249Y-115958300D03*
%TD*%
%TO.C,R6*%
X136870049Y-85910000D03*
X136870049Y-78290000D03*
%TD*%
D15*
%TO.C,Y1*%
X53250049Y-78610000D03*
D10*
X68490049Y-78610000D03*
X68490049Y-70990000D03*
X53250049Y-70990000D03*
%TD*%
D25*
%TO.C,U7*%
X129570049Y-72300000D03*
D26*
X127030049Y-72300000D03*
X124490049Y-72300000D03*
X121950049Y-72300000D03*
X119410049Y-72300000D03*
X116870049Y-72300000D03*
X114330049Y-72300000D03*
X111790049Y-72300000D03*
X109250049Y-72300000D03*
X106710049Y-72300000D03*
X104170049Y-72300000D03*
X101630049Y-72300000D03*
X99090049Y-72300000D03*
X96550049Y-72300000D03*
X96550049Y-62140000D03*
X99090049Y-62140000D03*
X101630049Y-62140000D03*
X104170049Y-62140000D03*
X106710049Y-62140000D03*
X109250049Y-62140000D03*
X111790049Y-62140000D03*
X114330049Y-62140000D03*
X116870049Y-62140000D03*
X119410049Y-62140000D03*
X121950049Y-62140000D03*
X124490049Y-62140000D03*
X127030049Y-62140000D03*
X129570049Y-62140000D03*
%TD*%
D25*
%TO.C,U8*%
X129570049Y-50985000D03*
D26*
X127030049Y-50985000D03*
X124490049Y-50985000D03*
X121950049Y-50985000D03*
X119410049Y-50985000D03*
X116870049Y-50985000D03*
X114330049Y-50985000D03*
X111790049Y-50985000D03*
X109250049Y-50985000D03*
X106710049Y-50985000D03*
X104170049Y-50985000D03*
X101630049Y-50985000D03*
X99090049Y-50985000D03*
X96550049Y-50985000D03*
X96550049Y-40825000D03*
X99090049Y-40825000D03*
X101630049Y-40825000D03*
X104170049Y-40825000D03*
X106710049Y-40825000D03*
X109250049Y-40825000D03*
X111790049Y-40825000D03*
X114330049Y-40825000D03*
X116870049Y-40825000D03*
X119410049Y-40825000D03*
X121950049Y-40825000D03*
X124490049Y-40825000D03*
X127030049Y-40825000D03*
X129570049Y-40825000D03*
%TD*%
D25*
%TO.C,U9*%
X129570049Y-29670000D03*
D26*
X127030049Y-29670000D03*
X124490049Y-29670000D03*
X121950049Y-29670000D03*
X119410049Y-29670000D03*
X116870049Y-29670000D03*
X114330049Y-29670000D03*
X111790049Y-29670000D03*
X109250049Y-29670000D03*
X106710049Y-29670000D03*
X104170049Y-29670000D03*
X101630049Y-29670000D03*
X99090049Y-29670000D03*
X96550049Y-29670000D03*
X96550049Y-19510000D03*
X99090049Y-19510000D03*
X101630049Y-19510000D03*
X104170049Y-19510000D03*
X106710049Y-19510000D03*
X109250049Y-19510000D03*
X111790049Y-19510000D03*
X114330049Y-19510000D03*
X116870049Y-19510000D03*
X119410049Y-19510000D03*
X121950049Y-19510000D03*
X124490049Y-19510000D03*
X127030049Y-19510000D03*
X129570049Y-19510000D03*
%TD*%
D22*
%TO.C,BT1*%
X38270049Y-119142545D03*
D21*
X38270049Y-139942545D03*
%TD*%
M02*
