%TF.GenerationSoftware,KiCad,Pcbnew,10.0.1*%
%TF.CreationDate,2026-05-14T20:43:56+08:00*%
%TF.ProjectId,z80handheld,7a383068-616e-4646-9865-6c642e6b6963,rev?*%
%TF.SameCoordinates,Original*%
%TF.FileFunction,Paste,Top*%
%TF.FilePolarity,Positive*%
%FSLAX46Y46*%
G04 Gerber Fmt 4.6, Leading zero omitted, Abs format (unit mm)*
G04 Created by KiCad (PCBNEW 10.0.1) date 2026-05-14 20:43:56*
%MOMM*%
%LPD*%
G01*
G04 APERTURE LIST*
G04 Aperture macros list*
%AMRoundRect*
0 Rectangle with rounded corners*
0 $1 Rounding radius*
0 $2 $3 $4 $5 $6 $7 $8 $9 X,Y pos of 4 corners*
0 Add a 4 corners polygon primitive as box body*
4,1,4,$2,$3,$4,$5,$6,$7,$8,$9,$2,$3,0*
0 Add four circle primitives for the rounded corners*
1,1,$1+$1,$2,$3*
1,1,$1+$1,$4,$5*
1,1,$1+$1,$6,$7*
1,1,$1+$1,$8,$9*
0 Add four rect primitives between the rounded corners*
20,1,$1+$1,$2,$3,$4,$5,0*
20,1,$1+$1,$4,$5,$6,$7,0*
20,1,$1+$1,$6,$7,$8,$9,0*
20,1,$1+$1,$8,$9,$2,$3,0*%
G04 Aperture macros list end*
%ADD10R,1.050000X0.650000*%
%ADD11RoundRect,0.250001X-0.462499X-0.624999X0.462499X-0.624999X0.462499X0.624999X-0.462499X0.624999X0*%
%ADD12RoundRect,0.250001X0.462499X0.624999X-0.462499X0.624999X-0.462499X-0.624999X0.462499X-0.624999X0*%
%ADD13RoundRect,0.250001X0.624999X-0.462499X0.624999X0.462499X-0.624999X0.462499X-0.624999X-0.462499X0*%
G04 APERTURE END LIST*
D10*
%TO.C,SW58*%
X42552249Y-130533300D03*
X46702249Y-130533300D03*
X42552249Y-132683300D03*
X46702249Y-132683300D03*
%TD*%
%TO.C,SW20*%
X73641449Y-139216600D03*
X77791449Y-139216600D03*
X73641449Y-141366600D03*
X77791449Y-141366600D03*
%TD*%
D11*
%TO.C,D21*%
X27327549Y-128433300D03*
X30302549Y-128433300D03*
%TD*%
D10*
%TO.C,SW31*%
X117077249Y-134858300D03*
X121227249Y-134858300D03*
X117077249Y-137008300D03*
X121227249Y-137008300D03*
%TD*%
%TO.C,SW12*%
X79859349Y-139216600D03*
X84009349Y-139216600D03*
X79859349Y-141366600D03*
X84009349Y-141366600D03*
%TD*%
%TO.C,SW61*%
X92205749Y-126191600D03*
X96355749Y-126191600D03*
X92205749Y-128341600D03*
X96355749Y-128341600D03*
%TD*%
D12*
%TO.C,D7*%
X30257549Y-101754167D03*
X27282549Y-101754167D03*
%TD*%
D10*
%TO.C,SW22*%
X123295049Y-130525000D03*
X127445049Y-130525000D03*
X123295049Y-132675000D03*
X127445049Y-132675000D03*
%TD*%
%TO.C,SW42*%
X54987949Y-130533300D03*
X59137949Y-130533300D03*
X54987949Y-132683300D03*
X59137949Y-132683300D03*
%TD*%
%TO.C,SW50*%
X48770049Y-130533300D03*
X52920049Y-130533300D03*
X48770049Y-132683300D03*
X52920049Y-132683300D03*
%TD*%
%TO.C,SW27*%
X67423649Y-134875000D03*
X71573649Y-134875000D03*
X67423649Y-137025000D03*
X71573649Y-137025000D03*
%TD*%
%TO.C,SW8*%
X135730749Y-139191600D03*
X139880749Y-139191600D03*
X135730749Y-141341600D03*
X139880749Y-141341600D03*
%TD*%
D12*
%TO.C,D36*%
X30257549Y-50000267D03*
X27282549Y-50000267D03*
%TD*%
D10*
%TO.C,SW7*%
X135730749Y-134858300D03*
X139880749Y-134858300D03*
X135730749Y-137008300D03*
X139880749Y-137008300D03*
%TD*%
%TO.C,SW21*%
X123295049Y-126191600D03*
X127445049Y-126191600D03*
X123295049Y-128341600D03*
X127445049Y-128341600D03*
%TD*%
%TO.C,SW51*%
X48770049Y-134875000D03*
X52920049Y-134875000D03*
X48770049Y-137025000D03*
X52920049Y-137025000D03*
%TD*%
%TO.C,SW39*%
X110859349Y-134858300D03*
X115009349Y-134858300D03*
X110859349Y-137008300D03*
X115009349Y-137008300D03*
%TD*%
D12*
%TO.C,D32*%
X30257549Y-62177667D03*
X27282549Y-62177667D03*
%TD*%
D10*
%TO.C,SW17*%
X73641449Y-126191600D03*
X77791449Y-126191600D03*
X73641449Y-128341600D03*
X77791449Y-128341600D03*
%TD*%
%TO.C,SW32*%
X117077249Y-139191600D03*
X121227249Y-139191600D03*
X117077249Y-141341600D03*
X121227249Y-141341600D03*
%TD*%
D12*
%TO.C,D30*%
X30257549Y-68266367D03*
X27282549Y-68266367D03*
%TD*%
%TO.C,D26*%
X30257549Y-80443767D03*
X27282549Y-80443767D03*
%TD*%
D10*
%TO.C,SW19*%
X73641449Y-134875000D03*
X77791449Y-134875000D03*
X73641449Y-137025000D03*
X77791449Y-137025000D03*
%TD*%
%TO.C,SW2*%
X86077249Y-130508300D03*
X90227249Y-130508300D03*
X86077249Y-132658300D03*
X90227249Y-132658300D03*
%TD*%
%TO.C,SW13*%
X129512949Y-126191600D03*
X133662949Y-126191600D03*
X129512949Y-128341600D03*
X133662949Y-128341600D03*
%TD*%
%TO.C,SW24*%
X123295049Y-139191600D03*
X127445049Y-139191600D03*
X123295049Y-141341600D03*
X127445049Y-141341600D03*
%TD*%
D11*
%TO.C,D12*%
X27327549Y-119983300D03*
X30302549Y-119983300D03*
%TD*%
%TO.C,D24*%
X27327549Y-131250000D03*
X30302549Y-131250000D03*
%TD*%
D10*
%TO.C,SW18*%
X73641449Y-130533300D03*
X77791449Y-130533300D03*
X73641449Y-132683300D03*
X77791449Y-132683300D03*
%TD*%
D11*
%TO.C,D18*%
X27327549Y-125616700D03*
X30302549Y-125616700D03*
%TD*%
D10*
%TO.C,SW41*%
X54987949Y-126191600D03*
X59137949Y-126191600D03*
X54987949Y-128341600D03*
X59137949Y-128341600D03*
%TD*%
%TO.C,SW11*%
X79859349Y-134875000D03*
X84009349Y-134875000D03*
X79859349Y-137025000D03*
X84009349Y-137025000D03*
%TD*%
%TO.C,SW38*%
X110859349Y-130525000D03*
X115009349Y-130525000D03*
X110859349Y-132675000D03*
X115009349Y-132675000D03*
%TD*%
%TO.C,SW1*%
X86077249Y-126166600D03*
X90227249Y-126166600D03*
X86077249Y-128316600D03*
X90227249Y-128316600D03*
%TD*%
%TO.C,SW23*%
X123295049Y-134858300D03*
X127445049Y-134858300D03*
X123295049Y-137008300D03*
X127445049Y-137008300D03*
%TD*%
%TO.C,SW63*%
X92205749Y-134858300D03*
X96355749Y-134858300D03*
X92205749Y-137008300D03*
X96355749Y-137008300D03*
%TD*%
%TO.C,SW52*%
X48770049Y-139216600D03*
X52920049Y-139216600D03*
X48770049Y-141366600D03*
X52920049Y-141366600D03*
%TD*%
%TO.C,SW35*%
X61205749Y-134875000D03*
X65355749Y-134875000D03*
X61205749Y-137025000D03*
X65355749Y-137025000D03*
%TD*%
D12*
%TO.C,D1*%
X30257549Y-110887167D03*
X27282549Y-110887167D03*
%TD*%
D10*
%TO.C,SW56*%
X98423649Y-139191600D03*
X102573649Y-139191600D03*
X98423649Y-141341600D03*
X102573649Y-141341600D03*
%TD*%
D12*
%TO.C,D4*%
X30257549Y-104798467D03*
X27282549Y-104798467D03*
%TD*%
D10*
%TO.C,SW37*%
X110859349Y-126191600D03*
X115009349Y-126191600D03*
X110859349Y-128341600D03*
X115009349Y-128341600D03*
%TD*%
%TO.C,SW3*%
X86077249Y-134850000D03*
X90227249Y-134850000D03*
X86077249Y-137000000D03*
X90227249Y-137000000D03*
%TD*%
D12*
%TO.C,D31*%
X30257549Y-65221967D03*
X27282549Y-65221967D03*
%TD*%
D10*
%TO.C,SW57*%
X42552249Y-126191600D03*
X46702249Y-126191600D03*
X42552249Y-128341600D03*
X46702249Y-128341600D03*
%TD*%
%TO.C,SW29*%
X117077249Y-126191600D03*
X121227249Y-126191600D03*
X117077249Y-128341600D03*
X121227249Y-128341600D03*
%TD*%
D12*
%TO.C,D19*%
X30257549Y-89576767D03*
X27282549Y-89576767D03*
%TD*%
%TO.C,D25*%
X30257549Y-83488067D03*
X27282549Y-83488067D03*
%TD*%
D13*
%TO.C,D11*%
X93700049Y-101577500D03*
X93700049Y-98602500D03*
%TD*%
D12*
%TO.C,D37*%
X30257549Y-46955867D03*
X27282549Y-46955867D03*
%TD*%
%TO.C,D33*%
X30257549Y-59133267D03*
X27282549Y-59133267D03*
%TD*%
D10*
%TO.C,SW48*%
X104641449Y-139191600D03*
X108791449Y-139191600D03*
X104641449Y-141341600D03*
X108791449Y-141341600D03*
%TD*%
D13*
%TO.C,D14*%
X97090049Y-101577500D03*
X97090049Y-98602500D03*
%TD*%
D10*
%TO.C,SW34*%
X61205749Y-130533300D03*
X65355749Y-130533300D03*
X61205749Y-132683300D03*
X65355749Y-132683300D03*
%TD*%
D12*
%TO.C,D35*%
X30257549Y-53044567D03*
X27282549Y-53044567D03*
%TD*%
D10*
%TO.C,SW25*%
X67423649Y-126191600D03*
X71573649Y-126191600D03*
X67423649Y-128341600D03*
X71573649Y-128341600D03*
%TD*%
%TO.C,SW16*%
X129512949Y-139191600D03*
X133662949Y-139191600D03*
X129512949Y-141341600D03*
X133662949Y-141341600D03*
%TD*%
%TO.C,SW55*%
X98423649Y-134858300D03*
X102573649Y-134858300D03*
X98423649Y-137008300D03*
X102573649Y-137008300D03*
%TD*%
D13*
%TO.C,D23*%
X107260049Y-101577500D03*
X107260049Y-98602500D03*
%TD*%
D10*
%TO.C,SW4*%
X86077249Y-139191600D03*
X90227249Y-139191600D03*
X86077249Y-141341600D03*
X90227249Y-141341600D03*
%TD*%
%TO.C,SW33*%
X61205749Y-126191600D03*
X65355749Y-126191600D03*
X61205749Y-128341600D03*
X65355749Y-128341600D03*
%TD*%
%TO.C,SW9*%
X79859349Y-126191600D03*
X84009349Y-126191600D03*
X79859349Y-128341600D03*
X84009349Y-128341600D03*
%TD*%
D12*
%TO.C,D2*%
X30257549Y-107842867D03*
X27282549Y-107842867D03*
%TD*%
D10*
%TO.C,SW6*%
X135730749Y-130525000D03*
X139880749Y-130525000D03*
X135730749Y-132675000D03*
X139880749Y-132675000D03*
%TD*%
%TO.C,SW43*%
X54987949Y-134875000D03*
X59137949Y-134875000D03*
X54987949Y-137025000D03*
X59137949Y-137025000D03*
%TD*%
D12*
%TO.C,D38*%
X30257549Y-43911567D03*
X27282549Y-43911567D03*
%TD*%
D10*
%TO.C,SW46*%
X104641449Y-130525000D03*
X108791449Y-130525000D03*
X104641449Y-132675000D03*
X108791449Y-132675000D03*
%TD*%
%TO.C,SW47*%
X104641449Y-134858300D03*
X108791449Y-134858300D03*
X104641449Y-137008300D03*
X108791449Y-137008300D03*
%TD*%
%TO.C,SW26*%
X67423649Y-130533300D03*
X71573649Y-130533300D03*
X67423649Y-132683300D03*
X71573649Y-132683300D03*
%TD*%
%TO.C,SW60*%
X42552249Y-139216600D03*
X46702249Y-139216600D03*
X42552249Y-141366600D03*
X46702249Y-141366600D03*
%TD*%
D12*
%TO.C,D34*%
X30257549Y-56088967D03*
X27282549Y-56088967D03*
%TD*%
D13*
%TO.C,D8*%
X90310049Y-101577500D03*
X90310049Y-98602500D03*
%TD*%
D10*
%TO.C,SW53*%
X98423649Y-126191600D03*
X102573649Y-126191600D03*
X98423649Y-128341600D03*
X102573649Y-128341600D03*
%TD*%
D12*
%TO.C,D27*%
X30257549Y-77399367D03*
X27282549Y-77399367D03*
%TD*%
D11*
%TO.C,D6*%
X27327549Y-114350000D03*
X30302549Y-114350000D03*
%TD*%
D10*
%TO.C,SW15*%
X129512949Y-134858300D03*
X133662949Y-134858300D03*
X129512949Y-137008300D03*
X133662949Y-137008300D03*
%TD*%
D13*
%TO.C,D20*%
X103870049Y-101577500D03*
X103870049Y-98602500D03*
%TD*%
D10*
%TO.C,SW10*%
X79859349Y-130533300D03*
X84009349Y-130533300D03*
X79859349Y-132683300D03*
X84009349Y-132683300D03*
%TD*%
D13*
%TO.C,D3*%
X83530049Y-101577500D03*
X83530049Y-98602500D03*
%TD*%
D10*
%TO.C,SW28*%
X67423649Y-139216600D03*
X71573649Y-139216600D03*
X67423649Y-141366600D03*
X71573649Y-141366600D03*
%TD*%
%TO.C,SW64*%
X92205749Y-139191600D03*
X96355749Y-139191600D03*
X92205749Y-141341600D03*
X96355749Y-141341600D03*
%TD*%
D11*
%TO.C,D9*%
X27327549Y-117166700D03*
X30302549Y-117166700D03*
%TD*%
D12*
%TO.C,D28*%
X30257549Y-74355067D03*
X27282549Y-74355067D03*
%TD*%
D10*
%TO.C,SW59*%
X42552249Y-134875000D03*
X46702249Y-134875000D03*
X42552249Y-137025000D03*
X46702249Y-137025000D03*
%TD*%
D12*
%TO.C,D13*%
X30257549Y-95665467D03*
X27282549Y-95665467D03*
%TD*%
D10*
%TO.C,SW62*%
X92205749Y-130525000D03*
X96355749Y-130525000D03*
X92205749Y-132675000D03*
X96355749Y-132675000D03*
%TD*%
D11*
%TO.C,D15*%
X27327549Y-122800000D03*
X30302549Y-122800000D03*
%TD*%
D12*
%TO.C,D22*%
X30257549Y-86532467D03*
X27282549Y-86532467D03*
%TD*%
%TO.C,D10*%
X30257549Y-98709867D03*
X27282549Y-98709867D03*
%TD*%
D10*
%TO.C,SW36*%
X61205749Y-139216600D03*
X65355749Y-139216600D03*
X61205749Y-141366600D03*
X65355749Y-141366600D03*
%TD*%
%TO.C,SW30*%
X117077249Y-130525000D03*
X121227249Y-130525000D03*
X117077249Y-132675000D03*
X121227249Y-132675000D03*
%TD*%
%TO.C,SW44*%
X54987949Y-139216600D03*
X59137949Y-139216600D03*
X54987949Y-141366600D03*
X59137949Y-141366600D03*
%TD*%
D12*
%TO.C,D39*%
X30257549Y-40867167D03*
X27282549Y-40867167D03*
%TD*%
D10*
%TO.C,SW5*%
X135730749Y-126191600D03*
X139880749Y-126191600D03*
X135730749Y-128341600D03*
X139880749Y-128341600D03*
%TD*%
%TO.C,SW45*%
X104641449Y-126191600D03*
X108791449Y-126191600D03*
X104641449Y-128341600D03*
X108791449Y-128341600D03*
%TD*%
%TO.C,SW49*%
X48770049Y-126191600D03*
X52920049Y-126191600D03*
X48770049Y-128341600D03*
X52920049Y-128341600D03*
%TD*%
D12*
%TO.C,D29*%
X30257549Y-71310667D03*
X27282549Y-71310667D03*
%TD*%
D13*
%TO.C,D5*%
X86920049Y-101577500D03*
X86920049Y-98602500D03*
%TD*%
D10*
%TO.C,SW40*%
X110859349Y-139191600D03*
X115009349Y-139191600D03*
X110859349Y-141341600D03*
X115009349Y-141341600D03*
%TD*%
D12*
%TO.C,D16*%
X30257549Y-92621167D03*
X27282549Y-92621167D03*
%TD*%
D10*
%TO.C,SW54*%
X98423649Y-130525000D03*
X102573649Y-130525000D03*
X98423649Y-132675000D03*
X102573649Y-132675000D03*
%TD*%
D13*
%TO.C,D17*%
X100480049Y-101577500D03*
X100480049Y-98602500D03*
%TD*%
D10*
%TO.C,SW14*%
X129512949Y-130525000D03*
X133662949Y-130525000D03*
X129512949Y-132675000D03*
X133662949Y-132675000D03*
%TD*%
M02*
