%TF.GenerationSoftware,KiCad,Pcbnew,10.0.1*%
%TF.CreationDate,2026-04-24T22:44:24+08:00*%
%TF.ProjectId,z80handheld,7a383068-616e-4646-9865-6c642e6b6963,rev?*%
%TF.SameCoordinates,Original*%
%TF.FileFunction,Copper,L1,Top*%
%TF.FilePolarity,Positive*%
%FSLAX46Y46*%
G04 Gerber Fmt 4.6, Leading zero omitted, Abs format (unit mm)*
G04 Created by KiCad (PCBNEW 10.0.1) date 2026-04-24 22:44:24*
%MOMM*%
%LPD*%
G01*
G04 APERTURE LIST*
G04 Aperture macros list*
%AMRoundRect*
0 Rectangle with rounded corners*
0 $1 Rounding radius*
0 $2 $3 $4 $5 $6 $7 $8 $9 X,Y pos of 4 corners*
0 Add a 4 corners polygon primitive as box body*
4,1,4,$2,$3,$4,$5,$6,$7,$8,$9,$2,$3,0*
0 Add four circle primitives for the rounded corners*
1,1,$1+$1,$2,$3*
1,1,$1+$1,$4,$5*
1,1,$1+$1,$6,$7*
1,1,$1+$1,$8,$9*
0 Add four rect primitives between the rounded corners*
20,1,$1+$1,$2,$3,$4,$5,0*
20,1,$1+$1,$4,$5,$6,$7,0*
20,1,$1+$1,$6,$7,$8,$9,0*
20,1,$1+$1,$8,$9,$2,$3,0*%
G04 Aperture macros list end*
%TA.AperFunction,SMDPad,CuDef*%
%ADD10R,1.050000X0.650000*%
%TD*%
%TA.AperFunction,ComponentPad*%
%ADD11R,1.600000X1.600000*%
%TD*%
%TA.AperFunction,ComponentPad*%
%ADD12O,1.600000X1.600000*%
%TD*%
%TA.AperFunction,SMDPad,CuDef*%
%ADD13RoundRect,0.250001X-0.624999X0.462499X-0.624999X-0.462499X0.624999X-0.462499X0.624999X0.462499X0*%
%TD*%
%TA.AperFunction,SMDPad,CuDef*%
%ADD14RoundRect,0.250001X0.624999X-0.462499X0.624999X0.462499X-0.624999X0.462499X-0.624999X-0.462499X0*%
%TD*%
%TA.AperFunction,ComponentPad*%
%ADD15C,1.600000*%
%TD*%
%TA.AperFunction,ComponentPad*%
%ADD16RoundRect,0.250000X0.550000X0.550000X-0.550000X0.550000X-0.550000X-0.550000X0.550000X-0.550000X0*%
%TD*%
%TA.AperFunction,ComponentPad*%
%ADD17RoundRect,0.250000X-0.550000X0.550000X-0.550000X-0.550000X0.550000X-0.550000X0.550000X0.550000X0*%
%TD*%
%TA.AperFunction,SMDPad,CuDef*%
%ADD18RoundRect,0.150000X-0.650000X-0.150000X0.650000X-0.150000X0.650000X0.150000X-0.650000X0.150000X0*%
%TD*%
%TA.AperFunction,ComponentPad*%
%ADD19R,1.700000X1.700000*%
%TD*%
%TA.AperFunction,ComponentPad*%
%ADD20C,1.700000*%
%TD*%
%TA.AperFunction,SMDPad,CuDef*%
%ADD21RoundRect,0.250001X0.462499X0.624999X-0.462499X0.624999X-0.462499X-0.624999X0.462499X-0.624999X0*%
%TD*%
%TA.AperFunction,ComponentPad*%
%ADD22RoundRect,0.250000X0.550000X-0.550000X0.550000X0.550000X-0.550000X0.550000X-0.550000X-0.550000X0*%
%TD*%
%TA.AperFunction,SMDPad,CuDef*%
%ADD23R,0.900000X2.800000*%
%TD*%
%TA.AperFunction,ComponentPad*%
%ADD24RoundRect,0.250000X-0.550000X-0.550000X0.550000X-0.550000X0.550000X0.550000X-0.550000X0.550000X0*%
%TD*%
%TA.AperFunction,ComponentPad*%
%ADD25R,1.110000X1.110000*%
%TD*%
%TA.AperFunction,ComponentPad*%
%ADD26C,1.110000*%
%TD*%
%TA.AperFunction,ComponentPad*%
%ADD27C,1.000000*%
%TD*%
%TA.AperFunction,ComponentPad*%
%ADD28C,2.000000*%
%TD*%
%TA.AperFunction,ComponentPad*%
%ADD29R,2.000000X2.000000*%
%TD*%
%TA.AperFunction,ComponentPad*%
%ADD30R,2.000000X1.440000*%
%TD*%
%TA.AperFunction,ComponentPad*%
%ADD31O,2.000000X1.440000*%
%TD*%
%TA.AperFunction,ComponentPad*%
%ADD32R,1.440000X2.000000*%
%TD*%
%TA.AperFunction,ComponentPad*%
%ADD33O,1.440000X2.000000*%
%TD*%
%TA.AperFunction,ViaPad*%
%ADD34C,0.600000*%
%TD*%
%TA.AperFunction,Conductor*%
%ADD35C,0.200000*%
%TD*%
%ADD36C,0.000000*%
G04 APERTURE END LIST*
D10*
%TO.P,SW61,1,1_1*%
%TO.N,Net-(U5-Q7)*%
X257958500Y-196701600D03*
X262108500Y-196701600D03*
%TO.P,SW61,2,2_2*%
%TO.N,Net-(U11-D3)*%
X257958500Y-198851600D03*
X262108500Y-198851600D03*
%TD*%
D11*
%TO.P,U4,1,~{S0}_1*%
%TO.N,IO1*%
X257625000Y-189530000D03*
D12*
%TO.P,U4,2,~{S1}_2*%
X260165000Y-189530000D03*
%TO.P,U4,3,~{S2}_3*%
X262705000Y-189530000D03*
%TO.P,U4,4,~{S3}_4*%
X265245000Y-189530000D03*
%TO.P,U4,5,~{S4}_5*%
X267785000Y-189530000D03*
%TO.P,U4,6,~{S5}_6*%
X270325000Y-189530000D03*
%TO.P,U4,7,~{S6}_7*%
X272865000Y-189530000D03*
%TO.P,U4,8,~{S7}_8*%
X275405000Y-189530000D03*
%TO.P,U4,9,~{S8}_9*%
X277945000Y-189530000D03*
%TO.P,U4,10,~{S9}_10*%
X280485000Y-189530000D03*
%TO.P,U4,11,~{S10}_11*%
X283025000Y-189530000D03*
%TO.P,U4,12,GND_12*%
%TO.N,GND*%
X285565000Y-189530000D03*
%TO.P,U4,13,~{S11}_13*%
%TO.N,IO1*%
X285565000Y-181910000D03*
%TO.P,U4,14,~{S12}_14*%
X283025000Y-181910000D03*
%TO.P,U4,15,~{S13}_15*%
X280485000Y-181910000D03*
%TO.P,U4,16,~{S14}_16*%
X277945000Y-181910000D03*
%TO.P,U4,17,~{S15}_17*%
X275405000Y-181910000D03*
%TO.P,U4,18,~{E0}_18*%
%TO.N,!IORQ*%
X272865000Y-181910000D03*
%TO.P,U4,19,~{E1}_19*%
%TO.N,Net-(U4-~{E1})*%
X270325000Y-181910000D03*
%TO.P,U4,20,A3_20*%
%TO.N,A7*%
X267785000Y-181910000D03*
%TO.P,U4,21,A2_21*%
%TO.N,A6*%
X265245000Y-181910000D03*
%TO.P,U4,22,A1_22*%
%TO.N,A5*%
X262705000Y-181910000D03*
%TO.P,U4,23,A0_23*%
%TO.N,A4*%
X260165000Y-181910000D03*
%TO.P,U4,24,VCC_24*%
%TO.N,5V*%
X257625000Y-181910000D03*
%TD*%
D10*
%TO.P,SW1,1,1_1*%
%TO.N,Net-(U5-Q0)*%
X251830000Y-196676600D03*
X255980000Y-196676600D03*
%TO.P,SW1,2,2_2*%
%TO.N,Net-(U11-D7)*%
X251830000Y-198826600D03*
X255980000Y-198826600D03*
%TD*%
%TO.P,SW55,1,1_1*%
%TO.N,Net-(U5-Q6)*%
X264176400Y-205368300D03*
X268326400Y-205368300D03*
%TO.P,SW55,2,2_2*%
%TO.N,Net-(U11-D1)*%
X264176400Y-207518300D03*
X268326400Y-207518300D03*
%TD*%
D13*
%TO.P,D21,1,K_1*%
%TO.N,!MREQ*%
X292255000Y-145922500D03*
%TO.P,D21,2,A_2*%
%TO.N,5V*%
X292255000Y-148897500D03*
%TD*%
D10*
%TO.P,SW49,1,1_1*%
%TO.N,Net-(U5-Q6)*%
X214522800Y-196701600D03*
X218672800Y-196701600D03*
%TO.P,SW49,2,2_2*%
%TO.N,Net-(U11-D7)*%
X214522800Y-198851600D03*
X218672800Y-198851600D03*
%TD*%
D13*
%TO.P,D6,1,K_1*%
%TO.N,!HALT*%
X306338300Y-145922500D03*
%TO.P,D6,2,A_2*%
%TO.N,5V*%
X306338300Y-148897500D03*
%TD*%
D10*
%TO.P,SW58,1,1_1*%
%TO.N,Net-(U5-Q7)*%
X208305000Y-201043300D03*
X212455000Y-201043300D03*
%TO.P,SW58,2,2_2*%
%TO.N,Net-(U11-D6)*%
X208305000Y-203193300D03*
X212455000Y-203193300D03*
%TD*%
%TO.P,SW60,1,1_1*%
%TO.N,Net-(U5-Q7)*%
X208305000Y-209726600D03*
X212455000Y-209726600D03*
%TO.P,SW60,2,2_2*%
%TO.N,Net-(U11-D4)*%
X208305000Y-211876600D03*
X212455000Y-211876600D03*
%TD*%
%TO.P,SW19,1,1_1*%
%TO.N,Net-(U5-Q2)*%
X239394200Y-205385000D03*
X243544200Y-205385000D03*
%TO.P,SW19,2,2_2*%
%TO.N,Net-(U11-D5)*%
X239394200Y-207535000D03*
X243544200Y-207535000D03*
%TD*%
D14*
%TO.P,D19,1,K_1*%
%TO.N,GND*%
X231361500Y-148852500D03*
%TO.P,D19,2,A_2*%
%TO.N,A7*%
X231361500Y-145877500D03*
%TD*%
%TO.P,D37,1,K_1*%
%TO.N,GND*%
X273982400Y-148852500D03*
%TO.P,D37,2,A_2*%
%TO.N,D5*%
X273982400Y-145877500D03*
%TD*%
D10*
%TO.P,SW57,1,1_1*%
%TO.N,Net-(U5-Q7)*%
X208305000Y-196701600D03*
X212455000Y-196701600D03*
%TO.P,SW57,2,2_2*%
%TO.N,Net-(U11-D7)*%
X208305000Y-198851600D03*
X212455000Y-198851600D03*
%TD*%
%TO.P,SW54,1,1_1*%
%TO.N,Net-(U5-Q6)*%
X264176400Y-201035000D03*
X268326400Y-201035000D03*
%TO.P,SW54,2,2_2*%
%TO.N,Net-(U11-D2)*%
X264176400Y-203185000D03*
X268326400Y-203185000D03*
%TD*%
%TO.P,SW9,1,1_1*%
%TO.N,Net-(U5-Q1)*%
X245612100Y-196701600D03*
X249762100Y-196701600D03*
%TO.P,SW9,2,2_2*%
%TO.N,Net-(U11-D7)*%
X245612100Y-198851600D03*
X249762100Y-198851600D03*
%TD*%
%TO.P,SW22,1,1_1*%
%TO.N,Net-(U5-Q2)*%
X289047800Y-201035000D03*
X293197800Y-201035000D03*
%TO.P,SW22,2,2_2*%
%TO.N,Net-(U11-D2)*%
X289047800Y-203185000D03*
X293197800Y-203185000D03*
%TD*%
D15*
%TO.P,R3,1*%
%TO.N,5V*%
X222405000Y-182400000D03*
%TO.P,R3,2*%
%TO.N,Net-(U10-~{WAIT})*%
X222405000Y-190020000D03*
%TD*%
D14*
%TO.P,D27,1,K_1*%
%TO.N,GND*%
X243538900Y-148852500D03*
%TO.P,D27,2,A_2*%
%TO.N,A11*%
X243538900Y-145877500D03*
%TD*%
D16*
%TO.P,U6,1,OE_1*%
%TO.N,GND*%
X286610000Y-177440000D03*
D15*
%TO.P,U6,2,D0_2*%
%TO.N,D0*%
X286610000Y-174900000D03*
%TO.P,U6,3,D1_3*%
%TO.N,D1*%
X286610000Y-172360000D03*
%TO.P,U6,4,D2_4*%
%TO.N,D2*%
X286610000Y-169820000D03*
%TO.P,U6,5,D3_5*%
%TO.N,D3*%
X286610000Y-167280000D03*
%TO.P,U6,6,D4_6*%
%TO.N,D4*%
X286610000Y-164740000D03*
%TO.P,U6,7,D5_7*%
%TO.N,D5*%
X286610000Y-162200000D03*
%TO.P,U6,8,D6_8*%
%TO.N,D6*%
X286610000Y-159660000D03*
%TO.P,U6,9,D7_9*%
%TO.N,D7*%
X286610000Y-157120000D03*
%TO.P,U6,10,GND_10*%
%TO.N,GND*%
X286610000Y-154580000D03*
%TO.P,U6,11,Load_11*%
%TO.N,IO4*%
X278990000Y-154580000D03*
%TO.P,U6,12,Q7_12*%
%TO.N,Net-(D23-A)*%
X278990000Y-157120000D03*
%TO.P,U6,13,Q6_13*%
%TO.N,Net-(D20-A)*%
X278990000Y-159660000D03*
%TO.P,U6,14,Q5_14*%
%TO.N,Net-(D17-A)*%
X278990000Y-162200000D03*
%TO.P,U6,15,Q4_15*%
%TO.N,Net-(D14-A)*%
X278990000Y-164740000D03*
%TO.P,U6,16,Q3_16*%
%TO.N,Net-(D11-A)*%
X278990000Y-167280000D03*
%TO.P,U6,17,Q2_17*%
%TO.N,Net-(D8-A)*%
X278990000Y-169820000D03*
%TO.P,U6,18,Q1_18*%
%TO.N,!MREQ*%
X278990000Y-172360000D03*
%TO.P,U6,19,Q0_19*%
%TO.N,BANK_0*%
X278990000Y-174900000D03*
%TO.P,U6,20,VCC_20*%
%TO.N,5V*%
X278990000Y-177440000D03*
%TD*%
D10*
%TO.P,SW16,1,1_1*%
%TO.N,Net-(U5-Q1)*%
X295265700Y-209701600D03*
X299415700Y-209701600D03*
%TO.P,SW16,2,2_2*%
%TO.N,Net-(U11-D0)*%
X295265700Y-211851600D03*
X299415700Y-211851600D03*
%TD*%
%TO.P,SW56,1,1_1*%
%TO.N,Net-(U5-Q6)*%
X264176400Y-209701600D03*
X268326400Y-209701600D03*
%TO.P,SW56,2,2_2*%
%TO.N,Net-(U11-D0)*%
X264176400Y-211851600D03*
X268326400Y-211851600D03*
%TD*%
D17*
%TO.P,U1,1*%
%TO.N,IO1*%
X247565000Y-135400000D03*
D15*
%TO.P,U1,2*%
%TO.N,5V*%
X245025000Y-135400000D03*
%TO.P,U1,3*%
%TO.N,A15*%
X242485000Y-135400000D03*
%TO.P,U1,4*%
%TO.N,!MREQ*%
X239945000Y-135400000D03*
%TO.P,U1,5*%
%TO.N,IO1*%
X237405000Y-135400000D03*
%TO.P,U1,6*%
%TO.N,IO2*%
X234865000Y-135400000D03*
%TO.P,U1,7,GND_7*%
%TO.N,GND*%
X232325000Y-135400000D03*
%TO.P,U1,8*%
%TO.N,IO3*%
X232325000Y-143020000D03*
%TO.P,U1,9*%
%TO.N,IO1*%
X234865000Y-143020000D03*
%TO.P,U1,10*%
%TO.N,Net-(U4-~{E1})*%
X237405000Y-143020000D03*
%TO.P,U1,11*%
%TO.N,!M1*%
X239945000Y-143020000D03*
%TO.P,U1,12*%
%TO.N,Net-(U7-~{CS})*%
X242485000Y-143020000D03*
%TO.P,U1,13*%
%TO.N,A15*%
X245025000Y-143020000D03*
%TO.P,U1,14,VCC_14*%
%TO.N,5V*%
X247565000Y-143020000D03*
%TD*%
D18*
%TO.P,U18,1*%
%TO.N,A15*%
X304050000Y-126950000D03*
%TO.P,U18,2*%
%TO.N,!MREQ*%
X304050000Y-127900000D03*
%TO.P,U18,3,GND_3*%
%TO.N,GND*%
X304050000Y-128850000D03*
%TO.P,U18,4*%
%TO.N,Net-(U9-~{CS})*%
X306350000Y-128850000D03*
%TO.P,U18,5,VCC_5*%
%TO.N,5V*%
X306350000Y-126950000D03*
%TD*%
D19*
%TO.P,J4,1,Pin_1_1*%
%TO.N,TX1*%
X209642400Y-178722500D03*
D20*
%TO.P,J4,2,Pin_2_2*%
%TO.N,RX1*%
X212182400Y-178722500D03*
%TO.P,J4,3,Pin_3_3*%
%TO.N,unconnected-(J4-Pin_3-Pad3)*%
X214722400Y-178722500D03*
%TO.P,J4,4,Pin_4_4*%
%TO.N,unconnected-(J4-Pin_4-Pad4)*%
X217262400Y-178722500D03*
%TO.P,J4,5,Pin_5_5*%
%TO.N,Net-(J3-Pin_6)*%
X219802400Y-178722500D03*
%TO.P,J4,6,Pin_6_6*%
%TO.N,unconnected-(J4-Pin_6-Pad6)*%
X222342400Y-178722500D03*
%TO.P,J4,7,Pin_7_7*%
%TO.N,unconnected-(J4-Pin_7-Pad7)*%
X224882400Y-178722500D03*
%TO.P,J4,8,Pin_8_8*%
%TO.N,Net-(J3-Pin_9)*%
X227422400Y-178722500D03*
%TD*%
D14*
%TO.P,D4,1,K_1*%
%TO.N,GND*%
X216139800Y-148852500D03*
%TO.P,D4,2,A_2*%
%TO.N,A2*%
X216139800Y-145877500D03*
%TD*%
D13*
%TO.P,D9,1,K_1*%
%TO.N,!INT*%
X303521600Y-145922500D03*
%TO.P,D9,2,A_2*%
%TO.N,5V*%
X303521600Y-148897500D03*
%TD*%
D10*
%TO.P,SW10,1,1_1*%
%TO.N,Net-(U5-Q1)*%
X245612100Y-201043300D03*
X249762100Y-201043300D03*
%TO.P,SW10,2,2_2*%
%TO.N,Net-(U11-D6)*%
X245612100Y-203193300D03*
X249762100Y-203193300D03*
%TD*%
%TO.P,SW4,1,1_1*%
%TO.N,Net-(U5-Q0)*%
X251830000Y-209701600D03*
X255980000Y-209701600D03*
%TO.P,SW4,2,2_2*%
%TO.N,Net-(U11-D4)*%
X251830000Y-211851600D03*
X255980000Y-211851600D03*
%TD*%
D21*
%TO.P,D5,1,K_1*%
%TO.N,GND*%
X276405000Y-172070000D03*
%TO.P,D5,2,A_2*%
%TO.N,!MREQ*%
X273430000Y-172070000D03*
%TD*%
D10*
%TO.P,SW20,1,1_1*%
%TO.N,Net-(U5-Q2)*%
X239394200Y-209726600D03*
X243544200Y-209726600D03*
%TO.P,SW20,2,2_2*%
%TO.N,Net-(U11-D4)*%
X239394200Y-211876600D03*
X243544200Y-211876600D03*
%TD*%
%TO.P,SW48,1,1_1*%
%TO.N,Net-(U5-Q5)*%
X270394200Y-209701600D03*
X274544200Y-209701600D03*
%TO.P,SW48,2,2_2*%
%TO.N,Net-(U11-D0)*%
X270394200Y-211851600D03*
X274544200Y-211851600D03*
%TD*%
D14*
%TO.P,D35,1,K_1*%
%TO.N,GND*%
X267893700Y-148852500D03*
%TO.P,D35,2,A_2*%
%TO.N,D3*%
X267893700Y-145877500D03*
%TD*%
D13*
%TO.P,D24,1,K_1*%
%TO.N,!M1*%
X289438300Y-145922500D03*
%TO.P,D24,2,A_2*%
%TO.N,5V*%
X289438300Y-148897500D03*
%TD*%
D10*
%TO.P,SW18,1,1_1*%
%TO.N,Net-(U5-Q2)*%
X239394200Y-201043300D03*
X243544200Y-201043300D03*
%TO.P,SW18,2,2_2*%
%TO.N,Net-(U11-D6)*%
X239394200Y-203193300D03*
X243544200Y-203193300D03*
%TD*%
D14*
%TO.P,D2,1,K_1*%
%TO.N,GND*%
X213095400Y-148852500D03*
%TO.P,D2,2,A_2*%
%TO.N,A1*%
X213095400Y-145877500D03*
%TD*%
D15*
%TO.P,R4,1*%
%TO.N,GND*%
X218355000Y-182400000D03*
%TO.P,R4,2*%
%TO.N,Net-(R4-Pad2)*%
X218355000Y-190020000D03*
%TD*%
%TO.P,R5,1*%
%TO.N,!RESET*%
X214305000Y-182400000D03*
%TO.P,R5,2*%
%TO.N,5V*%
X214305000Y-190020000D03*
%TD*%
D19*
%TO.P,J2,1,Pin_1_1*%
%TO.N,5V*%
X227422400Y-193922500D03*
D20*
%TO.P,J2,2,Pin_2_2*%
%TO.N,GND*%
X224882400Y-193922500D03*
%TO.P,J2,3,Pin_3_3*%
%TO.N,Net-(J2-Pin_3)*%
X222342400Y-193922500D03*
%TO.P,J2,4,Pin_4_4*%
%TO.N,Net-(J2-Pin_4)*%
X219802400Y-193922500D03*
%TO.P,J2,5,Pin_5_5*%
%TO.N,Net-(J2-Pin_5)*%
X217262400Y-193922500D03*
%TO.P,J2,6,Pin_6_6*%
%TO.N,Net-(BZ1-+)*%
X214722400Y-193922500D03*
%TO.P,J2,7,Pin_7_7*%
%TO.N,Net-(J2-Pin_7)*%
X212182400Y-193922500D03*
%TO.P,J2,8,Pin_8_8*%
%TO.N,Net-(J2-Pin_8)*%
X209642400Y-193922500D03*
%TD*%
D10*
%TO.P,SW36,1,1_1*%
%TO.N,Net-(U5-Q4)*%
X226958500Y-209726600D03*
X231108500Y-209726600D03*
%TO.P,SW36,2,2_2*%
%TO.N,Net-(U11-D4)*%
X226958500Y-211876600D03*
X231108500Y-211876600D03*
%TD*%
%TO.P,SW26,1,1_1*%
%TO.N,Net-(U5-Q3)*%
X233176400Y-201043300D03*
X237326400Y-201043300D03*
%TO.P,SW26,2,2_2*%
%TO.N,Net-(U11-D6)*%
X233176400Y-203193300D03*
X237326400Y-203193300D03*
%TD*%
D14*
%TO.P,D36,1,K_1*%
%TO.N,GND*%
X270938000Y-148852500D03*
%TO.P,D36,2,A_2*%
%TO.N,D4*%
X270938000Y-145877500D03*
%TD*%
D10*
%TO.P,SW53,1,1_1*%
%TO.N,Net-(U5-Q6)*%
X264176400Y-196701600D03*
X268326400Y-196701600D03*
%TO.P,SW53,2,2_2*%
%TO.N,Net-(U11-D3)*%
X264176400Y-198851600D03*
X268326400Y-198851600D03*
%TD*%
D15*
%TO.P,R2,1*%
%TO.N,5V*%
X226455000Y-182400000D03*
%TO.P,R2,2*%
%TO.N,Net-(U10-~{NMI})*%
X226455000Y-190020000D03*
%TD*%
D10*
%TO.P,SW30,1,1_1*%
%TO.N,Net-(U5-Q3)*%
X282830000Y-201035000D03*
X286980000Y-201035000D03*
%TO.P,SW30,2,2_2*%
%TO.N,Net-(U11-D2)*%
X282830000Y-203185000D03*
X286980000Y-203185000D03*
%TD*%
%TO.P,SW5,1,1_1*%
%TO.N,Net-(U5-Q0)*%
X301483500Y-196701600D03*
X305633500Y-196701600D03*
%TO.P,SW5,2,2_2*%
%TO.N,Net-(U11-D3)*%
X301483500Y-198851600D03*
X305633500Y-198851600D03*
%TD*%
D21*
%TO.P,D3,1,K_1*%
%TO.N,GND*%
X276405000Y-174550000D03*
%TO.P,D3,2,A_2*%
%TO.N,BANK_0*%
X273430000Y-174550000D03*
%TD*%
D10*
%TO.P,SW13,1,1_1*%
%TO.N,Net-(U5-Q1)*%
X295265700Y-196701600D03*
X299415700Y-196701600D03*
%TO.P,SW13,2,2_2*%
%TO.N,Net-(U11-D3)*%
X295265700Y-198851600D03*
X299415700Y-198851600D03*
%TD*%
D14*
%TO.P,D16,1,K_1*%
%TO.N,GND*%
X228317100Y-148852500D03*
%TO.P,D16,2,A_2*%
%TO.N,A6*%
X228317100Y-145877500D03*
%TD*%
D10*
%TO.P,SW63,1,1_1*%
%TO.N,Net-(U5-Q7)*%
X257958500Y-205368300D03*
X262108500Y-205368300D03*
%TO.P,SW63,2,2_2*%
%TO.N,Net-(U11-D1)*%
X257958500Y-207518300D03*
X262108500Y-207518300D03*
%TD*%
%TO.P,SW59,1,1_1*%
%TO.N,Net-(U5-Q7)*%
X208305000Y-205385000D03*
X212455000Y-205385000D03*
%TO.P,SW59,2,2_2*%
%TO.N,Net-(U11-D5)*%
X208305000Y-207535000D03*
X212455000Y-207535000D03*
%TD*%
D14*
%TO.P,D32,1,K_1*%
%TO.N,GND*%
X258760600Y-148852500D03*
%TO.P,D32,2,A_2*%
%TO.N,D0*%
X258760600Y-145877500D03*
%TD*%
%TO.P,D26,1,K_1*%
%TO.N,GND*%
X240494500Y-148852500D03*
%TO.P,D26,2,A_2*%
%TO.N,A10*%
X240494500Y-145877500D03*
%TD*%
D22*
%TO.P,U3,1*%
%TO.N,IO1*%
X209805000Y-132730000D03*
D15*
%TO.P,U3,2*%
%TO.N,IO4*%
X212345000Y-132730000D03*
%TO.P,U3,3*%
%TO.N,IO1*%
X214885000Y-132730000D03*
%TO.P,U3,4*%
%TO.N,IO5*%
X217425000Y-132730000D03*
%TO.P,U3,5*%
%TO.N,IO1*%
X219965000Y-132730000D03*
%TO.P,U3,6*%
%TO.N,IO6*%
X222505000Y-132730000D03*
%TO.P,U3,7,GND_7*%
%TO.N,GND*%
X225045000Y-132730000D03*
%TO.P,U3,8*%
%TO.N,IO8*%
X225045000Y-125110000D03*
%TO.P,U3,9*%
%TO.N,IO1*%
X222505000Y-125110000D03*
%TO.P,U3,10*%
%TO.N,!INT*%
X219965000Y-125110000D03*
%TO.P,U3,11*%
%TO.N,Net-(U16-INTR)*%
X217425000Y-125110000D03*
%TO.P,U3,12*%
%TO.N,Net-(U16-MR)*%
X214885000Y-125110000D03*
%TO.P,U3,13*%
%TO.N,!RESET*%
X212345000Y-125110000D03*
%TO.P,U3,14,VCC_14*%
%TO.N,5V*%
X209805000Y-125110000D03*
%TD*%
D10*
%TO.P,SW41,1,1_1*%
%TO.N,Net-(U5-Q5)*%
X220740700Y-196701600D03*
X224890700Y-196701600D03*
%TO.P,SW41,2,2_2*%
%TO.N,Net-(U11-D7)*%
X220740700Y-198851600D03*
X224890700Y-198851600D03*
%TD*%
D19*
%TO.P,J5,1,Pin_1_1*%
%TO.N,5V*%
X208395000Y-70105000D03*
D20*
%TO.P,J5,2,Pin_2_2*%
%TO.N,GND*%
X210935000Y-70105000D03*
%TO.P,J5,3,Pin_3_3*%
%TO.N,TX2*%
X213475000Y-70105000D03*
%TO.P,J5,4,Pin_4_4*%
%TO.N,RX2*%
X216015000Y-70105000D03*
%TO.P,J5,5,Pin_5_5*%
%TO.N,!M1*%
X218555000Y-70105000D03*
%TO.P,J5,6,Pin_6_6*%
%TO.N,!MREQ*%
X221095000Y-70105000D03*
%TO.P,J5,7,Pin_7_7*%
%TO.N,!IORQ*%
X223635000Y-70105000D03*
%TO.P,J5,8,Pin_8_8*%
%TO.N,!RD*%
X226175000Y-70105000D03*
%TO.P,J5,9,Pin_9_9*%
%TO.N,!WR*%
X228715000Y-70105000D03*
%TO.P,J5,10,Pin_10_10*%
%TO.N,!INT*%
X231255000Y-70105000D03*
%TO.P,J5,11,Pin_11_11*%
%TO.N,!HALT*%
X233795000Y-70105000D03*
%TO.P,J5,12,Pin_12_12*%
%TO.N,!RESET*%
X236335000Y-70105000D03*
%TO.P,J5,13,Pin_13_13*%
%TO.N,IO8*%
X238875000Y-70105000D03*
%TO.P,J5,14,Pin_14_14*%
%TO.N,CLK*%
X241415000Y-70105000D03*
%TO.P,J5,15,Pin_15_15*%
%TO.N,unconnected-(J5-Pin_15-Pad15)*%
X243955000Y-70105000D03*
%TO.P,J5,16,Pin_16_16*%
%TO.N,A0*%
X246495000Y-70105000D03*
%TO.P,J5,17,Pin_17_17*%
%TO.N,A1*%
X249035000Y-70105000D03*
%TO.P,J5,18,Pin_18_18*%
%TO.N,A2*%
X251575000Y-70105000D03*
%TO.P,J5,19,Pin_19_19*%
%TO.N,A3*%
X254115000Y-70105000D03*
%TO.P,J5,20,Pin_20_20*%
%TO.N,A4*%
X256655000Y-70105000D03*
%TO.P,J5,21,Pin_21_21*%
%TO.N,A5*%
X259195000Y-70105000D03*
%TO.P,J5,22,Pin_22_22*%
%TO.N,A6*%
X261735000Y-70105000D03*
%TO.P,J5,23,Pin_23_23*%
%TO.N,A7*%
X264275000Y-70105000D03*
%TO.P,J5,24,Pin_24_24*%
%TO.N,A8*%
X266815000Y-70105000D03*
%TO.P,J5,25,Pin_25_25*%
%TO.N,A9*%
X269355000Y-70105000D03*
%TO.P,J5,26,Pin_26_26*%
%TO.N,A10*%
X271895000Y-70105000D03*
%TO.P,J5,27,Pin_27_27*%
%TO.N,A11*%
X274435000Y-70105000D03*
%TO.P,J5,28,Pin_28_28*%
%TO.N,A12*%
X276975000Y-70105000D03*
%TO.P,J5,29,Pin_29_29*%
%TO.N,A13*%
X279515000Y-70105000D03*
%TO.P,J5,30,Pin_30_30*%
%TO.N,A14*%
X282055000Y-70105000D03*
%TO.P,J5,31,Pin_31_31*%
%TO.N,A15*%
X284595000Y-70105000D03*
%TO.P,J5,32,Pin_32_32*%
%TO.N,unconnected-(J5-Pin_32-Pad32)*%
X287135000Y-70105000D03*
%TO.P,J5,33,Pin_33_33*%
%TO.N,D0*%
X289675000Y-70105000D03*
%TO.P,J5,34,Pin_34_34*%
%TO.N,D1*%
X292215000Y-70105000D03*
%TO.P,J5,35,Pin_35_35*%
%TO.N,D2*%
X294755000Y-70105000D03*
%TO.P,J5,36,Pin_36_36*%
%TO.N,D3*%
X297295000Y-70105000D03*
%TO.P,J5,37,Pin_37_37*%
%TO.N,D4*%
X299835000Y-70105000D03*
%TO.P,J5,38,Pin_38_38*%
%TO.N,D5*%
X302375000Y-70105000D03*
%TO.P,J5,39,Pin_39_39*%
%TO.N,D6*%
X304915000Y-70105000D03*
%TO.P,J5,40,Pin_40_40*%
%TO.N,D7*%
X307455000Y-70105000D03*
%TD*%
D10*
%TO.P,SW31,1,1_1*%
%TO.N,Net-(U5-Q3)*%
X282830000Y-205368300D03*
X286980000Y-205368300D03*
%TO.P,SW31,2,2_2*%
%TO.N,Net-(U11-D1)*%
X282830000Y-207518300D03*
X286980000Y-207518300D03*
%TD*%
D21*
%TO.P,D14,1,K_1*%
%TO.N,GND*%
X276405000Y-164630000D03*
%TO.P,D14,2,A_2*%
%TO.N,Net-(D14-A)*%
X273430000Y-164630000D03*
%TD*%
D23*
%TO.P,U12,1,CA_1*%
%TO.N,Net-(R4-Pad2)*%
X290085000Y-192210000D03*
%TO.P,U12,2,F_2*%
%TO.N,Net-(U12-F)*%
X291525000Y-192210000D03*
%TO.P,U12,3,G_3*%
%TO.N,Net-(U12-G)*%
X292965000Y-192210000D03*
%TO.P,U12,4,E_4*%
%TO.N,Net-(U12-E)*%
X294405000Y-192210000D03*
%TO.P,U12,5,D_5*%
%TO.N,Net-(U12-D)*%
X295845000Y-192210000D03*
%TO.P,U12,6,CA_6*%
%TO.N,Net-(R4-Pad2)*%
X295845000Y-182210000D03*
%TO.P,U12,7,DP_7*%
%TO.N,Net-(U12-DP)*%
X294405000Y-182210000D03*
%TO.P,U12,8,C_8*%
%TO.N,Net-(U12-C)*%
X292965000Y-182210000D03*
%TO.P,U12,9,B_9*%
%TO.N,Net-(U12-B)*%
X291525000Y-182210000D03*
%TO.P,U12,10,A_10*%
%TO.N,Net-(U12-A)*%
X290085000Y-182210000D03*
%TD*%
D14*
%TO.P,D31,1,K_1*%
%TO.N,GND*%
X255716300Y-148852500D03*
%TO.P,D31,2,A_2*%
%TO.N,A15*%
X255716300Y-145877500D03*
%TD*%
D11*
%TO.P,Y3,1,EN_1*%
%TO.N,5V*%
X218005000Y-173350000D03*
D15*
%TO.P,Y3,7,GND_7*%
%TO.N,GND*%
X218005000Y-158110000D03*
%TO.P,Y3,8,OUT_8*%
%TO.N,Net-(U16-XIN)*%
X210385000Y-158110000D03*
%TO.P,Y3,14,Vcc_14*%
%TO.N,5V*%
X210385000Y-173350000D03*
%TD*%
D10*
%TO.P,SW15,1,1_1*%
%TO.N,Net-(U5-Q1)*%
X295265700Y-205368300D03*
X299415700Y-205368300D03*
%TO.P,SW15,2,2_2*%
%TO.N,Net-(U11-D1)*%
X295265700Y-207518300D03*
X299415700Y-207518300D03*
%TD*%
%TO.P,SW2,1,1_1*%
%TO.N,Net-(U5-Q0)*%
X251830000Y-201018300D03*
X255980000Y-201018300D03*
%TO.P,SW2,2,2_2*%
%TO.N,Net-(U11-D6)*%
X251830000Y-203168300D03*
X255980000Y-203168300D03*
%TD*%
D19*
%TO.P,J3,1,Pin_1_1*%
%TO.N,unconnected-(J3-Pin_1-Pad1)*%
X210387200Y-80791000D03*
D20*
%TO.P,J3,2,Pin_2_2*%
%TO.N,unconnected-(J3-Pin_2-Pad2)*%
X210387200Y-83331000D03*
%TO.P,J3,3,Pin_3_3*%
%TO.N,unconnected-(J3-Pin_3-Pad3)*%
X210387200Y-85871000D03*
%TO.P,J3,4,Pin_4_4*%
%TO.N,unconnected-(J3-Pin_4-Pad4)*%
X210387200Y-88411000D03*
%TO.P,J3,5,Pin_5_5*%
%TO.N,unconnected-(J3-Pin_5-Pad5)*%
X210387200Y-90951000D03*
%TO.P,J3,6,Pin_6_6*%
%TO.N,Net-(J3-Pin_6)*%
X210387200Y-93491000D03*
%TO.P,J3,7,Pin_7_7*%
%TO.N,Net-(J2-Pin_3)*%
X210387200Y-96031000D03*
%TO.P,J3,8,Pin_8_8*%
%TO.N,Net-(J2-Pin_4)*%
X210387200Y-98571000D03*
%TO.P,J3,9,Pin_9_9*%
%TO.N,Net-(J3-Pin_9)*%
X210387200Y-101111000D03*
%TO.P,J3,10,Pin_10_10*%
%TO.N,Net-(J2-Pin_5)*%
X210387200Y-103651000D03*
%TO.P,J3,11,Pin_11_11*%
%TO.N,Net-(J2-Pin_7)*%
X210387200Y-106191000D03*
%TO.P,J3,12,Pin_12_12*%
%TO.N,Net-(J2-Pin_8)*%
X210387200Y-108731000D03*
%TO.P,J3,13,Pin_13_13*%
%TO.N,GND*%
X210387200Y-111271000D03*
%TO.P,J3,14,Pin_14_14*%
%TO.N,5V*%
X210387200Y-113811000D03*
%TD*%
D14*
%TO.P,D34,1,K_1*%
%TO.N,GND*%
X264849300Y-148852500D03*
%TO.P,D34,2,A_2*%
%TO.N,D2*%
X264849300Y-145877500D03*
%TD*%
D21*
%TO.P,D23,1,K_1*%
%TO.N,GND*%
X276405000Y-157190000D03*
%TO.P,D23,2,A_2*%
%TO.N,Net-(D23-A)*%
X273430000Y-157190000D03*
%TD*%
D14*
%TO.P,D29,1,K_1*%
%TO.N,GND*%
X249627600Y-148852500D03*
%TO.P,D29,2,A_2*%
%TO.N,A13*%
X249627600Y-145877500D03*
%TD*%
D10*
%TO.P,SW29,1,1_1*%
%TO.N,Net-(U5-Q3)*%
X282830000Y-196701600D03*
X286980000Y-196701600D03*
%TO.P,SW29,2,2_2*%
%TO.N,Net-(U11-D3)*%
X282830000Y-198851600D03*
X286980000Y-198851600D03*
%TD*%
D24*
%TO.P,U11,1,OE_1*%
%TO.N,IO1*%
X253180000Y-154620000D03*
D15*
%TO.P,U11,2,D0_2*%
%TO.N,Net-(U11-D0)*%
X253180000Y-157160000D03*
%TO.P,U11,3,D1_3*%
%TO.N,Net-(U11-D1)*%
X253180000Y-159700000D03*
%TO.P,U11,4,D2_4*%
%TO.N,Net-(U11-D2)*%
X253180000Y-162240000D03*
%TO.P,U11,5,D3_5*%
%TO.N,Net-(U11-D3)*%
X253180000Y-164780000D03*
%TO.P,U11,6,D4_6*%
%TO.N,Net-(U11-D4)*%
X253180000Y-167320000D03*
%TO.P,U11,7,D5_7*%
%TO.N,Net-(U11-D5)*%
X253180000Y-169860000D03*
%TO.P,U11,8,D6_8*%
%TO.N,Net-(U11-D6)*%
X253180000Y-172400000D03*
%TO.P,U11,9,D7_9*%
%TO.N,Net-(U11-D7)*%
X253180000Y-174940000D03*
%TO.P,U11,10,GND_10*%
%TO.N,GND*%
X253180000Y-177480000D03*
%TO.P,U11,11,Load_11*%
%TO.N,5V*%
X260800000Y-177480000D03*
%TO.P,U11,12,Q7_12*%
%TO.N,D0*%
X260800000Y-174940000D03*
%TO.P,U11,13,Q6_13*%
%TO.N,D1*%
X260800000Y-172400000D03*
%TO.P,U11,14,Q5_14*%
%TO.N,D2*%
X260800000Y-169860000D03*
%TO.P,U11,15,Q4_15*%
%TO.N,D3*%
X260800000Y-167320000D03*
%TO.P,U11,16,Q3_16*%
%TO.N,D4*%
X260800000Y-164780000D03*
%TO.P,U11,17,Q2_17*%
%TO.N,D5*%
X260800000Y-162240000D03*
%TO.P,U11,18,Q1_18*%
%TO.N,D6*%
X260800000Y-159700000D03*
%TO.P,U11,19,Q0_19*%
%TO.N,D7*%
X260800000Y-157160000D03*
%TO.P,U11,20,VCC_20*%
%TO.N,5V*%
X260800000Y-154620000D03*
%TD*%
D21*
%TO.P,D11,1,K_1*%
%TO.N,GND*%
X276405000Y-167110000D03*
%TO.P,D11,2,A_2*%
%TO.N,Net-(D11-A)*%
X273430000Y-167110000D03*
%TD*%
D10*
%TO.P,SW28,1,1_1*%
%TO.N,Net-(U5-Q3)*%
X233176400Y-209726600D03*
X237326400Y-209726600D03*
%TO.P,SW28,2,2_2*%
%TO.N,Net-(U11-D4)*%
X233176400Y-211876600D03*
X237326400Y-211876600D03*
%TD*%
D21*
%TO.P,D17,1,K_1*%
%TO.N,GND*%
X276405000Y-162150000D03*
%TO.P,D17,2,A_2*%
%TO.N,Net-(D17-A)*%
X273430000Y-162150000D03*
%TD*%
D10*
%TO.P,SW52,1,1_1*%
%TO.N,Net-(U5-Q6)*%
X214522800Y-209726600D03*
X218672800Y-209726600D03*
%TO.P,SW52,2,2_2*%
%TO.N,Net-(U11-D4)*%
X214522800Y-211876600D03*
X218672800Y-211876600D03*
%TD*%
D16*
%TO.P,U5,1,OE_1*%
%TO.N,GND*%
X271005000Y-177490000D03*
D15*
%TO.P,U5,2,D0_2*%
%TO.N,D0*%
X271005000Y-174950000D03*
%TO.P,U5,3,D1_3*%
%TO.N,D1*%
X271005000Y-172410000D03*
%TO.P,U5,4,D2_4*%
%TO.N,D2*%
X271005000Y-169870000D03*
%TO.P,U5,5,D3_5*%
%TO.N,D3*%
X271005000Y-167330000D03*
%TO.P,U5,6,D4_6*%
%TO.N,D4*%
X271005000Y-164790000D03*
%TO.P,U5,7,D5_7*%
%TO.N,D5*%
X271005000Y-162250000D03*
%TO.P,U5,8,D6_8*%
%TO.N,D6*%
X271005000Y-159710000D03*
%TO.P,U5,9,D7_9*%
%TO.N,D7*%
X271005000Y-157170000D03*
%TO.P,U5,10,GND_10*%
%TO.N,GND*%
X271005000Y-154630000D03*
%TO.P,U5,11,Load_11*%
%TO.N,5V*%
X263385000Y-154630000D03*
%TO.P,U5,12,Q7_12*%
%TO.N,Net-(U5-Q7)*%
X263385000Y-157170000D03*
%TO.P,U5,13,Q6_13*%
%TO.N,Net-(U5-Q6)*%
X263385000Y-159710000D03*
%TO.P,U5,14,Q5_14*%
%TO.N,Net-(U5-Q5)*%
X263385000Y-162250000D03*
%TO.P,U5,15,Q4_15*%
%TO.N,Net-(U5-Q4)*%
X263385000Y-164790000D03*
%TO.P,U5,16,Q3_16*%
%TO.N,Net-(U5-Q3)*%
X263385000Y-167330000D03*
%TO.P,U5,17,Q2_17*%
%TO.N,Net-(U5-Q2)*%
X263385000Y-169870000D03*
%TO.P,U5,18,Q1_18*%
%TO.N,Net-(U5-Q1)*%
X263385000Y-172410000D03*
%TO.P,U5,19,Q0_19*%
%TO.N,Net-(U5-Q0)*%
X263385000Y-174950000D03*
%TO.P,U5,20,VCC_20*%
%TO.N,5V*%
X263385000Y-177490000D03*
%TD*%
D10*
%TO.P,SW45,1,1_1*%
%TO.N,Net-(U5-Q5)*%
X270394200Y-196701600D03*
X274544200Y-196701600D03*
%TO.P,SW45,2,2_2*%
%TO.N,Net-(U11-D3)*%
X270394200Y-198851600D03*
X274544200Y-198851600D03*
%TD*%
%TO.P,SW6,1,1_1*%
%TO.N,Net-(U5-Q0)*%
X301483500Y-201035000D03*
X305633500Y-201035000D03*
%TO.P,SW6,2,2_2*%
%TO.N,Net-(U11-D2)*%
X301483500Y-203185000D03*
X305633500Y-203185000D03*
%TD*%
D14*
%TO.P,D30,1,K_1*%
%TO.N,GND*%
X252671900Y-148852500D03*
%TO.P,D30,2,A_2*%
%TO.N,A14*%
X252671900Y-145877500D03*
%TD*%
D21*
%TO.P,D20,1,K_1*%
%TO.N,GND*%
X276405000Y-159670000D03*
%TO.P,D20,2,A_2*%
%TO.N,Net-(D20-A)*%
X273430000Y-159670000D03*
%TD*%
D14*
%TO.P,D7,1,K_1*%
%TO.N,GND*%
X219184100Y-148852500D03*
%TO.P,D7,2,A_2*%
%TO.N,A3*%
X219184100Y-145877500D03*
%TD*%
%TO.P,D1,1,K_1*%
%TO.N,GND*%
X210051100Y-148852500D03*
%TO.P,D1,2,A_2*%
%TO.N,A0*%
X210051100Y-145877500D03*
%TD*%
D10*
%TO.P,SW27,1,1_1*%
%TO.N,Net-(U5-Q3)*%
X233176400Y-205385000D03*
X237326400Y-205385000D03*
%TO.P,SW27,2,2_2*%
%TO.N,Net-(U11-D5)*%
X233176400Y-207535000D03*
X237326400Y-207535000D03*
%TD*%
%TO.P,SW42,1,1_1*%
%TO.N,Net-(U5-Q5)*%
X220740700Y-201043300D03*
X224890700Y-201043300D03*
%TO.P,SW42,2,2_2*%
%TO.N,Net-(U11-D6)*%
X220740700Y-203193300D03*
X224890700Y-203193300D03*
%TD*%
%TO.P,SW14,1,1_1*%
%TO.N,Net-(U5-Q1)*%
X295265700Y-201035000D03*
X299415700Y-201035000D03*
%TO.P,SW14,2,2_2*%
%TO.N,Net-(U11-D2)*%
X295265700Y-203185000D03*
X299415700Y-203185000D03*
%TD*%
%TO.P,SW64,1,1_1*%
%TO.N,Net-(U5-Q7)*%
X257958500Y-209701600D03*
X262108500Y-209701600D03*
%TO.P,SW64,2,2_2*%
%TO.N,Net-(U11-D0)*%
X257958500Y-211851600D03*
X262108500Y-211851600D03*
%TD*%
D14*
%TO.P,D38,1,K_1*%
%TO.N,GND*%
X277026700Y-148852500D03*
%TO.P,D38,2,A_2*%
%TO.N,D6*%
X277026700Y-145877500D03*
%TD*%
D10*
%TO.P,SW3,1,1_1*%
%TO.N,Net-(U5-Q0)*%
X251830000Y-205360000D03*
X255980000Y-205360000D03*
%TO.P,SW3,2,2_2*%
%TO.N,Net-(U11-D5)*%
X251830000Y-207510000D03*
X255980000Y-207510000D03*
%TD*%
D18*
%TO.P,U19,1*%
%TO.N,BANK_0*%
X304050000Y-132150000D03*
%TO.P,U19,2*%
%TO.N,!MREQ*%
X304050000Y-133100000D03*
%TO.P,U19,3,GND_3*%
%TO.N,GND*%
X304050000Y-134050000D03*
%TO.P,U19,4*%
%TO.N,Net-(U7-~{CS})*%
X306350000Y-134050000D03*
%TO.P,U19,5,VCC_5*%
%TO.N,5V*%
X306350000Y-132150000D03*
%TD*%
D15*
%TO.P,R6,1*%
%TO.N,GND*%
X210255000Y-182400000D03*
%TO.P,R6,2*%
%TO.N,Net-(R6-Pad2)*%
X210255000Y-190020000D03*
%TD*%
D10*
%TO.P,SW23,1,1_1*%
%TO.N,Net-(U5-Q2)*%
X289047800Y-205368300D03*
X293197800Y-205368300D03*
%TO.P,SW23,2,2_2*%
%TO.N,Net-(U11-D1)*%
X289047800Y-207518300D03*
X293197800Y-207518300D03*
%TD*%
%TO.P,SW43,1,1_1*%
%TO.N,Net-(U5-Q5)*%
X220740700Y-205385000D03*
X224890700Y-205385000D03*
%TO.P,SW43,2,2_2*%
%TO.N,Net-(U11-D5)*%
X220740700Y-207535000D03*
X224890700Y-207535000D03*
%TD*%
%TO.P,SW35,1,1_1*%
%TO.N,Net-(U5-Q4)*%
X226958500Y-205385000D03*
X231108500Y-205385000D03*
%TO.P,SW35,2,2_2*%
%TO.N,Net-(U11-D5)*%
X226958500Y-207535000D03*
X231108500Y-207535000D03*
%TD*%
%TO.P,SW21,1,1_1*%
%TO.N,Net-(U5-Q2)*%
X289047800Y-196701600D03*
X293197800Y-196701600D03*
%TO.P,SW21,2,2_2*%
%TO.N,Net-(U11-D3)*%
X289047800Y-198851600D03*
X293197800Y-198851600D03*
%TD*%
D13*
%TO.P,D18,1,K_1*%
%TO.N,!IORQ*%
X295071600Y-145922500D03*
%TO.P,D18,2,A_2*%
%TO.N,5V*%
X295071600Y-148897500D03*
%TD*%
D10*
%TO.P,SW39,1,1_1*%
%TO.N,Net-(U5-Q4)*%
X276612100Y-205368300D03*
X280762100Y-205368300D03*
%TO.P,SW39,2,2_2*%
%TO.N,Net-(U11-D1)*%
X276612100Y-207518300D03*
X280762100Y-207518300D03*
%TD*%
%TO.P,SW24,1,1_1*%
%TO.N,Net-(U5-Q2)*%
X289047800Y-209701600D03*
X293197800Y-209701600D03*
%TO.P,SW24,2,2_2*%
%TO.N,Net-(U11-D0)*%
X289047800Y-211851600D03*
X293197800Y-211851600D03*
%TD*%
%TO.P,SW47,1,1_1*%
%TO.N,Net-(U5-Q5)*%
X270394200Y-205368300D03*
X274544200Y-205368300D03*
%TO.P,SW47,2,2_2*%
%TO.N,Net-(U11-D1)*%
X270394200Y-207518300D03*
X274544200Y-207518300D03*
%TD*%
%TO.P,SW38,1,1_1*%
%TO.N,Net-(U5-Q4)*%
X276612100Y-201035000D03*
X280762100Y-201035000D03*
%TO.P,SW38,2,2_2*%
%TO.N,Net-(U11-D2)*%
X276612100Y-203185000D03*
X280762100Y-203185000D03*
%TD*%
%TO.P,SW17,1,1_1*%
%TO.N,Net-(U5-Q2)*%
X239394200Y-196701600D03*
X243544200Y-196701600D03*
%TO.P,SW17,2,2_2*%
%TO.N,Net-(U11-D7)*%
X239394200Y-198851600D03*
X243544200Y-198851600D03*
%TD*%
D13*
%TO.P,D12,1,K_1*%
%TO.N,!WR*%
X300705000Y-145922500D03*
%TO.P,D12,2,A_2*%
%TO.N,5V*%
X300705000Y-148897500D03*
%TD*%
D25*
%TO.P,IC1,1,MOT_1*%
%TO.N,GND*%
X251305000Y-180490000D03*
D26*
%TO.P,IC1,2,X1_2*%
%TO.N,Net-(IC1-X1)*%
X251305000Y-177950000D03*
%TO.P,IC1,3,X2_3*%
%TO.N,Net-(IC1-X2)*%
X251305000Y-175410000D03*
%TO.P,IC1,4,AD0_4*%
%TO.N,D0*%
X251305000Y-172870000D03*
%TO.P,IC1,5,AD1_5*%
%TO.N,D1*%
X251305000Y-170330000D03*
%TO.P,IC1,6,AD2_6*%
%TO.N,D2*%
X251305000Y-167790000D03*
%TO.P,IC1,7,AD3_7*%
%TO.N,D3*%
X251305000Y-165250000D03*
%TO.P,IC1,8,AD4_8*%
%TO.N,D4*%
X251305000Y-162710000D03*
%TO.P,IC1,9,AD5_9*%
%TO.N,D5*%
X251305000Y-160170000D03*
%TO.P,IC1,10,AD6_10*%
%TO.N,D6*%
X251305000Y-157630000D03*
%TO.P,IC1,11,AD7_11*%
%TO.N,D7*%
X251305000Y-155090000D03*
%TO.P,IC1,12,GND_1_12*%
%TO.N,GND*%
X251305000Y-152550000D03*
%TO.P,IC1,13,~{CS}_13*%
%TO.N,IO1*%
X236065000Y-152550000D03*
%TO.P,IC1,14,AS_14*%
%TO.N,A0*%
X236065000Y-155090000D03*
%TO.P,IC1,15,R/~{W}_15*%
%TO.N,!WR*%
X236065000Y-157630000D03*
%TO.P,IC1,16,GND_2_16*%
%TO.N,GND*%
X236065000Y-160170000D03*
%TO.P,IC1,17,DS_17*%
%TO.N,!RD*%
X236065000Y-162710000D03*
%TO.P,IC1,18,~{RESET}_18*%
%TO.N,!RESET*%
X236065000Y-165250000D03*
%TO.P,IC1,19,~{IRQ}_19*%
%TO.N,!INT*%
X236065000Y-167790000D03*
%TO.P,IC1,20,VBAT_20*%
%TO.N,Net-(BT1-+)*%
X236065000Y-170330000D03*
%TO.P,IC1,21,~{RCLR}_21*%
%TO.N,5V*%
X236065000Y-172870000D03*
%TO.P,IC1,22,N.C._22*%
%TO.N,unconnected-(IC1-N.C.-Pad22)*%
X236065000Y-175410000D03*
%TO.P,IC1,23,SQW_23*%
%TO.N,unconnected-(IC1-SQW-Pad23)*%
X236065000Y-177950000D03*
%TO.P,IC1,24,VCC_24*%
%TO.N,5V*%
X236065000Y-180490000D03*
%TD*%
D14*
%TO.P,D28,1,K_1*%
%TO.N,GND*%
X246583200Y-148852500D03*
%TO.P,D28,2,A_2*%
%TO.N,A12*%
X246583200Y-145877500D03*
%TD*%
D10*
%TO.P,SW37,1,1_1*%
%TO.N,Net-(U5-Q4)*%
X276612100Y-196701600D03*
X280762100Y-196701600D03*
%TO.P,SW37,2,2_2*%
%TO.N,Net-(U11-D3)*%
X276612100Y-198851600D03*
X280762100Y-198851600D03*
%TD*%
%TO.P,SW33,1,1_1*%
%TO.N,Net-(U5-Q4)*%
X226958500Y-196701600D03*
X231108500Y-196701600D03*
%TO.P,SW33,2,2_2*%
%TO.N,Net-(U11-D7)*%
X226958500Y-198851600D03*
X231108500Y-198851600D03*
%TD*%
D27*
%TO.P,Y2,1,1_1*%
%TO.N,Net-(IC1-X2)*%
X252105000Y-184910000D03*
%TO.P,Y2,2,2_2*%
%TO.N,Net-(IC1-X1)*%
X250205000Y-184910000D03*
%TD*%
D28*
%TO.P,SW65,1,1_1*%
%TO.N,GND*%
X253005000Y-193010000D03*
X246505000Y-193010000D03*
%TO.P,SW65,2,2_2*%
%TO.N,!RESET*%
X253005000Y-188510000D03*
X246505000Y-188510000D03*
%TD*%
D10*
%TO.P,SW8,1,1_1*%
%TO.N,Net-(U5-Q0)*%
X301483500Y-209701600D03*
X305633500Y-209701600D03*
%TO.P,SW8,2,2_2*%
%TO.N,Net-(U11-D0)*%
X301483500Y-211851600D03*
X305633500Y-211851600D03*
%TD*%
%TO.P,SW32,1,1_1*%
%TO.N,Net-(U5-Q3)*%
X282830000Y-209701600D03*
X286980000Y-209701600D03*
%TO.P,SW32,2,2_2*%
%TO.N,Net-(U11-D0)*%
X282830000Y-211851600D03*
X286980000Y-211851600D03*
%TD*%
%TO.P,SW25,1,1_1*%
%TO.N,Net-(U5-Q3)*%
X233176400Y-196701600D03*
X237326400Y-196701600D03*
%TO.P,SW25,2,2_2*%
%TO.N,Net-(U11-D7)*%
X233176400Y-198851600D03*
X237326400Y-198851600D03*
%TD*%
D14*
%TO.P,D33,1,K_1*%
%TO.N,GND*%
X261805000Y-148852500D03*
%TO.P,D33,2,A_2*%
%TO.N,D1*%
X261805000Y-145877500D03*
%TD*%
D11*
%TO.P,Y1,1,EN_1*%
%TO.N,5V*%
X232305000Y-173350000D03*
D15*
%TO.P,Y1,7,GND_7*%
%TO.N,GND*%
X232305000Y-158110000D03*
%TO.P,Y1,8,OUT_8*%
%TO.N,CLK*%
X224685000Y-158110000D03*
%TO.P,Y1,14,Vcc_14*%
%TO.N,5V*%
X224685000Y-173350000D03*
%TD*%
D23*
%TO.P,U14,1,CA_1*%
%TO.N,Net-(R6-Pad2)*%
X300285000Y-192210000D03*
%TO.P,U14,2,F_2*%
%TO.N,Net-(U14-F)*%
X301725000Y-192210000D03*
%TO.P,U14,3,G_3*%
%TO.N,Net-(U14-G)*%
X303165000Y-192210000D03*
%TO.P,U14,4,E_4*%
%TO.N,Net-(U14-E)*%
X304605000Y-192210000D03*
%TO.P,U14,5,D_5*%
%TO.N,Net-(U14-D)*%
X306045000Y-192210000D03*
%TO.P,U14,6,CA_6*%
%TO.N,Net-(R6-Pad2)*%
X306045000Y-182210000D03*
%TO.P,U14,7,DP_7*%
%TO.N,Net-(U14-DP)*%
X304605000Y-182210000D03*
%TO.P,U14,8,C_8*%
%TO.N,Net-(U14-C)*%
X303165000Y-182210000D03*
%TO.P,U14,9,B_9*%
%TO.N,Net-(U14-B)*%
X301725000Y-182210000D03*
%TO.P,U14,10,A_10*%
%TO.N,Net-(U14-A)*%
X300285000Y-182210000D03*
%TD*%
D10*
%TO.P,SW12,1,1_1*%
%TO.N,Net-(U5-Q1)*%
X245612100Y-209726600D03*
X249762100Y-209726600D03*
%TO.P,SW12,2,2_2*%
%TO.N,Net-(U11-D4)*%
X245612100Y-211876600D03*
X249762100Y-211876600D03*
%TD*%
D13*
%TO.P,D15,1,K_1*%
%TO.N,!RD*%
X297888300Y-145922500D03*
%TO.P,D15,2,A_2*%
%TO.N,5V*%
X297888300Y-148897500D03*
%TD*%
D10*
%TO.P,SW46,1,1_1*%
%TO.N,Net-(U5-Q5)*%
X270394200Y-201035000D03*
X274544200Y-201035000D03*
%TO.P,SW46,2,2_2*%
%TO.N,Net-(U11-D2)*%
X270394200Y-203185000D03*
X274544200Y-203185000D03*
%TD*%
D16*
%TO.P,U13,1,OE_1*%
%TO.N,GND*%
X296830000Y-177340000D03*
D15*
%TO.P,U13,2,D0_2*%
%TO.N,D0*%
X296830000Y-174800000D03*
%TO.P,U13,3,D1_3*%
%TO.N,D1*%
X296830000Y-172260000D03*
%TO.P,U13,4,D2_4*%
%TO.N,D2*%
X296830000Y-169720000D03*
%TO.P,U13,5,D3_5*%
%TO.N,D3*%
X296830000Y-167180000D03*
%TO.P,U13,6,D4_6*%
%TO.N,D4*%
X296830000Y-164640000D03*
%TO.P,U13,7,D5_7*%
%TO.N,D5*%
X296830000Y-162100000D03*
%TO.P,U13,8,D6_8*%
%TO.N,D6*%
X296830000Y-159560000D03*
%TO.P,U13,9,D7_9*%
%TO.N,D7*%
X296830000Y-157020000D03*
%TO.P,U13,10,GND_10*%
%TO.N,GND*%
X296830000Y-154480000D03*
%TO.P,U13,11,Load_11*%
%TO.N,IO5*%
X289210000Y-154480000D03*
%TO.P,U13,12,Q7_12*%
%TO.N,Net-(U12-DP)*%
X289210000Y-157020000D03*
%TO.P,U13,13,Q6_13*%
%TO.N,Net-(U12-G)*%
X289210000Y-159560000D03*
%TO.P,U13,14,Q5_14*%
%TO.N,Net-(U12-F)*%
X289210000Y-162100000D03*
%TO.P,U13,15,Q4_15*%
%TO.N,Net-(U12-E)*%
X289210000Y-164640000D03*
%TO.P,U13,16,Q3_16*%
%TO.N,Net-(U12-D)*%
X289210000Y-167180000D03*
%TO.P,U13,17,Q2_17*%
%TO.N,Net-(U12-C)*%
X289210000Y-169720000D03*
%TO.P,U13,18,Q1_18*%
%TO.N,Net-(U12-B)*%
X289210000Y-172260000D03*
%TO.P,U13,19,Q0_19*%
%TO.N,Net-(U12-A)*%
X289210000Y-174800000D03*
%TO.P,U13,20,VCC_20*%
%TO.N,5V*%
X289210000Y-177340000D03*
%TD*%
D11*
%TO.P,U2,1,K_1*%
%TO.N,unconnected-(U2-K-Pad1)*%
X230885000Y-132820000D03*
D12*
%TO.P,U2,2,A_2*%
%TO.N,A15*%
X233425000Y-132820000D03*
%TO.P,U2,3,B_3*%
%TO.N,A14*%
X235965000Y-132820000D03*
%TO.P,U2,4,C_4*%
%TO.N,A13*%
X238505000Y-132820000D03*
%TO.P,U2,5,D_5*%
%TO.N,A12*%
X241045000Y-132820000D03*
%TO.P,U2,6,NC_6*%
%TO.N,unconnected-(U2-NC-Pad6)*%
X243585000Y-132820000D03*
%TO.P,U2,7,Vss_7*%
%TO.N,5V*%
X246125000Y-132820000D03*
%TO.P,U2,8,NC_8*%
%TO.N,unconnected-(U2-NC-Pad8)*%
X246125000Y-125200000D03*
%TO.P,U2,9,E_9*%
%TO.N,A11*%
X243585000Y-125200000D03*
%TO.P,U2,10,F_10*%
%TO.N,A10*%
X241045000Y-125200000D03*
%TO.P,U2,11,G_11*%
%TO.N,A9*%
X238505000Y-125200000D03*
%TO.P,U2,12,H_12*%
%TO.N,A8*%
X235965000Y-125200000D03*
%TO.P,U2,13,J_13*%
%TO.N,IO1*%
X233425000Y-125200000D03*
%TO.P,U2,14,Vdd_14*%
%TO.N,GND*%
X230885000Y-125200000D03*
%TD*%
D14*
%TO.P,D13,1,K_1*%
%TO.N,GND*%
X225272800Y-148852500D03*
%TO.P,D13,2,A_2*%
%TO.N,A5*%
X225272800Y-145877500D03*
%TD*%
D10*
%TO.P,SW40,1,1_1*%
%TO.N,Net-(U5-Q4)*%
X276612100Y-209701600D03*
X280762100Y-209701600D03*
%TO.P,SW40,2,2_2*%
%TO.N,Net-(U11-D0)*%
X276612100Y-211851600D03*
X280762100Y-211851600D03*
%TD*%
%TO.P,SW34,1,1_1*%
%TO.N,Net-(U5-Q4)*%
X226958500Y-201043300D03*
X231108500Y-201043300D03*
%TO.P,SW34,2,2_2*%
%TO.N,Net-(U11-D6)*%
X226958500Y-203193300D03*
X231108500Y-203193300D03*
%TD*%
%TO.P,SW44,1,1_1*%
%TO.N,Net-(U5-Q5)*%
X220740700Y-209726600D03*
X224890700Y-209726600D03*
%TO.P,SW44,2,2_2*%
%TO.N,Net-(U11-D4)*%
X220740700Y-211876600D03*
X224890700Y-211876600D03*
%TD*%
D14*
%TO.P,D10,1,K_1*%
%TO.N,GND*%
X222228400Y-148852500D03*
%TO.P,D10,2,A_2*%
%TO.N,A4*%
X222228400Y-145877500D03*
%TD*%
D10*
%TO.P,SW50,1,1_1*%
%TO.N,Net-(U5-Q6)*%
X214522800Y-201043300D03*
X218672800Y-201043300D03*
%TO.P,SW50,2,2_2*%
%TO.N,Net-(U11-D6)*%
X214522800Y-203193300D03*
X218672800Y-203193300D03*
%TD*%
%TO.P,SW11,1,1_1*%
%TO.N,Net-(U5-Q1)*%
X245612100Y-205385000D03*
X249762100Y-205385000D03*
%TO.P,SW11,2,2_2*%
%TO.N,Net-(U11-D5)*%
X245612100Y-207535000D03*
X249762100Y-207535000D03*
%TD*%
D14*
%TO.P,D39,1,K_1*%
%TO.N,GND*%
X280071100Y-148852500D03*
%TO.P,D39,2,A_2*%
%TO.N,D7*%
X280071100Y-145877500D03*
%TD*%
%TO.P,D25,1,K_1*%
%TO.N,GND*%
X237450200Y-148852500D03*
%TO.P,D25,2,A_2*%
%TO.N,A9*%
X237450200Y-145877500D03*
%TD*%
D15*
%TO.P,R1,1*%
%TO.N,5V*%
X230505000Y-182400000D03*
%TO.P,R1,2*%
%TO.N,Net-(U10-~{BUSREQ})*%
X230505000Y-190020000D03*
%TD*%
D19*
%TO.P,J1,1,Pin_1_1*%
%TO.N,5V*%
X283465000Y-192610000D03*
D20*
%TO.P,J1,2,Pin_2_2*%
%TO.N,GND*%
X286005000Y-192610000D03*
%TD*%
D14*
%TO.P,D22,1,K_1*%
%TO.N,GND*%
X234405800Y-148852500D03*
%TO.P,D22,2,A_2*%
%TO.N,A8*%
X234405800Y-145877500D03*
%TD*%
D21*
%TO.P,D8,1,K_1*%
%TO.N,GND*%
X276405000Y-169590000D03*
%TO.P,D8,2,A_2*%
%TO.N,Net-(D8-A)*%
X273430000Y-169590000D03*
%TD*%
D10*
%TO.P,SW51,1,1_1*%
%TO.N,Net-(U5-Q6)*%
X214522800Y-205385000D03*
X218672800Y-205385000D03*
%TO.P,SW51,2,2_2*%
%TO.N,Net-(U11-D5)*%
X214522800Y-207535000D03*
X218672800Y-207535000D03*
%TD*%
%TO.P,SW62,1,1_1*%
%TO.N,Net-(U5-Q7)*%
X257958500Y-201035000D03*
X262108500Y-201035000D03*
%TO.P,SW62,2,2_2*%
%TO.N,Net-(U11-D2)*%
X257958500Y-203185000D03*
X262108500Y-203185000D03*
%TD*%
D16*
%TO.P,U15,1,OE_1*%
%TO.N,GND*%
X306930000Y-177340000D03*
D15*
%TO.P,U15,2,D0_2*%
%TO.N,D0*%
X306930000Y-174800000D03*
%TO.P,U15,3,D1_3*%
%TO.N,D1*%
X306930000Y-172260000D03*
%TO.P,U15,4,D2_4*%
%TO.N,D2*%
X306930000Y-169720000D03*
%TO.P,U15,5,D3_5*%
%TO.N,D3*%
X306930000Y-167180000D03*
%TO.P,U15,6,D4_6*%
%TO.N,D4*%
X306930000Y-164640000D03*
%TO.P,U15,7,D5_7*%
%TO.N,D5*%
X306930000Y-162100000D03*
%TO.P,U15,8,D6_8*%
%TO.N,D6*%
X306930000Y-159560000D03*
%TO.P,U15,9,D7_9*%
%TO.N,D7*%
X306930000Y-157020000D03*
%TO.P,U15,10,GND_10*%
%TO.N,GND*%
X306930000Y-154480000D03*
%TO.P,U15,11,Load_11*%
%TO.N,IO6*%
X299310000Y-154480000D03*
%TO.P,U15,12,Q7_12*%
%TO.N,Net-(U14-DP)*%
X299310000Y-157020000D03*
%TO.P,U15,13,Q6_13*%
%TO.N,Net-(U14-G)*%
X299310000Y-159560000D03*
%TO.P,U15,14,Q5_14*%
%TO.N,Net-(U14-F)*%
X299310000Y-162100000D03*
%TO.P,U15,15,Q4_15*%
%TO.N,Net-(U14-E)*%
X299310000Y-164640000D03*
%TO.P,U15,16,Q3_16*%
%TO.N,Net-(U14-D)*%
X299310000Y-167180000D03*
%TO.P,U15,17,Q2_17*%
%TO.N,Net-(U14-C)*%
X299310000Y-169720000D03*
%TO.P,U15,18,Q1_18*%
%TO.N,Net-(U14-B)*%
X299310000Y-172260000D03*
%TO.P,U15,19,Q0_19*%
%TO.N,Net-(U14-A)*%
X299310000Y-174800000D03*
%TO.P,U15,20,VCC_20*%
%TO.N,5V*%
X299310000Y-177340000D03*
%TD*%
D10*
%TO.P,SW7,1,1_1*%
%TO.N,Net-(U5-Q0)*%
X301483500Y-205368300D03*
X305633500Y-205368300D03*
%TO.P,SW7,2,2_2*%
%TO.N,Net-(U11-D1)*%
X301483500Y-207518300D03*
X305633500Y-207518300D03*
%TD*%
D29*
%TO.P,BZ1,1,+_1*%
%TO.N,Net-(BZ1-+)*%
X234605000Y-189010000D03*
D28*
%TO.P,BZ1,2,-_2*%
%TO.N,GND*%
X242205000Y-189010000D03*
%TD*%
D16*
%TO.P,U10,1,A_{11}_1*%
%TO.N,A11*%
X265172500Y-73230000D03*
D15*
%TO.P,U10,2,A_{12}_2*%
%TO.N,A12*%
X265172500Y-75770000D03*
%TO.P,U10,3,A_{13}_3*%
%TO.N,A13*%
X265172500Y-78310000D03*
%TO.P,U10,4,A_{14}_4*%
%TO.N,A14*%
X265172500Y-80850000D03*
%TO.P,U10,5,A_{15}_5*%
%TO.N,A15*%
X265172500Y-83390000D03*
%TO.P,U10,6,CLK_6*%
%TO.N,CLK*%
X265172500Y-85930000D03*
%TO.P,U10,7,D_{4}_7*%
%TO.N,D4*%
X265172500Y-88470000D03*
%TO.P,U10,8,D_{3}_8*%
%TO.N,D3*%
X265172500Y-91010000D03*
%TO.P,U10,9,D_{5}_9*%
%TO.N,D5*%
X265172500Y-93550000D03*
%TO.P,U10,10,D_{6}_10*%
%TO.N,D6*%
X265172500Y-96090000D03*
%TO.P,U10,11,V_{CC}_11*%
%TO.N,5V*%
X265172500Y-98630000D03*
%TO.P,U10,12,D_{2}_12*%
%TO.N,D2*%
X265172500Y-101170000D03*
%TO.P,U10,13,D_{7}_13*%
%TO.N,D7*%
X265172500Y-103710000D03*
%TO.P,U10,14,D_{0}_14*%
%TO.N,D0*%
X265172500Y-106250000D03*
%TO.P,U10,15,D_{1}_15*%
%TO.N,D1*%
X265172500Y-108790000D03*
%TO.P,U10,16,~{INT}_16*%
%TO.N,!INT*%
X265172500Y-111330000D03*
%TO.P,U10,17,~{NMI}_17*%
%TO.N,Net-(U10-~{NMI})*%
X265172500Y-113870000D03*
%TO.P,U10,18,~{HALT}_18*%
%TO.N,!HALT*%
X265172500Y-116410000D03*
%TO.P,U10,19,~{MREQ}_19*%
%TO.N,!MREQ*%
X265172500Y-118950000D03*
%TO.P,U10,20,~{IORQ}_20*%
%TO.N,!IORQ*%
X265172500Y-121490000D03*
%TO.P,U10,21,~{RD}_21*%
%TO.N,!RD*%
X249932500Y-121490000D03*
%TO.P,U10,22,~{WR}_22*%
%TO.N,!WR*%
X249932500Y-118950000D03*
%TO.P,U10,23,~{BUSACK}_23*%
%TO.N,unconnected-(U10-~{BUSACK}-Pad23)*%
X249932500Y-116410000D03*
%TO.P,U10,24,~{WAIT}_24*%
%TO.N,Net-(U10-~{WAIT})*%
X249932500Y-113870000D03*
%TO.P,U10,25,~{BUSREQ}_25*%
%TO.N,Net-(U10-~{BUSREQ})*%
X249932500Y-111330000D03*
%TO.P,U10,26,~{RESET}_26*%
%TO.N,!RESET*%
X249932500Y-108790000D03*
%TO.P,U10,27,~{M1}_27*%
%TO.N,!M1*%
X249932500Y-106250000D03*
%TO.P,U10,28,~{RFSH}_28*%
%TO.N,unconnected-(U10-~{RFSH}-Pad28)*%
X249932500Y-103710000D03*
%TO.P,U10,29,GND_29*%
%TO.N,GND*%
X249932500Y-101170000D03*
%TO.P,U10,30,A_{0}_30*%
%TO.N,A0*%
X249932500Y-98630000D03*
%TO.P,U10,31,A_{1}_31*%
%TO.N,A1*%
X249932500Y-96090000D03*
%TO.P,U10,32,A_{2}_32*%
%TO.N,A2*%
X249932500Y-93550000D03*
%TO.P,U10,33,A_{3}_33*%
%TO.N,A3*%
X249932500Y-91010000D03*
%TO.P,U10,34,A_{4}_34*%
%TO.N,A4*%
X249932500Y-88470000D03*
%TO.P,U10,35,A_{5}_35*%
%TO.N,A5*%
X249932500Y-85930000D03*
%TO.P,U10,36,A_{6}_36*%
%TO.N,A6*%
X249932500Y-83390000D03*
%TO.P,U10,37,A_{7}_37*%
%TO.N,A7*%
X249932500Y-80850000D03*
%TO.P,U10,38,A_{8}_38*%
%TO.N,A8*%
X249932500Y-78310000D03*
%TO.P,U10,39,A_{9}_39*%
%TO.N,A9*%
X249932500Y-75770000D03*
%TO.P,U10,40,A_{10}_40*%
%TO.N,A10*%
X249932500Y-73230000D03*
%TD*%
D16*
%TO.P,U16,1,D0_1*%
%TO.N,D0*%
X246782500Y-73230000D03*
D15*
%TO.P,U16,2,D1_2*%
%TO.N,D1*%
X246782500Y-75770000D03*
%TO.P,U16,3,D2_3*%
%TO.N,D2*%
X246782500Y-78310000D03*
%TO.P,U16,4,D3_4*%
%TO.N,D3*%
X246782500Y-80850000D03*
%TO.P,U16,5,D4_5*%
%TO.N,D4*%
X246782500Y-83390000D03*
%TO.P,U16,6,D5_6*%
%TO.N,D5*%
X246782500Y-85930000D03*
%TO.P,U16,7,D6_7*%
%TO.N,D6*%
X246782500Y-88470000D03*
%TO.P,U16,8,D7_8*%
%TO.N,D7*%
X246782500Y-91010000D03*
%TO.P,U16,9,RCLK_9*%
%TO.N,Net-(U16-RCLK)*%
X246782500Y-93550000D03*
%TO.P,U16,10,SIN_10*%
%TO.N,TX1*%
X246782500Y-96090000D03*
%TO.P,U16,11,SOUT_11*%
%TO.N,RX1*%
X246782500Y-98630000D03*
%TO.P,U16,12,CS0_12*%
%TO.N,5V*%
X246782500Y-101170000D03*
%TO.P,U16,13,CS1_13*%
X246782500Y-103710000D03*
%TO.P,U16,14,~{CS2}_14*%
%TO.N,IO2*%
X246782500Y-106250000D03*
%TO.P,U16,15,~{BAUDOUT}_15*%
%TO.N,Net-(U16-RCLK)*%
X246782500Y-108790000D03*
%TO.P,U16,16,XIN_16*%
%TO.N,Net-(U16-XIN)*%
X246782500Y-111330000D03*
%TO.P,U16,17,XOUT_17*%
%TO.N,unconnected-(U16-XOUT-Pad17)*%
X246782500Y-113870000D03*
%TO.P,U16,18,~{WR}_18*%
%TO.N,!WR*%
X246782500Y-116410000D03*
%TO.P,U16,19,WR_19*%
%TO.N,unconnected-(U16-WR-Pad19)*%
X246782500Y-118950000D03*
%TO.P,U16,20,GND_20*%
%TO.N,GND*%
X246782500Y-121490000D03*
%TO.P,U16,21,~{RD}_21*%
%TO.N,!RD*%
X231542500Y-121490000D03*
%TO.P,U16,22,RD_22*%
%TO.N,unconnected-(U16-RD-Pad22)*%
X231542500Y-118950000D03*
%TO.P,U16,23,DDIS_23*%
%TO.N,unconnected-(U16-DDIS-Pad23)*%
X231542500Y-116410000D03*
%TO.P,U16,24,~{TXRDY}_24*%
%TO.N,unconnected-(U16-~{TXRDY}-Pad24)*%
X231542500Y-113870000D03*
%TO.P,U16,25,~{ADS}_25*%
%TO.N,GND*%
X231542500Y-111330000D03*
%TO.P,U16,26,A2_26*%
%TO.N,A2*%
X231542500Y-108790000D03*
%TO.P,U16,27,A1_27*%
%TO.N,A1*%
X231542500Y-106250000D03*
%TO.P,U16,28,A0_28*%
%TO.N,A0*%
X231542500Y-103710000D03*
%TO.P,U16,29,~{RXRDY}_29*%
%TO.N,unconnected-(U16-~{RXRDY}-Pad29)*%
X231542500Y-101170000D03*
%TO.P,U16,30,INTR_30*%
%TO.N,Net-(U16-INTR)*%
X231542500Y-98630000D03*
%TO.P,U16,31,~{OUT2}_31*%
%TO.N,unconnected-(U16-~{OUT2}-Pad31)*%
X231542500Y-96090000D03*
%TO.P,U16,32,~{RTS}_32*%
%TO.N,unconnected-(U16-~{RTS}-Pad32)*%
X231542500Y-93550000D03*
%TO.P,U16,33,~{DTR}_33*%
%TO.N,unconnected-(U16-~{DTR}-Pad33)*%
X231542500Y-91010000D03*
%TO.P,U16,34,~{OUT1}_34*%
%TO.N,unconnected-(U16-~{OUT1}-Pad34)*%
X231542500Y-88470000D03*
%TO.P,U16,35,MR_35*%
%TO.N,Net-(U16-MR)*%
X231542500Y-85930000D03*
%TO.P,U16,36,~{CTS}_36*%
%TO.N,5V*%
X231542500Y-83390000D03*
%TO.P,U16,37,~{DSR}_37*%
X231542500Y-80850000D03*
%TO.P,U16,38,~{DCD}_38*%
X231542500Y-78310000D03*
%TO.P,U16,39,~{RI}_39*%
X231542500Y-75770000D03*
%TO.P,U16,40,VCC_40*%
X231542500Y-73230000D03*
%TD*%
D29*
%TO.P,BT1,1,+_1*%
%TO.N,Net-(BT1-+)*%
X232205000Y-152810000D03*
D28*
%TO.P,BT1,2,-_2*%
%TO.N,GND*%
X211405000Y-152810000D03*
%TD*%
D30*
%TO.P,U9,1,A14_1*%
%TO.N,A14*%
X281747500Y-82760000D03*
D31*
%TO.P,U9,2,A12_2*%
%TO.N,A12*%
X281747500Y-85300000D03*
%TO.P,U9,3,A7_3*%
%TO.N,A7*%
X281747500Y-87840000D03*
%TO.P,U9,4,A6_4*%
%TO.N,A6*%
X281747500Y-90380000D03*
%TO.P,U9,5,A5_5*%
%TO.N,A5*%
X281747500Y-92920000D03*
%TO.P,U9,6,A4_6*%
%TO.N,A4*%
X281747500Y-95460000D03*
%TO.P,U9,7,A3_7*%
%TO.N,A3*%
X281747500Y-98000000D03*
%TO.P,U9,8,A2_8*%
%TO.N,A2*%
X281747500Y-100540000D03*
%TO.P,U9,9,A1_9*%
%TO.N,A1*%
X281747500Y-103080000D03*
%TO.P,U9,10,A0_10*%
%TO.N,A0*%
X281747500Y-105620000D03*
%TO.P,U9,11,D0_11*%
%TO.N,D0*%
X281747500Y-108160000D03*
%TO.P,U9,12,D1_12*%
%TO.N,D1*%
X281747500Y-110700000D03*
%TO.P,U9,13,D2_13*%
%TO.N,D2*%
X281747500Y-113240000D03*
%TO.P,U9,14,GND_14*%
%TO.N,GND*%
X281747500Y-115780000D03*
%TO.P,U9,15,D3_15*%
%TO.N,D3*%
X271587500Y-115780000D03*
%TO.P,U9,16,D4_16*%
%TO.N,D4*%
X271587500Y-113240000D03*
%TO.P,U9,17,D5_17*%
%TO.N,D5*%
X271587500Y-110700000D03*
%TO.P,U9,18,D6_18*%
%TO.N,D6*%
X271587500Y-108160000D03*
%TO.P,U9,19,D7_19*%
%TO.N,D7*%
X271587500Y-105620000D03*
%TO.P,U9,20,~{CS}_20*%
%TO.N,Net-(U9-~{CS})*%
X271587500Y-103080000D03*
%TO.P,U9,21,A10_21*%
%TO.N,A10*%
X271587500Y-100540000D03*
%TO.P,U9,22,~{OE}_22*%
%TO.N,!RD*%
X271587500Y-98000000D03*
%TO.P,U9,23,A11_23*%
%TO.N,A11*%
X271587500Y-95460000D03*
%TO.P,U9,24,A9_24*%
%TO.N,A9*%
X271587500Y-92920000D03*
%TO.P,U9,25,A8_25*%
%TO.N,A8*%
X271587500Y-90380000D03*
%TO.P,U9,26,A13_26*%
%TO.N,A13*%
X271587500Y-87840000D03*
%TO.P,U9,27,~{WE}_27*%
%TO.N,!WR*%
X271587500Y-85300000D03*
%TO.P,U9,28,VCC_28*%
%TO.N,5V*%
X271587500Y-82760000D03*
%TD*%
D30*
%TO.P,U7,1,A14_1*%
%TO.N,A14*%
X303112500Y-82660000D03*
D31*
%TO.P,U7,2,A12_2*%
%TO.N,A12*%
X303112500Y-85200000D03*
%TO.P,U7,3,A7_3*%
%TO.N,A7*%
X303112500Y-87740000D03*
%TO.P,U7,4,A6_4*%
%TO.N,A6*%
X303112500Y-90280000D03*
%TO.P,U7,5,A5_5*%
%TO.N,A5*%
X303112500Y-92820000D03*
%TO.P,U7,6,A4_6*%
%TO.N,A4*%
X303112500Y-95360000D03*
%TO.P,U7,7,A3_7*%
%TO.N,A3*%
X303112500Y-97900000D03*
%TO.P,U7,8,A2_8*%
%TO.N,A2*%
X303112500Y-100440000D03*
%TO.P,U7,9,A1_9*%
%TO.N,A1*%
X303112500Y-102980000D03*
%TO.P,U7,10,A0_10*%
%TO.N,A0*%
X303112500Y-105520000D03*
%TO.P,U7,11,Q0_11*%
%TO.N,D0*%
X303112500Y-108060000D03*
%TO.P,U7,12,Q1_12*%
%TO.N,D1*%
X303112500Y-110600000D03*
%TO.P,U7,13,Q2_13*%
%TO.N,D2*%
X303112500Y-113140000D03*
%TO.P,U7,14,GND_14*%
%TO.N,GND*%
X303112500Y-115680000D03*
%TO.P,U7,15,Q3_15*%
%TO.N,D3*%
X292952500Y-115680000D03*
%TO.P,U7,16,Q4_16*%
%TO.N,D4*%
X292952500Y-113140000D03*
%TO.P,U7,17,Q5_17*%
%TO.N,D5*%
X292952500Y-110600000D03*
%TO.P,U7,18,Q6_18*%
%TO.N,D6*%
X292952500Y-108060000D03*
%TO.P,U7,19,Q7_19*%
%TO.N,D7*%
X292952500Y-105520000D03*
%TO.P,U7,20,~{CS}_20*%
%TO.N,Net-(U7-~{CS})*%
X292952500Y-102980000D03*
%TO.P,U7,21,A10_21*%
%TO.N,A10*%
X292952500Y-100440000D03*
%TO.P,U7,22,~{OE}_22*%
%TO.N,!RD*%
X292952500Y-97900000D03*
%TO.P,U7,23,A11_23*%
%TO.N,A11*%
X292952500Y-95360000D03*
%TO.P,U7,24,A9_24*%
%TO.N,A9*%
X292952500Y-92820000D03*
%TO.P,U7,25,A8_25*%
%TO.N,A8*%
X292952500Y-90280000D03*
%TO.P,U7,26,A13_26*%
%TO.N,A13*%
X292952500Y-87740000D03*
%TO.P,U7,27,~{WE}_27*%
%TO.N,!WR*%
X292952500Y-85200000D03*
%TO.P,U7,28,VCC_28*%
%TO.N,5V*%
X292952500Y-82660000D03*
%TD*%
D32*
%TO.P,U8,1,A14_1*%
%TO.N,A14*%
X290445000Y-139257500D03*
D33*
%TO.P,U8,2,A12_2*%
%TO.N,A12*%
X287905000Y-139257500D03*
%TO.P,U8,3,A7_3*%
%TO.N,A7*%
X285365000Y-139257500D03*
%TO.P,U8,4,A6_4*%
%TO.N,A6*%
X282825000Y-139257500D03*
%TO.P,U8,5,A5_5*%
%TO.N,A5*%
X280285000Y-139257500D03*
%TO.P,U8,6,A4_6*%
%TO.N,A4*%
X277745000Y-139257500D03*
%TO.P,U8,7,A3_7*%
%TO.N,A3*%
X275205000Y-139257500D03*
%TO.P,U8,8,A2_8*%
%TO.N,A2*%
X272665000Y-139257500D03*
%TO.P,U8,9,A1_9*%
%TO.N,A1*%
X270125000Y-139257500D03*
%TO.P,U8,10,A0_10*%
%TO.N,A0*%
X267585000Y-139257500D03*
%TO.P,U8,11,D0_11*%
%TO.N,D0*%
X265045000Y-139257500D03*
%TO.P,U8,12,D1_12*%
%TO.N,D1*%
X262505000Y-139257500D03*
%TO.P,U8,13,D2_13*%
%TO.N,D2*%
X259965000Y-139257500D03*
%TO.P,U8,14,GND_14*%
%TO.N,GND*%
X257425000Y-139257500D03*
%TO.P,U8,15,D3_15*%
%TO.N,D3*%
X257425000Y-129097500D03*
%TO.P,U8,16,D4_16*%
%TO.N,D4*%
X259965000Y-129097500D03*
%TO.P,U8,17,D5_17*%
%TO.N,D5*%
X262505000Y-129097500D03*
%TO.P,U8,18,D6_18*%
%TO.N,D6*%
X265045000Y-129097500D03*
%TO.P,U8,19,D7_19*%
%TO.N,D7*%
X267585000Y-129097500D03*
%TO.P,U8,20,~{CS}_20*%
%TO.N,!MREQ*%
X270125000Y-129097500D03*
%TO.P,U8,21,A10_21*%
%TO.N,A10*%
X272665000Y-129097500D03*
%TO.P,U8,22,~{OE}_22*%
%TO.N,!RD*%
X275205000Y-129097500D03*
%TO.P,U8,23,A11_23*%
%TO.N,A11*%
X277745000Y-129097500D03*
%TO.P,U8,24,A9_24*%
%TO.N,A9*%
X280285000Y-129097500D03*
%TO.P,U8,25,A8_25*%
%TO.N,A8*%
X282825000Y-129097500D03*
%TO.P,U8,26,A13_26*%
%TO.N,A13*%
X285365000Y-129097500D03*
%TO.P,U8,27,~{WE}_27*%
%TO.N,!WR*%
X287905000Y-129097500D03*
%TO.P,U8,28,VCC_28*%
%TO.N,5V*%
X290445000Y-129097500D03*
%TD*%
D16*
%TO.P,U17,1,D0_1*%
%TO.N,D0*%
X228392500Y-73230000D03*
D15*
%TO.P,U17,2,D1_2*%
%TO.N,D1*%
X228392500Y-75770000D03*
%TO.P,U17,3,D2_3*%
%TO.N,D2*%
X228392500Y-78310000D03*
%TO.P,U17,4,D3_4*%
%TO.N,D3*%
X228392500Y-80850000D03*
%TO.P,U17,5,D4_5*%
%TO.N,D4*%
X228392500Y-83390000D03*
%TO.P,U17,6,D5_6*%
%TO.N,D5*%
X228392500Y-85930000D03*
%TO.P,U17,7,D6_7*%
%TO.N,D6*%
X228392500Y-88470000D03*
%TO.P,U17,8,D7_8*%
%TO.N,D7*%
X228392500Y-91010000D03*
%TO.P,U17,9,RCLK_9*%
%TO.N,Net-(U17-RCLK)*%
X228392500Y-93550000D03*
%TO.P,U17,10,SIN_10*%
%TO.N,TX2*%
X228392500Y-96090000D03*
%TO.P,U17,11,SOUT_11*%
%TO.N,RX2*%
X228392500Y-98630000D03*
%TO.P,U17,12,CS0_12*%
%TO.N,5V*%
X228392500Y-101170000D03*
%TO.P,U17,13,CS1_13*%
X228392500Y-103710000D03*
%TO.P,U17,14,~{CS2}_14*%
%TO.N,IO3*%
X228392500Y-106250000D03*
%TO.P,U17,15,~{BAUDOUT}_15*%
%TO.N,Net-(U17-RCLK)*%
X228392500Y-108790000D03*
%TO.P,U17,16,XIN_16*%
%TO.N,Net-(U16-XIN)*%
X228392500Y-111330000D03*
%TO.P,U17,17,XOUT_17*%
%TO.N,unconnected-(U17-XOUT-Pad17)*%
X228392500Y-113870000D03*
%TO.P,U17,18,~{WR}_18*%
%TO.N,!WR*%
X228392500Y-116410000D03*
%TO.P,U17,19,WR_19*%
%TO.N,unconnected-(U17-WR-Pad19)*%
X228392500Y-118950000D03*
%TO.P,U17,20,GND_20*%
%TO.N,GND*%
X228392500Y-121490000D03*
%TO.P,U17,21,~{RD}_21*%
%TO.N,!RD*%
X213152500Y-121490000D03*
%TO.P,U17,22,RD_22*%
%TO.N,unconnected-(U17-RD-Pad22)*%
X213152500Y-118950000D03*
%TO.P,U17,23,DDIS_23*%
%TO.N,unconnected-(U17-DDIS-Pad23)*%
X213152500Y-116410000D03*
%TO.P,U17,24,~{TXRDY}_24*%
%TO.N,unconnected-(U17-~{TXRDY}-Pad24)*%
X213152500Y-113870000D03*
%TO.P,U17,25,~{ADS}_25*%
%TO.N,GND*%
X213152500Y-111330000D03*
%TO.P,U17,26,A2_26*%
%TO.N,A2*%
X213152500Y-108790000D03*
%TO.P,U17,27,A1_27*%
%TO.N,A1*%
X213152500Y-106250000D03*
%TO.P,U17,28,A0_28*%
%TO.N,A0*%
X213152500Y-103710000D03*
%TO.P,U17,29,~{RXRDY}_29*%
%TO.N,unconnected-(U17-~{RXRDY}-Pad29)*%
X213152500Y-101170000D03*
%TO.P,U17,30,INTR_30*%
%TO.N,Net-(U16-INTR)*%
X213152500Y-98630000D03*
%TO.P,U17,31,~{OUT2}_31*%
%TO.N,unconnected-(U17-~{OUT2}-Pad31)*%
X213152500Y-96090000D03*
%TO.P,U17,32,~{RTS}_32*%
%TO.N,unconnected-(U17-~{RTS}-Pad32)*%
X213152500Y-93550000D03*
%TO.P,U17,33,~{DTR}_33*%
%TO.N,unconnected-(U17-~{DTR}-Pad33)*%
X213152500Y-91010000D03*
%TO.P,U17,34,~{OUT1}_34*%
%TO.N,unconnected-(U17-~{OUT1}-Pad34)*%
X213152500Y-88470000D03*
%TO.P,U17,35,MR_35*%
%TO.N,Net-(U16-MR)*%
X213152500Y-85930000D03*
%TO.P,U17,36,~{CTS}_36*%
%TO.N,5V*%
X213152500Y-83390000D03*
%TO.P,U17,37,~{DSR}_37*%
X213152500Y-80850000D03*
%TO.P,U17,38,~{DCD}_38*%
X213152500Y-78310000D03*
%TO.P,U17,39,~{RI}_39*%
X213152500Y-75770000D03*
%TO.P,U17,40,VCC_40*%
X213152500Y-73230000D03*
%TD*%
D34*
%TO.N,Net-(U16-RCLK)*%
X244569600Y-93550000D03*
%TO.N,Net-(U14-A)*%
X300285000Y-178910000D03*
%TO.N,Net-(U14-B)*%
X301725000Y-180310000D03*
%TO.N,Net-(U14-C)*%
X303165000Y-180310000D03*
%TO.N,Net-(U14-DP)*%
X304765000Y-179510000D03*
%TO.N,Net-(U14-D)*%
X305605000Y-167180000D03*
X306045000Y-188310000D03*
%TO.N,Net-(U14-E)*%
X304605000Y-187110000D03*
%TO.N,Net-(U14-G)*%
X303165000Y-188710000D03*
%TO.N,Net-(U14-F)*%
X301725000Y-189510000D03*
%TO.N,Net-(U12-A)*%
X290085000Y-180310000D03*
%TO.N,Net-(U12-B)*%
X291525000Y-180310000D03*
%TO.N,Net-(U12-C)*%
X292965000Y-170560000D03*
X292965000Y-180310000D03*
%TO.N,Net-(U12-DP)*%
X294405000Y-180310000D03*
%TO.N,Net-(U12-D)*%
X295005000Y-167180000D03*
X295845000Y-189510000D03*
%TO.N,Net-(U12-E)*%
X293765000Y-164640000D03*
X294405000Y-188910000D03*
%TO.N,Net-(U12-G)*%
X292965000Y-188910000D03*
%TO.N,Net-(U12-F)*%
X291525000Y-189130000D03*
%TO.N,A14*%
X250427600Y-130320000D03*
X250427600Y-142420000D03*
%TO.N,A13*%
X249627600Y-131520000D03*
X276185000Y-78310000D03*
X249627600Y-144664000D03*
X285365000Y-87740000D03*
X269955000Y-78310000D03*
%TO.N,A12*%
X276975000Y-75770000D03*
X248665000Y-141820000D03*
X288305000Y-86220000D03*
X246965000Y-137664000D03*
X288305000Y-87020000D03*
%TO.N,A9*%
X279065000Y-122700000D03*
X236074200Y-145877500D03*
X279065000Y-94440000D03*
X269072500Y-77210000D03*
%TO.N,A8*%
X283445000Y-89660000D03*
X283445000Y-123534300D03*
X233029800Y-145877500D03*
X276235000Y-91900000D03*
%TO.N,A3*%
X254115000Y-91010000D03*
X275205000Y-136757500D03*
X291425000Y-98000000D03*
X293552500Y-99220000D03*
X286185000Y-136757500D03*
X286185000Y-98000000D03*
%TO.N,A0*%
X276287500Y-106640000D03*
X245259300Y-96930000D03*
X230705000Y-154310000D03*
X267585000Y-135957500D03*
X251632500Y-104950000D03*
X276025000Y-135957500D03*
X246905000Y-155090000D03*
X253832500Y-135957500D03*
%TO.N,CLK*%
X229385000Y-156410000D03*
%TO.N,!WR*%
X287447500Y-86920000D03*
X287447500Y-120590000D03*
X234642500Y-116410000D03*
%TO.N,!RD*%
X224205000Y-121490000D03*
X226145000Y-123210000D03*
X275487500Y-98920000D03*
X249932500Y-126197500D03*
%TO.N,RX2*%
X219105000Y-98630000D03*
%TO.N,Net-(U16-INTR)*%
X217425000Y-98630000D03*
%TO.N,IO8*%
X228145000Y-125110000D03*
%TO.N,IO6*%
X222505000Y-150510000D03*
%TO.N,IO5*%
X217990700Y-151710000D03*
%TO.N,A10*%
X239118500Y-145877500D03*
%TO.N,Net-(U10-~{NMI})*%
X252027600Y-113870000D03*
%TO.N,Net-(U5-Q3)*%
X234801400Y-205385000D03*
X283655000Y-201035000D03*
X283855000Y-208676600D03*
X283655000Y-196701600D03*
X235101400Y-196701600D03*
X235101400Y-201043300D03*
X234801400Y-209726600D03*
X283655000Y-205368300D03*
X269285000Y-167330000D03*
%TO.N,Net-(U5-Q4)*%
X277637100Y-196701600D03*
X277637100Y-209701600D03*
X228583500Y-205385000D03*
X228583500Y-201043300D03*
X228583500Y-196701600D03*
X277637100Y-205368300D03*
X277637100Y-201214200D03*
X268917800Y-164790000D03*
X227983500Y-209726600D03*
%TO.N,Net-(J2-Pin_7)*%
X208102400Y-192772500D03*
%TO.N,!RESET*%
X235865000Y-184520000D03*
X236335000Y-112770000D03*
%TO.N,A1*%
X254225000Y-96090000D03*
X211427100Y-145877500D03*
X277887500Y-102480000D03*
X276425000Y-139620000D03*
X254225000Y-100810000D03*
%TO.N,Net-(U5-Q5)*%
X223865700Y-205385000D03*
X271419200Y-209701600D03*
X223865700Y-196701600D03*
X271419200Y-196701600D03*
X223865700Y-201043300D03*
X223865700Y-209726600D03*
X272619200Y-201035000D03*
X271419200Y-205368300D03*
X268317800Y-163090000D03*
%TO.N,!INT*%
X302081000Y-145922500D03*
X302081000Y-119197500D03*
X235242500Y-117850000D03*
X235242500Y-122300000D03*
X259045000Y-122700000D03*
X259045000Y-111330000D03*
%TO.N,A2*%
X252425000Y-96930000D03*
X215985000Y-108790000D03*
X274887500Y-100540000D03*
X216139800Y-143464000D03*
X252425000Y-107690000D03*
X256515000Y-97190000D03*
%TO.N,RX1*%
X244659300Y-94990000D03*
X226692500Y-94990000D03*
X226745000Y-159410000D03*
X212182400Y-159410000D03*
%TO.N,!M1*%
X243025000Y-71530000D03*
%TO.N,IO3*%
X240625000Y-112170000D03*
X232642500Y-112249300D03*
%TO.N,IO2*%
X248682500Y-129720000D03*
%TO.N,A15*%
X255115000Y-124997500D03*
X255115000Y-134357500D03*
X255115000Y-129757500D03*
X254340300Y-145877500D03*
X291525000Y-126950000D03*
X293831000Y-126950000D03*
X245025000Y-136700000D03*
X255115000Y-81690000D03*
%TO.N,Net-(U11-D0)*%
X247805000Y-211226600D03*
%TO.N,BANK_0*%
X275191500Y-174550000D03*
X282692100Y-144864100D03*
X293655000Y-144864100D03*
X293655000Y-132150000D03*
%TO.N,Net-(D8-A)*%
X275191500Y-169590000D03*
%TO.N,Net-(D11-A)*%
X275191500Y-167110000D03*
%TO.N,Net-(D14-A)*%
X275191500Y-164630000D03*
%TO.N,Net-(D17-A)*%
X275191500Y-162150000D03*
%TO.N,Net-(D20-A)*%
X275191500Y-159670000D03*
%TO.N,Net-(D23-A)*%
X275191500Y-157190000D03*
%TO.N,IO4*%
X262100000Y-152110000D03*
X262100000Y-153530000D03*
%TO.N,D7*%
X268605000Y-156060000D03*
X278695100Y-145877500D03*
X274287500Y-105620000D03*
X274287500Y-123100000D03*
X267585000Y-123100000D03*
X280690000Y-155920000D03*
X253425000Y-102910000D03*
X290825000Y-121900000D03*
%TO.N,D6*%
X275650700Y-145877500D03*
X280290000Y-159660000D03*
X271745000Y-127197500D03*
X294252500Y-77040000D03*
%TO.N,D4*%
X267717700Y-144064000D03*
X260265000Y-88470000D03*
X260985000Y-144064000D03*
X266272500Y-110230000D03*
X260265000Y-109430000D03*
X279909300Y-163640000D03*
%TO.N,D3*%
X266517700Y-145877500D03*
X266517700Y-163690000D03*
X277618500Y-166080000D03*
X262100000Y-163690000D03*
X300435000Y-71640000D03*
X263725000Y-127797500D03*
X257455000Y-91010000D03*
X257455000Y-82290000D03*
%TO.N,D2*%
X258445000Y-101170000D03*
X257984600Y-168645000D03*
X258445000Y-143464000D03*
X258445000Y-106890000D03*
X263181000Y-143464000D03*
X263181000Y-145877500D03*
X279909300Y-168620000D03*
X301035000Y-73440000D03*
X257645000Y-79550000D03*
%TO.N,D1*%
X259700000Y-171300000D03*
X296452500Y-109580000D03*
X260429000Y-145877500D03*
X267672500Y-109590000D03*
X260985000Y-108790000D03*
X279909300Y-171160000D03*
%TO.N,D0*%
X257384600Y-145877500D03*
X289675000Y-107680000D03*
X257755000Y-173725000D03*
X256115000Y-139620000D03*
X277618500Y-173800000D03*
X248483500Y-73230000D03*
X256115000Y-106250000D03*
%TO.N,A11*%
X277745000Y-126397500D03*
X242162900Y-145877500D03*
X270755000Y-73230000D03*
X291425000Y-92700000D03*
X279265000Y-91100000D03*
%TO.N,Net-(U5-Q1)*%
X246637100Y-201043300D03*
X246637100Y-209726600D03*
X246637100Y-205385000D03*
X296290700Y-209701600D03*
X296290700Y-196701600D03*
X246637100Y-196701600D03*
X296290700Y-205368300D03*
X295265700Y-199793300D03*
X260783500Y-199493300D03*
X246637100Y-198201600D03*
%TO.N,Net-(U11-D2)*%
X252187100Y-202343300D03*
%TO.N,D5*%
X262505000Y-118650000D03*
X273982400Y-144664000D03*
X257845000Y-118650000D03*
X257045000Y-93550000D03*
X272105000Y-156014100D03*
X272606400Y-145877500D03*
X277599400Y-161000000D03*
%TO.N,Net-(U11-D5)*%
X250787100Y-207535000D03*
%TO.N,Net-(U5-Q2)*%
X290672800Y-205368300D03*
X290872800Y-209701600D03*
X241219200Y-209726600D03*
X241319200Y-201043300D03*
X290872800Y-196701600D03*
X241319200Y-196701600D03*
X241219200Y-205385000D03*
X290872800Y-201035000D03*
X258725000Y-194851600D03*
%TO.N,Net-(U11-D4)*%
X241719200Y-211876600D03*
X243505000Y-176380000D03*
X256880000Y-176980000D03*
X256080000Y-167000000D03*
%TO.N,Net-(U11-D6)*%
X254955000Y-203168300D03*
%TO.N,!HALT*%
X271745000Y-117450000D03*
X304612500Y-117450000D03*
X307714300Y-145922500D03*
X234945000Y-115310000D03*
%TO.N,!MREQ*%
X292255000Y-147136000D03*
X292255000Y-127900000D03*
X275191500Y-172360000D03*
X281292100Y-150046900D03*
X221895000Y-137500000D03*
%TO.N,Net-(U11-D1)*%
X244105000Y-206710000D03*
%TO.N,Net-(U5-Q6)*%
X265201400Y-196701600D03*
X216147800Y-205385000D03*
X216147800Y-201043300D03*
X216147800Y-196701600D03*
X265201400Y-205368300D03*
X217147800Y-209726600D03*
X265201400Y-210626600D03*
X265201400Y-201035000D03*
%TO.N,Net-(U11-D7)*%
X254680000Y-198826600D03*
%TO.N,Net-(U5-Q0)*%
X253455000Y-205360000D03*
X303108500Y-201035000D03*
X303308500Y-209701600D03*
X303308500Y-196701600D03*
X255280000Y-196676600D03*
X253655000Y-209701600D03*
X253455000Y-201018300D03*
X303308500Y-205368300D03*
X255280000Y-176380000D03*
%TO.N,5V*%
X296447600Y-148897500D03*
X296447600Y-130749400D03*
X284290000Y-179310000D03*
X304412500Y-130749400D03*
X296405000Y-179310000D03*
X306350000Y-128049400D03*
X226305000Y-82290000D03*
X253232500Y-133699000D03*
X253232500Y-105750000D03*
X253032500Y-152353300D03*
X232842500Y-106290000D03*
X224805000Y-115110000D03*
X258584700Y-153820000D03*
X262532500Y-98630000D03*
%TO.N,A4*%
X256655000Y-89910000D03*
X275687500Y-94640000D03*
X265885000Y-150066000D03*
X265885000Y-179910000D03*
X223604400Y-149910000D03*
X223604400Y-145877500D03*
X277050800Y-150066000D03*
%TO.N,A5*%
X259645000Y-89110000D03*
X228785000Y-147091000D03*
X228785000Y-155110000D03*
X259645000Y-85630000D03*
%TO.N,A6*%
X284245000Y-91300000D03*
X261735000Y-82590000D03*
X277265000Y-88860000D03*
X283292100Y-177710000D03*
%TO.N,A7*%
X267117700Y-147539100D03*
X275585000Y-78950000D03*
X285365000Y-147539100D03*
X285985000Y-88660000D03*
%TO.N,Net-(U4-~{E1})*%
X237520000Y-183920000D03*
%TO.N,!IORQ*%
X273206500Y-143677500D03*
X284890000Y-180210000D03*
X285965000Y-143677500D03*
X223605000Y-124010000D03*
%TO.N,GND*%
X302749400Y-128850000D03*
X302749400Y-134050000D03*
X286610000Y-150710000D03*
X241425000Y-111330000D03*
X251305000Y-193010000D03*
X296830000Y-150710000D03*
X251305000Y-148952500D03*
X236074200Y-148852500D03*
X257425000Y-144664000D03*
X269269700Y-145877500D03*
X269269700Y-148852500D03*
X232842500Y-121490000D03*
X232325000Y-141720000D03*
X241425000Y-102610000D03*
X219184100Y-150066000D03*
%TO.N,IO1*%
X234865000Y-136700000D03*
X234865000Y-138720000D03*
%TO.N,Net-(U11-D3)*%
X260183500Y-198851600D03*
%TO.N,Net-(U5-Q7)*%
X258983500Y-209701600D03*
X209930000Y-201043300D03*
X209930000Y-205385000D03*
X210130000Y-209726600D03*
X258983500Y-204335000D03*
X258983500Y-196701600D03*
X210130000Y-196701600D03*
X258983500Y-201035000D03*
X267717800Y-158810000D03*
X267717800Y-179810000D03*
X263805000Y-180810000D03*
X263151400Y-196701600D03*
%TD*%
%TO.N,A0*%
D35*
X281747500Y-105620000D02*
X281747500Y-106640000D01*
%TO.N,Net-(U16-RCLK)*%
X244569600Y-93550000D02*
X246782500Y-93550000D01*
%TO.N,Net-(U14-A)*%
X300285000Y-178910000D02*
X300285000Y-182210000D01*
%TO.N,Net-(U14-B)*%
X301725000Y-180310000D02*
X301725000Y-182210000D01*
%TO.N,Net-(U14-C)*%
X303165000Y-180310000D02*
X303165000Y-182210000D01*
%TO.N,Net-(U14-DP)*%
X304605000Y-179670000D02*
X304605000Y-182210000D01*
X304765000Y-179510000D02*
X304605000Y-179670000D01*
%TO.N,Net-(U14-D)*%
X305605000Y-167180000D02*
X299310000Y-167180000D01*
X306045000Y-188310000D02*
X306045000Y-192210000D01*
%TO.N,Net-(U14-E)*%
X304605000Y-187110000D02*
X304605000Y-192210000D01*
%TO.N,Net-(U14-G)*%
X303165000Y-188710000D02*
X303165000Y-192210000D01*
%TO.N,Net-(U14-F)*%
X301725000Y-189510000D02*
X301725000Y-192210000D01*
%TO.N,Net-(BT1-+)*%
X234605000Y-155210000D02*
X232205000Y-152810000D01*
X234605000Y-168870000D02*
X234605000Y-155210000D01*
X236065000Y-170330000D02*
X234605000Y-168870000D01*
%TO.N,Net-(R6-Pad2)*%
X306045000Y-183301400D02*
X306045000Y-182210000D01*
X304036500Y-185310000D02*
X306045000Y-183301400D01*
X303460000Y-185310000D02*
X304036500Y-185310000D01*
X300285000Y-188485000D02*
X303460000Y-185310000D01*
X300285000Y-192210000D02*
X300285000Y-188485000D01*
X212407500Y-192172500D02*
X210255000Y-190020000D01*
X212538700Y-192172500D02*
X212407500Y-192172500D01*
X213332400Y-192966300D02*
X212538700Y-192172500D01*
X213332400Y-196807900D02*
X213332400Y-192966300D01*
X214126200Y-197601600D02*
X213332400Y-196807900D01*
X299888100Y-197601600D02*
X214126200Y-197601600D01*
X300285000Y-197204700D02*
X299888100Y-197601600D01*
X300285000Y-192210000D02*
X300285000Y-197204700D01*
%TO.N,Net-(U16-XIN)*%
X208704100Y-156429100D02*
X210385000Y-158110000D01*
X208704100Y-110914800D02*
X208704100Y-156429100D01*
X209497800Y-110121000D02*
X208704100Y-110914800D01*
X227183500Y-110121000D02*
X209497800Y-110121000D01*
X228392500Y-111330000D02*
X227183500Y-110121000D01*
X245573500Y-110121000D02*
X246782500Y-111330000D01*
X229601500Y-110121000D02*
X245573500Y-110121000D01*
X228392500Y-111330000D02*
X229601500Y-110121000D01*
%TO.N,Net-(U12-A)*%
X290085000Y-180310000D02*
X290085000Y-182210000D01*
%TO.N,Net-(U12-B)*%
X291525000Y-180310000D02*
X291525000Y-182210000D01*
%TO.N,Net-(U12-C)*%
X290050000Y-170560000D02*
X289210000Y-169720000D01*
X292965000Y-170560000D02*
X290050000Y-170560000D01*
X292965000Y-180310000D02*
X292965000Y-182210000D01*
%TO.N,Net-(U12-DP)*%
X294405000Y-180310000D02*
X294405000Y-182210000D01*
%TO.N,Net-(U12-D)*%
X295005000Y-167180000D02*
X289210000Y-167180000D01*
X295845000Y-189510000D02*
X295845000Y-192210000D01*
%TO.N,Net-(U12-E)*%
X293765000Y-164640000D02*
X289210000Y-164640000D01*
X294405000Y-188910000D02*
X294405000Y-192210000D01*
%TO.N,Net-(U12-G)*%
X292965000Y-188910000D02*
X292965000Y-192210000D01*
%TO.N,Net-(U12-F)*%
X291525000Y-189130000D02*
X291525000Y-192210000D01*
%TO.N,A14*%
X235965000Y-131907500D02*
X235965000Y-132820000D01*
X237552500Y-130320000D02*
X235965000Y-131907500D01*
X250427600Y-130320000D02*
X237552500Y-130320000D01*
X252271900Y-142420000D02*
X250427600Y-142420000D01*
X252671900Y-142820000D02*
X252271900Y-142420000D01*
X252671900Y-142820000D02*
X252671900Y-145877500D01*
X302973900Y-82660000D02*
X303112500Y-82660000D01*
X301953900Y-81640000D02*
X302973900Y-82660000D01*
X283006100Y-81640000D02*
X301953900Y-81640000D01*
X281886100Y-82760000D02*
X283006100Y-81640000D01*
X281747500Y-82760000D02*
X281886100Y-82760000D01*
X267067500Y-80850000D02*
X265172500Y-80850000D01*
X267077500Y-80840000D02*
X267067500Y-80850000D01*
X278880000Y-80840000D02*
X267077500Y-80840000D01*
X282055000Y-77665000D02*
X278880000Y-80840000D01*
X282055000Y-70105000D02*
X282055000Y-77665000D01*
X253071900Y-142420000D02*
X252671900Y-142820000D01*
X288857500Y-142420000D02*
X253071900Y-142420000D01*
X290445000Y-140832500D02*
X288857500Y-142420000D01*
X290445000Y-139257500D02*
X290445000Y-140832500D01*
%TO.N,A13*%
X249627600Y-144664000D02*
X249627600Y-145877500D01*
X285365000Y-87740000D02*
X292952500Y-87740000D01*
X269955000Y-78310000D02*
X265172500Y-78310000D01*
X279515000Y-76722500D02*
X279515000Y-70105000D01*
X277927500Y-78310000D02*
X279515000Y-76722500D01*
X276185000Y-78310000D02*
X277927500Y-78310000D01*
X239805000Y-131520000D02*
X238505000Y-132820000D01*
X249627600Y-131520000D02*
X239805000Y-131520000D01*
X283777500Y-131520000D02*
X249627600Y-131520000D01*
X285365000Y-129932500D02*
X283777500Y-131520000D01*
X285365000Y-129097500D02*
X285365000Y-129932500D01*
X276185000Y-78310000D02*
X269955000Y-78310000D01*
%TO.N,A12*%
X241045000Y-136076500D02*
X241045000Y-132820000D01*
X242632500Y-137664000D02*
X241045000Y-136076500D01*
X246965000Y-137664000D02*
X242632500Y-137664000D01*
X246583200Y-145657800D02*
X246583200Y-145877500D01*
X247377000Y-144864100D02*
X246583200Y-145657800D01*
X247871300Y-144864100D02*
X247377000Y-144864100D01*
X248665000Y-144070300D02*
X247871300Y-144864100D01*
X248665000Y-141820000D02*
X248665000Y-144070300D01*
X276975000Y-75770000D02*
X265172500Y-75770000D01*
X286317500Y-141820000D02*
X248665000Y-141820000D01*
X287905000Y-140232500D02*
X286317500Y-141820000D01*
X287905000Y-139257500D02*
X287905000Y-140232500D01*
X288305000Y-86220000D02*
X288305000Y-87020000D01*
X303112500Y-85926300D02*
X303112500Y-85200000D01*
X302318800Y-86720000D02*
X303112500Y-85926300D01*
X288805000Y-86720000D02*
X302318800Y-86720000D01*
X288305000Y-86220000D02*
X288805000Y-86720000D01*
%TO.N,A9*%
X236074200Y-145877500D02*
X237450200Y-145877500D01*
X278065000Y-123700000D02*
X279065000Y-122700000D01*
X239298800Y-123700000D02*
X278065000Y-123700000D01*
X238505000Y-124493800D02*
X239298800Y-123700000D01*
X238505000Y-125200000D02*
X238505000Y-124493800D01*
X251372500Y-77210000D02*
X249932500Y-75770000D01*
X269072500Y-77210000D02*
X251372500Y-77210000D01*
X269355000Y-72782500D02*
X269355000Y-70105000D01*
X270942500Y-74370000D02*
X269355000Y-72782500D01*
X276777500Y-74370000D02*
X270942500Y-74370000D01*
X278365000Y-75957500D02*
X276777500Y-74370000D01*
X278365000Y-76813100D02*
X278365000Y-75957500D01*
X277968100Y-77210000D02*
X278365000Y-76813100D01*
X269072500Y-77210000D02*
X277968100Y-77210000D01*
X278565000Y-93940000D02*
X279065000Y-94440000D01*
X271587500Y-93940000D02*
X278565000Y-93940000D01*
X271587500Y-92920000D02*
X271587500Y-93940000D01*
X292952500Y-92593800D02*
X292952500Y-92820000D01*
X293746300Y-91800000D02*
X292952500Y-92593800D01*
X304015600Y-91800000D02*
X293746300Y-91800000D01*
X304412500Y-92196900D02*
X304015600Y-91800000D01*
X304412500Y-93546300D02*
X304412500Y-92196900D01*
X303618800Y-94340000D02*
X304412500Y-93546300D01*
X279165000Y-94340000D02*
X303618800Y-94340000D01*
X279065000Y-94440000D02*
X279165000Y-94340000D01*
%TO.N,A8*%
X233029800Y-145877500D02*
X234405800Y-145877500D01*
X282879300Y-124100000D02*
X283445000Y-123534300D01*
X240398800Y-124100000D02*
X282879300Y-124100000D01*
X239605000Y-124893800D02*
X240398800Y-124100000D01*
X239605000Y-126000600D02*
X239605000Y-124893800D01*
X239208100Y-126397500D02*
X239605000Y-126000600D01*
X237162500Y-126397500D02*
X239208100Y-126397500D01*
X235965000Y-125200000D02*
X237162500Y-126397500D01*
X274715000Y-90380000D02*
X276235000Y-91900000D01*
X271587500Y-90380000D02*
X274715000Y-90380000D01*
X284065000Y-90280000D02*
X292952500Y-90280000D01*
X283445000Y-89660000D02*
X284065000Y-90280000D01*
X248832500Y-77210000D02*
X249932500Y-78310000D01*
X248832500Y-75066900D02*
X248832500Y-77210000D01*
X249229400Y-74670000D02*
X248832500Y-75066900D01*
X266021300Y-74670000D02*
X249229400Y-74670000D01*
X266815000Y-73876300D02*
X266021300Y-74670000D01*
X266815000Y-70105000D02*
X266815000Y-73876300D01*
%TO.N,A3*%
X219184100Y-145770000D02*
X219184100Y-145877500D01*
X225534100Y-139420000D02*
X219184100Y-145770000D01*
X251770000Y-139420000D02*
X225534100Y-139420000D01*
X254432500Y-136757500D02*
X251770000Y-139420000D01*
X275205000Y-136757500D02*
X254432500Y-136757500D01*
X281747500Y-98000000D02*
X286185000Y-98000000D01*
X254115000Y-91010000D02*
X249932500Y-91010000D01*
X275205000Y-136757500D02*
X286185000Y-136757500D01*
X291425000Y-98000000D02*
X286185000Y-98000000D01*
X255555000Y-92450000D02*
X254115000Y-91010000D01*
X266007500Y-92450000D02*
X255555000Y-92450000D01*
X270537500Y-96980000D02*
X266007500Y-92450000D01*
X280953800Y-96980000D02*
X270537500Y-96980000D01*
X281747500Y-97773800D02*
X280953800Y-96980000D01*
X281747500Y-98000000D02*
X281747500Y-97773800D01*
X303112500Y-98426200D02*
X303112500Y-97900000D01*
X302318800Y-99220000D02*
X303112500Y-98426200D01*
X293552500Y-99220000D02*
X302318800Y-99220000D01*
%TO.N,A0*%
X214252500Y-102610000D02*
X213152500Y-103710000D01*
X230442500Y-102610000D02*
X214252500Y-102610000D01*
X231542500Y-103710000D02*
X230442500Y-102610000D01*
X210051100Y-146251600D02*
X210051100Y-145877500D01*
X211638600Y-147839100D02*
X210051100Y-146251600D01*
X217115800Y-147839100D02*
X211638600Y-147839100D01*
X217315800Y-148039100D02*
X217115800Y-147839100D01*
X217315800Y-152722500D02*
X217315800Y-148039100D01*
X218903300Y-154310000D02*
X217315800Y-152722500D01*
X230705000Y-154310000D02*
X218903300Y-154310000D01*
X267427500Y-104950000D02*
X251632500Y-104950000D01*
X269117500Y-106640000D02*
X267427500Y-104950000D01*
X276287500Y-106640000D02*
X269117500Y-106640000D01*
X267585000Y-135957500D02*
X276025000Y-135957500D01*
X236065000Y-155090000D02*
X246905000Y-155090000D01*
X267585000Y-135957500D02*
X253832500Y-135957500D01*
X238639400Y-96930000D02*
X245259300Y-96930000D01*
X238242500Y-97326900D02*
X238639400Y-96930000D01*
X238242500Y-97360000D02*
X238242500Y-97326900D01*
X231892500Y-103710000D02*
X238242500Y-97360000D01*
X231542500Y-103710000D02*
X231892500Y-103710000D01*
X303112500Y-105846200D02*
X303112500Y-105520000D01*
X302318800Y-106640000D02*
X303112500Y-105846200D01*
X281747500Y-106640000D02*
X302318800Y-106640000D01*
D36*
X281747500Y-106640000D02*
X281747499Y-106640000D01*
X281747499Y-106640000D01*
X281747499Y-106640000D01*
X281747499Y-106640000D01*
X281747499Y-106640000D01*
X281747499Y-106640000D01*
X281747499Y-106640000D01*
X281747499Y-106639999D01*
X281747499Y-106639999D01*
X281747499Y-106639999D01*
X281747499Y-106639999D01*
X281747499Y-106639999D01*
X281747500Y-106639999D01*
X281747500Y-106639999D01*
X281747500Y-106639999D01*
X281747500Y-106639999D01*
X281747500Y-106639999D01*
X281747500Y-106639999D01*
X281747500Y-106639999D01*
X281747500Y-106639999D01*
X281747500Y-106639999D01*
X281747500Y-106639999D01*
X281747500Y-106639999D01*
X281747500Y-106639999D01*
X281747501Y-106639999D01*
X281747501Y-106639999D01*
X281747501Y-106639999D01*
X281747501Y-106639999D01*
X281747501Y-106639999D01*
X281747501Y-106639999D01*
X281747501Y-106640000D01*
X281747501Y-106640000D01*
X281747501Y-106640000D01*
X281747501Y-106640000D01*
X281747501Y-106640000D01*
X281747501Y-106640000D01*
X281747501Y-106640000D01*
X281747500Y-106640000D01*
X281747500Y-106640000D02*
X281747501Y-106640000D01*
X281747501Y-106640000D01*
X281747501Y-106640000D01*
X281747501Y-106640000D01*
X281747501Y-106640000D01*
X281747501Y-106640000D01*
X281747501Y-106640001D01*
X281747501Y-106640001D01*
X281747501Y-106640001D01*
X281747501Y-106640001D01*
X281747501Y-106640001D01*
X281747501Y-106640001D01*
X281747501Y-106640001D01*
X281747500Y-106640001D01*
X281747500Y-106640001D01*
X281747500Y-106640001D01*
X281747500Y-106640001D01*
X281747500Y-106640001D01*
X281747500Y-106640001D01*
X281747500Y-106640001D01*
X281747500Y-106640001D01*
X281747500Y-106640001D01*
X281747500Y-106640001D01*
X281747500Y-106640001D01*
X281747500Y-106640001D01*
X281747499Y-106640001D01*
X281747499Y-106640001D01*
X281747499Y-106640001D01*
X281747499Y-106640001D01*
X281747499Y-106640001D01*
X281747499Y-106640001D01*
X281747499Y-106640000D01*
X281747499Y-106640000D01*
X281747499Y-106640000D01*
X281747499Y-106640000D01*
X281747499Y-106640000D01*
X281747499Y-106640000D01*
X281747500Y-106640000D01*
D35*
X276287500Y-106640000D02*
X281747500Y-106640000D01*
%TO.N,CLK*%
X226385000Y-156410000D02*
X224685000Y-158110000D01*
X229385000Y-156410000D02*
X226385000Y-156410000D01*
%TO.N,!WR*%
X246782500Y-116410000D02*
X234642500Y-116410000D01*
X248222500Y-117850000D02*
X246782500Y-116410000D01*
X248832500Y-117850000D02*
X248222500Y-117850000D01*
X249932500Y-118950000D02*
X248832500Y-117850000D01*
X288241300Y-85200000D02*
X292952500Y-85200000D01*
X287447500Y-85993800D02*
X288241300Y-85200000D01*
X287447500Y-86920000D02*
X287447500Y-85993800D01*
X271587500Y-85526300D02*
X271587500Y-85300000D01*
X272381300Y-86320000D02*
X271587500Y-85526300D01*
X286847500Y-86320000D02*
X272381300Y-86320000D01*
X287447500Y-86920000D02*
X286847500Y-86320000D01*
X266372500Y-120590000D02*
X287447500Y-120590000D01*
X266172500Y-120390000D02*
X266372500Y-120590000D01*
X254952500Y-120390000D02*
X266172500Y-120390000D01*
X253512500Y-118950000D02*
X254952500Y-120390000D01*
X249932500Y-118950000D02*
X253512500Y-118950000D01*
X300705000Y-136532500D02*
X300705000Y-145922500D01*
X297530000Y-133357500D02*
X300705000Y-136532500D01*
X291080000Y-133357500D02*
X297530000Y-133357500D01*
X287905000Y-130182500D02*
X291080000Y-133357500D01*
X287905000Y-129097500D02*
X287905000Y-130182500D01*
%TO.N,!RD*%
X274567500Y-98000000D02*
X271587500Y-98000000D01*
X275487500Y-98920000D02*
X274567500Y-98000000D01*
X229822500Y-123210000D02*
X226145000Y-123210000D01*
X231542500Y-121490000D02*
X229822500Y-123210000D01*
X224205000Y-121490000D02*
X213152500Y-121490000D01*
X232642500Y-120390000D02*
X231542500Y-121490000D01*
X248832500Y-120390000D02*
X232642500Y-120390000D01*
X249932500Y-121490000D02*
X248832500Y-120390000D01*
X292952500Y-98326300D02*
X292952500Y-97900000D01*
X292158800Y-99120000D02*
X292952500Y-98326300D01*
X278187500Y-99120000D02*
X292158800Y-99120000D01*
X277987500Y-98920000D02*
X278187500Y-99120000D01*
X275487500Y-98920000D02*
X277987500Y-98920000D01*
X275205000Y-129097500D02*
X275205000Y-127797500D01*
X273605000Y-127797500D02*
X275205000Y-127797500D01*
X273605000Y-126197500D02*
X273605000Y-127797500D01*
X249932500Y-126197500D02*
X273605000Y-126197500D01*
X297888300Y-137732500D02*
X297888300Y-145922500D01*
X294713300Y-134557500D02*
X297888300Y-137732500D01*
X289560000Y-134557500D02*
X294713300Y-134557500D01*
X286385000Y-131382500D02*
X289560000Y-134557500D01*
X286385000Y-128194400D02*
X286385000Y-131382500D01*
X285988100Y-127797500D02*
X286385000Y-128194400D01*
X275205000Y-127797500D02*
X285988100Y-127797500D01*
%TO.N,RX2*%
D36*
X228392500Y-98630000D02*
X228392499Y-98630000D01*
X228392499Y-98630000D01*
X228392499Y-98630000D01*
X228392499Y-98630000D01*
X228392499Y-98630000D01*
X228392499Y-98630000D01*
X228392499Y-98630000D01*
X228392499Y-98629999D01*
X228392499Y-98629999D01*
X228392499Y-98629999D01*
X228392499Y-98629999D01*
X228392499Y-98629999D01*
X228392500Y-98629999D01*
X228392500Y-98629999D01*
X228392500Y-98629999D01*
X228392500Y-98629999D01*
X228392500Y-98629999D01*
X228392500Y-98629999D01*
X228392500Y-98629999D01*
X228392500Y-98629999D01*
X228392500Y-98629999D01*
X228392500Y-98629999D01*
X228392500Y-98629999D01*
X228392500Y-98629999D01*
X228392501Y-98629999D01*
X228392501Y-98629999D01*
X228392501Y-98629999D01*
X228392501Y-98629999D01*
X228392501Y-98629999D01*
X228392501Y-98629999D01*
X228392501Y-98630000D01*
X228392501Y-98630000D01*
X228392501Y-98630000D01*
X228392501Y-98630000D01*
X228392501Y-98630000D01*
X228392501Y-98630000D01*
X228392501Y-98630000D01*
X228392500Y-98630000D01*
X228392500Y-98630000D02*
X228392501Y-98630000D01*
X228392501Y-98630000D01*
X228392501Y-98630000D01*
X228392501Y-98630000D01*
X228392501Y-98630000D01*
X228392501Y-98630000D01*
X228392501Y-98630001D01*
X228392501Y-98630001D01*
X228392501Y-98630001D01*
X228392501Y-98630001D01*
X228392501Y-98630001D01*
X228392501Y-98630001D01*
X228392501Y-98630001D01*
X228392500Y-98630001D01*
X228392500Y-98630001D01*
X228392500Y-98630001D01*
X228392500Y-98630001D01*
X228392500Y-98630001D01*
X228392500Y-98630001D01*
X228392500Y-98630001D01*
X228392500Y-98630001D01*
X228392500Y-98630001D01*
X228392500Y-98630001D01*
X228392500Y-98630001D01*
X228392500Y-98630001D01*
X228392499Y-98630001D01*
X228392499Y-98630001D01*
X228392499Y-98630001D01*
X228392499Y-98630001D01*
X228392499Y-98630001D01*
X228392499Y-98630001D01*
X228392499Y-98630000D01*
X228392499Y-98630000D01*
X228392499Y-98630000D01*
X228392499Y-98630000D01*
X228392499Y-98630000D01*
X228392499Y-98630000D01*
X228392500Y-98630000D01*
D35*
X219105000Y-98630000D02*
X228392500Y-98630000D01*
%TO.N,TX2*%
X226185000Y-96090000D02*
X228392500Y-96090000D01*
X217465000Y-87370000D02*
X226185000Y-96090000D01*
X212731000Y-87370000D02*
X217465000Y-87370000D01*
X211937200Y-86576300D02*
X212731000Y-87370000D01*
X211937200Y-72526900D02*
X211937200Y-86576300D01*
X212334100Y-72130000D02*
X211937200Y-72526900D01*
X212681300Y-72130000D02*
X212334100Y-72130000D01*
X213475000Y-71336300D02*
X212681300Y-72130000D01*
X213475000Y-70105000D02*
X213475000Y-71336300D01*
%TO.N,Net-(U16-MR)*%
X230442500Y-84830000D02*
X231542500Y-85930000D01*
X214252500Y-84830000D02*
X230442500Y-84830000D01*
X213152500Y-85930000D02*
X214252500Y-84830000D01*
%TO.N,Net-(U16-INTR)*%
X217425000Y-98630000D02*
X213152500Y-98630000D01*
X230442500Y-97530000D02*
X231542500Y-98630000D01*
X218525000Y-97530000D02*
X230442500Y-97530000D01*
X217425000Y-98630000D02*
X218525000Y-97530000D01*
%TO.N,IO8*%
X228145000Y-125110000D02*
X225045000Y-125110000D01*
%TO.N,IO6*%
X296560000Y-151730000D02*
X299310000Y-154480000D01*
X264510000Y-151730000D02*
X296560000Y-151730000D01*
X263290000Y-150510000D02*
X264510000Y-151730000D01*
X222505000Y-150510000D02*
X263290000Y-150510000D01*
%TO.N,IO5*%
X287483300Y-152753300D02*
X289210000Y-154480000D01*
X260806300Y-152753300D02*
X287483300Y-152753300D01*
X259563000Y-151510000D02*
X260806300Y-152753300D01*
X218190700Y-151510000D02*
X259563000Y-151510000D01*
X217990700Y-151710000D02*
X218190700Y-151510000D01*
%TO.N,A10*%
X239118500Y-145877500D02*
X240494500Y-145877500D01*
X292952500Y-99520000D02*
X292952500Y-100440000D01*
X272381300Y-99520000D02*
X292952500Y-99520000D01*
X271587500Y-100313800D02*
X272381300Y-99520000D01*
X271587500Y-100540000D02*
X271587500Y-100313800D01*
X261297500Y-73230000D02*
X249932500Y-73230000D01*
X262885000Y-71642500D02*
X261297500Y-73230000D01*
X262885000Y-69748800D02*
X262885000Y-71642500D01*
X263678800Y-68955000D02*
X262885000Y-69748800D01*
X270745000Y-68955000D02*
X263678800Y-68955000D01*
X271895000Y-70105000D02*
X270745000Y-68955000D01*
X272665000Y-128591300D02*
X272665000Y-129097500D01*
X271871300Y-127797500D02*
X272665000Y-128591300D01*
X266858800Y-127797500D02*
X271871300Y-127797500D01*
X266065000Y-128591300D02*
X266858800Y-127797500D01*
X266065000Y-130123100D02*
X266065000Y-128591300D01*
X265668100Y-130520000D02*
X266065000Y-130123100D01*
X256508800Y-130520000D02*
X265668100Y-130520000D01*
X255715000Y-129726300D02*
X256508800Y-130520000D01*
X255715000Y-129116900D02*
X255715000Y-129726300D01*
X255318100Y-128720000D02*
X255715000Y-129116900D01*
X244565000Y-128720000D02*
X255318100Y-128720000D01*
X241045000Y-125200000D02*
X244565000Y-128720000D01*
%TO.N,Net-(U10-~{NMI})*%
X252027600Y-113870000D02*
X265172500Y-113870000D01*
%TO.N,Net-(U5-Q3)*%
X283061300Y-209701600D02*
X282830000Y-209701600D01*
X283855000Y-208907900D02*
X283061300Y-209701600D01*
X283855000Y-208676600D02*
X283855000Y-208907900D01*
X283655000Y-196701600D02*
X282830000Y-196701600D01*
X235101400Y-201043300D02*
X233176400Y-201043300D01*
X283655000Y-201035000D02*
X282830000Y-201035000D01*
X238548300Y-208676600D02*
X283855000Y-208676600D01*
X238151400Y-209073500D02*
X238548300Y-208676600D01*
X238151400Y-209243000D02*
X238151400Y-209073500D01*
X237667800Y-209726600D02*
X238151400Y-209243000D01*
X237326400Y-209726600D02*
X237667800Y-209726600D01*
X234801400Y-209726600D02*
X233176400Y-209726600D01*
X234801400Y-205385000D02*
X233176400Y-205385000D01*
X235101400Y-196701600D02*
X233176400Y-196701600D01*
X235101400Y-196701600D02*
X237326400Y-196701600D01*
X235101400Y-201043300D02*
X237326400Y-201043300D01*
X234801400Y-205385000D02*
X237326400Y-205385000D01*
X237326400Y-209726600D02*
X234801400Y-209726600D01*
X284880000Y-209701600D02*
X286980000Y-209701600D01*
X283855000Y-208676600D02*
X284880000Y-209701600D01*
X283655000Y-205368300D02*
X286980000Y-205368300D01*
X283655000Y-201035000D02*
X286980000Y-201035000D01*
X283655000Y-196701600D02*
X286980000Y-196701600D01*
X269285000Y-167330000D02*
X263385000Y-167330000D01*
X283655000Y-205368300D02*
X282830000Y-205368300D01*
%TO.N,Net-(U5-Q4)*%
X277637100Y-196701600D02*
X276612100Y-196701600D01*
X277637100Y-209701600D02*
X276612100Y-209701600D01*
X277637100Y-205368300D02*
X276612100Y-205368300D01*
X268917800Y-164790000D02*
X263385000Y-164790000D01*
X277416300Y-200393300D02*
X277637100Y-200614200D01*
X231933500Y-200393300D02*
X277416300Y-200393300D01*
X231933500Y-200559700D02*
X231933500Y-200393300D01*
X231449900Y-201043300D02*
X231933500Y-200559700D01*
X231108500Y-201043300D02*
X231449900Y-201043300D01*
X277637100Y-201035000D02*
X276612100Y-201035000D01*
X277637100Y-200614200D02*
X277637100Y-201035000D01*
X228583500Y-201043300D02*
X226958500Y-201043300D01*
X228583500Y-196701600D02*
X226958500Y-196701600D01*
X228583500Y-205385000D02*
X226958500Y-205385000D01*
X228583500Y-205385000D02*
X231108500Y-205385000D01*
X231108500Y-201043300D02*
X228583500Y-201043300D01*
X228583500Y-196701600D02*
X231108500Y-196701600D01*
X277637100Y-205368300D02*
X280762100Y-205368300D01*
X277637100Y-196701600D02*
X280762100Y-196701600D01*
X277637100Y-209701600D02*
X280762100Y-209701600D01*
X277637100Y-201035000D02*
X280762100Y-201035000D01*
X227983500Y-209726600D02*
X226958500Y-209726600D01*
X277637100Y-201214200D02*
X277637100Y-201035000D01*
X227983500Y-209726600D02*
X231108500Y-209726600D01*
%TO.N,Net-(J2-Pin_7)*%
X211032400Y-192772500D02*
X212182400Y-193922500D01*
X208102400Y-192772500D02*
X211032400Y-192772500D01*
%TO.N,Net-(BZ1-+)*%
X232042500Y-191572500D02*
X234605000Y-189010000D01*
X217072400Y-191572500D02*
X232042500Y-191572500D01*
X214722400Y-193922500D02*
X217072400Y-191572500D01*
%TO.N,!RESET*%
X247882500Y-110840000D02*
X249932500Y-108790000D01*
X247882500Y-111976300D02*
X247882500Y-110840000D01*
X247088800Y-112770000D02*
X247882500Y-111976300D01*
X236335000Y-112770000D02*
X247088800Y-112770000D01*
X242515000Y-184520000D02*
X235865000Y-184520000D01*
X246505000Y-188510000D02*
X242515000Y-184520000D01*
X246505000Y-188510000D02*
X253005000Y-188510000D01*
X234512500Y-112770000D02*
X236335000Y-112770000D01*
X231972500Y-115310000D02*
X234512500Y-112770000D01*
X226992500Y-115310000D02*
X231972500Y-115310000D01*
X225405000Y-116897500D02*
X226992500Y-115310000D01*
X225405000Y-121416300D02*
X225405000Y-116897500D01*
X224611300Y-122210000D02*
X225405000Y-121416300D01*
X217452500Y-122210000D02*
X224611300Y-122210000D01*
X216652500Y-123010000D02*
X217452500Y-122210000D01*
X214445000Y-123010000D02*
X216652500Y-123010000D01*
X212345000Y-125110000D02*
X214445000Y-123010000D01*
%TO.N,Net-(R4-Pad2)*%
X289685000Y-188030000D02*
X289685000Y-188230000D01*
X295845000Y-183301400D02*
X295845000Y-182210000D01*
X293116400Y-186030000D02*
X295845000Y-183301400D01*
X291685000Y-186030000D02*
X293116400Y-186030000D01*
X289685000Y-188030000D02*
X291685000Y-186030000D01*
X220665000Y-187710000D02*
X218355000Y-190020000D01*
X243255000Y-187710000D02*
X220665000Y-187710000D01*
X245355000Y-189810000D02*
X243255000Y-187710000D01*
X254815000Y-189810000D02*
X245355000Y-189810000D01*
X256195000Y-188430000D02*
X254815000Y-189810000D01*
X289685000Y-188430000D02*
X256195000Y-188430000D01*
X289685000Y-188230000D02*
X289685000Y-188430000D01*
X290085000Y-188630000D02*
X290085000Y-192210000D01*
X289685000Y-188230000D02*
X290085000Y-188630000D01*
%TO.N,A1*%
X211427100Y-145877500D02*
X213095400Y-145877500D01*
X249932500Y-96090000D02*
X254225000Y-96090000D01*
X270125000Y-139826200D02*
X270125000Y-139257500D01*
X270918800Y-140620000D02*
X270125000Y-139826200D01*
X275631300Y-140620000D02*
X270918800Y-140620000D01*
X276425000Y-139826200D02*
X275631300Y-140620000D01*
X276425000Y-139620000D02*
X276425000Y-139826200D01*
X256025100Y-102610000D02*
X254225000Y-100810000D01*
X265997500Y-102610000D02*
X256025100Y-102610000D01*
X266547500Y-102060000D02*
X265997500Y-102610000D01*
X277467500Y-102060000D02*
X266547500Y-102060000D01*
X277887500Y-102480000D02*
X277467500Y-102060000D01*
X214252500Y-105150000D02*
X213152500Y-106250000D01*
X230442500Y-105150000D02*
X214252500Y-105150000D01*
X231542500Y-106250000D02*
X230442500Y-105150000D01*
X232642500Y-105150000D02*
X231542500Y-106250000D01*
X233492500Y-105150000D02*
X232642500Y-105150000D01*
X239842500Y-98800000D02*
X233492500Y-105150000D01*
X239842500Y-98323800D02*
X239842500Y-98800000D01*
X240636300Y-97530000D02*
X239842500Y-98323800D01*
X248492500Y-97530000D02*
X240636300Y-97530000D01*
X249932500Y-96090000D02*
X248492500Y-97530000D01*
X281747500Y-102480000D02*
X281747500Y-103080000D01*
X277887500Y-102480000D02*
X281747500Y-102480000D01*
X303112500Y-102753800D02*
X303112500Y-102980000D01*
X302318800Y-101960000D02*
X303112500Y-102753800D01*
X282267500Y-101960000D02*
X302318800Y-101960000D01*
X281747500Y-102480000D02*
X282267500Y-101960000D01*
%TO.N,Net-(U5-Q5)*%
X223865700Y-205385000D02*
X224890700Y-205385000D01*
X271419200Y-209701600D02*
X270394200Y-209701600D01*
X223865700Y-196701600D02*
X224890700Y-196701600D01*
X271419200Y-196701600D02*
X270394200Y-196701600D01*
X223865700Y-209726600D02*
X224890700Y-209726600D01*
X223865700Y-201043300D02*
X224890700Y-201043300D01*
X272619200Y-201035000D02*
X270394200Y-201035000D01*
X272619200Y-201035000D02*
X274544200Y-201035000D01*
X271419200Y-209701600D02*
X274544200Y-209701600D01*
X223865700Y-205385000D02*
X220740700Y-205385000D01*
X271419200Y-196701600D02*
X274544200Y-196701600D01*
X223865700Y-196701600D02*
X220740700Y-196701600D01*
X223865700Y-209726600D02*
X220740700Y-209726600D01*
X223865700Y-201043300D02*
X220740700Y-201043300D01*
X264225000Y-163090000D02*
X263385000Y-162250000D01*
X268317800Y-163090000D02*
X264225000Y-163090000D01*
X224490700Y-206010000D02*
X223865700Y-205385000D01*
X269151400Y-206010000D02*
X224490700Y-206010000D01*
X269151400Y-205765200D02*
X269151400Y-206010000D01*
X269548300Y-205368300D02*
X269151400Y-205765200D01*
X270394200Y-205368300D02*
X269548300Y-205368300D01*
X270394200Y-205368300D02*
X271419200Y-205368300D01*
X271419200Y-205368300D02*
X274544200Y-205368300D01*
%TO.N,!INT*%
X302081000Y-145922500D02*
X303521600Y-145922500D01*
X227438800Y-117850000D02*
X235242500Y-117850000D01*
X226645000Y-118643800D02*
X227438800Y-117850000D01*
X226645000Y-121816300D02*
X226645000Y-118643800D01*
X225851300Y-122610000D02*
X226645000Y-121816300D01*
X222465000Y-122610000D02*
X225851300Y-122610000D01*
X219965000Y-125110000D02*
X222465000Y-122610000D01*
X235642500Y-122700000D02*
X259045000Y-122700000D01*
X235242500Y-122300000D02*
X235642500Y-122700000D01*
X265172500Y-111330000D02*
X259045000Y-111330000D01*
X269847500Y-119197500D02*
X302081000Y-119197500D01*
X266672500Y-116022500D02*
X269847500Y-119197500D01*
X266672500Y-112830000D02*
X266672500Y-116022500D01*
X265172500Y-111330000D02*
X266672500Y-112830000D01*
%TO.N,A2*%
X215985000Y-108790000D02*
X213152500Y-108790000D01*
X216139800Y-143464000D02*
X216139800Y-145877500D01*
X281747500Y-100540000D02*
X274887500Y-100540000D01*
X232642500Y-107690000D02*
X252425000Y-107690000D01*
X231542500Y-108790000D02*
X232642500Y-107690000D01*
X217085000Y-107690000D02*
X215985000Y-108790000D01*
X230442500Y-107690000D02*
X217085000Y-107690000D01*
X231542500Y-108790000D02*
X230442500Y-107690000D01*
X303112500Y-100766200D02*
X303112500Y-100440000D01*
X302318800Y-101560000D02*
X303112500Y-100766200D01*
X281747500Y-101560000D02*
X302318800Y-101560000D01*
X281747500Y-100540000D02*
X281747500Y-101560000D01*
X266278800Y-97190000D02*
X256515000Y-97190000D01*
X267072500Y-97983800D02*
X266278800Y-97190000D01*
X267072500Y-98385000D02*
X267072500Y-97983800D01*
X270247500Y-101560000D02*
X267072500Y-98385000D01*
X273867500Y-101560000D02*
X270247500Y-101560000D01*
X274887500Y-100540000D02*
X273867500Y-101560000D01*
X252685000Y-97190000D02*
X256515000Y-97190000D01*
X252425000Y-96930000D02*
X252685000Y-97190000D01*
%TO.N,Net-(J3-Pin_9)*%
X208304100Y-103194200D02*
X210387200Y-101111000D01*
X208304100Y-173985000D02*
X208304100Y-103194200D01*
X209891600Y-175572500D02*
X208304100Y-173985000D01*
X224272400Y-175572500D02*
X209891600Y-175572500D01*
X227422400Y-178722500D02*
X224272400Y-175572500D01*
%TO.N,Net-(J3-Pin_6)*%
X207904100Y-95974200D02*
X210387200Y-93491000D01*
X207904100Y-175185000D02*
X207904100Y-95974200D01*
X209491600Y-176772500D02*
X207904100Y-175185000D01*
X217852400Y-176772500D02*
X209491600Y-176772500D01*
X219802400Y-178722500D02*
X217852400Y-176772500D01*
%TO.N,RX1*%
X244659300Y-94990000D02*
X226692500Y-94990000D01*
X226745000Y-159410000D02*
X212182400Y-159410000D01*
%TO.N,TX1*%
X237832500Y-96090000D02*
X246782500Y-96090000D01*
X233852500Y-100070000D02*
X237832500Y-96090000D01*
X212331000Y-100070000D02*
X233852500Y-100070000D01*
X211537200Y-99276300D02*
X212331000Y-100070000D01*
X211537200Y-92737900D02*
X211537200Y-99276300D01*
X211140300Y-92341000D02*
X211537200Y-92737900D01*
X208975000Y-92341000D02*
X211140300Y-92341000D01*
X205800000Y-95516000D02*
X208975000Y-92341000D01*
X205800000Y-175547500D02*
X205800000Y-95516000D01*
X208975000Y-178722500D02*
X205800000Y-175547500D01*
X209642400Y-178722500D02*
X208975000Y-178722500D01*
%TO.N,Net-(U9-~{CS})*%
X271587500Y-103706300D02*
X271587500Y-103080000D01*
X272381300Y-104500000D02*
X271587500Y-103706300D01*
X304418800Y-104500000D02*
X272381300Y-104500000D01*
X305212500Y-105293800D02*
X304418800Y-104500000D01*
X305212500Y-128203400D02*
X305212500Y-105293800D01*
X305859200Y-128850000D02*
X305212500Y-128203400D01*
X306350000Y-128850000D02*
X305859200Y-128850000D01*
%TO.N,Net-(U7-~{CS})*%
X244285000Y-141220000D02*
X242485000Y-143020000D01*
X250765000Y-141220000D02*
X244285000Y-141220000D01*
X250965000Y-141420000D02*
X250765000Y-141220000D01*
X283051300Y-141420000D02*
X250965000Y-141420000D01*
X283845000Y-140626200D02*
X283051300Y-141420000D01*
X283845000Y-138751300D02*
X283845000Y-140626200D01*
X284638800Y-137957500D02*
X283845000Y-138751300D01*
X293072600Y-137957500D02*
X284638800Y-137957500D01*
X296247600Y-141132500D02*
X293072600Y-137957500D01*
X296247600Y-146148500D02*
X296247600Y-141132500D01*
X297835100Y-147736000D02*
X296247600Y-146148500D01*
X304356800Y-147736000D02*
X297835100Y-147736000D01*
X305150600Y-146942200D02*
X304356800Y-147736000D01*
X305150600Y-134758600D02*
X305150600Y-146942200D01*
X305859200Y-134050000D02*
X305150600Y-134758600D01*
X306350000Y-134050000D02*
X305859200Y-134050000D01*
X292952500Y-103306300D02*
X292952500Y-102980000D01*
X293746300Y-104100000D02*
X292952500Y-103306300D01*
X306263100Y-104100000D02*
X293746300Y-104100000D01*
X307850600Y-105687500D02*
X306263100Y-104100000D01*
X307850600Y-133653100D02*
X307850600Y-105687500D01*
X307453700Y-134050000D02*
X307850600Y-133653100D01*
X306350000Y-134050000D02*
X307453700Y-134050000D01*
%TO.N,!M1*%
X219980000Y-71530000D02*
X218555000Y-70105000D01*
X243025000Y-71530000D02*
X219980000Y-71530000D01*
X283355300Y-145922500D02*
X289438300Y-145922500D01*
X282338800Y-146939100D02*
X283355300Y-145922500D01*
X245508600Y-146939100D02*
X282338800Y-146939100D01*
X244714900Y-146145300D02*
X245508600Y-146939100D01*
X244714900Y-145064100D02*
X244714900Y-146145300D01*
X244514900Y-144864100D02*
X244714900Y-145064100D01*
X241789100Y-144864100D02*
X244514900Y-144864100D01*
X239945000Y-143020000D02*
X241789100Y-144864100D01*
%TO.N,IO3*%
X232721800Y-112170000D02*
X232642500Y-112249300D01*
X240625000Y-112170000D02*
X232721800Y-112170000D01*
%TO.N,IO2*%
X234865000Y-131307500D02*
X234865000Y-135400000D01*
X236452500Y-129720000D02*
X234865000Y-131307500D01*
X248682500Y-129720000D02*
X236452500Y-129720000D01*
%TO.N,A15*%
X255056600Y-134299100D02*
X255115000Y-134357500D01*
X243586000Y-134299100D02*
X255056600Y-134299100D01*
X242485000Y-135400000D02*
X243586000Y-134299100D01*
X254340300Y-145877500D02*
X255716300Y-145877500D01*
X284595000Y-78065000D02*
X284595000Y-70105000D01*
X281420000Y-81240000D02*
X284595000Y-78065000D01*
X269347500Y-81240000D02*
X281420000Y-81240000D01*
X267197500Y-83390000D02*
X269347500Y-81240000D01*
X265172500Y-83390000D02*
X267197500Y-83390000D01*
X289572500Y-124997500D02*
X291525000Y-126950000D01*
X255115000Y-124997500D02*
X289572500Y-124997500D01*
X293831000Y-126950000D02*
X304050000Y-126950000D01*
X243785000Y-136700000D02*
X245025000Y-136700000D01*
X242485000Y-135400000D02*
X243785000Y-136700000D01*
X262285000Y-81690000D02*
X255115000Y-81690000D01*
X263985000Y-83390000D02*
X262285000Y-81690000D01*
X265172500Y-83390000D02*
X263985000Y-83390000D01*
X233425000Y-130707500D02*
X233425000Y-132820000D01*
X235012500Y-129120000D02*
X233425000Y-130707500D01*
X254477500Y-129120000D02*
X235012500Y-129120000D01*
X255115000Y-129757500D02*
X254477500Y-129120000D01*
%TO.N,Net-(U11-D0)*%
X289047800Y-211851600D02*
X286980000Y-211851600D01*
X268326400Y-211851600D02*
X270394200Y-211851600D01*
X299415700Y-211851600D02*
X301483500Y-211851600D01*
X274544200Y-211851600D02*
X276612100Y-211851600D01*
X264176400Y-211851600D02*
X262108500Y-211851600D01*
X282830000Y-211851600D02*
X280762100Y-211851600D01*
X295265700Y-211851600D02*
X293197800Y-211851600D01*
X276612100Y-211851600D02*
X280762100Y-211851600D01*
X289047800Y-211851600D02*
X293197800Y-211851600D01*
X301483500Y-211851600D02*
X305633500Y-211851600D01*
X270394200Y-211851600D02*
X274544200Y-211851600D01*
X295265700Y-211851600D02*
X299415700Y-211851600D01*
X282830000Y-211851600D02*
X286980000Y-211851600D01*
X257958500Y-211851600D02*
X262108500Y-211851600D01*
X264176400Y-211851600D02*
X268326400Y-211851600D01*
X256805000Y-211226600D02*
X247805000Y-211226600D01*
X256805000Y-211454700D02*
X256805000Y-211226600D01*
X257201900Y-211851600D02*
X256805000Y-211454700D01*
X257958500Y-211851600D02*
X257201900Y-211851600D01*
%TO.N,BANK_0*%
X275191500Y-174550000D02*
X273430000Y-174550000D01*
X282692100Y-144864100D02*
X293655000Y-144864100D01*
X293655000Y-132150000D02*
X304050000Y-132150000D01*
%TO.N,Net-(D8-A)*%
X275191500Y-169590000D02*
X273430000Y-169590000D01*
%TO.N,Net-(D11-A)*%
X275191500Y-167110000D02*
X273430000Y-167110000D01*
%TO.N,Net-(D14-A)*%
X275191500Y-164630000D02*
X273430000Y-164630000D01*
%TO.N,Net-(D17-A)*%
X275191500Y-162150000D02*
X273430000Y-162150000D01*
%TO.N,Net-(D20-A)*%
X275191500Y-159670000D02*
X273430000Y-159670000D01*
%TO.N,Net-(D23-A)*%
X275191500Y-157190000D02*
X273430000Y-157190000D01*
%TO.N,IO4*%
X213445900Y-133830900D02*
X212345000Y-132730000D01*
X214540800Y-133830900D02*
X213445900Y-133830900D01*
X217715800Y-137005900D02*
X214540800Y-133830900D01*
X217715800Y-149522500D02*
X217715800Y-137005900D01*
X219303300Y-151110000D02*
X217715800Y-149522500D01*
X261100000Y-151110000D02*
X219303300Y-151110000D01*
X262100000Y-152110000D02*
X261100000Y-151110000D01*
X277940000Y-153530000D02*
X278990000Y-154580000D01*
X262100000Y-153530000D02*
X277940000Y-153530000D01*
%TO.N,D7*%
X278695100Y-145877500D02*
X280071100Y-145877500D01*
X271587500Y-105620000D02*
X274287500Y-105620000D01*
X274287500Y-123100000D02*
X267585000Y-123100000D01*
X285410000Y-155920000D02*
X280690000Y-155920000D01*
X286610000Y-157120000D02*
X285410000Y-155920000D01*
X261900000Y-156060000D02*
X268605000Y-156060000D01*
X260800000Y-157160000D02*
X261900000Y-156060000D01*
X269472500Y-105620000D02*
X271587500Y-105620000D01*
X267562500Y-103710000D02*
X269472500Y-105620000D01*
X265172500Y-103710000D02*
X267562500Y-103710000D01*
X295730000Y-155920000D02*
X296830000Y-157020000D01*
X287810000Y-155920000D02*
X295730000Y-155920000D01*
X286610000Y-157120000D02*
X287810000Y-155920000D01*
X252275000Y-156060000D02*
X251305000Y-155090000D01*
X259700000Y-156060000D02*
X252275000Y-156060000D01*
X260800000Y-157160000D02*
X259700000Y-156060000D01*
X305830000Y-155920000D02*
X306930000Y-157020000D01*
X297930000Y-155920000D02*
X305830000Y-155920000D01*
X296830000Y-157020000D02*
X297930000Y-155920000D01*
X254225000Y-103710000D02*
X253425000Y-102910000D01*
X265172500Y-103710000D02*
X254225000Y-103710000D01*
X275487500Y-121900000D02*
X290825000Y-121900000D01*
X274287500Y-123100000D02*
X275487500Y-121900000D01*
X229492500Y-89910000D02*
X228392500Y-91010000D01*
X245682500Y-89910000D02*
X229492500Y-89910000D01*
X246782500Y-91010000D02*
X245682500Y-89910000D01*
%TO.N,D6*%
X275650700Y-145877500D02*
X277026700Y-145877500D01*
X247882500Y-89570000D02*
X246782500Y-88470000D01*
X247882500Y-91710000D02*
X247882500Y-89570000D01*
X247482500Y-92110000D02*
X247882500Y-91710000D01*
X286610000Y-159660000D02*
X280290000Y-159660000D01*
X265838800Y-127197500D02*
X271745000Y-127197500D01*
X265045000Y-127991200D02*
X265838800Y-127197500D01*
X265045000Y-129097500D02*
X265045000Y-127991200D01*
X252175000Y-158500000D02*
X251305000Y-157630000D01*
X259600000Y-158500000D02*
X252175000Y-158500000D01*
X260800000Y-159700000D02*
X259600000Y-158500000D01*
X305830000Y-158460000D02*
X306930000Y-159560000D01*
X297930000Y-158460000D02*
X305830000Y-158460000D01*
X296830000Y-159560000D02*
X297930000Y-158460000D01*
X266290000Y-159710000D02*
X271005000Y-159710000D01*
X265080000Y-158500000D02*
X266290000Y-159710000D01*
X262000000Y-158500000D02*
X265080000Y-158500000D01*
X260800000Y-159700000D02*
X262000000Y-158500000D01*
X304915000Y-70690000D02*
X304915000Y-70105000D01*
X298565000Y-77040000D02*
X304915000Y-70690000D01*
X294252500Y-77040000D02*
X298565000Y-77040000D01*
X247882500Y-92510000D02*
X247482500Y-92110000D01*
X247882500Y-93402500D02*
X247882500Y-92510000D01*
X249470000Y-94990000D02*
X247882500Y-93402500D01*
X264072500Y-94990000D02*
X249470000Y-94990000D01*
X265172500Y-96090000D02*
X264072500Y-94990000D01*
X292952500Y-108386300D02*
X292952500Y-108060000D01*
X292158800Y-109180000D02*
X292952500Y-108386300D01*
X272381300Y-109180000D02*
X292158800Y-109180000D01*
X271587500Y-108386300D02*
X272381300Y-109180000D01*
X271587500Y-108160000D02*
X271587500Y-108386300D01*
X227292500Y-89570000D02*
X228392500Y-88470000D01*
X227292500Y-91713100D02*
X227292500Y-89570000D01*
X227689400Y-92110000D02*
X227292500Y-91713100D01*
X247482500Y-92110000D02*
X227689400Y-92110000D01*
X295730000Y-158460000D02*
X296830000Y-159560000D01*
X287810000Y-158460000D02*
X295730000Y-158460000D01*
X286610000Y-159660000D02*
X287810000Y-158460000D01*
%TO.N,D4*%
X258452500Y-88470000D02*
X260265000Y-88470000D01*
X254812500Y-84830000D02*
X258452500Y-88470000D01*
X248222500Y-84830000D02*
X254812500Y-84830000D01*
X246782500Y-83390000D02*
X248222500Y-84830000D01*
X260265000Y-88470000D02*
X265172500Y-88470000D01*
X270938000Y-145651500D02*
X270938000Y-145877500D01*
X269350500Y-144064000D02*
X270938000Y-145651500D01*
X267717700Y-144064000D02*
X269350500Y-144064000D01*
X267717700Y-144064000D02*
X260985000Y-144064000D01*
X261065000Y-110230000D02*
X260265000Y-109430000D01*
X266272500Y-110230000D02*
X261065000Y-110230000D01*
X285510000Y-163640000D02*
X279909300Y-163640000D01*
X286610000Y-164740000D02*
X285510000Y-163640000D01*
X269565000Y-166230000D02*
X271005000Y-164790000D01*
X262100000Y-166230000D02*
X269565000Y-166230000D01*
X261900000Y-166030000D02*
X262100000Y-166230000D01*
X261900000Y-165880000D02*
X261900000Y-166030000D01*
X260800000Y-164780000D02*
X261900000Y-165880000D01*
X295730000Y-163540000D02*
X296830000Y-164640000D01*
X287760000Y-163540000D02*
X295730000Y-163540000D01*
X287660000Y-163640000D02*
X287760000Y-163540000D01*
X287410000Y-163640000D02*
X287660000Y-163640000D01*
X286610000Y-164440000D02*
X287410000Y-163640000D01*
X286610000Y-164740000D02*
X286610000Y-164440000D01*
X305830000Y-163540000D02*
X306930000Y-164640000D01*
X297930000Y-163540000D02*
X305830000Y-163540000D01*
X296830000Y-164640000D02*
X297930000Y-163540000D01*
X252275000Y-163680000D02*
X251305000Y-162710000D01*
X259700000Y-163680000D02*
X252275000Y-163680000D01*
X260800000Y-164780000D02*
X259700000Y-163680000D01*
X229492500Y-82290000D02*
X228392500Y-83390000D01*
X238492500Y-82290000D02*
X229492500Y-82290000D01*
X239592500Y-83390000D02*
X238492500Y-82290000D01*
X246782500Y-83390000D02*
X239592500Y-83390000D01*
X292952500Y-112220000D02*
X292952500Y-113140000D01*
X272381300Y-112220000D02*
X292952500Y-112220000D01*
X271587500Y-113013800D02*
X272381300Y-112220000D01*
X271587500Y-113240000D02*
X271587500Y-113013800D01*
%TO.N,D3*%
X266517700Y-145877500D02*
X267893700Y-145877500D01*
X285410000Y-166080000D02*
X277618500Y-166080000D01*
X286610000Y-167280000D02*
X285410000Y-166080000D01*
X266517700Y-163690000D02*
X262100000Y-163690000D01*
X298830000Y-71640000D02*
X297295000Y-70105000D01*
X300435000Y-71640000D02*
X298830000Y-71640000D01*
X257425000Y-128591300D02*
X257425000Y-129097500D01*
X258218800Y-127797500D02*
X257425000Y-128591300D01*
X263725000Y-127797500D02*
X258218800Y-127797500D01*
X265172500Y-91010000D02*
X257455000Y-91010000D01*
X248222500Y-82290000D02*
X257455000Y-82290000D01*
X246782500Y-80850000D02*
X248222500Y-82290000D01*
X271708100Y-163690000D02*
X266517700Y-163690000D01*
X272105000Y-164086900D02*
X271708100Y-163690000D01*
X272105000Y-166230000D02*
X272105000Y-164086900D01*
X271005000Y-167330000D02*
X272105000Y-166230000D01*
X295730000Y-166080000D02*
X296830000Y-167180000D01*
X287810000Y-166080000D02*
X295730000Y-166080000D01*
X286610000Y-167280000D02*
X287810000Y-166080000D01*
X305830000Y-166080000D02*
X306930000Y-167180000D01*
X297930000Y-166080000D02*
X305830000Y-166080000D01*
X296830000Y-167180000D02*
X297930000Y-166080000D01*
X252275000Y-166220000D02*
X251305000Y-165250000D01*
X259700000Y-166220000D02*
X252275000Y-166220000D01*
X260800000Y-167320000D02*
X259700000Y-166220000D01*
X229492500Y-79750000D02*
X228392500Y-80850000D01*
X245682500Y-79750000D02*
X229492500Y-79750000D01*
X246782500Y-80850000D02*
X245682500Y-79750000D01*
X292952500Y-116056300D02*
X292952500Y-115680000D01*
X292158800Y-116850000D02*
X292952500Y-116056300D01*
X272381300Y-116850000D02*
X292158800Y-116850000D01*
X271587500Y-116056300D02*
X272381300Y-116850000D01*
X271587500Y-115780000D02*
X271587500Y-116056300D01*
%TO.N,D2*%
X258445000Y-143464000D02*
X263181000Y-143464000D01*
X263181000Y-145877500D02*
X264849300Y-145877500D01*
X258445000Y-101170000D02*
X265172500Y-101170000D01*
X252160000Y-168645000D02*
X251305000Y-167790000D01*
X257984600Y-168645000D02*
X252160000Y-168645000D01*
D36*
X257984600Y-168645000D02*
X257984599Y-168645000D01*
X257984599Y-168645000D01*
X257984599Y-168645000D01*
X257984599Y-168645000D01*
X257984599Y-168645000D01*
X257984599Y-168645000D01*
X257984599Y-168645000D01*
X257984599Y-168644999D01*
X257984599Y-168644999D01*
X257984599Y-168644999D01*
X257984599Y-168644999D01*
X257984599Y-168644999D01*
X257984600Y-168644999D01*
X257984600Y-168644999D01*
X257984600Y-168644999D01*
X257984600Y-168644999D01*
X257984600Y-168644999D01*
X257984600Y-168644999D01*
X257984600Y-168644999D01*
X257984600Y-168644999D01*
X257984600Y-168644999D01*
X257984600Y-168644999D01*
X257984600Y-168644999D01*
X257984600Y-168644999D01*
X257984601Y-168644999D01*
X257984601Y-168644999D01*
X257984601Y-168644999D01*
X257984601Y-168644999D01*
X257984601Y-168644999D01*
X257984601Y-168644999D01*
X257984601Y-168645000D01*
X257984601Y-168645000D01*
X257984601Y-168645000D01*
X257984601Y-168645000D01*
X257984601Y-168645000D01*
X257984601Y-168645000D01*
X257984601Y-168645000D01*
X257984600Y-168645000D01*
X257984600Y-168645000D02*
X257984601Y-168645000D01*
X257984601Y-168645000D01*
X257984601Y-168645000D01*
X257984601Y-168645000D01*
X257984601Y-168645000D01*
X257984601Y-168645000D01*
X257984601Y-168645001D01*
X257984601Y-168645001D01*
X257984601Y-168645001D01*
X257984601Y-168645001D01*
X257984601Y-168645001D01*
X257984601Y-168645001D01*
X257984601Y-168645001D01*
X257984600Y-168645001D01*
X257984600Y-168645001D01*
X257984600Y-168645001D01*
X257984600Y-168645001D01*
X257984600Y-168645001D01*
X257984600Y-168645001D01*
X257984600Y-168645001D01*
X257984600Y-168645001D01*
X257984600Y-168645001D01*
X257984600Y-168645001D01*
X257984600Y-168645001D01*
X257984600Y-168645001D01*
X257984599Y-168645001D01*
X257984599Y-168645001D01*
X257984599Y-168645001D01*
X257984599Y-168645001D01*
X257984599Y-168645001D01*
X257984599Y-168645001D01*
X257984599Y-168645000D01*
X257984599Y-168645000D01*
X257984599Y-168645000D01*
X257984599Y-168645000D01*
X257984599Y-168645000D01*
X257984599Y-168645000D01*
X257984600Y-168645000D01*
D35*
X285410000Y-168620000D02*
X279909300Y-168620000D01*
X286610000Y-169820000D02*
X285410000Y-168620000D01*
X259585000Y-168645000D02*
X257984600Y-168645000D01*
X260800000Y-169860000D02*
X259585000Y-168645000D01*
X295730000Y-168620000D02*
X296830000Y-169720000D01*
X287810000Y-168620000D02*
X295730000Y-168620000D01*
X286610000Y-169820000D02*
X287810000Y-168620000D01*
X298090000Y-73440000D02*
X294755000Y-70105000D01*
X301035000Y-73440000D02*
X298090000Y-73440000D01*
X305830000Y-168620000D02*
X306930000Y-169720000D01*
X297930000Y-168620000D02*
X305830000Y-168620000D01*
X296830000Y-169720000D02*
X297930000Y-168620000D01*
X247976300Y-79550000D02*
X257645000Y-79550000D01*
X247182500Y-78756200D02*
X247976300Y-79550000D01*
X247182500Y-78710000D02*
X247182500Y-78756200D01*
X246782500Y-78310000D02*
X247182500Y-78710000D01*
X229492500Y-77210000D02*
X228392500Y-78310000D01*
X245682500Y-77210000D02*
X229492500Y-77210000D01*
X246782500Y-78310000D02*
X245682500Y-77210000D01*
X269780000Y-168645000D02*
X271005000Y-169870000D01*
X262015000Y-168645000D02*
X269780000Y-168645000D01*
X260800000Y-169860000D02*
X262015000Y-168645000D01*
X281747500Y-114260000D02*
X281747500Y-113240000D01*
X302318800Y-114260000D02*
X281747500Y-114260000D01*
X303112500Y-113466200D02*
X302318800Y-114260000D01*
X303112500Y-113140000D02*
X303112500Y-113466200D01*
X281347500Y-114660000D02*
X281747500Y-114260000D01*
X270247500Y-114660000D02*
X281347500Y-114660000D01*
X267072500Y-111485000D02*
X270247500Y-114660000D01*
X267072500Y-109077500D02*
X267072500Y-111485000D01*
X265485000Y-107490000D02*
X267072500Y-109077500D01*
X259045000Y-107490000D02*
X265485000Y-107490000D01*
X258445000Y-106890000D02*
X259045000Y-107490000D01*
%TO.N,D1*%
X260429000Y-145877500D02*
X261805000Y-145877500D01*
X265172500Y-108790000D02*
X260985000Y-108790000D01*
X303112500Y-110373800D02*
X303112500Y-110600000D01*
X302318800Y-109580000D02*
X303112500Y-110373800D01*
X296452500Y-109580000D02*
X302318800Y-109580000D01*
X285410000Y-171160000D02*
X279909300Y-171160000D01*
X286610000Y-172360000D02*
X285410000Y-171160000D01*
X252275000Y-171300000D02*
X251305000Y-170330000D01*
X259700000Y-171300000D02*
X252275000Y-171300000D01*
X269895000Y-171300000D02*
X259700000Y-171300000D01*
X271005000Y-172410000D02*
X269895000Y-171300000D01*
X295730000Y-171160000D02*
X296830000Y-172260000D01*
X287810000Y-171160000D02*
X295730000Y-171160000D01*
X286610000Y-172360000D02*
X287810000Y-171160000D01*
X305830000Y-171160000D02*
X306930000Y-172260000D01*
X297930000Y-171160000D02*
X305830000Y-171160000D01*
X296830000Y-172260000D02*
X297930000Y-171160000D01*
X281747500Y-109590000D02*
X281747500Y-110700000D01*
X247883500Y-74669100D02*
X246782500Y-75770000D01*
X247883500Y-68948800D02*
X247883500Y-74669100D01*
X248677200Y-68155000D02*
X247883500Y-68948800D01*
X290265000Y-68155000D02*
X248677200Y-68155000D01*
X292215000Y-70105000D02*
X290265000Y-68155000D01*
X229492500Y-74670000D02*
X228392500Y-75770000D01*
X245682500Y-74670000D02*
X229492500Y-74670000D01*
X246782500Y-75770000D02*
X245682500Y-74670000D01*
X267672500Y-109590000D02*
X281747500Y-109590000D01*
X281757500Y-109580000D02*
X281747500Y-109590000D01*
X296452500Y-109580000D02*
X281757500Y-109580000D01*
%TO.N,D0*%
X257384600Y-145877500D02*
X258760600Y-145877500D01*
X259585000Y-173725000D02*
X257755000Y-173725000D01*
X260800000Y-174940000D02*
X259585000Y-173725000D01*
X285510000Y-173800000D02*
X277618500Y-173800000D01*
X286610000Y-174900000D02*
X285510000Y-173800000D01*
X252160000Y-173725000D02*
X251305000Y-172870000D01*
X257755000Y-173725000D02*
X252160000Y-173725000D01*
D36*
X257755000Y-173725000D02*
X257754999Y-173725000D01*
X257754999Y-173725000D01*
X257754999Y-173725000D01*
X257754999Y-173725000D01*
X257754999Y-173725000D01*
X257754999Y-173725000D01*
X257754999Y-173725000D01*
X257754999Y-173724999D01*
X257754999Y-173724999D01*
X257754999Y-173724999D01*
X257754999Y-173724999D01*
X257754999Y-173724999D01*
X257755000Y-173724999D01*
X257755000Y-173724999D01*
X257755000Y-173724999D01*
X257755000Y-173724999D01*
X257755000Y-173724999D01*
X257755000Y-173724999D01*
X257755000Y-173724999D01*
X257755000Y-173724999D01*
X257755000Y-173724999D01*
X257755000Y-173724999D01*
X257755000Y-173724999D01*
X257755000Y-173724999D01*
X257755001Y-173724999D01*
X257755001Y-173724999D01*
X257755001Y-173724999D01*
X257755001Y-173724999D01*
X257755001Y-173724999D01*
X257755001Y-173724999D01*
X257755001Y-173725000D01*
X257755001Y-173725000D01*
X257755001Y-173725000D01*
X257755001Y-173725000D01*
X257755001Y-173725000D01*
X257755001Y-173725000D01*
X257755001Y-173725000D01*
X257755000Y-173725000D01*
X257755000Y-173725000D02*
X257755001Y-173725000D01*
X257755001Y-173725000D01*
X257755001Y-173725000D01*
X257755001Y-173725000D01*
X257755001Y-173725000D01*
X257755001Y-173725000D01*
X257755001Y-173725001D01*
X257755001Y-173725001D01*
X257755001Y-173725001D01*
X257755001Y-173725001D01*
X257755001Y-173725001D01*
X257755001Y-173725001D01*
X257755001Y-173725001D01*
X257755000Y-173725001D01*
X257755000Y-173725001D01*
X257755000Y-173725001D01*
X257755000Y-173725001D01*
X257755000Y-173725001D01*
X257755000Y-173725001D01*
X257755000Y-173725001D01*
X257755000Y-173725001D01*
X257755000Y-173725001D01*
X257755000Y-173725001D01*
X257755000Y-173725001D01*
X257755000Y-173725001D01*
X257754999Y-173725001D01*
X257754999Y-173725001D01*
X257754999Y-173725001D01*
X257754999Y-173725001D01*
X257754999Y-173725001D01*
X257754999Y-173725001D01*
X257754999Y-173725000D01*
X257754999Y-173725000D01*
X257754999Y-173725000D01*
X257754999Y-173725000D01*
X257754999Y-173725000D01*
X257754999Y-173725000D01*
X257755000Y-173725000D01*
D35*
X248483500Y-72923800D02*
X248483500Y-73230000D01*
X249277200Y-72130000D02*
X248483500Y-72923800D01*
X259551300Y-72130000D02*
X249277200Y-72130000D01*
X260345000Y-71336300D02*
X259551300Y-72130000D01*
X260345000Y-69348800D02*
X260345000Y-71336300D01*
X261138800Y-68555000D02*
X260345000Y-69348800D01*
X288125000Y-68555000D02*
X261138800Y-68555000D01*
X289675000Y-70105000D02*
X288125000Y-68555000D01*
X265172500Y-106250000D02*
X256115000Y-106250000D01*
X289195000Y-108160000D02*
X289675000Y-107680000D01*
X281747500Y-108160000D02*
X289195000Y-108160000D01*
X265045000Y-139826200D02*
X265045000Y-139257500D01*
X264251300Y-140620000D02*
X265045000Y-139826200D01*
X256908800Y-140620000D02*
X264251300Y-140620000D01*
X256115000Y-139826200D02*
X256908800Y-140620000D01*
X256115000Y-139620000D02*
X256115000Y-139826200D01*
X295730000Y-173700000D02*
X296830000Y-174800000D01*
X287810000Y-173700000D02*
X295730000Y-173700000D01*
X286610000Y-174900000D02*
X287810000Y-173700000D01*
X305830000Y-173700000D02*
X306930000Y-174800000D01*
X297930000Y-173700000D02*
X305830000Y-173700000D01*
X296830000Y-174800000D02*
X297930000Y-173700000D01*
X269895000Y-173840000D02*
X271005000Y-174950000D01*
X261900000Y-173840000D02*
X269895000Y-173840000D01*
X260800000Y-174940000D02*
X261900000Y-173840000D01*
X303112500Y-107833800D02*
X303112500Y-108060000D01*
X302318800Y-107040000D02*
X303112500Y-107833800D01*
X290315000Y-107040000D02*
X302318800Y-107040000D01*
X289675000Y-107680000D02*
X290315000Y-107040000D01*
X228392500Y-72923800D02*
X228392500Y-73230000D01*
X229186300Y-72130000D02*
X228392500Y-72923800D01*
X245988800Y-72130000D02*
X229186300Y-72130000D01*
X246782500Y-72923800D02*
X245988800Y-72130000D01*
X246782500Y-73230000D02*
X246782500Y-72923800D01*
X274997500Y-108160000D02*
X281747500Y-108160000D01*
X273977500Y-107140000D02*
X274997500Y-108160000D01*
X267917500Y-107140000D02*
X273977500Y-107140000D01*
X267027500Y-106250000D02*
X267917500Y-107140000D01*
X265172500Y-106250000D02*
X267027500Y-106250000D01*
%TO.N,A11*%
X242162900Y-145877500D02*
X243538900Y-145877500D01*
X272847500Y-73230000D02*
X270755000Y-73230000D01*
X274435000Y-71642500D02*
X272847500Y-73230000D01*
X274435000Y-70105000D02*
X274435000Y-71642500D01*
X280065000Y-91900000D02*
X279265000Y-91100000D01*
X290625000Y-91900000D02*
X280065000Y-91900000D01*
X291425000Y-92700000D02*
X290625000Y-91900000D01*
X276945000Y-125597500D02*
X277745000Y-126397500D01*
X248825000Y-125597500D02*
X276945000Y-125597500D01*
X248025000Y-126397500D02*
X248825000Y-125597500D01*
X244782500Y-126397500D02*
X248025000Y-126397500D01*
X243585000Y-125200000D02*
X244782500Y-126397500D01*
%TO.N,Net-(U5-Q1)*%
X246637100Y-201043300D02*
X245612100Y-201043300D01*
X246637100Y-209726600D02*
X245612100Y-209726600D01*
X246637100Y-205385000D02*
X245612100Y-205385000D01*
X296290700Y-209701600D02*
X295265700Y-209701600D01*
X296290700Y-196701600D02*
X295265700Y-196701600D01*
X296290700Y-205368300D02*
X295265700Y-205368300D01*
X246637100Y-196701600D02*
X245612100Y-196701600D01*
X295265700Y-201035000D02*
X295265700Y-199793300D01*
X296290700Y-209701600D02*
X299415700Y-209701600D01*
X296290700Y-205368300D02*
X299415700Y-205368300D01*
X246637100Y-209726600D02*
X249762100Y-209726600D01*
X296290700Y-196701600D02*
X299415700Y-196701600D01*
X246637100Y-205385000D02*
X249762100Y-205385000D01*
X246637100Y-201043300D02*
X249762100Y-201043300D01*
X246637100Y-196701600D02*
X249762100Y-196701600D01*
X295265700Y-201035000D02*
X299415700Y-201035000D01*
X256805000Y-198201600D02*
X246637100Y-198201600D01*
X256805000Y-199096400D02*
X256805000Y-198201600D01*
X257201900Y-199493300D02*
X256805000Y-199096400D01*
X260783500Y-199493300D02*
X257201900Y-199493300D01*
X261083600Y-199793300D02*
X260783500Y-199493300D01*
X295265700Y-199793300D02*
X261083600Y-199793300D01*
%TO.N,Net-(U11-D2)*%
X256805000Y-202343300D02*
X252187100Y-202343300D01*
X256805000Y-202372900D02*
X256805000Y-202343300D01*
X257617100Y-203185000D02*
X256805000Y-202372900D01*
X257958500Y-203185000D02*
X257617100Y-203185000D01*
X289047800Y-203185000D02*
X286980000Y-203185000D01*
X268326400Y-203185000D02*
X270394200Y-203185000D01*
X301483500Y-203185000D02*
X299415700Y-203185000D01*
X276612100Y-203185000D02*
X274544200Y-203185000D01*
X293197800Y-203185000D02*
X295265700Y-203185000D01*
X282830000Y-203185000D02*
X280762100Y-203185000D01*
X257958500Y-203185000D02*
X262108500Y-203185000D01*
X276612100Y-203185000D02*
X280762100Y-203185000D01*
X282830000Y-203185000D02*
X286980000Y-203185000D01*
X295265700Y-203185000D02*
X299415700Y-203185000D01*
X289047800Y-203185000D02*
X293197800Y-203185000D01*
X264176400Y-203185000D02*
X268326400Y-203185000D01*
X270394200Y-203185000D02*
X274544200Y-203185000D01*
X301483500Y-203185000D02*
X305633500Y-203185000D01*
X264176400Y-203185000D02*
X262108500Y-203185000D01*
%TO.N,D5*%
X229832500Y-87370000D02*
X228392500Y-85930000D01*
X245342500Y-87370000D02*
X229832500Y-87370000D01*
X246782500Y-85930000D02*
X245342500Y-87370000D01*
X273982400Y-145877500D02*
X273982400Y-144664000D01*
X262505000Y-118650000D02*
X257845000Y-118650000D01*
X273982400Y-145877500D02*
X272606400Y-145877500D01*
X295730000Y-161000000D02*
X296830000Y-162100000D01*
X287810000Y-161000000D02*
X295730000Y-161000000D01*
X286610000Y-162200000D02*
X287810000Y-161000000D01*
X285410000Y-161000000D02*
X277599400Y-161000000D01*
X286610000Y-162200000D02*
X285410000Y-161000000D01*
X265172500Y-93550000D02*
X257045000Y-93550000D01*
X269805000Y-161050000D02*
X271005000Y-162250000D01*
X261990000Y-161050000D02*
X269805000Y-161050000D01*
X260800000Y-162240000D02*
X261990000Y-161050000D01*
X252185000Y-161050000D02*
X251305000Y-160170000D01*
X259610000Y-161050000D02*
X252185000Y-161050000D01*
X260800000Y-162240000D02*
X259610000Y-161050000D01*
X305830000Y-161000000D02*
X306930000Y-162100000D01*
X297930000Y-161000000D02*
X305830000Y-161000000D01*
X296830000Y-162100000D02*
X297930000Y-161000000D01*
X252782500Y-93550000D02*
X257045000Y-93550000D01*
X251682500Y-92450000D02*
X252782500Y-93550000D01*
X249076300Y-92450000D02*
X251682500Y-92450000D01*
X248282500Y-91656300D02*
X249076300Y-92450000D01*
X248282500Y-87430000D02*
X248282500Y-91656300D01*
X246782500Y-85930000D02*
X248282500Y-87430000D01*
X292952500Y-111026300D02*
X292952500Y-110600000D01*
X292158800Y-111820000D02*
X292952500Y-111026300D01*
X272381300Y-111820000D02*
X292158800Y-111820000D01*
X271587500Y-111026300D02*
X272381300Y-111820000D01*
X271587500Y-110700000D02*
X271587500Y-111026300D01*
D36*
X272105000Y-156014100D02*
X272104999Y-156014100D01*
X272104999Y-156014100D01*
X272104999Y-156014100D01*
X272104999Y-156014100D01*
X272104999Y-156014100D01*
X272104999Y-156014100D01*
X272104999Y-156014100D01*
X272104999Y-156014099D01*
X272104999Y-156014099D01*
X272104999Y-156014099D01*
X272104999Y-156014099D01*
X272104999Y-156014099D01*
X272105000Y-156014099D01*
X272105000Y-156014099D01*
X272105000Y-156014099D01*
X272105000Y-156014099D01*
X272105000Y-156014099D01*
X272105000Y-156014099D01*
X272105000Y-156014099D01*
X272105000Y-156014099D01*
X272105000Y-156014099D01*
X272105000Y-156014099D01*
X272105000Y-156014099D01*
X272105000Y-156014099D01*
X272105001Y-156014099D01*
X272105001Y-156014099D01*
X272105001Y-156014099D01*
X272105001Y-156014099D01*
X272105001Y-156014099D01*
X272105001Y-156014099D01*
X272105001Y-156014100D01*
X272105001Y-156014100D01*
X272105001Y-156014100D01*
X272105001Y-156014100D01*
X272105001Y-156014100D01*
X272105001Y-156014100D01*
X272105001Y-156014100D01*
X272105000Y-156014100D01*
X272105000Y-156014100D02*
X272105001Y-156014100D01*
X272105001Y-156014100D01*
X272105001Y-156014100D01*
X272105001Y-156014100D01*
X272105001Y-156014100D01*
X272105001Y-156014100D01*
X272105001Y-156014101D01*
X272105001Y-156014101D01*
X272105001Y-156014101D01*
X272105001Y-156014101D01*
X272105001Y-156014101D01*
X272105001Y-156014101D01*
X272105001Y-156014101D01*
X272105000Y-156014101D01*
X272105000Y-156014101D01*
X272105000Y-156014101D01*
X272105000Y-156014101D01*
X272105000Y-156014101D01*
X272105000Y-156014101D01*
X272105000Y-156014101D01*
X272105000Y-156014101D01*
X272105000Y-156014101D01*
X272105000Y-156014101D01*
X272105000Y-156014101D01*
X272105000Y-156014101D01*
X272104999Y-156014101D01*
X272104999Y-156014101D01*
X272104999Y-156014101D01*
X272104999Y-156014101D01*
X272104999Y-156014101D01*
X272104999Y-156014101D01*
X272104999Y-156014100D01*
X272104999Y-156014100D01*
X272104999Y-156014100D01*
X272104999Y-156014100D01*
X272104999Y-156014100D01*
X272104999Y-156014100D01*
X272105000Y-156014100D01*
D35*
X272105000Y-160256200D02*
X272105000Y-156014100D01*
X271311300Y-161050000D02*
X272105000Y-160256200D01*
X271205000Y-161050000D02*
X271311300Y-161050000D01*
X271005000Y-161250000D02*
X271205000Y-161050000D01*
X271005000Y-162250000D02*
X271005000Y-161250000D01*
%TO.N,Net-(U11-D5)*%
X251830000Y-207510000D02*
X255980000Y-207510000D01*
X249762100Y-207535000D02*
X250787100Y-207535000D01*
X224890700Y-207535000D02*
X226958500Y-207535000D01*
X212455000Y-207535000D02*
X214522800Y-207535000D01*
X239394200Y-207535000D02*
X237326400Y-207535000D01*
X243544200Y-207535000D02*
X245612100Y-207535000D01*
X233176400Y-207535000D02*
X231108500Y-207535000D01*
X220740700Y-207535000D02*
X218672800Y-207535000D01*
X250812100Y-207510000D02*
X250787100Y-207535000D01*
X251830000Y-207510000D02*
X250812100Y-207510000D01*
X226958500Y-207535000D02*
X231108500Y-207535000D01*
X212455000Y-207535000D02*
X208305000Y-207535000D01*
X233176400Y-207535000D02*
X237326400Y-207535000D01*
X220740700Y-207535000D02*
X224890700Y-207535000D01*
X214522800Y-207535000D02*
X218672800Y-207535000D01*
X245612100Y-207535000D02*
X249762100Y-207535000D01*
X239394200Y-207535000D02*
X243544200Y-207535000D01*
%TO.N,Net-(U5-Q2)*%
X241219200Y-205385000D02*
X243544200Y-205385000D01*
X289047800Y-196701600D02*
X290872800Y-196701600D01*
X241219200Y-205385000D02*
X239394200Y-205385000D01*
X290672800Y-205368300D02*
X289047800Y-205368300D01*
X241219200Y-209726600D02*
X239394200Y-209726600D01*
X290872800Y-209701600D02*
X289047800Y-209701600D01*
X241319200Y-196701600D02*
X239394200Y-196701600D01*
X241319200Y-201043300D02*
X239394200Y-201043300D01*
X243544200Y-196701600D02*
X241319200Y-196701600D01*
X241319200Y-201043300D02*
X243544200Y-201043300D01*
X290872800Y-209701600D02*
X293197800Y-209701600D01*
X290872800Y-196701600D02*
X293197800Y-196701600D01*
X241219200Y-209726600D02*
X243544200Y-209726600D01*
X290672800Y-205368300D02*
X293197800Y-205368300D01*
X290872800Y-201035000D02*
X293197800Y-201035000D01*
X287011300Y-194851600D02*
X258725000Y-194851600D01*
X287805000Y-195645400D02*
X287011300Y-194851600D01*
X287805000Y-195800200D02*
X287805000Y-195645400D01*
X288706400Y-196701600D02*
X287805000Y-195800200D01*
X289047800Y-196701600D02*
X288706400Y-196701600D01*
X245398800Y-194851600D02*
X258725000Y-194851600D01*
X244605000Y-195645400D02*
X245398800Y-194851600D01*
X244605000Y-195982200D02*
X244605000Y-195645400D01*
X243885600Y-196701600D02*
X244605000Y-195982200D01*
X243544200Y-196701600D02*
X243885600Y-196701600D01*
X290872800Y-201035000D02*
X289047800Y-201035000D01*
%TO.N,Net-(U11-D4)*%
X243544200Y-211876600D02*
X241719200Y-211876600D01*
X239394200Y-211876600D02*
X237326400Y-211876600D01*
X212455000Y-211876600D02*
X214522800Y-211876600D01*
X226958500Y-211876600D02*
X224890700Y-211876600D01*
X231108500Y-211876600D02*
X233176400Y-211876600D01*
X243544200Y-211876600D02*
X245612100Y-211876600D01*
X218672800Y-211876600D02*
X220740700Y-211876600D01*
X249820700Y-211876600D02*
X249762100Y-211876600D01*
X249845700Y-211851600D02*
X249820700Y-211876600D01*
X251830000Y-211851600D02*
X249845700Y-211851600D01*
X239394200Y-211876600D02*
X241719200Y-211876600D01*
X220740700Y-211876600D02*
X224890700Y-211876600D01*
X214522800Y-211876600D02*
X218672800Y-211876600D01*
X226958500Y-211876600D02*
X231108500Y-211876600D01*
X233176400Y-211876600D02*
X237326400Y-211876600D01*
X251830000Y-211851600D02*
X255980000Y-211851600D01*
X212455000Y-211876600D02*
X208305000Y-211876600D01*
X245612100Y-211876600D02*
X249762100Y-211876600D01*
X254580000Y-176980000D02*
X256880000Y-176980000D01*
X253980000Y-176380000D02*
X254580000Y-176980000D01*
X243505000Y-176380000D02*
X253980000Y-176380000D01*
X255760000Y-167320000D02*
X253180000Y-167320000D01*
X256080000Y-167000000D02*
X255760000Y-167320000D01*
%TO.N,Net-(U11-D6)*%
X254955000Y-203168300D02*
X255980000Y-203168300D01*
X224890700Y-203193300D02*
X226958500Y-203193300D01*
X239394200Y-203193300D02*
X237326400Y-203193300D01*
X212455000Y-203193300D02*
X214522800Y-203193300D01*
X220740700Y-203193300D02*
X218672800Y-203193300D01*
X233176400Y-203193300D02*
X231108500Y-203193300D01*
X245612100Y-203193300D02*
X243544200Y-203193300D01*
X249845700Y-203168300D02*
X251830000Y-203168300D01*
X249820700Y-203193300D02*
X249845700Y-203168300D01*
X249762100Y-203193300D02*
X249820700Y-203193300D01*
X251830000Y-203168300D02*
X254955000Y-203168300D01*
X239394200Y-203193300D02*
X243544200Y-203193300D01*
X226958500Y-203193300D02*
X231108500Y-203193300D01*
X220740700Y-203193300D02*
X224890700Y-203193300D01*
X214522800Y-203193300D02*
X218672800Y-203193300D01*
X212455000Y-203193300D02*
X208305000Y-203193300D01*
X245612100Y-203193300D02*
X249762100Y-203193300D01*
X233176400Y-203193300D02*
X237326400Y-203193300D01*
%TO.N,!HALT*%
X271745000Y-117450000D02*
X304612500Y-117450000D01*
X307714300Y-145922500D02*
X306338300Y-145922500D01*
X264072500Y-115310000D02*
X234945000Y-115310000D01*
X265172500Y-116410000D02*
X264072500Y-115310000D01*
%TO.N,!MREQ*%
X292255000Y-147136000D02*
X292255000Y-145922500D01*
X302549400Y-127900000D02*
X304050000Y-127900000D01*
X302149400Y-128300000D02*
X302549400Y-127900000D01*
X274901500Y-172070000D02*
X273430000Y-172070000D01*
X275191500Y-172360000D02*
X274901500Y-172070000D01*
X307053700Y-133100000D02*
X304050000Y-133100000D01*
X307450600Y-132703100D02*
X307053700Y-133100000D01*
X307450600Y-131736900D02*
X307450600Y-132703100D01*
X305863100Y-130149400D02*
X307450600Y-131736900D01*
X302943200Y-130149400D02*
X305863100Y-130149400D01*
X302149400Y-129355700D02*
X302943200Y-130149400D01*
X302149400Y-128300000D02*
X302149400Y-129355700D01*
X301749400Y-127900000D02*
X302149400Y-128300000D01*
X292255000Y-127900000D02*
X301749400Y-127900000D01*
X284509600Y-150046900D02*
X281292100Y-150046900D01*
X287420400Y-147136000D02*
X284509600Y-150046900D01*
X292255000Y-147136000D02*
X287420400Y-147136000D01*
X237845000Y-137500000D02*
X221895000Y-137500000D01*
X239945000Y-135400000D02*
X237845000Y-137500000D01*
X292255000Y-121577500D02*
X292255000Y-127900000D01*
X290667500Y-119990000D02*
X292255000Y-121577500D01*
X266212500Y-119990000D02*
X290667500Y-119990000D01*
X265172500Y-118950000D02*
X266212500Y-119990000D01*
X270125000Y-129332500D02*
X270125000Y-129097500D01*
X268537500Y-130920000D02*
X270125000Y-129332500D01*
X238652500Y-130920000D02*
X268537500Y-130920000D01*
X237065000Y-132507500D02*
X238652500Y-130920000D01*
X237065000Y-133506300D02*
X237065000Y-132507500D01*
X237858800Y-134300000D02*
X237065000Y-133506300D01*
X238845000Y-134300000D02*
X237858800Y-134300000D01*
X239945000Y-135400000D02*
X238845000Y-134300000D01*
%TO.N,Net-(U11-D1)*%
X268326400Y-207518300D02*
X270394200Y-207518300D01*
X286980000Y-207518300D02*
X289047800Y-207518300D01*
X299415700Y-207518300D02*
X301483500Y-207518300D01*
X276612100Y-207518300D02*
X274544200Y-207518300D01*
X282830000Y-207518300D02*
X280762100Y-207518300D01*
X295265700Y-207518300D02*
X293197800Y-207518300D01*
X270394200Y-207518300D02*
X274544200Y-207518300D01*
X257958500Y-207518300D02*
X262108500Y-207518300D01*
X301483500Y-207518300D02*
X305633500Y-207518300D01*
X276612100Y-207518300D02*
X280762100Y-207518300D01*
X282830000Y-207518300D02*
X286980000Y-207518300D01*
X295265700Y-207518300D02*
X299415700Y-207518300D01*
X289047800Y-207518300D02*
X293197800Y-207518300D01*
X264176400Y-207518300D02*
X268326400Y-207518300D01*
X256805000Y-206710000D02*
X244105000Y-206710000D01*
X256805000Y-206724600D02*
X256805000Y-206710000D01*
X257598800Y-207518300D02*
X256805000Y-206724600D01*
X257958500Y-207518300D02*
X257598800Y-207518300D01*
X264176400Y-207518300D02*
X262108500Y-207518300D01*
%TO.N,Net-(U5-Q6)*%
X264407700Y-209701600D02*
X264176400Y-209701600D01*
X265201400Y-210495400D02*
X264407700Y-209701600D01*
X265201400Y-210626600D02*
X265201400Y-210495400D01*
X265201400Y-196701600D02*
X264176400Y-196701600D01*
X265201400Y-201035000D02*
X264176400Y-201035000D01*
X265201400Y-205368300D02*
X264176400Y-205368300D01*
X218672800Y-209726600D02*
X217147800Y-209726600D01*
X216147800Y-205385000D02*
X214522800Y-205385000D01*
X216147800Y-196701600D02*
X214522800Y-196701600D01*
X216147800Y-201043300D02*
X214522800Y-201043300D01*
X265201400Y-201035000D02*
X268326400Y-201035000D01*
X216147800Y-205385000D02*
X218672800Y-205385000D01*
X216147800Y-196701600D02*
X218672800Y-196701600D01*
X216147800Y-201043300D02*
X218672800Y-201043300D01*
X217147800Y-209726600D02*
X214522800Y-209726600D01*
X265201400Y-205368300D02*
X268326400Y-205368300D01*
X266126400Y-209701600D02*
X268326400Y-209701600D01*
X265201400Y-210626600D02*
X266126400Y-209701600D01*
X265201400Y-196701600D02*
X268326400Y-196701600D01*
X219894700Y-210626600D02*
X265201400Y-210626600D01*
X219497800Y-210229700D02*
X219894700Y-210626600D01*
X219497800Y-210210200D02*
X219497800Y-210229700D01*
X219014200Y-209726600D02*
X219497800Y-210210200D01*
X218672800Y-209726600D02*
X219014200Y-209726600D01*
%TO.N,Net-(U11-D7)*%
X251830000Y-198826600D02*
X254680000Y-198826600D01*
X254680000Y-198826600D02*
X255980000Y-198826600D01*
X214522800Y-198851600D02*
X212455000Y-198851600D01*
X224890700Y-198851600D02*
X226958500Y-198851600D01*
X239394200Y-198851600D02*
X237326400Y-198851600D01*
X231108500Y-198851600D02*
X233176400Y-198851600D01*
X245612100Y-198851600D02*
X243544200Y-198851600D01*
X218672800Y-198851600D02*
X220740700Y-198851600D01*
X249820700Y-198851600D02*
X249762100Y-198851600D01*
X249845700Y-198826600D02*
X249820700Y-198851600D01*
X251830000Y-198826600D02*
X249845700Y-198826600D01*
X214522800Y-198851600D02*
X218672800Y-198851600D01*
X212455000Y-198851600D02*
X208305000Y-198851600D01*
X245612100Y-198851600D02*
X249762100Y-198851600D01*
X220740700Y-198851600D02*
X224890700Y-198851600D01*
X239394200Y-198851600D02*
X243544200Y-198851600D01*
X226958500Y-198851600D02*
X231108500Y-198851600D01*
X233176400Y-198851600D02*
X237326400Y-198851600D01*
%TO.N,Net-(U5-Q0)*%
X255280000Y-196676600D02*
X255980000Y-196676600D01*
X255980000Y-201018300D02*
X253455000Y-201018300D01*
X253455000Y-205360000D02*
X251830000Y-205360000D01*
X303108500Y-201035000D02*
X301483500Y-201035000D01*
X253455000Y-201018300D02*
X251830000Y-201018300D01*
X303308500Y-209701600D02*
X301483500Y-209701600D01*
X303308500Y-196701600D02*
X301483500Y-196701600D01*
X253655000Y-209701600D02*
X251830000Y-209701600D01*
X253655000Y-209701600D02*
X255980000Y-209701600D01*
X303308500Y-196701600D02*
X305633500Y-196701600D01*
X303308500Y-209701600D02*
X305633500Y-209701600D01*
X303108500Y-201035000D02*
X305633500Y-201035000D01*
X253455000Y-205360000D02*
X255980000Y-205360000D01*
X255280000Y-196676600D02*
X251830000Y-196676600D01*
X303308500Y-205368300D02*
X305633500Y-205368300D01*
X261955000Y-176380000D02*
X263385000Y-174950000D01*
X255280000Y-176380000D02*
X261955000Y-176380000D01*
X302200200Y-201943300D02*
X303108500Y-201035000D01*
X257201900Y-201943300D02*
X302200200Y-201943300D01*
X256805000Y-201546400D02*
X257201900Y-201943300D01*
X256805000Y-201501900D02*
X256805000Y-201546400D01*
X256321400Y-201018300D02*
X256805000Y-201501900D01*
X255980000Y-201018300D02*
X256321400Y-201018300D01*
X303308500Y-205368300D02*
X301483500Y-205368300D01*
%TO.N,5V*%
X295071600Y-148897500D02*
X296447600Y-148897500D01*
X291180000Y-179310000D02*
X296405000Y-179310000D01*
X289210000Y-177340000D02*
X291180000Y-179310000D01*
X306350000Y-128049400D02*
X306350000Y-126950000D01*
X297888300Y-148897500D02*
X296447600Y-148897500D01*
X230905000Y-173350000D02*
X230505000Y-173750000D01*
X232305000Y-173350000D02*
X230905000Y-173350000D01*
X230505000Y-180890000D02*
X230905000Y-180490000D01*
X230505000Y-182400000D02*
X230505000Y-180890000D01*
X263375000Y-177480000D02*
X263385000Y-177490000D01*
X260800000Y-177480000D02*
X263375000Y-177480000D01*
X260810000Y-154630000D02*
X263385000Y-154630000D01*
X260800000Y-154620000D02*
X260810000Y-154630000D01*
X292255000Y-148897500D02*
X295071600Y-148897500D01*
X303521600Y-148897500D02*
X300705000Y-148897500D01*
X300705000Y-148897500D02*
X297888300Y-148897500D01*
X303521600Y-148897500D02*
X306338300Y-148897500D01*
X292255000Y-148897500D02*
X289438300Y-148897500D01*
X305547400Y-132150000D02*
X306350000Y-132150000D01*
X305150600Y-131753100D02*
X305547400Y-132150000D01*
X305150600Y-131487500D02*
X305150600Y-131753100D01*
X304412500Y-130749400D02*
X305150600Y-131487500D01*
X222405000Y-182400000D02*
X226455000Y-182400000D01*
X226455000Y-182400000D02*
X230505000Y-182400000D01*
X297340000Y-179310000D02*
X299310000Y-177340000D01*
X296405000Y-179310000D02*
X297340000Y-179310000D01*
D36*
X284290000Y-179310000D02*
X284289999Y-179310000D01*
X284289999Y-179310000D01*
X284289999Y-179310000D01*
X284289999Y-179310000D01*
X284289999Y-179310000D01*
X284289999Y-179310000D01*
X284289999Y-179310000D01*
X284289999Y-179309999D01*
X284289999Y-179309999D01*
X284289999Y-179309999D01*
X284289999Y-179309999D01*
X284289999Y-179309999D01*
X284290000Y-179309999D01*
X284290000Y-179309999D01*
X284290000Y-179309999D01*
X284290000Y-179309999D01*
X284290000Y-179309999D01*
X284290000Y-179309999D01*
X284290000Y-179309999D01*
X284290000Y-179309999D01*
X284290000Y-179309999D01*
X284290000Y-179309999D01*
X284290000Y-179309999D01*
X284290000Y-179309999D01*
X284290001Y-179309999D01*
X284290001Y-179309999D01*
X284290001Y-179309999D01*
X284290001Y-179309999D01*
X284290001Y-179309999D01*
X284290001Y-179309999D01*
X284290001Y-179310000D01*
X284290001Y-179310000D01*
X284290001Y-179310000D01*
X284290001Y-179310000D01*
X284290001Y-179310000D01*
X284290001Y-179310000D01*
X284290001Y-179310000D01*
X284290000Y-179310000D01*
X284290000Y-179310000D02*
X284290001Y-179310000D01*
X284290001Y-179310000D01*
X284290001Y-179310000D01*
X284290001Y-179310000D01*
X284290001Y-179310000D01*
X284290001Y-179310000D01*
X284290001Y-179310001D01*
X284290001Y-179310001D01*
X284290001Y-179310001D01*
X284290001Y-179310001D01*
X284290001Y-179310001D01*
X284290001Y-179310001D01*
X284290001Y-179310001D01*
X284290000Y-179310001D01*
X284290000Y-179310001D01*
X284290000Y-179310001D01*
X284290000Y-179310001D01*
X284290000Y-179310001D01*
X284290000Y-179310001D01*
X284290000Y-179310001D01*
X284290000Y-179310001D01*
X284290000Y-179310001D01*
X284290000Y-179310001D01*
X284290000Y-179310001D01*
X284290000Y-179310001D01*
X284289999Y-179310001D01*
X284289999Y-179310001D01*
X284289999Y-179310001D01*
X284289999Y-179310001D01*
X284289999Y-179310001D01*
X284289999Y-179310001D01*
X284289999Y-179310000D01*
X284289999Y-179310000D01*
X284289999Y-179310000D01*
X284289999Y-179310000D01*
X284289999Y-179310000D01*
X284289999Y-179310000D01*
X284290000Y-179310000D01*
D35*
X287240000Y-179310000D02*
X284290000Y-179310000D01*
X289210000Y-177340000D02*
X287240000Y-179310000D01*
X247882500Y-100070000D02*
X250632500Y-100070000D01*
X246782500Y-101170000D02*
X247882500Y-100070000D01*
X236065000Y-180490000D02*
X230905000Y-180490000D01*
X230105000Y-173350000D02*
X230505000Y-173750000D01*
X224685000Y-173350000D02*
X230105000Y-173350000D01*
X218005000Y-173350000D02*
X224685000Y-173350000D01*
X230505000Y-180090000D02*
X230905000Y-180490000D01*
X230505000Y-173750000D02*
X230505000Y-180090000D01*
X247004000Y-133699000D02*
X253232500Y-133699000D01*
X246125000Y-132820000D02*
X247004000Y-133699000D01*
X218005000Y-173350000D02*
X210385000Y-173350000D01*
X290445000Y-129161900D02*
X290445000Y-129097500D01*
X292032500Y-130749400D02*
X290445000Y-129161900D01*
X296447600Y-130749400D02*
X292032500Y-130749400D01*
X251429400Y-105750000D02*
X253232500Y-105750000D01*
X251032500Y-105353100D02*
X251429400Y-105750000D01*
X251032500Y-100470000D02*
X251032500Y-105353100D01*
X250632500Y-100070000D02*
X251032500Y-100470000D01*
X257118000Y-152353300D02*
X258584700Y-153820000D01*
X253032500Y-152353300D02*
X257118000Y-152353300D01*
X296447600Y-130749400D02*
X304412500Y-130749400D01*
X214252500Y-82290000D02*
X226305000Y-82290000D01*
X213152500Y-83390000D02*
X214252500Y-82290000D01*
X251826300Y-98630000D02*
X262532500Y-98630000D01*
X251032500Y-99423800D02*
X251826300Y-98630000D01*
X251032500Y-99670000D02*
X251032500Y-99423800D01*
X250632500Y-100070000D02*
X251032500Y-99670000D01*
X267534500Y-177490000D02*
X263385000Y-177490000D01*
X268635500Y-176389100D02*
X267534500Y-177490000D01*
X273580500Y-176389100D02*
X268635500Y-176389100D01*
X274631400Y-177440000D02*
X273580500Y-176389100D01*
X278990000Y-177440000D02*
X274631400Y-177440000D01*
X242152500Y-106290000D02*
X232842500Y-106290000D01*
X244732500Y-103710000D02*
X242152500Y-106290000D01*
X246782500Y-103710000D02*
X244732500Y-103710000D01*
X211686200Y-115110000D02*
X224805000Y-115110000D01*
X210387200Y-113811000D02*
X211686200Y-115110000D01*
X292952500Y-82996200D02*
X292952500Y-82660000D01*
X292158800Y-83790000D02*
X292952500Y-82996200D01*
X272381300Y-83790000D02*
X292158800Y-83790000D01*
X271587500Y-82996200D02*
X272381300Y-83790000D01*
X271587500Y-82760000D02*
X271587500Y-82996200D01*
X237485000Y-181910000D02*
X236065000Y-180490000D01*
X257625000Y-181910000D02*
X237485000Y-181910000D01*
X262532500Y-98630000D02*
X265172500Y-98630000D01*
X259384700Y-154620000D02*
X258584700Y-153820000D01*
X260800000Y-154620000D02*
X259384700Y-154620000D01*
%TO.N,A4*%
X262165000Y-179910000D02*
X260165000Y-181910000D01*
X265885000Y-179910000D02*
X262165000Y-179910000D01*
X265729000Y-149910000D02*
X223604400Y-149910000D01*
X265885000Y-150066000D02*
X265729000Y-149910000D01*
X223604400Y-145877500D02*
X222228400Y-145877500D01*
X276507500Y-95460000D02*
X275687500Y-94640000D01*
X281747500Y-95460000D02*
X276507500Y-95460000D01*
X265885000Y-150066000D02*
X277050800Y-150066000D01*
X251372500Y-89910000D02*
X249932500Y-88470000D01*
X256655000Y-89910000D02*
X251372500Y-89910000D01*
X303112500Y-95586300D02*
X303112500Y-95360000D01*
X302318800Y-96380000D02*
X303112500Y-95586300D01*
X281747500Y-96380000D02*
X302318800Y-96380000D01*
X281747500Y-95460000D02*
X281747500Y-96380000D01*
X275387500Y-94340000D02*
X275687500Y-94640000D01*
X269866300Y-94340000D02*
X275387500Y-94340000D01*
X269072500Y-93546300D02*
X269866300Y-94340000D01*
X269072500Y-93085000D02*
X269072500Y-93546300D01*
X265897500Y-89910000D02*
X269072500Y-93085000D01*
X256655000Y-89910000D02*
X265897500Y-89910000D01*
%TO.N,A5*%
X252875000Y-85930000D02*
X249932500Y-85930000D01*
X256055000Y-89110000D02*
X252875000Y-85930000D01*
X259645000Y-89110000D02*
X256055000Y-89110000D01*
X228985000Y-146891000D02*
X228785000Y-147091000D01*
X229293100Y-146891000D02*
X228985000Y-146891000D01*
X229493100Y-146691000D02*
X229293100Y-146891000D01*
X229493100Y-142407500D02*
X229493100Y-146691000D01*
X231080600Y-140820000D02*
X229493100Y-142407500D01*
X252765000Y-140820000D02*
X231080600Y-140820000D01*
X252965000Y-141020000D02*
X252765000Y-140820000D01*
X278697500Y-141020000D02*
X252965000Y-141020000D01*
X280285000Y-139432500D02*
X278697500Y-141020000D01*
X280285000Y-139257500D02*
X280285000Y-139432500D01*
X261295000Y-183320000D02*
X262705000Y-181910000D01*
X259518800Y-183320000D02*
X261295000Y-183320000D01*
X258725000Y-182526200D02*
X259518800Y-183320000D01*
X258725000Y-181222500D02*
X258725000Y-182526200D01*
X257137500Y-179635000D02*
X258725000Y-181222500D01*
X234992500Y-179635000D02*
X257137500Y-179635000D01*
X233405000Y-178047500D02*
X234992500Y-179635000D01*
X233405000Y-156697500D02*
X233405000Y-178047500D01*
X231817500Y-155110000D02*
X233405000Y-156697500D01*
X228785000Y-155110000D02*
X231817500Y-155110000D01*
X303112500Y-93046300D02*
X303112500Y-92820000D01*
X302318800Y-93840000D02*
X303112500Y-93046300D01*
X281747500Y-93840000D02*
X302318800Y-93840000D01*
X281747500Y-92920000D02*
X281747500Y-93840000D01*
X260445000Y-84830000D02*
X259645000Y-85630000D01*
X268877500Y-84830000D02*
X260445000Y-84830000D01*
X270867500Y-86820000D02*
X268877500Y-84830000D01*
X277077500Y-86820000D02*
X270867500Y-86820000D01*
X278665000Y-88407500D02*
X277077500Y-86820000D01*
X278665000Y-92126300D02*
X278665000Y-88407500D01*
X279458800Y-92920000D02*
X278665000Y-92126300D01*
X281747500Y-92920000D02*
X279458800Y-92920000D01*
X225272800Y-146097200D02*
X225272800Y-145877500D01*
X226066600Y-146891000D02*
X225272800Y-146097200D01*
X228585000Y-146891000D02*
X226066600Y-146891000D01*
X228785000Y-147091000D02*
X228585000Y-146891000D01*
%TO.N,A6*%
X259441900Y-82590000D02*
X261735000Y-82590000D01*
X259045000Y-82986900D02*
X259441900Y-82590000D01*
X259045000Y-82990000D02*
X259045000Y-82986900D01*
X258645000Y-83390000D02*
X259045000Y-82990000D01*
X270272500Y-88860000D02*
X277265000Y-88860000D01*
X268782500Y-87370000D02*
X270272500Y-88860000D01*
X259838800Y-87370000D02*
X268782500Y-87370000D01*
X259045000Y-86576300D02*
X259838800Y-87370000D01*
X259045000Y-83790000D02*
X259045000Y-86576300D01*
X258645000Y-83390000D02*
X259045000Y-83790000D01*
X258645000Y-83390000D02*
X249932500Y-83390000D01*
X303112500Y-90506300D02*
X303112500Y-90280000D01*
X302318800Y-91300000D02*
X303112500Y-90506300D01*
X284245000Y-91300000D02*
X302318800Y-91300000D01*
X266345000Y-183010000D02*
X265245000Y-181910000D01*
X268488100Y-183010000D02*
X266345000Y-183010000D01*
X268885000Y-182613100D02*
X268488100Y-183010000D01*
X268885000Y-181397500D02*
X268885000Y-182613100D01*
X270472500Y-179810000D02*
X268885000Y-181397500D01*
X281192100Y-179810000D02*
X270472500Y-179810000D01*
X283292100Y-177710000D02*
X281192100Y-179810000D01*
X228317100Y-141807500D02*
X228317100Y-145877500D01*
X229904600Y-140220000D02*
X228317100Y-141807500D01*
X253701300Y-140220000D02*
X229904600Y-140220000D01*
X255963800Y-137957500D02*
X253701300Y-140220000D01*
X282031300Y-137957500D02*
X255963800Y-137957500D01*
X282825000Y-138751300D02*
X282031300Y-137957500D01*
X282825000Y-139257500D02*
X282825000Y-138751300D01*
%TO.N,A7*%
X267117700Y-147539100D02*
X285365000Y-147539100D01*
X260395000Y-80850000D02*
X249932500Y-80850000D01*
X261695000Y-79550000D02*
X260395000Y-80850000D01*
X274985000Y-79550000D02*
X261695000Y-79550000D01*
X275585000Y-78950000D02*
X274985000Y-79550000D01*
X231361500Y-145951600D02*
X231361500Y-145877500D01*
X232949000Y-147539100D02*
X231361500Y-145951600D01*
X267117700Y-147539100D02*
X232949000Y-147539100D01*
X284455000Y-88660000D02*
X285985000Y-88660000D01*
X283635000Y-87840000D02*
X284455000Y-88660000D01*
X281747500Y-87840000D02*
X283635000Y-87840000D01*
X303112500Y-87966300D02*
X303112500Y-87740000D01*
X302318800Y-88760000D02*
X303112500Y-87966300D01*
X286835000Y-88760000D02*
X302318800Y-88760000D01*
X286735000Y-88660000D02*
X286835000Y-88760000D01*
X285985000Y-88660000D02*
X286735000Y-88660000D01*
%TO.N,Net-(U4-~{E1})*%
X270325000Y-182332500D02*
X270325000Y-181910000D01*
X268737500Y-183920000D02*
X270325000Y-182332500D01*
X237520000Y-183920000D02*
X268737500Y-183920000D01*
%TO.N,!IORQ*%
X274565000Y-180210000D02*
X272865000Y-181910000D01*
X284890000Y-180210000D02*
X274565000Y-180210000D01*
X295071600Y-145265000D02*
X295071600Y-145922500D01*
X293484100Y-143677500D02*
X295071600Y-145265000D01*
X285965000Y-143677500D02*
X293484100Y-143677500D01*
X236487500Y-124010000D02*
X223605000Y-124010000D01*
X237197500Y-123300000D02*
X236487500Y-124010000D01*
X263362500Y-123300000D02*
X237197500Y-123300000D01*
X265172500Y-121490000D02*
X263362500Y-123300000D01*
X273206500Y-143677500D02*
X285965000Y-143677500D01*
%TO.N,GND*%
X302749400Y-128850000D02*
X304050000Y-128850000D01*
X302749400Y-134050000D02*
X304050000Y-134050000D01*
X213095400Y-151119600D02*
X211405000Y-152810000D01*
X213095400Y-148852500D02*
X213095400Y-151119600D01*
X297231000Y-177340000D02*
X296830000Y-177340000D01*
X297931000Y-176640000D02*
X297231000Y-177340000D01*
X297531000Y-176240000D02*
X297931000Y-176640000D01*
X287010000Y-176240000D02*
X297531000Y-176240000D01*
X286610000Y-176640000D02*
X287010000Y-176240000D01*
X286610000Y-177440000D02*
X286610000Y-176640000D01*
X252671900Y-148852500D02*
X251405000Y-148852500D01*
X251305000Y-193010000D02*
X253005000Y-193010000D01*
X213095400Y-154500400D02*
X211405000Y-152810000D01*
X213095400Y-154935000D02*
X213095400Y-154500400D01*
X216270400Y-158110000D02*
X213095400Y-154935000D01*
X218005000Y-158110000D02*
X216270400Y-158110000D01*
X234405800Y-148852500D02*
X236074200Y-148852500D01*
X276405000Y-172070000D02*
X276405000Y-174550000D01*
X276405000Y-164630000D02*
X276405000Y-162150000D01*
X276405000Y-162150000D02*
X276405000Y-159670000D01*
X276405000Y-157190000D02*
X276405000Y-159670000D01*
X276405000Y-172070000D02*
X276405000Y-169590000D01*
X276405000Y-164630000D02*
X276405000Y-167110000D01*
X276405000Y-167110000D02*
X276405000Y-169590000D01*
X213093500Y-111271000D02*
X210387200Y-111271000D01*
X213152500Y-111330000D02*
X213093500Y-111271000D01*
X258760600Y-148852500D02*
X255716300Y-148852500D01*
X273982400Y-148852500D02*
X277026700Y-148852500D01*
X243538900Y-148852500D02*
X246583200Y-148852500D01*
X267893700Y-148852500D02*
X269269700Y-148852500D01*
X228317100Y-148852500D02*
X225272800Y-148852500D01*
X213095400Y-148852500D02*
X210051100Y-148852500D01*
X240494500Y-148852500D02*
X237450200Y-148852500D01*
X277026700Y-148852500D02*
X280071100Y-148852500D01*
X225272800Y-148852500D02*
X222228400Y-148852500D01*
X255716300Y-148852500D02*
X252671900Y-148852500D01*
X249627600Y-148852500D02*
X246583200Y-148852500D01*
X243538900Y-148852500D02*
X240494500Y-148852500D01*
X237450200Y-148852500D02*
X236074200Y-148852500D01*
X273982400Y-148852500D02*
X270938000Y-148852500D01*
X267893700Y-148852500D02*
X264849300Y-148852500D01*
X213095400Y-148852500D02*
X216139800Y-148852500D01*
X258760600Y-148852500D02*
X261805000Y-148852500D01*
X242205000Y-189010000D02*
X242205000Y-192372500D01*
X242605000Y-192772500D02*
X242205000Y-192372500D01*
X246267500Y-192772500D02*
X242605000Y-192772500D01*
X246505000Y-193010000D02*
X246267500Y-192772500D01*
X246505000Y-193010000D02*
X251305000Y-193010000D01*
X269269700Y-145060900D02*
X269269700Y-145877500D01*
X268872800Y-144664000D02*
X269269700Y-145060900D01*
X257425000Y-144664000D02*
X268872800Y-144664000D01*
X270938000Y-148852500D02*
X269269700Y-148852500D01*
X279690000Y-176240000D02*
X280090000Y-176640000D01*
X277992500Y-176240000D02*
X279690000Y-176240000D01*
X276405000Y-174652500D02*
X277992500Y-176240000D01*
X276405000Y-174550000D02*
X276405000Y-174652500D01*
X246782500Y-121490000D02*
X232842500Y-121490000D01*
X286210000Y-176240000D02*
X286610000Y-176640000D01*
X280490000Y-176240000D02*
X286210000Y-176240000D01*
X280090000Y-176640000D02*
X280490000Y-176240000D01*
X231361500Y-148852500D02*
X230185600Y-148852500D01*
X274817500Y-154630000D02*
X271005000Y-154630000D01*
X276405000Y-156217500D02*
X274817500Y-154630000D01*
X276405000Y-157190000D02*
X276405000Y-156217500D01*
X248492500Y-102610000D02*
X249932500Y-101170000D01*
X241425000Y-102610000D02*
X248492500Y-102610000D01*
X280864900Y-150710000D02*
X286610000Y-150710000D01*
X280071100Y-149916300D02*
X280864900Y-150710000D01*
X280071100Y-148852500D02*
X280071100Y-149916300D01*
X231542500Y-111330000D02*
X241425000Y-111330000D01*
X306930000Y-177033800D02*
X306930000Y-177340000D01*
X306136300Y-176240000D02*
X306930000Y-177033800D01*
X298331000Y-176240000D02*
X306136300Y-176240000D01*
X297931000Y-176640000D02*
X298331000Y-176240000D01*
X286610000Y-150710000D02*
X296830000Y-150710000D01*
X219184100Y-148852500D02*
X219184100Y-150066000D01*
X241805000Y-192772500D02*
X242205000Y-192372500D01*
X226032400Y-192772500D02*
X241805000Y-192772500D01*
X224882400Y-193922500D02*
X226032400Y-192772500D01*
X285687500Y-115780000D02*
X281747500Y-115780000D01*
X286807500Y-114660000D02*
X285687500Y-115780000D01*
X302318800Y-114660000D02*
X286807500Y-114660000D01*
X303112500Y-115453800D02*
X302318800Y-114660000D01*
X303112500Y-115680000D02*
X303112500Y-115453800D01*
X214592500Y-112770000D02*
X213152500Y-111330000D01*
X230102500Y-112770000D02*
X214592500Y-112770000D01*
X231542500Y-111330000D02*
X230102500Y-112770000D01*
X227715000Y-135400000D02*
X225045000Y-132730000D01*
X232325000Y-135400000D02*
X227715000Y-135400000D01*
X219184100Y-148852500D02*
X222228400Y-148852500D01*
X264849300Y-148852500D02*
X261805000Y-148852500D01*
X231361500Y-148852500D02*
X234405800Y-148852500D01*
X271005000Y-178810000D02*
X271005000Y-177490000D01*
X251405000Y-148852500D02*
X251305000Y-148852500D01*
X279296300Y-178810000D02*
X271005000Y-178810000D01*
X280090000Y-178016200D02*
X279296300Y-178810000D01*
X280090000Y-176640000D02*
X280090000Y-178016200D01*
X254510000Y-178810000D02*
X271005000Y-178810000D01*
X253180000Y-177480000D02*
X254510000Y-178810000D01*
X228317100Y-148852500D02*
X230185600Y-148852500D01*
X230185600Y-143307500D02*
X230185600Y-148852500D01*
X231773100Y-141720000D02*
X230185600Y-143307500D01*
X232325000Y-141720000D02*
X231773100Y-141720000D01*
X251305000Y-148952500D02*
X251305000Y-148852500D01*
X249627600Y-148852500D02*
X251305000Y-148852500D01*
%TO.N,IO1*%
X219965000Y-131630000D02*
X219565000Y-131230000D01*
X219965000Y-132730000D02*
X219965000Y-131630000D01*
X236105000Y-136700000D02*
X237405000Y-135400000D01*
X234865000Y-136700000D02*
X236105000Y-136700000D01*
X257625000Y-189530000D02*
X260165000Y-189530000D01*
X262705000Y-189530000D02*
X265245000Y-189530000D01*
X260165000Y-189530000D02*
X262705000Y-189530000D01*
X265245000Y-189530000D02*
X267785000Y-189530000D01*
X277945000Y-189530000D02*
X280485000Y-189530000D01*
X280485000Y-181910000D02*
X277945000Y-181910000D01*
X270325000Y-189530000D02*
X272865000Y-189530000D01*
X277945000Y-181910000D02*
X275405000Y-181910000D01*
X272865000Y-189530000D02*
X275405000Y-189530000D01*
X267785000Y-189530000D02*
X270325000Y-189530000D01*
X275405000Y-189530000D02*
X277945000Y-189530000D01*
X283025000Y-181910000D02*
X285565000Y-181910000D01*
X247565000Y-137926200D02*
X247565000Y-135400000D01*
X246771300Y-138720000D02*
X247565000Y-137926200D01*
X234865000Y-138720000D02*
X246771300Y-138720000D01*
X227745000Y-126300000D02*
X228145000Y-126700000D01*
X223695000Y-126300000D02*
X227745000Y-126300000D01*
X222505000Y-125110000D02*
X223695000Y-126300000D01*
X219965000Y-130830000D02*
X219565000Y-131230000D01*
X219965000Y-127093800D02*
X219965000Y-130830000D01*
X220758800Y-126300000D02*
X219965000Y-127093800D01*
X221315000Y-126300000D02*
X220758800Y-126300000D01*
X222505000Y-125110000D02*
X221315000Y-126300000D01*
X209805000Y-132023800D02*
X209805000Y-132730000D01*
X210598800Y-131230000D02*
X209805000Y-132023800D01*
X219565000Y-131230000D02*
X210598800Y-131230000D01*
X232325000Y-126300000D02*
X233425000Y-125200000D01*
X228545000Y-126300000D02*
X232325000Y-126300000D01*
X228145000Y-126700000D02*
X228545000Y-126300000D01*
X234218800Y-136700000D02*
X234865000Y-136700000D01*
X233425000Y-135906300D02*
X234218800Y-136700000D01*
X233425000Y-134696900D02*
X233425000Y-135906300D01*
X233028100Y-134300000D02*
X233425000Y-134696900D01*
X229732500Y-134300000D02*
X233028100Y-134300000D01*
X228145000Y-132712500D02*
X229732500Y-134300000D01*
X228145000Y-126700000D02*
X228145000Y-132712500D01*
X237034100Y-153519100D02*
X236065000Y-152550000D01*
X252386300Y-153519100D02*
X237034100Y-153519100D01*
X253180000Y-154312800D02*
X252386300Y-153519100D01*
X253180000Y-154620000D02*
X253180000Y-154312800D01*
X215985000Y-131630000D02*
X214885000Y-132730000D01*
X218865000Y-131630000D02*
X215985000Y-131630000D01*
X219965000Y-132730000D02*
X218865000Y-131630000D01*
%TO.N,Net-(U11-D3)*%
X262108500Y-198851600D02*
X260183500Y-198851600D01*
X286980000Y-198851600D02*
X289047800Y-198851600D01*
X301483500Y-198851600D02*
X299415700Y-198851600D01*
X268326400Y-198851600D02*
X270394200Y-198851600D01*
X274544200Y-198851600D02*
X276612100Y-198851600D01*
X262108500Y-198851600D02*
X264176400Y-198851600D01*
X295265700Y-198851600D02*
X293197800Y-198851600D01*
X282830000Y-198851600D02*
X280762100Y-198851600D01*
X260183500Y-198851600D02*
X257958500Y-198851600D01*
X270394200Y-198851600D02*
X274544200Y-198851600D01*
X282830000Y-198851600D02*
X286980000Y-198851600D01*
X289047800Y-198851600D02*
X293197800Y-198851600D01*
X295265700Y-198851600D02*
X299415700Y-198851600D01*
X264176400Y-198851600D02*
X268326400Y-198851600D01*
X301483500Y-198851600D02*
X305633500Y-198851600D01*
X276612100Y-198851600D02*
X280762100Y-198851600D01*
%TO.N,Net-(U5-Q7)*%
X258983500Y-209701600D02*
X257958500Y-209701600D01*
X258189800Y-205368300D02*
X257958500Y-205368300D01*
X258983500Y-204574600D02*
X258189800Y-205368300D01*
X258983500Y-204335000D02*
X258983500Y-204574600D01*
X258983500Y-201035000D02*
X257958500Y-201035000D01*
X258983500Y-196701600D02*
X257958500Y-196701600D01*
X266077800Y-157170000D02*
X263385000Y-157170000D01*
X267717800Y-158810000D02*
X266077800Y-157170000D01*
X266717700Y-180810000D02*
X263805000Y-180810000D01*
X267717800Y-179810000D02*
X266717700Y-180810000D01*
X262108500Y-196701600D02*
X263151400Y-196701600D01*
X262108500Y-196701600D02*
X258983500Y-196701600D01*
X258983500Y-201035000D02*
X262108500Y-201035000D01*
X209930000Y-205385000D02*
X208305000Y-205385000D01*
X209930000Y-201043300D02*
X208305000Y-201043300D01*
X210130000Y-209726600D02*
X208305000Y-209726600D01*
X210130000Y-196701600D02*
X208305000Y-196701600D01*
X210130000Y-196701600D02*
X212455000Y-196701600D01*
X210130000Y-209726600D02*
X212455000Y-209726600D01*
X212455000Y-205385000D02*
X209930000Y-205385000D01*
X209930000Y-201043300D02*
X212455000Y-201043300D01*
X258983500Y-209701600D02*
X262108500Y-209701600D01*
X260016800Y-205368300D02*
X262108500Y-205368300D01*
X258983500Y-204335000D02*
X260016800Y-205368300D01*
X213676900Y-204335000D02*
X258983500Y-204335000D01*
X213280000Y-204731900D02*
X213676900Y-204335000D01*
X213280000Y-204901400D02*
X213280000Y-204731900D01*
X212796400Y-205385000D02*
X213280000Y-204901400D01*
X212455000Y-205385000D02*
X212796400Y-205385000D01*
%TD*%
M02*
