%TF.GenerationSoftware,KiCad,Pcbnew,10.0.1*%
%TF.CreationDate,2026-04-24T22:44:25+08:00*%
%TF.ProjectId,z80handheld,7a383068-616e-4646-9865-6c642e6b6963,rev?*%
%TF.SameCoordinates,Original*%
%TF.FileFunction,Legend,Top*%
%TF.FilePolarity,Positive*%
%FSLAX46Y46*%
G04 Gerber Fmt 4.6, Leading zero omitted, Abs format (unit mm)*
G04 Created by KiCad (PCBNEW 10.0.1) date 2026-04-24 22:44:25*
%MOMM*%
%LPD*%
G01*
G04 APERTURE LIST*
%ADD10C,0.150000*%
%ADD11C,0.120000*%
%ADD12C,0.200000*%
G04 APERTURE END LIST*
D10*
X303961905Y-124954819D02*
X303961905Y-125764342D01*
X303961905Y-125764342D02*
X304009524Y-125859580D01*
X304009524Y-125859580D02*
X304057143Y-125907200D01*
X304057143Y-125907200D02*
X304152381Y-125954819D01*
X304152381Y-125954819D02*
X304342857Y-125954819D01*
X304342857Y-125954819D02*
X304438095Y-125907200D01*
X304438095Y-125907200D02*
X304485714Y-125859580D01*
X304485714Y-125859580D02*
X304533333Y-125764342D01*
X304533333Y-125764342D02*
X304533333Y-124954819D01*
X305533333Y-125954819D02*
X304961905Y-125954819D01*
X305247619Y-125954819D02*
X305247619Y-124954819D01*
X305247619Y-124954819D02*
X305152381Y-125097676D01*
X305152381Y-125097676D02*
X305057143Y-125192914D01*
X305057143Y-125192914D02*
X304961905Y-125240533D01*
X306104762Y-125383390D02*
X306009524Y-125335771D01*
X306009524Y-125335771D02*
X305961905Y-125288152D01*
X305961905Y-125288152D02*
X305914286Y-125192914D01*
X305914286Y-125192914D02*
X305914286Y-125145295D01*
X305914286Y-125145295D02*
X305961905Y-125050057D01*
X305961905Y-125050057D02*
X306009524Y-125002438D01*
X306009524Y-125002438D02*
X306104762Y-124954819D01*
X306104762Y-124954819D02*
X306295238Y-124954819D01*
X306295238Y-124954819D02*
X306390476Y-125002438D01*
X306390476Y-125002438D02*
X306438095Y-125050057D01*
X306438095Y-125050057D02*
X306485714Y-125145295D01*
X306485714Y-125145295D02*
X306485714Y-125192914D01*
X306485714Y-125192914D02*
X306438095Y-125288152D01*
X306438095Y-125288152D02*
X306390476Y-125335771D01*
X306390476Y-125335771D02*
X306295238Y-125383390D01*
X306295238Y-125383390D02*
X306104762Y-125383390D01*
X306104762Y-125383390D02*
X306009524Y-125431009D01*
X306009524Y-125431009D02*
X305961905Y-125478628D01*
X305961905Y-125478628D02*
X305914286Y-125573866D01*
X305914286Y-125573866D02*
X305914286Y-125764342D01*
X305914286Y-125764342D02*
X305961905Y-125859580D01*
X305961905Y-125859580D02*
X306009524Y-125907200D01*
X306009524Y-125907200D02*
X306104762Y-125954819D01*
X306104762Y-125954819D02*
X306295238Y-125954819D01*
X306295238Y-125954819D02*
X306390476Y-125907200D01*
X306390476Y-125907200D02*
X306438095Y-125859580D01*
X306438095Y-125859580D02*
X306485714Y-125764342D01*
X306485714Y-125764342D02*
X306485714Y-125573866D01*
X306485714Y-125573866D02*
X306438095Y-125478628D01*
X306438095Y-125478628D02*
X306390476Y-125431009D01*
X306390476Y-125431009D02*
X306295238Y-125383390D01*
X303961905Y-130154819D02*
X303961905Y-130964342D01*
X303961905Y-130964342D02*
X304009524Y-131059580D01*
X304009524Y-131059580D02*
X304057143Y-131107200D01*
X304057143Y-131107200D02*
X304152381Y-131154819D01*
X304152381Y-131154819D02*
X304342857Y-131154819D01*
X304342857Y-131154819D02*
X304438095Y-131107200D01*
X304438095Y-131107200D02*
X304485714Y-131059580D01*
X304485714Y-131059580D02*
X304533333Y-130964342D01*
X304533333Y-130964342D02*
X304533333Y-130154819D01*
X305533333Y-131154819D02*
X304961905Y-131154819D01*
X305247619Y-131154819D02*
X305247619Y-130154819D01*
X305247619Y-130154819D02*
X305152381Y-130297676D01*
X305152381Y-130297676D02*
X305057143Y-130392914D01*
X305057143Y-130392914D02*
X304961905Y-130440533D01*
X306009524Y-131154819D02*
X306200000Y-131154819D01*
X306200000Y-131154819D02*
X306295238Y-131107200D01*
X306295238Y-131107200D02*
X306342857Y-131059580D01*
X306342857Y-131059580D02*
X306438095Y-130916723D01*
X306438095Y-130916723D02*
X306485714Y-130726247D01*
X306485714Y-130726247D02*
X306485714Y-130345295D01*
X306485714Y-130345295D02*
X306438095Y-130250057D01*
X306438095Y-130250057D02*
X306390476Y-130202438D01*
X306390476Y-130202438D02*
X306295238Y-130154819D01*
X306295238Y-130154819D02*
X306104762Y-130154819D01*
X306104762Y-130154819D02*
X306009524Y-130202438D01*
X306009524Y-130202438D02*
X305961905Y-130250057D01*
X305961905Y-130250057D02*
X305914286Y-130345295D01*
X305914286Y-130345295D02*
X305914286Y-130583390D01*
X305914286Y-130583390D02*
X305961905Y-130678628D01*
X305961905Y-130678628D02*
X306009524Y-130726247D01*
X306009524Y-130726247D02*
X306104762Y-130773866D01*
X306104762Y-130773866D02*
X306295238Y-130773866D01*
X306295238Y-130773866D02*
X306390476Y-130726247D01*
X306390476Y-130726247D02*
X306438095Y-130678628D01*
X306438095Y-130678628D02*
X306485714Y-130583390D01*
%TO.C,SW61*%
D11*
X257833500Y-196076600D02*
X257833500Y-196196600D01*
X257833500Y-197206600D02*
X257833500Y-198346600D01*
X257833500Y-199356600D02*
X257833500Y-199476600D01*
X257833500Y-199476600D02*
X262233500Y-199476600D01*
X262233500Y-196076600D02*
X257833500Y-196076600D01*
X262233500Y-196196600D02*
X262233500Y-196076600D01*
X262233500Y-198346600D02*
X262233500Y-197206600D01*
X262233500Y-199476600D02*
X262233500Y-199356600D01*
%TO.C,U4*%
X255279000Y-183070000D02*
X255279000Y-184720000D01*
X255279000Y-186720000D02*
X255279000Y-188370000D01*
X255279000Y-188370000D02*
X287911000Y-188370000D01*
X287911000Y-183070000D02*
X255279000Y-183070000D01*
X287911000Y-188370000D02*
X287911000Y-183070000D01*
X255279000Y-184720000D02*
G75*
G02*
X255279000Y-186720000I0J-1000000D01*
G01*
X256174000Y-187752000D02*
G75*
G02*
X255774000Y-187752000I-200000J0D01*
G01*
X255774000Y-187752000D02*
G75*
G02*
X256174000Y-187752000I200000J0D01*
G01*
X256099000Y-187752000D02*
G75*
G02*
X255849000Y-187752000I-125000J0D01*
G01*
X255849000Y-187752000D02*
G75*
G02*
X256099000Y-187752000I125000J0D01*
G01*
X256024000Y-187752000D02*
G75*
G02*
X255924000Y-187752000I-50000J0D01*
G01*
X255924000Y-187752000D02*
G75*
G02*
X256024000Y-187752000I50000J0D01*
G01*
%TO.C,SW1*%
X251705000Y-196051600D02*
X251705000Y-196171600D01*
X251705000Y-197181600D02*
X251705000Y-198321600D01*
X251705000Y-199331600D02*
X251705000Y-199451600D01*
X251705000Y-199451600D02*
X256105000Y-199451600D01*
X256105000Y-196051600D02*
X251705000Y-196051600D01*
X256105000Y-196171600D02*
X256105000Y-196051600D01*
X256105000Y-198321600D02*
X256105000Y-197181600D01*
X256105000Y-199451600D02*
X256105000Y-199331600D01*
%TO.C,SW55*%
X264051400Y-204743300D02*
X264051400Y-204863300D01*
X264051400Y-205873300D02*
X264051400Y-207013300D01*
X264051400Y-208023300D02*
X264051400Y-208143300D01*
X264051400Y-208143300D02*
X268451400Y-208143300D01*
X268451400Y-204743300D02*
X264051400Y-204743300D01*
X268451400Y-204863300D02*
X268451400Y-204743300D01*
X268451400Y-207013300D02*
X268451400Y-205873300D01*
X268451400Y-208143300D02*
X268451400Y-208023300D01*
%TO.C,D21*%
X291120000Y-144950000D02*
X291120000Y-149010000D01*
X293390000Y-144950000D02*
X291120000Y-144950000D01*
X293390000Y-149010000D02*
X293390000Y-144950000D01*
%TO.C,SW49*%
X214397800Y-196076600D02*
X214397800Y-196196600D01*
X214397800Y-197206600D02*
X214397800Y-198346600D01*
X214397800Y-199356600D02*
X214397800Y-199476600D01*
X214397800Y-199476600D02*
X218797800Y-199476600D01*
X218797800Y-196076600D02*
X214397800Y-196076600D01*
X218797800Y-196196600D02*
X218797800Y-196076600D01*
X218797800Y-198346600D02*
X218797800Y-197206600D01*
X218797800Y-199476600D02*
X218797800Y-199356600D01*
%TO.C,D6*%
X305203300Y-144950000D02*
X305203300Y-149010000D01*
X307473300Y-144950000D02*
X305203300Y-144950000D01*
X307473300Y-149010000D02*
X307473300Y-144950000D01*
%TO.C,SW58*%
X208180000Y-200418300D02*
X208180000Y-200538300D01*
X208180000Y-201548300D02*
X208180000Y-202688300D01*
X208180000Y-203698300D02*
X208180000Y-203818300D01*
X208180000Y-203818300D02*
X212580000Y-203818300D01*
X212580000Y-200418300D02*
X208180000Y-200418300D01*
X212580000Y-200538300D02*
X212580000Y-200418300D01*
X212580000Y-202688300D02*
X212580000Y-201548300D01*
X212580000Y-203818300D02*
X212580000Y-203698300D01*
%TO.C,SW60*%
X208180000Y-209101600D02*
X208180000Y-209221600D01*
X208180000Y-210231600D02*
X208180000Y-211371600D01*
X208180000Y-212381600D02*
X208180000Y-212501600D01*
X208180000Y-212501600D02*
X212580000Y-212501600D01*
X212580000Y-209101600D02*
X208180000Y-209101600D01*
X212580000Y-209221600D02*
X212580000Y-209101600D01*
X212580000Y-211371600D02*
X212580000Y-210231600D01*
X212580000Y-212501600D02*
X212580000Y-212381600D01*
%TO.C,SW19*%
X239269200Y-204760000D02*
X239269200Y-204880000D01*
X239269200Y-205890000D02*
X239269200Y-207030000D01*
X239269200Y-208040000D02*
X239269200Y-208160000D01*
X239269200Y-208160000D02*
X243669200Y-208160000D01*
X243669200Y-204760000D02*
X239269200Y-204760000D01*
X243669200Y-204880000D02*
X243669200Y-204760000D01*
X243669200Y-207030000D02*
X243669200Y-205890000D01*
X243669200Y-208160000D02*
X243669200Y-208040000D01*
%TO.C,D19*%
X230226500Y-145765000D02*
X230226500Y-149825000D01*
X230226500Y-149825000D02*
X232496500Y-149825000D01*
X232496500Y-149825000D02*
X232496500Y-145765000D01*
%TO.C,D37*%
X272847400Y-145765000D02*
X272847400Y-149825000D01*
X272847400Y-149825000D02*
X275117400Y-149825000D01*
X275117400Y-149825000D02*
X275117400Y-145765000D01*
%TO.C,SW57*%
X208180000Y-196076600D02*
X208180000Y-196196600D01*
X208180000Y-197206600D02*
X208180000Y-198346600D01*
X208180000Y-199356600D02*
X208180000Y-199476600D01*
X208180000Y-199476600D02*
X212580000Y-199476600D01*
X212580000Y-196076600D02*
X208180000Y-196076600D01*
X212580000Y-196196600D02*
X212580000Y-196076600D01*
X212580000Y-198346600D02*
X212580000Y-197206600D01*
X212580000Y-199476600D02*
X212580000Y-199356600D01*
%TO.C,SW54*%
X264051400Y-200410000D02*
X264051400Y-200530000D01*
X264051400Y-201540000D02*
X264051400Y-202680000D01*
X264051400Y-203690000D02*
X264051400Y-203810000D01*
X264051400Y-203810000D02*
X268451400Y-203810000D01*
X268451400Y-200410000D02*
X264051400Y-200410000D01*
X268451400Y-200530000D02*
X268451400Y-200410000D01*
X268451400Y-202680000D02*
X268451400Y-201540000D01*
X268451400Y-203810000D02*
X268451400Y-203690000D01*
%TO.C,SW9*%
X245487100Y-196076600D02*
X245487100Y-196196600D01*
X245487100Y-197206600D02*
X245487100Y-198346600D01*
X245487100Y-199356600D02*
X245487100Y-199476600D01*
X245487100Y-199476600D02*
X249887100Y-199476600D01*
X249887100Y-196076600D02*
X245487100Y-196076600D01*
X249887100Y-196196600D02*
X249887100Y-196076600D01*
X249887100Y-198346600D02*
X249887100Y-197206600D01*
X249887100Y-199476600D02*
X249887100Y-199356600D01*
%TO.C,SW22*%
X288922800Y-200410000D02*
X288922800Y-200530000D01*
X288922800Y-201540000D02*
X288922800Y-202680000D01*
X288922800Y-203690000D02*
X288922800Y-203810000D01*
X288922800Y-203810000D02*
X293322800Y-203810000D01*
X293322800Y-200410000D02*
X288922800Y-200410000D01*
X293322800Y-200530000D02*
X293322800Y-200410000D01*
X293322800Y-202680000D02*
X293322800Y-201540000D01*
X293322800Y-203810000D02*
X293322800Y-203690000D01*
%TO.C,R3*%
X221035000Y-182940000D02*
X221035000Y-189480000D01*
X221035000Y-189480000D02*
X221365000Y-189480000D01*
X221365000Y-182940000D02*
X221035000Y-182940000D01*
X223445000Y-182940000D02*
X223775000Y-182940000D01*
X223775000Y-182940000D02*
X223775000Y-189480000D01*
X223775000Y-189480000D02*
X223445000Y-189480000D01*
%TO.C,D27*%
X242403900Y-145765000D02*
X242403900Y-149825000D01*
X242403900Y-149825000D02*
X244673900Y-149825000D01*
X244673900Y-149825000D02*
X244673900Y-145765000D01*
%TO.C,U6*%
X280150000Y-153250000D02*
X280150000Y-178770000D01*
X280150000Y-178770000D02*
X281800000Y-178770000D01*
X283800000Y-178770000D02*
X285450000Y-178770000D01*
X285450000Y-153250000D02*
X280150000Y-153250000D01*
X285450000Y-178770000D02*
X285450000Y-153250000D01*
X281800000Y-178770000D02*
G75*
G02*
X283800000Y-178770000I1000000J0D01*
G01*
%TO.C,SW16*%
X295140700Y-209076600D02*
X295140700Y-209196600D01*
X295140700Y-210206600D02*
X295140700Y-211346600D01*
X295140700Y-212356600D02*
X295140700Y-212476600D01*
X295140700Y-212476600D02*
X299540700Y-212476600D01*
X299540700Y-209076600D02*
X295140700Y-209076600D01*
X299540700Y-209196600D02*
X299540700Y-209076600D01*
X299540700Y-211346600D02*
X299540700Y-210206600D01*
X299540700Y-212476600D02*
X299540700Y-212356600D01*
%TO.C,SW56*%
X264051400Y-209076600D02*
X264051400Y-209196600D01*
X264051400Y-210206600D02*
X264051400Y-211346600D01*
X264051400Y-212356600D02*
X264051400Y-212476600D01*
X264051400Y-212476600D02*
X268451400Y-212476600D01*
X268451400Y-209076600D02*
X264051400Y-209076600D01*
X268451400Y-209196600D02*
X268451400Y-209076600D01*
X268451400Y-211346600D02*
X268451400Y-210206600D01*
X268451400Y-212476600D02*
X268451400Y-212356600D01*
%TO.C,U1*%
X230995000Y-136560000D02*
X230995000Y-141860000D01*
X230995000Y-141860000D02*
X248895000Y-141860000D01*
X248895000Y-136560000D02*
X230995000Y-136560000D01*
X248895000Y-138210000D02*
X248895000Y-136560000D01*
X248895000Y-141860000D02*
X248895000Y-140210000D01*
X248895000Y-140210000D02*
G75*
G02*
X248895000Y-138210000I0J1000000D01*
G01*
%TO.C,U18*%
X304315000Y-126340000D02*
X306085000Y-126340000D01*
X304315000Y-126390000D02*
X304315000Y-126340000D01*
X304315000Y-129460000D02*
X304315000Y-129410000D01*
X306085000Y-126340000D02*
X306085000Y-126390000D01*
X306085000Y-127510000D02*
X306085000Y-128290000D01*
X306085000Y-129410000D02*
X306085000Y-129460000D01*
X306085000Y-129460000D02*
X304315000Y-129460000D01*
X303770000Y-126390000D02*
X303530000Y-126060000D01*
X304010000Y-126060000D01*
X303770000Y-126390000D01*
G36*
X303770000Y-126390000D02*
G01*
X303530000Y-126060000D01*
X304010000Y-126060000D01*
X303770000Y-126390000D01*
G37*
%TO.C,J4*%
X208262400Y-180102500D02*
X208262400Y-178722500D01*
X209642400Y-180102500D02*
X208262400Y-180102500D01*
X210912400Y-177342500D02*
X228802400Y-177342500D01*
X210912400Y-180102500D02*
X210912400Y-177342500D01*
X210912400Y-180102500D02*
X228802400Y-180102500D01*
X228802400Y-180102500D02*
X228802400Y-177342500D01*
%TO.C,D4*%
X215004800Y-145765000D02*
X215004800Y-149825000D01*
X215004800Y-149825000D02*
X217274800Y-149825000D01*
X217274800Y-149825000D02*
X217274800Y-145765000D01*
%TO.C,D9*%
X302386600Y-144950000D02*
X302386600Y-149010000D01*
X304656600Y-144950000D02*
X302386600Y-144950000D01*
X304656600Y-149010000D02*
X304656600Y-144950000D01*
%TO.C,SW10*%
X245487100Y-200418300D02*
X245487100Y-200538300D01*
X245487100Y-201548300D02*
X245487100Y-202688300D01*
X245487100Y-203698300D02*
X245487100Y-203818300D01*
X245487100Y-203818300D02*
X249887100Y-203818300D01*
X249887100Y-200418300D02*
X245487100Y-200418300D01*
X249887100Y-200538300D02*
X249887100Y-200418300D01*
X249887100Y-202688300D02*
X249887100Y-201548300D01*
X249887100Y-203818300D02*
X249887100Y-203698300D01*
%TO.C,SW4*%
X251705000Y-209076600D02*
X251705000Y-209196600D01*
X251705000Y-210206600D02*
X251705000Y-211346600D01*
X251705000Y-212356600D02*
X251705000Y-212476600D01*
X251705000Y-212476600D02*
X256105000Y-212476600D01*
X256105000Y-209076600D02*
X251705000Y-209076600D01*
X256105000Y-209196600D02*
X256105000Y-209076600D01*
X256105000Y-211346600D02*
X256105000Y-210206600D01*
X256105000Y-212476600D02*
X256105000Y-212356600D01*
%TO.C,D5*%
X273317500Y-173205000D02*
X277377500Y-173205000D01*
X277377500Y-170935000D02*
X273317500Y-170935000D01*
X277377500Y-173205000D02*
X277377500Y-170935000D01*
%TO.C,SW20*%
X239269200Y-209101600D02*
X239269200Y-209221600D01*
X239269200Y-210231600D02*
X239269200Y-211371600D01*
X239269200Y-212381600D02*
X239269200Y-212501600D01*
X239269200Y-212501600D02*
X243669200Y-212501600D01*
X243669200Y-209101600D02*
X239269200Y-209101600D01*
X243669200Y-209221600D02*
X243669200Y-209101600D01*
X243669200Y-211371600D02*
X243669200Y-210231600D01*
X243669200Y-212501600D02*
X243669200Y-212381600D01*
%TO.C,SW48*%
X270269200Y-209076600D02*
X270269200Y-209196600D01*
X270269200Y-210206600D02*
X270269200Y-211346600D01*
X270269200Y-212356600D02*
X270269200Y-212476600D01*
X270269200Y-212476600D02*
X274669200Y-212476600D01*
X274669200Y-209076600D02*
X270269200Y-209076600D01*
X274669200Y-209196600D02*
X274669200Y-209076600D01*
X274669200Y-211346600D02*
X274669200Y-210206600D01*
X274669200Y-212476600D02*
X274669200Y-212356600D01*
%TO.C,D35*%
X266758700Y-145765000D02*
X266758700Y-149825000D01*
X266758700Y-149825000D02*
X269028700Y-149825000D01*
X269028700Y-149825000D02*
X269028700Y-145765000D01*
%TO.C,D24*%
X288303300Y-144950000D02*
X288303300Y-149010000D01*
X290573300Y-144950000D02*
X288303300Y-144950000D01*
X290573300Y-149010000D02*
X290573300Y-144950000D01*
%TO.C,SW18*%
X239269200Y-200418300D02*
X239269200Y-200538300D01*
X239269200Y-201548300D02*
X239269200Y-202688300D01*
X239269200Y-203698300D02*
X239269200Y-203818300D01*
X239269200Y-203818300D02*
X243669200Y-203818300D01*
X243669200Y-200418300D02*
X239269200Y-200418300D01*
X243669200Y-200538300D02*
X243669200Y-200418300D01*
X243669200Y-202688300D02*
X243669200Y-201548300D01*
X243669200Y-203818300D02*
X243669200Y-203698300D01*
%TO.C,D2*%
X211960400Y-145765000D02*
X211960400Y-149825000D01*
X211960400Y-149825000D02*
X214230400Y-149825000D01*
X214230400Y-149825000D02*
X214230400Y-145765000D01*
%TO.C,R4*%
X216985000Y-182940000D02*
X216985000Y-189480000D01*
X216985000Y-189480000D02*
X217315000Y-189480000D01*
X217315000Y-182940000D02*
X216985000Y-182940000D01*
X219395000Y-182940000D02*
X219725000Y-182940000D01*
X219725000Y-182940000D02*
X219725000Y-189480000D01*
X219725000Y-189480000D02*
X219395000Y-189480000D01*
%TO.C,R5*%
X212935000Y-182940000D02*
X212935000Y-189480000D01*
X212935000Y-189480000D02*
X213265000Y-189480000D01*
X213265000Y-182940000D02*
X212935000Y-182940000D01*
X215345000Y-182940000D02*
X215675000Y-182940000D01*
X215675000Y-182940000D02*
X215675000Y-189480000D01*
X215675000Y-189480000D02*
X215345000Y-189480000D01*
%TO.C,J2*%
X208262400Y-192542500D02*
X208262400Y-195302500D01*
X226152400Y-192542500D02*
X208262400Y-192542500D01*
X226152400Y-192542500D02*
X226152400Y-195302500D01*
X226152400Y-195302500D02*
X208262400Y-195302500D01*
X227422400Y-192542500D02*
X228802400Y-192542500D01*
X228802400Y-192542500D02*
X228802400Y-193922500D01*
%TO.C,SW36*%
X226833500Y-209101600D02*
X226833500Y-209221600D01*
X226833500Y-210231600D02*
X226833500Y-211371600D01*
X226833500Y-212381600D02*
X226833500Y-212501600D01*
X226833500Y-212501600D02*
X231233500Y-212501600D01*
X231233500Y-209101600D02*
X226833500Y-209101600D01*
X231233500Y-209221600D02*
X231233500Y-209101600D01*
X231233500Y-211371600D02*
X231233500Y-210231600D01*
X231233500Y-212501600D02*
X231233500Y-212381600D01*
%TO.C,SW26*%
X233051400Y-200418300D02*
X233051400Y-200538300D01*
X233051400Y-201548300D02*
X233051400Y-202688300D01*
X233051400Y-203698300D02*
X233051400Y-203818300D01*
X233051400Y-203818300D02*
X237451400Y-203818300D01*
X237451400Y-200418300D02*
X233051400Y-200418300D01*
X237451400Y-200538300D02*
X237451400Y-200418300D01*
X237451400Y-202688300D02*
X237451400Y-201548300D01*
X237451400Y-203818300D02*
X237451400Y-203698300D01*
%TO.C,D36*%
X269803000Y-145765000D02*
X269803000Y-149825000D01*
X269803000Y-149825000D02*
X272073000Y-149825000D01*
X272073000Y-149825000D02*
X272073000Y-145765000D01*
%TO.C,SW53*%
X264051400Y-196076600D02*
X264051400Y-196196600D01*
X264051400Y-197206600D02*
X264051400Y-198346600D01*
X264051400Y-199356600D02*
X264051400Y-199476600D01*
X264051400Y-199476600D02*
X268451400Y-199476600D01*
X268451400Y-196076600D02*
X264051400Y-196076600D01*
X268451400Y-196196600D02*
X268451400Y-196076600D01*
X268451400Y-198346600D02*
X268451400Y-197206600D01*
X268451400Y-199476600D02*
X268451400Y-199356600D01*
%TO.C,R2*%
X225085000Y-182940000D02*
X225085000Y-189480000D01*
X225085000Y-189480000D02*
X225415000Y-189480000D01*
X225415000Y-182940000D02*
X225085000Y-182940000D01*
X227495000Y-182940000D02*
X227825000Y-182940000D01*
X227825000Y-182940000D02*
X227825000Y-189480000D01*
X227825000Y-189480000D02*
X227495000Y-189480000D01*
%TO.C,SW30*%
X282705000Y-200410000D02*
X282705000Y-200530000D01*
X282705000Y-201540000D02*
X282705000Y-202680000D01*
X282705000Y-203690000D02*
X282705000Y-203810000D01*
X282705000Y-203810000D02*
X287105000Y-203810000D01*
X287105000Y-200410000D02*
X282705000Y-200410000D01*
X287105000Y-200530000D02*
X287105000Y-200410000D01*
X287105000Y-202680000D02*
X287105000Y-201540000D01*
X287105000Y-203810000D02*
X287105000Y-203690000D01*
%TO.C,SW5*%
X301358500Y-196076600D02*
X301358500Y-196196600D01*
X301358500Y-197206600D02*
X301358500Y-198346600D01*
X301358500Y-199356600D02*
X301358500Y-199476600D01*
X301358500Y-199476600D02*
X305758500Y-199476600D01*
X305758500Y-196076600D02*
X301358500Y-196076600D01*
X305758500Y-196196600D02*
X305758500Y-196076600D01*
X305758500Y-198346600D02*
X305758500Y-197206600D01*
X305758500Y-199476600D02*
X305758500Y-199356600D01*
%TO.C,D3*%
X273317500Y-175685000D02*
X277377500Y-175685000D01*
X277377500Y-173415000D02*
X273317500Y-173415000D01*
X277377500Y-175685000D02*
X277377500Y-173415000D01*
%TO.C,SW13*%
X295140700Y-196076600D02*
X295140700Y-196196600D01*
X295140700Y-197206600D02*
X295140700Y-198346600D01*
X295140700Y-199356600D02*
X295140700Y-199476600D01*
X295140700Y-199476600D02*
X299540700Y-199476600D01*
X299540700Y-196076600D02*
X295140700Y-196076600D01*
X299540700Y-196196600D02*
X299540700Y-196076600D01*
X299540700Y-198346600D02*
X299540700Y-197206600D01*
X299540700Y-199476600D02*
X299540700Y-199356600D01*
%TO.C,D16*%
X227182100Y-145765000D02*
X227182100Y-149825000D01*
X227182100Y-149825000D02*
X229452100Y-149825000D01*
X229452100Y-149825000D02*
X229452100Y-145765000D01*
%TO.C,SW63*%
X257833500Y-204743300D02*
X257833500Y-204863300D01*
X257833500Y-205873300D02*
X257833500Y-207013300D01*
X257833500Y-208023300D02*
X257833500Y-208143300D01*
X257833500Y-208143300D02*
X262233500Y-208143300D01*
X262233500Y-204743300D02*
X257833500Y-204743300D01*
X262233500Y-204863300D02*
X262233500Y-204743300D01*
X262233500Y-207013300D02*
X262233500Y-205873300D01*
X262233500Y-208143300D02*
X262233500Y-208023300D01*
%TO.C,SW59*%
X208180000Y-204760000D02*
X208180000Y-204880000D01*
X208180000Y-205890000D02*
X208180000Y-207030000D01*
X208180000Y-208040000D02*
X208180000Y-208160000D01*
X208180000Y-208160000D02*
X212580000Y-208160000D01*
X212580000Y-204760000D02*
X208180000Y-204760000D01*
X212580000Y-204880000D02*
X212580000Y-204760000D01*
X212580000Y-207030000D02*
X212580000Y-205890000D01*
X212580000Y-208160000D02*
X212580000Y-208040000D01*
%TO.C,D32*%
X257625600Y-145765000D02*
X257625600Y-149825000D01*
X257625600Y-149825000D02*
X259895600Y-149825000D01*
X259895600Y-149825000D02*
X259895600Y-145765000D01*
%TO.C,D26*%
X239359500Y-145765000D02*
X239359500Y-149825000D01*
X239359500Y-149825000D02*
X241629500Y-149825000D01*
X241629500Y-149825000D02*
X241629500Y-145765000D01*
%TO.C,U3*%
X208475000Y-126270000D02*
X208475000Y-127920000D01*
X208475000Y-129920000D02*
X208475000Y-131570000D01*
X208475000Y-131570000D02*
X226375000Y-131570000D01*
X226375000Y-126270000D02*
X208475000Y-126270000D01*
X226375000Y-131570000D02*
X226375000Y-126270000D01*
X208475000Y-127920000D02*
G75*
G02*
X208475000Y-129920000I0J-1000000D01*
G01*
%TO.C,SW41*%
X220615700Y-196076600D02*
X220615700Y-196196600D01*
X220615700Y-197206600D02*
X220615700Y-198346600D01*
X220615700Y-199356600D02*
X220615700Y-199476600D01*
X220615700Y-199476600D02*
X225015700Y-199476600D01*
X225015700Y-196076600D02*
X220615700Y-196076600D01*
X225015700Y-196196600D02*
X225015700Y-196076600D01*
X225015700Y-198346600D02*
X225015700Y-197206600D01*
X225015700Y-199476600D02*
X225015700Y-199356600D01*
%TO.C,J5*%
X207015000Y-71485000D02*
X207015000Y-70105000D01*
X208395000Y-71485000D02*
X207015000Y-71485000D01*
X209665000Y-68725000D02*
X308835000Y-68725000D01*
X209665000Y-71485000D02*
X209665000Y-68725000D01*
X209665000Y-71485000D02*
X308835000Y-71485000D01*
X308835000Y-71485000D02*
X308835000Y-68725000D01*
%TO.C,SW31*%
X282705000Y-204743300D02*
X282705000Y-204863300D01*
X282705000Y-205873300D02*
X282705000Y-207013300D01*
X282705000Y-208023300D02*
X282705000Y-208143300D01*
X282705000Y-208143300D02*
X287105000Y-208143300D01*
X287105000Y-204743300D02*
X282705000Y-204743300D01*
X287105000Y-204863300D02*
X287105000Y-204743300D01*
X287105000Y-207013300D02*
X287105000Y-205873300D01*
X287105000Y-208143300D02*
X287105000Y-208023300D01*
%TO.C,D14*%
X273317500Y-165765000D02*
X277377500Y-165765000D01*
X277377500Y-163495000D02*
X273317500Y-163495000D01*
X277377500Y-165765000D02*
X277377500Y-163495000D01*
%TO.C,U12*%
X289395000Y-192270000D02*
X289395000Y-187210000D01*
X296535000Y-182150000D02*
X296535000Y-192270000D01*
%TO.C,D31*%
X254581300Y-145765000D02*
X254581300Y-149825000D01*
X254581300Y-149825000D02*
X256851300Y-149825000D01*
X256851300Y-149825000D02*
X256851300Y-145765000D01*
%TO.C,Y3*%
X207745000Y-156030000D02*
X207745000Y-175430000D01*
X208495000Y-176180000D02*
X220645000Y-176180000D01*
X219895000Y-155280000D02*
X208495000Y-155280000D01*
X220645000Y-176180000D02*
X220645000Y-156030000D01*
X207745000Y-156030000D02*
G75*
G02*
X208495000Y-155280000I750000J0D01*
G01*
X208495000Y-176180000D02*
G75*
G02*
X207745000Y-175430000I0J750000D01*
G01*
X219895000Y-155280000D02*
G75*
G02*
X220645000Y-156030000I0J-750000D01*
G01*
%TO.C,SW15*%
X295140700Y-204743300D02*
X295140700Y-204863300D01*
X295140700Y-205873300D02*
X295140700Y-207013300D01*
X295140700Y-208023300D02*
X295140700Y-208143300D01*
X295140700Y-208143300D02*
X299540700Y-208143300D01*
X299540700Y-204743300D02*
X295140700Y-204743300D01*
X299540700Y-204863300D02*
X299540700Y-204743300D01*
X299540700Y-207013300D02*
X299540700Y-205873300D01*
X299540700Y-208143300D02*
X299540700Y-208023300D01*
%TO.C,SW2*%
X251705000Y-200393300D02*
X251705000Y-200513300D01*
X251705000Y-201523300D02*
X251705000Y-202663300D01*
X251705000Y-203673300D02*
X251705000Y-203793300D01*
X251705000Y-203793300D02*
X256105000Y-203793300D01*
X256105000Y-200393300D02*
X251705000Y-200393300D01*
X256105000Y-200513300D02*
X256105000Y-200393300D01*
X256105000Y-202663300D02*
X256105000Y-201523300D01*
X256105000Y-203793300D02*
X256105000Y-203673300D01*
%TO.C,J3*%
X209007200Y-79411000D02*
X210387200Y-79411000D01*
X209007200Y-80791000D02*
X209007200Y-79411000D01*
X209007200Y-82061000D02*
X209007200Y-115191000D01*
X209007200Y-82061000D02*
X211767200Y-82061000D01*
X209007200Y-115191000D02*
X211767200Y-115191000D01*
X211767200Y-82061000D02*
X211767200Y-115191000D01*
%TO.C,D34*%
X263714300Y-145765000D02*
X263714300Y-149825000D01*
X263714300Y-149825000D02*
X265984300Y-149825000D01*
X265984300Y-149825000D02*
X265984300Y-145765000D01*
%TO.C,D23*%
X273317500Y-158325000D02*
X277377500Y-158325000D01*
X277377500Y-156055000D02*
X273317500Y-156055000D01*
X277377500Y-158325000D02*
X277377500Y-156055000D01*
%TO.C,D29*%
X248492600Y-145765000D02*
X248492600Y-149825000D01*
X248492600Y-149825000D02*
X250762600Y-149825000D01*
X250762600Y-149825000D02*
X250762600Y-145765000D01*
%TO.C,SW29*%
X282705000Y-196076600D02*
X282705000Y-196196600D01*
X282705000Y-197206600D02*
X282705000Y-198346600D01*
X282705000Y-199356600D02*
X282705000Y-199476600D01*
X282705000Y-199476600D02*
X287105000Y-199476600D01*
X287105000Y-196076600D02*
X282705000Y-196076600D01*
X287105000Y-196196600D02*
X287105000Y-196076600D01*
X287105000Y-198346600D02*
X287105000Y-197206600D01*
X287105000Y-199476600D02*
X287105000Y-199356600D01*
%TO.C,U11*%
X254340000Y-153290000D02*
X254340000Y-178810000D01*
X254340000Y-178810000D02*
X259640000Y-178810000D01*
X255990000Y-153290000D02*
X254340000Y-153290000D01*
X259640000Y-153290000D02*
X257990000Y-153290000D01*
X259640000Y-178810000D02*
X259640000Y-153290000D01*
X257990000Y-153290000D02*
G75*
G02*
X255990000Y-153290000I-1000000J0D01*
G01*
%TO.C,D11*%
X273317500Y-168245000D02*
X277377500Y-168245000D01*
X277377500Y-165975000D02*
X273317500Y-165975000D01*
X277377500Y-168245000D02*
X277377500Y-165975000D01*
%TO.C,SW28*%
X233051400Y-209101600D02*
X233051400Y-209221600D01*
X233051400Y-210231600D02*
X233051400Y-211371600D01*
X233051400Y-212381600D02*
X233051400Y-212501600D01*
X233051400Y-212501600D02*
X237451400Y-212501600D01*
X237451400Y-209101600D02*
X233051400Y-209101600D01*
X237451400Y-209221600D02*
X237451400Y-209101600D01*
X237451400Y-211371600D02*
X237451400Y-210231600D01*
X237451400Y-212501600D02*
X237451400Y-212381600D01*
%TO.C,D17*%
X273317500Y-163285000D02*
X277377500Y-163285000D01*
X277377500Y-161015000D02*
X273317500Y-161015000D01*
X277377500Y-163285000D02*
X277377500Y-161015000D01*
%TO.C,SW52*%
X214397800Y-209101600D02*
X214397800Y-209221600D01*
X214397800Y-210231600D02*
X214397800Y-211371600D01*
X214397800Y-212381600D02*
X214397800Y-212501600D01*
X214397800Y-212501600D02*
X218797800Y-212501600D01*
X218797800Y-209101600D02*
X214397800Y-209101600D01*
X218797800Y-209221600D02*
X218797800Y-209101600D01*
X218797800Y-211371600D02*
X218797800Y-210231600D01*
X218797800Y-212501600D02*
X218797800Y-212381600D01*
%TO.C,U5*%
X264545000Y-153300000D02*
X264545000Y-178820000D01*
X264545000Y-178820000D02*
X266195000Y-178820000D01*
X268195000Y-178820000D02*
X269845000Y-178820000D01*
X269845000Y-153300000D02*
X264545000Y-153300000D01*
X269845000Y-178820000D02*
X269845000Y-153300000D01*
X266195000Y-178820000D02*
G75*
G02*
X268195000Y-178820000I1000000J0D01*
G01*
%TO.C,SW45*%
X270269200Y-196076600D02*
X270269200Y-196196600D01*
X270269200Y-197206600D02*
X270269200Y-198346600D01*
X270269200Y-199356600D02*
X270269200Y-199476600D01*
X270269200Y-199476600D02*
X274669200Y-199476600D01*
X274669200Y-196076600D02*
X270269200Y-196076600D01*
X274669200Y-196196600D02*
X274669200Y-196076600D01*
X274669200Y-198346600D02*
X274669200Y-197206600D01*
X274669200Y-199476600D02*
X274669200Y-199356600D01*
%TO.C,SW6*%
X301358500Y-200410000D02*
X301358500Y-200530000D01*
X301358500Y-201540000D02*
X301358500Y-202680000D01*
X301358500Y-203690000D02*
X301358500Y-203810000D01*
X301358500Y-203810000D02*
X305758500Y-203810000D01*
X305758500Y-200410000D02*
X301358500Y-200410000D01*
X305758500Y-200530000D02*
X305758500Y-200410000D01*
X305758500Y-202680000D02*
X305758500Y-201540000D01*
X305758500Y-203810000D02*
X305758500Y-203690000D01*
%TO.C,D30*%
X251536900Y-145765000D02*
X251536900Y-149825000D01*
X251536900Y-149825000D02*
X253806900Y-149825000D01*
X253806900Y-149825000D02*
X253806900Y-145765000D01*
%TO.C,D20*%
X273317500Y-160805000D02*
X277377500Y-160805000D01*
X277377500Y-158535000D02*
X273317500Y-158535000D01*
X277377500Y-160805000D02*
X277377500Y-158535000D01*
%TO.C,D7*%
X218049100Y-145765000D02*
X218049100Y-149825000D01*
X218049100Y-149825000D02*
X220319100Y-149825000D01*
X220319100Y-149825000D02*
X220319100Y-145765000D01*
%TO.C,D1*%
X208916100Y-145765000D02*
X208916100Y-149825000D01*
X208916100Y-149825000D02*
X211186100Y-149825000D01*
X211186100Y-149825000D02*
X211186100Y-145765000D01*
%TO.C,SW27*%
X233051400Y-204760000D02*
X233051400Y-204880000D01*
X233051400Y-205890000D02*
X233051400Y-207030000D01*
X233051400Y-208040000D02*
X233051400Y-208160000D01*
X233051400Y-208160000D02*
X237451400Y-208160000D01*
X237451400Y-204760000D02*
X233051400Y-204760000D01*
X237451400Y-204880000D02*
X237451400Y-204760000D01*
X237451400Y-207030000D02*
X237451400Y-205890000D01*
X237451400Y-208160000D02*
X237451400Y-208040000D01*
%TO.C,SW42*%
X220615700Y-200418300D02*
X220615700Y-200538300D01*
X220615700Y-201548300D02*
X220615700Y-202688300D01*
X220615700Y-203698300D02*
X220615700Y-203818300D01*
X220615700Y-203818300D02*
X225015700Y-203818300D01*
X225015700Y-200418300D02*
X220615700Y-200418300D01*
X225015700Y-200538300D02*
X225015700Y-200418300D01*
X225015700Y-202688300D02*
X225015700Y-201548300D01*
X225015700Y-203818300D02*
X225015700Y-203698300D01*
%TO.C,SW14*%
X295140700Y-200410000D02*
X295140700Y-200530000D01*
X295140700Y-201540000D02*
X295140700Y-202680000D01*
X295140700Y-203690000D02*
X295140700Y-203810000D01*
X295140700Y-203810000D02*
X299540700Y-203810000D01*
X299540700Y-200410000D02*
X295140700Y-200410000D01*
X299540700Y-200530000D02*
X299540700Y-200410000D01*
X299540700Y-202680000D02*
X299540700Y-201540000D01*
X299540700Y-203810000D02*
X299540700Y-203690000D01*
%TO.C,SW64*%
X257833500Y-209076600D02*
X257833500Y-209196600D01*
X257833500Y-210206600D02*
X257833500Y-211346600D01*
X257833500Y-212356600D02*
X257833500Y-212476600D01*
X257833500Y-212476600D02*
X262233500Y-212476600D01*
X262233500Y-209076600D02*
X257833500Y-209076600D01*
X262233500Y-209196600D02*
X262233500Y-209076600D01*
X262233500Y-211346600D02*
X262233500Y-210206600D01*
X262233500Y-212476600D02*
X262233500Y-212356600D01*
%TO.C,D38*%
X275891700Y-145765000D02*
X275891700Y-149825000D01*
X275891700Y-149825000D02*
X278161700Y-149825000D01*
X278161700Y-149825000D02*
X278161700Y-145765000D01*
%TO.C,SW3*%
X251705000Y-204735000D02*
X251705000Y-204855000D01*
X251705000Y-205865000D02*
X251705000Y-207005000D01*
X251705000Y-208015000D02*
X251705000Y-208135000D01*
X251705000Y-208135000D02*
X256105000Y-208135000D01*
X256105000Y-204735000D02*
X251705000Y-204735000D01*
X256105000Y-204855000D02*
X256105000Y-204735000D01*
X256105000Y-207005000D02*
X256105000Y-205865000D01*
X256105000Y-208135000D02*
X256105000Y-208015000D01*
%TO.C,U19*%
X304315000Y-131540000D02*
X306085000Y-131540000D01*
X304315000Y-131590000D02*
X304315000Y-131540000D01*
X304315000Y-134660000D02*
X304315000Y-134610000D01*
X306085000Y-131540000D02*
X306085000Y-131590000D01*
X306085000Y-132710000D02*
X306085000Y-133490000D01*
X306085000Y-134610000D02*
X306085000Y-134660000D01*
X306085000Y-134660000D02*
X304315000Y-134660000D01*
X303770000Y-131590000D02*
X303530000Y-131260000D01*
X304010000Y-131260000D01*
X303770000Y-131590000D01*
G36*
X303770000Y-131590000D02*
G01*
X303530000Y-131260000D01*
X304010000Y-131260000D01*
X303770000Y-131590000D01*
G37*
%TO.C,R6*%
X208885000Y-182940000D02*
X208885000Y-189480000D01*
X208885000Y-189480000D02*
X209215000Y-189480000D01*
X209215000Y-182940000D02*
X208885000Y-182940000D01*
X211295000Y-182940000D02*
X211625000Y-182940000D01*
X211625000Y-182940000D02*
X211625000Y-189480000D01*
X211625000Y-189480000D02*
X211295000Y-189480000D01*
%TO.C,SW23*%
X288922800Y-204743300D02*
X288922800Y-204863300D01*
X288922800Y-205873300D02*
X288922800Y-207013300D01*
X288922800Y-208023300D02*
X288922800Y-208143300D01*
X288922800Y-208143300D02*
X293322800Y-208143300D01*
X293322800Y-204743300D02*
X288922800Y-204743300D01*
X293322800Y-204863300D02*
X293322800Y-204743300D01*
X293322800Y-207013300D02*
X293322800Y-205873300D01*
X293322800Y-208143300D02*
X293322800Y-208023300D01*
%TO.C,SW43*%
X220615700Y-204760000D02*
X220615700Y-204880000D01*
X220615700Y-205890000D02*
X220615700Y-207030000D01*
X220615700Y-208040000D02*
X220615700Y-208160000D01*
X220615700Y-208160000D02*
X225015700Y-208160000D01*
X225015700Y-204760000D02*
X220615700Y-204760000D01*
X225015700Y-204880000D02*
X225015700Y-204760000D01*
X225015700Y-207030000D02*
X225015700Y-205890000D01*
X225015700Y-208160000D02*
X225015700Y-208040000D01*
%TO.C,SW35*%
X226833500Y-204760000D02*
X226833500Y-204880000D01*
X226833500Y-205890000D02*
X226833500Y-207030000D01*
X226833500Y-208040000D02*
X226833500Y-208160000D01*
X226833500Y-208160000D02*
X231233500Y-208160000D01*
X231233500Y-204760000D02*
X226833500Y-204760000D01*
X231233500Y-204880000D02*
X231233500Y-204760000D01*
X231233500Y-207030000D02*
X231233500Y-205890000D01*
X231233500Y-208160000D02*
X231233500Y-208040000D01*
%TO.C,SW21*%
X288922800Y-196076600D02*
X288922800Y-196196600D01*
X288922800Y-197206600D02*
X288922800Y-198346600D01*
X288922800Y-199356600D02*
X288922800Y-199476600D01*
X288922800Y-199476600D02*
X293322800Y-199476600D01*
X293322800Y-196076600D02*
X288922800Y-196076600D01*
X293322800Y-196196600D02*
X293322800Y-196076600D01*
X293322800Y-198346600D02*
X293322800Y-197206600D01*
X293322800Y-199476600D02*
X293322800Y-199356600D01*
%TO.C,D18*%
X293936600Y-144950000D02*
X293936600Y-149010000D01*
X296206600Y-144950000D02*
X293936600Y-144950000D01*
X296206600Y-149010000D02*
X296206600Y-144950000D01*
%TO.C,SW39*%
X276487100Y-204743300D02*
X276487100Y-204863300D01*
X276487100Y-205873300D02*
X276487100Y-207013300D01*
X276487100Y-208023300D02*
X276487100Y-208143300D01*
X276487100Y-208143300D02*
X280887100Y-208143300D01*
X280887100Y-204743300D02*
X276487100Y-204743300D01*
X280887100Y-204863300D02*
X280887100Y-204743300D01*
X280887100Y-207013300D02*
X280887100Y-205873300D01*
X280887100Y-208143300D02*
X280887100Y-208023300D01*
%TO.C,SW24*%
X288922800Y-209076600D02*
X288922800Y-209196600D01*
X288922800Y-210206600D02*
X288922800Y-211346600D01*
X288922800Y-212356600D02*
X288922800Y-212476600D01*
X288922800Y-212476600D02*
X293322800Y-212476600D01*
X293322800Y-209076600D02*
X288922800Y-209076600D01*
X293322800Y-209196600D02*
X293322800Y-209076600D01*
X293322800Y-211346600D02*
X293322800Y-210206600D01*
X293322800Y-212476600D02*
X293322800Y-212356600D01*
%TO.C,SW47*%
X270269200Y-204743300D02*
X270269200Y-204863300D01*
X270269200Y-205873300D02*
X270269200Y-207013300D01*
X270269200Y-208023300D02*
X270269200Y-208143300D01*
X270269200Y-208143300D02*
X274669200Y-208143300D01*
X274669200Y-204743300D02*
X270269200Y-204743300D01*
X274669200Y-204863300D02*
X274669200Y-204743300D01*
X274669200Y-207013300D02*
X274669200Y-205873300D01*
X274669200Y-208143300D02*
X274669200Y-208023300D01*
%TO.C,SW38*%
X276487100Y-200410000D02*
X276487100Y-200530000D01*
X276487100Y-201540000D02*
X276487100Y-202680000D01*
X276487100Y-203690000D02*
X276487100Y-203810000D01*
X276487100Y-203810000D02*
X280887100Y-203810000D01*
X280887100Y-200410000D02*
X276487100Y-200410000D01*
X280887100Y-200530000D02*
X280887100Y-200410000D01*
X280887100Y-202680000D02*
X280887100Y-201540000D01*
X280887100Y-203810000D02*
X280887100Y-203690000D01*
%TO.C,SW17*%
X239269200Y-196076600D02*
X239269200Y-196196600D01*
X239269200Y-197206600D02*
X239269200Y-198346600D01*
X239269200Y-199356600D02*
X239269200Y-199476600D01*
X239269200Y-199476600D02*
X243669200Y-199476600D01*
X243669200Y-196076600D02*
X239269200Y-196076600D01*
X243669200Y-196196600D02*
X243669200Y-196076600D01*
X243669200Y-198346600D02*
X243669200Y-197206600D01*
X243669200Y-199476600D02*
X243669200Y-199356600D01*
%TO.C,D12*%
X299570000Y-144950000D02*
X299570000Y-149010000D01*
X301840000Y-144950000D02*
X299570000Y-144950000D01*
X301840000Y-149010000D02*
X301840000Y-144950000D01*
%TO.C,IC1*%
D12*
X250990000Y-150390000D02*
X236380000Y-150390000D01*
X251860000Y-182650000D02*
X236380000Y-182650000D01*
%TO.C,D28*%
D11*
X245448200Y-145765000D02*
X245448200Y-149825000D01*
X245448200Y-149825000D02*
X247718200Y-149825000D01*
X247718200Y-149825000D02*
X247718200Y-145765000D01*
%TO.C,SW37*%
X276487100Y-196076600D02*
X276487100Y-196196600D01*
X276487100Y-197206600D02*
X276487100Y-198346600D01*
X276487100Y-199356600D02*
X276487100Y-199476600D01*
X276487100Y-199476600D02*
X280887100Y-199476600D01*
X280887100Y-196076600D02*
X276487100Y-196076600D01*
X280887100Y-196196600D02*
X280887100Y-196076600D01*
X280887100Y-198346600D02*
X280887100Y-197206600D01*
X280887100Y-199476600D02*
X280887100Y-199356600D01*
%TO.C,SW33*%
X226833500Y-196076600D02*
X226833500Y-196196600D01*
X226833500Y-197206600D02*
X226833500Y-198346600D01*
X226833500Y-199356600D02*
X226833500Y-199476600D01*
X226833500Y-199476600D02*
X231233500Y-199476600D01*
X231233500Y-196076600D02*
X226833500Y-196076600D01*
X231233500Y-196196600D02*
X231233500Y-196076600D01*
X231233500Y-198346600D02*
X231233500Y-197206600D01*
X231233500Y-199476600D02*
X231233500Y-199356600D01*
%TO.C,Y2*%
X249620000Y-184425000D02*
G75*
G02*
X252690000Y-184425000I1535000J-484711D01*
G01*
X252690000Y-185395000D02*
G75*
G02*
X249620000Y-185395000I-1535000J484711D01*
G01*
%TO.C,SW65*%
X246255000Y-190010000D02*
X246255000Y-191510000D01*
X247505000Y-194010000D02*
X252005000Y-194010000D01*
X252005000Y-187510000D02*
X247505000Y-187510000D01*
X253255000Y-191510000D02*
X253255000Y-190010000D01*
%TO.C,SW8*%
X301358500Y-209076600D02*
X301358500Y-209196600D01*
X301358500Y-210206600D02*
X301358500Y-211346600D01*
X301358500Y-212356600D02*
X301358500Y-212476600D01*
X301358500Y-212476600D02*
X305758500Y-212476600D01*
X305758500Y-209076600D02*
X301358500Y-209076600D01*
X305758500Y-209196600D02*
X305758500Y-209076600D01*
X305758500Y-211346600D02*
X305758500Y-210206600D01*
X305758500Y-212476600D02*
X305758500Y-212356600D01*
%TO.C,SW32*%
X282705000Y-209076600D02*
X282705000Y-209196600D01*
X282705000Y-210206600D02*
X282705000Y-211346600D01*
X282705000Y-212356600D02*
X282705000Y-212476600D01*
X282705000Y-212476600D02*
X287105000Y-212476600D01*
X287105000Y-209076600D02*
X282705000Y-209076600D01*
X287105000Y-209196600D02*
X287105000Y-209076600D01*
X287105000Y-211346600D02*
X287105000Y-210206600D01*
X287105000Y-212476600D02*
X287105000Y-212356600D01*
%TO.C,SW25*%
X233051400Y-196076600D02*
X233051400Y-196196600D01*
X233051400Y-197206600D02*
X233051400Y-198346600D01*
X233051400Y-199356600D02*
X233051400Y-199476600D01*
X233051400Y-199476600D02*
X237451400Y-199476600D01*
X237451400Y-196076600D02*
X233051400Y-196076600D01*
X237451400Y-196196600D02*
X237451400Y-196076600D01*
X237451400Y-198346600D02*
X237451400Y-197206600D01*
X237451400Y-199476600D02*
X237451400Y-199356600D01*
%TO.C,D33*%
X260670000Y-145765000D02*
X260670000Y-149825000D01*
X260670000Y-149825000D02*
X262940000Y-149825000D01*
X262940000Y-149825000D02*
X262940000Y-145765000D01*
%TO.C,Y1*%
X222045000Y-156030000D02*
X222045000Y-175430000D01*
X222795000Y-176180000D02*
X234945000Y-176180000D01*
X234195000Y-155280000D02*
X222795000Y-155280000D01*
X234945000Y-176180000D02*
X234945000Y-156030000D01*
X222045000Y-156030000D02*
G75*
G02*
X222795000Y-155280000I750000J0D01*
G01*
X222795000Y-176180000D02*
G75*
G02*
X222045000Y-175430000I0J750000D01*
G01*
X234195000Y-155280000D02*
G75*
G02*
X234945000Y-156030000I0J-750000D01*
G01*
%TO.C,U14*%
X299595000Y-192270000D02*
X299595000Y-187210000D01*
X306735000Y-182150000D02*
X306735000Y-192270000D01*
%TO.C,SW12*%
X245487100Y-209101600D02*
X245487100Y-209221600D01*
X245487100Y-210231600D02*
X245487100Y-211371600D01*
X245487100Y-212381600D02*
X245487100Y-212501600D01*
X245487100Y-212501600D02*
X249887100Y-212501600D01*
X249887100Y-209101600D02*
X245487100Y-209101600D01*
X249887100Y-209221600D02*
X249887100Y-209101600D01*
X249887100Y-211371600D02*
X249887100Y-210231600D01*
X249887100Y-212501600D02*
X249887100Y-212381600D01*
%TO.C,D15*%
X296753300Y-144950000D02*
X296753300Y-149010000D01*
X299023300Y-144950000D02*
X296753300Y-144950000D01*
X299023300Y-149010000D02*
X299023300Y-144950000D01*
%TO.C,SW46*%
X270269200Y-200410000D02*
X270269200Y-200530000D01*
X270269200Y-201540000D02*
X270269200Y-202680000D01*
X270269200Y-203690000D02*
X270269200Y-203810000D01*
X270269200Y-203810000D02*
X274669200Y-203810000D01*
X274669200Y-200410000D02*
X270269200Y-200410000D01*
X274669200Y-200530000D02*
X274669200Y-200410000D01*
X274669200Y-202680000D02*
X274669200Y-201540000D01*
X274669200Y-203810000D02*
X274669200Y-203690000D01*
%TO.C,U13*%
X290370000Y-153150000D02*
X290370000Y-178670000D01*
X290370000Y-178670000D02*
X292020000Y-178670000D01*
X294020000Y-178670000D02*
X295670000Y-178670000D01*
X295670000Y-153150000D02*
X290370000Y-153150000D01*
X295670000Y-178670000D02*
X295670000Y-153150000D01*
X292020000Y-178670000D02*
G75*
G02*
X294020000Y-178670000I1000000J0D01*
G01*
%TO.C,U2*%
X228285000Y-126360000D02*
X228285000Y-128010000D01*
X228285000Y-130010000D02*
X228285000Y-131660000D01*
X228285000Y-131660000D02*
X248725000Y-131660000D01*
X229555000Y-131660000D02*
X247455000Y-131660000D01*
X247455000Y-126360000D02*
X229555000Y-126360000D01*
X248725000Y-126360000D02*
X228285000Y-126360000D01*
X248725000Y-131660000D02*
X248725000Y-126360000D01*
X228285000Y-128010000D02*
G75*
G02*
X228285000Y-130010000I0J-1000000D01*
G01*
X229180000Y-131042000D02*
G75*
G02*
X228780000Y-131042000I-200000J0D01*
G01*
X228780000Y-131042000D02*
G75*
G02*
X229180000Y-131042000I200000J0D01*
G01*
X229105000Y-131042000D02*
G75*
G02*
X228855000Y-131042000I-125000J0D01*
G01*
X228855000Y-131042000D02*
G75*
G02*
X229105000Y-131042000I125000J0D01*
G01*
X229030000Y-131042000D02*
G75*
G02*
X228930000Y-131042000I-50000J0D01*
G01*
X228930000Y-131042000D02*
G75*
G02*
X229030000Y-131042000I50000J0D01*
G01*
%TO.C,D13*%
X224137800Y-145765000D02*
X224137800Y-149825000D01*
X224137800Y-149825000D02*
X226407800Y-149825000D01*
X226407800Y-149825000D02*
X226407800Y-145765000D01*
%TO.C,SW40*%
X276487100Y-209076600D02*
X276487100Y-209196600D01*
X276487100Y-210206600D02*
X276487100Y-211346600D01*
X276487100Y-212356600D02*
X276487100Y-212476600D01*
X276487100Y-212476600D02*
X280887100Y-212476600D01*
X280887100Y-209076600D02*
X276487100Y-209076600D01*
X280887100Y-209196600D02*
X280887100Y-209076600D01*
X280887100Y-211346600D02*
X280887100Y-210206600D01*
X280887100Y-212476600D02*
X280887100Y-212356600D01*
%TO.C,SW34*%
X226833500Y-200418300D02*
X226833500Y-200538300D01*
X226833500Y-201548300D02*
X226833500Y-202688300D01*
X226833500Y-203698300D02*
X226833500Y-203818300D01*
X226833500Y-203818300D02*
X231233500Y-203818300D01*
X231233500Y-200418300D02*
X226833500Y-200418300D01*
X231233500Y-200538300D02*
X231233500Y-200418300D01*
X231233500Y-202688300D02*
X231233500Y-201548300D01*
X231233500Y-203818300D02*
X231233500Y-203698300D01*
%TO.C,SW44*%
X220615700Y-209101600D02*
X220615700Y-209221600D01*
X220615700Y-210231600D02*
X220615700Y-211371600D01*
X220615700Y-212381600D02*
X220615700Y-212501600D01*
X220615700Y-212501600D02*
X225015700Y-212501600D01*
X225015700Y-209101600D02*
X220615700Y-209101600D01*
X225015700Y-209221600D02*
X225015700Y-209101600D01*
X225015700Y-211371600D02*
X225015700Y-210231600D01*
X225015700Y-212501600D02*
X225015700Y-212381600D01*
%TO.C,D10*%
X221093400Y-145765000D02*
X221093400Y-149825000D01*
X221093400Y-149825000D02*
X223363400Y-149825000D01*
X223363400Y-149825000D02*
X223363400Y-145765000D01*
%TO.C,SW50*%
X214397800Y-200418300D02*
X214397800Y-200538300D01*
X214397800Y-201548300D02*
X214397800Y-202688300D01*
X214397800Y-203698300D02*
X214397800Y-203818300D01*
X214397800Y-203818300D02*
X218797800Y-203818300D01*
X218797800Y-200418300D02*
X214397800Y-200418300D01*
X218797800Y-200538300D02*
X218797800Y-200418300D01*
X218797800Y-202688300D02*
X218797800Y-201548300D01*
X218797800Y-203818300D02*
X218797800Y-203698300D01*
%TO.C,SW11*%
X245487100Y-204760000D02*
X245487100Y-204880000D01*
X245487100Y-205890000D02*
X245487100Y-207030000D01*
X245487100Y-208040000D02*
X245487100Y-208160000D01*
X245487100Y-208160000D02*
X249887100Y-208160000D01*
X249887100Y-204760000D02*
X245487100Y-204760000D01*
X249887100Y-204880000D02*
X249887100Y-204760000D01*
X249887100Y-207030000D02*
X249887100Y-205890000D01*
X249887100Y-208160000D02*
X249887100Y-208040000D01*
%TO.C,D39*%
X278936100Y-145765000D02*
X278936100Y-149825000D01*
X278936100Y-149825000D02*
X281206100Y-149825000D01*
X281206100Y-149825000D02*
X281206100Y-145765000D01*
%TO.C,D25*%
X236315200Y-145765000D02*
X236315200Y-149825000D01*
X236315200Y-149825000D02*
X238585200Y-149825000D01*
X238585200Y-149825000D02*
X238585200Y-145765000D01*
%TO.C,R1*%
X229135000Y-182940000D02*
X229135000Y-189480000D01*
X229135000Y-189480000D02*
X229465000Y-189480000D01*
X229465000Y-182940000D02*
X229135000Y-182940000D01*
X231545000Y-182940000D02*
X231875000Y-182940000D01*
X231875000Y-182940000D02*
X231875000Y-189480000D01*
X231875000Y-189480000D02*
X231545000Y-189480000D01*
%TO.C,J1*%
X282085000Y-193990000D02*
X282085000Y-192610000D01*
X283465000Y-193990000D02*
X282085000Y-193990000D01*
X284735000Y-191230000D02*
X287385000Y-191230000D01*
X284735000Y-193990000D02*
X284735000Y-191230000D01*
X284735000Y-193990000D02*
X287385000Y-193990000D01*
X287385000Y-193990000D02*
X287385000Y-191230000D01*
%TO.C,D22*%
X233270800Y-145765000D02*
X233270800Y-149825000D01*
X233270800Y-149825000D02*
X235540800Y-149825000D01*
X235540800Y-149825000D02*
X235540800Y-145765000D01*
%TO.C,D8*%
X273317500Y-170725000D02*
X277377500Y-170725000D01*
X277377500Y-168455000D02*
X273317500Y-168455000D01*
X277377500Y-170725000D02*
X277377500Y-168455000D01*
%TO.C,SW51*%
X214397800Y-204760000D02*
X214397800Y-204880000D01*
X214397800Y-205890000D02*
X214397800Y-207030000D01*
X214397800Y-208040000D02*
X214397800Y-208160000D01*
X214397800Y-208160000D02*
X218797800Y-208160000D01*
X218797800Y-204760000D02*
X214397800Y-204760000D01*
X218797800Y-204880000D02*
X218797800Y-204760000D01*
X218797800Y-207030000D02*
X218797800Y-205890000D01*
X218797800Y-208160000D02*
X218797800Y-208040000D01*
%TO.C,SW62*%
X257833500Y-200410000D02*
X257833500Y-200530000D01*
X257833500Y-201540000D02*
X257833500Y-202680000D01*
X257833500Y-203690000D02*
X257833500Y-203810000D01*
X257833500Y-203810000D02*
X262233500Y-203810000D01*
X262233500Y-200410000D02*
X257833500Y-200410000D01*
X262233500Y-200530000D02*
X262233500Y-200410000D01*
X262233500Y-202680000D02*
X262233500Y-201540000D01*
X262233500Y-203810000D02*
X262233500Y-203690000D01*
%TO.C,U15*%
X300470000Y-153150000D02*
X300470000Y-178670000D01*
X300470000Y-178670000D02*
X302120000Y-178670000D01*
X304120000Y-178670000D02*
X305770000Y-178670000D01*
X305770000Y-153150000D02*
X300470000Y-153150000D01*
X305770000Y-178670000D02*
X305770000Y-153150000D01*
X302120000Y-178670000D02*
G75*
G02*
X304120000Y-178670000I1000000J0D01*
G01*
%TO.C,SW7*%
X301358500Y-204743300D02*
X301358500Y-204863300D01*
X301358500Y-205873300D02*
X301358500Y-207013300D01*
X301358500Y-208023300D02*
X301358500Y-208143300D01*
X301358500Y-208143300D02*
X305758500Y-208143300D01*
X305758500Y-204743300D02*
X301358500Y-204743300D01*
X305758500Y-204863300D02*
X305758500Y-204743300D01*
X305758500Y-207013300D02*
X305758500Y-205873300D01*
X305758500Y-208143300D02*
X305758500Y-208023300D01*
%TD*%
M02*
