M48
; DRILL file KiCad 10.0.1 date 2026-04-24T22:44:23
; FORMAT={-:-/ absolute / metric / decimal}
; #@! TF.CreationDate,2026-04-24T22:44:23+08:00
; #@! TF.GenerationSoftware,Kicad,Pcbnew,10.0.1
; #@! TF.FileFunction,Plated,1,2,PTH
FMAT,2
METRIC
; #@! TA.AperFunction,Plated,PTH,ViaDrill
T1C0.300
; #@! TA.AperFunction,Plated,PTH,ComponentDrill
T2C0.500
; #@! TA.AperFunction,Plated,PTH,ComponentDrill
T3C0.710
; #@! TA.AperFunction,Plated,PTH,ComponentDrill
T4C0.800
; #@! TA.AperFunction,Plated,PTH,ComponentDrill
T5C1.000
; #@! TA.AperFunction,Plated,PTH,ComponentDrill
T6C1.100
; #@! TA.AperFunction,Plated,PTH,ComponentDrill
T7C1.500
%
G90
G05
T1
X208.102Y-192.772
X209.93Y-201.043
X209.93Y-205.385
X210.13Y-196.702
X210.13Y-209.727
X211.427Y-145.877
X212.182Y-159.41
X215.985Y-108.79
X216.14Y-143.464
X216.148Y-196.702
X216.148Y-201.043
X216.148Y-205.385
X217.148Y-209.727
X217.425Y-98.63
X217.991Y-151.71
X219.105Y-98.63
X219.184Y-150.066
X221.895Y-137.5
X222.505Y-150.51
X223.604Y-145.877
X223.604Y-149.91
X223.605Y-124.01
X223.866Y-196.702
X223.866Y-201.043
X223.866Y-205.385
X223.866Y-209.727
X224.205Y-121.49
X224.805Y-115.11
X226.145Y-123.21
X226.305Y-82.29
X226.692Y-94.99
X226.745Y-159.41
X227.983Y-209.727
X228.145Y-125.11
X228.583Y-196.702
X228.583Y-201.043
X228.583Y-205.385
X228.785Y-147.091
X228.785Y-155.11
X229.385Y-156.41
X230.705Y-154.31
X232.325Y-141.72
X232.642Y-112.249
X232.843Y-106.29
X232.843Y-121.49
X233.03Y-145.877
X234.642Y-116.41
X234.801Y-205.385
X234.801Y-209.727
X234.865Y-136.7
X234.865Y-138.72
X234.945Y-115.31
X235.101Y-196.702
X235.101Y-201.043
X235.242Y-117.85
X235.242Y-122.3
X235.865Y-184.52
X236.074Y-145.877
X236.074Y-148.852
X236.335Y-112.77
X237.52Y-183.92
X239.118Y-145.877
X240.625Y-112.17
X241.219Y-205.385
X241.219Y-209.727
X241.319Y-196.702
X241.319Y-201.043
X241.425Y-102.61
X241.425Y-111.33
X241.719Y-211.877
X242.163Y-145.877
X243.025Y-71.53
X243.505Y-176.38
X244.105Y-206.71
X244.57Y-93.55
X244.659Y-94.99
X245.025Y-136.7
X245.259Y-96.93
X246.637Y-196.702
X246.637Y-198.202
X246.637Y-201.043
X246.637Y-205.385
X246.637Y-209.727
X246.905Y-155.09
X246.965Y-137.664
X247.805Y-211.227
X248.483Y-73.23
X248.665Y-141.82
X248.682Y-129.72
X249.628Y-131.52
X249.628Y-144.664
X249.932Y-126.197
X250.428Y-130.32
X250.428Y-142.42
X250.787Y-207.535
X251.305Y-148.952
X251.305Y-193.01
X251.632Y-104.95
X252.028Y-113.87
X252.187Y-202.343
X252.425Y-96.93
X252.425Y-107.69
X253.032Y-152.353
X253.232Y-105.75
X253.232Y-133.699
X253.425Y-102.91
X253.455Y-201.018
X253.455Y-205.36
X253.655Y-209.702
X253.832Y-135.957
X254.115Y-91.01
X254.225Y-96.09
X254.225Y-100.81
X254.34Y-145.877
X254.68Y-198.827
X254.955Y-203.168
X255.115Y-81.69
X255.115Y-124.997
X255.115Y-129.757
X255.115Y-134.357
X255.28Y-176.38
X255.28Y-196.677
X256.08Y-167.0
X256.115Y-106.25
X256.115Y-139.62
X256.515Y-97.19
X256.655Y-89.91
X256.88Y-176.98
X257.045Y-93.55
X257.385Y-145.877
X257.425Y-144.664
X257.455Y-82.29
X257.455Y-91.01
X257.645Y-79.55
X257.755Y-173.725
X257.845Y-118.65
X257.985Y-168.645
X258.445Y-101.17
X258.445Y-106.89
X258.445Y-143.464
X258.585Y-153.82
X258.725Y-194.852
X258.983Y-196.702
X258.983Y-201.035
X258.983Y-204.335
X258.983Y-209.702
X259.045Y-111.33
X259.045Y-122.7
X259.645Y-85.63
X259.645Y-89.11
X259.7Y-171.3
X260.183Y-198.852
X260.265Y-88.47
X260.265Y-109.43
X260.429Y-145.877
X260.784Y-199.493
X260.985Y-108.79
X260.985Y-144.064
X261.735Y-82.59
X262.1Y-152.11
X262.1Y-153.53
X262.1Y-163.69
X262.505Y-118.65
X262.532Y-98.63
X263.151Y-196.702
X263.181Y-143.464
X263.181Y-145.877
X263.725Y-127.797
X263.805Y-180.81
X265.201Y-196.702
X265.201Y-201.035
X265.201Y-205.368
X265.201Y-210.627
X265.885Y-150.066
X265.885Y-179.91
X266.272Y-110.23
X266.518Y-145.877
X266.518Y-163.69
X267.118Y-147.539
X267.585Y-123.1
X267.585Y-135.957
X267.673Y-109.59
X267.718Y-144.064
X267.718Y-158.81
X267.718Y-179.81
X268.318Y-163.09
X268.605Y-156.06
X268.918Y-164.79
X269.072Y-77.21
X269.27Y-145.877
X269.27Y-148.852
X269.285Y-167.33
X269.955Y-78.31
X270.755Y-73.23
X271.419Y-196.702
X271.419Y-205.368
X271.419Y-209.702
X271.745Y-117.45
X271.745Y-127.197
X272.105Y-156.014
X272.606Y-145.877
X272.619Y-201.035
X273.207Y-143.677
X273.982Y-144.664
X274.287Y-105.62
X274.287Y-123.1
X274.887Y-100.54
X275.191Y-157.19
X275.191Y-159.67
X275.191Y-162.15
X275.191Y-164.63
X275.191Y-167.11
X275.191Y-169.59
X275.191Y-172.36
X275.191Y-174.55
X275.205Y-136.757
X275.488Y-98.92
X275.585Y-78.95
X275.651Y-145.877
X275.688Y-94.64
X276.025Y-135.957
X276.185Y-78.31
X276.235Y-91.9
X276.287Y-106.64
X276.425Y-139.62
X276.975Y-75.77
X277.051Y-150.066
X277.265Y-88.86
X277.599Y-161.0
X277.618Y-166.08
X277.618Y-173.8
X277.637Y-196.702
X277.637Y-201.214
X277.637Y-205.368
X277.637Y-209.702
X277.745Y-126.397
X277.887Y-102.48
X278.695Y-145.877
X279.065Y-94.44
X279.065Y-122.7
X279.265Y-91.1
X279.909Y-163.64
X279.909Y-168.62
X279.909Y-171.16
X280.29Y-159.66
X280.69Y-155.92
X281.292Y-150.047
X282.692Y-144.864
X283.292Y-177.71
X283.445Y-89.66
X283.445Y-123.534
X283.655Y-196.702
X283.655Y-201.035
X283.655Y-205.368
X283.855Y-208.677
X284.245Y-91.3
X284.29Y-179.31
X284.89Y-180.21
X285.365Y-87.74
X285.365Y-147.539
X285.965Y-143.677
X285.985Y-88.66
X286.185Y-98.0
X286.185Y-136.757
X286.61Y-150.71
X287.447Y-86.92
X287.447Y-120.59
X288.305Y-86.22
X288.305Y-87.02
X289.675Y-107.68
X290.085Y-180.31
X290.673Y-205.368
X290.825Y-121.9
X290.873Y-196.702
X290.873Y-201.035
X290.873Y-209.702
X291.425Y-92.7
X291.425Y-98.0
X291.525Y-126.95
X291.525Y-180.31
X291.525Y-189.13
X292.255Y-127.9
X292.255Y-147.136
X292.965Y-170.56
X292.965Y-180.31
X292.965Y-188.91
X293.553Y-99.22
X293.655Y-132.15
X293.655Y-144.864
X293.765Y-164.64
X293.831Y-126.95
X294.252Y-77.04
X294.405Y-180.31
X294.405Y-188.91
X295.005Y-167.18
X295.266Y-199.793
X295.845Y-189.51
X296.291Y-196.702
X296.291Y-205.368
X296.291Y-209.702
X296.405Y-179.31
X296.448Y-130.749
X296.448Y-148.897
X296.452Y-109.58
X296.83Y-150.71
X300.285Y-178.91
X300.435Y-71.64
X301.035Y-73.44
X301.725Y-180.31
X301.725Y-189.51
X302.081Y-119.197
X302.081Y-145.922
X302.749Y-128.85
X302.749Y-134.05
X303.108Y-201.035
X303.165Y-180.31
X303.165Y-188.71
X303.308Y-196.702
X303.308Y-205.368
X303.308Y-209.702
X304.412Y-130.749
X304.605Y-187.11
X304.613Y-117.45
X304.765Y-179.51
X305.605Y-167.18
X306.045Y-188.31
X306.35Y-128.049
X307.714Y-145.922
T2
X250.205Y-184.91
X252.105Y-184.91
T3
X236.065Y-152.55
X236.065Y-155.09
X236.065Y-157.63
X236.065Y-160.17
X236.065Y-162.71
X236.065Y-165.25
X236.065Y-167.79
X236.065Y-170.33
X236.065Y-172.87
X236.065Y-175.41
X236.065Y-177.95
X236.065Y-180.49
X251.305Y-152.55
X251.305Y-155.09
X251.305Y-157.63
X251.305Y-160.17
X251.305Y-162.71
X251.305Y-165.25
X251.305Y-167.79
X251.305Y-170.33
X251.305Y-172.87
X251.305Y-175.41
X251.305Y-177.95
X251.305Y-180.49
T4
X209.805Y-125.11
X209.805Y-132.73
X210.255Y-182.4
X210.255Y-190.02
X210.385Y-158.11
X210.385Y-173.35
X212.345Y-125.11
X212.345Y-132.73
X213.153Y-73.23
X213.153Y-75.77
X213.153Y-78.31
X213.153Y-80.85
X213.153Y-83.39
X213.153Y-85.93
X213.153Y-88.47
X213.153Y-91.01
X213.153Y-93.55
X213.153Y-96.09
X213.153Y-98.63
X213.153Y-101.17
X213.153Y-103.71
X213.153Y-106.25
X213.153Y-108.79
X213.153Y-111.33
X213.153Y-113.87
X213.153Y-116.41
X213.153Y-118.95
X213.153Y-121.49
X214.305Y-182.4
X214.305Y-190.02
X214.885Y-125.11
X214.885Y-132.73
X217.425Y-125.11
X217.425Y-132.73
X218.005Y-158.11
X218.005Y-173.35
X218.355Y-182.4
X218.355Y-190.02
X219.965Y-125.11
X219.965Y-132.73
X222.405Y-182.4
X222.405Y-190.02
X222.505Y-125.11
X222.505Y-132.73
X224.685Y-158.11
X224.685Y-173.35
X225.045Y-125.11
X225.045Y-132.73
X226.455Y-182.4
X226.455Y-190.02
X228.392Y-73.23
X228.392Y-75.77
X228.392Y-78.31
X228.392Y-80.85
X228.392Y-83.39
X228.392Y-85.93
X228.392Y-88.47
X228.392Y-91.01
X228.392Y-93.55
X228.392Y-96.09
X228.392Y-98.63
X228.392Y-101.17
X228.392Y-103.71
X228.392Y-106.25
X228.392Y-108.79
X228.392Y-111.33
X228.392Y-113.87
X228.392Y-116.41
X228.392Y-118.95
X228.392Y-121.49
X230.505Y-182.4
X230.505Y-190.02
X230.885Y-125.2
X230.885Y-132.82
X231.542Y-73.23
X231.542Y-75.77
X231.542Y-78.31
X231.542Y-80.85
X231.542Y-83.39
X231.542Y-85.93
X231.542Y-88.47
X231.542Y-91.01
X231.542Y-93.55
X231.542Y-96.09
X231.542Y-98.63
X231.542Y-101.17
X231.542Y-103.71
X231.542Y-106.25
X231.542Y-108.79
X231.542Y-111.33
X231.542Y-113.87
X231.542Y-116.41
X231.542Y-118.95
X231.542Y-121.49
X232.305Y-158.11
X232.305Y-173.35
X232.325Y-135.4
X232.325Y-143.02
X233.425Y-125.2
X233.425Y-132.82
X234.865Y-135.4
X234.865Y-143.02
X235.965Y-125.2
X235.965Y-132.82
X237.405Y-135.4
X237.405Y-143.02
X238.505Y-125.2
X238.505Y-132.82
X239.945Y-135.4
X239.945Y-143.02
X241.045Y-125.2
X241.045Y-132.82
X242.485Y-135.4
X242.485Y-143.02
X243.585Y-125.2
X243.585Y-132.82
X245.025Y-135.4
X245.025Y-143.02
X246.125Y-125.2
X246.125Y-132.82
X246.782Y-73.23
X246.782Y-75.77
X246.782Y-78.31
X246.782Y-80.85
X246.782Y-83.39
X246.782Y-85.93
X246.782Y-88.47
X246.782Y-91.01
X246.782Y-93.55
X246.782Y-96.09
X246.782Y-98.63
X246.782Y-101.17
X246.782Y-103.71
X246.782Y-106.25
X246.782Y-108.79
X246.782Y-111.33
X246.782Y-113.87
X246.782Y-116.41
X246.782Y-118.95
X246.782Y-121.49
X247.565Y-135.4
X247.565Y-143.02
X249.932Y-73.23
X249.932Y-75.77
X249.932Y-78.31
X249.932Y-80.85
X249.932Y-83.39
X249.932Y-85.93
X249.932Y-88.47
X249.932Y-91.01
X249.932Y-93.55
X249.932Y-96.09
X249.932Y-98.63
X249.932Y-101.17
X249.932Y-103.71
X249.932Y-106.25
X249.932Y-108.79
X249.932Y-111.33
X249.932Y-113.87
X249.932Y-116.41
X249.932Y-118.95
X249.932Y-121.49
X253.18Y-154.62
X253.18Y-157.16
X253.18Y-159.7
X253.18Y-162.24
X253.18Y-164.78
X253.18Y-167.32
X253.18Y-169.86
X253.18Y-172.4
X253.18Y-174.94
X253.18Y-177.48
X257.625Y-181.91
X257.625Y-189.53
X260.165Y-181.91
X260.165Y-189.53
X260.8Y-154.62
X260.8Y-157.16
X260.8Y-159.7
X260.8Y-162.24
X260.8Y-164.78
X260.8Y-167.32
X260.8Y-169.86
X260.8Y-172.4
X260.8Y-174.94
X260.8Y-177.48
X262.705Y-181.91
X262.705Y-189.53
X263.385Y-154.63
X263.385Y-157.17
X263.385Y-159.71
X263.385Y-162.25
X263.385Y-164.79
X263.385Y-167.33
X263.385Y-169.87
X263.385Y-172.41
X263.385Y-174.95
X263.385Y-177.49
X265.173Y-73.23
X265.173Y-75.77
X265.173Y-78.31
X265.173Y-80.85
X265.173Y-83.39
X265.173Y-85.93
X265.173Y-88.47
X265.173Y-91.01
X265.173Y-93.55
X265.173Y-96.09
X265.173Y-98.63
X265.173Y-101.17
X265.173Y-103.71
X265.173Y-106.25
X265.173Y-108.79
X265.173Y-111.33
X265.173Y-113.87
X265.173Y-116.41
X265.173Y-118.95
X265.173Y-121.49
X265.245Y-181.91
X265.245Y-189.53
X267.785Y-181.91
X267.785Y-189.53
X270.325Y-181.91
X270.325Y-189.53
X271.005Y-154.63
X271.005Y-157.17
X271.005Y-159.71
X271.005Y-162.25
X271.005Y-164.79
X271.005Y-167.33
X271.005Y-169.87
X271.005Y-172.41
X271.005Y-174.95
X271.005Y-177.49
X272.865Y-181.91
X272.865Y-189.53
X275.405Y-181.91
X275.405Y-189.53
X277.945Y-181.91
X277.945Y-189.53
X278.99Y-154.58
X278.99Y-157.12
X278.99Y-159.66
X278.99Y-162.2
X278.99Y-164.74
X278.99Y-167.28
X278.99Y-169.82
X278.99Y-172.36
X278.99Y-174.9
X278.99Y-177.44
X280.485Y-181.91
X280.485Y-189.53
X283.025Y-181.91
X283.025Y-189.53
X285.565Y-181.91
X285.565Y-189.53
X286.61Y-154.58
X286.61Y-157.12
X286.61Y-159.66
X286.61Y-162.2
X286.61Y-164.74
X286.61Y-167.28
X286.61Y-169.82
X286.61Y-172.36
X286.61Y-174.9
X286.61Y-177.44
X289.21Y-154.48
X289.21Y-157.02
X289.21Y-159.56
X289.21Y-162.1
X289.21Y-164.64
X289.21Y-167.18
X289.21Y-169.72
X289.21Y-172.26
X289.21Y-174.8
X289.21Y-177.34
X296.83Y-154.48
X296.83Y-157.02
X296.83Y-159.56
X296.83Y-162.1
X296.83Y-164.64
X296.83Y-167.18
X296.83Y-169.72
X296.83Y-172.26
X296.83Y-174.8
X296.83Y-177.34
X299.31Y-154.48
X299.31Y-157.02
X299.31Y-159.56
X299.31Y-162.1
X299.31Y-164.64
X299.31Y-167.18
X299.31Y-169.72
X299.31Y-172.26
X299.31Y-174.8
X299.31Y-177.34
X306.93Y-154.48
X306.93Y-157.02
X306.93Y-159.56
X306.93Y-162.1
X306.93Y-164.64
X306.93Y-167.18
X306.93Y-169.72
X306.93Y-172.26
X306.93Y-174.8
X306.93Y-177.34
T5
X208.395Y-70.105
X209.642Y-178.722
X209.642Y-193.922
X210.387Y-80.791
X210.387Y-83.331
X210.387Y-85.871
X210.387Y-88.411
X210.387Y-90.951
X210.387Y-93.491
X210.387Y-96.031
X210.387Y-98.571
X210.387Y-101.111
X210.387Y-103.651
X210.387Y-106.191
X210.387Y-108.731
X210.387Y-111.271
X210.387Y-113.811
X210.935Y-70.105
X212.182Y-178.722
X212.182Y-193.922
X213.475Y-70.105
X214.722Y-178.722
X214.722Y-193.922
X216.015Y-70.105
X217.262Y-178.722
X217.262Y-193.922
X218.555Y-70.105
X219.802Y-178.722
X219.802Y-193.922
X221.095Y-70.105
X222.342Y-178.722
X222.342Y-193.922
X223.635Y-70.105
X224.882Y-178.722
X224.882Y-193.922
X226.175Y-70.105
X227.422Y-178.722
X227.422Y-193.922
X228.715Y-70.105
X231.255Y-70.105
X233.795Y-70.105
X234.605Y-189.01
X236.335Y-70.105
X238.875Y-70.105
X241.415Y-70.105
X242.205Y-189.01
X243.955Y-70.105
X246.495Y-70.105
X249.035Y-70.105
X251.575Y-70.105
X254.115Y-70.105
X256.655Y-70.105
X257.425Y-129.097
X257.425Y-139.257
X259.195Y-70.105
X259.965Y-129.097
X259.965Y-139.257
X261.735Y-70.105
X262.505Y-129.097
X262.505Y-139.257
X264.275Y-70.105
X265.045Y-129.097
X265.045Y-139.257
X266.815Y-70.105
X267.585Y-129.097
X267.585Y-139.257
X269.355Y-70.105
X270.125Y-129.097
X270.125Y-139.257
X271.587Y-82.76
X271.587Y-85.3
X271.587Y-87.84
X271.587Y-90.38
X271.587Y-92.92
X271.587Y-95.46
X271.587Y-98.0
X271.587Y-100.54
X271.587Y-103.08
X271.587Y-105.62
X271.587Y-108.16
X271.587Y-110.7
X271.587Y-113.24
X271.587Y-115.78
X271.895Y-70.105
X272.665Y-129.097
X272.665Y-139.257
X274.435Y-70.105
X275.205Y-129.097
X275.205Y-139.257
X276.975Y-70.105
X277.745Y-129.097
X277.745Y-139.257
X279.515Y-70.105
X280.285Y-129.097
X280.285Y-139.257
X281.748Y-82.76
X281.748Y-85.3
X281.748Y-87.84
X281.748Y-90.38
X281.748Y-92.92
X281.748Y-95.46
X281.748Y-98.0
X281.748Y-100.54
X281.748Y-103.08
X281.748Y-105.62
X281.748Y-108.16
X281.748Y-110.7
X281.748Y-113.24
X281.748Y-115.78
X282.055Y-70.105
X282.825Y-129.097
X282.825Y-139.257
X283.465Y-192.61
X284.595Y-70.105
X285.365Y-129.097
X285.365Y-139.257
X286.005Y-192.61
X287.135Y-70.105
X287.905Y-129.097
X287.905Y-139.257
X289.675Y-70.105
X290.445Y-129.097
X290.445Y-139.257
X292.215Y-70.105
X292.952Y-82.66
X292.952Y-85.2
X292.952Y-87.74
X292.952Y-90.28
X292.952Y-92.82
X292.952Y-95.36
X292.952Y-97.9
X292.952Y-100.44
X292.952Y-102.98
X292.952Y-105.52
X292.952Y-108.06
X292.952Y-110.6
X292.952Y-113.14
X292.952Y-115.68
X294.755Y-70.105
X297.295Y-70.105
X299.835Y-70.105
X302.375Y-70.105
X303.113Y-82.66
X303.113Y-85.2
X303.113Y-87.74
X303.113Y-90.28
X303.113Y-92.82
X303.113Y-95.36
X303.113Y-97.9
X303.113Y-100.44
X303.113Y-102.98
X303.113Y-105.52
X303.113Y-108.06
X303.113Y-110.6
X303.113Y-113.14
X303.113Y-115.68
X304.915Y-70.105
X307.455Y-70.105
T6
X246.505Y-188.51
X246.505Y-193.01
X253.005Y-188.51
X253.005Y-193.01
T7
X211.405Y-152.81
X232.205Y-152.81
M30
