%TF.GenerationSoftware,KiCad,Pcbnew,10.0.1*%
%TF.CreationDate,2026-04-24T22:44:25+08:00*%
%TF.ProjectId,z80handheld,7a383068-616e-4646-9865-6c642e6b6963,rev?*%
%TF.SameCoordinates,Original*%
%TF.FileFunction,Paste,Top*%
%TF.FilePolarity,Positive*%
%FSLAX46Y46*%
G04 Gerber Fmt 4.6, Leading zero omitted, Abs format (unit mm)*
G04 Created by KiCad (PCBNEW 10.0.1) date 2026-04-24 22:44:25*
%MOMM*%
%LPD*%
G01*
G04 APERTURE LIST*
G04 Aperture macros list*
%AMRoundRect*
0 Rectangle with rounded corners*
0 $1 Rounding radius*
0 $2 $3 $4 $5 $6 $7 $8 $9 X,Y pos of 4 corners*
0 Add a 4 corners polygon primitive as box body*
4,1,4,$2,$3,$4,$5,$6,$7,$8,$9,$2,$3,0*
0 Add four circle primitives for the rounded corners*
1,1,$1+$1,$2,$3*
1,1,$1+$1,$4,$5*
1,1,$1+$1,$6,$7*
1,1,$1+$1,$8,$9*
0 Add four rect primitives between the rounded corners*
20,1,$1+$1,$2,$3,$4,$5,0*
20,1,$1+$1,$4,$5,$6,$7,0*
20,1,$1+$1,$6,$7,$8,$9,0*
20,1,$1+$1,$8,$9,$2,$3,0*%
G04 Aperture macros list end*
%ADD10R,1.050000X0.650000*%
%ADD11RoundRect,0.250001X-0.624999X0.462499X-0.624999X-0.462499X0.624999X-0.462499X0.624999X0.462499X0*%
%ADD12RoundRect,0.250001X0.624999X-0.462499X0.624999X0.462499X-0.624999X0.462499X-0.624999X-0.462499X0*%
%ADD13RoundRect,0.150000X-0.650000X-0.150000X0.650000X-0.150000X0.650000X0.150000X-0.650000X0.150000X0*%
%ADD14RoundRect,0.250001X0.462499X0.624999X-0.462499X0.624999X-0.462499X-0.624999X0.462499X-0.624999X0*%
%ADD15R,0.900000X2.800000*%
G04 APERTURE END LIST*
D10*
%TO.C,SW61*%
X257958500Y-196701600D03*
X262108500Y-196701600D03*
X257958500Y-198851600D03*
X262108500Y-198851600D03*
%TD*%
%TO.C,SW1*%
X251830000Y-196676600D03*
X255980000Y-196676600D03*
X251830000Y-198826600D03*
X255980000Y-198826600D03*
%TD*%
%TO.C,SW55*%
X264176400Y-205368300D03*
X268326400Y-205368300D03*
X264176400Y-207518300D03*
X268326400Y-207518300D03*
%TD*%
D11*
%TO.C,D21*%
X292255000Y-145922500D03*
X292255000Y-148897500D03*
%TD*%
D10*
%TO.C,SW49*%
X214522800Y-196701600D03*
X218672800Y-196701600D03*
X214522800Y-198851600D03*
X218672800Y-198851600D03*
%TD*%
D11*
%TO.C,D6*%
X306338300Y-145922500D03*
X306338300Y-148897500D03*
%TD*%
D10*
%TO.C,SW58*%
X208305000Y-201043300D03*
X212455000Y-201043300D03*
X208305000Y-203193300D03*
X212455000Y-203193300D03*
%TD*%
%TO.C,SW60*%
X208305000Y-209726600D03*
X212455000Y-209726600D03*
X208305000Y-211876600D03*
X212455000Y-211876600D03*
%TD*%
%TO.C,SW19*%
X239394200Y-205385000D03*
X243544200Y-205385000D03*
X239394200Y-207535000D03*
X243544200Y-207535000D03*
%TD*%
D12*
%TO.C,D19*%
X231361500Y-148852500D03*
X231361500Y-145877500D03*
%TD*%
%TO.C,D37*%
X273982400Y-148852500D03*
X273982400Y-145877500D03*
%TD*%
D10*
%TO.C,SW57*%
X208305000Y-196701600D03*
X212455000Y-196701600D03*
X208305000Y-198851600D03*
X212455000Y-198851600D03*
%TD*%
%TO.C,SW54*%
X264176400Y-201035000D03*
X268326400Y-201035000D03*
X264176400Y-203185000D03*
X268326400Y-203185000D03*
%TD*%
%TO.C,SW9*%
X245612100Y-196701600D03*
X249762100Y-196701600D03*
X245612100Y-198851600D03*
X249762100Y-198851600D03*
%TD*%
%TO.C,SW22*%
X289047800Y-201035000D03*
X293197800Y-201035000D03*
X289047800Y-203185000D03*
X293197800Y-203185000D03*
%TD*%
D12*
%TO.C,D27*%
X243538900Y-148852500D03*
X243538900Y-145877500D03*
%TD*%
D10*
%TO.C,SW16*%
X295265700Y-209701600D03*
X299415700Y-209701600D03*
X295265700Y-211851600D03*
X299415700Y-211851600D03*
%TD*%
%TO.C,SW56*%
X264176400Y-209701600D03*
X268326400Y-209701600D03*
X264176400Y-211851600D03*
X268326400Y-211851600D03*
%TD*%
D13*
%TO.C,U18*%
X304050000Y-126950000D03*
X304050000Y-127900000D03*
X304050000Y-128850000D03*
X306350000Y-128850000D03*
X306350000Y-126950000D03*
%TD*%
D12*
%TO.C,D4*%
X216139800Y-148852500D03*
X216139800Y-145877500D03*
%TD*%
D11*
%TO.C,D9*%
X303521600Y-145922500D03*
X303521600Y-148897500D03*
%TD*%
D10*
%TO.C,SW10*%
X245612100Y-201043300D03*
X249762100Y-201043300D03*
X245612100Y-203193300D03*
X249762100Y-203193300D03*
%TD*%
%TO.C,SW4*%
X251830000Y-209701600D03*
X255980000Y-209701600D03*
X251830000Y-211851600D03*
X255980000Y-211851600D03*
%TD*%
D14*
%TO.C,D5*%
X276405000Y-172070000D03*
X273430000Y-172070000D03*
%TD*%
D10*
%TO.C,SW20*%
X239394200Y-209726600D03*
X243544200Y-209726600D03*
X239394200Y-211876600D03*
X243544200Y-211876600D03*
%TD*%
%TO.C,SW48*%
X270394200Y-209701600D03*
X274544200Y-209701600D03*
X270394200Y-211851600D03*
X274544200Y-211851600D03*
%TD*%
D12*
%TO.C,D35*%
X267893700Y-148852500D03*
X267893700Y-145877500D03*
%TD*%
D11*
%TO.C,D24*%
X289438300Y-145922500D03*
X289438300Y-148897500D03*
%TD*%
D10*
%TO.C,SW18*%
X239394200Y-201043300D03*
X243544200Y-201043300D03*
X239394200Y-203193300D03*
X243544200Y-203193300D03*
%TD*%
D12*
%TO.C,D2*%
X213095400Y-148852500D03*
X213095400Y-145877500D03*
%TD*%
D10*
%TO.C,SW36*%
X226958500Y-209726600D03*
X231108500Y-209726600D03*
X226958500Y-211876600D03*
X231108500Y-211876600D03*
%TD*%
%TO.C,SW26*%
X233176400Y-201043300D03*
X237326400Y-201043300D03*
X233176400Y-203193300D03*
X237326400Y-203193300D03*
%TD*%
D12*
%TO.C,D36*%
X270938000Y-148852500D03*
X270938000Y-145877500D03*
%TD*%
D10*
%TO.C,SW53*%
X264176400Y-196701600D03*
X268326400Y-196701600D03*
X264176400Y-198851600D03*
X268326400Y-198851600D03*
%TD*%
%TO.C,SW30*%
X282830000Y-201035000D03*
X286980000Y-201035000D03*
X282830000Y-203185000D03*
X286980000Y-203185000D03*
%TD*%
%TO.C,SW5*%
X301483500Y-196701600D03*
X305633500Y-196701600D03*
X301483500Y-198851600D03*
X305633500Y-198851600D03*
%TD*%
D14*
%TO.C,D3*%
X276405000Y-174550000D03*
X273430000Y-174550000D03*
%TD*%
D10*
%TO.C,SW13*%
X295265700Y-196701600D03*
X299415700Y-196701600D03*
X295265700Y-198851600D03*
X299415700Y-198851600D03*
%TD*%
D12*
%TO.C,D16*%
X228317100Y-148852500D03*
X228317100Y-145877500D03*
%TD*%
D10*
%TO.C,SW63*%
X257958500Y-205368300D03*
X262108500Y-205368300D03*
X257958500Y-207518300D03*
X262108500Y-207518300D03*
%TD*%
%TO.C,SW59*%
X208305000Y-205385000D03*
X212455000Y-205385000D03*
X208305000Y-207535000D03*
X212455000Y-207535000D03*
%TD*%
D12*
%TO.C,D32*%
X258760600Y-148852500D03*
X258760600Y-145877500D03*
%TD*%
%TO.C,D26*%
X240494500Y-148852500D03*
X240494500Y-145877500D03*
%TD*%
D10*
%TO.C,SW41*%
X220740700Y-196701600D03*
X224890700Y-196701600D03*
X220740700Y-198851600D03*
X224890700Y-198851600D03*
%TD*%
%TO.C,SW31*%
X282830000Y-205368300D03*
X286980000Y-205368300D03*
X282830000Y-207518300D03*
X286980000Y-207518300D03*
%TD*%
D14*
%TO.C,D14*%
X276405000Y-164630000D03*
X273430000Y-164630000D03*
%TD*%
D15*
%TO.C,U12*%
X290085000Y-192210000D03*
X291525000Y-192210000D03*
X292965000Y-192210000D03*
X294405000Y-192210000D03*
X295845000Y-192210000D03*
X295845000Y-182210000D03*
X294405000Y-182210000D03*
X292965000Y-182210000D03*
X291525000Y-182210000D03*
X290085000Y-182210000D03*
%TD*%
D12*
%TO.C,D31*%
X255716300Y-148852500D03*
X255716300Y-145877500D03*
%TD*%
D10*
%TO.C,SW15*%
X295265700Y-205368300D03*
X299415700Y-205368300D03*
X295265700Y-207518300D03*
X299415700Y-207518300D03*
%TD*%
%TO.C,SW2*%
X251830000Y-201018300D03*
X255980000Y-201018300D03*
X251830000Y-203168300D03*
X255980000Y-203168300D03*
%TD*%
D12*
%TO.C,D34*%
X264849300Y-148852500D03*
X264849300Y-145877500D03*
%TD*%
D14*
%TO.C,D23*%
X276405000Y-157190000D03*
X273430000Y-157190000D03*
%TD*%
D12*
%TO.C,D29*%
X249627600Y-148852500D03*
X249627600Y-145877500D03*
%TD*%
D10*
%TO.C,SW29*%
X282830000Y-196701600D03*
X286980000Y-196701600D03*
X282830000Y-198851600D03*
X286980000Y-198851600D03*
%TD*%
D14*
%TO.C,D11*%
X276405000Y-167110000D03*
X273430000Y-167110000D03*
%TD*%
D10*
%TO.C,SW28*%
X233176400Y-209726600D03*
X237326400Y-209726600D03*
X233176400Y-211876600D03*
X237326400Y-211876600D03*
%TD*%
D14*
%TO.C,D17*%
X276405000Y-162150000D03*
X273430000Y-162150000D03*
%TD*%
D10*
%TO.C,SW52*%
X214522800Y-209726600D03*
X218672800Y-209726600D03*
X214522800Y-211876600D03*
X218672800Y-211876600D03*
%TD*%
%TO.C,SW45*%
X270394200Y-196701600D03*
X274544200Y-196701600D03*
X270394200Y-198851600D03*
X274544200Y-198851600D03*
%TD*%
%TO.C,SW6*%
X301483500Y-201035000D03*
X305633500Y-201035000D03*
X301483500Y-203185000D03*
X305633500Y-203185000D03*
%TD*%
D12*
%TO.C,D30*%
X252671900Y-148852500D03*
X252671900Y-145877500D03*
%TD*%
D14*
%TO.C,D20*%
X276405000Y-159670000D03*
X273430000Y-159670000D03*
%TD*%
D12*
%TO.C,D7*%
X219184100Y-148852500D03*
X219184100Y-145877500D03*
%TD*%
%TO.C,D1*%
X210051100Y-148852500D03*
X210051100Y-145877500D03*
%TD*%
D10*
%TO.C,SW27*%
X233176400Y-205385000D03*
X237326400Y-205385000D03*
X233176400Y-207535000D03*
X237326400Y-207535000D03*
%TD*%
%TO.C,SW42*%
X220740700Y-201043300D03*
X224890700Y-201043300D03*
X220740700Y-203193300D03*
X224890700Y-203193300D03*
%TD*%
%TO.C,SW14*%
X295265700Y-201035000D03*
X299415700Y-201035000D03*
X295265700Y-203185000D03*
X299415700Y-203185000D03*
%TD*%
%TO.C,SW64*%
X257958500Y-209701600D03*
X262108500Y-209701600D03*
X257958500Y-211851600D03*
X262108500Y-211851600D03*
%TD*%
D12*
%TO.C,D38*%
X277026700Y-148852500D03*
X277026700Y-145877500D03*
%TD*%
D10*
%TO.C,SW3*%
X251830000Y-205360000D03*
X255980000Y-205360000D03*
X251830000Y-207510000D03*
X255980000Y-207510000D03*
%TD*%
D13*
%TO.C,U19*%
X304050000Y-132150000D03*
X304050000Y-133100000D03*
X304050000Y-134050000D03*
X306350000Y-134050000D03*
X306350000Y-132150000D03*
%TD*%
D10*
%TO.C,SW23*%
X289047800Y-205368300D03*
X293197800Y-205368300D03*
X289047800Y-207518300D03*
X293197800Y-207518300D03*
%TD*%
%TO.C,SW43*%
X220740700Y-205385000D03*
X224890700Y-205385000D03*
X220740700Y-207535000D03*
X224890700Y-207535000D03*
%TD*%
%TO.C,SW35*%
X226958500Y-205385000D03*
X231108500Y-205385000D03*
X226958500Y-207535000D03*
X231108500Y-207535000D03*
%TD*%
%TO.C,SW21*%
X289047800Y-196701600D03*
X293197800Y-196701600D03*
X289047800Y-198851600D03*
X293197800Y-198851600D03*
%TD*%
D11*
%TO.C,D18*%
X295071600Y-145922500D03*
X295071600Y-148897500D03*
%TD*%
D10*
%TO.C,SW39*%
X276612100Y-205368300D03*
X280762100Y-205368300D03*
X276612100Y-207518300D03*
X280762100Y-207518300D03*
%TD*%
%TO.C,SW24*%
X289047800Y-209701600D03*
X293197800Y-209701600D03*
X289047800Y-211851600D03*
X293197800Y-211851600D03*
%TD*%
%TO.C,SW47*%
X270394200Y-205368300D03*
X274544200Y-205368300D03*
X270394200Y-207518300D03*
X274544200Y-207518300D03*
%TD*%
%TO.C,SW38*%
X276612100Y-201035000D03*
X280762100Y-201035000D03*
X276612100Y-203185000D03*
X280762100Y-203185000D03*
%TD*%
%TO.C,SW17*%
X239394200Y-196701600D03*
X243544200Y-196701600D03*
X239394200Y-198851600D03*
X243544200Y-198851600D03*
%TD*%
D11*
%TO.C,D12*%
X300705000Y-145922500D03*
X300705000Y-148897500D03*
%TD*%
D12*
%TO.C,D28*%
X246583200Y-148852500D03*
X246583200Y-145877500D03*
%TD*%
D10*
%TO.C,SW37*%
X276612100Y-196701600D03*
X280762100Y-196701600D03*
X276612100Y-198851600D03*
X280762100Y-198851600D03*
%TD*%
%TO.C,SW33*%
X226958500Y-196701600D03*
X231108500Y-196701600D03*
X226958500Y-198851600D03*
X231108500Y-198851600D03*
%TD*%
%TO.C,SW8*%
X301483500Y-209701600D03*
X305633500Y-209701600D03*
X301483500Y-211851600D03*
X305633500Y-211851600D03*
%TD*%
%TO.C,SW32*%
X282830000Y-209701600D03*
X286980000Y-209701600D03*
X282830000Y-211851600D03*
X286980000Y-211851600D03*
%TD*%
%TO.C,SW25*%
X233176400Y-196701600D03*
X237326400Y-196701600D03*
X233176400Y-198851600D03*
X237326400Y-198851600D03*
%TD*%
D12*
%TO.C,D33*%
X261805000Y-148852500D03*
X261805000Y-145877500D03*
%TD*%
D15*
%TO.C,U14*%
X300285000Y-192210000D03*
X301725000Y-192210000D03*
X303165000Y-192210000D03*
X304605000Y-192210000D03*
X306045000Y-192210000D03*
X306045000Y-182210000D03*
X304605000Y-182210000D03*
X303165000Y-182210000D03*
X301725000Y-182210000D03*
X300285000Y-182210000D03*
%TD*%
D10*
%TO.C,SW12*%
X245612100Y-209726600D03*
X249762100Y-209726600D03*
X245612100Y-211876600D03*
X249762100Y-211876600D03*
%TD*%
D11*
%TO.C,D15*%
X297888300Y-145922500D03*
X297888300Y-148897500D03*
%TD*%
D10*
%TO.C,SW46*%
X270394200Y-201035000D03*
X274544200Y-201035000D03*
X270394200Y-203185000D03*
X274544200Y-203185000D03*
%TD*%
D12*
%TO.C,D13*%
X225272800Y-148852500D03*
X225272800Y-145877500D03*
%TD*%
D10*
%TO.C,SW40*%
X276612100Y-209701600D03*
X280762100Y-209701600D03*
X276612100Y-211851600D03*
X280762100Y-211851600D03*
%TD*%
%TO.C,SW34*%
X226958500Y-201043300D03*
X231108500Y-201043300D03*
X226958500Y-203193300D03*
X231108500Y-203193300D03*
%TD*%
%TO.C,SW44*%
X220740700Y-209726600D03*
X224890700Y-209726600D03*
X220740700Y-211876600D03*
X224890700Y-211876600D03*
%TD*%
D12*
%TO.C,D10*%
X222228400Y-148852500D03*
X222228400Y-145877500D03*
%TD*%
D10*
%TO.C,SW50*%
X214522800Y-201043300D03*
X218672800Y-201043300D03*
X214522800Y-203193300D03*
X218672800Y-203193300D03*
%TD*%
%TO.C,SW11*%
X245612100Y-205385000D03*
X249762100Y-205385000D03*
X245612100Y-207535000D03*
X249762100Y-207535000D03*
%TD*%
D12*
%TO.C,D39*%
X280071100Y-148852500D03*
X280071100Y-145877500D03*
%TD*%
%TO.C,D25*%
X237450200Y-148852500D03*
X237450200Y-145877500D03*
%TD*%
%TO.C,D22*%
X234405800Y-148852500D03*
X234405800Y-145877500D03*
%TD*%
D14*
%TO.C,D8*%
X276405000Y-169590000D03*
X273430000Y-169590000D03*
%TD*%
D10*
%TO.C,SW51*%
X214522800Y-205385000D03*
X218672800Y-205385000D03*
X214522800Y-207535000D03*
X218672800Y-207535000D03*
%TD*%
%TO.C,SW62*%
X257958500Y-201035000D03*
X262108500Y-201035000D03*
X257958500Y-203185000D03*
X262108500Y-203185000D03*
%TD*%
%TO.C,SW7*%
X301483500Y-205368300D03*
X305633500Y-205368300D03*
X301483500Y-207518300D03*
X305633500Y-207518300D03*
%TD*%
M02*
