%TF.GenerationSoftware,KiCad,Pcbnew,10.0.1*%
%TF.CreationDate,2026-04-24T22:44:25+08:00*%
%TF.ProjectId,z80handheld,7a383068-616e-4646-9865-6c642e6b6963,rev?*%
%TF.SameCoordinates,Original*%
%TF.FileFunction,Soldermask,Top*%
%TF.FilePolarity,Negative*%
%FSLAX46Y46*%
G04 Gerber Fmt 4.6, Leading zero omitted, Abs format (unit mm)*
G04 Created by KiCad (PCBNEW 10.0.1) date 2026-04-24 22:44:25*
%MOMM*%
%LPD*%
G01*
G04 APERTURE LIST*
G04 Aperture macros list*
%AMRoundRect*
0 Rectangle with rounded corners*
0 $1 Rounding radius*
0 $2 $3 $4 $5 $6 $7 $8 $9 X,Y pos of 4 corners*
0 Add a 4 corners polygon primitive as box body*
4,1,4,$2,$3,$4,$5,$6,$7,$8,$9,$2,$3,0*
0 Add four circle primitives for the rounded corners*
1,1,$1+$1,$2,$3*
1,1,$1+$1,$4,$5*
1,1,$1+$1,$6,$7*
1,1,$1+$1,$8,$9*
0 Add four rect primitives between the rounded corners*
20,1,$1+$1,$2,$3,$4,$5,0*
20,1,$1+$1,$4,$5,$6,$7,0*
20,1,$1+$1,$6,$7,$8,$9,0*
20,1,$1+$1,$8,$9,$2,$3,0*%
G04 Aperture macros list end*
%ADD10R,1.050000X0.650000*%
%ADD11R,1.600000X1.600000*%
%ADD12O,1.600000X1.600000*%
%ADD13RoundRect,0.250001X-0.624999X0.462499X-0.624999X-0.462499X0.624999X-0.462499X0.624999X0.462499X0*%
%ADD14RoundRect,0.250001X0.624999X-0.462499X0.624999X0.462499X-0.624999X0.462499X-0.624999X-0.462499X0*%
%ADD15C,1.600000*%
%ADD16RoundRect,0.250000X0.550000X0.550000X-0.550000X0.550000X-0.550000X-0.550000X0.550000X-0.550000X0*%
%ADD17RoundRect,0.250000X-0.550000X0.550000X-0.550000X-0.550000X0.550000X-0.550000X0.550000X0.550000X0*%
%ADD18RoundRect,0.150000X-0.650000X-0.150000X0.650000X-0.150000X0.650000X0.150000X-0.650000X0.150000X0*%
%ADD19R,1.700000X1.700000*%
%ADD20C,1.700000*%
%ADD21RoundRect,0.250001X0.462499X0.624999X-0.462499X0.624999X-0.462499X-0.624999X0.462499X-0.624999X0*%
%ADD22RoundRect,0.250000X0.550000X-0.550000X0.550000X0.550000X-0.550000X0.550000X-0.550000X-0.550000X0*%
%ADD23R,0.900000X2.800000*%
%ADD24RoundRect,0.250000X-0.550000X-0.550000X0.550000X-0.550000X0.550000X0.550000X-0.550000X0.550000X0*%
%ADD25R,1.110000X1.110000*%
%ADD26C,1.110000*%
%ADD27C,1.000000*%
%ADD28C,2.000000*%
%ADD29R,2.000000X2.000000*%
%ADD30R,2.000000X1.440000*%
%ADD31O,2.000000X1.440000*%
%ADD32R,1.440000X2.000000*%
%ADD33O,1.440000X2.000000*%
G04 APERTURE END LIST*
D10*
%TO.C,SW61*%
X257958500Y-196701600D03*
X262108500Y-196701600D03*
X257958500Y-198851600D03*
X262108500Y-198851600D03*
%TD*%
D11*
%TO.C,U4*%
X257625000Y-189530000D03*
D12*
X260165000Y-189530000D03*
X262705000Y-189530000D03*
X265245000Y-189530000D03*
X267785000Y-189530000D03*
X270325000Y-189530000D03*
X272865000Y-189530000D03*
X275405000Y-189530000D03*
X277945000Y-189530000D03*
X280485000Y-189530000D03*
X283025000Y-189530000D03*
X285565000Y-189530000D03*
X285565000Y-181910000D03*
X283025000Y-181910000D03*
X280485000Y-181910000D03*
X277945000Y-181910000D03*
X275405000Y-181910000D03*
X272865000Y-181910000D03*
X270325000Y-181910000D03*
X267785000Y-181910000D03*
X265245000Y-181910000D03*
X262705000Y-181910000D03*
X260165000Y-181910000D03*
X257625000Y-181910000D03*
%TD*%
D10*
%TO.C,SW1*%
X251830000Y-196676600D03*
X255980000Y-196676600D03*
X251830000Y-198826600D03*
X255980000Y-198826600D03*
%TD*%
%TO.C,SW55*%
X264176400Y-205368300D03*
X268326400Y-205368300D03*
X264176400Y-207518300D03*
X268326400Y-207518300D03*
%TD*%
D13*
%TO.C,D21*%
X292255000Y-145922500D03*
X292255000Y-148897500D03*
%TD*%
D10*
%TO.C,SW49*%
X214522800Y-196701600D03*
X218672800Y-196701600D03*
X214522800Y-198851600D03*
X218672800Y-198851600D03*
%TD*%
D13*
%TO.C,D6*%
X306338300Y-145922500D03*
X306338300Y-148897500D03*
%TD*%
D10*
%TO.C,SW58*%
X208305000Y-201043300D03*
X212455000Y-201043300D03*
X208305000Y-203193300D03*
X212455000Y-203193300D03*
%TD*%
%TO.C,SW60*%
X208305000Y-209726600D03*
X212455000Y-209726600D03*
X208305000Y-211876600D03*
X212455000Y-211876600D03*
%TD*%
%TO.C,SW19*%
X239394200Y-205385000D03*
X243544200Y-205385000D03*
X239394200Y-207535000D03*
X243544200Y-207535000D03*
%TD*%
D14*
%TO.C,D19*%
X231361500Y-148852500D03*
X231361500Y-145877500D03*
%TD*%
%TO.C,D37*%
X273982400Y-148852500D03*
X273982400Y-145877500D03*
%TD*%
D10*
%TO.C,SW57*%
X208305000Y-196701600D03*
X212455000Y-196701600D03*
X208305000Y-198851600D03*
X212455000Y-198851600D03*
%TD*%
%TO.C,SW54*%
X264176400Y-201035000D03*
X268326400Y-201035000D03*
X264176400Y-203185000D03*
X268326400Y-203185000D03*
%TD*%
%TO.C,SW9*%
X245612100Y-196701600D03*
X249762100Y-196701600D03*
X245612100Y-198851600D03*
X249762100Y-198851600D03*
%TD*%
%TO.C,SW22*%
X289047800Y-201035000D03*
X293197800Y-201035000D03*
X289047800Y-203185000D03*
X293197800Y-203185000D03*
%TD*%
D15*
%TO.C,R3*%
X222405000Y-182400000D03*
X222405000Y-190020000D03*
%TD*%
D14*
%TO.C,D27*%
X243538900Y-148852500D03*
X243538900Y-145877500D03*
%TD*%
D16*
%TO.C,U6*%
X286610000Y-177440000D03*
D15*
X286610000Y-174900000D03*
X286610000Y-172360000D03*
X286610000Y-169820000D03*
X286610000Y-167280000D03*
X286610000Y-164740000D03*
X286610000Y-162200000D03*
X286610000Y-159660000D03*
X286610000Y-157120000D03*
X286610000Y-154580000D03*
X278990000Y-154580000D03*
X278990000Y-157120000D03*
X278990000Y-159660000D03*
X278990000Y-162200000D03*
X278990000Y-164740000D03*
X278990000Y-167280000D03*
X278990000Y-169820000D03*
X278990000Y-172360000D03*
X278990000Y-174900000D03*
X278990000Y-177440000D03*
%TD*%
D10*
%TO.C,SW16*%
X295265700Y-209701600D03*
X299415700Y-209701600D03*
X295265700Y-211851600D03*
X299415700Y-211851600D03*
%TD*%
%TO.C,SW56*%
X264176400Y-209701600D03*
X268326400Y-209701600D03*
X264176400Y-211851600D03*
X268326400Y-211851600D03*
%TD*%
D17*
%TO.C,U1*%
X247565000Y-135400000D03*
D15*
X245025000Y-135400000D03*
X242485000Y-135400000D03*
X239945000Y-135400000D03*
X237405000Y-135400000D03*
X234865000Y-135400000D03*
X232325000Y-135400000D03*
X232325000Y-143020000D03*
X234865000Y-143020000D03*
X237405000Y-143020000D03*
X239945000Y-143020000D03*
X242485000Y-143020000D03*
X245025000Y-143020000D03*
X247565000Y-143020000D03*
%TD*%
D18*
%TO.C,U18*%
X304050000Y-126950000D03*
X304050000Y-127900000D03*
X304050000Y-128850000D03*
X306350000Y-128850000D03*
X306350000Y-126950000D03*
%TD*%
D19*
%TO.C,J4*%
X209642400Y-178722500D03*
D20*
X212182400Y-178722500D03*
X214722400Y-178722500D03*
X217262400Y-178722500D03*
X219802400Y-178722500D03*
X222342400Y-178722500D03*
X224882400Y-178722500D03*
X227422400Y-178722500D03*
%TD*%
D14*
%TO.C,D4*%
X216139800Y-148852500D03*
X216139800Y-145877500D03*
%TD*%
D13*
%TO.C,D9*%
X303521600Y-145922500D03*
X303521600Y-148897500D03*
%TD*%
D10*
%TO.C,SW10*%
X245612100Y-201043300D03*
X249762100Y-201043300D03*
X245612100Y-203193300D03*
X249762100Y-203193300D03*
%TD*%
%TO.C,SW4*%
X251830000Y-209701600D03*
X255980000Y-209701600D03*
X251830000Y-211851600D03*
X255980000Y-211851600D03*
%TD*%
D21*
%TO.C,D5*%
X276405000Y-172070000D03*
X273430000Y-172070000D03*
%TD*%
D10*
%TO.C,SW20*%
X239394200Y-209726600D03*
X243544200Y-209726600D03*
X239394200Y-211876600D03*
X243544200Y-211876600D03*
%TD*%
%TO.C,SW48*%
X270394200Y-209701600D03*
X274544200Y-209701600D03*
X270394200Y-211851600D03*
X274544200Y-211851600D03*
%TD*%
D14*
%TO.C,D35*%
X267893700Y-148852500D03*
X267893700Y-145877500D03*
%TD*%
D13*
%TO.C,D24*%
X289438300Y-145922500D03*
X289438300Y-148897500D03*
%TD*%
D10*
%TO.C,SW18*%
X239394200Y-201043300D03*
X243544200Y-201043300D03*
X239394200Y-203193300D03*
X243544200Y-203193300D03*
%TD*%
D14*
%TO.C,D2*%
X213095400Y-148852500D03*
X213095400Y-145877500D03*
%TD*%
D15*
%TO.C,R4*%
X218355000Y-182400000D03*
X218355000Y-190020000D03*
%TD*%
%TO.C,R5*%
X214305000Y-182400000D03*
X214305000Y-190020000D03*
%TD*%
D19*
%TO.C,J2*%
X227422400Y-193922500D03*
D20*
X224882400Y-193922500D03*
X222342400Y-193922500D03*
X219802400Y-193922500D03*
X217262400Y-193922500D03*
X214722400Y-193922500D03*
X212182400Y-193922500D03*
X209642400Y-193922500D03*
%TD*%
D10*
%TO.C,SW36*%
X226958500Y-209726600D03*
X231108500Y-209726600D03*
X226958500Y-211876600D03*
X231108500Y-211876600D03*
%TD*%
%TO.C,SW26*%
X233176400Y-201043300D03*
X237326400Y-201043300D03*
X233176400Y-203193300D03*
X237326400Y-203193300D03*
%TD*%
D14*
%TO.C,D36*%
X270938000Y-148852500D03*
X270938000Y-145877500D03*
%TD*%
D10*
%TO.C,SW53*%
X264176400Y-196701600D03*
X268326400Y-196701600D03*
X264176400Y-198851600D03*
X268326400Y-198851600D03*
%TD*%
D15*
%TO.C,R2*%
X226455000Y-182400000D03*
X226455000Y-190020000D03*
%TD*%
D10*
%TO.C,SW30*%
X282830000Y-201035000D03*
X286980000Y-201035000D03*
X282830000Y-203185000D03*
X286980000Y-203185000D03*
%TD*%
%TO.C,SW5*%
X301483500Y-196701600D03*
X305633500Y-196701600D03*
X301483500Y-198851600D03*
X305633500Y-198851600D03*
%TD*%
D21*
%TO.C,D3*%
X276405000Y-174550000D03*
X273430000Y-174550000D03*
%TD*%
D10*
%TO.C,SW13*%
X295265700Y-196701600D03*
X299415700Y-196701600D03*
X295265700Y-198851600D03*
X299415700Y-198851600D03*
%TD*%
D14*
%TO.C,D16*%
X228317100Y-148852500D03*
X228317100Y-145877500D03*
%TD*%
D10*
%TO.C,SW63*%
X257958500Y-205368300D03*
X262108500Y-205368300D03*
X257958500Y-207518300D03*
X262108500Y-207518300D03*
%TD*%
%TO.C,SW59*%
X208305000Y-205385000D03*
X212455000Y-205385000D03*
X208305000Y-207535000D03*
X212455000Y-207535000D03*
%TD*%
D14*
%TO.C,D32*%
X258760600Y-148852500D03*
X258760600Y-145877500D03*
%TD*%
%TO.C,D26*%
X240494500Y-148852500D03*
X240494500Y-145877500D03*
%TD*%
D22*
%TO.C,U3*%
X209805000Y-132730000D03*
D15*
X212345000Y-132730000D03*
X214885000Y-132730000D03*
X217425000Y-132730000D03*
X219965000Y-132730000D03*
X222505000Y-132730000D03*
X225045000Y-132730000D03*
X225045000Y-125110000D03*
X222505000Y-125110000D03*
X219965000Y-125110000D03*
X217425000Y-125110000D03*
X214885000Y-125110000D03*
X212345000Y-125110000D03*
X209805000Y-125110000D03*
%TD*%
D10*
%TO.C,SW41*%
X220740700Y-196701600D03*
X224890700Y-196701600D03*
X220740700Y-198851600D03*
X224890700Y-198851600D03*
%TD*%
D19*
%TO.C,J5*%
X208395000Y-70105000D03*
D20*
X210935000Y-70105000D03*
X213475000Y-70105000D03*
X216015000Y-70105000D03*
X218555000Y-70105000D03*
X221095000Y-70105000D03*
X223635000Y-70105000D03*
X226175000Y-70105000D03*
X228715000Y-70105000D03*
X231255000Y-70105000D03*
X233795000Y-70105000D03*
X236335000Y-70105000D03*
X238875000Y-70105000D03*
X241415000Y-70105000D03*
X243955000Y-70105000D03*
X246495000Y-70105000D03*
X249035000Y-70105000D03*
X251575000Y-70105000D03*
X254115000Y-70105000D03*
X256655000Y-70105000D03*
X259195000Y-70105000D03*
X261735000Y-70105000D03*
X264275000Y-70105000D03*
X266815000Y-70105000D03*
X269355000Y-70105000D03*
X271895000Y-70105000D03*
X274435000Y-70105000D03*
X276975000Y-70105000D03*
X279515000Y-70105000D03*
X282055000Y-70105000D03*
X284595000Y-70105000D03*
X287135000Y-70105000D03*
X289675000Y-70105000D03*
X292215000Y-70105000D03*
X294755000Y-70105000D03*
X297295000Y-70105000D03*
X299835000Y-70105000D03*
X302375000Y-70105000D03*
X304915000Y-70105000D03*
X307455000Y-70105000D03*
%TD*%
D10*
%TO.C,SW31*%
X282830000Y-205368300D03*
X286980000Y-205368300D03*
X282830000Y-207518300D03*
X286980000Y-207518300D03*
%TD*%
D21*
%TO.C,D14*%
X276405000Y-164630000D03*
X273430000Y-164630000D03*
%TD*%
D23*
%TO.C,U12*%
X290085000Y-192210000D03*
X291525000Y-192210000D03*
X292965000Y-192210000D03*
X294405000Y-192210000D03*
X295845000Y-192210000D03*
X295845000Y-182210000D03*
X294405000Y-182210000D03*
X292965000Y-182210000D03*
X291525000Y-182210000D03*
X290085000Y-182210000D03*
%TD*%
D14*
%TO.C,D31*%
X255716300Y-148852500D03*
X255716300Y-145877500D03*
%TD*%
D11*
%TO.C,Y3*%
X218005000Y-173350000D03*
D15*
X218005000Y-158110000D03*
X210385000Y-158110000D03*
X210385000Y-173350000D03*
%TD*%
D10*
%TO.C,SW15*%
X295265700Y-205368300D03*
X299415700Y-205368300D03*
X295265700Y-207518300D03*
X299415700Y-207518300D03*
%TD*%
%TO.C,SW2*%
X251830000Y-201018300D03*
X255980000Y-201018300D03*
X251830000Y-203168300D03*
X255980000Y-203168300D03*
%TD*%
D19*
%TO.C,J3*%
X210387200Y-80791000D03*
D20*
X210387200Y-83331000D03*
X210387200Y-85871000D03*
X210387200Y-88411000D03*
X210387200Y-90951000D03*
X210387200Y-93491000D03*
X210387200Y-96031000D03*
X210387200Y-98571000D03*
X210387200Y-101111000D03*
X210387200Y-103651000D03*
X210387200Y-106191000D03*
X210387200Y-108731000D03*
X210387200Y-111271000D03*
X210387200Y-113811000D03*
%TD*%
D14*
%TO.C,D34*%
X264849300Y-148852500D03*
X264849300Y-145877500D03*
%TD*%
D21*
%TO.C,D23*%
X276405000Y-157190000D03*
X273430000Y-157190000D03*
%TD*%
D14*
%TO.C,D29*%
X249627600Y-148852500D03*
X249627600Y-145877500D03*
%TD*%
D10*
%TO.C,SW29*%
X282830000Y-196701600D03*
X286980000Y-196701600D03*
X282830000Y-198851600D03*
X286980000Y-198851600D03*
%TD*%
D24*
%TO.C,U11*%
X253180000Y-154620000D03*
D15*
X253180000Y-157160000D03*
X253180000Y-159700000D03*
X253180000Y-162240000D03*
X253180000Y-164780000D03*
X253180000Y-167320000D03*
X253180000Y-169860000D03*
X253180000Y-172400000D03*
X253180000Y-174940000D03*
X253180000Y-177480000D03*
X260800000Y-177480000D03*
X260800000Y-174940000D03*
X260800000Y-172400000D03*
X260800000Y-169860000D03*
X260800000Y-167320000D03*
X260800000Y-164780000D03*
X260800000Y-162240000D03*
X260800000Y-159700000D03*
X260800000Y-157160000D03*
X260800000Y-154620000D03*
%TD*%
D21*
%TO.C,D11*%
X276405000Y-167110000D03*
X273430000Y-167110000D03*
%TD*%
D10*
%TO.C,SW28*%
X233176400Y-209726600D03*
X237326400Y-209726600D03*
X233176400Y-211876600D03*
X237326400Y-211876600D03*
%TD*%
D21*
%TO.C,D17*%
X276405000Y-162150000D03*
X273430000Y-162150000D03*
%TD*%
D10*
%TO.C,SW52*%
X214522800Y-209726600D03*
X218672800Y-209726600D03*
X214522800Y-211876600D03*
X218672800Y-211876600D03*
%TD*%
D16*
%TO.C,U5*%
X271005000Y-177490000D03*
D15*
X271005000Y-174950000D03*
X271005000Y-172410000D03*
X271005000Y-169870000D03*
X271005000Y-167330000D03*
X271005000Y-164790000D03*
X271005000Y-162250000D03*
X271005000Y-159710000D03*
X271005000Y-157170000D03*
X271005000Y-154630000D03*
X263385000Y-154630000D03*
X263385000Y-157170000D03*
X263385000Y-159710000D03*
X263385000Y-162250000D03*
X263385000Y-164790000D03*
X263385000Y-167330000D03*
X263385000Y-169870000D03*
X263385000Y-172410000D03*
X263385000Y-174950000D03*
X263385000Y-177490000D03*
%TD*%
D10*
%TO.C,SW45*%
X270394200Y-196701600D03*
X274544200Y-196701600D03*
X270394200Y-198851600D03*
X274544200Y-198851600D03*
%TD*%
%TO.C,SW6*%
X301483500Y-201035000D03*
X305633500Y-201035000D03*
X301483500Y-203185000D03*
X305633500Y-203185000D03*
%TD*%
D14*
%TO.C,D30*%
X252671900Y-148852500D03*
X252671900Y-145877500D03*
%TD*%
D21*
%TO.C,D20*%
X276405000Y-159670000D03*
X273430000Y-159670000D03*
%TD*%
D14*
%TO.C,D7*%
X219184100Y-148852500D03*
X219184100Y-145877500D03*
%TD*%
%TO.C,D1*%
X210051100Y-148852500D03*
X210051100Y-145877500D03*
%TD*%
D10*
%TO.C,SW27*%
X233176400Y-205385000D03*
X237326400Y-205385000D03*
X233176400Y-207535000D03*
X237326400Y-207535000D03*
%TD*%
%TO.C,SW42*%
X220740700Y-201043300D03*
X224890700Y-201043300D03*
X220740700Y-203193300D03*
X224890700Y-203193300D03*
%TD*%
%TO.C,SW14*%
X295265700Y-201035000D03*
X299415700Y-201035000D03*
X295265700Y-203185000D03*
X299415700Y-203185000D03*
%TD*%
%TO.C,SW64*%
X257958500Y-209701600D03*
X262108500Y-209701600D03*
X257958500Y-211851600D03*
X262108500Y-211851600D03*
%TD*%
D14*
%TO.C,D38*%
X277026700Y-148852500D03*
X277026700Y-145877500D03*
%TD*%
D10*
%TO.C,SW3*%
X251830000Y-205360000D03*
X255980000Y-205360000D03*
X251830000Y-207510000D03*
X255980000Y-207510000D03*
%TD*%
D18*
%TO.C,U19*%
X304050000Y-132150000D03*
X304050000Y-133100000D03*
X304050000Y-134050000D03*
X306350000Y-134050000D03*
X306350000Y-132150000D03*
%TD*%
D15*
%TO.C,R6*%
X210255000Y-182400000D03*
X210255000Y-190020000D03*
%TD*%
D10*
%TO.C,SW23*%
X289047800Y-205368300D03*
X293197800Y-205368300D03*
X289047800Y-207518300D03*
X293197800Y-207518300D03*
%TD*%
%TO.C,SW43*%
X220740700Y-205385000D03*
X224890700Y-205385000D03*
X220740700Y-207535000D03*
X224890700Y-207535000D03*
%TD*%
%TO.C,SW35*%
X226958500Y-205385000D03*
X231108500Y-205385000D03*
X226958500Y-207535000D03*
X231108500Y-207535000D03*
%TD*%
%TO.C,SW21*%
X289047800Y-196701600D03*
X293197800Y-196701600D03*
X289047800Y-198851600D03*
X293197800Y-198851600D03*
%TD*%
D13*
%TO.C,D18*%
X295071600Y-145922500D03*
X295071600Y-148897500D03*
%TD*%
D10*
%TO.C,SW39*%
X276612100Y-205368300D03*
X280762100Y-205368300D03*
X276612100Y-207518300D03*
X280762100Y-207518300D03*
%TD*%
%TO.C,SW24*%
X289047800Y-209701600D03*
X293197800Y-209701600D03*
X289047800Y-211851600D03*
X293197800Y-211851600D03*
%TD*%
%TO.C,SW47*%
X270394200Y-205368300D03*
X274544200Y-205368300D03*
X270394200Y-207518300D03*
X274544200Y-207518300D03*
%TD*%
%TO.C,SW38*%
X276612100Y-201035000D03*
X280762100Y-201035000D03*
X276612100Y-203185000D03*
X280762100Y-203185000D03*
%TD*%
%TO.C,SW17*%
X239394200Y-196701600D03*
X243544200Y-196701600D03*
X239394200Y-198851600D03*
X243544200Y-198851600D03*
%TD*%
D13*
%TO.C,D12*%
X300705000Y-145922500D03*
X300705000Y-148897500D03*
%TD*%
D25*
%TO.C,IC1*%
X251305000Y-180490000D03*
D26*
X251305000Y-177950000D03*
X251305000Y-175410000D03*
X251305000Y-172870000D03*
X251305000Y-170330000D03*
X251305000Y-167790000D03*
X251305000Y-165250000D03*
X251305000Y-162710000D03*
X251305000Y-160170000D03*
X251305000Y-157630000D03*
X251305000Y-155090000D03*
X251305000Y-152550000D03*
X236065000Y-152550000D03*
X236065000Y-155090000D03*
X236065000Y-157630000D03*
X236065000Y-160170000D03*
X236065000Y-162710000D03*
X236065000Y-165250000D03*
X236065000Y-167790000D03*
X236065000Y-170330000D03*
X236065000Y-172870000D03*
X236065000Y-175410000D03*
X236065000Y-177950000D03*
X236065000Y-180490000D03*
%TD*%
D14*
%TO.C,D28*%
X246583200Y-148852500D03*
X246583200Y-145877500D03*
%TD*%
D10*
%TO.C,SW37*%
X276612100Y-196701600D03*
X280762100Y-196701600D03*
X276612100Y-198851600D03*
X280762100Y-198851600D03*
%TD*%
%TO.C,SW33*%
X226958500Y-196701600D03*
X231108500Y-196701600D03*
X226958500Y-198851600D03*
X231108500Y-198851600D03*
%TD*%
D27*
%TO.C,Y2*%
X252105000Y-184910000D03*
X250205000Y-184910000D03*
%TD*%
D28*
%TO.C,SW65*%
X253005000Y-193010000D03*
X246505000Y-193010000D03*
X253005000Y-188510000D03*
X246505000Y-188510000D03*
%TD*%
D10*
%TO.C,SW8*%
X301483500Y-209701600D03*
X305633500Y-209701600D03*
X301483500Y-211851600D03*
X305633500Y-211851600D03*
%TD*%
%TO.C,SW32*%
X282830000Y-209701600D03*
X286980000Y-209701600D03*
X282830000Y-211851600D03*
X286980000Y-211851600D03*
%TD*%
%TO.C,SW25*%
X233176400Y-196701600D03*
X237326400Y-196701600D03*
X233176400Y-198851600D03*
X237326400Y-198851600D03*
%TD*%
D14*
%TO.C,D33*%
X261805000Y-148852500D03*
X261805000Y-145877500D03*
%TD*%
D11*
%TO.C,Y1*%
X232305000Y-173350000D03*
D15*
X232305000Y-158110000D03*
X224685000Y-158110000D03*
X224685000Y-173350000D03*
%TD*%
D23*
%TO.C,U14*%
X300285000Y-192210000D03*
X301725000Y-192210000D03*
X303165000Y-192210000D03*
X304605000Y-192210000D03*
X306045000Y-192210000D03*
X306045000Y-182210000D03*
X304605000Y-182210000D03*
X303165000Y-182210000D03*
X301725000Y-182210000D03*
X300285000Y-182210000D03*
%TD*%
D10*
%TO.C,SW12*%
X245612100Y-209726600D03*
X249762100Y-209726600D03*
X245612100Y-211876600D03*
X249762100Y-211876600D03*
%TD*%
D13*
%TO.C,D15*%
X297888300Y-145922500D03*
X297888300Y-148897500D03*
%TD*%
D10*
%TO.C,SW46*%
X270394200Y-201035000D03*
X274544200Y-201035000D03*
X270394200Y-203185000D03*
X274544200Y-203185000D03*
%TD*%
D16*
%TO.C,U13*%
X296830000Y-177340000D03*
D15*
X296830000Y-174800000D03*
X296830000Y-172260000D03*
X296830000Y-169720000D03*
X296830000Y-167180000D03*
X296830000Y-164640000D03*
X296830000Y-162100000D03*
X296830000Y-159560000D03*
X296830000Y-157020000D03*
X296830000Y-154480000D03*
X289210000Y-154480000D03*
X289210000Y-157020000D03*
X289210000Y-159560000D03*
X289210000Y-162100000D03*
X289210000Y-164640000D03*
X289210000Y-167180000D03*
X289210000Y-169720000D03*
X289210000Y-172260000D03*
X289210000Y-174800000D03*
X289210000Y-177340000D03*
%TD*%
D11*
%TO.C,U2*%
X230885000Y-132820000D03*
D12*
X233425000Y-132820000D03*
X235965000Y-132820000D03*
X238505000Y-132820000D03*
X241045000Y-132820000D03*
X243585000Y-132820000D03*
X246125000Y-132820000D03*
X246125000Y-125200000D03*
X243585000Y-125200000D03*
X241045000Y-125200000D03*
X238505000Y-125200000D03*
X235965000Y-125200000D03*
X233425000Y-125200000D03*
X230885000Y-125200000D03*
%TD*%
D14*
%TO.C,D13*%
X225272800Y-148852500D03*
X225272800Y-145877500D03*
%TD*%
D10*
%TO.C,SW40*%
X276612100Y-209701600D03*
X280762100Y-209701600D03*
X276612100Y-211851600D03*
X280762100Y-211851600D03*
%TD*%
%TO.C,SW34*%
X226958500Y-201043300D03*
X231108500Y-201043300D03*
X226958500Y-203193300D03*
X231108500Y-203193300D03*
%TD*%
%TO.C,SW44*%
X220740700Y-209726600D03*
X224890700Y-209726600D03*
X220740700Y-211876600D03*
X224890700Y-211876600D03*
%TD*%
D14*
%TO.C,D10*%
X222228400Y-148852500D03*
X222228400Y-145877500D03*
%TD*%
D10*
%TO.C,SW50*%
X214522800Y-201043300D03*
X218672800Y-201043300D03*
X214522800Y-203193300D03*
X218672800Y-203193300D03*
%TD*%
%TO.C,SW11*%
X245612100Y-205385000D03*
X249762100Y-205385000D03*
X245612100Y-207535000D03*
X249762100Y-207535000D03*
%TD*%
D14*
%TO.C,D39*%
X280071100Y-148852500D03*
X280071100Y-145877500D03*
%TD*%
%TO.C,D25*%
X237450200Y-148852500D03*
X237450200Y-145877500D03*
%TD*%
D15*
%TO.C,R1*%
X230505000Y-182400000D03*
X230505000Y-190020000D03*
%TD*%
D19*
%TO.C,J1*%
X283465000Y-192610000D03*
D20*
X286005000Y-192610000D03*
%TD*%
D14*
%TO.C,D22*%
X234405800Y-148852500D03*
X234405800Y-145877500D03*
%TD*%
D21*
%TO.C,D8*%
X276405000Y-169590000D03*
X273430000Y-169590000D03*
%TD*%
D10*
%TO.C,SW51*%
X214522800Y-205385000D03*
X218672800Y-205385000D03*
X214522800Y-207535000D03*
X218672800Y-207535000D03*
%TD*%
%TO.C,SW62*%
X257958500Y-201035000D03*
X262108500Y-201035000D03*
X257958500Y-203185000D03*
X262108500Y-203185000D03*
%TD*%
D16*
%TO.C,U15*%
X306930000Y-177340000D03*
D15*
X306930000Y-174800000D03*
X306930000Y-172260000D03*
X306930000Y-169720000D03*
X306930000Y-167180000D03*
X306930000Y-164640000D03*
X306930000Y-162100000D03*
X306930000Y-159560000D03*
X306930000Y-157020000D03*
X306930000Y-154480000D03*
X299310000Y-154480000D03*
X299310000Y-157020000D03*
X299310000Y-159560000D03*
X299310000Y-162100000D03*
X299310000Y-164640000D03*
X299310000Y-167180000D03*
X299310000Y-169720000D03*
X299310000Y-172260000D03*
X299310000Y-174800000D03*
X299310000Y-177340000D03*
%TD*%
D10*
%TO.C,SW7*%
X301483500Y-205368300D03*
X305633500Y-205368300D03*
X301483500Y-207518300D03*
X305633500Y-207518300D03*
%TD*%
D29*
%TO.C,BZ1*%
X234605000Y-189010000D03*
D28*
X242205000Y-189010000D03*
%TD*%
D16*
%TO.C,U10*%
X265172500Y-73230000D03*
D15*
X265172500Y-75770000D03*
X265172500Y-78310000D03*
X265172500Y-80850000D03*
X265172500Y-83390000D03*
X265172500Y-85930000D03*
X265172500Y-88470000D03*
X265172500Y-91010000D03*
X265172500Y-93550000D03*
X265172500Y-96090000D03*
X265172500Y-98630000D03*
X265172500Y-101170000D03*
X265172500Y-103710000D03*
X265172500Y-106250000D03*
X265172500Y-108790000D03*
X265172500Y-111330000D03*
X265172500Y-113870000D03*
X265172500Y-116410000D03*
X265172500Y-118950000D03*
X265172500Y-121490000D03*
X249932500Y-121490000D03*
X249932500Y-118950000D03*
X249932500Y-116410000D03*
X249932500Y-113870000D03*
X249932500Y-111330000D03*
X249932500Y-108790000D03*
X249932500Y-106250000D03*
X249932500Y-103710000D03*
X249932500Y-101170000D03*
X249932500Y-98630000D03*
X249932500Y-96090000D03*
X249932500Y-93550000D03*
X249932500Y-91010000D03*
X249932500Y-88470000D03*
X249932500Y-85930000D03*
X249932500Y-83390000D03*
X249932500Y-80850000D03*
X249932500Y-78310000D03*
X249932500Y-75770000D03*
X249932500Y-73230000D03*
%TD*%
D16*
%TO.C,U16*%
X246782500Y-73230000D03*
D15*
X246782500Y-75770000D03*
X246782500Y-78310000D03*
X246782500Y-80850000D03*
X246782500Y-83390000D03*
X246782500Y-85930000D03*
X246782500Y-88470000D03*
X246782500Y-91010000D03*
X246782500Y-93550000D03*
X246782500Y-96090000D03*
X246782500Y-98630000D03*
X246782500Y-101170000D03*
X246782500Y-103710000D03*
X246782500Y-106250000D03*
X246782500Y-108790000D03*
X246782500Y-111330000D03*
X246782500Y-113870000D03*
X246782500Y-116410000D03*
X246782500Y-118950000D03*
X246782500Y-121490000D03*
X231542500Y-121490000D03*
X231542500Y-118950000D03*
X231542500Y-116410000D03*
X231542500Y-113870000D03*
X231542500Y-111330000D03*
X231542500Y-108790000D03*
X231542500Y-106250000D03*
X231542500Y-103710000D03*
X231542500Y-101170000D03*
X231542500Y-98630000D03*
X231542500Y-96090000D03*
X231542500Y-93550000D03*
X231542500Y-91010000D03*
X231542500Y-88470000D03*
X231542500Y-85930000D03*
X231542500Y-83390000D03*
X231542500Y-80850000D03*
X231542500Y-78310000D03*
X231542500Y-75770000D03*
X231542500Y-73230000D03*
%TD*%
D29*
%TO.C,BT1*%
X232205000Y-152810000D03*
D28*
X211405000Y-152810000D03*
%TD*%
D30*
%TO.C,U9*%
X281747500Y-82760000D03*
D31*
X281747500Y-85300000D03*
X281747500Y-87840000D03*
X281747500Y-90380000D03*
X281747500Y-92920000D03*
X281747500Y-95460000D03*
X281747500Y-98000000D03*
X281747500Y-100540000D03*
X281747500Y-103080000D03*
X281747500Y-105620000D03*
X281747500Y-108160000D03*
X281747500Y-110700000D03*
X281747500Y-113240000D03*
X281747500Y-115780000D03*
X271587500Y-115780000D03*
X271587500Y-113240000D03*
X271587500Y-110700000D03*
X271587500Y-108160000D03*
X271587500Y-105620000D03*
X271587500Y-103080000D03*
X271587500Y-100540000D03*
X271587500Y-98000000D03*
X271587500Y-95460000D03*
X271587500Y-92920000D03*
X271587500Y-90380000D03*
X271587500Y-87840000D03*
X271587500Y-85300000D03*
X271587500Y-82760000D03*
%TD*%
D30*
%TO.C,U7*%
X303112500Y-82660000D03*
D31*
X303112500Y-85200000D03*
X303112500Y-87740000D03*
X303112500Y-90280000D03*
X303112500Y-92820000D03*
X303112500Y-95360000D03*
X303112500Y-97900000D03*
X303112500Y-100440000D03*
X303112500Y-102980000D03*
X303112500Y-105520000D03*
X303112500Y-108060000D03*
X303112500Y-110600000D03*
X303112500Y-113140000D03*
X303112500Y-115680000D03*
X292952500Y-115680000D03*
X292952500Y-113140000D03*
X292952500Y-110600000D03*
X292952500Y-108060000D03*
X292952500Y-105520000D03*
X292952500Y-102980000D03*
X292952500Y-100440000D03*
X292952500Y-97900000D03*
X292952500Y-95360000D03*
X292952500Y-92820000D03*
X292952500Y-90280000D03*
X292952500Y-87740000D03*
X292952500Y-85200000D03*
X292952500Y-82660000D03*
%TD*%
D32*
%TO.C,U8*%
X290445000Y-139257500D03*
D33*
X287905000Y-139257500D03*
X285365000Y-139257500D03*
X282825000Y-139257500D03*
X280285000Y-139257500D03*
X277745000Y-139257500D03*
X275205000Y-139257500D03*
X272665000Y-139257500D03*
X270125000Y-139257500D03*
X267585000Y-139257500D03*
X265045000Y-139257500D03*
X262505000Y-139257500D03*
X259965000Y-139257500D03*
X257425000Y-139257500D03*
X257425000Y-129097500D03*
X259965000Y-129097500D03*
X262505000Y-129097500D03*
X265045000Y-129097500D03*
X267585000Y-129097500D03*
X270125000Y-129097500D03*
X272665000Y-129097500D03*
X275205000Y-129097500D03*
X277745000Y-129097500D03*
X280285000Y-129097500D03*
X282825000Y-129097500D03*
X285365000Y-129097500D03*
X287905000Y-129097500D03*
X290445000Y-129097500D03*
%TD*%
D16*
%TO.C,U17*%
X228392500Y-73230000D03*
D15*
X228392500Y-75770000D03*
X228392500Y-78310000D03*
X228392500Y-80850000D03*
X228392500Y-83390000D03*
X228392500Y-85930000D03*
X228392500Y-88470000D03*
X228392500Y-91010000D03*
X228392500Y-93550000D03*
X228392500Y-96090000D03*
X228392500Y-98630000D03*
X228392500Y-101170000D03*
X228392500Y-103710000D03*
X228392500Y-106250000D03*
X228392500Y-108790000D03*
X228392500Y-111330000D03*
X228392500Y-113870000D03*
X228392500Y-116410000D03*
X228392500Y-118950000D03*
X228392500Y-121490000D03*
X213152500Y-121490000D03*
X213152500Y-118950000D03*
X213152500Y-116410000D03*
X213152500Y-113870000D03*
X213152500Y-111330000D03*
X213152500Y-108790000D03*
X213152500Y-106250000D03*
X213152500Y-103710000D03*
X213152500Y-101170000D03*
X213152500Y-98630000D03*
X213152500Y-96090000D03*
X213152500Y-93550000D03*
X213152500Y-91010000D03*
X213152500Y-88470000D03*
X213152500Y-85930000D03*
X213152500Y-83390000D03*
X213152500Y-80850000D03*
X213152500Y-78310000D03*
X213152500Y-75770000D03*
X213152500Y-73230000D03*
%TD*%
M02*
