%TF.GenerationSoftware,KiCad,Pcbnew,10.0.1*%
%TF.CreationDate,2026-05-14T20:43:56+08:00*%
%TF.ProjectId,z80handheld,7a383068-616e-4646-9865-6c642e6b6963,rev?*%
%TF.SameCoordinates,Original*%
%TF.FileFunction,Copper,L2,Bot*%
%TF.FilePolarity,Positive*%
%FSLAX46Y46*%
G04 Gerber Fmt 4.6, Leading zero omitted, Abs format (unit mm)*
G04 Created by KiCad (PCBNEW 10.0.1) date 2026-05-14 20:43:56*
%MOMM*%
%LPD*%
G01*
G04 APERTURE LIST*
G04 Aperture macros list*
%AMRoundRect*
0 Rectangle with rounded corners*
0 $1 Rounding radius*
0 $2 $3 $4 $5 $6 $7 $8 $9 X,Y pos of 4 corners*
0 Add a 4 corners polygon primitive as box body*
4,1,4,$2,$3,$4,$5,$6,$7,$8,$9,$2,$3,0*
0 Add four circle primitives for the rounded corners*
1,1,$1+$1,$2,$3*
1,1,$1+$1,$4,$5*
1,1,$1+$1,$6,$7*
1,1,$1+$1,$8,$9*
0 Add four rect primitives between the rounded corners*
20,1,$1+$1,$2,$3,$4,$5,0*
20,1,$1+$1,$4,$5,$6,$7,0*
20,1,$1+$1,$6,$7,$8,$9,0*
20,1,$1+$1,$8,$9,$2,$3,0*%
G04 Aperture macros list end*
%TA.AperFunction,ComponentPad*%
%ADD10C,1.600000*%
%TD*%
%TA.AperFunction,ComponentPad*%
%ADD11R,1.700000X1.700000*%
%TD*%
%TA.AperFunction,ComponentPad*%
%ADD12C,1.700000*%
%TD*%
%TA.AperFunction,ComponentPad*%
%ADD13RoundRect,0.250000X0.550000X0.550000X-0.550000X0.550000X-0.550000X-0.550000X0.550000X-0.550000X0*%
%TD*%
%TA.AperFunction,ComponentPad*%
%ADD14RoundRect,0.250000X-0.550000X-0.550000X0.550000X-0.550000X0.550000X0.550000X-0.550000X0.550000X0*%
%TD*%
%TA.AperFunction,ComponentPad*%
%ADD15R,1.600000X1.600000*%
%TD*%
%TA.AperFunction,ComponentPad*%
%ADD16RoundRect,0.250000X0.550000X-0.550000X0.550000X0.550000X-0.550000X0.550000X-0.550000X-0.550000X0*%
%TD*%
%TA.AperFunction,ComponentPad*%
%ADD17R,1.524000X2.524000*%
%TD*%
%TA.AperFunction,ComponentPad*%
%ADD18O,1.524000X2.524000*%
%TD*%
%TA.AperFunction,ComponentPad*%
%ADD19R,1.110000X1.110000*%
%TD*%
%TA.AperFunction,ComponentPad*%
%ADD20C,1.110000*%
%TD*%
%TA.AperFunction,ComponentPad*%
%ADD21C,2.000000*%
%TD*%
%TA.AperFunction,ComponentPad*%
%ADD22R,2.000000X2.000000*%
%TD*%
%TA.AperFunction,ComponentPad*%
%ADD23RoundRect,0.250000X-0.550000X0.550000X-0.550000X-0.550000X0.550000X-0.550000X0.550000X0.550000X0*%
%TD*%
%TA.AperFunction,ComponentPad*%
%ADD24C,1.000000*%
%TD*%
%TA.AperFunction,ComponentPad*%
%ADD25R,1.440000X2.000000*%
%TD*%
%TA.AperFunction,ComponentPad*%
%ADD26O,1.440000X2.000000*%
%TD*%
%TA.AperFunction,ViaPad*%
%ADD27C,0.600000*%
%TD*%
%TA.AperFunction,Conductor*%
%ADD28C,0.200000*%
%TD*%
G04 APERTURE END LIST*
D10*
%TO.P,R2,1*%
%TO.N,5V*%
X49880049Y-118000000D03*
%TO.P,R2,2*%
%TO.N,Net-(U10-~{NMI})*%
X42260049Y-118000000D03*
%TD*%
D11*
%TO.P,J5,1,Pin_1_1*%
%TO.N,5V*%
X24170049Y-140007167D03*
D12*
%TO.P,J5,2,Pin_2_2*%
%TO.N,GND*%
X24170049Y-137467167D03*
%TO.P,J5,3,Pin_3_3*%
%TO.N,TX2*%
X24170049Y-134927167D03*
%TO.P,J5,4,Pin_4_4*%
%TO.N,RX2*%
X24170049Y-132387167D03*
%TO.P,J5,5,Pin_5_5*%
%TO.N,!M1*%
X24170049Y-129847167D03*
%TO.P,J5,6,Pin_6_6*%
%TO.N,!MREQ*%
X24170049Y-127307167D03*
%TO.P,J5,7,Pin_7_7*%
%TO.N,!IORQ*%
X24170049Y-124767167D03*
%TO.P,J5,8,Pin_8_8*%
%TO.N,!RD*%
X24170049Y-122227167D03*
%TO.P,J5,9,Pin_9_9*%
%TO.N,!WR*%
X24170049Y-119687167D03*
%TO.P,J5,10,Pin_10_10*%
%TO.N,!INT*%
X24170049Y-117147167D03*
%TO.P,J5,11,Pin_11_11*%
%TO.N,!HALT*%
X24170049Y-114607167D03*
%TO.P,J5,12,Pin_12_12*%
%TO.N,!RESET*%
X24170049Y-112067167D03*
%TO.P,J5,13,Pin_13_13*%
%TO.N,IO8*%
X24170049Y-109527167D03*
%TO.P,J5,14,Pin_14_14*%
%TO.N,CLK*%
X24170049Y-106987167D03*
%TO.P,J5,15,Pin_15_15*%
%TO.N,unconnected-(J5-Pin_15-Pad15)*%
X24170049Y-104447167D03*
%TO.P,J5,16,Pin_16_16*%
%TO.N,/A0*%
X24170049Y-101907167D03*
%TO.P,J5,17,Pin_17_17*%
%TO.N,/A1*%
X24170049Y-99367167D03*
%TO.P,J5,18,Pin_18_18*%
%TO.N,/A2*%
X24170049Y-96827167D03*
%TO.P,J5,19,Pin_19_19*%
%TO.N,/A3*%
X24170049Y-94287167D03*
%TO.P,J5,20,Pin_20_20*%
%TO.N,/A4*%
X24170049Y-91747167D03*
%TO.P,J5,21,Pin_21_21*%
%TO.N,/A5*%
X24170049Y-89207167D03*
%TO.P,J5,22,Pin_22_22*%
%TO.N,/A6*%
X24170049Y-86667167D03*
%TO.P,J5,23,Pin_23_23*%
%TO.N,/A7*%
X24170049Y-84127167D03*
%TO.P,J5,24,Pin_24_24*%
%TO.N,/A8*%
X24170049Y-81587167D03*
%TO.P,J5,25,Pin_25_25*%
%TO.N,/A9*%
X24170049Y-79047167D03*
%TO.P,J5,26,Pin_26_26*%
%TO.N,/A10*%
X24170049Y-76507167D03*
%TO.P,J5,27,Pin_27_27*%
%TO.N,/A11*%
X24170049Y-73967167D03*
%TO.P,J5,28,Pin_28_28*%
%TO.N,/A12*%
X24170049Y-71427167D03*
%TO.P,J5,29,Pin_29_29*%
%TO.N,/A13*%
X24170049Y-68887167D03*
%TO.P,J5,30,Pin_30_30*%
%TO.N,/A14*%
X24170049Y-66347167D03*
%TO.P,J5,31,Pin_31_31*%
%TO.N,A15*%
X24170049Y-63807167D03*
%TO.P,J5,32,Pin_32_32*%
%TO.N,unconnected-(J5-Pin_32-Pad32)*%
X24170049Y-61267167D03*
%TO.P,J5,33,Pin_33_33*%
%TO.N,/D0*%
X24170049Y-58727167D03*
%TO.P,J5,34,Pin_34_34*%
%TO.N,/D1*%
X24170049Y-56187167D03*
%TO.P,J5,35,Pin_35_35*%
%TO.N,/D2*%
X24170049Y-53647167D03*
%TO.P,J5,36,Pin_36_36*%
%TO.N,/D3*%
X24170049Y-51107167D03*
%TO.P,J5,37,Pin_37_37*%
%TO.N,/D4*%
X24170049Y-48567167D03*
%TO.P,J5,38,Pin_38_38*%
%TO.N,/D5*%
X24170049Y-46027167D03*
%TO.P,J5,39,Pin_39_39*%
%TO.N,/D6*%
X24170049Y-43487167D03*
%TO.P,J5,40,Pin_40_40*%
%TO.N,/D7*%
X24170049Y-40947167D03*
%TD*%
D13*
%TO.P,U18,1*%
%TO.N,A15*%
X80470049Y-97840000D03*
D10*
%TO.P,U18,2*%
%TO.N,Net-(U1-Pad4)*%
X80470049Y-95300000D03*
%TO.P,U18,3*%
%TO.N,!CS_EEPROM*%
X80470049Y-92760000D03*
%TO.P,U18,4*%
%TO.N,A15*%
X80470049Y-90220000D03*
%TO.P,U18,5*%
%TO.N,Net-(U1-Pad4)*%
X80470049Y-87680000D03*
%TO.P,U18,6*%
%TO.N,!CS_RAM*%
X80470049Y-85140000D03*
%TO.P,U18,7,GND_7*%
%TO.N,GND*%
X80470049Y-82600000D03*
%TO.P,U18,8*%
%TO.N,!CS_Main*%
X72850049Y-82600000D03*
%TO.P,U18,9*%
%TO.N,Net-(U1-Pad12)*%
X72850049Y-85140000D03*
%TO.P,U18,10*%
%TO.N,Net-(U1-Pad4)*%
X72850049Y-87680000D03*
%TO.P,U18,11*%
%TO.N,unconnected-(U18-Pad11)*%
X72850049Y-90220000D03*
%TO.P,U18,12*%
%TO.N,unconnected-(U18-Pad12)*%
X72850049Y-92760000D03*
%TO.P,U18,13*%
%TO.N,unconnected-(U18-Pad13)*%
X72850049Y-95300000D03*
%TO.P,U18,14,VCC_14*%
%TO.N,5V*%
X72850049Y-97840000D03*
%TD*%
%TO.P,R5,1*%
%TO.N,!RESET*%
X139870049Y-88090000D03*
%TO.P,R5,2*%
%TO.N,5V*%
X139870049Y-95710000D03*
%TD*%
D14*
%TO.P,U10,1,A_{11}_1*%
%TO.N,/A11*%
X33730049Y-65960000D03*
D10*
%TO.P,U10,2,A_{12}_2*%
%TO.N,/A12*%
X33730049Y-68500000D03*
%TO.P,U10,3,A_{13}_3*%
%TO.N,/A13*%
X33730049Y-71040000D03*
%TO.P,U10,4,A_{14}_4*%
%TO.N,/A14*%
X33730049Y-73580000D03*
%TO.P,U10,5,A_{15}_5*%
%TO.N,A15*%
X33730049Y-76120000D03*
%TO.P,U10,6,CLK_6*%
%TO.N,CLK*%
X33730049Y-78660000D03*
%TO.P,U10,7,D_{4}_7*%
%TO.N,/D4*%
X33730049Y-81200000D03*
%TO.P,U10,8,D_{3}_8*%
%TO.N,/D3*%
X33730049Y-83740000D03*
%TO.P,U10,9,D_{5}_9*%
%TO.N,/D5*%
X33730049Y-86280000D03*
%TO.P,U10,10,D_{6}_10*%
%TO.N,/D6*%
X33730049Y-88820000D03*
%TO.P,U10,11,V_{CC}_11*%
%TO.N,5V*%
X33730049Y-91360000D03*
%TO.P,U10,12,D_{2}_12*%
%TO.N,/D2*%
X33730049Y-93900000D03*
%TO.P,U10,13,D_{7}_13*%
%TO.N,/D7*%
X33730049Y-96440000D03*
%TO.P,U10,14,D_{0}_14*%
%TO.N,/D0*%
X33730049Y-98980000D03*
%TO.P,U10,15,D_{1}_15*%
%TO.N,/D1*%
X33730049Y-101520000D03*
%TO.P,U10,16,~{INT}_16*%
%TO.N,!INT*%
X33730049Y-104060000D03*
%TO.P,U10,17,~{NMI}_17*%
%TO.N,Net-(U10-~{NMI})*%
X33730049Y-106600000D03*
%TO.P,U10,18,~{HALT}_18*%
%TO.N,!HALT*%
X33730049Y-109140000D03*
%TO.P,U10,19,~{MREQ}_19*%
%TO.N,!MREQ*%
X33730049Y-111680000D03*
%TO.P,U10,20,~{IORQ}_20*%
%TO.N,!IORQ*%
X33730049Y-114220000D03*
%TO.P,U10,21,~{RD}_21*%
%TO.N,!RD*%
X48970049Y-114220000D03*
%TO.P,U10,22,~{WR}_22*%
%TO.N,!WR*%
X48970049Y-111680000D03*
%TO.P,U10,23,~{BUSACK}_23*%
%TO.N,unconnected-(U10-~{BUSACK}-Pad23)*%
X48970049Y-109140000D03*
%TO.P,U10,24,~{WAIT}_24*%
%TO.N,Net-(U10-~{WAIT})*%
X48970049Y-106600000D03*
%TO.P,U10,25,~{BUSREQ}_25*%
%TO.N,Net-(U10-~{BUSREQ})*%
X48970049Y-104060000D03*
%TO.P,U10,26,~{RESET}_26*%
%TO.N,!RESET*%
X48970049Y-101520000D03*
%TO.P,U10,27,~{M1}_27*%
%TO.N,!M1*%
X48970049Y-98980000D03*
%TO.P,U10,28,~{RFSH}_28*%
%TO.N,unconnected-(U10-~{RFSH}-Pad28)*%
X48970049Y-96440000D03*
%TO.P,U10,29,GND_29*%
%TO.N,GND*%
X48970049Y-93900000D03*
%TO.P,U10,30,A_{0}_30*%
%TO.N,/A0*%
X48970049Y-91360000D03*
%TO.P,U10,31,A_{1}_31*%
%TO.N,/A1*%
X48970049Y-88820000D03*
%TO.P,U10,32,A_{2}_32*%
%TO.N,/A2*%
X48970049Y-86280000D03*
%TO.P,U10,33,A_{3}_33*%
%TO.N,/A3*%
X48970049Y-83740000D03*
%TO.P,U10,34,A_{4}_34*%
%TO.N,/A4*%
X48970049Y-81200000D03*
%TO.P,U10,35,A_{5}_35*%
%TO.N,/A5*%
X48970049Y-78660000D03*
%TO.P,U10,36,A_{6}_36*%
%TO.N,/A6*%
X48970049Y-76120000D03*
%TO.P,U10,37,A_{7}_37*%
%TO.N,/A7*%
X48970049Y-73580000D03*
%TO.P,U10,38,A_{8}_38*%
%TO.N,/A8*%
X48970049Y-71040000D03*
%TO.P,U10,39,A_{9}_39*%
%TO.N,/A9*%
X48970049Y-68500000D03*
%TO.P,U10,40,A_{10}_40*%
%TO.N,/A10*%
X48970049Y-65960000D03*
%TD*%
D15*
%TO.P,Y3,1,EN_1*%
%TO.N,5V*%
X35250049Y-43500000D03*
D10*
%TO.P,Y3,7,GND_7*%
%TO.N,GND*%
X35250049Y-58740000D03*
%TO.P,Y3,8,OUT_8*%
%TO.N,Net-(U16-XIN)*%
X42870049Y-58740000D03*
%TO.P,Y3,14,Vcc_14*%
%TO.N,5V*%
X42870049Y-43500000D03*
%TD*%
D13*
%TO.P,U1,1*%
%TO.N,Net-(U4-~{S0})*%
X59770049Y-116800000D03*
D10*
%TO.P,U1,2*%
%TO.N,5V*%
X59770049Y-114260000D03*
%TO.P,U1,3*%
%TO.N,!MREQ*%
X59770049Y-111720000D03*
%TO.P,U1,4*%
%TO.N,Net-(U1-Pad4)*%
X59770049Y-109180000D03*
%TO.P,U1,5*%
%TO.N,Net-(U4-~{S2})*%
X59770049Y-106640000D03*
%TO.P,U1,6*%
%TO.N,IO2*%
X59770049Y-104100000D03*
%TO.P,U1,7,GND_7*%
%TO.N,GND*%
X59770049Y-101560000D03*
%TO.P,U1,8*%
%TO.N,IO3*%
X52150049Y-101560000D03*
%TO.P,U1,9*%
%TO.N,Net-(U4-~{S3})*%
X52150049Y-104100000D03*
%TO.P,U1,10*%
%TO.N,PullIO*%
X52150049Y-106640000D03*
%TO.P,U1,11*%
%TO.N,!M1*%
X52150049Y-109180000D03*
%TO.P,U1,12*%
%TO.N,Net-(U1-Pad12)*%
X52150049Y-111720000D03*
%TO.P,U1,13*%
%TO.N,A15*%
X52150049Y-114260000D03*
%TO.P,U1,14,VCC_14*%
%TO.N,5V*%
X52150049Y-116800000D03*
%TD*%
D13*
%TO.P,U3,1*%
%TO.N,Net-(U4-~{S4})*%
X80270049Y-118340000D03*
D10*
%TO.P,U3,2*%
%TO.N,IO4*%
X80270049Y-115800000D03*
%TO.P,U3,3*%
%TO.N,Net-(U4-~{S5})*%
X80270049Y-113260000D03*
%TO.P,U3,4*%
%TO.N,IO5*%
X80270049Y-110720000D03*
%TO.P,U3,5*%
%TO.N,Net-(U4-~{S6})*%
X80270049Y-108180000D03*
%TO.P,U3,6*%
%TO.N,IO6*%
X80270049Y-105640000D03*
%TO.P,U3,7,GND_7*%
%TO.N,GND*%
X80270049Y-103100000D03*
%TO.P,U3,8*%
%TO.N,IO8*%
X72650049Y-103100000D03*
%TO.P,U3,9*%
%TO.N,Net-(U4-~{S8})*%
X72650049Y-105640000D03*
%TO.P,U3,10*%
%TO.N,!INT*%
X72650049Y-108180000D03*
%TO.P,U3,11*%
%TO.N,Net-(U16-INTR)*%
X72650049Y-110720000D03*
%TO.P,U3,12*%
%TO.N,Net-(U16-MR)*%
X72650049Y-113260000D03*
%TO.P,U3,13*%
%TO.N,!RESET*%
X72650049Y-115800000D03*
%TO.P,U3,14,VCC_14*%
%TO.N,5V*%
X72650049Y-118340000D03*
%TD*%
D11*
%TO.P,J3,1,Pin_1_1*%
%TO.N,unconnected-(J3-Pin_1-Pad1)*%
X48770049Y-27860000D03*
D12*
%TO.P,J3,2,Pin_2_2*%
%TO.N,unconnected-(J3-Pin_2-Pad2)*%
X48770049Y-30400000D03*
%TO.P,J3,3,Pin_3_3*%
%TO.N,unconnected-(J3-Pin_3-Pad3)*%
X48770049Y-32940000D03*
%TO.P,J3,4,Pin_4_4*%
%TO.N,unconnected-(J3-Pin_4-Pad4)*%
X48770049Y-35480000D03*
%TO.P,J3,5,Pin_5_5*%
%TO.N,unconnected-(J3-Pin_5-Pad5)*%
X48770049Y-38020000D03*
%TO.P,J3,6,Pin_6_6*%
%TO.N,Net-(J3-Pin_6)*%
X48770049Y-40560000D03*
%TO.P,J3,7,Pin_7_7*%
%TO.N,Net-(J2-Pin_3)*%
X48770049Y-43100000D03*
%TO.P,J3,8,Pin_8_8*%
%TO.N,Net-(J2-Pin_4)*%
X48770049Y-45640000D03*
%TO.P,J3,9,Pin_9_9*%
%TO.N,Net-(J3-Pin_9)*%
X48770049Y-48180000D03*
%TO.P,J3,10,Pin_10_10*%
%TO.N,Net-(J2-Pin_5)*%
X48770049Y-50720000D03*
%TO.P,J3,11,Pin_11_11*%
%TO.N,Net-(J2-Pin_7)*%
X48770049Y-53260000D03*
%TO.P,J3,12,Pin_12_12*%
%TO.N,Net-(J2-Pin_8)*%
X48770049Y-55800000D03*
%TO.P,J3,13,Pin_13_13*%
%TO.N,GND*%
X48770049Y-58340000D03*
%TO.P,J3,14,Pin_14_14*%
%TO.N,5V*%
X48770049Y-60880000D03*
%TD*%
D16*
%TO.P,U6,1,OE_1*%
%TO.N,GND*%
X83850049Y-111410000D03*
D10*
%TO.P,U6,2,D0_2*%
%TO.N,/D0*%
X86390049Y-111410000D03*
%TO.P,U6,3,D1_3*%
%TO.N,/D1*%
X88930049Y-111410000D03*
%TO.P,U6,4,D2_4*%
%TO.N,/D2*%
X91470049Y-111410000D03*
%TO.P,U6,5,D3_5*%
%TO.N,/D3*%
X94010049Y-111410000D03*
%TO.P,U6,6,D4_6*%
%TO.N,/D4*%
X96550049Y-111410000D03*
%TO.P,U6,7,D5_7*%
%TO.N,/D5*%
X99090049Y-111410000D03*
%TO.P,U6,8,D6_8*%
%TO.N,/D6*%
X101630049Y-111410000D03*
%TO.P,U6,9,D7_9*%
%TO.N,/D7*%
X104170049Y-111410000D03*
%TO.P,U6,10,GND_10*%
%TO.N,GND*%
X106710049Y-111410000D03*
%TO.P,U6,11,Load_11*%
%TO.N,IO4*%
X106710049Y-103790000D03*
%TO.P,U6,12,Q7_12*%
%TO.N,Net-(D23-A)*%
X104170049Y-103790000D03*
%TO.P,U6,13,Q6_13*%
%TO.N,Net-(D20-A)*%
X101630049Y-103790000D03*
%TO.P,U6,14,Q5_14*%
%TO.N,Net-(D17-A)*%
X99090049Y-103790000D03*
%TO.P,U6,15,Q4_15*%
%TO.N,Net-(D14-A)*%
X96550049Y-103790000D03*
%TO.P,U6,16,Q3_16*%
%TO.N,Net-(D11-A)*%
X94010049Y-103790000D03*
%TO.P,U6,17,Q2_17*%
%TO.N,Net-(D8-A)*%
X91470049Y-103790000D03*
%TO.P,U6,18,Q1_18*%
%TO.N,!CS_RAM*%
X88930049Y-103790000D03*
%TO.P,U6,19,Q0_19*%
%TO.N,!CS_EEPROM*%
X86390049Y-103790000D03*
%TO.P,U6,20,VCC_20*%
%TO.N,5V*%
X83850049Y-103790000D03*
%TD*%
D11*
%TO.P,J4,1,Pin_1_1*%
%TO.N,TX1*%
X23940049Y-35690000D03*
D12*
%TO.P,J4,2,Pin_2_2*%
%TO.N,RX1*%
X23940049Y-33150000D03*
%TO.P,J4,3,Pin_3_3*%
%TO.N,unconnected-(J4-Pin_3-Pad3)*%
X23940049Y-30610000D03*
%TO.P,J4,4,Pin_4_4*%
%TO.N,unconnected-(J4-Pin_4-Pad4)*%
X23940049Y-28070000D03*
%TO.P,J4,5,Pin_5_5*%
%TO.N,Net-(J3-Pin_6)*%
X23940049Y-25530000D03*
%TO.P,J4,6,Pin_6_6*%
%TO.N,unconnected-(J4-Pin_6-Pad6)*%
X23940049Y-22990000D03*
%TO.P,J4,7,Pin_7_7*%
%TO.N,unconnected-(J4-Pin_7-Pad7)*%
X23940049Y-20450000D03*
%TO.P,J4,8,Pin_8_8*%
%TO.N,Net-(J3-Pin_9)*%
X23940049Y-17910000D03*
%TD*%
D17*
%TO.P,U14,1,CA_1*%
%TO.N,Net-(R6-Pad2)*%
X110090049Y-94820000D03*
D18*
%TO.P,U14,2,F_2*%
%TO.N,Net-(U14-F)*%
X112630049Y-94820000D03*
%TO.P,U14,3,G_3*%
%TO.N,Net-(U14-G)*%
X115170049Y-94820000D03*
%TO.P,U14,4,E_4*%
%TO.N,Net-(U14-E)*%
X117710049Y-94820000D03*
%TO.P,U14,5,D_5*%
%TO.N,Net-(U14-D)*%
X120250049Y-94820000D03*
%TO.P,U14,6,CA_6*%
%TO.N,Net-(R6-Pad2)*%
X120250049Y-79580000D03*
%TO.P,U14,7,DP_7*%
%TO.N,Net-(U14-DP)*%
X117710049Y-79580000D03*
%TO.P,U14,8,C_8*%
%TO.N,Net-(U14-C)*%
X115170049Y-79580000D03*
%TO.P,U14,9,B_9*%
%TO.N,Net-(U14-B)*%
X112630049Y-79580000D03*
%TO.P,U14,10,A_10*%
%TO.N,Net-(U14-A)*%
X110090049Y-79580000D03*
%TD*%
D19*
%TO.P,IC1,1,MOT_1*%
%TO.N,GND*%
X138870049Y-98100000D03*
D20*
%TO.P,IC1,2,X1_2*%
%TO.N,Net-(IC1-X1)*%
X136330049Y-98100000D03*
%TO.P,IC1,3,X2_3*%
%TO.N,Net-(IC1-X2)*%
X133790049Y-98100000D03*
%TO.P,IC1,4,AD0_4*%
%TO.N,/D0*%
X131250049Y-98100000D03*
%TO.P,IC1,5,AD1_5*%
%TO.N,/D1*%
X128710049Y-98100000D03*
%TO.P,IC1,6,AD2_6*%
%TO.N,/D2*%
X126170049Y-98100000D03*
%TO.P,IC1,7,AD3_7*%
%TO.N,/D3*%
X123630049Y-98100000D03*
%TO.P,IC1,8,AD4_8*%
%TO.N,/D4*%
X121090049Y-98100000D03*
%TO.P,IC1,9,AD5_9*%
%TO.N,/D5*%
X118550049Y-98100000D03*
%TO.P,IC1,10,AD6_10*%
%TO.N,/D6*%
X116010049Y-98100000D03*
%TO.P,IC1,11,AD7_11*%
%TO.N,/D7*%
X113470049Y-98100000D03*
%TO.P,IC1,12,GND_1_12*%
%TO.N,GND*%
X110930049Y-98100000D03*
%TO.P,IC1,13,~{CS}_13*%
%TO.N,IO7*%
X110930049Y-113340000D03*
%TO.P,IC1,14,AS_14*%
%TO.N,/A0*%
X113470049Y-113340000D03*
%TO.P,IC1,15,R/~{W}_15*%
%TO.N,!WR*%
X116010049Y-113340000D03*
%TO.P,IC1,16,GND_2_16*%
%TO.N,GND*%
X118550049Y-113340000D03*
%TO.P,IC1,17,DS_17*%
%TO.N,!RD*%
X121090049Y-113340000D03*
%TO.P,IC1,18,~{RESET}_18*%
%TO.N,!RESET*%
X123630049Y-113340000D03*
%TO.P,IC1,19,~{IRQ}_19*%
%TO.N,!INT*%
X126170049Y-113340000D03*
%TO.P,IC1,20,VBAT_20*%
%TO.N,Net-(BT1-+)*%
X128710049Y-113340000D03*
%TO.P,IC1,21,~{RCLR}_21*%
%TO.N,5V*%
X131250049Y-113340000D03*
%TO.P,IC1,22,N.C._22*%
%TO.N,unconnected-(IC1-N.C.-Pad22)*%
X133790049Y-113340000D03*
%TO.P,IC1,23,SQW_23*%
%TO.N,unconnected-(IC1-SQW-Pad23)*%
X136330049Y-113340000D03*
%TO.P,IC1,24,VCC_24*%
%TO.N,5V*%
X138870049Y-113340000D03*
%TD*%
D16*
%TO.P,U13,1,OE_1*%
%TO.N,GND*%
X83890049Y-96020000D03*
D10*
%TO.P,U13,2,D0_2*%
%TO.N,/D0*%
X86430049Y-96020000D03*
%TO.P,U13,3,D1_3*%
%TO.N,/D1*%
X88970049Y-96020000D03*
%TO.P,U13,4,D2_4*%
%TO.N,/D2*%
X91510049Y-96020000D03*
%TO.P,U13,5,D3_5*%
%TO.N,/D3*%
X94050049Y-96020000D03*
%TO.P,U13,6,D4_6*%
%TO.N,/D4*%
X96590049Y-96020000D03*
%TO.P,U13,7,D5_7*%
%TO.N,/D5*%
X99130049Y-96020000D03*
%TO.P,U13,8,D6_8*%
%TO.N,/D6*%
X101670049Y-96020000D03*
%TO.P,U13,9,D7_9*%
%TO.N,/D7*%
X104210049Y-96020000D03*
%TO.P,U13,10,GND_10*%
%TO.N,GND*%
X106750049Y-96020000D03*
%TO.P,U13,11,Load_11*%
%TO.N,IO5*%
X106750049Y-88400000D03*
%TO.P,U13,12,Q7_12*%
%TO.N,Net-(U12-DP)*%
X104210049Y-88400000D03*
%TO.P,U13,13,Q6_13*%
%TO.N,Net-(U12-G)*%
X101670049Y-88400000D03*
%TO.P,U13,14,Q5_14*%
%TO.N,Net-(U12-F)*%
X99130049Y-88400000D03*
%TO.P,U13,15,Q4_15*%
%TO.N,Net-(U12-E)*%
X96590049Y-88400000D03*
%TO.P,U13,16,Q3_16*%
%TO.N,Net-(U12-D)*%
X94050049Y-88400000D03*
%TO.P,U13,17,Q2_17*%
%TO.N,Net-(U12-C)*%
X91510049Y-88400000D03*
%TO.P,U13,18,Q1_18*%
%TO.N,Net-(U12-B)*%
X88970049Y-88400000D03*
%TO.P,U13,19,Q0_19*%
%TO.N,Net-(U12-A)*%
X86430049Y-88400000D03*
%TO.P,U13,20,VCC_20*%
%TO.N,5V*%
X83890049Y-88400000D03*
%TD*%
D21*
%TO.P,SW65,1,1_1*%
%TO.N,GND*%
X77970049Y-69500000D03*
X77970049Y-76000000D03*
%TO.P,SW65,2,2_2*%
%TO.N,!RESET*%
X73470049Y-69500000D03*
X73470049Y-76000000D03*
%TD*%
D17*
%TO.P,U12,1,CA_1*%
%TO.N,Net-(R4-Pad2)*%
X123590049Y-94620000D03*
D18*
%TO.P,U12,2,F_2*%
%TO.N,Net-(U12-F)*%
X126130049Y-94620000D03*
%TO.P,U12,3,G_3*%
%TO.N,Net-(U12-G)*%
X128670049Y-94620000D03*
%TO.P,U12,4,E_4*%
%TO.N,Net-(U12-E)*%
X131210049Y-94620000D03*
%TO.P,U12,5,D_5*%
%TO.N,Net-(U12-D)*%
X133750049Y-94620000D03*
%TO.P,U12,6,CA_6*%
%TO.N,Net-(R4-Pad2)*%
X133750049Y-79380000D03*
%TO.P,U12,7,DP_7*%
%TO.N,Net-(U12-DP)*%
X131210049Y-79380000D03*
%TO.P,U12,8,C_8*%
%TO.N,Net-(U12-C)*%
X128670049Y-79380000D03*
%TO.P,U12,9,B_9*%
%TO.N,Net-(U12-B)*%
X126130049Y-79380000D03*
%TO.P,U12,10,A_10*%
%TO.N,Net-(U12-A)*%
X123590049Y-79380000D03*
%TD*%
D13*
%TO.P,U2,1,K_1*%
%TO.N,unconnected-(U2-K-Pad1)*%
X59770049Y-98300000D03*
D10*
%TO.P,U2,2,A_2*%
%TO.N,A15*%
X59770049Y-95760000D03*
%TO.P,U2,3,B_3*%
%TO.N,/A14*%
X59770049Y-93220000D03*
%TO.P,U2,4,C_4*%
%TO.N,/A13*%
X59770049Y-90680000D03*
%TO.P,U2,5,D_5*%
%TO.N,/A12*%
X59770049Y-88140000D03*
%TO.P,U2,6,NC_6*%
%TO.N,unconnected-(U2-NC-Pad6)*%
X59770049Y-85600000D03*
%TO.P,U2,7,Vss_7*%
%TO.N,5V*%
X59770049Y-83060000D03*
%TO.P,U2,8,NC_8*%
%TO.N,unconnected-(U2-NC-Pad8)*%
X52150049Y-83060000D03*
%TO.P,U2,9,E_9*%
%TO.N,/A11*%
X52150049Y-85600000D03*
%TO.P,U2,10,F_10*%
%TO.N,/A10*%
X52150049Y-88140000D03*
%TO.P,U2,11,G_11*%
%TO.N,/A9*%
X52150049Y-90680000D03*
%TO.P,U2,12,H_12*%
%TO.N,/A8*%
X52150049Y-93220000D03*
%TO.P,U2,13,J_13*%
%TO.N,PullIO*%
X52150049Y-95760000D03*
%TO.P,U2,14,Vdd_14*%
%TO.N,GND*%
X52150049Y-98300000D03*
%TD*%
D22*
%TO.P,BZ1,1,+_1*%
%TO.N,Net-(BZ1-+)*%
X47270049Y-16000000D03*
D21*
%TO.P,BZ1,2,-_2*%
%TO.N,GND*%
X47270049Y-23600000D03*
%TD*%
D11*
%TO.P,J1,1,Pin_1_1*%
%TO.N,5V*%
X84170049Y-73575000D03*
D12*
%TO.P,J1,2,Pin_2_2*%
%TO.N,GND*%
X84170049Y-71035000D03*
%TD*%
D14*
%TO.P,U16,1,D0_1*%
%TO.N,/D0*%
X72370049Y-16860000D03*
D10*
%TO.P,U16,2,D1_2*%
%TO.N,/D1*%
X72370049Y-19400000D03*
%TO.P,U16,3,D2_3*%
%TO.N,/D2*%
X72370049Y-21940000D03*
%TO.P,U16,4,D3_4*%
%TO.N,/D3*%
X72370049Y-24480000D03*
%TO.P,U16,5,D4_5*%
%TO.N,/D4*%
X72370049Y-27020000D03*
%TO.P,U16,6,D5_6*%
%TO.N,/D5*%
X72370049Y-29560000D03*
%TO.P,U16,7,D6_7*%
%TO.N,/D6*%
X72370049Y-32100000D03*
%TO.P,U16,8,D7_8*%
%TO.N,/D7*%
X72370049Y-34640000D03*
%TO.P,U16,9,RCLK_9*%
%TO.N,Net-(U16-RCLK)*%
X72370049Y-37180000D03*
%TO.P,U16,10,SIN_10*%
%TO.N,TX1*%
X72370049Y-39720000D03*
%TO.P,U16,11,SOUT_11*%
%TO.N,RX1*%
X72370049Y-42260000D03*
%TO.P,U16,12,CS0_12*%
%TO.N,5V*%
X72370049Y-44800000D03*
%TO.P,U16,13,CS1_13*%
X72370049Y-47340000D03*
%TO.P,U16,14,~{CS2}_14*%
%TO.N,IO2*%
X72370049Y-49880000D03*
%TO.P,U16,15,~{BAUDOUT}_15*%
%TO.N,Net-(U16-RCLK)*%
X72370049Y-52420000D03*
%TO.P,U16,16,XIN_16*%
%TO.N,Net-(U16-XIN)*%
X72370049Y-54960000D03*
%TO.P,U16,17,XOUT_17*%
%TO.N,unconnected-(U16-XOUT-Pad17)*%
X72370049Y-57500000D03*
%TO.P,U16,18,~{WR}_18*%
%TO.N,!WR*%
X72370049Y-60040000D03*
%TO.P,U16,19,WR_19*%
%TO.N,unconnected-(U16-WR-Pad19)*%
X72370049Y-62580000D03*
%TO.P,U16,20,GND_20*%
%TO.N,GND*%
X72370049Y-65120000D03*
%TO.P,U16,21,~{RD}_21*%
%TO.N,!RD*%
X87610049Y-65120000D03*
%TO.P,U16,22,RD_22*%
%TO.N,unconnected-(U16-RD-Pad22)*%
X87610049Y-62580000D03*
%TO.P,U16,23,DDIS_23*%
%TO.N,unconnected-(U16-DDIS-Pad23)*%
X87610049Y-60040000D03*
%TO.P,U16,24,~{TXRDY}_24*%
%TO.N,unconnected-(U16-~{TXRDY}-Pad24)*%
X87610049Y-57500000D03*
%TO.P,U16,25,~{ADS}_25*%
%TO.N,GND*%
X87610049Y-54960000D03*
%TO.P,U16,26,A2_26*%
%TO.N,/A2*%
X87610049Y-52420000D03*
%TO.P,U16,27,A1_27*%
%TO.N,/A1*%
X87610049Y-49880000D03*
%TO.P,U16,28,A0_28*%
%TO.N,/A0*%
X87610049Y-47340000D03*
%TO.P,U16,29,~{RXRDY}_29*%
%TO.N,unconnected-(U16-~{RXRDY}-Pad29)*%
X87610049Y-44800000D03*
%TO.P,U16,30,INTR_30*%
%TO.N,Net-(U16-INTR)*%
X87610049Y-42260000D03*
%TO.P,U16,31,~{OUT2}_31*%
%TO.N,unconnected-(U16-~{OUT2}-Pad31)*%
X87610049Y-39720000D03*
%TO.P,U16,32,~{RTS}_32*%
%TO.N,unconnected-(U16-~{RTS}-Pad32)*%
X87610049Y-37180000D03*
%TO.P,U16,33,~{DTR}_33*%
%TO.N,unconnected-(U16-~{DTR}-Pad33)*%
X87610049Y-34640000D03*
%TO.P,U16,34,~{OUT1}_34*%
%TO.N,unconnected-(U16-~{OUT1}-Pad34)*%
X87610049Y-32100000D03*
%TO.P,U16,35,MR_35*%
%TO.N,Net-(U16-MR)*%
X87610049Y-29560000D03*
%TO.P,U16,36,~{CTS}_36*%
%TO.N,5V*%
X87610049Y-27020000D03*
%TO.P,U16,37,~{DSR}_37*%
X87610049Y-24480000D03*
%TO.P,U16,38,~{DCD}_38*%
X87610049Y-21940000D03*
%TO.P,U16,39,~{RI}_39*%
X87610049Y-19400000D03*
%TO.P,U16,40,VCC_40*%
X87610049Y-16860000D03*
%TD*%
D13*
%TO.P,U4,1,~{S0}_1*%
%TO.N,Net-(U4-~{S0})*%
X70175049Y-111060000D03*
D10*
%TO.P,U4,2,~{S1}_2*%
%TO.N,IO1*%
X70175049Y-108520000D03*
%TO.P,U4,3,~{S2}_3*%
%TO.N,Net-(U4-~{S2})*%
X70175049Y-105980000D03*
%TO.P,U4,4,~{S3}_4*%
%TO.N,Net-(U4-~{S3})*%
X70175049Y-103440000D03*
%TO.P,U4,5,~{S4}_5*%
%TO.N,Net-(U4-~{S4})*%
X70175049Y-100900000D03*
%TO.P,U4,6,~{S5}_6*%
%TO.N,Net-(U4-~{S5})*%
X70175049Y-98360000D03*
%TO.P,U4,7,~{S6}_7*%
%TO.N,Net-(U4-~{S6})*%
X70175049Y-95820000D03*
%TO.P,U4,8,~{S7}_8*%
%TO.N,IO7*%
X70175049Y-93280000D03*
%TO.P,U4,9,~{S8}_9*%
%TO.N,Net-(U4-~{S8})*%
X70175049Y-90740000D03*
%TO.P,U4,10,~{S9}_10*%
%TO.N,unconnected-(U4-~{S9}-Pad10)*%
X70175049Y-88200000D03*
%TO.P,U4,11,~{S10}_11*%
%TO.N,unconnected-(U4-~{S10}-Pad11)*%
X70175049Y-85660000D03*
%TO.P,U4,12,GND_12*%
%TO.N,GND*%
X70175049Y-83120000D03*
%TO.P,U4,13,~{S11}_13*%
%TO.N,unconnected-(U4-~{S11}-Pad13)*%
X62555049Y-83120000D03*
%TO.P,U4,14,~{S12}_14*%
%TO.N,unconnected-(U4-~{S12}-Pad14)*%
X62555049Y-85660000D03*
%TO.P,U4,15,~{S13}_15*%
%TO.N,unconnected-(U4-~{S13}-Pad15)*%
X62555049Y-88200000D03*
%TO.P,U4,16,~{S14}_16*%
%TO.N,unconnected-(U4-~{S14}-Pad16)*%
X62555049Y-90740000D03*
%TO.P,U4,17,~{S15}_17*%
%TO.N,unconnected-(U4-~{S15}-Pad17)*%
X62555049Y-93280000D03*
%TO.P,U4,18,~{E0}_18*%
%TO.N,!IORQ*%
X62555049Y-95820000D03*
%TO.P,U4,19,~{E1}_19*%
%TO.N,PullIO*%
X62555049Y-98360000D03*
%TO.P,U4,20,A3_20*%
%TO.N,/A7*%
X62555049Y-100900000D03*
%TO.P,U4,21,A2_21*%
%TO.N,/A6*%
X62555049Y-103440000D03*
%TO.P,U4,22,A1_22*%
%TO.N,/A5*%
X62555049Y-105980000D03*
%TO.P,U4,23,A0_23*%
%TO.N,/A4*%
X62555049Y-108520000D03*
%TO.P,U4,24,VCC_24*%
%TO.N,5V*%
X62555049Y-111060000D03*
%TD*%
D14*
%TO.P,U17,1,D0_1*%
%TO.N,/D0*%
X54830049Y-16860000D03*
D10*
%TO.P,U17,2,D1_2*%
%TO.N,/D1*%
X54830049Y-19400000D03*
%TO.P,U17,3,D2_3*%
%TO.N,/D2*%
X54830049Y-21940000D03*
%TO.P,U17,4,D3_4*%
%TO.N,/D3*%
X54830049Y-24480000D03*
%TO.P,U17,5,D4_5*%
%TO.N,/D4*%
X54830049Y-27020000D03*
%TO.P,U17,6,D5_6*%
%TO.N,/D5*%
X54830049Y-29560000D03*
%TO.P,U17,7,D6_7*%
%TO.N,/D6*%
X54830049Y-32100000D03*
%TO.P,U17,8,D7_8*%
%TO.N,/D7*%
X54830049Y-34640000D03*
%TO.P,U17,9,RCLK_9*%
%TO.N,Net-(U17-RCLK)*%
X54830049Y-37180000D03*
%TO.P,U17,10,SIN_10*%
%TO.N,TX2*%
X54830049Y-39720000D03*
%TO.P,U17,11,SOUT_11*%
%TO.N,RX2*%
X54830049Y-42260000D03*
%TO.P,U17,12,CS0_12*%
%TO.N,5V*%
X54830049Y-44800000D03*
%TO.P,U17,13,CS1_13*%
X54830049Y-47340000D03*
%TO.P,U17,14,~{CS2}_14*%
%TO.N,IO3*%
X54830049Y-49880000D03*
%TO.P,U17,15,~{BAUDOUT}_15*%
%TO.N,Net-(U17-RCLK)*%
X54830049Y-52420000D03*
%TO.P,U17,16,XIN_16*%
%TO.N,Net-(U16-XIN)*%
X54830049Y-54960000D03*
%TO.P,U17,17,XOUT_17*%
%TO.N,unconnected-(U17-XOUT-Pad17)*%
X54830049Y-57500000D03*
%TO.P,U17,18,~{WR}_18*%
%TO.N,!WR*%
X54830049Y-60040000D03*
%TO.P,U17,19,WR_19*%
%TO.N,unconnected-(U17-WR-Pad19)*%
X54830049Y-62580000D03*
%TO.P,U17,20,GND_20*%
%TO.N,GND*%
X54830049Y-65120000D03*
%TO.P,U17,21,~{RD}_21*%
%TO.N,!RD*%
X70070049Y-65120000D03*
%TO.P,U17,22,RD_22*%
%TO.N,unconnected-(U17-RD-Pad22)*%
X70070049Y-62580000D03*
%TO.P,U17,23,DDIS_23*%
%TO.N,unconnected-(U17-DDIS-Pad23)*%
X70070049Y-60040000D03*
%TO.P,U17,24,~{TXRDY}_24*%
%TO.N,unconnected-(U17-~{TXRDY}-Pad24)*%
X70070049Y-57500000D03*
%TO.P,U17,25,~{ADS}_25*%
%TO.N,GND*%
X70070049Y-54960000D03*
%TO.P,U17,26,A2_26*%
%TO.N,/A2*%
X70070049Y-52420000D03*
%TO.P,U17,27,A1_27*%
%TO.N,/A1*%
X70070049Y-49880000D03*
%TO.P,U17,28,A0_28*%
%TO.N,/A0*%
X70070049Y-47340000D03*
%TO.P,U17,29,~{RXRDY}_29*%
%TO.N,unconnected-(U17-~{RXRDY}-Pad29)*%
X70070049Y-44800000D03*
%TO.P,U17,30,INTR_30*%
%TO.N,Net-(U16-INTR)*%
X70070049Y-42260000D03*
%TO.P,U17,31,~{OUT2}_31*%
%TO.N,unconnected-(U17-~{OUT2}-Pad31)*%
X70070049Y-39720000D03*
%TO.P,U17,32,~{RTS}_32*%
%TO.N,unconnected-(U17-~{RTS}-Pad32)*%
X70070049Y-37180000D03*
%TO.P,U17,33,~{DTR}_33*%
%TO.N,unconnected-(U17-~{DTR}-Pad33)*%
X70070049Y-34640000D03*
%TO.P,U17,34,~{OUT1}_34*%
%TO.N,unconnected-(U17-~{OUT1}-Pad34)*%
X70070049Y-32100000D03*
%TO.P,U17,35,MR_35*%
%TO.N,Net-(U16-MR)*%
X70070049Y-29560000D03*
%TO.P,U17,36,~{CTS}_36*%
%TO.N,5V*%
X70070049Y-27020000D03*
%TO.P,U17,37,~{DSR}_37*%
X70070049Y-24480000D03*
%TO.P,U17,38,~{DCD}_38*%
X70070049Y-21940000D03*
%TO.P,U17,39,~{RI}_39*%
X70070049Y-19400000D03*
%TO.P,U17,40,VCC_40*%
X70070049Y-16860000D03*
%TD*%
%TO.P,R3,1*%
%TO.N,5V*%
X55980049Y-123500000D03*
%TO.P,R3,2*%
%TO.N,Net-(U10-~{WAIT})*%
X48360049Y-123500000D03*
%TD*%
D23*
%TO.P,U5,1,OE_1*%
%TO.N,GND*%
X139367249Y-115953300D03*
D10*
%TO.P,U5,2,D0_2*%
%TO.N,/D0*%
X136827249Y-115953300D03*
%TO.P,U5,3,D1_3*%
%TO.N,/D1*%
X134287249Y-115953300D03*
%TO.P,U5,4,D2_4*%
%TO.N,/D2*%
X131747249Y-115953300D03*
%TO.P,U5,5,D3_5*%
%TO.N,/D3*%
X129207249Y-115953300D03*
%TO.P,U5,6,D4_6*%
%TO.N,/D4*%
X126667249Y-115953300D03*
%TO.P,U5,7,D5_7*%
%TO.N,/D5*%
X124127249Y-115953300D03*
%TO.P,U5,8,D6_8*%
%TO.N,/D6*%
X121587249Y-115953300D03*
%TO.P,U5,9,D7_9*%
%TO.N,/D7*%
X119047249Y-115953300D03*
%TO.P,U5,10,GND_10*%
%TO.N,GND*%
X116507249Y-115953300D03*
%TO.P,U5,11,Load_11*%
%TO.N,5V*%
X116507249Y-123573300D03*
%TO.P,U5,12,Q7_12*%
%TO.N,Net-(U5-Q7)*%
X119047249Y-123573300D03*
%TO.P,U5,13,Q6_13*%
%TO.N,Net-(U5-Q6)*%
X121587249Y-123573300D03*
%TO.P,U5,14,Q5_14*%
%TO.N,Net-(U5-Q5)*%
X124127249Y-123573300D03*
%TO.P,U5,15,Q4_15*%
%TO.N,Net-(U5-Q4)*%
X126667249Y-123573300D03*
%TO.P,U5,16,Q3_16*%
%TO.N,Net-(U5-Q3)*%
X129207249Y-123573300D03*
%TO.P,U5,17,Q2_17*%
%TO.N,Net-(U5-Q2)*%
X131747249Y-123573300D03*
%TO.P,U5,18,Q1_18*%
%TO.N,Net-(U5-Q1)*%
X134287249Y-123573300D03*
%TO.P,U5,19,Q0_19*%
%TO.N,Net-(U5-Q0)*%
X136827249Y-123573300D03*
%TO.P,U5,20,VCC_20*%
%TO.N,5V*%
X139367249Y-123573300D03*
%TD*%
%TO.P,R4,1*%
%TO.N,GND*%
X136770049Y-95710000D03*
%TO.P,R4,2*%
%TO.N,Net-(R4-Pad2)*%
X136770049Y-88090000D03*
%TD*%
%TO.P,R1,1*%
%TO.N,5V*%
X54680049Y-121200000D03*
%TO.P,R1,2*%
%TO.N,Net-(U10-~{BUSREQ})*%
X47060049Y-121200000D03*
%TD*%
D16*
%TO.P,U15,1,OE_1*%
%TO.N,GND*%
X83940049Y-86220000D03*
D10*
%TO.P,U15,2,D0_2*%
%TO.N,/D0*%
X86480049Y-86220000D03*
%TO.P,U15,3,D1_3*%
%TO.N,/D1*%
X89020049Y-86220000D03*
%TO.P,U15,4,D2_4*%
%TO.N,/D2*%
X91560049Y-86220000D03*
%TO.P,U15,5,D3_5*%
%TO.N,/D3*%
X94100049Y-86220000D03*
%TO.P,U15,6,D4_6*%
%TO.N,/D4*%
X96640049Y-86220000D03*
%TO.P,U15,7,D5_7*%
%TO.N,/D5*%
X99180049Y-86220000D03*
%TO.P,U15,8,D6_8*%
%TO.N,/D6*%
X101720049Y-86220000D03*
%TO.P,U15,9,D7_9*%
%TO.N,/D7*%
X104260049Y-86220000D03*
%TO.P,U15,10,GND_10*%
%TO.N,GND*%
X106800049Y-86220000D03*
%TO.P,U15,11,Load_11*%
%TO.N,IO6*%
X106800049Y-78600000D03*
%TO.P,U15,12,Q7_12*%
%TO.N,Net-(U14-DP)*%
X104260049Y-78600000D03*
%TO.P,U15,13,Q6_13*%
%TO.N,Net-(U14-G)*%
X101720049Y-78600000D03*
%TO.P,U15,14,Q5_14*%
%TO.N,Net-(U14-F)*%
X99180049Y-78600000D03*
%TO.P,U15,15,Q4_15*%
%TO.N,Net-(U14-E)*%
X96640049Y-78600000D03*
%TO.P,U15,16,Q3_16*%
%TO.N,Net-(U14-D)*%
X94100049Y-78600000D03*
%TO.P,U15,17,Q2_17*%
%TO.N,Net-(U14-C)*%
X91560049Y-78600000D03*
%TO.P,U15,18,Q1_18*%
%TO.N,Net-(U14-B)*%
X89020049Y-78600000D03*
%TO.P,U15,19,Q0_19*%
%TO.N,Net-(U14-A)*%
X86480049Y-78600000D03*
%TO.P,U15,20,VCC_20*%
%TO.N,5V*%
X83940049Y-78600000D03*
%TD*%
D24*
%TO.P,Y2,1,1_1*%
%TO.N,Net-(IC1-X2)*%
X140470049Y-83500000D03*
%TO.P,Y2,2,2_2*%
%TO.N,Net-(IC1-X1)*%
X140470049Y-85400000D03*
%TD*%
D11*
%TO.P,J2,1,Pin_1_1*%
%TO.N,5V*%
X39170049Y-17910000D03*
D12*
%TO.P,J2,2,Pin_2_2*%
%TO.N,GND*%
X39170049Y-20450000D03*
%TO.P,J2,3,Pin_3_3*%
%TO.N,Net-(J2-Pin_3)*%
X39170049Y-22990000D03*
%TO.P,J2,4,Pin_4_4*%
%TO.N,Net-(J2-Pin_4)*%
X39170049Y-25530000D03*
%TO.P,J2,5,Pin_5_5*%
%TO.N,Net-(J2-Pin_5)*%
X39170049Y-28070000D03*
%TO.P,J2,6,Pin_6_6*%
%TO.N,Net-(BZ1-+)*%
X39170049Y-30610000D03*
%TO.P,J2,7,Pin_7_7*%
%TO.N,Net-(J2-Pin_7)*%
X39170049Y-33150000D03*
%TO.P,J2,8,Pin_8_8*%
%TO.N,Net-(J2-Pin_8)*%
X39170049Y-35690000D03*
%TD*%
D16*
%TO.P,U11,1,OE_1*%
%TO.N,IO1*%
X87307249Y-123578300D03*
D10*
%TO.P,U11,2,D0_2*%
%TO.N,Net-(U11-D0)*%
X89847249Y-123578300D03*
%TO.P,U11,3,D1_3*%
%TO.N,Net-(U11-D1)*%
X92387249Y-123578300D03*
%TO.P,U11,4,D2_4*%
%TO.N,Net-(U11-D2)*%
X94927249Y-123578300D03*
%TO.P,U11,5,D3_5*%
%TO.N,Net-(U11-D3)*%
X97467249Y-123578300D03*
%TO.P,U11,6,D4_6*%
%TO.N,Net-(U11-D4)*%
X100007249Y-123578300D03*
%TO.P,U11,7,D5_7*%
%TO.N,Net-(U11-D5)*%
X102547249Y-123578300D03*
%TO.P,U11,8,D6_8*%
%TO.N,Net-(U11-D6)*%
X105087249Y-123578300D03*
%TO.P,U11,9,D7_9*%
%TO.N,Net-(U11-D7)*%
X107627249Y-123578300D03*
%TO.P,U11,10,GND_10*%
%TO.N,GND*%
X110167249Y-123578300D03*
%TO.P,U11,11,Load_11*%
%TO.N,5V*%
X110167249Y-115958300D03*
%TO.P,U11,12,Q7_12*%
%TO.N,/D0*%
X107627249Y-115958300D03*
%TO.P,U11,13,Q6_13*%
%TO.N,/D1*%
X105087249Y-115958300D03*
%TO.P,U11,14,Q5_14*%
%TO.N,/D2*%
X102547249Y-115958300D03*
%TO.P,U11,15,Q4_15*%
%TO.N,/D3*%
X100007249Y-115958300D03*
%TO.P,U11,16,Q3_16*%
%TO.N,/D4*%
X97467249Y-115958300D03*
%TO.P,U11,17,Q2_17*%
%TO.N,/D5*%
X94927249Y-115958300D03*
%TO.P,U11,18,Q1_18*%
%TO.N,/D6*%
X92387249Y-115958300D03*
%TO.P,U11,19,Q0_19*%
%TO.N,/D7*%
X89847249Y-115958300D03*
%TO.P,U11,20,VCC_20*%
%TO.N,5V*%
X87307249Y-115958300D03*
%TD*%
%TO.P,R6,1*%
%TO.N,GND*%
X136870049Y-85910000D03*
%TO.P,R6,2*%
%TO.N,Net-(R6-Pad2)*%
X136870049Y-78290000D03*
%TD*%
D15*
%TO.P,Y1,1,EN_1*%
%TO.N,5V*%
X53250049Y-78610000D03*
D10*
%TO.P,Y1,7,GND_7*%
%TO.N,GND*%
X68490049Y-78610000D03*
%TO.P,Y1,8,OUT_8*%
%TO.N,CLK*%
X68490049Y-70990000D03*
%TO.P,Y1,14,Vcc_14*%
%TO.N,5V*%
X53250049Y-70990000D03*
%TD*%
D25*
%TO.P,U7,1,A14_1*%
%TO.N,/A14*%
X129570049Y-72300000D03*
D26*
%TO.P,U7,2,A12_2*%
%TO.N,/A12*%
X127030049Y-72300000D03*
%TO.P,U7,3,A7_3*%
%TO.N,/A7*%
X124490049Y-72300000D03*
%TO.P,U7,4,A6_4*%
%TO.N,/A6*%
X121950049Y-72300000D03*
%TO.P,U7,5,A5_5*%
%TO.N,/A5*%
X119410049Y-72300000D03*
%TO.P,U7,6,A4_6*%
%TO.N,/A4*%
X116870049Y-72300000D03*
%TO.P,U7,7,A3_7*%
%TO.N,/A3*%
X114330049Y-72300000D03*
%TO.P,U7,8,A2_8*%
%TO.N,/A2*%
X111790049Y-72300000D03*
%TO.P,U7,9,A1_9*%
%TO.N,/A1*%
X109250049Y-72300000D03*
%TO.P,U7,10,A0_10*%
%TO.N,/A0*%
X106710049Y-72300000D03*
%TO.P,U7,11,Q0_11*%
%TO.N,/D0*%
X104170049Y-72300000D03*
%TO.P,U7,12,Q1_12*%
%TO.N,/D1*%
X101630049Y-72300000D03*
%TO.P,U7,13,Q2_13*%
%TO.N,/D2*%
X99090049Y-72300000D03*
%TO.P,U7,14,GND_14*%
%TO.N,GND*%
X96550049Y-72300000D03*
%TO.P,U7,15,Q3_15*%
%TO.N,/D3*%
X96550049Y-62140000D03*
%TO.P,U7,16,Q4_16*%
%TO.N,/D4*%
X99090049Y-62140000D03*
%TO.P,U7,17,Q5_17*%
%TO.N,/D5*%
X101630049Y-62140000D03*
%TO.P,U7,18,Q6_18*%
%TO.N,/D6*%
X104170049Y-62140000D03*
%TO.P,U7,19,Q7_19*%
%TO.N,/D7*%
X106710049Y-62140000D03*
%TO.P,U7,20,~{CS}_20*%
%TO.N,!CS_RAM*%
X109250049Y-62140000D03*
%TO.P,U7,21,A10_21*%
%TO.N,/A10*%
X111790049Y-62140000D03*
%TO.P,U7,22,~{OE}_22*%
%TO.N,!RD*%
X114330049Y-62140000D03*
%TO.P,U7,23,A11_23*%
%TO.N,/A11*%
X116870049Y-62140000D03*
%TO.P,U7,24,A9_24*%
%TO.N,/A9*%
X119410049Y-62140000D03*
%TO.P,U7,25,A8_25*%
%TO.N,/A8*%
X121950049Y-62140000D03*
%TO.P,U7,26,A13_26*%
%TO.N,/A13*%
X124490049Y-62140000D03*
%TO.P,U7,27,~{WE}_27*%
%TO.N,!WR*%
X127030049Y-62140000D03*
%TO.P,U7,28,VCC_28*%
%TO.N,5V*%
X129570049Y-62140000D03*
%TD*%
D25*
%TO.P,U8,1,A14_1*%
%TO.N,/A14*%
X129570049Y-50985000D03*
D26*
%TO.P,U8,2,A12_2*%
%TO.N,/A12*%
X127030049Y-50985000D03*
%TO.P,U8,3,A7_3*%
%TO.N,/A7*%
X124490049Y-50985000D03*
%TO.P,U8,4,A6_4*%
%TO.N,/A6*%
X121950049Y-50985000D03*
%TO.P,U8,5,A5_5*%
%TO.N,/A5*%
X119410049Y-50985000D03*
%TO.P,U8,6,A4_6*%
%TO.N,/A4*%
X116870049Y-50985000D03*
%TO.P,U8,7,A3_7*%
%TO.N,/A3*%
X114330049Y-50985000D03*
%TO.P,U8,8,A2_8*%
%TO.N,/A2*%
X111790049Y-50985000D03*
%TO.P,U8,9,A1_9*%
%TO.N,/A1*%
X109250049Y-50985000D03*
%TO.P,U8,10,A0_10*%
%TO.N,/A0*%
X106710049Y-50985000D03*
%TO.P,U8,11,D0_11*%
%TO.N,/D0*%
X104170049Y-50985000D03*
%TO.P,U8,12,D1_12*%
%TO.N,/D1*%
X101630049Y-50985000D03*
%TO.P,U8,13,D2_13*%
%TO.N,/D2*%
X99090049Y-50985000D03*
%TO.P,U8,14,GND_14*%
%TO.N,GND*%
X96550049Y-50985000D03*
%TO.P,U8,15,D3_15*%
%TO.N,/D3*%
X96550049Y-40825000D03*
%TO.P,U8,16,D4_16*%
%TO.N,/D4*%
X99090049Y-40825000D03*
%TO.P,U8,17,D5_17*%
%TO.N,/D5*%
X101630049Y-40825000D03*
%TO.P,U8,18,D6_18*%
%TO.N,/D6*%
X104170049Y-40825000D03*
%TO.P,U8,19,D7_19*%
%TO.N,/D7*%
X106710049Y-40825000D03*
%TO.P,U8,20,~{CS}_20*%
%TO.N,!CS_EEPROM*%
X109250049Y-40825000D03*
%TO.P,U8,21,A10_21*%
%TO.N,/A10*%
X111790049Y-40825000D03*
%TO.P,U8,22,~{OE}_22*%
%TO.N,!RD*%
X114330049Y-40825000D03*
%TO.P,U8,23,A11_23*%
%TO.N,/A11*%
X116870049Y-40825000D03*
%TO.P,U8,24,A9_24*%
%TO.N,/A9*%
X119410049Y-40825000D03*
%TO.P,U8,25,A8_25*%
%TO.N,/A8*%
X121950049Y-40825000D03*
%TO.P,U8,26,A13_26*%
%TO.N,/A13*%
X124490049Y-40825000D03*
%TO.P,U8,27,~{WE}_27*%
%TO.N,!WR*%
X127030049Y-40825000D03*
%TO.P,U8,28,VCC_28*%
%TO.N,5V*%
X129570049Y-40825000D03*
%TD*%
D25*
%TO.P,U9,1,A14_1*%
%TO.N,/A14*%
X129570049Y-29670000D03*
D26*
%TO.P,U9,2,A12_2*%
%TO.N,/A12*%
X127030049Y-29670000D03*
%TO.P,U9,3,A7_3*%
%TO.N,/A7*%
X124490049Y-29670000D03*
%TO.P,U9,4,A6_4*%
%TO.N,/A6*%
X121950049Y-29670000D03*
%TO.P,U9,5,A5_5*%
%TO.N,/A5*%
X119410049Y-29670000D03*
%TO.P,U9,6,A4_6*%
%TO.N,/A4*%
X116870049Y-29670000D03*
%TO.P,U9,7,A3_7*%
%TO.N,/A3*%
X114330049Y-29670000D03*
%TO.P,U9,8,A2_8*%
%TO.N,/A2*%
X111790049Y-29670000D03*
%TO.P,U9,9,A1_9*%
%TO.N,/A1*%
X109250049Y-29670000D03*
%TO.P,U9,10,A0_10*%
%TO.N,/A0*%
X106710049Y-29670000D03*
%TO.P,U9,11,D0_11*%
%TO.N,/D0*%
X104170049Y-29670000D03*
%TO.P,U9,12,D1_12*%
%TO.N,/D1*%
X101630049Y-29670000D03*
%TO.P,U9,13,D2_13*%
%TO.N,/D2*%
X99090049Y-29670000D03*
%TO.P,U9,14,GND_14*%
%TO.N,GND*%
X96550049Y-29670000D03*
%TO.P,U9,15,D3_15*%
%TO.N,/D3*%
X96550049Y-19510000D03*
%TO.P,U9,16,D4_16*%
%TO.N,/D4*%
X99090049Y-19510000D03*
%TO.P,U9,17,D5_17*%
%TO.N,/D5*%
X101630049Y-19510000D03*
%TO.P,U9,18,D6_18*%
%TO.N,/D6*%
X104170049Y-19510000D03*
%TO.P,U9,19,D7_19*%
%TO.N,/D7*%
X106710049Y-19510000D03*
%TO.P,U9,20,~{CS}_20*%
%TO.N,!CS_Main*%
X109250049Y-19510000D03*
%TO.P,U9,21,A10_21*%
%TO.N,/A10*%
X111790049Y-19510000D03*
%TO.P,U9,22,~{OE}_22*%
%TO.N,!RD*%
X114330049Y-19510000D03*
%TO.P,U9,23,A11_23*%
%TO.N,/A11*%
X116870049Y-19510000D03*
%TO.P,U9,24,A9_24*%
%TO.N,/A9*%
X119410049Y-19510000D03*
%TO.P,U9,25,A8_25*%
%TO.N,/A8*%
X121950049Y-19510000D03*
%TO.P,U9,26,A13_26*%
%TO.N,/A13*%
X124490049Y-19510000D03*
%TO.P,U9,27,~{WE}_27*%
%TO.N,!WR*%
X127030049Y-19510000D03*
%TO.P,U9,28,VCC_28*%
%TO.N,5V*%
X129570049Y-19510000D03*
%TD*%
D22*
%TO.P,BT1,1,+_1*%
%TO.N,Net-(BT1-+)*%
X38270049Y-119142545D03*
D21*
%TO.P,BT1,2,-_2*%
%TO.N,GND*%
X38270049Y-139942545D03*
%TD*%
D27*
%TO.N,Net-(U11-D6)*%
X83970049Y-132700000D03*
%TO.N,Net-(U5-Q2)*%
X74770049Y-143791600D03*
X74770049Y-139641600D03*
%TO.N,Net-(U11-D4)*%
X86070049Y-141316600D03*
%TO.N,5V*%
X130650563Y-18019486D03*
%TO.N,Net-(U10-~{NMI})*%
X37770049Y-115200000D03*
%TO.N,!MREQ*%
X43570046Y-113051469D03*
%TO.N,GND*%
X33550049Y-58100000D03*
X73870049Y-59700000D03*
%TO.N,TX2*%
X56728431Y-14000000D03*
%TO.N,RX2*%
X57470052Y-14300000D03*
%TO.N,!IORQ*%
X64622157Y-101400000D03*
X28670049Y-125500000D03*
X53470049Y-103800000D03*
X65670049Y-97800000D03*
X66070049Y-95600000D03*
X44170046Y-111200000D03*
%TO.N,!RD*%
X15620047Y-122400000D03*
X137370049Y-111299997D03*
X121170049Y-111500000D03*
X140470049Y-111500000D03*
X150770049Y-111100000D03*
%TO.N,!WR*%
X16020047Y-119600000D03*
X137370049Y-112100000D03*
X143470049Y-112100000D03*
X150370049Y-113500000D03*
%TO.N,!INT*%
X76754314Y-110611513D03*
X102370049Y-109535735D03*
X111570049Y-112200000D03*
X85670049Y-109000000D03*
X126270049Y-110300000D03*
%TO.N,!RESET*%
X47170049Y-119000000D03*
X71770049Y-115500000D03*
X44970049Y-105500000D03*
X75070049Y-116300000D03*
X44970049Y-111200000D03*
X123770049Y-111500000D03*
X45911671Y-117500000D03*
X135770049Y-111000000D03*
%TO.N,IO8*%
X61170049Y-107480000D03*
X33450318Y-102789550D03*
X51070049Y-107900000D03*
%TO.N,CLK*%
X32270049Y-80700000D03*
X47370049Y-68700000D03*
X22670049Y-107000000D03*
%TO.N,/A0*%
X18570049Y-101900000D03*
X106670049Y-47300000D03*
X111370049Y-93400000D03*
X107416888Y-83400000D03*
%TO.N,/A1*%
X18970049Y-99400000D03*
X109170049Y-47800000D03*
%TO.N,/A2*%
X111870049Y-48300000D03*
X19370049Y-96900000D03*
%TO.N,/A3*%
X19770049Y-94287167D03*
%TO.N,/A4*%
X20170049Y-91747167D03*
X42173705Y-89321777D03*
%TO.N,/A5*%
X20570049Y-89200000D03*
X42770049Y-86200000D03*
%TO.N,/A6*%
X42263701Y-84517817D03*
X20970049Y-86700000D03*
%TO.N,/A7*%
X21370049Y-83277167D03*
X42270049Y-81100000D03*
%TO.N,/A8*%
X42870049Y-78400000D03*
X20168045Y-81650742D03*
%TO.N,/A9*%
X43070049Y-75100000D03*
X20370049Y-79100000D03*
%TO.N,/A10*%
X20770049Y-76500000D03*
X41970049Y-73700000D03*
%TO.N,/A11*%
X50370049Y-68100000D03*
X20420049Y-74000000D03*
%TO.N,/A12*%
X20770049Y-71400000D03*
X39670049Y-71900000D03*
%TO.N,/A13*%
X32270049Y-73100000D03*
X39570049Y-72900000D03*
X21541568Y-68970064D03*
%TO.N,/A14*%
X22370049Y-65300000D03*
X39770049Y-74420000D03*
X32370049Y-75700000D03*
%TO.N,A15*%
X32270049Y-78160000D03*
X40670049Y-76900000D03*
X67970049Y-99800000D03*
%TO.N,/D0*%
X87670049Y-79400000D03*
X85550049Y-105000000D03*
X38470049Y-71254478D03*
%TO.N,/D1*%
X90270049Y-76900000D03*
X38470049Y-70454475D03*
X88970049Y-113110000D03*
X87830049Y-105200000D03*
%TO.N,/D2*%
X90370049Y-105100000D03*
X92870049Y-76300000D03*
X91470049Y-113510000D03*
X37471520Y-69755946D03*
%TO.N,/D3*%
X92910049Y-105200000D03*
X88210049Y-23300000D03*
X93970049Y-113910000D03*
X37431550Y-67400000D03*
%TO.N,/D4*%
X95450049Y-105500000D03*
X38221918Y-67523785D03*
X88210049Y-25700000D03*
X96570049Y-114910000D03*
%TO.N,/D5*%
X38870049Y-68000000D03*
X97874058Y-105318138D03*
X88170049Y-28300000D03*
%TO.N,/D6*%
X88170049Y-30800000D03*
X39570049Y-68500000D03*
X100530049Y-105100000D03*
%TO.N,/D7*%
X40270049Y-69012149D03*
X88170049Y-33400000D03*
X103022967Y-105047082D03*
%TO.N,Net-(U5-Q3)*%
X68570049Y-143191600D03*
X68570049Y-139641600D03*
%TO.N,Net-(U11-D1)*%
X96570049Y-137000000D03*
%TO.N,Net-(U1-Pad4)*%
X78170049Y-98100000D03*
X71270049Y-118100000D03*
X74954314Y-102015735D03*
X60855049Y-110969789D03*
X62445784Y-112560000D03*
%TO.N,!CS_EEPROM*%
X83530049Y-98602500D03*
X94970049Y-18400000D03*
X83170049Y-90200000D03*
X83340049Y-76500000D03*
X82170049Y-85300000D03*
X82170049Y-88900000D03*
X94570049Y-61440000D03*
%TO.N,!CS_RAM*%
X81170049Y-81300000D03*
X86270049Y-84200000D03*
X107919204Y-84750846D03*
X85590049Y-89800000D03*
%TO.N,!CS_Main*%
X99070049Y-17800000D03*
X92370049Y-61700000D03*
X82270049Y-70200000D03*
%TO.N,Net-(U1-Pad12)*%
X68114631Y-97744582D03*
X67316103Y-96846052D03*
%TO.N,Net-(U5-Q1)*%
X80970049Y-144391600D03*
X80970049Y-139641600D03*
%TO.N,Net-(U11-D3)*%
X102470049Y-128300000D03*
%TO.N,Net-(U11-D2)*%
X98370049Y-132500000D03*
%TO.N,Net-(U10-~{WAIT})*%
X44295784Y-119925735D03*
%TO.N,Net-(U10-~{BUSREQ})*%
X43970049Y-104500000D03*
X44970049Y-112400000D03*
X45170049Y-117800000D03*
%TO.N,Net-(U5-Q5)*%
X56070049Y-141316600D03*
X56070049Y-139641600D03*
%TO.N,Net-(U5-Q6)*%
X49770049Y-139641600D03*
X49770049Y-140841600D03*
%TO.N,Net-(U11-D5)*%
X86070049Y-137000000D03*
%TO.N,Net-(U5-Q0)*%
X87170049Y-144991600D03*
X87170049Y-139641600D03*
%TO.N,Net-(U11-D0)*%
X92170049Y-141316600D03*
%TO.N,Net-(U5-Q4)*%
X62470049Y-142591600D03*
X62370049Y-139600000D03*
%TO.N,Net-(U11-D7)*%
X79870049Y-128300000D03*
%TO.N,Net-(U4-~{S2})*%
X65926103Y-105856052D03*
%TO.N,IO2*%
X70570049Y-74400000D03*
X64022157Y-97600000D03*
X71170049Y-67100000D03*
%TO.N,IO3*%
X67370049Y-66820000D03*
X67185784Y-63084265D03*
X67394314Y-93324265D03*
X56370049Y-54460000D03*
%TO.N,Net-(U4-~{S3})*%
X58305784Y-112335735D03*
X54994314Y-104475735D03*
X67370049Y-106580000D03*
%TO.N,Net-(U4-~{S4})*%
X72270049Y-100800000D03*
%TO.N,IO4*%
X85670049Y-110000000D03*
X107420784Y-109850735D03*
X83170049Y-115700000D03*
%TO.N,IO5*%
X108450049Y-89400000D03*
X107970049Y-103200000D03*
X105373582Y-111901443D03*
X82570049Y-117500000D03*
%TO.N,IO6*%
X83570049Y-97390000D03*
X82170049Y-106200000D03*
%TO.N,Net-(U4-~{S8})*%
X70950049Y-104700000D03*
%TO.N,Net-(U16-INTR)*%
X76470049Y-69000000D03*
X76121519Y-99300000D03*
X77495784Y-106374265D03*
X79014314Y-97604265D03*
X76370049Y-74175000D03*
X76370049Y-59900000D03*
X76170049Y-56700000D03*
X76170049Y-43500000D03*
X77836446Y-111833603D03*
X78142203Y-110072154D03*
%TO.N,Net-(U16-MR)*%
X75570049Y-29560000D03*
X75770049Y-77200000D03*
X76965874Y-97392956D03*
X75570049Y-72975000D03*
X74104314Y-101165735D03*
X75570049Y-63420000D03*
X75570049Y-58340000D03*
%TO.N,Net-(J3-Pin_9)*%
X32319314Y-28149265D03*
X31870049Y-40800000D03*
%TO.N,Net-(R6-Pad2)*%
X117570049Y-83700000D03*
X110270049Y-89400000D03*
%TO.N,Net-(U14-F)*%
X99180049Y-82400000D03*
%TO.N,Net-(U14-G)*%
X101720049Y-82400000D03*
%TO.N,Net-(U14-E)*%
X96640049Y-82000000D03*
%TO.N,Net-(U14-D)*%
X94070049Y-81400000D03*
%TO.N,Net-(U14-DP)*%
X104270049Y-81400000D03*
%TO.N,Net-(U14-C)*%
X91570049Y-81000000D03*
%TO.N,Net-(U14-B)*%
X88970049Y-80600000D03*
%TO.N,Net-(U14-A)*%
X86470049Y-80000000D03*
%TO.N,IO7*%
X85670049Y-107600000D03*
X82370049Y-103400000D03*
X83170049Y-107400000D03*
X78745784Y-96140000D03*
%TO.N,Net-(BT1-+)*%
X130570049Y-116900000D03*
X139470049Y-117700000D03*
X141370049Y-117800000D03*
%TO.N,Net-(U12-DP)*%
X104170049Y-91400000D03*
%TO.N,Net-(U12-G)*%
X101670049Y-92400000D03*
%TO.N,Net-(U12-F)*%
X99130049Y-92400000D03*
%TO.N,Net-(U12-E)*%
X96590049Y-92000000D03*
%TO.N,Net-(U12-D)*%
X94070049Y-91400000D03*
%TO.N,Net-(U12-C)*%
X91570049Y-91000000D03*
%TO.N,Net-(U12-B)*%
X88970049Y-90600000D03*
%TO.N,Net-(U12-A)*%
X86470049Y-91000000D03*
%TO.N,Net-(U16-RCLK)*%
X73970049Y-42760000D03*
%TO.N,IO1*%
X81517021Y-117499999D03*
X76154314Y-109992792D03*
%TD*%
%TO.N,Net-(U11-D6)*%
D28*
X103187249Y-121678300D02*
X86756819Y-121678300D01*
X83970049Y-124465070D02*
X83970049Y-132700000D01*
X86756819Y-121678300D02*
X83970049Y-124465070D01*
X105087249Y-123578300D02*
X103187249Y-121678300D01*
%TO.N,Net-(U5-Q2)*%
X74770049Y-139641600D02*
X74770049Y-143791600D01*
%TO.N,Net-(U11-D4)*%
X100007249Y-123578300D02*
X98907249Y-122478300D01*
X88791749Y-122478300D02*
X88407249Y-122862800D01*
X86070049Y-139893071D02*
X86070049Y-141316600D01*
X98907249Y-122478300D02*
X88791749Y-122478300D01*
X88407249Y-122862800D02*
X88407249Y-137555871D01*
X88407249Y-137555871D02*
X86070049Y-139893071D01*
%TO.N,5V*%
X83890049Y-88400000D02*
X82570049Y-89720000D01*
X81297867Y-103627818D02*
X82655049Y-104985000D01*
X116507249Y-122298300D02*
X110167249Y-115958300D01*
X117607249Y-124673300D02*
X116507249Y-123573300D01*
X71170049Y-28120000D02*
X70070049Y-27020000D01*
X87670049Y-16800000D02*
X129431077Y-16800000D01*
X133187249Y-115837665D02*
X133187249Y-116408935D01*
X139367249Y-123573300D02*
X138267249Y-124673300D01*
X81670049Y-101385785D02*
X82770049Y-102485786D01*
X129431077Y-16800000D02*
X130650563Y-18019486D01*
X79814414Y-102000000D02*
X80725684Y-102000000D01*
X81670049Y-92125686D02*
X81670049Y-94294314D01*
X133831614Y-117053300D02*
X137282884Y-117053300D01*
X131250049Y-113340000D02*
X131250049Y-113900465D01*
X82655049Y-104985000D02*
X83850049Y-103790000D01*
X82370049Y-94994315D02*
X82370049Y-95521321D01*
X87610049Y-16860000D02*
X87670049Y-16800000D01*
X116507249Y-123573300D02*
X116507249Y-122298300D01*
X80725684Y-102000000D02*
X81370049Y-102644365D01*
X137282884Y-117053300D02*
X138267249Y-116068935D01*
X87610049Y-16860000D02*
X87610049Y-27020000D01*
X138870049Y-113340000D02*
X138267249Y-113942800D01*
X75510049Y-97840000D02*
X79742232Y-102072183D01*
X81370049Y-102644365D02*
X81370049Y-103555635D01*
X82570049Y-89720000D02*
X82570049Y-91225686D01*
X59770049Y-83060000D02*
X57700049Y-83060000D01*
X81670049Y-96221321D02*
X81670049Y-101385785D01*
X138267249Y-122473300D02*
X139367249Y-123573300D01*
X143770049Y-76340000D02*
X143770049Y-91810000D01*
X133187249Y-116408935D02*
X133831614Y-117053300D01*
X55835049Y-73575000D02*
X53250049Y-70990000D01*
X72850049Y-97840000D02*
X75510049Y-97840000D01*
X70070049Y-16860000D02*
X70070049Y-27020000D01*
X129570049Y-62140000D02*
X143770049Y-76340000D01*
X71170049Y-43600000D02*
X71170049Y-28120000D01*
X84170049Y-73575000D02*
X55835049Y-73575000D01*
X138267249Y-113942800D02*
X138267249Y-122473300D01*
X81670049Y-94294314D02*
X82370049Y-94994315D01*
X82770049Y-102485786D02*
X82770049Y-102710000D01*
X143770049Y-91810000D02*
X139870049Y-95710000D01*
X79742232Y-102072183D02*
X79814414Y-102000000D01*
X57700049Y-83060000D02*
X53250049Y-78610000D01*
X138267249Y-116068935D02*
X138267249Y-113942800D01*
X81370049Y-103555635D02*
X81297867Y-103627818D01*
X82770049Y-102710000D02*
X83850049Y-103790000D01*
X51980049Y-41950000D02*
X54830049Y-44800000D01*
X42870049Y-43500000D02*
X44420049Y-41950000D01*
X138267249Y-124673300D02*
X117607249Y-124673300D01*
X131250049Y-113900465D02*
X133187249Y-115837665D01*
X44420049Y-41950000D02*
X51980049Y-41950000D01*
X82570049Y-91225686D02*
X81670049Y-92125686D01*
X82370049Y-95521321D02*
X81670049Y-96221321D01*
X72370049Y-44800000D02*
X71170049Y-43600000D01*
%TO.N,Net-(U10-~{NMI})*%
X37770049Y-115200000D02*
X39460049Y-115200000D01*
X39460049Y-115200000D02*
X42260049Y-118000000D01*
%TO.N,!MREQ*%
X43570046Y-113051469D02*
X43418577Y-112900000D01*
X37950049Y-111680000D02*
X33730049Y-111680000D01*
X24170049Y-127307167D02*
X34830049Y-116647167D01*
X39170049Y-112900000D02*
X39070049Y-112900000D01*
X43418577Y-112900000D02*
X39170049Y-112900000D01*
X34830049Y-112780000D02*
X33730049Y-111680000D01*
X34830049Y-116647167D02*
X34830049Y-112780000D01*
X39170049Y-112900000D02*
X37950049Y-111680000D01*
%TO.N,GND*%
X51050049Y-95980000D02*
X48970049Y-93900000D01*
X59770049Y-101560000D02*
X61870049Y-99460000D01*
X110930049Y-98100000D02*
X110930049Y-107190000D01*
X51050049Y-97200000D02*
X51050049Y-95980000D01*
X65470049Y-97000635D02*
X65470049Y-94400000D01*
X80470049Y-82600000D02*
X83940049Y-86070000D01*
X77970049Y-76000000D02*
X80470049Y-78500000D01*
X69075049Y-90795000D02*
X69075049Y-84220000D01*
X52150049Y-98300000D02*
X56510049Y-98300000D01*
X91585049Y-50985000D02*
X87610049Y-54960000D01*
X110930049Y-107190000D02*
X106710049Y-111410000D01*
X80470049Y-78500000D02*
X80470049Y-82600000D01*
X34610049Y-58100000D02*
X35250049Y-58740000D01*
X73870049Y-63620000D02*
X73870049Y-59700000D01*
X70175049Y-83120000D02*
X70175049Y-80295000D01*
X83940049Y-86070000D02*
X83940049Y-86220000D01*
X65470049Y-94400000D02*
X69075049Y-90795000D01*
X72370049Y-65120000D02*
X73870049Y-63620000D01*
X63010684Y-99460000D02*
X65470049Y-97000635D01*
X61870049Y-99460000D02*
X63010684Y-99460000D01*
X70175049Y-80295000D02*
X68490049Y-78610000D01*
X69075049Y-84220000D02*
X70175049Y-83120000D01*
X33550049Y-58100000D02*
X34610049Y-58100000D01*
X96550049Y-50985000D02*
X91585049Y-50985000D01*
X52150049Y-98300000D02*
X51050049Y-97200000D01*
X56510049Y-98300000D02*
X59770049Y-101560000D01*
%TO.N,TX2*%
X56728431Y-14000000D02*
X56670049Y-14058382D01*
X56670049Y-37880000D02*
X54830049Y-39720000D01*
X56670049Y-14058382D02*
X56670049Y-37880000D01*
%TO.N,RX2*%
X54830049Y-42260000D02*
X57470052Y-39619997D01*
X57470052Y-39619997D02*
X57470052Y-14300000D01*
%TO.N,!M1*%
X50470049Y-109200000D02*
X50770049Y-109200000D01*
X24170049Y-129847167D02*
X35222882Y-129847167D01*
X50790049Y-109180000D02*
X52150049Y-109180000D01*
X50470049Y-109200000D02*
X50470049Y-100480000D01*
X50470049Y-100480000D02*
X48970049Y-98980000D01*
X50770049Y-109200000D02*
X50790049Y-109180000D01*
X49370049Y-115700000D02*
X50470049Y-115700000D01*
X50470049Y-115700000D02*
X50470049Y-109200000D01*
X35222882Y-129847167D02*
X49370049Y-115700000D01*
%TO.N,!IORQ*%
X28670049Y-125500000D02*
X36315684Y-125500000D01*
X36315684Y-125500000D02*
X44170046Y-117645638D01*
X66070049Y-97400000D02*
X66070049Y-95600000D01*
X44170046Y-117645638D02*
X44170046Y-111200000D01*
X65670049Y-97800000D02*
X66070049Y-97400000D01*
X64622157Y-102928527D02*
X64622157Y-101400000D01*
X33730049Y-115207167D02*
X33730049Y-114220000D01*
X61430050Y-104540000D02*
X63010684Y-104540000D01*
X53470049Y-103800000D02*
X54870049Y-105200000D01*
X24170049Y-124767167D02*
X33730049Y-115207167D01*
X60770050Y-105200000D02*
X61430050Y-104540000D01*
X63010684Y-104540000D02*
X64622157Y-102928527D01*
X54870049Y-105200000D02*
X60770050Y-105200000D01*
%TO.N,!RD*%
X32630049Y-111224365D02*
X33274414Y-110580000D01*
X150970049Y-113748529D02*
X150570049Y-114148529D01*
X15820047Y-122580158D02*
X15820047Y-122414472D01*
X114330049Y-19510000D02*
X115630049Y-18210000D01*
X137070049Y-59980396D02*
X150570049Y-73480403D01*
X137170049Y-25387502D02*
X137170049Y-28700000D01*
X15970049Y-122730161D02*
X15820047Y-122580158D01*
X137070049Y-28800000D02*
X137070049Y-59980396D01*
X150570049Y-112900000D02*
X150618578Y-112900000D01*
X150970049Y-113251471D02*
X150970049Y-113748529D01*
X150570049Y-111100000D02*
X150770049Y-111100000D01*
X121170049Y-111500000D02*
X121170049Y-113260000D01*
X129992547Y-18210000D02*
X137170049Y-25387502D01*
X87610049Y-65120000D02*
X91890049Y-60840000D01*
X150618578Y-112900000D02*
X150970049Y-113251471D01*
X15634519Y-122414472D02*
X15620047Y-122400000D01*
X137570052Y-111500000D02*
X137370049Y-111299997D01*
X24019075Y-152000000D02*
X15970049Y-143950965D01*
X15970049Y-143950965D02*
X15970049Y-122730161D01*
X24170049Y-122227167D02*
X32630049Y-113767167D01*
X115630049Y-18210000D02*
X129992547Y-18210000D01*
X32630049Y-113767167D02*
X32630049Y-111224365D01*
X15820047Y-122414472D02*
X15634519Y-122414472D01*
X137170049Y-28700000D02*
X137070049Y-28800000D01*
X150570049Y-123150976D02*
X121721023Y-152000000D01*
X121721023Y-152000000D02*
X24019075Y-152000000D01*
X45330049Y-110580000D02*
X48970049Y-114220000D01*
X113030049Y-60840000D02*
X114330049Y-62140000D01*
X150570049Y-114148529D02*
X150570049Y-123150976D01*
X140470049Y-111500000D02*
X137570052Y-111500000D01*
X150570049Y-73480403D02*
X150570049Y-111100000D01*
X121170049Y-113260000D02*
X121090049Y-113340000D01*
X33274414Y-110580000D02*
X45330049Y-110580000D01*
X91890049Y-60840000D02*
X113030049Y-60840000D01*
X150570049Y-111100000D02*
X150570049Y-112900000D01*
%TO.N,!WR*%
X24176361Y-151591600D02*
X16370049Y-143785280D01*
X150170049Y-73646088D02*
X150170049Y-113300000D01*
X137370049Y-112100000D02*
X143470049Y-112100000D01*
X150370049Y-113500000D02*
X150170049Y-113700000D01*
X24994363Y-113217167D02*
X30171530Y-108040000D01*
X24176369Y-151591600D02*
X24176361Y-151591600D01*
X150170049Y-113300000D02*
X150170049Y-113500000D01*
X30171530Y-108040000D02*
X45330049Y-108040000D01*
X72370049Y-60040000D02*
X73470049Y-58940000D01*
X73470049Y-58940000D02*
X123830049Y-58940000D01*
X121555338Y-151600000D02*
X24184768Y-151600000D01*
X45330049Y-108040000D02*
X48970049Y-111680000D01*
X24184768Y-151600000D02*
X24176369Y-151591600D01*
X16370049Y-143785280D02*
X16370049Y-122564476D01*
X136670049Y-60146082D02*
X150170049Y-73646088D01*
X16220047Y-119800000D02*
X16020047Y-119600000D01*
X16220047Y-122414473D02*
X16220047Y-119800000D01*
X16370049Y-122564476D02*
X16220047Y-122414473D01*
X23020049Y-118537167D02*
X23020049Y-113890821D01*
X150370049Y-113500000D02*
X150170049Y-113300000D01*
X123830049Y-58940000D02*
X127030049Y-62140000D01*
X150170049Y-113700000D02*
X150170049Y-122985290D01*
X150170049Y-122985290D02*
X121555338Y-151600000D01*
X129820046Y-22299997D02*
X133155332Y-22299997D01*
X136670049Y-25814714D02*
X136670049Y-60146082D01*
X127030049Y-19510000D02*
X129820046Y-22299997D01*
X133155332Y-22299997D02*
X136670049Y-25814714D01*
X23693703Y-113217167D02*
X24994363Y-113217167D01*
X23020049Y-113890821D02*
X23693703Y-113217167D01*
X24170049Y-119687167D02*
X23020049Y-118537167D01*
%TO.N,!INT*%
X102370049Y-110594365D02*
X103070049Y-111294365D01*
X110860896Y-112200000D02*
X111570049Y-112200000D01*
X103070049Y-111294365D02*
X103070049Y-111865635D01*
X76754314Y-110611513D02*
X77965827Y-109400000D01*
X77965827Y-109400000D02*
X85270049Y-109400000D01*
X126270049Y-110300000D02*
X126170049Y-110400000D01*
X22620049Y-111990821D02*
X23933703Y-110677167D01*
X102370049Y-109535735D02*
X102370049Y-110594365D01*
X31263562Y-104060000D02*
X33730049Y-104060000D01*
X103070049Y-111865635D02*
X103849837Y-112645423D01*
X22620049Y-119763513D02*
X22620049Y-111990821D01*
X110415473Y-112645423D02*
X110860896Y-112200000D01*
X85270049Y-109400000D02*
X85670049Y-109000000D01*
X24646395Y-120837167D02*
X23693703Y-120837167D01*
X23693703Y-120837167D02*
X22620049Y-119763513D01*
X126170049Y-110400000D02*
X126170049Y-113340000D01*
X24170049Y-117147167D02*
X25320049Y-118297167D01*
X23933703Y-110677167D02*
X24646395Y-110677167D01*
X25320049Y-118297167D02*
X25320049Y-120163513D01*
X25320049Y-120163513D02*
X24646395Y-120837167D01*
X103849837Y-112645423D02*
X110415473Y-112645423D01*
X24646395Y-110677167D02*
X31263562Y-104060000D01*
%TO.N,!HALT*%
X29637216Y-109140000D02*
X33730049Y-109140000D01*
X24170049Y-114607167D02*
X29637216Y-109140000D01*
%TO.N,!RESET*%
X108727249Y-115502665D02*
X108727249Y-116413935D01*
X73470049Y-76000000D02*
X71550049Y-77920000D01*
X138270049Y-96900000D02*
X137185049Y-97985000D01*
X71550049Y-115280000D02*
X71770049Y-115500000D01*
X123630049Y-113340000D02*
X123630049Y-113900465D01*
X111239196Y-114858300D02*
X109371614Y-114858300D01*
X123770049Y-113200000D02*
X123630049Y-113340000D01*
X78210049Y-119440000D02*
X75070049Y-116300000D01*
X68350049Y-120100000D02*
X48270049Y-120100000D01*
X125227249Y-115497665D02*
X125227249Y-116408935D01*
X123770049Y-111500000D02*
X123770049Y-113200000D01*
X48270049Y-120100000D02*
X47170049Y-119000000D01*
X137185049Y-109585000D02*
X135770049Y-111000000D01*
X46170049Y-112400000D02*
X44970049Y-111200000D01*
X108727249Y-116413935D02*
X105701184Y-119440000D01*
X139870049Y-88090000D02*
X139870049Y-94154365D01*
X123630049Y-113900465D02*
X125227249Y-115497665D01*
X138270049Y-95754365D02*
X138270049Y-96900000D01*
X72650049Y-115800000D02*
X68350049Y-120100000D01*
X45911671Y-117500000D02*
X46170049Y-117241622D01*
X105701184Y-119440000D02*
X78210049Y-119440000D01*
X71550049Y-77920000D02*
X71550049Y-115280000D01*
X30737216Y-105500000D02*
X44990049Y-105500000D01*
X139870049Y-94154365D02*
X138270049Y-95754365D01*
X113434196Y-117053300D02*
X111239196Y-114858300D01*
X46170049Y-117241622D02*
X46170049Y-112400000D01*
X109371614Y-114858300D02*
X108727249Y-115502665D01*
X125227249Y-116408935D02*
X124582884Y-117053300D01*
X24170049Y-112067167D02*
X30737216Y-105500000D01*
X124582884Y-117053300D02*
X113434196Y-117053300D01*
X137185049Y-97985000D02*
X137185049Y-109585000D01*
X44990049Y-105500000D02*
X48970049Y-101520000D01*
%TO.N,IO8*%
X30907666Y-102789550D02*
X24170049Y-109527167D01*
X60750049Y-107900000D02*
X51070049Y-107900000D01*
X33450318Y-102789550D02*
X30907666Y-102789550D01*
X61170049Y-107480000D02*
X60750049Y-107900000D01*
%TO.N,CLK*%
X22670049Y-107000000D02*
X22770049Y-106900000D01*
X64900049Y-67400000D02*
X68490049Y-70990000D01*
X22770049Y-106900000D02*
X22770049Y-86200821D01*
X23693703Y-85277167D02*
X24646395Y-85277167D01*
X47370049Y-68700000D02*
X47370049Y-68544365D01*
X48514414Y-67400000D02*
X64900049Y-67400000D01*
X47370049Y-68544365D02*
X48514414Y-67400000D01*
X24646395Y-85277167D02*
X29223562Y-80700000D01*
X29223562Y-80700000D02*
X32270049Y-80700000D01*
X22770049Y-86200821D02*
X23693703Y-85277167D01*
%TO.N,/A0*%
X112190154Y-112060105D02*
X112190154Y-96382000D01*
X25170477Y-149191600D02*
X18770049Y-142791169D01*
X18770049Y-102100000D02*
X18570049Y-101900000D01*
X106630049Y-47340000D02*
X106670049Y-47300000D01*
X18770049Y-121570366D02*
X18620047Y-121420363D01*
X24170049Y-101907167D02*
X28197216Y-97880000D01*
X106710049Y-29670000D02*
X111680049Y-24700000D01*
X87610049Y-47340000D02*
X106630049Y-47340000D01*
X42450049Y-97880000D02*
X48970049Y-91360000D01*
X120569619Y-149191600D02*
X25170477Y-149191600D01*
X134270049Y-26808830D02*
X134270049Y-61140198D01*
X18770049Y-142791169D02*
X18770049Y-121570366D01*
X28197216Y-97880000D02*
X42450049Y-97880000D01*
X113470049Y-113340000D02*
X112190154Y-112060105D01*
X134270049Y-61140198D02*
X147770049Y-74640203D01*
X18770049Y-104960304D02*
X18770049Y-102100000D01*
X111680049Y-24700000D02*
X132161216Y-24700000D01*
X18470049Y-105260305D02*
X18770049Y-104960304D01*
X107900049Y-73490000D02*
X106710049Y-72300000D01*
X107900049Y-82916839D02*
X107900049Y-73490000D01*
X132161222Y-24700002D02*
X134270049Y-26808830D01*
X111370049Y-95561895D02*
X111370049Y-93400000D01*
X107416888Y-83400000D02*
X107900049Y-82916839D01*
X18470049Y-108739695D02*
X18470049Y-105260305D01*
X147770049Y-121991174D02*
X120569619Y-149191600D01*
X112190154Y-96382000D02*
X111370049Y-95561895D01*
X18620048Y-110333966D02*
X18770049Y-110183965D01*
X132161216Y-24700000D02*
X132161222Y-24700002D01*
X18770049Y-110183965D02*
X18770049Y-109039696D01*
X18620047Y-121420363D02*
X18620048Y-110333966D01*
X18770049Y-109039696D02*
X18470049Y-108739695D01*
X147770049Y-74640203D02*
X147770049Y-121991174D01*
%TO.N,/A1*%
X147370049Y-74805888D02*
X147370049Y-121825488D01*
X19020048Y-110499652D02*
X19170049Y-110349651D01*
X48970049Y-88820000D02*
X42450049Y-95340000D01*
X19170049Y-142625484D02*
X19170049Y-121404681D01*
X131995536Y-25100002D02*
X133870049Y-26974516D01*
X25336163Y-148791600D02*
X19170049Y-142625484D01*
X19170049Y-121404681D02*
X19020047Y-121254678D01*
X147370049Y-121825488D02*
X120403934Y-148791600D01*
X18870049Y-105425990D02*
X19170049Y-105125989D01*
X18870049Y-108574010D02*
X18870049Y-105425990D01*
X28197216Y-95340000D02*
X24170049Y-99367167D01*
X109250049Y-29670000D02*
X113820049Y-25100000D01*
X19170049Y-108874011D02*
X18870049Y-108574010D01*
X88090049Y-49400000D02*
X87610049Y-49880000D01*
X113820049Y-25100000D02*
X131995530Y-25100000D01*
X88090049Y-48980000D02*
X88090049Y-49400000D01*
X19170049Y-110349651D02*
X19170049Y-108874011D01*
X19170049Y-99600000D02*
X18970049Y-99400000D01*
X42450049Y-95340000D02*
X28197216Y-95340000D01*
X120403934Y-148791600D02*
X25336163Y-148791600D01*
X131995530Y-25100000D02*
X131995536Y-25100002D01*
X133870049Y-61305884D02*
X147370049Y-74805888D01*
X19170049Y-105125989D02*
X19170049Y-99600000D01*
X109170049Y-47800000D02*
X109070049Y-47900000D01*
X89170049Y-47900000D02*
X88090049Y-48980000D01*
X109070049Y-47900000D02*
X89170049Y-47900000D01*
X133870049Y-26974516D02*
X133870049Y-61305884D01*
X19020047Y-121254678D02*
X19020048Y-110499652D01*
%TO.N,/A2*%
X19420047Y-121088993D02*
X19420048Y-110665338D01*
X133470049Y-61471570D02*
X146970049Y-74971573D01*
X133470049Y-27140201D02*
X133470049Y-61471570D01*
X89435735Y-50594314D02*
X89435735Y-48400000D01*
X120238249Y-148391600D02*
X25501849Y-148391600D01*
X111770049Y-48400000D02*
X111870049Y-48300000D01*
X19570049Y-121238996D02*
X19420047Y-121088993D01*
X19420048Y-110665338D02*
X19570049Y-110515337D01*
X42450049Y-92800000D02*
X48970049Y-86280000D01*
X24170049Y-96827167D02*
X28197216Y-92800000D01*
X19570049Y-110515337D02*
X19570049Y-108708326D01*
X131829850Y-25500002D02*
X133470049Y-27140201D01*
X87610049Y-52420000D02*
X89435735Y-50594314D01*
X28197216Y-92800000D02*
X42450049Y-92800000D01*
X19270049Y-108408325D02*
X19270049Y-105591675D01*
X19570049Y-105291674D02*
X19570049Y-97100000D01*
X19570049Y-142459799D02*
X19570049Y-121238996D01*
X146970049Y-74971573D02*
X146970049Y-121659802D01*
X19570049Y-97100000D02*
X19370049Y-96900000D01*
X89435735Y-48400000D02*
X111770049Y-48400000D01*
X19570049Y-108708326D02*
X19270049Y-108408325D01*
X146970049Y-121659802D02*
X120238249Y-148391600D01*
X19270049Y-105591675D02*
X19570049Y-105291674D01*
X25501849Y-148391600D02*
X19570049Y-142459799D01*
X111790049Y-29670000D02*
X115960049Y-25500000D01*
X115960049Y-25500000D02*
X131829850Y-25500002D01*
%TO.N,/A3*%
X19970049Y-121073310D02*
X19970049Y-142294114D01*
X19670049Y-108242640D02*
X19970049Y-108542641D01*
X28197216Y-90260000D02*
X24170049Y-94287167D01*
X133070049Y-27305887D02*
X131664163Y-25900001D01*
X25667535Y-147991600D02*
X120072563Y-147991600D01*
X19770049Y-94800000D02*
X19970049Y-95000000D01*
X146570049Y-75137257D02*
X133070049Y-61637256D01*
X42450049Y-90260000D02*
X28197216Y-90260000D01*
X19770049Y-94287167D02*
X19770049Y-94800000D01*
X19970049Y-108542641D02*
X19970049Y-110681022D01*
X118100049Y-25900000D02*
X114330049Y-29670000D01*
X19970049Y-142294114D02*
X25667535Y-147991600D01*
X19970049Y-105457359D02*
X19670049Y-105757360D01*
X19970049Y-110681022D02*
X19820049Y-110831023D01*
X19820047Y-120923308D02*
X19970049Y-121073310D01*
X19820049Y-110831023D02*
X19820047Y-120923308D01*
X131664163Y-25900001D02*
X118100049Y-25900000D01*
X133070049Y-61637256D02*
X133070049Y-27305887D01*
X19670049Y-105757360D02*
X19670049Y-108242640D01*
X120072563Y-147991600D02*
X146570049Y-121494114D01*
X146570049Y-121494114D02*
X146570049Y-75137257D01*
X48970049Y-83740000D02*
X42450049Y-90260000D01*
X19970049Y-95000000D02*
X19970049Y-105457359D01*
%TO.N,/A4*%
X42450049Y-87720000D02*
X48970049Y-81200000D01*
X25833220Y-147591600D02*
X119906877Y-147591600D01*
X41970049Y-87720000D02*
X42450049Y-87720000D01*
X20170049Y-92000000D02*
X20370049Y-92200000D01*
X146170049Y-75302943D02*
X132670049Y-61802942D01*
X132670049Y-27471573D02*
X131498478Y-26300001D01*
X120240049Y-26300000D02*
X130570049Y-26300000D01*
X20220049Y-110996708D02*
X20220048Y-120757623D01*
X20370049Y-92200000D02*
X20370049Y-105623044D01*
X20070049Y-105923045D02*
X20070049Y-108076955D01*
X119906877Y-147591600D02*
X146170049Y-121328429D01*
X20220048Y-120757623D02*
X20370049Y-120907625D01*
X132670049Y-61802942D02*
X132670049Y-27471573D01*
X20370049Y-120907625D02*
X20370049Y-142128428D01*
X41970049Y-87720000D02*
X41970049Y-89118121D01*
X20370049Y-110846707D02*
X20220049Y-110996708D01*
X116870049Y-29670000D02*
X120240049Y-26300000D01*
X41970049Y-89118121D02*
X42173705Y-89321777D01*
X28197216Y-87720000D02*
X41970049Y-87720000D01*
X131498478Y-26300001D02*
X130570049Y-26300000D01*
X20370049Y-105623044D02*
X20070049Y-105923045D01*
X20070049Y-108076955D02*
X20370049Y-108376956D01*
X146170049Y-121328429D02*
X146170049Y-75302943D01*
X20170049Y-91747167D02*
X20170049Y-92000000D01*
X130570049Y-26300000D02*
X130670049Y-26300000D01*
X20370049Y-108376956D02*
X20370049Y-110846707D01*
X24170049Y-91747167D02*
X28197216Y-87720000D01*
X20370049Y-142128428D02*
X25833220Y-147591600D01*
%TO.N,/A5*%
X145770049Y-121162743D02*
X119741191Y-147191600D01*
X119741191Y-147191600D02*
X25998906Y-147191600D01*
X48970049Y-78660000D02*
X42450049Y-85180000D01*
X132270049Y-27637259D02*
X132270049Y-61968628D01*
X42450049Y-85180000D02*
X28197216Y-85180000D01*
X132270049Y-61968628D02*
X145770049Y-75468629D01*
X20770049Y-108211271D02*
X20470049Y-107911270D01*
X119410049Y-29670000D02*
X122380049Y-26700000D01*
X20770049Y-111012393D02*
X20770049Y-108211271D01*
X20470049Y-106088730D02*
X20770049Y-105788729D01*
X20620048Y-120591938D02*
X20620049Y-111162393D01*
X20770049Y-89400000D02*
X20570049Y-89200000D01*
X145770049Y-75468629D02*
X145770049Y-121162743D01*
X42370049Y-85260000D02*
X42370049Y-85800000D01*
X20620049Y-111162393D02*
X20770049Y-111012393D01*
X20470049Y-107911270D02*
X20470049Y-106088730D01*
X42370049Y-85800000D02*
X42770049Y-86200000D01*
X20770049Y-141962742D02*
X20770049Y-120741940D01*
X28197216Y-85180000D02*
X24170049Y-89207167D01*
X20770049Y-120741940D02*
X20620048Y-120591938D01*
X122380049Y-26700000D02*
X131332792Y-26700001D01*
X131332792Y-26700001D02*
X132270049Y-27637259D01*
X42450049Y-85180000D02*
X42370049Y-85260000D01*
X25998906Y-147191600D02*
X20770049Y-141962742D01*
X20770049Y-105788729D02*
X20770049Y-89400000D01*
%TO.N,/A6*%
X131870049Y-27802943D02*
X131167105Y-27100000D01*
X21170049Y-141797057D02*
X26164592Y-146791600D01*
X42450049Y-82640000D02*
X42480049Y-82610000D01*
X20870049Y-106254415D02*
X20870049Y-107745585D01*
X124520049Y-27100000D02*
X121950049Y-29670000D01*
X21170049Y-120576254D02*
X21170049Y-141797057D01*
X21170049Y-111178078D02*
X21020050Y-111328078D01*
X42480049Y-82610000D02*
X48970049Y-76120000D01*
X26164592Y-146791600D02*
X119575506Y-146791600D01*
X145370049Y-75634314D02*
X131870049Y-62134314D01*
X20970049Y-86700000D02*
X21170049Y-86900000D01*
X21020050Y-111328078D02*
X21020048Y-120426253D01*
X21020048Y-120426253D02*
X21170049Y-120576254D01*
X21170049Y-105954414D02*
X20870049Y-106254415D01*
X20870049Y-107745585D02*
X21170049Y-108045585D01*
X131167105Y-27100000D02*
X124520049Y-27100000D01*
X21170049Y-108045585D02*
X21170049Y-111178078D01*
X24170049Y-86667167D02*
X28197216Y-82640000D01*
X21170049Y-86900000D02*
X21170049Y-105954414D01*
X145370049Y-120997057D02*
X145370049Y-75634314D01*
X42480049Y-84301469D02*
X42263701Y-84517817D01*
X28197216Y-82640000D02*
X42450049Y-82640000D01*
X42480049Y-82610000D02*
X42480049Y-84301469D01*
X119575506Y-146791600D02*
X145370049Y-120997057D01*
X131870049Y-62134314D02*
X131870049Y-27802943D01*
%TO.N,/A7*%
X21570049Y-141631371D02*
X26330277Y-146391600D01*
X21570049Y-107879899D02*
X21570049Y-111343763D01*
X119409820Y-146391600D02*
X144970049Y-120831372D01*
X21570049Y-83477167D02*
X21570049Y-106120100D01*
X28197216Y-80100000D02*
X24170049Y-84127167D01*
X21420049Y-120260568D02*
X21570049Y-120410569D01*
X21570049Y-106120100D02*
X21270049Y-106420100D01*
X48970049Y-73580000D02*
X42450049Y-80100000D01*
X126660049Y-27500000D02*
X124490049Y-29670000D01*
X21270049Y-107579899D02*
X21570049Y-107879899D01*
X21370049Y-83277167D02*
X21570049Y-83477167D01*
X131470049Y-27968629D02*
X131001420Y-27500000D01*
X26330277Y-146391600D02*
X119409820Y-146391600D01*
X42170049Y-80100000D02*
X28197216Y-80100000D01*
X42170049Y-80100000D02*
X42170049Y-81000000D01*
X21570049Y-111343763D02*
X21420050Y-111493763D01*
X21570049Y-120410569D02*
X21570049Y-141631371D01*
X42170049Y-81000000D02*
X42270049Y-81100000D01*
X42450049Y-80100000D02*
X42170049Y-80100000D01*
X131470049Y-62300000D02*
X131470049Y-27968629D01*
X131001420Y-27500000D02*
X126660049Y-27500000D01*
X21270049Y-106420100D02*
X21270049Y-107579899D01*
X144970049Y-75800000D02*
X131470049Y-62300000D01*
X144970049Y-120831372D02*
X144970049Y-75800000D01*
X21420050Y-111493763D02*
X21420049Y-120260568D01*
%TO.N,/A8*%
X19570049Y-84022751D02*
X19970049Y-84422752D01*
X132823960Y-23100000D02*
X125540049Y-23100000D01*
X18170049Y-95232752D02*
X18170049Y-95462740D01*
X16770049Y-102645584D02*
X17170049Y-103045585D01*
X42540049Y-77470000D02*
X42540049Y-78070000D01*
X17020048Y-109671223D02*
X17020047Y-122083103D01*
X18770049Y-89945584D02*
X19098048Y-90273583D01*
X19098048Y-90273583D02*
X18370050Y-91001580D01*
X17970049Y-95032752D02*
X18170049Y-95232752D01*
X18370049Y-92492751D02*
X18694464Y-92817167D01*
X19570050Y-82531580D02*
X19570049Y-84022751D01*
X121232367Y-150791600D02*
X149370049Y-122653918D01*
X24507733Y-150791600D02*
X121232367Y-150791600D01*
X19170050Y-85954413D02*
X19170049Y-87445584D01*
X17170050Y-98654413D02*
X17170049Y-100145584D01*
X18370050Y-91001580D02*
X18370049Y-92492751D01*
X19970049Y-84422752D02*
X19970049Y-85154415D01*
X42540049Y-77470000D02*
X48970049Y-71040000D01*
X18770050Y-88454413D02*
X18770049Y-89945584D01*
X17170049Y-103045585D02*
X17170049Y-104297564D01*
X17570050Y-96154413D02*
X17570049Y-97645584D01*
X17474464Y-100450000D02*
X16770050Y-101154413D01*
X135870049Y-60477454D02*
X135870049Y-26146088D01*
X24170049Y-81587167D02*
X28197216Y-77560000D01*
X16770050Y-101154413D02*
X16770049Y-102645584D01*
X42540049Y-78070000D02*
X42870049Y-78400000D01*
X19170049Y-87445584D02*
X19474464Y-87750000D01*
X28197216Y-77560000D02*
X42450049Y-77560000D01*
X149370049Y-73977458D02*
X135870049Y-60477454D01*
X17170049Y-143453910D02*
X24507733Y-150791600D01*
X17570049Y-97645584D02*
X17874464Y-97950000D01*
X18215886Y-95508577D02*
X17570050Y-96154413D01*
X20168045Y-81933586D02*
X19570050Y-82531580D01*
X19970049Y-85154415D02*
X19170050Y-85954413D01*
X17170049Y-122233106D02*
X17170049Y-143453910D01*
X42450049Y-77560000D02*
X42540049Y-77470000D01*
X19474464Y-87750000D02*
X18770050Y-88454413D01*
X125540049Y-23100000D02*
X121950049Y-19510000D01*
X20168045Y-81650742D02*
X20168045Y-81933586D01*
X149370049Y-122653918D02*
X149370049Y-73977458D01*
X132823966Y-23100002D02*
X132823960Y-23100000D01*
X135870049Y-26146088D02*
X132823966Y-23100002D01*
X16870049Y-109402435D02*
X17079442Y-109611828D01*
X17020047Y-122083103D02*
X17170049Y-122233106D01*
X17970050Y-93541580D02*
X17970049Y-95032752D01*
X18170049Y-95462740D02*
X18215886Y-95508577D01*
X16870049Y-104597565D02*
X16870049Y-109402435D01*
X17079442Y-109611828D02*
X17020048Y-109671223D01*
X17170049Y-104297564D02*
X16870049Y-104597565D01*
X18694464Y-92817167D02*
X17970050Y-93541580D01*
X17874464Y-97950000D02*
X17170050Y-98654413D01*
X17170049Y-100145584D02*
X17474464Y-100450000D01*
%TO.N,/A9*%
X18370050Y-93707266D02*
X19170049Y-92907268D01*
X20570049Y-80467624D02*
X20570049Y-79300000D01*
X132658274Y-23500000D02*
X132658280Y-23500002D01*
X20770049Y-81897268D02*
X20770049Y-81316455D01*
X20570049Y-79300000D02*
X20370049Y-79100000D01*
X19170049Y-92727067D02*
X18770049Y-92327066D01*
X24673419Y-150391600D02*
X17570049Y-143288224D01*
X18770049Y-95520101D02*
X18770049Y-95497056D01*
X20970049Y-81116455D02*
X20970049Y-80867625D01*
X19170049Y-89779899D02*
X19170050Y-88620099D01*
X42990049Y-75020000D02*
X43070049Y-75100000D01*
X123400049Y-23500000D02*
X132658274Y-23500000D01*
X17270049Y-109236750D02*
X17270049Y-104763250D01*
X18770049Y-95497056D02*
X18570049Y-95297055D01*
X121066681Y-150391600D02*
X24673419Y-150391600D01*
X17570049Y-102879900D02*
X17170049Y-102479899D01*
X17570049Y-143288224D02*
X17570049Y-122067421D01*
X42170049Y-75020000D02*
X42990049Y-75020000D01*
X17270049Y-104763250D02*
X17570049Y-104463249D01*
X19170049Y-92907268D02*
X19170049Y-92727067D01*
X17970049Y-100379900D02*
X17570049Y-99979899D01*
X17420048Y-109836908D02*
X17570049Y-109686907D01*
X20770049Y-81316455D02*
X20970049Y-81116455D01*
X18370048Y-97879899D02*
X17970049Y-97479899D01*
X135470049Y-60643140D02*
X148970049Y-74143148D01*
X17570049Y-104463249D02*
X17570049Y-102879900D01*
X19970049Y-87820101D02*
X19970049Y-87679900D01*
X135470049Y-26311774D02*
X135470049Y-60643140D01*
X119410049Y-19510000D02*
X123400049Y-23500000D01*
X19570049Y-90367268D02*
X19570049Y-90179900D01*
X18570049Y-95067066D02*
X18370049Y-94867066D01*
X17570049Y-122067421D02*
X17420047Y-121917418D01*
X19570050Y-86120099D02*
X20370049Y-85320101D01*
X18570049Y-95297055D02*
X18570049Y-95067066D01*
X19570049Y-87279899D02*
X19570050Y-86120099D01*
X18770049Y-92327066D02*
X18770050Y-91167266D01*
X42170049Y-75020000D02*
X42450049Y-75020000D01*
X148970049Y-122488232D02*
X121066681Y-150391600D01*
X20370049Y-84257067D02*
X19970049Y-83857066D01*
X18770050Y-91167266D02*
X19570049Y-90367268D01*
X20370049Y-85320101D02*
X20370049Y-84257067D01*
X19970050Y-82697266D02*
X20770049Y-81897268D01*
X148970049Y-74143148D02*
X148970049Y-122488232D01*
X17170050Y-101320099D02*
X17970049Y-100520101D01*
X17570049Y-109536751D02*
X17270049Y-109236750D01*
X17570049Y-99979899D02*
X17570050Y-98820099D01*
X19570049Y-90179900D02*
X19170049Y-89779899D01*
X19970049Y-83857066D02*
X19970050Y-82697266D01*
X20970049Y-80867625D02*
X20570049Y-80467624D01*
X18370048Y-98020102D02*
X18370048Y-97879899D01*
X17420047Y-121917418D02*
X17420048Y-109836908D01*
X17170049Y-102479899D02*
X17170050Y-101320099D01*
X24170049Y-79047167D02*
X28197216Y-75020000D01*
X132658280Y-23500002D02*
X135470049Y-26311774D01*
X17570049Y-109686907D02*
X17570049Y-109536751D01*
X17970049Y-100520101D02*
X17970049Y-100379900D01*
X42450049Y-75020000D02*
X48970049Y-68500000D01*
X28197216Y-75020000D02*
X42170049Y-75020000D01*
X17970050Y-96320099D02*
X18770049Y-95520101D01*
X17970049Y-97479899D02*
X17970050Y-96320099D01*
X17570050Y-98820099D02*
X18370048Y-98020102D01*
X19970049Y-87679900D02*
X19570049Y-87279899D01*
X19170050Y-88620099D02*
X19970049Y-87820101D01*
X18370049Y-94867066D02*
X18370050Y-93707266D01*
%TO.N,/A10*%
X18220048Y-110168280D02*
X18370049Y-110018279D01*
X48970049Y-65960000D02*
X41230049Y-73700000D01*
X17970049Y-102148529D02*
X17970049Y-101651471D01*
X18721520Y-98800000D02*
X19170048Y-98800000D01*
X19170048Y-97500000D02*
X19121520Y-97500000D01*
X20970049Y-76700000D02*
X20770049Y-76500000D01*
X18370049Y-99648529D02*
X18370049Y-99151471D01*
X18220047Y-121586048D02*
X18220048Y-110168280D01*
X34830049Y-73300000D02*
X34830049Y-73124365D01*
X19170049Y-94535696D02*
X19170049Y-94038638D01*
X120735304Y-149591600D02*
X25004791Y-149591600D01*
X20770049Y-87300000D02*
X20721520Y-87300000D01*
X18070049Y-105094620D02*
X18370049Y-104794619D01*
X38570049Y-73700000D02*
X38170049Y-73300000D01*
X33274414Y-72480000D02*
X32870049Y-72884365D01*
X148170049Y-122156860D02*
X120735304Y-149591600D01*
X19121520Y-96300000D02*
X19570049Y-96300000D01*
X19521520Y-93687167D02*
X19970049Y-93687167D01*
X20321520Y-88600000D02*
X20770049Y-88600000D01*
X18770049Y-100000000D02*
X18721520Y-100000000D01*
X34185684Y-72480000D02*
X33274414Y-72480000D01*
X19970049Y-93687167D02*
X19970049Y-92365686D01*
X19170048Y-98800000D02*
X19170048Y-97500000D01*
X18721520Y-100000000D02*
X18370049Y-99648529D01*
X21370049Y-78161941D02*
X20970049Y-77761940D01*
X19970049Y-92365686D02*
X19951530Y-92347167D01*
X20370049Y-86948529D02*
X20370049Y-86451471D01*
X19921520Y-91147167D02*
X20370049Y-91147167D01*
X134670049Y-60974512D02*
X148170049Y-74474518D01*
X18370049Y-109205381D02*
X18070049Y-108905380D01*
X19370049Y-94735696D02*
X19170049Y-94535696D01*
X38170049Y-73300000D02*
X34830049Y-73300000D01*
X18770049Y-101300000D02*
X18770049Y-100000000D01*
X18370049Y-142956854D02*
X18370049Y-121736051D01*
X132326908Y-24300002D02*
X134670049Y-26643144D01*
X21121520Y-82677167D02*
X21570049Y-82677167D01*
X27377216Y-73300000D02*
X24170049Y-76507167D01*
X41230049Y-73700000D02*
X41970049Y-73700000D01*
X20721520Y-87300000D02*
X20370049Y-86948529D01*
X32870049Y-72884365D02*
X32870049Y-72851471D01*
X20370049Y-91147167D02*
X20370049Y-89800000D01*
X19570049Y-91995696D02*
X19570049Y-91498638D01*
X20970049Y-77761940D02*
X20970049Y-76700000D01*
X32870049Y-72851471D02*
X32518578Y-72500000D01*
X19970049Y-88951471D02*
X20321520Y-88600000D01*
X21121520Y-83877167D02*
X20770049Y-83525696D01*
X25004791Y-149591600D02*
X19170049Y-143756858D01*
X19970049Y-89448529D02*
X19970049Y-88951471D01*
X20370049Y-86451471D02*
X20721520Y-86100000D01*
X21170049Y-86100000D02*
X21170049Y-83877167D01*
X111790049Y-19510000D02*
X116580049Y-24300000D01*
X32021520Y-72500000D02*
X31821520Y-72700000D01*
X18370049Y-99151471D02*
X18721520Y-98800000D01*
X34830049Y-73124365D02*
X34185684Y-72480000D01*
X19951530Y-92347167D02*
X19921520Y-92347167D01*
X18321520Y-102500000D02*
X17970049Y-102148529D01*
X19170049Y-143756855D02*
X18370049Y-142956854D01*
X18370049Y-102500000D02*
X18321520Y-102500000D01*
X41230049Y-73700000D02*
X38570049Y-73700000D01*
X19570049Y-91498638D02*
X19921520Y-91147167D01*
X18370049Y-110018279D02*
X18370049Y-109205381D01*
X21570049Y-82677167D02*
X21570049Y-81647827D01*
X32518578Y-72500000D02*
X32021520Y-72500000D01*
X19121520Y-97500000D02*
X18770049Y-97148529D01*
X19370049Y-94965685D02*
X19370049Y-94735696D01*
X20770049Y-83525696D02*
X20770049Y-83028638D01*
X20770049Y-83028638D02*
X21121520Y-82677167D01*
X18770049Y-97148529D02*
X18770049Y-96651471D01*
X18070049Y-108905380D02*
X18070049Y-105094620D01*
X21770049Y-81447827D02*
X21770049Y-80536255D01*
X19921520Y-92347167D02*
X19570049Y-91995696D01*
X28437876Y-73300000D02*
X27377216Y-73300000D01*
X21370049Y-80136254D02*
X21370049Y-78161941D01*
X19570049Y-95165686D02*
X19370049Y-94965685D01*
X19570049Y-96300000D02*
X19570049Y-95165686D01*
X21170049Y-83877167D02*
X21121520Y-83877167D01*
X20370049Y-89800000D02*
X20321520Y-89800000D01*
X20770049Y-88600000D02*
X20770049Y-87300000D01*
X17970049Y-101651471D02*
X18321520Y-101300000D01*
X19170049Y-143756858D02*
X19170049Y-143756855D01*
X19170049Y-94038638D02*
X19521520Y-93687167D01*
X21570049Y-81647827D02*
X21770049Y-81447827D01*
X132326902Y-24300000D02*
X132326908Y-24300002D01*
X20721520Y-86100000D02*
X21170049Y-86100000D01*
X148170049Y-74474518D02*
X148170049Y-122156860D01*
X18321520Y-101300000D02*
X18770049Y-101300000D01*
X134670049Y-26643144D02*
X134670049Y-60974512D01*
X18370049Y-104794619D02*
X18370049Y-102500000D01*
X20321520Y-89800000D02*
X19970049Y-89448529D01*
X116580049Y-24300000D02*
X132326902Y-24300000D01*
X31821520Y-72700000D02*
X29037876Y-72700000D01*
X18370049Y-121736051D02*
X18220047Y-121586048D01*
X21770049Y-80536255D02*
X21370049Y-80136254D01*
X29037876Y-72700000D02*
X28437876Y-73300000D01*
X18770049Y-96651471D02*
X19121520Y-96300000D01*
%TO.N,/A11*%
X19570049Y-89614214D02*
X19570049Y-88785785D01*
X120900989Y-149991600D02*
X24839105Y-149991600D01*
X50070049Y-68400000D02*
X50370049Y-68100000D01*
X19355835Y-93287167D02*
X19570049Y-93287167D01*
X17820047Y-121751733D02*
X17820048Y-110002594D01*
X17670049Y-109071065D02*
X17670049Y-104928935D01*
X135070049Y-26477459D02*
X135070049Y-60808826D01*
X132492588Y-23900000D02*
X132492594Y-23900002D01*
X21170049Y-81482141D02*
X21370049Y-81282141D01*
X18370049Y-97314214D02*
X18370049Y-96485785D01*
X18370049Y-100900000D02*
X18370049Y-100214215D01*
X18770048Y-97714214D02*
X18370049Y-97314214D01*
X19755835Y-90747167D02*
X19970049Y-90747167D01*
X24170049Y-73967167D02*
X32177216Y-65960000D01*
X20370049Y-87514215D02*
X19970049Y-87114214D01*
X17970049Y-104628934D02*
X17970049Y-102714215D01*
X121260049Y-23900000D02*
X132492588Y-23900000D01*
X20521520Y-75900000D02*
X20970049Y-75900000D01*
X50070049Y-83520000D02*
X50070049Y-68400000D01*
X19170049Y-92161381D02*
X19170049Y-91332952D01*
X20970049Y-75900000D02*
X20970049Y-75787627D01*
X20370049Y-83691381D02*
X20370049Y-82862952D01*
X20970049Y-75787627D02*
X20620049Y-75437626D01*
X20955835Y-82277167D02*
X21170049Y-82277167D01*
X18155835Y-100900000D02*
X18370049Y-100900000D01*
X18970049Y-95131370D02*
X18970049Y-94901382D01*
X18370049Y-100214215D02*
X17970049Y-99814214D01*
X17570049Y-102314214D02*
X17570049Y-101485785D01*
X17970049Y-99814214D02*
X17970049Y-98985785D01*
X20155835Y-88200000D02*
X20370049Y-88200000D01*
X21370049Y-80701940D02*
X20970049Y-80301939D01*
X18770049Y-93872952D02*
X19355835Y-93287167D01*
X24839105Y-149991600D02*
X17970049Y-143122539D01*
X18555835Y-98400000D02*
X18770048Y-98400000D01*
X20170049Y-76748529D02*
X20170049Y-76251471D01*
X52150049Y-85600000D02*
X50070049Y-83520000D01*
X20370049Y-88200000D02*
X20370049Y-87514215D01*
X17970049Y-102714215D02*
X17570049Y-102314214D01*
X17970049Y-109371066D02*
X17670049Y-109071065D01*
X19970049Y-87114214D02*
X19970049Y-86285785D01*
X20555835Y-85700000D02*
X20770049Y-85700000D01*
X19970049Y-86285785D02*
X20555835Y-85700000D01*
X18770049Y-94701381D02*
X18770049Y-93872952D01*
X17970049Y-109852593D02*
X17970049Y-109371066D01*
X116870049Y-19510000D02*
X121260049Y-23900000D01*
X135070049Y-60808826D02*
X148570049Y-74308833D01*
X18970049Y-94901382D02*
X18770049Y-94701381D01*
X17970049Y-143122539D02*
X17970049Y-121901736D01*
X19970049Y-90014215D02*
X19570049Y-89614214D01*
X20170049Y-76251471D02*
X20521520Y-75900000D01*
X148570049Y-122322546D02*
X120900989Y-149991600D01*
X20770049Y-84091382D02*
X20370049Y-83691381D01*
X17670049Y-104928935D02*
X17970049Y-104628934D01*
X19170049Y-95331370D02*
X18970049Y-95131370D01*
X21370049Y-81282141D02*
X21370049Y-80701940D01*
X18370049Y-96485785D02*
X18955835Y-95900000D01*
X19570049Y-93287167D02*
X19570049Y-92561382D01*
X19170049Y-91332952D02*
X19755835Y-90747167D01*
X20620049Y-74200000D02*
X20420049Y-74000000D01*
X20521520Y-77100000D02*
X20170049Y-76748529D01*
X17570049Y-101485785D02*
X18155835Y-100900000D01*
X17970049Y-98985785D02*
X18555835Y-98400000D01*
X21170049Y-82277167D02*
X21170049Y-81482141D01*
X19570049Y-88785785D02*
X20155835Y-88200000D01*
X20970049Y-80301939D02*
X20970049Y-78327626D01*
X19970049Y-90747167D02*
X19970049Y-90014215D01*
X20370049Y-82862952D02*
X20955835Y-82277167D01*
X148570049Y-74308833D02*
X148570049Y-122322546D01*
X18770048Y-98400000D02*
X18770048Y-97714214D01*
X20970049Y-78327626D02*
X20570049Y-77927625D01*
X132492594Y-23900002D02*
X135070049Y-26477459D01*
X17820048Y-110002594D02*
X17970049Y-109852593D01*
X20770049Y-85700000D02*
X20770049Y-84091382D01*
X20570049Y-77100000D02*
X20521520Y-77100000D01*
X19170049Y-95900000D02*
X19170049Y-95331370D01*
X17970049Y-121901736D02*
X17820047Y-121751733D01*
X32177216Y-65960000D02*
X33730049Y-65960000D01*
X20570049Y-77927625D02*
X20570049Y-77100000D01*
X20620049Y-75437626D02*
X20620049Y-74200000D01*
X18955835Y-95900000D02*
X19170049Y-95900000D01*
X19570049Y-92561382D02*
X19170049Y-92161381D01*
%TO.N,/A12*%
X21820050Y-111659448D02*
X21970049Y-111509449D01*
X24170049Y-71427167D02*
X23020049Y-72577167D01*
X21020049Y-71748742D02*
X21069420Y-71699371D01*
X36750049Y-71880000D02*
X39650049Y-71880000D01*
X131070049Y-62508628D02*
X144570049Y-76008630D01*
X144570049Y-120665686D02*
X119244134Y-145991600D01*
X39650049Y-71880000D02*
X39670049Y-71900000D01*
X128800049Y-27900000D02*
X130835734Y-27900000D01*
X21370049Y-77596255D02*
X21370049Y-75621942D01*
X131070049Y-28134315D02*
X131070049Y-62508628D01*
X21370049Y-75621942D02*
X21020049Y-75271941D01*
X21670049Y-106585785D02*
X21970049Y-106285785D01*
X21970049Y-120244884D02*
X21820049Y-120094883D01*
X21770049Y-77996256D02*
X21370049Y-77596255D01*
X21970049Y-107714215D02*
X21670049Y-107414214D01*
X21670049Y-107414214D02*
X21670049Y-106585785D01*
X21970049Y-81813513D02*
X22170049Y-81613513D01*
X21970049Y-106285785D02*
X21970049Y-81813513D01*
X26495963Y-145991600D02*
X21970049Y-141465685D01*
X21020049Y-75271941D02*
X21020049Y-71748742D01*
X21970049Y-111509449D02*
X21970049Y-107714215D01*
X130835734Y-27900000D02*
X131070049Y-28134315D01*
X31263562Y-68500000D02*
X33730049Y-68500000D01*
X21970049Y-141465685D02*
X21970049Y-120244884D01*
X33730049Y-68860000D02*
X36750049Y-71880000D01*
X21820049Y-120094883D02*
X21820050Y-111659448D01*
X21770049Y-79970569D02*
X21770049Y-77996256D01*
X144570049Y-76008630D02*
X144570049Y-120665686D01*
X24646395Y-75117167D02*
X31263562Y-68500000D01*
X119244134Y-145991600D02*
X26495963Y-145991600D01*
X21069420Y-71699371D02*
X20770049Y-71400000D01*
X22170049Y-81613513D02*
X22170049Y-80370570D01*
X23693703Y-75117167D02*
X24646395Y-75117167D01*
X23020049Y-74443513D02*
X23693703Y-75117167D01*
X127030049Y-29670000D02*
X128800049Y-27900000D01*
X33730049Y-68500000D02*
X33730049Y-68860000D01*
X22170049Y-80370570D02*
X21770049Y-79970569D01*
X23020049Y-72577167D02*
X23020049Y-74443513D01*
%TO.N,/A13*%
X20170049Y-77314215D02*
X19770049Y-76914214D01*
X16470049Y-109568120D02*
X16470049Y-104431880D01*
X20236286Y-75619548D02*
X20220049Y-75603311D01*
X33730049Y-71040000D02*
X35590049Y-72900000D01*
X20171520Y-74600000D02*
X19820049Y-74248529D01*
X21682990Y-69111486D02*
X21541568Y-68970064D01*
X16620047Y-122248788D02*
X16620048Y-109718120D01*
X35590049Y-72900000D02*
X39570049Y-72900000D01*
X20171520Y-73400000D02*
X20620049Y-73400000D01*
X20170049Y-79700000D02*
X20121520Y-79700000D01*
X149770049Y-73811773D02*
X149770049Y-122819604D01*
X20170049Y-71648529D02*
X20170049Y-71151471D01*
X20416574Y-81050742D02*
X20443325Y-81077493D01*
X19919516Y-81050742D02*
X20416574Y-81050742D01*
X19170049Y-84188436D02*
X19170051Y-82365894D01*
X17970049Y-92658436D02*
X17970050Y-90835894D01*
X16770049Y-100311269D02*
X16770050Y-98488727D01*
X18770050Y-85788727D02*
X19570049Y-84988729D01*
X22620049Y-74609199D02*
X22970049Y-74959199D01*
X29203562Y-73100000D02*
X32270049Y-73100000D01*
X19568045Y-81402213D02*
X19919516Y-81050742D01*
X18532362Y-90273583D02*
X18370049Y-90111269D01*
X16470049Y-104431880D02*
X16770049Y-104131879D01*
X20121520Y-79700000D02*
X19770049Y-79348529D01*
X18370050Y-88288727D02*
X18908779Y-87749999D01*
X16908779Y-100449999D02*
X16770049Y-100311269D01*
X18128779Y-92817166D02*
X17970049Y-92658436D01*
X17765194Y-95393583D02*
X17570049Y-95198437D01*
X18770049Y-87611269D02*
X18770050Y-85788727D01*
X20170049Y-80633309D02*
X20170049Y-79700000D01*
X22620049Y-72411482D02*
X22620049Y-74609199D01*
X19602360Y-81933586D02*
X19568045Y-81899271D01*
X19770049Y-76085785D02*
X20236286Y-75619548D01*
X24342047Y-151191600D02*
X16770049Y-143619595D01*
X19568045Y-81899271D02*
X19568045Y-81402213D01*
X17308779Y-97949999D02*
X17170049Y-97811269D01*
X24350454Y-151200000D02*
X24342054Y-151191600D01*
X23693703Y-77657167D02*
X24646395Y-77657167D01*
X21370049Y-69424427D02*
X21682990Y-69111486D01*
X20220049Y-74600000D02*
X20171520Y-74600000D01*
X18370049Y-90111269D02*
X18370050Y-88288727D01*
X20170049Y-71151471D02*
X20521520Y-70800000D01*
X19170051Y-82365894D02*
X19602360Y-81933586D01*
X22970049Y-70087167D02*
X22970049Y-72061481D01*
X20570049Y-78500000D02*
X20570049Y-78493311D01*
X17570050Y-93375894D02*
X18128779Y-92817166D01*
X24342054Y-151191600D02*
X24342047Y-151191600D01*
X124490049Y-19510000D02*
X127680049Y-22700000D01*
X20121520Y-78500000D02*
X20570049Y-78500000D01*
X149770049Y-122819604D02*
X121389653Y-151200000D01*
X17570049Y-95198437D02*
X17570050Y-93375894D01*
X21370049Y-71151471D02*
X21370049Y-69424427D01*
X16370050Y-100988727D02*
X16908779Y-100449999D01*
X17970050Y-90835894D02*
X18532362Y-90273583D01*
X20521520Y-72000000D02*
X20170049Y-71648529D01*
X19770049Y-78851471D02*
X20121520Y-78500000D01*
X20170049Y-78093310D02*
X20170049Y-77314215D01*
X19770049Y-79348529D02*
X19770049Y-78851471D01*
X22970049Y-74959199D02*
X22970049Y-76933513D01*
X19820049Y-73751471D02*
X20171520Y-73400000D01*
X121389653Y-151200000D02*
X24350454Y-151200000D01*
X20570049Y-78493311D02*
X20170049Y-78093310D01*
X132989646Y-22699996D02*
X136270049Y-25980404D01*
X17170049Y-97811269D02*
X17170050Y-95988727D01*
X19570049Y-84588437D02*
X19170049Y-84188436D01*
X16370049Y-102811269D02*
X16370050Y-100988727D01*
X136270049Y-25980404D02*
X136270049Y-60311768D01*
X20443325Y-81077493D02*
X20528779Y-80992039D01*
X16770049Y-103211270D02*
X16370049Y-102811269D01*
X20620049Y-73400000D02*
X20620049Y-72000000D01*
X19570049Y-84988729D02*
X19570049Y-84588437D01*
X19820049Y-74248529D02*
X19820049Y-73751471D01*
X22970049Y-72061481D02*
X22620049Y-72411482D01*
X18908779Y-87749999D02*
X18770049Y-87611269D01*
X16770049Y-104131879D02*
X16770049Y-103211270D01*
X20220049Y-75603311D02*
X20220049Y-74600000D01*
X132658270Y-22700000D02*
X132658274Y-22699996D01*
X20620049Y-72000000D02*
X20521520Y-72000000D01*
X16620048Y-109718120D02*
X16470049Y-109568120D01*
X132658274Y-22699996D02*
X132989646Y-22699996D01*
X19770049Y-76914214D02*
X19770049Y-76085785D01*
X16770049Y-122398791D02*
X16620047Y-122248788D01*
X22970049Y-76933513D02*
X23693703Y-77657167D01*
X21018578Y-70800000D02*
X21370049Y-71151471D01*
X127680049Y-22700000D02*
X132658270Y-22700000D01*
X20528779Y-80992039D02*
X20170049Y-80633309D01*
X16770050Y-98488727D02*
X17308779Y-97949999D01*
X17170050Y-95988727D02*
X17765194Y-95393583D01*
X24646395Y-77657167D02*
X29203562Y-73100000D01*
X136270049Y-60311768D02*
X149770049Y-73811773D01*
X24170049Y-68887167D02*
X22970049Y-70087167D01*
X16770049Y-143619595D02*
X16770049Y-122398791D01*
X20521520Y-70800000D02*
X21018578Y-70800000D01*
%TO.N,/A14*%
X22570049Y-75124885D02*
X22570049Y-77099199D01*
X22220049Y-119929198D02*
X22370049Y-120079199D01*
X22370049Y-81979199D02*
X22370049Y-106451471D01*
X39750049Y-74400000D02*
X39770049Y-74420000D01*
X22570049Y-66300000D02*
X22570049Y-66815796D01*
X144170049Y-76174315D02*
X130670049Y-62674314D01*
X22170049Y-79804884D02*
X22570049Y-80204885D01*
X22220049Y-111825135D02*
X22220049Y-119929198D01*
X23693703Y-80197167D02*
X24646395Y-80197167D01*
X22570049Y-66815796D02*
X22170049Y-67215797D01*
X22220049Y-72245797D02*
X22220049Y-74774885D01*
X22220049Y-74774885D02*
X22570049Y-75124885D01*
X129570049Y-28400000D02*
X129570049Y-29670000D01*
X22970049Y-79473513D02*
X23693703Y-80197167D01*
X130670049Y-62674314D02*
X130670049Y-28300000D01*
X21770049Y-69590112D02*
X21770049Y-71564426D01*
X22370049Y-141300000D02*
X26661649Y-145591600D01*
X22570049Y-80204885D02*
X22570049Y-81779199D01*
X22570049Y-69921482D02*
X22570049Y-71895796D01*
X22170049Y-67215797D02*
X22170049Y-69190111D01*
X22170049Y-69190111D02*
X21770049Y-69590112D01*
X22370049Y-107548529D02*
X22370049Y-111675136D01*
X29143562Y-75700000D02*
X32370049Y-75700000D01*
X119078449Y-145591600D02*
X144170049Y-120500000D01*
X22370049Y-66100000D02*
X22570049Y-66300000D01*
X22070049Y-107248529D02*
X22370049Y-107548529D01*
X130670049Y-28300000D02*
X129670049Y-28300000D01*
X21770049Y-71564426D02*
X21420049Y-71914427D01*
X22370049Y-120079199D02*
X22370049Y-141300000D01*
X24170049Y-66347167D02*
X22970049Y-67547167D01*
X21420049Y-71914427D02*
X21420049Y-75106256D01*
X34550049Y-74400000D02*
X39750049Y-74400000D01*
X22170049Y-77830571D02*
X22170049Y-79804884D01*
X22970049Y-77499199D02*
X22970049Y-79473513D01*
X22570049Y-77099199D02*
X22970049Y-77499199D01*
X144170049Y-120500000D02*
X144170049Y-76174315D01*
X129670049Y-28300000D02*
X129570049Y-28400000D01*
X22970049Y-69521481D02*
X22570049Y-69921482D01*
X22570049Y-81779199D02*
X22370049Y-81979199D01*
X22970049Y-67547167D02*
X22970049Y-69521481D01*
X22570049Y-71895796D02*
X22220049Y-72245797D01*
X22370049Y-111675136D02*
X22220049Y-111825135D01*
X33730049Y-73580000D02*
X34550049Y-74400000D01*
X22370049Y-65300000D02*
X22370049Y-66100000D01*
X21420049Y-75106256D02*
X21770049Y-75456257D01*
X21770049Y-77430570D02*
X22170049Y-77830571D01*
X21770049Y-75456257D02*
X21770049Y-77430570D01*
X26661649Y-145591600D02*
X119078449Y-145591600D01*
X22070049Y-106751471D02*
X22070049Y-107248529D01*
X22370049Y-106451471D02*
X22070049Y-106751471D01*
X24646395Y-80197167D02*
X29143562Y-75700000D01*
%TO.N,A15*%
X22170049Y-75290571D02*
X22170049Y-77264885D01*
X22570049Y-79639199D02*
X22970049Y-80039199D01*
X33730049Y-76120000D02*
X38790049Y-76120000D01*
X22970049Y-65007167D02*
X22970049Y-66981481D01*
X53390049Y-115500000D02*
X52150049Y-114260000D01*
X24170049Y-63807167D02*
X22970049Y-65007167D01*
X22970049Y-80039199D02*
X22970049Y-82013513D01*
X22170049Y-71730111D02*
X21820049Y-72080112D01*
X24994363Y-82737167D02*
X29571530Y-78160000D01*
X22170049Y-69755797D02*
X22170049Y-71730111D01*
X22970049Y-82013513D02*
X23693703Y-82737167D01*
X23693703Y-82737167D02*
X24994363Y-82737167D01*
X22970049Y-66981481D02*
X22570049Y-67381482D01*
X22570049Y-67381482D02*
X22570049Y-69355796D01*
X21820049Y-72080112D02*
X21820049Y-74940571D01*
X22570049Y-69355796D02*
X22170049Y-69755797D01*
X22170049Y-77264885D02*
X22570049Y-77664885D01*
X22570049Y-77664885D02*
X22570049Y-79639199D01*
X21820049Y-74940571D02*
X22170049Y-75290571D01*
X67970049Y-109900000D02*
X62370049Y-115500000D01*
X67970049Y-99800000D02*
X67970049Y-109900000D01*
X39570049Y-76900000D02*
X40670049Y-76900000D01*
X62370049Y-115500000D02*
X53390049Y-115500000D01*
X38790049Y-76120000D02*
X39570049Y-76900000D01*
X29571530Y-78160000D02*
X32270049Y-78160000D01*
%TO.N,/D0*%
X36770049Y-71300000D02*
X38424527Y-71300000D01*
X35370049Y-69900000D02*
X36770049Y-71300000D01*
X88570049Y-113558529D02*
X88570049Y-113590000D01*
X85550049Y-105000000D02*
X86390049Y-105840000D01*
X24170049Y-58727167D02*
X28525844Y-58727167D01*
X89370049Y-113558529D02*
X89570049Y-113358529D01*
X20620049Y-39476711D02*
X20620049Y-55177167D01*
X41070049Y-22700000D02*
X46270049Y-17500000D01*
X26370049Y-37400000D02*
X26367214Y-37397165D01*
X135070049Y-114196100D02*
X136827249Y-115953300D01*
X87670049Y-85030000D02*
X86480049Y-86220000D01*
X22699595Y-37397165D02*
X20620049Y-39476711D01*
X107627249Y-114000000D02*
X105487249Y-114000000D01*
X95139949Y-113100000D02*
X94549949Y-112510000D01*
X103347249Y-113568629D02*
X102878619Y-113100000D01*
X107627249Y-115958300D02*
X107627249Y-114000000D01*
X38424527Y-71300000D02*
X38470049Y-71254478D01*
X88370049Y-112861471D02*
X88370049Y-113358529D01*
X39086395Y-37400000D02*
X41070049Y-35416346D01*
X85290049Y-104780000D02*
X85290049Y-97160000D01*
X135070049Y-101920000D02*
X135070049Y-114196100D01*
X88570049Y-113590000D02*
X86390049Y-111410000D01*
X131250049Y-98100000D02*
X135070049Y-101920000D01*
X89570049Y-112861471D02*
X89218578Y-112510000D01*
X89570049Y-113358529D02*
X89570049Y-112861471D01*
X20620049Y-55177167D02*
X24170049Y-58727167D01*
X85290049Y-97160000D02*
X86430049Y-96020000D01*
X105487249Y-113834315D02*
X105252934Y-113600000D01*
X91884263Y-112510000D02*
X91055834Y-112510000D01*
X54190049Y-17500000D02*
X54830049Y-16860000D01*
X92084264Y-112710000D02*
X91884263Y-112510000D01*
X105487249Y-114000000D02*
X105487249Y-113834315D01*
X92800149Y-113100000D02*
X92491421Y-113100000D01*
X91055834Y-112510000D02*
X90470049Y-113095786D01*
X28525844Y-58727167D02*
X35370049Y-65571372D01*
X86390049Y-105840000D02*
X86390049Y-111410000D01*
X94549949Y-112510000D02*
X93390148Y-112510000D01*
X88721520Y-112510000D02*
X88370049Y-112861471D01*
X103347249Y-113600000D02*
X103347249Y-113568629D01*
X92101420Y-112710000D02*
X92084264Y-112710000D01*
X102878619Y-113100000D02*
X95139949Y-113100000D01*
X89370049Y-113600000D02*
X89370049Y-113558529D01*
X87670049Y-79400000D02*
X87670049Y-85030000D01*
X41070049Y-35416346D02*
X41070049Y-22700000D01*
X92491421Y-113100000D02*
X92101420Y-112710000D01*
X46270049Y-17500000D02*
X54190049Y-17500000D01*
X89218578Y-112510000D02*
X88721520Y-112510000D01*
X26270049Y-37400000D02*
X26370049Y-37400000D01*
X90470049Y-113600000D02*
X89370049Y-113600000D01*
X88370049Y-113358529D02*
X88570049Y-113558529D01*
X26370049Y-37400000D02*
X39086395Y-37400000D01*
X105252934Y-113600000D02*
X103347249Y-113600000D01*
X85510049Y-105000000D02*
X85290049Y-104780000D01*
X90470049Y-113095786D02*
X90470049Y-113600000D01*
X35370049Y-65571372D02*
X35370049Y-69900000D01*
X26367214Y-37397165D02*
X22699595Y-37397165D01*
X85550049Y-105000000D02*
X85510049Y-105000000D01*
X93390148Y-112510000D02*
X92800149Y-113100000D01*
%TO.N,/D1*%
X38470049Y-70454475D02*
X37124524Y-70454475D01*
X22865278Y-37797165D02*
X21020049Y-39642396D01*
X46435736Y-17900000D02*
X41470049Y-22865686D01*
X90870049Y-113261471D02*
X90870049Y-113758529D01*
X25477658Y-37800000D02*
X25474821Y-37797165D01*
X91718578Y-112910000D02*
X91221520Y-112910000D01*
X25474821Y-37797165D02*
X22865278Y-37797165D01*
X36070049Y-69400000D02*
X36070049Y-66488427D01*
X88970049Y-96020000D02*
X87830049Y-97160000D01*
X87830049Y-110310000D02*
X88930049Y-111410000D01*
X91111520Y-114000000D02*
X88970049Y-114000000D01*
X87830049Y-105200000D02*
X87830049Y-110310000D01*
X92970049Y-113495785D02*
X92970049Y-113500000D01*
X26551530Y-56187167D02*
X24170049Y-56187167D01*
X37124524Y-70454475D02*
X36070049Y-69400000D01*
X90870049Y-113758529D02*
X91111520Y-114000000D01*
X53330049Y-17900000D02*
X46435736Y-17900000D01*
X91935735Y-113110000D02*
X91918578Y-113110000D01*
X21020049Y-39642396D02*
X21020049Y-53037167D01*
X54830049Y-19400000D02*
X53330049Y-17900000D01*
X39252081Y-37800000D02*
X25477658Y-37800000D01*
X102947249Y-114000000D02*
X102947249Y-113734315D01*
X41470049Y-35582031D02*
X39252081Y-37800000D01*
X93555834Y-112910000D02*
X92970049Y-113495785D01*
X91221520Y-112910000D02*
X90870049Y-113261471D01*
X94970049Y-113495785D02*
X94384264Y-112910000D01*
X21020049Y-53037167D02*
X24170049Y-56187167D01*
X94970049Y-113500000D02*
X94970049Y-113495785D01*
X87830049Y-97160000D02*
X87830049Y-105200000D01*
X36070049Y-66488427D02*
X35770049Y-66488427D01*
X35770049Y-66488427D02*
X35770049Y-65405686D01*
X88970049Y-114000000D02*
X88970049Y-113110000D01*
X41470049Y-22865686D02*
X41470049Y-35582031D01*
X91918578Y-113110000D02*
X91718578Y-112910000D01*
X105087249Y-115958300D02*
X105087249Y-114000000D01*
X132570049Y-101960000D02*
X132570049Y-114236100D01*
X90270049Y-84970000D02*
X89020049Y-86220000D01*
X92970049Y-113500000D02*
X92325735Y-113500000D01*
X90270049Y-76900000D02*
X90270049Y-84970000D01*
X105087249Y-114000000D02*
X102947249Y-114000000D01*
X132570049Y-114236100D02*
X134287249Y-115953300D01*
X128710049Y-98100000D02*
X132570049Y-101960000D01*
X102947249Y-113734315D02*
X102712934Y-113500000D01*
X35770049Y-65405686D02*
X26551530Y-56187167D01*
X94384264Y-112910000D02*
X93555834Y-112910000D01*
X92325735Y-113500000D02*
X91935735Y-113110000D01*
X102712934Y-113500000D02*
X94970049Y-113500000D01*
%TO.N,/D2*%
X54830049Y-21940000D02*
X53670049Y-20780000D01*
X41870049Y-23031372D02*
X41870049Y-35747716D01*
X91470049Y-113510000D02*
X91770049Y-113510000D01*
X131747249Y-115953300D02*
X129970049Y-114176100D01*
X25311972Y-38200000D02*
X25309136Y-38197165D01*
X37270049Y-69554475D02*
X37270049Y-69215090D01*
X37471520Y-69755946D02*
X37270049Y-69554475D01*
X36170049Y-66088427D02*
X36170049Y-65240000D01*
X25320049Y-55787167D02*
X25320049Y-55710821D01*
X37270049Y-69215090D02*
X36770049Y-68715090D01*
X53164363Y-18300000D02*
X46601421Y-18300000D01*
X93370049Y-113661471D02*
X93721520Y-113310000D01*
X36170049Y-65240000D02*
X26717216Y-55787167D01*
X129970049Y-114176100D02*
X129970049Y-101900000D01*
X39417767Y-38200000D02*
X25311972Y-38200000D01*
X90370049Y-105100000D02*
X90370049Y-97160000D01*
X102547249Y-113900000D02*
X102547249Y-115958300D01*
X25309136Y-38197165D02*
X23030964Y-38197165D01*
X53670049Y-18805686D02*
X53164363Y-18300000D01*
X93370049Y-113900000D02*
X93370049Y-113661471D01*
X94570049Y-113900000D02*
X102547249Y-113900000D01*
X24646395Y-55037167D02*
X24170049Y-55037167D01*
X21420049Y-50897167D02*
X24170049Y-53647167D01*
X93721520Y-113310000D02*
X94218578Y-113310000D01*
X129970049Y-101900000D02*
X126170049Y-98100000D01*
X23030964Y-38197165D02*
X21420049Y-39808081D01*
X92870049Y-76300000D02*
X92870049Y-84910000D01*
X36770049Y-66088427D02*
X36170049Y-66088427D01*
X26717216Y-55787167D02*
X25320049Y-55787167D01*
X21420049Y-39808081D02*
X21420049Y-50897167D01*
X46601421Y-18300000D02*
X41870049Y-23031372D01*
X41870049Y-35747716D02*
X39417767Y-38200000D01*
X92870049Y-84910000D02*
X91560049Y-86220000D01*
X91770049Y-113510000D02*
X92160049Y-113900000D01*
X36770049Y-68715090D02*
X36770049Y-66088427D01*
X94570049Y-113661471D02*
X94570049Y-113900000D01*
X24170049Y-55037167D02*
X24170049Y-53647167D01*
X53670049Y-20780000D02*
X53670049Y-18805686D01*
X94218578Y-113310000D02*
X94570049Y-113661471D01*
X90370049Y-110310000D02*
X90370049Y-105100000D01*
X90370049Y-97160000D02*
X91510049Y-96020000D01*
X92160049Y-113900000D02*
X93370049Y-113900000D01*
X91470049Y-111410000D02*
X90370049Y-110310000D01*
X25320049Y-55710821D02*
X24646395Y-55037167D01*
%TO.N,/D3*%
X127470049Y-101940000D02*
X123630049Y-98100000D01*
X129207249Y-115953300D02*
X127470049Y-114216100D01*
X37431550Y-67400000D02*
X37470049Y-67361501D01*
X94010049Y-111410000D02*
X92910049Y-110310000D01*
X92910049Y-97160000D02*
X94050049Y-96020000D01*
X46767107Y-18700000D02*
X42270049Y-23197058D01*
X53670049Y-23320000D02*
X53670049Y-21345686D01*
X39583453Y-38600000D02*
X25146286Y-38600000D01*
X96550049Y-62140000D02*
X95470049Y-63220000D01*
X26882902Y-55387167D02*
X25562080Y-55387167D01*
X92910049Y-110310000D02*
X92910049Y-105200000D01*
X54830049Y-24480000D02*
X53670049Y-23320000D01*
X24646395Y-52497167D02*
X24646395Y-51107167D01*
X53670049Y-21345686D02*
X53270049Y-20945686D01*
X52998677Y-18700000D02*
X46767107Y-18700000D01*
X21820049Y-48757167D02*
X24170049Y-51107167D01*
X95470049Y-63220000D02*
X95470049Y-84850000D01*
X53270049Y-20945686D02*
X53270049Y-18971372D01*
X100007249Y-114300000D02*
X100007249Y-115958300D01*
X24646395Y-51107167D02*
X24170049Y-51107167D01*
X37470049Y-65688427D02*
X36570049Y-65688427D01*
X127470049Y-114216100D02*
X127470049Y-101940000D01*
X25143451Y-38597165D02*
X23196650Y-38597165D01*
X36570049Y-65688427D02*
X36570049Y-65074314D01*
X53270049Y-18971372D02*
X52998677Y-18700000D01*
X92000049Y-19510000D02*
X96550049Y-19510000D01*
X36570049Y-65074314D02*
X26882902Y-55387167D01*
X42270049Y-23197058D02*
X42270049Y-35913401D01*
X21820049Y-39973766D02*
X21820049Y-48757167D01*
X92910049Y-105200000D02*
X92910049Y-97160000D01*
X94360049Y-114300000D02*
X100007249Y-114300000D01*
X25146286Y-38600000D02*
X25143451Y-38597165D01*
X23196650Y-38597165D02*
X21820049Y-39973766D01*
X25320049Y-53170821D02*
X24646395Y-52497167D01*
X37470049Y-67361501D02*
X37470049Y-65688427D01*
X95470049Y-84850000D02*
X94100049Y-86220000D01*
X42270049Y-35913401D02*
X39583453Y-38600000D01*
X93970049Y-113910000D02*
X94360049Y-114300000D01*
X88210049Y-23300000D02*
X92000049Y-19510000D01*
X25562080Y-55387167D02*
X25320049Y-55145135D01*
X25320049Y-55145135D02*
X25320049Y-53170821D01*
%TO.N,/D4*%
X24980600Y-39000000D02*
X24977765Y-38997167D01*
X36970049Y-64908629D02*
X36615735Y-64554314D01*
X88210049Y-25700000D02*
X93110049Y-20800000D01*
X27048588Y-54987167D02*
X36615735Y-64554314D01*
X39749139Y-39000000D02*
X24980600Y-39000000D01*
X53270049Y-21511371D02*
X52870049Y-21111372D01*
X36970049Y-65188427D02*
X36970049Y-64908629D01*
X95450049Y-110310000D02*
X95450049Y-105500000D01*
X97467249Y-115807200D02*
X97467249Y-115958300D01*
X22220049Y-40139451D02*
X22220049Y-46617167D01*
X24977765Y-38997167D02*
X23362331Y-38997167D01*
X46932793Y-19100000D02*
X42670049Y-23362744D01*
X25720049Y-54979450D02*
X25727766Y-54987167D01*
X24170049Y-48567167D02*
X25320049Y-49717167D01*
X38170049Y-67471916D02*
X38221918Y-67523785D01*
X25720049Y-53005136D02*
X25720049Y-54979450D01*
X96570049Y-114910000D02*
X97467249Y-115807200D01*
X53270049Y-23485686D02*
X53270049Y-21511371D01*
X25320049Y-52605135D02*
X25720049Y-53005136D01*
X53670049Y-23885686D02*
X53270049Y-23485686D01*
X52870049Y-21111372D02*
X52870049Y-19137058D01*
X22220049Y-46617167D02*
X24170049Y-48567167D01*
X52832991Y-19100000D02*
X46932793Y-19100000D01*
X95450049Y-105500000D02*
X95450049Y-97160000D01*
X53670049Y-25860000D02*
X53670049Y-23885686D01*
X42670049Y-36079086D02*
X39749139Y-39000000D01*
X96550049Y-111410000D02*
X95450049Y-110310000D01*
X25320049Y-49717167D02*
X25320049Y-52605135D01*
X96640049Y-86220000D02*
X97740049Y-85120000D01*
X52870049Y-19137058D02*
X52832991Y-19100000D01*
X36970049Y-65288427D02*
X37070049Y-65288427D01*
X96972547Y-20810000D02*
X96982547Y-20800000D01*
X36615735Y-64554314D02*
X36970049Y-64908628D01*
X37070049Y-65288427D02*
X36970049Y-65188427D01*
X42670049Y-23362744D02*
X42670049Y-36079086D01*
X25727766Y-54987167D02*
X27048588Y-54987167D01*
X97740049Y-85120000D02*
X97740049Y-63490000D01*
X97800049Y-20800000D02*
X99090049Y-19510000D01*
X97740049Y-63490000D02*
X99090049Y-62140000D01*
X93110049Y-20800000D02*
X96117551Y-20800000D01*
X124970049Y-114256100D02*
X124970049Y-101980000D01*
X54830049Y-27020000D02*
X53670049Y-25860000D01*
X126667249Y-115953300D02*
X124970049Y-114256100D01*
X96127551Y-20810000D02*
X96972547Y-20810000D01*
X23362331Y-38997167D02*
X22220049Y-40139451D01*
X96117551Y-20800000D02*
X96127551Y-20810000D01*
X37070049Y-65288427D02*
X38170049Y-65288427D01*
X124970049Y-101980000D02*
X121090049Y-98100000D01*
X38170049Y-65288427D02*
X38170049Y-67471916D01*
X95450049Y-97160000D02*
X96590049Y-96020000D01*
X96982547Y-20800000D02*
X97800049Y-20800000D01*
%TO.N,/D5*%
X26120049Y-54587167D02*
X26120049Y-52839451D01*
X97990049Y-110310000D02*
X97990049Y-97160000D01*
X53270049Y-24051371D02*
X52870049Y-23651370D01*
X122370049Y-114196100D02*
X122370049Y-101920000D01*
X53270049Y-26025685D02*
X53270049Y-24051371D01*
X43134264Y-23464215D02*
X43134264Y-36180557D01*
X43184264Y-23414215D02*
X43134264Y-23464215D01*
X22620049Y-44477167D02*
X24170049Y-46027167D01*
X124127249Y-115953300D02*
X122370049Y-114196100D01*
X95951866Y-21200000D02*
X95961866Y-21210000D01*
X24814914Y-39400000D02*
X24812080Y-39397167D01*
X22620049Y-40305136D02*
X22620049Y-44477167D01*
X26120049Y-52839451D02*
X25770049Y-52489450D01*
X38870049Y-64888427D02*
X37370049Y-64888427D01*
X52470049Y-19500000D02*
X47098479Y-19500000D01*
X52470049Y-21277055D02*
X52470049Y-19500000D01*
X99940049Y-21200000D02*
X101630049Y-19510000D01*
X100280049Y-85120000D02*
X99180049Y-86220000D01*
X53670049Y-28400000D02*
X53670049Y-26425686D01*
X95270049Y-21200000D02*
X95951866Y-21200000D01*
X24812080Y-39397167D02*
X23528017Y-39397167D01*
X99090049Y-111410000D02*
X97990049Y-110310000D01*
X53670049Y-26425686D02*
X53270049Y-26025685D01*
X95961866Y-21210000D02*
X97138233Y-21210000D01*
X23528017Y-39397167D02*
X22620049Y-40305136D01*
X37370049Y-64742942D02*
X27214274Y-54587167D01*
X37370049Y-64888427D02*
X37370049Y-64742942D01*
X122370049Y-101920000D02*
X118550049Y-98100000D01*
X54830049Y-29560000D02*
X53670049Y-28400000D01*
X100280049Y-63490000D02*
X100280049Y-85120000D01*
X97990049Y-97160000D02*
X99130049Y-96020000D01*
X39914824Y-39400000D02*
X24814914Y-39400000D01*
X88170049Y-28300000D02*
X95270049Y-21200000D01*
X97138233Y-21210000D02*
X97148232Y-21200000D01*
X52870049Y-23651370D02*
X52870049Y-21677056D01*
X97148232Y-21200000D02*
X99940049Y-21200000D01*
X25770049Y-47627167D02*
X24170049Y-46027167D01*
X25770049Y-52489450D02*
X25770049Y-47627167D01*
X43184264Y-23414215D02*
X43070049Y-23528430D01*
X52870049Y-21677056D02*
X52470049Y-21277055D01*
X38870049Y-68000000D02*
X38870049Y-64888427D01*
X101630049Y-62140000D02*
X100280049Y-63490000D01*
X43134264Y-36180557D02*
X39914824Y-39400000D01*
X27214274Y-54587167D02*
X26120049Y-54587167D01*
X47098479Y-19500000D02*
X43184264Y-23414215D01*
%TO.N,/D6*%
X26520049Y-54187167D02*
X26520049Y-52673766D01*
X119870049Y-114236100D02*
X119870049Y-101960000D01*
X26170049Y-52323765D02*
X26170049Y-45487167D01*
X23693703Y-39797167D02*
X23020049Y-40470821D01*
X24649228Y-39800000D02*
X24646395Y-39797167D01*
X27379959Y-54187167D02*
X26520049Y-54187167D01*
X121587249Y-115953300D02*
X119870049Y-114236100D01*
X53670049Y-28965686D02*
X53270049Y-28565685D01*
X40080509Y-39800000D02*
X24649228Y-39800000D01*
X52070049Y-21442740D02*
X52070049Y-19900000D01*
X119870049Y-101960000D02*
X116010049Y-98100000D01*
X52870049Y-26191370D02*
X52870049Y-24217056D01*
X52470049Y-21842741D02*
X52070049Y-21442740D01*
X88170049Y-30800000D02*
X97370049Y-21600000D01*
X24646395Y-39797167D02*
X23693703Y-39797167D01*
X23020049Y-40470821D02*
X23020049Y-42337167D01*
X54830049Y-32100000D02*
X53670049Y-30940000D01*
X37681219Y-64488427D02*
X27379959Y-54187167D01*
X100530049Y-110310000D02*
X100530049Y-105100000D01*
X102897551Y-21600000D02*
X104170049Y-20327502D01*
X23020049Y-42337167D02*
X24170049Y-43487167D01*
X39570049Y-64488427D02*
X37681219Y-64488427D01*
X26520049Y-52673766D02*
X26170049Y-52323765D01*
X104170049Y-20327502D02*
X104170049Y-19510000D01*
X100530049Y-105100000D02*
X100530049Y-97160000D01*
X52870049Y-24217056D02*
X52470049Y-23817055D01*
X53270049Y-28565685D02*
X53270049Y-26591371D01*
X97370049Y-21600000D02*
X102897551Y-21600000D01*
X47264165Y-19900000D02*
X43567107Y-23597058D01*
X104170049Y-62140000D02*
X103150049Y-63160000D01*
X52070049Y-19900000D02*
X47264165Y-19900000D01*
X53270049Y-26591371D02*
X52870049Y-26191370D01*
X43567107Y-36313399D02*
X40080509Y-39800000D01*
X103150049Y-63160000D02*
X103150049Y-84790000D01*
X101630049Y-111410000D02*
X100530049Y-110310000D01*
X39570049Y-68500000D02*
X39570049Y-64488427D01*
X103150049Y-84790000D02*
X101720049Y-86220000D01*
X43567107Y-23597058D02*
X43567107Y-36313399D01*
X100530049Y-97160000D02*
X101670049Y-96020000D01*
X52470049Y-23817055D02*
X52470049Y-21842741D01*
X26170049Y-45487167D02*
X24170049Y-43487167D01*
X53670049Y-30940000D02*
X53670049Y-28965686D01*
%TO.N,/D7*%
X119047249Y-115953300D02*
X117270049Y-114176100D01*
X105690049Y-84790000D02*
X104260049Y-86220000D01*
X52870049Y-26757056D02*
X52470049Y-26357055D01*
X117270049Y-101900000D02*
X113470049Y-98100000D01*
X40270049Y-64088427D02*
X37846905Y-64088427D01*
X44349950Y-23379901D02*
X44349950Y-36096241D01*
X26570049Y-43347167D02*
X24170049Y-40947167D01*
X52470049Y-26357055D02*
X52470049Y-24382741D01*
X29890047Y-40947167D02*
X24170049Y-40947167D01*
X53270049Y-31105685D02*
X53270049Y-29131371D01*
X51670049Y-20300000D02*
X47429851Y-20300000D01*
X105690049Y-63160000D02*
X105690049Y-84790000D01*
X26920049Y-53787167D02*
X26920049Y-52508081D01*
X30637214Y-40200000D02*
X29890047Y-40947167D01*
X117270049Y-114176100D02*
X117270049Y-101900000D01*
X52070049Y-23982740D02*
X52070049Y-22008426D01*
X40270049Y-69000000D02*
X40270049Y-64088427D01*
X88170049Y-33400000D02*
X99570049Y-22000000D01*
X53670049Y-33480000D02*
X53670049Y-31505686D01*
X53270049Y-29131371D02*
X52870049Y-28731370D01*
X103070049Y-110310000D02*
X104170049Y-111410000D01*
X52870049Y-28731370D02*
X52870049Y-26757056D01*
X47429851Y-20300000D02*
X44349950Y-23379901D01*
X44349950Y-23379901D02*
X44249950Y-23479901D01*
X104220049Y-22000000D02*
X106710049Y-19510000D01*
X103070049Y-97160000D02*
X103070049Y-110310000D01*
X106710049Y-62140000D02*
X105690049Y-63160000D01*
X99570049Y-22000000D02*
X104220049Y-22000000D01*
X37846905Y-64088427D02*
X27545644Y-53787167D01*
X26920049Y-52508081D02*
X26570049Y-52158080D01*
X54830049Y-34640000D02*
X53670049Y-33480000D01*
X44349950Y-36096241D02*
X40246194Y-40200000D01*
X27545644Y-53787167D02*
X26920049Y-53787167D01*
X26570049Y-52158080D02*
X26570049Y-43347167D01*
X52070049Y-22008426D02*
X51670049Y-21608425D01*
X52470049Y-24382741D02*
X52070049Y-23982740D01*
X40246194Y-40200000D02*
X30637214Y-40200000D01*
X53670049Y-31505686D02*
X53270049Y-31105685D01*
X104210049Y-96020000D02*
X103070049Y-97160000D01*
X51670049Y-21608425D02*
X51670049Y-20300000D01*
%TO.N,Net-(U5-Q3)*%
X68570049Y-139641600D02*
X68570049Y-143191600D01*
%TO.N,Net-(U11-D1)*%
X92387249Y-123578300D02*
X92387249Y-137000000D01*
X92387249Y-137000000D02*
X96570049Y-137000000D01*
%TO.N,Net-(U1-Pad4)*%
X78170049Y-97600000D02*
X78170049Y-98100000D01*
X72130049Y-117240000D02*
X71270049Y-118100000D01*
X72765684Y-117240000D02*
X72130049Y-117240000D01*
X80470049Y-95300000D02*
X78170049Y-97600000D01*
X62445784Y-112560000D02*
X60855573Y-110969789D01*
X74954314Y-115051370D02*
X72765684Y-117240000D01*
X60855573Y-110969789D02*
X60855049Y-110969789D01*
X74954314Y-102015735D02*
X74954314Y-115051370D01*
%TO.N,!CS_EEPROM*%
X82170049Y-91060000D02*
X82170049Y-85300000D01*
X96170049Y-17200000D02*
X108662547Y-17200000D01*
X108662547Y-17200000D02*
X110270049Y-18807502D01*
X110270049Y-24387502D02*
X105690049Y-28967502D01*
X83170049Y-91191371D02*
X83170049Y-90200000D01*
X82790049Y-91571371D02*
X83170049Y-91191371D01*
X105690049Y-28967502D02*
X105690049Y-37265000D01*
X82790049Y-97862500D02*
X82790049Y-91571371D01*
X80470049Y-92760000D02*
X82170049Y-91060000D01*
X105690049Y-37265000D02*
X109250049Y-40825000D01*
X94570049Y-61440000D02*
X94570049Y-70500000D01*
X110270049Y-18807502D02*
X110270049Y-24387502D01*
X88570049Y-76500000D02*
X83340049Y-76500000D01*
X94570049Y-70500000D02*
X88570049Y-76500000D01*
X83530049Y-98602500D02*
X82790049Y-97862500D01*
X94970049Y-18400000D02*
X96170049Y-17200000D01*
%TO.N,!CS_RAM*%
X85330049Y-89540000D02*
X85590049Y-89800000D01*
X109028049Y-83642001D02*
X107919204Y-84750846D01*
X109028049Y-78640105D02*
X109028049Y-83642001D01*
X82804793Y-83200000D02*
X84887421Y-85282628D01*
X110270049Y-63160000D02*
X110270049Y-77398105D01*
X82804793Y-83134744D02*
X82804793Y-83200000D01*
X85970049Y-84200000D02*
X84887421Y-85282628D01*
X110270049Y-77398105D02*
X109028049Y-78640105D01*
X109250049Y-62140000D02*
X110270049Y-63160000D01*
X82170049Y-82300000D02*
X82170049Y-82500000D01*
X85330049Y-85725256D02*
X85330049Y-89540000D01*
X86270049Y-84200000D02*
X85970049Y-84200000D01*
X82170049Y-82500000D02*
X82804793Y-83134744D01*
X84887421Y-85282628D02*
X85330049Y-85725256D01*
X81170049Y-81300000D02*
X82170049Y-82300000D01*
%TO.N,!CS_Main*%
X107540049Y-17800000D02*
X109250049Y-19510000D01*
X86250049Y-66220000D02*
X88065684Y-66220000D01*
X99070049Y-17800000D02*
X107540049Y-17800000D01*
X88065684Y-66220000D02*
X92370049Y-61915635D01*
X82270049Y-70200000D02*
X86250049Y-66220000D01*
X92370049Y-61915635D02*
X92370049Y-61700000D01*
%TO.N,Net-(U1-Pad12)*%
X61779414Y-110280000D02*
X53590049Y-110280000D01*
X62439414Y-109620000D02*
X61779414Y-110280000D01*
X63010684Y-109620000D02*
X62439414Y-109620000D01*
X66814631Y-99044582D02*
X66814631Y-105816053D01*
X66814631Y-105816053D02*
X63010684Y-109620000D01*
X53590049Y-110280000D02*
X52150049Y-111720000D01*
X68114631Y-97744582D02*
X66814631Y-99044582D01*
%TO.N,Net-(U5-Q1)*%
X80970049Y-139641600D02*
X80970049Y-144391600D01*
%TO.N,Net-(U11-D3)*%
X97470049Y-128200000D02*
X97570049Y-128300000D01*
X97467249Y-123578300D02*
X97470049Y-123581100D01*
X97470049Y-123581100D02*
X97470049Y-128200000D01*
X97570049Y-128300000D02*
X102470049Y-128300000D01*
%TO.N,Net-(U11-D2)*%
X94927249Y-132500000D02*
X98370049Y-132500000D01*
X94927249Y-123578300D02*
X94927249Y-132500000D01*
%TO.N,Net-(U10-~{WAIT})*%
X47870049Y-107700000D02*
X47870049Y-109595635D01*
X48970049Y-106600000D02*
X47870049Y-107700000D01*
X47870049Y-109595635D02*
X48854414Y-110580000D01*
X49204363Y-115300000D02*
X44578628Y-119925735D01*
X44578628Y-119925735D02*
X44295784Y-119925735D01*
X48854414Y-110580000D02*
X49425684Y-110580000D01*
X50070049Y-111224365D02*
X50070049Y-115300000D01*
X50070049Y-115300000D02*
X49204363Y-115300000D01*
X49425684Y-110580000D02*
X50070049Y-111224365D01*
%TO.N,Net-(U10-~{BUSREQ})*%
X50070049Y-102960000D02*
X48970049Y-104060000D01*
X43970049Y-104500000D02*
X48050049Y-100420000D01*
X49425684Y-100420000D02*
X50070049Y-101064365D01*
X48050049Y-100420000D02*
X49425684Y-100420000D01*
X45170049Y-117800000D02*
X45170049Y-112600000D01*
X50070049Y-101064365D02*
X50070049Y-102960000D01*
X45170049Y-112600000D02*
X44970049Y-112400000D01*
%TO.N,Net-(U5-Q5)*%
X56070049Y-139641600D02*
X56070049Y-141316600D01*
%TO.N,Net-(U5-Q6)*%
X49770049Y-139641600D02*
X49770049Y-140841600D01*
%TO.N,Net-(U11-D5)*%
X86070049Y-122930756D02*
X86070049Y-137000000D01*
X86922505Y-122078300D02*
X86070049Y-122930756D01*
X101047249Y-122078300D02*
X86922505Y-122078300D01*
X102547249Y-123578300D02*
X101047249Y-122078300D01*
%TO.N,Net-(U5-Q0)*%
X87170049Y-139641600D02*
X87170049Y-144991600D01*
%TO.N,Net-(U11-D0)*%
X89847249Y-141316600D02*
X92170049Y-141316600D01*
X89847249Y-123578300D02*
X89847249Y-141316600D01*
%TO.N,Net-(U5-Q4)*%
X62470049Y-139700000D02*
X62470049Y-142591600D01*
X62370049Y-139600000D02*
X62470049Y-139700000D01*
%TO.N,Net-(U11-D7)*%
X105327249Y-121278300D02*
X86591133Y-121278300D01*
X107627249Y-123578300D02*
X105327249Y-121278300D01*
X86591133Y-121278300D02*
X79870049Y-127999384D01*
X79870049Y-127999384D02*
X79870049Y-128300000D01*
%TO.N,Net-(U4-~{S0})*%
X59770049Y-116800000D02*
X64435049Y-116800000D01*
X64435049Y-116800000D02*
X70175049Y-111060000D01*
%TO.N,Net-(U4-~{S2})*%
X59770049Y-106640000D02*
X61659414Y-106640000D01*
X61659414Y-106640000D02*
X62099414Y-107080000D01*
X64702155Y-107080000D02*
X65926103Y-105856052D01*
X62099414Y-107080000D02*
X64702155Y-107080000D01*
%TO.N,IO2*%
X64022157Y-80947892D02*
X70570049Y-74400000D01*
X71170049Y-51080000D02*
X72370049Y-49880000D01*
X64022157Y-97600000D02*
X64022157Y-80947892D01*
X71170049Y-67100000D02*
X71170049Y-51080000D01*
%TO.N,IO3*%
X67370049Y-66820000D02*
X67370049Y-63268530D01*
X53250049Y-102660000D02*
X52150049Y-101560000D01*
X68070049Y-96940635D02*
X63010684Y-102000000D01*
X60410050Y-102660000D02*
X53250049Y-102660000D01*
X56370049Y-54460000D02*
X56370049Y-51420000D01*
X67370049Y-63268530D02*
X67185784Y-63084265D01*
X63010684Y-102000000D02*
X61070050Y-102000000D01*
X68070049Y-94000000D02*
X68070049Y-96940635D01*
X67394314Y-93324265D02*
X68070049Y-94000000D01*
X56370049Y-51420000D02*
X54830049Y-49880000D01*
X61070050Y-102000000D02*
X60410050Y-102660000D01*
%TO.N,Net-(U4-~{S3})*%
X58305784Y-112335735D02*
X59130049Y-113160000D01*
X53050049Y-103200000D02*
X53718579Y-103200000D01*
X53718579Y-103200000D02*
X54994314Y-104475735D01*
X59130049Y-113160000D02*
X62694313Y-113160000D01*
X67370049Y-108484264D02*
X67370049Y-106580000D01*
X52150049Y-104100000D02*
X53050049Y-103200000D01*
X62694313Y-113160000D02*
X67370049Y-108484264D01*
%TO.N,PullIO*%
X49425684Y-92800000D02*
X48514414Y-92800000D01*
X51050049Y-105540000D02*
X52150049Y-106640000D01*
X50650049Y-96145686D02*
X50650049Y-98504365D01*
X50650049Y-98504365D02*
X51050049Y-98904365D01*
X61395049Y-97200000D02*
X62555049Y-98360000D01*
X52150049Y-95760000D02*
X52150049Y-95524365D01*
X53590049Y-97200000D02*
X61395049Y-97200000D01*
X52150049Y-95524365D02*
X49425684Y-92800000D01*
X51050049Y-98904365D02*
X51050049Y-105540000D01*
X48514414Y-92800000D02*
X47870049Y-93444365D01*
X47870049Y-93444365D02*
X47870049Y-94355635D01*
X49504363Y-95000000D02*
X50650049Y-96145686D01*
X52150049Y-95760000D02*
X53590049Y-97200000D01*
X47870049Y-94355635D02*
X48514414Y-95000000D01*
X48514414Y-95000000D02*
X49504363Y-95000000D01*
%TO.N,Net-(U4-~{S4})*%
X75554314Y-101767206D02*
X75554314Y-113684265D01*
X73638579Y-100782941D02*
X73855785Y-100565735D01*
X72287108Y-100782941D02*
X73638579Y-100782941D01*
X73855785Y-100565735D02*
X74352843Y-100565735D01*
X72270049Y-100800000D02*
X72287108Y-100782941D01*
X75554314Y-113684265D02*
X80270049Y-118400000D01*
X74352843Y-100565735D02*
X75554314Y-101767206D01*
X80270049Y-118400000D02*
X80270049Y-118340000D01*
%TO.N,IO4*%
X107721520Y-102600000D02*
X108218578Y-102600000D01*
X108970049Y-108301470D02*
X107420784Y-109850735D01*
X106710049Y-103790000D02*
X106710049Y-103611471D01*
X108970049Y-103351471D02*
X108970049Y-108301470D01*
X106710049Y-103611471D02*
X107721520Y-102600000D01*
X108218578Y-102600000D02*
X108970049Y-103351471D01*
X85290049Y-113580000D02*
X83170049Y-115700000D01*
X85290049Y-110380000D02*
X85290049Y-113580000D01*
X85670049Y-110000000D02*
X85290049Y-110380000D01*
%TO.N,IO5*%
X107970049Y-105800000D02*
X105373582Y-108396467D01*
X105373582Y-108396467D02*
X105373582Y-111901443D01*
X106750049Y-88400000D02*
X107750049Y-89400000D01*
X82570049Y-113020000D02*
X80270049Y-110720000D01*
X107970049Y-103200000D02*
X107970049Y-105800000D01*
X82570049Y-117500000D02*
X82570049Y-113020000D01*
X107750049Y-89400000D02*
X108450049Y-89400000D01*
%TO.N,IO6*%
X84990049Y-96894315D02*
X84990049Y-91580000D01*
X104565684Y-89600000D02*
X105370049Y-88795635D01*
X105370049Y-86094365D02*
X106800049Y-84664365D01*
X84494364Y-97390000D02*
X84990049Y-96894315D01*
X83570049Y-97390000D02*
X84494364Y-97390000D01*
X84990049Y-91580000D02*
X86970049Y-89600000D01*
X105370049Y-88795635D02*
X105370049Y-86094365D01*
X82170049Y-106200000D02*
X81610049Y-105640000D01*
X81610049Y-105640000D02*
X80270049Y-105640000D01*
X86970049Y-89600000D02*
X104565684Y-89600000D01*
X106800049Y-84664365D02*
X106800049Y-78600000D01*
%TO.N,Net-(U4-~{S8})*%
X69075049Y-91840000D02*
X69075049Y-103895635D01*
X70175049Y-90740000D02*
X69075049Y-91840000D01*
X69075049Y-103895635D02*
X69879414Y-104700000D01*
X69879414Y-104700000D02*
X70950049Y-104700000D01*
%TO.N,Net-(U16-INTR)*%
X80014414Y-93860000D02*
X76370049Y-90215635D01*
X77836446Y-111833603D02*
X77836446Y-110377911D01*
X81970049Y-95355635D02*
X81970049Y-95160000D01*
X80670049Y-93860000D02*
X80014414Y-93860000D01*
X77495784Y-100674265D02*
X76121519Y-99300000D01*
X76470049Y-69000000D02*
X76470049Y-60000000D01*
X77836446Y-110377911D02*
X78142203Y-110072154D01*
X79014314Y-97604265D02*
X79014314Y-97410991D01*
X76370049Y-90215635D02*
X76370049Y-74175000D01*
X80925684Y-96400000D02*
X81970049Y-95355635D01*
X79014314Y-97410991D02*
X80025305Y-96400000D01*
X76470049Y-60000000D02*
X76370049Y-59900000D01*
X80025305Y-96400000D02*
X80925684Y-96400000D01*
X77495784Y-106374265D02*
X77495784Y-100674265D01*
X81970049Y-95160000D02*
X80670049Y-93860000D01*
X76170049Y-56700000D02*
X76170049Y-43500000D01*
%TO.N,Net-(U16-MR)*%
X75770049Y-96197131D02*
X76965874Y-97392956D01*
X74104314Y-111805735D02*
X72650049Y-113260000D01*
X75570049Y-29560000D02*
X75570049Y-58340000D01*
X75770049Y-77200000D02*
X75770049Y-96197131D01*
X74104314Y-101165735D02*
X74104314Y-111805735D01*
X75570049Y-63420000D02*
X75570049Y-72975000D01*
%TO.N,Net-(J3-Pin_9)*%
X32319314Y-28149265D02*
X32319314Y-26289265D01*
X45994414Y-48180000D02*
X38614414Y-40800000D01*
X32319314Y-26289265D02*
X23940049Y-17910000D01*
X38614414Y-40800000D02*
X31870049Y-40800000D01*
X48770049Y-48180000D02*
X45994414Y-48180000D01*
%TO.N,TX1*%
X72370049Y-13400000D02*
X22470049Y-13400000D01*
X22470049Y-13400000D02*
X22470049Y-34220000D01*
X22470049Y-34220000D02*
X23940049Y-35690000D01*
X74570049Y-37520000D02*
X74570049Y-15600000D01*
X74570049Y-15600000D02*
X72370049Y-13400000D01*
X72370049Y-39720000D02*
X74570049Y-37520000D01*
%TO.N,RX1*%
X72535734Y-13000000D02*
X22304364Y-13000000D01*
X22790049Y-36840000D02*
X25090049Y-36840000D01*
X22070049Y-13234315D02*
X22070049Y-36120000D01*
X22304364Y-13000000D02*
X22070049Y-13234315D01*
X25090049Y-36840000D02*
X25090049Y-34300000D01*
X25090049Y-34300000D02*
X23940049Y-33150000D01*
X74970049Y-15434314D02*
X72535734Y-13000000D01*
X22070049Y-36120000D02*
X22790049Y-36840000D01*
X74970049Y-39660000D02*
X74970049Y-15434314D01*
X72370049Y-42260000D02*
X74970049Y-39660000D01*
%TO.N,Net-(R6-Pad2)*%
X117570049Y-83700000D02*
X111870049Y-89400000D01*
X111870049Y-89400000D02*
X110270049Y-89400000D01*
%TO.N,Net-(U14-F)*%
X99180049Y-82400000D02*
X99180049Y-78600000D01*
%TO.N,Net-(U14-G)*%
X101720049Y-82400000D02*
X101720049Y-78600000D01*
%TO.N,Net-(U14-E)*%
X96640049Y-82000000D02*
X96640049Y-78600000D01*
%TO.N,Net-(U14-D)*%
X94070049Y-81400000D02*
X94100049Y-81370000D01*
X94100049Y-81370000D02*
X94100049Y-78600000D01*
%TO.N,Net-(U14-DP)*%
X104270049Y-81400000D02*
X104260049Y-81390000D01*
X104260049Y-81390000D02*
X104260049Y-78600000D01*
%TO.N,Net-(U14-C)*%
X91570049Y-81000000D02*
X91560049Y-80990000D01*
X91560049Y-80990000D02*
X91560049Y-78600000D01*
%TO.N,Net-(U14-B)*%
X88970049Y-80600000D02*
X89020049Y-80550000D01*
X89020049Y-80550000D02*
X89020049Y-78600000D01*
%TO.N,Net-(U14-A)*%
X86470049Y-78610000D02*
X86480049Y-78600000D01*
X86470049Y-80000000D02*
X86470049Y-78610000D01*
%TO.N,Net-(IC1-X1)*%
X138770049Y-87100000D02*
X138770049Y-92720051D01*
X137670049Y-95054365D02*
X137870049Y-95254365D01*
X137670049Y-96365635D02*
X137670049Y-96760000D01*
X140470049Y-85400000D02*
X138770049Y-87100000D01*
X137870049Y-95254365D02*
X137870049Y-96165635D01*
X137670049Y-96760000D02*
X136330049Y-98100000D01*
X137870049Y-96165635D02*
X137670049Y-96365635D01*
X137670049Y-93820051D02*
X137670049Y-95054365D01*
X138770049Y-92720051D02*
X137670049Y-93820051D01*
%TO.N,Net-(IC1-X2)*%
X138370049Y-85600000D02*
X138370049Y-92554365D01*
X133790049Y-97134365D02*
X133790049Y-98100000D01*
X140470049Y-83500000D02*
X138370049Y-85600000D01*
X138370049Y-92554365D02*
X133790049Y-97134365D01*
%TO.N,IO7*%
X77921520Y-98700000D02*
X77570049Y-98348529D01*
X77570049Y-98348529D02*
X77570049Y-97315735D01*
X85670049Y-107600000D02*
X85570049Y-107500000D01*
X83270049Y-107500000D02*
X83170049Y-107400000D01*
X82370049Y-102651471D02*
X78418578Y-98700000D01*
X77570049Y-97315735D02*
X78745784Y-96140000D01*
X85570049Y-107500000D02*
X83270049Y-107500000D01*
X78418578Y-98700000D02*
X77921520Y-98700000D01*
X82370049Y-103400000D02*
X82370049Y-102651471D01*
%TO.N,Net-(BT1-+)*%
X141370049Y-117800000D02*
X139570049Y-117800000D01*
X128710049Y-113900465D02*
X128710049Y-113340000D01*
X130570049Y-115760465D02*
X128710049Y-113900465D01*
X130570049Y-116900000D02*
X130570049Y-115760465D01*
X139570049Y-117800000D02*
X139470049Y-117700000D01*
%TO.N,Net-(U12-DP)*%
X104370049Y-91200000D02*
X104170049Y-91400000D01*
X131210049Y-79380000D02*
X119390049Y-91200000D01*
X119390049Y-91200000D02*
X104370049Y-91200000D01*
%TO.N,Net-(U12-G)*%
X104749950Y-92800000D02*
X105149950Y-92400000D01*
X101870049Y-92200000D02*
X102990148Y-92200000D01*
X101670049Y-92400000D02*
X101870049Y-92200000D01*
X126450049Y-92400000D02*
X128670049Y-94620000D01*
X103590149Y-92800000D02*
X104749950Y-92800000D01*
X102990148Y-92200000D02*
X103590149Y-92800000D01*
X105149950Y-92400000D02*
X126450049Y-92400000D01*
%TO.N,Net-(U12-F)*%
X101918578Y-93000000D02*
X102270049Y-92648529D01*
X102270049Y-92648529D02*
X102270049Y-92600000D01*
X101070049Y-92648529D02*
X101421520Y-93000000D01*
X105315636Y-92800000D02*
X124310049Y-92800000D01*
X124310049Y-92800000D02*
X126130049Y-94620000D01*
X102270049Y-92600000D02*
X102824463Y-92600000D01*
X101421520Y-93000000D02*
X101918578Y-93000000D01*
X102824463Y-92600000D02*
X103424464Y-93200000D01*
X101070049Y-92200000D02*
X101070049Y-92648529D01*
X99130049Y-92400000D02*
X99130049Y-92200000D01*
X99130049Y-92200000D02*
X101070049Y-92200000D01*
X103424464Y-93200000D02*
X104915636Y-93200000D01*
X104915636Y-93200000D02*
X105315636Y-92800000D01*
%TO.N,Net-(U12-E)*%
X104984264Y-92000000D02*
X128590049Y-92000000D01*
X104584264Y-92400000D02*
X104984264Y-92000000D01*
X103170049Y-91800000D02*
X103170049Y-91814215D01*
X96590049Y-92000000D02*
X96790049Y-91800000D01*
X96790049Y-91800000D02*
X103170049Y-91800000D01*
X103170049Y-91814215D02*
X103755834Y-92400000D01*
X103755834Y-92400000D02*
X104584264Y-92400000D01*
X128590049Y-92000000D02*
X131210049Y-94620000D01*
%TO.N,Net-(U12-D)*%
X103570049Y-91648529D02*
X103570049Y-91400000D01*
X130730049Y-91600000D02*
X104770049Y-91600000D01*
X103921520Y-92000000D02*
X103570049Y-91648529D01*
X104770049Y-91600000D02*
X104770049Y-91648529D01*
X104770049Y-91648529D02*
X104418578Y-92000000D01*
X103570049Y-91400000D02*
X94070049Y-91400000D01*
X133750049Y-94620000D02*
X130730049Y-91600000D01*
X104418578Y-92000000D02*
X103921520Y-92000000D01*
%TO.N,Net-(U12-C)*%
X91770049Y-90800000D02*
X91570049Y-91000000D01*
X128670049Y-79380000D02*
X117250049Y-90800000D01*
X117250049Y-90800000D02*
X91770049Y-90800000D01*
%TO.N,Net-(U12-B)*%
X115110049Y-90400000D02*
X89170049Y-90400000D01*
X126130049Y-79380000D02*
X115110049Y-90400000D01*
X89170049Y-90400000D02*
X88970049Y-90600000D01*
%TO.N,Net-(U12-A)*%
X86470049Y-91000000D02*
X87470049Y-90000000D01*
X112970049Y-90000000D02*
X123590049Y-79380000D01*
X87470049Y-90000000D02*
X112970049Y-90000000D01*
%TO.N,Net-(BZ1-+)*%
X47270049Y-16000000D02*
X40670049Y-16000000D01*
X40670049Y-29400000D02*
X39460049Y-30610000D01*
X39460049Y-30610000D02*
X39170049Y-30610000D01*
X40670049Y-16000000D02*
X40670049Y-29400000D01*
%TO.N,Net-(U16-RCLK)*%
X73970049Y-50820000D02*
X72370049Y-52420000D01*
X73970049Y-42760000D02*
X73970049Y-50820000D01*
%TO.N,IO1*%
X76154314Y-111000000D02*
X76154314Y-109992792D01*
X81517021Y-117499999D02*
X81517021Y-115491337D01*
X79854314Y-114700000D02*
X76154314Y-111000000D01*
X81517021Y-115491337D02*
X80725684Y-114700000D01*
X80725684Y-114700000D02*
X79854314Y-114700000D01*
%TO.N,Net-(U17-RCLK)*%
X54374414Y-45900000D02*
X55285684Y-45900000D01*
X54945684Y-43360000D02*
X54374414Y-43360000D01*
X53730049Y-46544365D02*
X54374414Y-45900000D01*
X54830049Y-52420000D02*
X53730049Y-51320000D01*
X53730049Y-42715635D02*
X53730049Y-38280000D01*
X55285684Y-45900000D02*
X55930049Y-45255635D01*
X53730049Y-38280000D02*
X54830049Y-37180000D01*
X54374414Y-43360000D02*
X53730049Y-42715635D01*
X53730049Y-51320000D02*
X53730049Y-46544365D01*
X55930049Y-45255635D02*
X55930049Y-44344365D01*
X55930049Y-44344365D02*
X54945684Y-43360000D01*
%TD*%
M02*
