%TF.GenerationSoftware,KiCad,Pcbnew,10.0.1*%
%TF.CreationDate,2026-04-24T22:44:25+08:00*%
%TF.ProjectId,z80handheld,7a383068-616e-4646-9865-6c642e6b6963,rev?*%
%TF.SameCoordinates,Original*%
%TF.FileFunction,Copper,L2,Bot*%
%TF.FilePolarity,Positive*%
%FSLAX46Y46*%
G04 Gerber Fmt 4.6, Leading zero omitted, Abs format (unit mm)*
G04 Created by KiCad (PCBNEW 10.0.1) date 2026-04-24 22:44:25*
%MOMM*%
%LPD*%
G01*
G04 APERTURE LIST*
G04 Aperture macros list*
%AMRoundRect*
0 Rectangle with rounded corners*
0 $1 Rounding radius*
0 $2 $3 $4 $5 $6 $7 $8 $9 X,Y pos of 4 corners*
0 Add a 4 corners polygon primitive as box body*
4,1,4,$2,$3,$4,$5,$6,$7,$8,$9,$2,$3,0*
0 Add four circle primitives for the rounded corners*
1,1,$1+$1,$2,$3*
1,1,$1+$1,$4,$5*
1,1,$1+$1,$6,$7*
1,1,$1+$1,$8,$9*
0 Add four rect primitives between the rounded corners*
20,1,$1+$1,$2,$3,$4,$5,0*
20,1,$1+$1,$4,$5,$6,$7,0*
20,1,$1+$1,$6,$7,$8,$9,0*
20,1,$1+$1,$8,$9,$2,$3,0*%
G04 Aperture macros list end*
%TA.AperFunction,ComponentPad*%
%ADD10R,1.600000X1.600000*%
%TD*%
%TA.AperFunction,ComponentPad*%
%ADD11O,1.600000X1.600000*%
%TD*%
%TA.AperFunction,ComponentPad*%
%ADD12C,1.600000*%
%TD*%
%TA.AperFunction,ComponentPad*%
%ADD13RoundRect,0.250000X0.550000X0.550000X-0.550000X0.550000X-0.550000X-0.550000X0.550000X-0.550000X0*%
%TD*%
%TA.AperFunction,ComponentPad*%
%ADD14RoundRect,0.250000X-0.550000X0.550000X-0.550000X-0.550000X0.550000X-0.550000X0.550000X0.550000X0*%
%TD*%
%TA.AperFunction,ComponentPad*%
%ADD15R,1.700000X1.700000*%
%TD*%
%TA.AperFunction,ComponentPad*%
%ADD16C,1.700000*%
%TD*%
%TA.AperFunction,ComponentPad*%
%ADD17RoundRect,0.250000X0.550000X-0.550000X0.550000X0.550000X-0.550000X0.550000X-0.550000X-0.550000X0*%
%TD*%
%TA.AperFunction,ComponentPad*%
%ADD18RoundRect,0.250000X-0.550000X-0.550000X0.550000X-0.550000X0.550000X0.550000X-0.550000X0.550000X0*%
%TD*%
%TA.AperFunction,ComponentPad*%
%ADD19R,1.110000X1.110000*%
%TD*%
%TA.AperFunction,ComponentPad*%
%ADD20C,1.110000*%
%TD*%
%TA.AperFunction,ComponentPad*%
%ADD21C,1.000000*%
%TD*%
%TA.AperFunction,ComponentPad*%
%ADD22C,2.000000*%
%TD*%
%TA.AperFunction,ComponentPad*%
%ADD23R,2.000000X2.000000*%
%TD*%
%TA.AperFunction,ComponentPad*%
%ADD24R,2.000000X1.440000*%
%TD*%
%TA.AperFunction,ComponentPad*%
%ADD25O,2.000000X1.440000*%
%TD*%
%TA.AperFunction,ComponentPad*%
%ADD26R,1.440000X2.000000*%
%TD*%
%TA.AperFunction,ComponentPad*%
%ADD27O,1.440000X2.000000*%
%TD*%
%TA.AperFunction,ViaPad*%
%ADD28C,0.600000*%
%TD*%
%TA.AperFunction,Conductor*%
%ADD29C,0.200000*%
%TD*%
%ADD30C,0.000000*%
G04 APERTURE END LIST*
D10*
%TO.P,U4,1,~{S0}_1*%
%TO.N,IO1*%
X257625000Y-189530000D03*
D11*
%TO.P,U4,2,~{S1}_2*%
X260165000Y-189530000D03*
%TO.P,U4,3,~{S2}_3*%
X262705000Y-189530000D03*
%TO.P,U4,4,~{S3}_4*%
X265245000Y-189530000D03*
%TO.P,U4,5,~{S4}_5*%
X267785000Y-189530000D03*
%TO.P,U4,6,~{S5}_6*%
X270325000Y-189530000D03*
%TO.P,U4,7,~{S6}_7*%
X272865000Y-189530000D03*
%TO.P,U4,8,~{S7}_8*%
X275405000Y-189530000D03*
%TO.P,U4,9,~{S8}_9*%
X277945000Y-189530000D03*
%TO.P,U4,10,~{S9}_10*%
X280485000Y-189530000D03*
%TO.P,U4,11,~{S10}_11*%
X283025000Y-189530000D03*
%TO.P,U4,12,GND_12*%
%TO.N,GND*%
X285565000Y-189530000D03*
%TO.P,U4,13,~{S11}_13*%
%TO.N,IO1*%
X285565000Y-181910000D03*
%TO.P,U4,14,~{S12}_14*%
X283025000Y-181910000D03*
%TO.P,U4,15,~{S13}_15*%
X280485000Y-181910000D03*
%TO.P,U4,16,~{S14}_16*%
X277945000Y-181910000D03*
%TO.P,U4,17,~{S15}_17*%
X275405000Y-181910000D03*
%TO.P,U4,18,~{E0}_18*%
%TO.N,!IORQ*%
X272865000Y-181910000D03*
%TO.P,U4,19,~{E1}_19*%
%TO.N,Net-(U4-~{E1})*%
X270325000Y-181910000D03*
%TO.P,U4,20,A3_20*%
%TO.N,A7*%
X267785000Y-181910000D03*
%TO.P,U4,21,A2_21*%
%TO.N,A6*%
X265245000Y-181910000D03*
%TO.P,U4,22,A1_22*%
%TO.N,A5*%
X262705000Y-181910000D03*
%TO.P,U4,23,A0_23*%
%TO.N,A4*%
X260165000Y-181910000D03*
%TO.P,U4,24,VCC_24*%
%TO.N,5V*%
X257625000Y-181910000D03*
%TD*%
D12*
%TO.P,R3,1*%
%TO.N,5V*%
X222405000Y-182400000D03*
%TO.P,R3,2*%
%TO.N,Net-(U10-~{WAIT})*%
X222405000Y-190020000D03*
%TD*%
D13*
%TO.P,U6,1,OE_1*%
%TO.N,GND*%
X286610000Y-177440000D03*
D12*
%TO.P,U6,2,D0_2*%
%TO.N,D0*%
X286610000Y-174900000D03*
%TO.P,U6,3,D1_3*%
%TO.N,D1*%
X286610000Y-172360000D03*
%TO.P,U6,4,D2_4*%
%TO.N,D2*%
X286610000Y-169820000D03*
%TO.P,U6,5,D3_5*%
%TO.N,D3*%
X286610000Y-167280000D03*
%TO.P,U6,6,D4_6*%
%TO.N,D4*%
X286610000Y-164740000D03*
%TO.P,U6,7,D5_7*%
%TO.N,D5*%
X286610000Y-162200000D03*
%TO.P,U6,8,D6_8*%
%TO.N,D6*%
X286610000Y-159660000D03*
%TO.P,U6,9,D7_9*%
%TO.N,D7*%
X286610000Y-157120000D03*
%TO.P,U6,10,GND_10*%
%TO.N,GND*%
X286610000Y-154580000D03*
%TO.P,U6,11,Load_11*%
%TO.N,IO4*%
X278990000Y-154580000D03*
%TO.P,U6,12,Q7_12*%
%TO.N,Net-(D23-A)*%
X278990000Y-157120000D03*
%TO.P,U6,13,Q6_13*%
%TO.N,Net-(D20-A)*%
X278990000Y-159660000D03*
%TO.P,U6,14,Q5_14*%
%TO.N,Net-(D17-A)*%
X278990000Y-162200000D03*
%TO.P,U6,15,Q4_15*%
%TO.N,Net-(D14-A)*%
X278990000Y-164740000D03*
%TO.P,U6,16,Q3_16*%
%TO.N,Net-(D11-A)*%
X278990000Y-167280000D03*
%TO.P,U6,17,Q2_17*%
%TO.N,Net-(D8-A)*%
X278990000Y-169820000D03*
%TO.P,U6,18,Q1_18*%
%TO.N,!MREQ*%
X278990000Y-172360000D03*
%TO.P,U6,19,Q0_19*%
%TO.N,BANK_0*%
X278990000Y-174900000D03*
%TO.P,U6,20,VCC_20*%
%TO.N,5V*%
X278990000Y-177440000D03*
%TD*%
D14*
%TO.P,U1,1*%
%TO.N,IO1*%
X247565000Y-135400000D03*
D12*
%TO.P,U1,2*%
%TO.N,5V*%
X245025000Y-135400000D03*
%TO.P,U1,3*%
%TO.N,A15*%
X242485000Y-135400000D03*
%TO.P,U1,4*%
%TO.N,!MREQ*%
X239945000Y-135400000D03*
%TO.P,U1,5*%
%TO.N,IO1*%
X237405000Y-135400000D03*
%TO.P,U1,6*%
%TO.N,IO2*%
X234865000Y-135400000D03*
%TO.P,U1,7,GND_7*%
%TO.N,GND*%
X232325000Y-135400000D03*
%TO.P,U1,8*%
%TO.N,IO3*%
X232325000Y-143020000D03*
%TO.P,U1,9*%
%TO.N,IO1*%
X234865000Y-143020000D03*
%TO.P,U1,10*%
%TO.N,Net-(U4-~{E1})*%
X237405000Y-143020000D03*
%TO.P,U1,11*%
%TO.N,!M1*%
X239945000Y-143020000D03*
%TO.P,U1,12*%
%TO.N,Net-(U7-~{CS})*%
X242485000Y-143020000D03*
%TO.P,U1,13*%
%TO.N,A15*%
X245025000Y-143020000D03*
%TO.P,U1,14,VCC_14*%
%TO.N,5V*%
X247565000Y-143020000D03*
%TD*%
D15*
%TO.P,J4,1,Pin_1_1*%
%TO.N,TX1*%
X209642400Y-178722500D03*
D16*
%TO.P,J4,2,Pin_2_2*%
%TO.N,RX1*%
X212182400Y-178722500D03*
%TO.P,J4,3,Pin_3_3*%
%TO.N,unconnected-(J4-Pin_3-Pad3)*%
X214722400Y-178722500D03*
%TO.P,J4,4,Pin_4_4*%
%TO.N,unconnected-(J4-Pin_4-Pad4)*%
X217262400Y-178722500D03*
%TO.P,J4,5,Pin_5_5*%
%TO.N,Net-(J3-Pin_6)*%
X219802400Y-178722500D03*
%TO.P,J4,6,Pin_6_6*%
%TO.N,unconnected-(J4-Pin_6-Pad6)*%
X222342400Y-178722500D03*
%TO.P,J4,7,Pin_7_7*%
%TO.N,unconnected-(J4-Pin_7-Pad7)*%
X224882400Y-178722500D03*
%TO.P,J4,8,Pin_8_8*%
%TO.N,Net-(J3-Pin_9)*%
X227422400Y-178722500D03*
%TD*%
D12*
%TO.P,R4,1*%
%TO.N,GND*%
X218355000Y-182400000D03*
%TO.P,R4,2*%
%TO.N,Net-(R4-Pad2)*%
X218355000Y-190020000D03*
%TD*%
%TO.P,R5,1*%
%TO.N,!RESET*%
X214305000Y-182400000D03*
%TO.P,R5,2*%
%TO.N,5V*%
X214305000Y-190020000D03*
%TD*%
D15*
%TO.P,J2,1,Pin_1_1*%
%TO.N,5V*%
X227422400Y-193922500D03*
D16*
%TO.P,J2,2,Pin_2_2*%
%TO.N,GND*%
X224882400Y-193922500D03*
%TO.P,J2,3,Pin_3_3*%
%TO.N,Net-(J2-Pin_3)*%
X222342400Y-193922500D03*
%TO.P,J2,4,Pin_4_4*%
%TO.N,Net-(J2-Pin_4)*%
X219802400Y-193922500D03*
%TO.P,J2,5,Pin_5_5*%
%TO.N,Net-(J2-Pin_5)*%
X217262400Y-193922500D03*
%TO.P,J2,6,Pin_6_6*%
%TO.N,Net-(BZ1-+)*%
X214722400Y-193922500D03*
%TO.P,J2,7,Pin_7_7*%
%TO.N,Net-(J2-Pin_7)*%
X212182400Y-193922500D03*
%TO.P,J2,8,Pin_8_8*%
%TO.N,Net-(J2-Pin_8)*%
X209642400Y-193922500D03*
%TD*%
D12*
%TO.P,R2,1*%
%TO.N,5V*%
X226455000Y-182400000D03*
%TO.P,R2,2*%
%TO.N,Net-(U10-~{NMI})*%
X226455000Y-190020000D03*
%TD*%
D17*
%TO.P,U3,1*%
%TO.N,IO1*%
X209805000Y-132730000D03*
D12*
%TO.P,U3,2*%
%TO.N,IO4*%
X212345000Y-132730000D03*
%TO.P,U3,3*%
%TO.N,IO1*%
X214885000Y-132730000D03*
%TO.P,U3,4*%
%TO.N,IO5*%
X217425000Y-132730000D03*
%TO.P,U3,5*%
%TO.N,IO1*%
X219965000Y-132730000D03*
%TO.P,U3,6*%
%TO.N,IO6*%
X222505000Y-132730000D03*
%TO.P,U3,7,GND_7*%
%TO.N,GND*%
X225045000Y-132730000D03*
%TO.P,U3,8*%
%TO.N,IO8*%
X225045000Y-125110000D03*
%TO.P,U3,9*%
%TO.N,IO1*%
X222505000Y-125110000D03*
%TO.P,U3,10*%
%TO.N,!INT*%
X219965000Y-125110000D03*
%TO.P,U3,11*%
%TO.N,Net-(U16-INTR)*%
X217425000Y-125110000D03*
%TO.P,U3,12*%
%TO.N,Net-(U16-MR)*%
X214885000Y-125110000D03*
%TO.P,U3,13*%
%TO.N,!RESET*%
X212345000Y-125110000D03*
%TO.P,U3,14,VCC_14*%
%TO.N,5V*%
X209805000Y-125110000D03*
%TD*%
D15*
%TO.P,J5,1,Pin_1_1*%
%TO.N,5V*%
X208395000Y-70105000D03*
D16*
%TO.P,J5,2,Pin_2_2*%
%TO.N,GND*%
X210935000Y-70105000D03*
%TO.P,J5,3,Pin_3_3*%
%TO.N,TX2*%
X213475000Y-70105000D03*
%TO.P,J5,4,Pin_4_4*%
%TO.N,RX2*%
X216015000Y-70105000D03*
%TO.P,J5,5,Pin_5_5*%
%TO.N,!M1*%
X218555000Y-70105000D03*
%TO.P,J5,6,Pin_6_6*%
%TO.N,!MREQ*%
X221095000Y-70105000D03*
%TO.P,J5,7,Pin_7_7*%
%TO.N,!IORQ*%
X223635000Y-70105000D03*
%TO.P,J5,8,Pin_8_8*%
%TO.N,!RD*%
X226175000Y-70105000D03*
%TO.P,J5,9,Pin_9_9*%
%TO.N,!WR*%
X228715000Y-70105000D03*
%TO.P,J5,10,Pin_10_10*%
%TO.N,!INT*%
X231255000Y-70105000D03*
%TO.P,J5,11,Pin_11_11*%
%TO.N,!HALT*%
X233795000Y-70105000D03*
%TO.P,J5,12,Pin_12_12*%
%TO.N,!RESET*%
X236335000Y-70105000D03*
%TO.P,J5,13,Pin_13_13*%
%TO.N,IO8*%
X238875000Y-70105000D03*
%TO.P,J5,14,Pin_14_14*%
%TO.N,CLK*%
X241415000Y-70105000D03*
%TO.P,J5,15,Pin_15_15*%
%TO.N,unconnected-(J5-Pin_15-Pad15)*%
X243955000Y-70105000D03*
%TO.P,J5,16,Pin_16_16*%
%TO.N,A0*%
X246495000Y-70105000D03*
%TO.P,J5,17,Pin_17_17*%
%TO.N,A1*%
X249035000Y-70105000D03*
%TO.P,J5,18,Pin_18_18*%
%TO.N,A2*%
X251575000Y-70105000D03*
%TO.P,J5,19,Pin_19_19*%
%TO.N,A3*%
X254115000Y-70105000D03*
%TO.P,J5,20,Pin_20_20*%
%TO.N,A4*%
X256655000Y-70105000D03*
%TO.P,J5,21,Pin_21_21*%
%TO.N,A5*%
X259195000Y-70105000D03*
%TO.P,J5,22,Pin_22_22*%
%TO.N,A6*%
X261735000Y-70105000D03*
%TO.P,J5,23,Pin_23_23*%
%TO.N,A7*%
X264275000Y-70105000D03*
%TO.P,J5,24,Pin_24_24*%
%TO.N,A8*%
X266815000Y-70105000D03*
%TO.P,J5,25,Pin_25_25*%
%TO.N,A9*%
X269355000Y-70105000D03*
%TO.P,J5,26,Pin_26_26*%
%TO.N,A10*%
X271895000Y-70105000D03*
%TO.P,J5,27,Pin_27_27*%
%TO.N,A11*%
X274435000Y-70105000D03*
%TO.P,J5,28,Pin_28_28*%
%TO.N,A12*%
X276975000Y-70105000D03*
%TO.P,J5,29,Pin_29_29*%
%TO.N,A13*%
X279515000Y-70105000D03*
%TO.P,J5,30,Pin_30_30*%
%TO.N,A14*%
X282055000Y-70105000D03*
%TO.P,J5,31,Pin_31_31*%
%TO.N,A15*%
X284595000Y-70105000D03*
%TO.P,J5,32,Pin_32_32*%
%TO.N,unconnected-(J5-Pin_32-Pad32)*%
X287135000Y-70105000D03*
%TO.P,J5,33,Pin_33_33*%
%TO.N,D0*%
X289675000Y-70105000D03*
%TO.P,J5,34,Pin_34_34*%
%TO.N,D1*%
X292215000Y-70105000D03*
%TO.P,J5,35,Pin_35_35*%
%TO.N,D2*%
X294755000Y-70105000D03*
%TO.P,J5,36,Pin_36_36*%
%TO.N,D3*%
X297295000Y-70105000D03*
%TO.P,J5,37,Pin_37_37*%
%TO.N,D4*%
X299835000Y-70105000D03*
%TO.P,J5,38,Pin_38_38*%
%TO.N,D5*%
X302375000Y-70105000D03*
%TO.P,J5,39,Pin_39_39*%
%TO.N,D6*%
X304915000Y-70105000D03*
%TO.P,J5,40,Pin_40_40*%
%TO.N,D7*%
X307455000Y-70105000D03*
%TD*%
D10*
%TO.P,Y3,1,EN_1*%
%TO.N,5V*%
X218005000Y-173350000D03*
D12*
%TO.P,Y3,7,GND_7*%
%TO.N,GND*%
X218005000Y-158110000D03*
%TO.P,Y3,8,OUT_8*%
%TO.N,Net-(U16-XIN)*%
X210385000Y-158110000D03*
%TO.P,Y3,14,Vcc_14*%
%TO.N,5V*%
X210385000Y-173350000D03*
%TD*%
D15*
%TO.P,J3,1,Pin_1_1*%
%TO.N,unconnected-(J3-Pin_1-Pad1)*%
X210387200Y-80791000D03*
D16*
%TO.P,J3,2,Pin_2_2*%
%TO.N,unconnected-(J3-Pin_2-Pad2)*%
X210387200Y-83331000D03*
%TO.P,J3,3,Pin_3_3*%
%TO.N,unconnected-(J3-Pin_3-Pad3)*%
X210387200Y-85871000D03*
%TO.P,J3,4,Pin_4_4*%
%TO.N,unconnected-(J3-Pin_4-Pad4)*%
X210387200Y-88411000D03*
%TO.P,J3,5,Pin_5_5*%
%TO.N,unconnected-(J3-Pin_5-Pad5)*%
X210387200Y-90951000D03*
%TO.P,J3,6,Pin_6_6*%
%TO.N,Net-(J3-Pin_6)*%
X210387200Y-93491000D03*
%TO.P,J3,7,Pin_7_7*%
%TO.N,Net-(J2-Pin_3)*%
X210387200Y-96031000D03*
%TO.P,J3,8,Pin_8_8*%
%TO.N,Net-(J2-Pin_4)*%
X210387200Y-98571000D03*
%TO.P,J3,9,Pin_9_9*%
%TO.N,Net-(J3-Pin_9)*%
X210387200Y-101111000D03*
%TO.P,J3,10,Pin_10_10*%
%TO.N,Net-(J2-Pin_5)*%
X210387200Y-103651000D03*
%TO.P,J3,11,Pin_11_11*%
%TO.N,Net-(J2-Pin_7)*%
X210387200Y-106191000D03*
%TO.P,J3,12,Pin_12_12*%
%TO.N,Net-(J2-Pin_8)*%
X210387200Y-108731000D03*
%TO.P,J3,13,Pin_13_13*%
%TO.N,GND*%
X210387200Y-111271000D03*
%TO.P,J3,14,Pin_14_14*%
%TO.N,5V*%
X210387200Y-113811000D03*
%TD*%
D18*
%TO.P,U11,1,OE_1*%
%TO.N,IO1*%
X253180000Y-154620000D03*
D12*
%TO.P,U11,2,D0_2*%
%TO.N,Net-(U11-D0)*%
X253180000Y-157160000D03*
%TO.P,U11,3,D1_3*%
%TO.N,Net-(U11-D1)*%
X253180000Y-159700000D03*
%TO.P,U11,4,D2_4*%
%TO.N,Net-(U11-D2)*%
X253180000Y-162240000D03*
%TO.P,U11,5,D3_5*%
%TO.N,Net-(U11-D3)*%
X253180000Y-164780000D03*
%TO.P,U11,6,D4_6*%
%TO.N,Net-(U11-D4)*%
X253180000Y-167320000D03*
%TO.P,U11,7,D5_7*%
%TO.N,Net-(U11-D5)*%
X253180000Y-169860000D03*
%TO.P,U11,8,D6_8*%
%TO.N,Net-(U11-D6)*%
X253180000Y-172400000D03*
%TO.P,U11,9,D7_9*%
%TO.N,Net-(U11-D7)*%
X253180000Y-174940000D03*
%TO.P,U11,10,GND_10*%
%TO.N,GND*%
X253180000Y-177480000D03*
%TO.P,U11,11,Load_11*%
%TO.N,5V*%
X260800000Y-177480000D03*
%TO.P,U11,12,Q7_12*%
%TO.N,D0*%
X260800000Y-174940000D03*
%TO.P,U11,13,Q6_13*%
%TO.N,D1*%
X260800000Y-172400000D03*
%TO.P,U11,14,Q5_14*%
%TO.N,D2*%
X260800000Y-169860000D03*
%TO.P,U11,15,Q4_15*%
%TO.N,D3*%
X260800000Y-167320000D03*
%TO.P,U11,16,Q3_16*%
%TO.N,D4*%
X260800000Y-164780000D03*
%TO.P,U11,17,Q2_17*%
%TO.N,D5*%
X260800000Y-162240000D03*
%TO.P,U11,18,Q1_18*%
%TO.N,D6*%
X260800000Y-159700000D03*
%TO.P,U11,19,Q0_19*%
%TO.N,D7*%
X260800000Y-157160000D03*
%TO.P,U11,20,VCC_20*%
%TO.N,5V*%
X260800000Y-154620000D03*
%TD*%
D13*
%TO.P,U5,1,OE_1*%
%TO.N,GND*%
X271005000Y-177490000D03*
D12*
%TO.P,U5,2,D0_2*%
%TO.N,D0*%
X271005000Y-174950000D03*
%TO.P,U5,3,D1_3*%
%TO.N,D1*%
X271005000Y-172410000D03*
%TO.P,U5,4,D2_4*%
%TO.N,D2*%
X271005000Y-169870000D03*
%TO.P,U5,5,D3_5*%
%TO.N,D3*%
X271005000Y-167330000D03*
%TO.P,U5,6,D4_6*%
%TO.N,D4*%
X271005000Y-164790000D03*
%TO.P,U5,7,D5_7*%
%TO.N,D5*%
X271005000Y-162250000D03*
%TO.P,U5,8,D6_8*%
%TO.N,D6*%
X271005000Y-159710000D03*
%TO.P,U5,9,D7_9*%
%TO.N,D7*%
X271005000Y-157170000D03*
%TO.P,U5,10,GND_10*%
%TO.N,GND*%
X271005000Y-154630000D03*
%TO.P,U5,11,Load_11*%
%TO.N,5V*%
X263385000Y-154630000D03*
%TO.P,U5,12,Q7_12*%
%TO.N,Net-(U5-Q7)*%
X263385000Y-157170000D03*
%TO.P,U5,13,Q6_13*%
%TO.N,Net-(U5-Q6)*%
X263385000Y-159710000D03*
%TO.P,U5,14,Q5_14*%
%TO.N,Net-(U5-Q5)*%
X263385000Y-162250000D03*
%TO.P,U5,15,Q4_15*%
%TO.N,Net-(U5-Q4)*%
X263385000Y-164790000D03*
%TO.P,U5,16,Q3_16*%
%TO.N,Net-(U5-Q3)*%
X263385000Y-167330000D03*
%TO.P,U5,17,Q2_17*%
%TO.N,Net-(U5-Q2)*%
X263385000Y-169870000D03*
%TO.P,U5,18,Q1_18*%
%TO.N,Net-(U5-Q1)*%
X263385000Y-172410000D03*
%TO.P,U5,19,Q0_19*%
%TO.N,Net-(U5-Q0)*%
X263385000Y-174950000D03*
%TO.P,U5,20,VCC_20*%
%TO.N,5V*%
X263385000Y-177490000D03*
%TD*%
%TO.P,R6,1*%
%TO.N,GND*%
X210255000Y-182400000D03*
%TO.P,R6,2*%
%TO.N,Net-(R6-Pad2)*%
X210255000Y-190020000D03*
%TD*%
D19*
%TO.P,IC1,1,MOT_1*%
%TO.N,GND*%
X251305000Y-180490000D03*
D20*
%TO.P,IC1,2,X1_2*%
%TO.N,Net-(IC1-X1)*%
X251305000Y-177950000D03*
%TO.P,IC1,3,X2_3*%
%TO.N,Net-(IC1-X2)*%
X251305000Y-175410000D03*
%TO.P,IC1,4,AD0_4*%
%TO.N,D0*%
X251305000Y-172870000D03*
%TO.P,IC1,5,AD1_5*%
%TO.N,D1*%
X251305000Y-170330000D03*
%TO.P,IC1,6,AD2_6*%
%TO.N,D2*%
X251305000Y-167790000D03*
%TO.P,IC1,7,AD3_7*%
%TO.N,D3*%
X251305000Y-165250000D03*
%TO.P,IC1,8,AD4_8*%
%TO.N,D4*%
X251305000Y-162710000D03*
%TO.P,IC1,9,AD5_9*%
%TO.N,D5*%
X251305000Y-160170000D03*
%TO.P,IC1,10,AD6_10*%
%TO.N,D6*%
X251305000Y-157630000D03*
%TO.P,IC1,11,AD7_11*%
%TO.N,D7*%
X251305000Y-155090000D03*
%TO.P,IC1,12,GND_1_12*%
%TO.N,GND*%
X251305000Y-152550000D03*
%TO.P,IC1,13,~{CS}_13*%
%TO.N,IO1*%
X236065000Y-152550000D03*
%TO.P,IC1,14,AS_14*%
%TO.N,A0*%
X236065000Y-155090000D03*
%TO.P,IC1,15,R/~{W}_15*%
%TO.N,!WR*%
X236065000Y-157630000D03*
%TO.P,IC1,16,GND_2_16*%
%TO.N,GND*%
X236065000Y-160170000D03*
%TO.P,IC1,17,DS_17*%
%TO.N,!RD*%
X236065000Y-162710000D03*
%TO.P,IC1,18,~{RESET}_18*%
%TO.N,!RESET*%
X236065000Y-165250000D03*
%TO.P,IC1,19,~{IRQ}_19*%
%TO.N,!INT*%
X236065000Y-167790000D03*
%TO.P,IC1,20,VBAT_20*%
%TO.N,Net-(BT1-+)*%
X236065000Y-170330000D03*
%TO.P,IC1,21,~{RCLR}_21*%
%TO.N,5V*%
X236065000Y-172870000D03*
%TO.P,IC1,22,N.C._22*%
%TO.N,unconnected-(IC1-N.C.-Pad22)*%
X236065000Y-175410000D03*
%TO.P,IC1,23,SQW_23*%
%TO.N,unconnected-(IC1-SQW-Pad23)*%
X236065000Y-177950000D03*
%TO.P,IC1,24,VCC_24*%
%TO.N,5V*%
X236065000Y-180490000D03*
%TD*%
D21*
%TO.P,Y2,1,1_1*%
%TO.N,Net-(IC1-X2)*%
X252105000Y-184910000D03*
%TO.P,Y2,2,2_2*%
%TO.N,Net-(IC1-X1)*%
X250205000Y-184910000D03*
%TD*%
D22*
%TO.P,SW65,1,1_1*%
%TO.N,GND*%
X253005000Y-193010000D03*
X246505000Y-193010000D03*
%TO.P,SW65,2,2_2*%
%TO.N,!RESET*%
X253005000Y-188510000D03*
X246505000Y-188510000D03*
%TD*%
D10*
%TO.P,Y1,1,EN_1*%
%TO.N,5V*%
X232305000Y-173350000D03*
D12*
%TO.P,Y1,7,GND_7*%
%TO.N,GND*%
X232305000Y-158110000D03*
%TO.P,Y1,8,OUT_8*%
%TO.N,CLK*%
X224685000Y-158110000D03*
%TO.P,Y1,14,Vcc_14*%
%TO.N,5V*%
X224685000Y-173350000D03*
%TD*%
D13*
%TO.P,U13,1,OE_1*%
%TO.N,GND*%
X296830000Y-177340000D03*
D12*
%TO.P,U13,2,D0_2*%
%TO.N,D0*%
X296830000Y-174800000D03*
%TO.P,U13,3,D1_3*%
%TO.N,D1*%
X296830000Y-172260000D03*
%TO.P,U13,4,D2_4*%
%TO.N,D2*%
X296830000Y-169720000D03*
%TO.P,U13,5,D3_5*%
%TO.N,D3*%
X296830000Y-167180000D03*
%TO.P,U13,6,D4_6*%
%TO.N,D4*%
X296830000Y-164640000D03*
%TO.P,U13,7,D5_7*%
%TO.N,D5*%
X296830000Y-162100000D03*
%TO.P,U13,8,D6_8*%
%TO.N,D6*%
X296830000Y-159560000D03*
%TO.P,U13,9,D7_9*%
%TO.N,D7*%
X296830000Y-157020000D03*
%TO.P,U13,10,GND_10*%
%TO.N,GND*%
X296830000Y-154480000D03*
%TO.P,U13,11,Load_11*%
%TO.N,IO5*%
X289210000Y-154480000D03*
%TO.P,U13,12,Q7_12*%
%TO.N,Net-(U12-DP)*%
X289210000Y-157020000D03*
%TO.P,U13,13,Q6_13*%
%TO.N,Net-(U12-G)*%
X289210000Y-159560000D03*
%TO.P,U13,14,Q5_14*%
%TO.N,Net-(U12-F)*%
X289210000Y-162100000D03*
%TO.P,U13,15,Q4_15*%
%TO.N,Net-(U12-E)*%
X289210000Y-164640000D03*
%TO.P,U13,16,Q3_16*%
%TO.N,Net-(U12-D)*%
X289210000Y-167180000D03*
%TO.P,U13,17,Q2_17*%
%TO.N,Net-(U12-C)*%
X289210000Y-169720000D03*
%TO.P,U13,18,Q1_18*%
%TO.N,Net-(U12-B)*%
X289210000Y-172260000D03*
%TO.P,U13,19,Q0_19*%
%TO.N,Net-(U12-A)*%
X289210000Y-174800000D03*
%TO.P,U13,20,VCC_20*%
%TO.N,5V*%
X289210000Y-177340000D03*
%TD*%
D10*
%TO.P,U2,1,K_1*%
%TO.N,unconnected-(U2-K-Pad1)*%
X230885000Y-132820000D03*
D11*
%TO.P,U2,2,A_2*%
%TO.N,A15*%
X233425000Y-132820000D03*
%TO.P,U2,3,B_3*%
%TO.N,A14*%
X235965000Y-132820000D03*
%TO.P,U2,4,C_4*%
%TO.N,A13*%
X238505000Y-132820000D03*
%TO.P,U2,5,D_5*%
%TO.N,A12*%
X241045000Y-132820000D03*
%TO.P,U2,6,NC_6*%
%TO.N,unconnected-(U2-NC-Pad6)*%
X243585000Y-132820000D03*
%TO.P,U2,7,Vss_7*%
%TO.N,5V*%
X246125000Y-132820000D03*
%TO.P,U2,8,NC_8*%
%TO.N,unconnected-(U2-NC-Pad8)*%
X246125000Y-125200000D03*
%TO.P,U2,9,E_9*%
%TO.N,A11*%
X243585000Y-125200000D03*
%TO.P,U2,10,F_10*%
%TO.N,A10*%
X241045000Y-125200000D03*
%TO.P,U2,11,G_11*%
%TO.N,A9*%
X238505000Y-125200000D03*
%TO.P,U2,12,H_12*%
%TO.N,A8*%
X235965000Y-125200000D03*
%TO.P,U2,13,J_13*%
%TO.N,IO1*%
X233425000Y-125200000D03*
%TO.P,U2,14,Vdd_14*%
%TO.N,GND*%
X230885000Y-125200000D03*
%TD*%
D12*
%TO.P,R1,1*%
%TO.N,5V*%
X230505000Y-182400000D03*
%TO.P,R1,2*%
%TO.N,Net-(U10-~{BUSREQ})*%
X230505000Y-190020000D03*
%TD*%
D15*
%TO.P,J1,1,Pin_1_1*%
%TO.N,5V*%
X283465000Y-192610000D03*
D16*
%TO.P,J1,2,Pin_2_2*%
%TO.N,GND*%
X286005000Y-192610000D03*
%TD*%
D13*
%TO.P,U15,1,OE_1*%
%TO.N,GND*%
X306930000Y-177340000D03*
D12*
%TO.P,U15,2,D0_2*%
%TO.N,D0*%
X306930000Y-174800000D03*
%TO.P,U15,3,D1_3*%
%TO.N,D1*%
X306930000Y-172260000D03*
%TO.P,U15,4,D2_4*%
%TO.N,D2*%
X306930000Y-169720000D03*
%TO.P,U15,5,D3_5*%
%TO.N,D3*%
X306930000Y-167180000D03*
%TO.P,U15,6,D4_6*%
%TO.N,D4*%
X306930000Y-164640000D03*
%TO.P,U15,7,D5_7*%
%TO.N,D5*%
X306930000Y-162100000D03*
%TO.P,U15,8,D6_8*%
%TO.N,D6*%
X306930000Y-159560000D03*
%TO.P,U15,9,D7_9*%
%TO.N,D7*%
X306930000Y-157020000D03*
%TO.P,U15,10,GND_10*%
%TO.N,GND*%
X306930000Y-154480000D03*
%TO.P,U15,11,Load_11*%
%TO.N,IO6*%
X299310000Y-154480000D03*
%TO.P,U15,12,Q7_12*%
%TO.N,Net-(U14-DP)*%
X299310000Y-157020000D03*
%TO.P,U15,13,Q6_13*%
%TO.N,Net-(U14-G)*%
X299310000Y-159560000D03*
%TO.P,U15,14,Q5_14*%
%TO.N,Net-(U14-F)*%
X299310000Y-162100000D03*
%TO.P,U15,15,Q4_15*%
%TO.N,Net-(U14-E)*%
X299310000Y-164640000D03*
%TO.P,U15,16,Q3_16*%
%TO.N,Net-(U14-D)*%
X299310000Y-167180000D03*
%TO.P,U15,17,Q2_17*%
%TO.N,Net-(U14-C)*%
X299310000Y-169720000D03*
%TO.P,U15,18,Q1_18*%
%TO.N,Net-(U14-B)*%
X299310000Y-172260000D03*
%TO.P,U15,19,Q0_19*%
%TO.N,Net-(U14-A)*%
X299310000Y-174800000D03*
%TO.P,U15,20,VCC_20*%
%TO.N,5V*%
X299310000Y-177340000D03*
%TD*%
D23*
%TO.P,BZ1,1,+_1*%
%TO.N,Net-(BZ1-+)*%
X234605000Y-189010000D03*
D22*
%TO.P,BZ1,2,-_2*%
%TO.N,GND*%
X242205000Y-189010000D03*
%TD*%
D13*
%TO.P,U10,1,A_{11}_1*%
%TO.N,A11*%
X265172500Y-73230000D03*
D12*
%TO.P,U10,2,A_{12}_2*%
%TO.N,A12*%
X265172500Y-75770000D03*
%TO.P,U10,3,A_{13}_3*%
%TO.N,A13*%
X265172500Y-78310000D03*
%TO.P,U10,4,A_{14}_4*%
%TO.N,A14*%
X265172500Y-80850000D03*
%TO.P,U10,5,A_{15}_5*%
%TO.N,A15*%
X265172500Y-83390000D03*
%TO.P,U10,6,CLK_6*%
%TO.N,CLK*%
X265172500Y-85930000D03*
%TO.P,U10,7,D_{4}_7*%
%TO.N,D4*%
X265172500Y-88470000D03*
%TO.P,U10,8,D_{3}_8*%
%TO.N,D3*%
X265172500Y-91010000D03*
%TO.P,U10,9,D_{5}_9*%
%TO.N,D5*%
X265172500Y-93550000D03*
%TO.P,U10,10,D_{6}_10*%
%TO.N,D6*%
X265172500Y-96090000D03*
%TO.P,U10,11,V_{CC}_11*%
%TO.N,5V*%
X265172500Y-98630000D03*
%TO.P,U10,12,D_{2}_12*%
%TO.N,D2*%
X265172500Y-101170000D03*
%TO.P,U10,13,D_{7}_13*%
%TO.N,D7*%
X265172500Y-103710000D03*
%TO.P,U10,14,D_{0}_14*%
%TO.N,D0*%
X265172500Y-106250000D03*
%TO.P,U10,15,D_{1}_15*%
%TO.N,D1*%
X265172500Y-108790000D03*
%TO.P,U10,16,~{INT}_16*%
%TO.N,!INT*%
X265172500Y-111330000D03*
%TO.P,U10,17,~{NMI}_17*%
%TO.N,Net-(U10-~{NMI})*%
X265172500Y-113870000D03*
%TO.P,U10,18,~{HALT}_18*%
%TO.N,!HALT*%
X265172500Y-116410000D03*
%TO.P,U10,19,~{MREQ}_19*%
%TO.N,!MREQ*%
X265172500Y-118950000D03*
%TO.P,U10,20,~{IORQ}_20*%
%TO.N,!IORQ*%
X265172500Y-121490000D03*
%TO.P,U10,21,~{RD}_21*%
%TO.N,!RD*%
X249932500Y-121490000D03*
%TO.P,U10,22,~{WR}_22*%
%TO.N,!WR*%
X249932500Y-118950000D03*
%TO.P,U10,23,~{BUSACK}_23*%
%TO.N,unconnected-(U10-~{BUSACK}-Pad23)*%
X249932500Y-116410000D03*
%TO.P,U10,24,~{WAIT}_24*%
%TO.N,Net-(U10-~{WAIT})*%
X249932500Y-113870000D03*
%TO.P,U10,25,~{BUSREQ}_25*%
%TO.N,Net-(U10-~{BUSREQ})*%
X249932500Y-111330000D03*
%TO.P,U10,26,~{RESET}_26*%
%TO.N,!RESET*%
X249932500Y-108790000D03*
%TO.P,U10,27,~{M1}_27*%
%TO.N,!M1*%
X249932500Y-106250000D03*
%TO.P,U10,28,~{RFSH}_28*%
%TO.N,unconnected-(U10-~{RFSH}-Pad28)*%
X249932500Y-103710000D03*
%TO.P,U10,29,GND_29*%
%TO.N,GND*%
X249932500Y-101170000D03*
%TO.P,U10,30,A_{0}_30*%
%TO.N,A0*%
X249932500Y-98630000D03*
%TO.P,U10,31,A_{1}_31*%
%TO.N,A1*%
X249932500Y-96090000D03*
%TO.P,U10,32,A_{2}_32*%
%TO.N,A2*%
X249932500Y-93550000D03*
%TO.P,U10,33,A_{3}_33*%
%TO.N,A3*%
X249932500Y-91010000D03*
%TO.P,U10,34,A_{4}_34*%
%TO.N,A4*%
X249932500Y-88470000D03*
%TO.P,U10,35,A_{5}_35*%
%TO.N,A5*%
X249932500Y-85930000D03*
%TO.P,U10,36,A_{6}_36*%
%TO.N,A6*%
X249932500Y-83390000D03*
%TO.P,U10,37,A_{7}_37*%
%TO.N,A7*%
X249932500Y-80850000D03*
%TO.P,U10,38,A_{8}_38*%
%TO.N,A8*%
X249932500Y-78310000D03*
%TO.P,U10,39,A_{9}_39*%
%TO.N,A9*%
X249932500Y-75770000D03*
%TO.P,U10,40,A_{10}_40*%
%TO.N,A10*%
X249932500Y-73230000D03*
%TD*%
D13*
%TO.P,U16,1,D0_1*%
%TO.N,D0*%
X246782500Y-73230000D03*
D12*
%TO.P,U16,2,D1_2*%
%TO.N,D1*%
X246782500Y-75770000D03*
%TO.P,U16,3,D2_3*%
%TO.N,D2*%
X246782500Y-78310000D03*
%TO.P,U16,4,D3_4*%
%TO.N,D3*%
X246782500Y-80850000D03*
%TO.P,U16,5,D4_5*%
%TO.N,D4*%
X246782500Y-83390000D03*
%TO.P,U16,6,D5_6*%
%TO.N,D5*%
X246782500Y-85930000D03*
%TO.P,U16,7,D6_7*%
%TO.N,D6*%
X246782500Y-88470000D03*
%TO.P,U16,8,D7_8*%
%TO.N,D7*%
X246782500Y-91010000D03*
%TO.P,U16,9,RCLK_9*%
%TO.N,Net-(U16-RCLK)*%
X246782500Y-93550000D03*
%TO.P,U16,10,SIN_10*%
%TO.N,TX1*%
X246782500Y-96090000D03*
%TO.P,U16,11,SOUT_11*%
%TO.N,RX1*%
X246782500Y-98630000D03*
%TO.P,U16,12,CS0_12*%
%TO.N,5V*%
X246782500Y-101170000D03*
%TO.P,U16,13,CS1_13*%
X246782500Y-103710000D03*
%TO.P,U16,14,~{CS2}_14*%
%TO.N,IO2*%
X246782500Y-106250000D03*
%TO.P,U16,15,~{BAUDOUT}_15*%
%TO.N,Net-(U16-RCLK)*%
X246782500Y-108790000D03*
%TO.P,U16,16,XIN_16*%
%TO.N,Net-(U16-XIN)*%
X246782500Y-111330000D03*
%TO.P,U16,17,XOUT_17*%
%TO.N,unconnected-(U16-XOUT-Pad17)*%
X246782500Y-113870000D03*
%TO.P,U16,18,~{WR}_18*%
%TO.N,!WR*%
X246782500Y-116410000D03*
%TO.P,U16,19,WR_19*%
%TO.N,unconnected-(U16-WR-Pad19)*%
X246782500Y-118950000D03*
%TO.P,U16,20,GND_20*%
%TO.N,GND*%
X246782500Y-121490000D03*
%TO.P,U16,21,~{RD}_21*%
%TO.N,!RD*%
X231542500Y-121490000D03*
%TO.P,U16,22,RD_22*%
%TO.N,unconnected-(U16-RD-Pad22)*%
X231542500Y-118950000D03*
%TO.P,U16,23,DDIS_23*%
%TO.N,unconnected-(U16-DDIS-Pad23)*%
X231542500Y-116410000D03*
%TO.P,U16,24,~{TXRDY}_24*%
%TO.N,unconnected-(U16-~{TXRDY}-Pad24)*%
X231542500Y-113870000D03*
%TO.P,U16,25,~{ADS}_25*%
%TO.N,GND*%
X231542500Y-111330000D03*
%TO.P,U16,26,A2_26*%
%TO.N,A2*%
X231542500Y-108790000D03*
%TO.P,U16,27,A1_27*%
%TO.N,A1*%
X231542500Y-106250000D03*
%TO.P,U16,28,A0_28*%
%TO.N,A0*%
X231542500Y-103710000D03*
%TO.P,U16,29,~{RXRDY}_29*%
%TO.N,unconnected-(U16-~{RXRDY}-Pad29)*%
X231542500Y-101170000D03*
%TO.P,U16,30,INTR_30*%
%TO.N,Net-(U16-INTR)*%
X231542500Y-98630000D03*
%TO.P,U16,31,~{OUT2}_31*%
%TO.N,unconnected-(U16-~{OUT2}-Pad31)*%
X231542500Y-96090000D03*
%TO.P,U16,32,~{RTS}_32*%
%TO.N,unconnected-(U16-~{RTS}-Pad32)*%
X231542500Y-93550000D03*
%TO.P,U16,33,~{DTR}_33*%
%TO.N,unconnected-(U16-~{DTR}-Pad33)*%
X231542500Y-91010000D03*
%TO.P,U16,34,~{OUT1}_34*%
%TO.N,unconnected-(U16-~{OUT1}-Pad34)*%
X231542500Y-88470000D03*
%TO.P,U16,35,MR_35*%
%TO.N,Net-(U16-MR)*%
X231542500Y-85930000D03*
%TO.P,U16,36,~{CTS}_36*%
%TO.N,5V*%
X231542500Y-83390000D03*
%TO.P,U16,37,~{DSR}_37*%
X231542500Y-80850000D03*
%TO.P,U16,38,~{DCD}_38*%
X231542500Y-78310000D03*
%TO.P,U16,39,~{RI}_39*%
X231542500Y-75770000D03*
%TO.P,U16,40,VCC_40*%
X231542500Y-73230000D03*
%TD*%
D23*
%TO.P,BT1,1,+_1*%
%TO.N,Net-(BT1-+)*%
X232205000Y-152810000D03*
D22*
%TO.P,BT1,2,-_2*%
%TO.N,GND*%
X211405000Y-152810000D03*
%TD*%
D24*
%TO.P,U9,1,A14_1*%
%TO.N,A14*%
X281747500Y-82760000D03*
D25*
%TO.P,U9,2,A12_2*%
%TO.N,A12*%
X281747500Y-85300000D03*
%TO.P,U9,3,A7_3*%
%TO.N,A7*%
X281747500Y-87840000D03*
%TO.P,U9,4,A6_4*%
%TO.N,A6*%
X281747500Y-90380000D03*
%TO.P,U9,5,A5_5*%
%TO.N,A5*%
X281747500Y-92920000D03*
%TO.P,U9,6,A4_6*%
%TO.N,A4*%
X281747500Y-95460000D03*
%TO.P,U9,7,A3_7*%
%TO.N,A3*%
X281747500Y-98000000D03*
%TO.P,U9,8,A2_8*%
%TO.N,A2*%
X281747500Y-100540000D03*
%TO.P,U9,9,A1_9*%
%TO.N,A1*%
X281747500Y-103080000D03*
%TO.P,U9,10,A0_10*%
%TO.N,A0*%
X281747500Y-105620000D03*
%TO.P,U9,11,D0_11*%
%TO.N,D0*%
X281747500Y-108160000D03*
%TO.P,U9,12,D1_12*%
%TO.N,D1*%
X281747500Y-110700000D03*
%TO.P,U9,13,D2_13*%
%TO.N,D2*%
X281747500Y-113240000D03*
%TO.P,U9,14,GND_14*%
%TO.N,GND*%
X281747500Y-115780000D03*
%TO.P,U9,15,D3_15*%
%TO.N,D3*%
X271587500Y-115780000D03*
%TO.P,U9,16,D4_16*%
%TO.N,D4*%
X271587500Y-113240000D03*
%TO.P,U9,17,D5_17*%
%TO.N,D5*%
X271587500Y-110700000D03*
%TO.P,U9,18,D6_18*%
%TO.N,D6*%
X271587500Y-108160000D03*
%TO.P,U9,19,D7_19*%
%TO.N,D7*%
X271587500Y-105620000D03*
%TO.P,U9,20,~{CS}_20*%
%TO.N,Net-(U9-~{CS})*%
X271587500Y-103080000D03*
%TO.P,U9,21,A10_21*%
%TO.N,A10*%
X271587500Y-100540000D03*
%TO.P,U9,22,~{OE}_22*%
%TO.N,!RD*%
X271587500Y-98000000D03*
%TO.P,U9,23,A11_23*%
%TO.N,A11*%
X271587500Y-95460000D03*
%TO.P,U9,24,A9_24*%
%TO.N,A9*%
X271587500Y-92920000D03*
%TO.P,U9,25,A8_25*%
%TO.N,A8*%
X271587500Y-90380000D03*
%TO.P,U9,26,A13_26*%
%TO.N,A13*%
X271587500Y-87840000D03*
%TO.P,U9,27,~{WE}_27*%
%TO.N,!WR*%
X271587500Y-85300000D03*
%TO.P,U9,28,VCC_28*%
%TO.N,5V*%
X271587500Y-82760000D03*
%TD*%
D24*
%TO.P,U7,1,A14_1*%
%TO.N,A14*%
X303112500Y-82660000D03*
D25*
%TO.P,U7,2,A12_2*%
%TO.N,A12*%
X303112500Y-85200000D03*
%TO.P,U7,3,A7_3*%
%TO.N,A7*%
X303112500Y-87740000D03*
%TO.P,U7,4,A6_4*%
%TO.N,A6*%
X303112500Y-90280000D03*
%TO.P,U7,5,A5_5*%
%TO.N,A5*%
X303112500Y-92820000D03*
%TO.P,U7,6,A4_6*%
%TO.N,A4*%
X303112500Y-95360000D03*
%TO.P,U7,7,A3_7*%
%TO.N,A3*%
X303112500Y-97900000D03*
%TO.P,U7,8,A2_8*%
%TO.N,A2*%
X303112500Y-100440000D03*
%TO.P,U7,9,A1_9*%
%TO.N,A1*%
X303112500Y-102980000D03*
%TO.P,U7,10,A0_10*%
%TO.N,A0*%
X303112500Y-105520000D03*
%TO.P,U7,11,Q0_11*%
%TO.N,D0*%
X303112500Y-108060000D03*
%TO.P,U7,12,Q1_12*%
%TO.N,D1*%
X303112500Y-110600000D03*
%TO.P,U7,13,Q2_13*%
%TO.N,D2*%
X303112500Y-113140000D03*
%TO.P,U7,14,GND_14*%
%TO.N,GND*%
X303112500Y-115680000D03*
%TO.P,U7,15,Q3_15*%
%TO.N,D3*%
X292952500Y-115680000D03*
%TO.P,U7,16,Q4_16*%
%TO.N,D4*%
X292952500Y-113140000D03*
%TO.P,U7,17,Q5_17*%
%TO.N,D5*%
X292952500Y-110600000D03*
%TO.P,U7,18,Q6_18*%
%TO.N,D6*%
X292952500Y-108060000D03*
%TO.P,U7,19,Q7_19*%
%TO.N,D7*%
X292952500Y-105520000D03*
%TO.P,U7,20,~{CS}_20*%
%TO.N,Net-(U7-~{CS})*%
X292952500Y-102980000D03*
%TO.P,U7,21,A10_21*%
%TO.N,A10*%
X292952500Y-100440000D03*
%TO.P,U7,22,~{OE}_22*%
%TO.N,!RD*%
X292952500Y-97900000D03*
%TO.P,U7,23,A11_23*%
%TO.N,A11*%
X292952500Y-95360000D03*
%TO.P,U7,24,A9_24*%
%TO.N,A9*%
X292952500Y-92820000D03*
%TO.P,U7,25,A8_25*%
%TO.N,A8*%
X292952500Y-90280000D03*
%TO.P,U7,26,A13_26*%
%TO.N,A13*%
X292952500Y-87740000D03*
%TO.P,U7,27,~{WE}_27*%
%TO.N,!WR*%
X292952500Y-85200000D03*
%TO.P,U7,28,VCC_28*%
%TO.N,5V*%
X292952500Y-82660000D03*
%TD*%
D26*
%TO.P,U8,1,A14_1*%
%TO.N,A14*%
X290445000Y-139257500D03*
D27*
%TO.P,U8,2,A12_2*%
%TO.N,A12*%
X287905000Y-139257500D03*
%TO.P,U8,3,A7_3*%
%TO.N,A7*%
X285365000Y-139257500D03*
%TO.P,U8,4,A6_4*%
%TO.N,A6*%
X282825000Y-139257500D03*
%TO.P,U8,5,A5_5*%
%TO.N,A5*%
X280285000Y-139257500D03*
%TO.P,U8,6,A4_6*%
%TO.N,A4*%
X277745000Y-139257500D03*
%TO.P,U8,7,A3_7*%
%TO.N,A3*%
X275205000Y-139257500D03*
%TO.P,U8,8,A2_8*%
%TO.N,A2*%
X272665000Y-139257500D03*
%TO.P,U8,9,A1_9*%
%TO.N,A1*%
X270125000Y-139257500D03*
%TO.P,U8,10,A0_10*%
%TO.N,A0*%
X267585000Y-139257500D03*
%TO.P,U8,11,D0_11*%
%TO.N,D0*%
X265045000Y-139257500D03*
%TO.P,U8,12,D1_12*%
%TO.N,D1*%
X262505000Y-139257500D03*
%TO.P,U8,13,D2_13*%
%TO.N,D2*%
X259965000Y-139257500D03*
%TO.P,U8,14,GND_14*%
%TO.N,GND*%
X257425000Y-139257500D03*
%TO.P,U8,15,D3_15*%
%TO.N,D3*%
X257425000Y-129097500D03*
%TO.P,U8,16,D4_16*%
%TO.N,D4*%
X259965000Y-129097500D03*
%TO.P,U8,17,D5_17*%
%TO.N,D5*%
X262505000Y-129097500D03*
%TO.P,U8,18,D6_18*%
%TO.N,D6*%
X265045000Y-129097500D03*
%TO.P,U8,19,D7_19*%
%TO.N,D7*%
X267585000Y-129097500D03*
%TO.P,U8,20,~{CS}_20*%
%TO.N,!MREQ*%
X270125000Y-129097500D03*
%TO.P,U8,21,A10_21*%
%TO.N,A10*%
X272665000Y-129097500D03*
%TO.P,U8,22,~{OE}_22*%
%TO.N,!RD*%
X275205000Y-129097500D03*
%TO.P,U8,23,A11_23*%
%TO.N,A11*%
X277745000Y-129097500D03*
%TO.P,U8,24,A9_24*%
%TO.N,A9*%
X280285000Y-129097500D03*
%TO.P,U8,25,A8_25*%
%TO.N,A8*%
X282825000Y-129097500D03*
%TO.P,U8,26,A13_26*%
%TO.N,A13*%
X285365000Y-129097500D03*
%TO.P,U8,27,~{WE}_27*%
%TO.N,!WR*%
X287905000Y-129097500D03*
%TO.P,U8,28,VCC_28*%
%TO.N,5V*%
X290445000Y-129097500D03*
%TD*%
D13*
%TO.P,U17,1,D0_1*%
%TO.N,D0*%
X228392500Y-73230000D03*
D12*
%TO.P,U17,2,D1_2*%
%TO.N,D1*%
X228392500Y-75770000D03*
%TO.P,U17,3,D2_3*%
%TO.N,D2*%
X228392500Y-78310000D03*
%TO.P,U17,4,D3_4*%
%TO.N,D3*%
X228392500Y-80850000D03*
%TO.P,U17,5,D4_5*%
%TO.N,D4*%
X228392500Y-83390000D03*
%TO.P,U17,6,D5_6*%
%TO.N,D5*%
X228392500Y-85930000D03*
%TO.P,U17,7,D6_7*%
%TO.N,D6*%
X228392500Y-88470000D03*
%TO.P,U17,8,D7_8*%
%TO.N,D7*%
X228392500Y-91010000D03*
%TO.P,U17,9,RCLK_9*%
%TO.N,Net-(U17-RCLK)*%
X228392500Y-93550000D03*
%TO.P,U17,10,SIN_10*%
%TO.N,TX2*%
X228392500Y-96090000D03*
%TO.P,U17,11,SOUT_11*%
%TO.N,RX2*%
X228392500Y-98630000D03*
%TO.P,U17,12,CS0_12*%
%TO.N,5V*%
X228392500Y-101170000D03*
%TO.P,U17,13,CS1_13*%
X228392500Y-103710000D03*
%TO.P,U17,14,~{CS2}_14*%
%TO.N,IO3*%
X228392500Y-106250000D03*
%TO.P,U17,15,~{BAUDOUT}_15*%
%TO.N,Net-(U17-RCLK)*%
X228392500Y-108790000D03*
%TO.P,U17,16,XIN_16*%
%TO.N,Net-(U16-XIN)*%
X228392500Y-111330000D03*
%TO.P,U17,17,XOUT_17*%
%TO.N,unconnected-(U17-XOUT-Pad17)*%
X228392500Y-113870000D03*
%TO.P,U17,18,~{WR}_18*%
%TO.N,!WR*%
X228392500Y-116410000D03*
%TO.P,U17,19,WR_19*%
%TO.N,unconnected-(U17-WR-Pad19)*%
X228392500Y-118950000D03*
%TO.P,U17,20,GND_20*%
%TO.N,GND*%
X228392500Y-121490000D03*
%TO.P,U17,21,~{RD}_21*%
%TO.N,!RD*%
X213152500Y-121490000D03*
%TO.P,U17,22,RD_22*%
%TO.N,unconnected-(U17-RD-Pad22)*%
X213152500Y-118950000D03*
%TO.P,U17,23,DDIS_23*%
%TO.N,unconnected-(U17-DDIS-Pad23)*%
X213152500Y-116410000D03*
%TO.P,U17,24,~{TXRDY}_24*%
%TO.N,unconnected-(U17-~{TXRDY}-Pad24)*%
X213152500Y-113870000D03*
%TO.P,U17,25,~{ADS}_25*%
%TO.N,GND*%
X213152500Y-111330000D03*
%TO.P,U17,26,A2_26*%
%TO.N,A2*%
X213152500Y-108790000D03*
%TO.P,U17,27,A1_27*%
%TO.N,A1*%
X213152500Y-106250000D03*
%TO.P,U17,28,A0_28*%
%TO.N,A0*%
X213152500Y-103710000D03*
%TO.P,U17,29,~{RXRDY}_29*%
%TO.N,unconnected-(U17-~{RXRDY}-Pad29)*%
X213152500Y-101170000D03*
%TO.P,U17,30,INTR_30*%
%TO.N,Net-(U16-INTR)*%
X213152500Y-98630000D03*
%TO.P,U17,31,~{OUT2}_31*%
%TO.N,unconnected-(U17-~{OUT2}-Pad31)*%
X213152500Y-96090000D03*
%TO.P,U17,32,~{RTS}_32*%
%TO.N,unconnected-(U17-~{RTS}-Pad32)*%
X213152500Y-93550000D03*
%TO.P,U17,33,~{DTR}_33*%
%TO.N,unconnected-(U17-~{DTR}-Pad33)*%
X213152500Y-91010000D03*
%TO.P,U17,34,~{OUT1}_34*%
%TO.N,unconnected-(U17-~{OUT1}-Pad34)*%
X213152500Y-88470000D03*
%TO.P,U17,35,MR_35*%
%TO.N,Net-(U16-MR)*%
X213152500Y-85930000D03*
%TO.P,U17,36,~{CTS}_36*%
%TO.N,5V*%
X213152500Y-83390000D03*
%TO.P,U17,37,~{DSR}_37*%
X213152500Y-80850000D03*
%TO.P,U17,38,~{DCD}_38*%
X213152500Y-78310000D03*
%TO.P,U17,39,~{RI}_39*%
X213152500Y-75770000D03*
%TO.P,U17,40,VCC_40*%
X213152500Y-73230000D03*
%TD*%
D28*
%TO.N,Net-(U16-RCLK)*%
X244569600Y-93550000D03*
%TO.N,Net-(U14-A)*%
X300285000Y-178910000D03*
%TO.N,Net-(U14-B)*%
X301725000Y-180310000D03*
%TO.N,Net-(U14-C)*%
X303165000Y-180310000D03*
%TO.N,Net-(U14-DP)*%
X304765000Y-179510000D03*
%TO.N,Net-(U14-D)*%
X305605000Y-167180000D03*
X306045000Y-188310000D03*
%TO.N,Net-(U14-E)*%
X304605000Y-187110000D03*
%TO.N,Net-(U14-G)*%
X303165000Y-188710000D03*
%TO.N,Net-(U14-F)*%
X301725000Y-189510000D03*
%TO.N,Net-(U12-A)*%
X290085000Y-180310000D03*
%TO.N,Net-(U12-B)*%
X291525000Y-180310000D03*
%TO.N,Net-(U12-C)*%
X292965000Y-170560000D03*
X292965000Y-180310000D03*
%TO.N,Net-(U12-DP)*%
X294405000Y-180310000D03*
%TO.N,Net-(U12-D)*%
X295005000Y-167180000D03*
X295845000Y-189510000D03*
%TO.N,Net-(U12-E)*%
X293765000Y-164640000D03*
X294405000Y-188910000D03*
%TO.N,Net-(U12-G)*%
X292965000Y-188910000D03*
%TO.N,Net-(U12-F)*%
X291525000Y-189130000D03*
%TO.N,A14*%
X250427600Y-130320000D03*
X250427600Y-142420000D03*
%TO.N,A13*%
X249627600Y-131520000D03*
X276185000Y-78310000D03*
X249627600Y-144664000D03*
X285365000Y-87740000D03*
X269955000Y-78310000D03*
%TO.N,A12*%
X276975000Y-75770000D03*
X248665000Y-141820000D03*
X288305000Y-86220000D03*
X246965000Y-137664000D03*
X288305000Y-87020000D03*
%TO.N,A9*%
X279065000Y-122700000D03*
X236074200Y-145877500D03*
X279065000Y-94440000D03*
X269072500Y-77210000D03*
%TO.N,A8*%
X283445000Y-89660000D03*
X283445000Y-123534300D03*
X233029800Y-145877500D03*
X276235000Y-91900000D03*
%TO.N,A3*%
X254115000Y-91010000D03*
X275205000Y-136757500D03*
X291425000Y-98000000D03*
X293552500Y-99220000D03*
X286185000Y-136757500D03*
X286185000Y-98000000D03*
%TO.N,A0*%
X276287500Y-106640000D03*
X245259300Y-96930000D03*
X230705000Y-154310000D03*
X267585000Y-135957500D03*
X251632500Y-104950000D03*
X276025000Y-135957500D03*
X246905000Y-155090000D03*
X253832500Y-135957500D03*
%TO.N,CLK*%
X229385000Y-156410000D03*
%TO.N,!WR*%
X287447500Y-86920000D03*
X287447500Y-120590000D03*
X234642500Y-116410000D03*
%TO.N,!RD*%
X224205000Y-121490000D03*
X226145000Y-123210000D03*
X275487500Y-98920000D03*
X249932500Y-126197500D03*
%TO.N,RX2*%
X219105000Y-98630000D03*
%TO.N,Net-(U16-INTR)*%
X217425000Y-98630000D03*
%TO.N,IO8*%
X228145000Y-125110000D03*
%TO.N,IO6*%
X222505000Y-150510000D03*
%TO.N,IO5*%
X217990700Y-151710000D03*
%TO.N,A10*%
X239118500Y-145877500D03*
%TO.N,Net-(U10-~{NMI})*%
X252027600Y-113870000D03*
%TO.N,Net-(U5-Q3)*%
X234801400Y-205385000D03*
X283655000Y-201035000D03*
X283855000Y-208676600D03*
X283655000Y-196701600D03*
X235101400Y-196701600D03*
X235101400Y-201043300D03*
X234801400Y-209726600D03*
X283655000Y-205368300D03*
X269285000Y-167330000D03*
%TO.N,Net-(U5-Q4)*%
X277637100Y-196701600D03*
X277637100Y-209701600D03*
X228583500Y-205385000D03*
X228583500Y-201043300D03*
X228583500Y-196701600D03*
X277637100Y-205368300D03*
X277637100Y-201214200D03*
X268917800Y-164790000D03*
X227983500Y-209726600D03*
%TO.N,Net-(J2-Pin_7)*%
X208102400Y-192772500D03*
%TO.N,!RESET*%
X235865000Y-184520000D03*
X236335000Y-112770000D03*
%TO.N,A1*%
X254225000Y-96090000D03*
X211427100Y-145877500D03*
X277887500Y-102480000D03*
X276425000Y-139620000D03*
X254225000Y-100810000D03*
%TO.N,Net-(U5-Q5)*%
X223865700Y-205385000D03*
X271419200Y-209701600D03*
X223865700Y-196701600D03*
X271419200Y-196701600D03*
X223865700Y-201043300D03*
X223865700Y-209726600D03*
X272619200Y-201035000D03*
X271419200Y-205368300D03*
X268317800Y-163090000D03*
%TO.N,!INT*%
X302081000Y-145922500D03*
X302081000Y-119197500D03*
X235242500Y-117850000D03*
X235242500Y-122300000D03*
X259045000Y-122700000D03*
X259045000Y-111330000D03*
%TO.N,A2*%
X252425000Y-96930000D03*
X215985000Y-108790000D03*
X274887500Y-100540000D03*
X216139800Y-143464000D03*
X252425000Y-107690000D03*
X256515000Y-97190000D03*
%TO.N,RX1*%
X244659300Y-94990000D03*
X226692500Y-94990000D03*
X226745000Y-159410000D03*
X212182400Y-159410000D03*
%TO.N,!M1*%
X243025000Y-71530000D03*
%TO.N,IO3*%
X240625000Y-112170000D03*
X232642500Y-112249300D03*
%TO.N,IO2*%
X248682500Y-129720000D03*
%TO.N,A15*%
X255115000Y-124997500D03*
X255115000Y-134357500D03*
X255115000Y-129757500D03*
X254340300Y-145877500D03*
X291525000Y-126950000D03*
X293831000Y-126950000D03*
X245025000Y-136700000D03*
X255115000Y-81690000D03*
%TO.N,Net-(U11-D0)*%
X247805000Y-211226600D03*
%TO.N,BANK_0*%
X275191500Y-174550000D03*
X282692100Y-144864100D03*
X293655000Y-144864100D03*
X293655000Y-132150000D03*
%TO.N,Net-(D8-A)*%
X275191500Y-169590000D03*
%TO.N,Net-(D11-A)*%
X275191500Y-167110000D03*
%TO.N,Net-(D14-A)*%
X275191500Y-164630000D03*
%TO.N,Net-(D17-A)*%
X275191500Y-162150000D03*
%TO.N,Net-(D20-A)*%
X275191500Y-159670000D03*
%TO.N,Net-(D23-A)*%
X275191500Y-157190000D03*
%TO.N,IO4*%
X262100000Y-152110000D03*
X262100000Y-153530000D03*
%TO.N,D7*%
X268605000Y-156060000D03*
X278695100Y-145877500D03*
X274287500Y-105620000D03*
X274287500Y-123100000D03*
X267585000Y-123100000D03*
X280690000Y-155920000D03*
X253425000Y-102910000D03*
X290825000Y-121900000D03*
%TO.N,D6*%
X275650700Y-145877500D03*
X280290000Y-159660000D03*
X271745000Y-127197500D03*
X294252500Y-77040000D03*
%TO.N,D4*%
X267717700Y-144064000D03*
X260265000Y-88470000D03*
X260985000Y-144064000D03*
X266272500Y-110230000D03*
X260265000Y-109430000D03*
X279909300Y-163640000D03*
%TO.N,D3*%
X266517700Y-145877500D03*
X266517700Y-163690000D03*
X277618500Y-166080000D03*
X262100000Y-163690000D03*
X300435000Y-71640000D03*
X263725000Y-127797500D03*
X257455000Y-91010000D03*
X257455000Y-82290000D03*
%TO.N,D2*%
X258445000Y-101170000D03*
X257984600Y-168645000D03*
X258445000Y-143464000D03*
X258445000Y-106890000D03*
X263181000Y-143464000D03*
X263181000Y-145877500D03*
X279909300Y-168620000D03*
X301035000Y-73440000D03*
X257645000Y-79550000D03*
%TO.N,D1*%
X259700000Y-171300000D03*
X296452500Y-109580000D03*
X260429000Y-145877500D03*
X267672500Y-109590000D03*
X260985000Y-108790000D03*
X279909300Y-171160000D03*
%TO.N,D0*%
X257384600Y-145877500D03*
X289675000Y-107680000D03*
X257755000Y-173725000D03*
X256115000Y-139620000D03*
X277618500Y-173800000D03*
X248483500Y-73230000D03*
X256115000Y-106250000D03*
%TO.N,A11*%
X277745000Y-126397500D03*
X242162900Y-145877500D03*
X270755000Y-73230000D03*
X291425000Y-92700000D03*
X279265000Y-91100000D03*
%TO.N,Net-(U5-Q1)*%
X246637100Y-201043300D03*
X246637100Y-209726600D03*
X246637100Y-205385000D03*
X296290700Y-209701600D03*
X296290700Y-196701600D03*
X246637100Y-196701600D03*
X296290700Y-205368300D03*
X295265700Y-199793300D03*
X260783500Y-199493300D03*
X246637100Y-198201600D03*
%TO.N,Net-(U11-D2)*%
X252187100Y-202343300D03*
%TO.N,D5*%
X262505000Y-118650000D03*
X273982400Y-144664000D03*
X257845000Y-118650000D03*
X257045000Y-93550000D03*
X272105000Y-156014100D03*
X272606400Y-145877500D03*
X277599400Y-161000000D03*
%TO.N,Net-(U11-D5)*%
X250787100Y-207535000D03*
%TO.N,Net-(U5-Q2)*%
X290672800Y-205368300D03*
X290872800Y-209701600D03*
X241219200Y-209726600D03*
X241319200Y-201043300D03*
X290872800Y-196701600D03*
X241319200Y-196701600D03*
X241219200Y-205385000D03*
X290872800Y-201035000D03*
X258725000Y-194851600D03*
%TO.N,Net-(U11-D4)*%
X241719200Y-211876600D03*
X243505000Y-176380000D03*
X256880000Y-176980000D03*
X256080000Y-167000000D03*
%TO.N,Net-(U11-D6)*%
X254955000Y-203168300D03*
%TO.N,!HALT*%
X271745000Y-117450000D03*
X304612500Y-117450000D03*
X307714300Y-145922500D03*
X234945000Y-115310000D03*
%TO.N,!MREQ*%
X292255000Y-147136000D03*
X292255000Y-127900000D03*
X275191500Y-172360000D03*
X281292100Y-150046900D03*
X221895000Y-137500000D03*
%TO.N,Net-(U11-D1)*%
X244105000Y-206710000D03*
%TO.N,Net-(U5-Q6)*%
X265201400Y-196701600D03*
X216147800Y-205385000D03*
X216147800Y-201043300D03*
X216147800Y-196701600D03*
X265201400Y-205368300D03*
X217147800Y-209726600D03*
X265201400Y-210626600D03*
X265201400Y-201035000D03*
%TO.N,Net-(U11-D7)*%
X254680000Y-198826600D03*
%TO.N,Net-(U5-Q0)*%
X253455000Y-205360000D03*
X303108500Y-201035000D03*
X303308500Y-209701600D03*
X303308500Y-196701600D03*
X255280000Y-196676600D03*
X253655000Y-209701600D03*
X253455000Y-201018300D03*
X303308500Y-205368300D03*
X255280000Y-176380000D03*
%TO.N,5V*%
X296447600Y-148897500D03*
X296447600Y-130749400D03*
X284290000Y-179310000D03*
X304412500Y-130749400D03*
X296405000Y-179310000D03*
X306350000Y-128049400D03*
X226305000Y-82290000D03*
X253232500Y-133699000D03*
X253232500Y-105750000D03*
X253032500Y-152353300D03*
X232842500Y-106290000D03*
X224805000Y-115110000D03*
X258584700Y-153820000D03*
X262532500Y-98630000D03*
%TO.N,A4*%
X256655000Y-89910000D03*
X275687500Y-94640000D03*
X265885000Y-150066000D03*
X265885000Y-179910000D03*
X223604400Y-149910000D03*
X223604400Y-145877500D03*
X277050800Y-150066000D03*
%TO.N,A5*%
X259645000Y-89110000D03*
X228785000Y-147091000D03*
X228785000Y-155110000D03*
X259645000Y-85630000D03*
%TO.N,A6*%
X284245000Y-91300000D03*
X261735000Y-82590000D03*
X277265000Y-88860000D03*
X283292100Y-177710000D03*
%TO.N,A7*%
X267117700Y-147539100D03*
X275585000Y-78950000D03*
X285365000Y-147539100D03*
X285985000Y-88660000D03*
%TO.N,Net-(U4-~{E1})*%
X237520000Y-183920000D03*
%TO.N,!IORQ*%
X273206500Y-143677500D03*
X284890000Y-180210000D03*
X285965000Y-143677500D03*
X223605000Y-124010000D03*
%TO.N,GND*%
X302749400Y-128850000D03*
X302749400Y-134050000D03*
X286610000Y-150710000D03*
X241425000Y-111330000D03*
X251305000Y-193010000D03*
X296830000Y-150710000D03*
X251305000Y-148952500D03*
X236074200Y-148852500D03*
X257425000Y-144664000D03*
X269269700Y-145877500D03*
X269269700Y-148852500D03*
X232842500Y-121490000D03*
X232325000Y-141720000D03*
X241425000Y-102610000D03*
X219184100Y-150066000D03*
%TO.N,IO1*%
X234865000Y-136700000D03*
X234865000Y-138720000D03*
%TO.N,Net-(U11-D3)*%
X260183500Y-198851600D03*
%TO.N,Net-(U5-Q7)*%
X258983500Y-209701600D03*
X209930000Y-201043300D03*
X209930000Y-205385000D03*
X210130000Y-209726600D03*
X258983500Y-204335000D03*
X258983500Y-196701600D03*
X210130000Y-196701600D03*
X258983500Y-201035000D03*
X267717800Y-158810000D03*
X267717800Y-179810000D03*
X263805000Y-180810000D03*
X263151400Y-196701600D03*
%TD*%
%TO.N,Net-(U17-RCLK)*%
D29*
X227292500Y-107690000D02*
X228392500Y-108790000D01*
X227292500Y-94650000D02*
X227292500Y-107690000D01*
X228392500Y-93550000D02*
X227292500Y-94650000D01*
%TO.N,Net-(U16-RCLK)*%
X244059300Y-106066800D02*
X246782500Y-108790000D01*
X244059300Y-94060300D02*
X244059300Y-106066800D01*
X244569600Y-93550000D02*
X244059300Y-94060300D01*
%TO.N,Net-(U10-~{BUSREQ})*%
X251040100Y-111330000D02*
X249932500Y-111330000D01*
X252627600Y-112917500D02*
X251040100Y-111330000D01*
X252627600Y-145177500D02*
X252627600Y-112917500D01*
X249452600Y-148352500D02*
X252627600Y-145177500D01*
X243695000Y-148352500D02*
X249452600Y-148352500D01*
X240520000Y-151527500D02*
X243695000Y-148352500D01*
X240520000Y-186122500D02*
X240520000Y-151527500D01*
X238932500Y-187710000D02*
X240520000Y-186122500D01*
X232815000Y-187710000D02*
X238932500Y-187710000D01*
X230505000Y-190020000D02*
X232815000Y-187710000D01*
%TO.N,Net-(U14-A)*%
X300410000Y-175900000D02*
X299310000Y-174800000D01*
X300410000Y-178785000D02*
X300410000Y-175900000D01*
X300285000Y-178910000D02*
X300410000Y-178785000D01*
%TO.N,Net-(U14-B)*%
X301725000Y-174675000D02*
X299310000Y-172260000D01*
X301725000Y-180310000D02*
X301725000Y-174675000D01*
%TO.N,Net-(U14-C)*%
X303165000Y-173575000D02*
X299310000Y-169720000D01*
X303165000Y-180310000D02*
X303165000Y-173575000D01*
%TO.N,Net-(U14-DP)*%
X304765000Y-162475000D02*
X299310000Y-157020000D01*
X304765000Y-179510000D02*
X304765000Y-162475000D01*
%TO.N,Net-(U14-D)*%
X305605000Y-187870000D02*
X306045000Y-188310000D01*
X305605000Y-167180000D02*
X305605000Y-187870000D01*
%TO.N,Net-(U14-E)*%
X303765000Y-169095000D02*
X299310000Y-164640000D01*
X303765000Y-186270000D02*
X303765000Y-169095000D01*
X304605000Y-187110000D02*
X303765000Y-186270000D01*
%TO.N,Net-(U14-G)*%
X304165000Y-164415000D02*
X299310000Y-159560000D01*
X304165000Y-182390000D02*
X304165000Y-164415000D01*
X305205000Y-183430000D02*
X304165000Y-182390000D01*
X305205000Y-187916200D02*
X305205000Y-183430000D01*
X304411300Y-188710000D02*
X305205000Y-187916200D01*
X303165000Y-188710000D02*
X304411300Y-188710000D01*
%TO.N,Net-(U14-F)*%
X297931000Y-163479100D02*
X299310000Y-162100000D01*
X297931000Y-185715900D02*
X297931000Y-163479100D01*
X301725000Y-189510000D02*
X297931000Y-185715900D01*
%TO.N,Net-(IC1-X2)*%
X254280000Y-182735000D02*
X252105000Y-184910000D01*
X254280000Y-176776900D02*
X254280000Y-182735000D01*
X253883100Y-176380000D02*
X254280000Y-176776900D01*
X252275000Y-176380000D02*
X253883100Y-176380000D01*
X251305000Y-175410000D02*
X252275000Y-176380000D01*
%TO.N,Net-(IC1-X1)*%
X250205000Y-179050000D02*
X250205000Y-184910000D01*
X251305000Y-177950000D02*
X250205000Y-179050000D01*
%TO.N,Net-(U12-A)*%
X290310000Y-175900000D02*
X289210000Y-174800000D01*
X290310000Y-180085000D02*
X290310000Y-175900000D01*
X290085000Y-180310000D02*
X290310000Y-180085000D01*
%TO.N,Net-(U12-B)*%
X291525000Y-174575000D02*
X289210000Y-172260000D01*
X291525000Y-180310000D02*
X291525000Y-174575000D01*
%TO.N,Net-(U12-C)*%
X292965000Y-170560000D02*
X292965000Y-180310000D01*
%TO.N,Net-(U12-DP)*%
X294405000Y-162215000D02*
X289210000Y-157020000D01*
X294405000Y-180310000D02*
X294405000Y-162215000D01*
%TO.N,Net-(U12-D)*%
X295005000Y-188670000D02*
X295845000Y-189510000D01*
X295005000Y-167180000D02*
X295005000Y-188670000D01*
%TO.N,Net-(U12-E)*%
X293765000Y-188270000D02*
X294405000Y-188910000D01*
X293765000Y-164640000D02*
X293765000Y-188270000D01*
%TO.N,Net-(U12-G)*%
X292125000Y-162475000D02*
X289210000Y-159560000D01*
X292125000Y-188070000D02*
X292125000Y-162475000D01*
X292965000Y-188910000D02*
X292125000Y-188070000D01*
%TO.N,Net-(U12-F)*%
X287711000Y-163599100D02*
X289210000Y-162100000D01*
X287711000Y-185316000D02*
X287711000Y-163599100D01*
X291525000Y-189130000D02*
X287711000Y-185316000D01*
%TO.N,A14*%
X250427600Y-130320000D02*
X250427600Y-142420000D01*
X282168900Y-82760000D02*
X282055000Y-82760000D01*
X285730000Y-82760000D02*
X282168900Y-82760000D01*
X288905000Y-85935000D02*
X285730000Y-82760000D01*
X288905000Y-113380000D02*
X288905000Y-85935000D01*
X289325000Y-113800000D02*
X288905000Y-113380000D01*
X289325000Y-137998900D02*
X289325000Y-113800000D01*
X290445000Y-139118900D02*
X289325000Y-137998900D01*
X290445000Y-139257500D02*
X290445000Y-139118900D01*
X281747500Y-82760000D02*
X282055000Y-82760000D01*
X282055000Y-70105000D02*
X282055000Y-82760000D01*
%TO.N,A13*%
X249627600Y-131520000D02*
X249627600Y-144664000D01*
X284445000Y-86820000D02*
X285365000Y-87740000D01*
X279360000Y-86820000D02*
X284445000Y-86820000D01*
X276185000Y-83645000D02*
X279360000Y-86820000D01*
X276185000Y-78310000D02*
X276185000Y-83645000D01*
X271542500Y-87840000D02*
X271587500Y-87840000D01*
X269955000Y-86252500D02*
X271542500Y-87840000D01*
X269955000Y-78310000D02*
X269955000Y-86252500D01*
X285365000Y-129097500D02*
X285365000Y-87740000D01*
%TO.N,A12*%
X248665000Y-139364100D02*
X246965000Y-137664000D01*
X248665000Y-141820000D02*
X248665000Y-139364100D01*
X276975000Y-75770000D02*
X276975000Y-70105000D01*
X287385000Y-85300000D02*
X288305000Y-86220000D01*
X281747500Y-85300000D02*
X287385000Y-85300000D01*
X276975000Y-82125000D02*
X276975000Y-75770000D01*
X280150000Y-85300000D02*
X276975000Y-82125000D01*
X281747500Y-85300000D02*
X280150000Y-85300000D01*
X288305000Y-118880000D02*
X288305000Y-87020000D01*
X288925000Y-119500000D02*
X288305000Y-118880000D01*
X288925000Y-138463800D02*
X288925000Y-119500000D01*
X288131300Y-139257500D02*
X288925000Y-138463800D01*
X287905000Y-139257500D02*
X288131300Y-139257500D01*
%TO.N,A9*%
X279858800Y-129097500D02*
X280285000Y-129097500D01*
X279065000Y-128303800D02*
X279858800Y-129097500D01*
X279065000Y-122700000D02*
X279065000Y-128303800D01*
X236074200Y-134795400D02*
X236074200Y-145877500D01*
X237065000Y-133804600D02*
X236074200Y-134795400D01*
X237065000Y-126640000D02*
X237065000Y-133804600D01*
X238505000Y-125200000D02*
X237065000Y-126640000D01*
X279065000Y-122700000D02*
X279065000Y-94440000D01*
X269072500Y-91332500D02*
X269072500Y-77210000D01*
X270660000Y-92920000D02*
X269072500Y-91332500D01*
X271587500Y-92920000D02*
X270660000Y-92920000D01*
%TO.N,A8*%
X282825000Y-124154300D02*
X282825000Y-129097500D01*
X283445000Y-123534300D02*
X282825000Y-124154300D01*
X233425000Y-145482300D02*
X233029800Y-145877500D01*
X233425000Y-134850000D02*
X233425000Y-145482300D01*
X234525000Y-133750000D02*
X233425000Y-134850000D01*
X234525000Y-126640000D02*
X234525000Y-133750000D01*
X235965000Y-125200000D02*
X234525000Y-126640000D01*
X282253800Y-91900000D02*
X276235000Y-91900000D01*
X283047500Y-91106300D02*
X282253800Y-91900000D01*
X283047500Y-90057500D02*
X283047500Y-91106300D01*
X283445000Y-89660000D02*
X283047500Y-90057500D01*
X272093800Y-90380000D02*
X271587500Y-90380000D01*
X272887500Y-89586300D02*
X272093800Y-90380000D01*
X272887500Y-74217500D02*
X272887500Y-89586300D01*
X271300000Y-72630000D02*
X272887500Y-74217500D01*
X269340000Y-72630000D02*
X271300000Y-72630000D01*
X266815000Y-70105000D02*
X269340000Y-72630000D01*
X283445000Y-89660000D02*
X283445000Y-123534300D01*
%TO.N,A3*%
X275205000Y-136757500D02*
X275205000Y-139257500D01*
X292218800Y-99220000D02*
X293552500Y-99220000D01*
X291425000Y-98426200D02*
X292218800Y-99220000D01*
X291425000Y-98000000D02*
X291425000Y-98426200D01*
X286385000Y-98200000D02*
X286185000Y-98000000D01*
X286385000Y-136557500D02*
X286385000Y-98200000D01*
X286185000Y-136757500D02*
X286385000Y-136557500D01*
X254115000Y-91010000D02*
X254115000Y-70105000D01*
%TO.N,A0*%
X235285000Y-154310000D02*
X230705000Y-154310000D01*
X236065000Y-155090000D02*
X235285000Y-154310000D01*
X245259300Y-71340700D02*
X246495000Y-70105000D01*
X245259300Y-96930000D02*
X245259300Y-71340700D01*
X267585000Y-135957500D02*
X267585000Y-139257500D01*
X245859400Y-97530000D02*
X245259300Y-96930000D01*
X248832500Y-97530000D02*
X245859400Y-97530000D01*
X249932500Y-98630000D02*
X248832500Y-97530000D01*
X251632500Y-100330000D02*
X251632500Y-104950000D01*
X249932500Y-98630000D02*
X251632500Y-100330000D01*
X276225000Y-135757500D02*
X276025000Y-135957500D01*
X276225000Y-106702500D02*
X276225000Y-135757500D01*
X276287500Y-106640000D02*
X276225000Y-106702500D01*
X253632500Y-136157500D02*
X253832500Y-135957500D01*
X253632500Y-152725300D02*
X253632500Y-136157500D01*
X252838800Y-153519100D02*
X253632500Y-152725300D01*
X248476000Y-153519100D02*
X252838800Y-153519100D01*
X246905000Y-155090000D02*
X248476000Y-153519100D01*
%TO.N,CLK*%
X229385000Y-124093800D02*
X229385000Y-156410000D01*
X230178800Y-123300000D02*
X229385000Y-124093800D01*
X236850000Y-123300000D02*
X230178800Y-123300000D01*
X240025000Y-120125000D02*
X236850000Y-123300000D01*
X240025000Y-71495000D02*
X240025000Y-120125000D01*
X241415000Y-70105000D02*
X240025000Y-71495000D01*
X263520000Y-85930000D02*
X265172500Y-85930000D01*
X260345000Y-82755000D02*
X263520000Y-85930000D01*
X260345000Y-69348800D02*
X260345000Y-82755000D01*
X259551300Y-68555000D02*
X260345000Y-69348800D01*
X242965000Y-68555000D02*
X259551300Y-68555000D01*
X241415000Y-70105000D02*
X242965000Y-68555000D01*
%TO.N,!WR*%
X233839400Y-116410000D02*
X234642500Y-116410000D01*
X233442500Y-116013100D02*
X233839400Y-116410000D01*
X233442500Y-115710000D02*
X233442500Y-116013100D01*
X233042500Y-115310000D02*
X233442500Y-115710000D01*
X229492500Y-115310000D02*
X233042500Y-115310000D01*
X228392500Y-116410000D02*
X229492500Y-115310000D01*
X287905000Y-121047500D02*
X287447500Y-120590000D01*
X287905000Y-129097500D02*
X287905000Y-121047500D01*
X287447500Y-86920000D02*
X287447500Y-120590000D01*
X235445000Y-157010000D02*
X236065000Y-157630000D01*
X228732500Y-157010000D02*
X235445000Y-157010000D01*
X227145000Y-155422500D02*
X228732500Y-157010000D01*
X227145000Y-117657500D02*
X227145000Y-155422500D01*
X228392500Y-116410000D02*
X227145000Y-117657500D01*
X230739100Y-72129100D02*
X228715000Y-70105000D01*
X232648800Y-72129100D02*
X230739100Y-72129100D01*
X233442500Y-72922800D02*
X232648800Y-72129100D01*
X233442500Y-114910000D02*
X233442500Y-72922800D01*
X233042500Y-115310000D02*
X233442500Y-114910000D01*
%TO.N,!RD*%
X225792500Y-123210000D02*
X226145000Y-123210000D01*
X224205000Y-121622500D02*
X225792500Y-123210000D01*
X224205000Y-121490000D02*
X224205000Y-121622500D01*
X249932500Y-121490000D02*
X249932500Y-126197500D01*
X275487500Y-126456200D02*
X275487500Y-98920000D01*
X275205000Y-126738800D02*
X275487500Y-126456200D01*
X275205000Y-129097500D02*
X275205000Y-126738800D01*
X227732500Y-162710000D02*
X236065000Y-162710000D01*
X226145000Y-161122500D02*
X227732500Y-162710000D01*
X226145000Y-123210000D02*
X226145000Y-161122500D01*
X226175000Y-75505000D02*
X226175000Y-70105000D01*
X224205000Y-77475000D02*
X226175000Y-75505000D01*
X224205000Y-121490000D02*
X224205000Y-77475000D01*
%TO.N,RX2*%
X216015000Y-82585000D02*
X216015000Y-70105000D01*
X219105000Y-85675000D02*
X216015000Y-82585000D01*
X219105000Y-98630000D02*
X219105000Y-85675000D01*
%TO.N,Net-(U16-MR)*%
X214885000Y-87662500D02*
X214885000Y-125110000D01*
X213152500Y-85930000D02*
X214885000Y-87662500D01*
%TO.N,Net-(U16-INTR)*%
X217425000Y-98630000D02*
X217425000Y-125110000D01*
%TO.N,IO8*%
X238875000Y-119725000D02*
X238875000Y-70105000D01*
X235700000Y-122900000D02*
X238875000Y-119725000D01*
X228938800Y-122900000D02*
X235700000Y-122900000D01*
X228145000Y-123693800D02*
X228938800Y-122900000D01*
X228145000Y-125110000D02*
X228145000Y-123693800D01*
%TO.N,IO6*%
X222505000Y-150510000D02*
X222505000Y-132730000D01*
%TO.N,IO5*%
X217425000Y-151144300D02*
X217425000Y-132730000D01*
X217990700Y-151710000D02*
X217425000Y-151144300D01*
%TO.N,A10*%
X238505000Y-145264000D02*
X239118500Y-145877500D01*
X238505000Y-134850000D02*
X238505000Y-145264000D01*
X239605000Y-133750000D02*
X238505000Y-134850000D01*
X239605000Y-126640000D02*
X239605000Y-133750000D01*
X241045000Y-125200000D02*
X239605000Y-126640000D01*
X272665000Y-121611200D02*
X272665000Y-129097500D01*
X273287500Y-120988700D02*
X272665000Y-121611200D01*
X273287500Y-101333800D02*
X273287500Y-120988700D01*
X272493800Y-100540000D02*
X273287500Y-101333800D01*
X271587500Y-100540000D02*
X272493800Y-100540000D01*
X271081300Y-100540000D02*
X271587500Y-100540000D01*
X270287500Y-99746300D02*
X271081300Y-100540000D01*
X270287500Y-94836900D02*
X270287500Y-99746300D01*
X270684400Y-94440000D02*
X270287500Y-94836900D01*
X272493800Y-94440000D02*
X270684400Y-94440000D01*
X273287500Y-93646300D02*
X272493800Y-94440000D01*
X273287500Y-73023800D02*
X273287500Y-93646300D01*
X272493800Y-72230000D02*
X273287500Y-73023800D01*
X272291900Y-72230000D02*
X272493800Y-72230000D01*
X271895000Y-71833100D02*
X272291900Y-72230000D01*
X271895000Y-70105000D02*
X271895000Y-71833100D01*
%TO.N,Net-(U10-~{NMI})*%
X226455000Y-191761200D02*
X226455000Y-190020000D01*
X226032400Y-192183800D02*
X226455000Y-191761200D01*
X226032400Y-194675600D02*
X226032400Y-192183800D01*
X226429300Y-195072500D02*
X226032400Y-194675600D01*
X228572400Y-195072500D02*
X226429300Y-195072500D01*
X228572400Y-189685000D02*
X228572400Y-195072500D01*
X231747400Y-186510000D02*
X228572400Y-189685000D01*
X237726300Y-186510000D02*
X231747400Y-186510000D01*
X238520000Y-185716300D02*
X237726300Y-186510000D01*
X238520000Y-151127500D02*
X238520000Y-185716300D01*
X241695000Y-147952500D02*
X238520000Y-151127500D01*
X248852600Y-147952500D02*
X241695000Y-147952500D01*
X252027600Y-144777500D02*
X248852600Y-147952500D01*
X252027600Y-113870000D02*
X252027600Y-144777500D01*
%TO.N,Net-(U5-Q3)*%
X283655000Y-201035000D02*
X283655000Y-205368300D01*
X283655000Y-205368300D02*
X283655000Y-209901600D01*
X283655000Y-201035000D02*
X283655000Y-196701600D01*
X234801400Y-205385000D02*
X234801400Y-209726600D01*
X235101400Y-196701600D02*
X235101400Y-201043300D01*
X235101400Y-205085000D02*
X235101400Y-201043300D01*
X234801400Y-205385000D02*
X235101400Y-205085000D01*
X283655000Y-209901600D02*
X283655000Y-210301600D01*
X283855000Y-210301600D02*
X283655000Y-210301600D01*
X283855000Y-208676600D02*
X283855000Y-210301600D01*
X277140000Y-210301600D02*
X283655000Y-210301600D01*
X273965000Y-207126600D02*
X277140000Y-210301600D01*
X273965000Y-181206900D02*
X273965000Y-207126600D01*
X273568100Y-180810000D02*
X273965000Y-181206900D01*
X270872500Y-180810000D02*
X273568100Y-180810000D01*
X269285000Y-179222500D02*
X270872500Y-180810000D01*
X269285000Y-167330000D02*
X269285000Y-179222500D01*
%TO.N,Net-(U5-Q4)*%
X269885000Y-165757200D02*
X268917800Y-164790000D01*
X269885000Y-178822500D02*
X269885000Y-165757200D01*
X271472500Y-180410000D02*
X269885000Y-178822500D01*
X275711300Y-180410000D02*
X271472500Y-180410000D01*
X276505000Y-181203800D02*
X275711300Y-180410000D01*
X276505000Y-195569500D02*
X276505000Y-181203800D01*
X277637100Y-196701600D02*
X276505000Y-195569500D01*
X277637100Y-205368300D02*
X277637100Y-201214200D01*
X277637100Y-209701600D02*
X277637100Y-205368300D01*
X228583500Y-205385000D02*
X228583500Y-201043300D01*
X228583500Y-201043300D02*
X228583500Y-196701600D01*
X277637100Y-196701600D02*
X277637100Y-201214200D01*
X228583500Y-209126600D02*
X227983500Y-209726600D01*
X228583500Y-205385000D02*
X228583500Y-209126600D01*
%TO.N,Net-(J2-Pin_8)*%
X208502400Y-110615800D02*
X210387200Y-108731000D01*
X208502400Y-174827500D02*
X208502400Y-110615800D01*
X210792400Y-177117500D02*
X208502400Y-174827500D01*
X210792400Y-179706300D02*
X210792400Y-177117500D01*
X209998700Y-180500000D02*
X210792400Y-179706300D01*
X209948800Y-180500000D02*
X209998700Y-180500000D01*
X209155000Y-181293800D02*
X209948800Y-180500000D01*
X209155000Y-191928800D02*
X209155000Y-181293800D01*
X209642400Y-192416200D02*
X209155000Y-191928800D01*
X209642400Y-193922500D02*
X209642400Y-192416200D01*
%TO.N,Net-(J2-Pin_7)*%
X208102400Y-108475800D02*
X210387200Y-106191000D01*
X208102400Y-192772500D02*
X208102400Y-108475800D01*
%TO.N,Net-(J2-Pin_5)*%
X207502400Y-106535800D02*
X210387200Y-103651000D01*
X207502400Y-193714100D02*
X207502400Y-106535800D01*
X209089900Y-195301600D02*
X207502400Y-193714100D01*
X215883300Y-195301600D02*
X209089900Y-195301600D01*
X217262400Y-193922500D02*
X215883300Y-195301600D01*
%TO.N,Net-(J2-Pin_4)*%
X207102400Y-101855800D02*
X210387200Y-98571000D01*
X207102400Y-194114100D02*
X207102400Y-101855800D01*
X208689900Y-195701600D02*
X207102400Y-194114100D01*
X218023300Y-195701600D02*
X208689900Y-195701600D01*
X219802400Y-193922500D02*
X218023300Y-195701600D01*
%TO.N,Net-(J2-Pin_3)*%
X205800000Y-100618200D02*
X210387200Y-96031000D01*
X205800000Y-194514100D02*
X205800000Y-100618200D01*
X207387500Y-196101600D02*
X205800000Y-194514100D01*
X220163300Y-196101600D02*
X207387500Y-196101600D01*
X222342400Y-193922500D02*
X220163300Y-196101600D01*
%TO.N,!RESET*%
X236920000Y-177495000D02*
X236520000Y-177095000D01*
X236920000Y-183465000D02*
X236920000Y-177495000D01*
X235865000Y-184520000D02*
X236920000Y-183465000D01*
X236920000Y-166105000D02*
X236065000Y-165250000D01*
X236920000Y-176695000D02*
X236920000Y-166105000D01*
X236520000Y-177095000D02*
X236920000Y-176695000D01*
X236335000Y-112770000D02*
X236335000Y-70105000D01*
X216272400Y-177095000D02*
X215872400Y-177495000D01*
X236520000Y-177095000D02*
X216272400Y-177095000D01*
X215872400Y-180832600D02*
X214305000Y-182400000D01*
X215872400Y-177495000D02*
X215872400Y-180832600D01*
X215472400Y-177095000D02*
X215872400Y-177495000D01*
X215032500Y-177095000D02*
X215472400Y-177095000D01*
X213445000Y-175507500D02*
X215032500Y-177095000D01*
X213445000Y-126210000D02*
X213445000Y-175507500D01*
X212345000Y-125110000D02*
X213445000Y-126210000D01*
%TO.N,A1*%
X210906000Y-145356400D02*
X211427100Y-145877500D01*
X210906000Y-121705600D02*
X210906000Y-145356400D01*
X211537200Y-121074400D02*
X210906000Y-121705600D01*
X211537200Y-107865300D02*
X211537200Y-121074400D01*
X213152500Y-106250000D02*
X211537200Y-107865300D01*
X251060000Y-72130000D02*
X249035000Y-70105000D01*
X251435600Y-72130000D02*
X251060000Y-72130000D01*
X251832500Y-72526900D02*
X251435600Y-72130000D01*
X251832500Y-89657500D02*
X251832500Y-72526900D01*
X254225000Y-92050000D02*
X251832500Y-89657500D01*
X254225000Y-96090000D02*
X254225000Y-92050000D01*
X254225000Y-96090000D02*
X254225000Y-100810000D01*
X276625000Y-139420000D02*
X276425000Y-139620000D01*
X276625000Y-113131200D02*
X276625000Y-139420000D01*
X277887500Y-111868700D02*
X276625000Y-113131200D01*
X277887500Y-102480000D02*
X277887500Y-111868700D01*
%TO.N,Net-(U5-Q5)*%
X271419200Y-199835000D02*
X272619200Y-201035000D01*
X271419200Y-196701600D02*
X271419200Y-199835000D01*
X271419200Y-202235000D02*
X271419200Y-205368300D01*
X272619200Y-201035000D02*
X271419200Y-202235000D01*
X271419200Y-209701600D02*
X271419200Y-205368300D01*
X223865700Y-205385000D02*
X223865700Y-209726600D01*
X223865700Y-205385000D02*
X223865700Y-201043300D01*
X223865700Y-196701600D02*
X223865700Y-201043300D01*
X268317800Y-173326400D02*
X268317800Y-163090000D01*
X268885000Y-173893600D02*
X268317800Y-173326400D01*
X268885000Y-194167400D02*
X268885000Y-173893600D01*
X271419200Y-196701600D02*
X268885000Y-194167400D01*
%TO.N,!INT*%
X302081000Y-145922500D02*
X302081000Y-119197500D01*
X235242500Y-117850000D02*
X235242500Y-122300000D01*
X259045000Y-122700000D02*
X259045000Y-111330000D01*
X230105000Y-68955000D02*
X231255000Y-70105000D01*
X220341900Y-68955000D02*
X230105000Y-68955000D01*
X219945000Y-69351900D02*
X220341900Y-68955000D01*
X219945000Y-125090000D02*
X219945000Y-69351900D01*
X219965000Y-125110000D02*
X219945000Y-125090000D01*
X227334100Y-167790000D02*
X236065000Y-167790000D01*
X220984100Y-161440000D02*
X227334100Y-167790000D01*
X220984100Y-150666000D02*
X220984100Y-161440000D01*
X218584100Y-148266000D02*
X220984100Y-150666000D01*
X218584100Y-126490900D02*
X218584100Y-148266000D01*
X219965000Y-125110000D02*
X218584100Y-126490900D01*
%TO.N,A2*%
X215985000Y-143309200D02*
X216139800Y-143464000D01*
X215985000Y-108790000D02*
X215985000Y-143309200D01*
X252425000Y-96042500D02*
X249932500Y-93550000D01*
X252425000Y-96930000D02*
X252425000Y-96042500D01*
X252425000Y-96930000D02*
X252425000Y-107690000D01*
X252725000Y-68955000D02*
X251575000Y-70105000D01*
X254868100Y-68955000D02*
X252725000Y-68955000D01*
X255265000Y-69351900D02*
X254868100Y-68955000D01*
X255265000Y-76065000D02*
X255265000Y-69351900D01*
X255715000Y-76515000D02*
X255265000Y-76065000D01*
X255715000Y-96390000D02*
X255715000Y-76515000D01*
X256515000Y-97190000D02*
X255715000Y-96390000D01*
X272893800Y-139257500D02*
X272665000Y-139257500D01*
X273687500Y-138463800D02*
X272893800Y-139257500D01*
X273687500Y-101740000D02*
X273687500Y-138463800D01*
X274887500Y-100540000D02*
X273687500Y-101740000D01*
%TO.N,RX1*%
X245453100Y-98630000D02*
X246782500Y-98630000D01*
X244659300Y-97836300D02*
X245453100Y-98630000D01*
X244659300Y-94990000D02*
X244659300Y-97836300D01*
X226745000Y-95042500D02*
X226745000Y-159410000D01*
X226692500Y-94990000D02*
X226745000Y-95042500D01*
X212182400Y-159410000D02*
X212182400Y-178722500D01*
%TO.N,!M1*%
X246200000Y-109890000D02*
X247482500Y-109890000D01*
X243025000Y-106715000D02*
X246200000Y-109890000D01*
X243025000Y-71530000D02*
X243025000Y-106715000D01*
X247882500Y-110290000D02*
X247482500Y-109890000D01*
X247882500Y-128721200D02*
X247882500Y-110290000D01*
X244685000Y-131918700D02*
X247882500Y-128721200D01*
X244685000Y-133750000D02*
X244685000Y-131918700D01*
X243585000Y-134850000D02*
X244685000Y-133750000D01*
X243585000Y-145683800D02*
X243585000Y-134850000D01*
X242791300Y-146477500D02*
X243585000Y-145683800D01*
X241532500Y-146477500D02*
X242791300Y-146477500D01*
X239945000Y-144890000D02*
X241532500Y-146477500D01*
X239945000Y-143020000D02*
X239945000Y-144890000D01*
X247882500Y-108300000D02*
X249932500Y-106250000D01*
X247882500Y-109490000D02*
X247882500Y-108300000D01*
X247482500Y-109890000D02*
X247882500Y-109490000D01*
%TO.N,IO3*%
X229785000Y-140480000D02*
X232325000Y-143020000D01*
X229785000Y-124493800D02*
X229785000Y-140480000D01*
X230578800Y-123700000D02*
X229785000Y-124493800D01*
X237450000Y-123700000D02*
X230578800Y-123700000D01*
X240625000Y-120525000D02*
X237450000Y-123700000D01*
X240625000Y-112170000D02*
X240625000Y-120525000D01*
X229832500Y-107690000D02*
X228392500Y-106250000D01*
X232245600Y-107690000D02*
X229832500Y-107690000D01*
X232642500Y-108086900D02*
X232245600Y-107690000D01*
X232642500Y-112249300D02*
X232642500Y-108086900D01*
%TO.N,IO2*%
X247882500Y-105150000D02*
X246782500Y-106250000D01*
X250635600Y-105150000D02*
X247882500Y-105150000D01*
X251032500Y-105546900D02*
X250635600Y-105150000D01*
X251032500Y-109436300D02*
X251032500Y-105546900D01*
X250238800Y-110230000D02*
X251032500Y-109436300D01*
X249476300Y-110230000D02*
X250238800Y-110230000D01*
X248682500Y-111023800D02*
X249476300Y-110230000D01*
X248682500Y-129720000D02*
X248682500Y-111023800D01*
D30*
X248682500Y-129720000D02*
X248682499Y-129720000D01*
X248682499Y-129720000D01*
X248682499Y-129720000D01*
X248682499Y-129720000D01*
X248682499Y-129720000D01*
X248682499Y-129720000D01*
X248682499Y-129720000D01*
X248682499Y-129719999D01*
X248682499Y-129719999D01*
X248682499Y-129719999D01*
X248682499Y-129719999D01*
X248682499Y-129719999D01*
X248682500Y-129719999D01*
X248682500Y-129719999D01*
X248682500Y-129719999D01*
X248682500Y-129719999D01*
X248682500Y-129719999D01*
X248682500Y-129719999D01*
X248682500Y-129719999D01*
X248682500Y-129719999D01*
X248682500Y-129719999D01*
X248682500Y-129719999D01*
X248682500Y-129719999D01*
X248682500Y-129719999D01*
X248682501Y-129719999D01*
X248682501Y-129719999D01*
X248682501Y-129719999D01*
X248682501Y-129719999D01*
X248682501Y-129719999D01*
X248682501Y-129719999D01*
X248682501Y-129720000D01*
X248682501Y-129720000D01*
X248682501Y-129720000D01*
X248682501Y-129720000D01*
X248682501Y-129720000D01*
X248682501Y-129720000D01*
X248682501Y-129720000D01*
X248682500Y-129720000D01*
X248682500Y-129720000D02*
X248682501Y-129720000D01*
X248682501Y-129720000D01*
X248682501Y-129720000D01*
X248682501Y-129720000D01*
X248682501Y-129720000D01*
X248682501Y-129720000D01*
X248682501Y-129720001D01*
X248682501Y-129720001D01*
X248682501Y-129720001D01*
X248682501Y-129720001D01*
X248682501Y-129720001D01*
X248682501Y-129720001D01*
X248682501Y-129720001D01*
X248682500Y-129720001D01*
X248682500Y-129720001D01*
X248682500Y-129720001D01*
X248682500Y-129720001D01*
X248682500Y-129720001D01*
X248682500Y-129720001D01*
X248682500Y-129720001D01*
X248682500Y-129720001D01*
X248682500Y-129720001D01*
X248682500Y-129720001D01*
X248682500Y-129720001D01*
X248682500Y-129720001D01*
X248682499Y-129720001D01*
X248682499Y-129720001D01*
X248682499Y-129720001D01*
X248682499Y-129720001D01*
X248682499Y-129720001D01*
X248682499Y-129720001D01*
X248682499Y-129720000D01*
X248682499Y-129720000D01*
X248682499Y-129720000D01*
X248682499Y-129720000D01*
X248682499Y-129720000D01*
X248682499Y-129720000D01*
X248682500Y-129720000D01*
%TO.N,A15*%
D29*
X255115000Y-124997500D02*
X255115000Y-129757500D01*
X255115000Y-145102800D02*
X254340300Y-145877500D01*
X255115000Y-134357500D02*
X255115000Y-145102800D01*
X291525000Y-126950000D02*
X293831000Y-126950000D01*
X245025000Y-136700000D02*
X245025000Y-143020000D01*
X255115000Y-134357500D02*
X255115000Y-129757500D01*
X255115000Y-124997500D02*
X255115000Y-81690000D01*
%TO.N,Net-(U11-D0)*%
X251740000Y-158600000D02*
X253180000Y-157160000D01*
X250980000Y-158600000D02*
X251740000Y-158600000D01*
X247805000Y-161775000D02*
X250980000Y-158600000D01*
X247805000Y-211226600D02*
X247805000Y-161775000D01*
%TO.N,BANK_0*%
X278640000Y-174550000D02*
X275191500Y-174550000D01*
X278990000Y-174900000D02*
X278640000Y-174550000D01*
X282692100Y-171725000D02*
X282692100Y-144864100D01*
X279517100Y-174900000D02*
X282692100Y-171725000D01*
X278990000Y-174900000D02*
X279517100Y-174900000D01*
X293655000Y-144864100D02*
X293655000Y-132150000D01*
%TO.N,Net-(D8-A)*%
X278760000Y-169590000D02*
X278990000Y-169820000D01*
X275191500Y-169590000D02*
X278760000Y-169590000D01*
%TO.N,Net-(D11-A)*%
X278820000Y-167110000D02*
X278990000Y-167280000D01*
X275191500Y-167110000D02*
X278820000Y-167110000D01*
%TO.N,Net-(D14-A)*%
X278880000Y-164630000D02*
X278990000Y-164740000D01*
X275191500Y-164630000D02*
X278880000Y-164630000D01*
%TO.N,Net-(D17-A)*%
X278940000Y-162150000D02*
X278990000Y-162200000D01*
X275191500Y-162150000D02*
X278940000Y-162150000D01*
%TO.N,Net-(D20-A)*%
X278980000Y-159670000D02*
X278990000Y-159660000D01*
X275191500Y-159670000D02*
X278980000Y-159670000D01*
%TO.N,Net-(D23-A)*%
X278920000Y-157190000D02*
X278990000Y-157120000D01*
X275191500Y-157190000D02*
X278920000Y-157190000D01*
%TO.N,IO4*%
X262100000Y-152110000D02*
X262100000Y-153530000D01*
%TO.N,D7*%
X269895000Y-156060000D02*
X271005000Y-157170000D01*
X268605000Y-156060000D02*
X269895000Y-156060000D01*
X267585000Y-129097500D02*
X267585000Y-123100000D01*
X280690000Y-151066000D02*
X280290000Y-150666000D01*
X280690000Y-155920000D02*
X280690000Y-151066000D01*
X268605000Y-145677500D02*
X269005000Y-145277500D01*
X268605000Y-156060000D02*
X268605000Y-145677500D01*
X280690000Y-150266000D02*
X280290000Y-150666000D01*
X280690000Y-147872400D02*
X280690000Y-150266000D01*
X278695100Y-145877500D02*
X280690000Y-147872400D01*
X276647600Y-150666000D02*
X280290000Y-150666000D01*
X276250700Y-150269100D02*
X276647600Y-150666000D01*
X276250700Y-145477500D02*
X276250700Y-150269100D01*
X276050700Y-145277500D02*
X276250700Y-145477500D01*
X269005000Y-145277500D02*
X276050700Y-145277500D01*
X253425000Y-94037500D02*
X253425000Y-102910000D01*
X251837500Y-92450000D02*
X253425000Y-94037500D01*
X248222500Y-92450000D02*
X251837500Y-92450000D01*
X246782500Y-91010000D02*
X248222500Y-92450000D01*
X268605000Y-144877500D02*
X269005000Y-145277500D01*
X268605000Y-129891300D02*
X268605000Y-144877500D01*
X267811300Y-129097500D02*
X268605000Y-129891300D01*
X267585000Y-129097500D02*
X267811300Y-129097500D01*
X290825000Y-105520000D02*
X292952500Y-105520000D01*
X274287500Y-105620000D02*
X274287500Y-123100000D01*
D30*
X274287500Y-105620000D02*
X274287499Y-105620000D01*
X274287499Y-105620000D01*
X274287499Y-105620000D01*
X274287499Y-105620000D01*
X274287499Y-105620000D01*
X274287499Y-105620000D01*
X274287499Y-105620000D01*
X274287499Y-105619999D01*
X274287499Y-105619999D01*
X274287499Y-105619999D01*
X274287499Y-105619999D01*
X274287499Y-105619999D01*
X274287500Y-105619999D01*
X274287500Y-105619999D01*
X274287500Y-105619999D01*
X274287500Y-105619999D01*
X274287500Y-105619999D01*
X274287500Y-105619999D01*
X274287500Y-105619999D01*
X274287500Y-105619999D01*
X274287500Y-105619999D01*
X274287500Y-105619999D01*
X274287500Y-105619999D01*
X274287500Y-105619999D01*
X274287501Y-105619999D01*
X274287501Y-105619999D01*
X274287501Y-105619999D01*
X274287501Y-105619999D01*
X274287501Y-105619999D01*
X274287501Y-105619999D01*
X274287501Y-105620000D01*
X274287501Y-105620000D01*
X274287501Y-105620000D01*
X274287501Y-105620000D01*
X274287501Y-105620000D01*
X274287501Y-105620000D01*
X274287501Y-105620000D01*
X274287500Y-105620000D01*
X274287500Y-105620000D02*
X274287501Y-105620000D01*
X274287501Y-105620000D01*
X274287501Y-105620000D01*
X274287501Y-105620000D01*
X274287501Y-105620000D01*
X274287501Y-105620000D01*
X274287501Y-105620001D01*
X274287501Y-105620001D01*
X274287501Y-105620001D01*
X274287501Y-105620001D01*
X274287501Y-105620001D01*
X274287501Y-105620001D01*
X274287501Y-105620001D01*
X274287500Y-105620001D01*
X274287500Y-105620001D01*
X274287500Y-105620001D01*
X274287500Y-105620001D01*
X274287500Y-105620001D01*
X274287500Y-105620001D01*
X274287500Y-105620001D01*
X274287500Y-105620001D01*
X274287500Y-105620001D01*
X274287500Y-105620001D01*
X274287500Y-105620001D01*
X274287500Y-105620001D01*
X274287499Y-105620001D01*
X274287499Y-105620001D01*
X274287499Y-105620001D01*
X274287499Y-105620001D01*
X274287499Y-105620001D01*
X274287499Y-105620001D01*
X274287499Y-105620000D01*
X274287499Y-105620000D01*
X274287499Y-105620000D01*
X274287499Y-105620000D01*
X274287499Y-105620000D01*
X274287499Y-105620000D01*
X274287500Y-105620000D01*
D29*
X290825000Y-121900000D02*
X290825000Y-105520000D01*
X305905000Y-68555000D02*
X307455000Y-70105000D01*
X291618800Y-68555000D02*
X305905000Y-68555000D01*
X290825000Y-69348800D02*
X291618800Y-68555000D01*
X290825000Y-105520000D02*
X290825000Y-69348800D01*
%TO.N,D6*%
X275650700Y-153007100D02*
X275650700Y-145877500D01*
X272705000Y-155952900D02*
X275650700Y-153007100D01*
X272705000Y-158003600D02*
X272705000Y-155952900D01*
X272705000Y-158403600D02*
X272705000Y-158003600D01*
X273105000Y-158403600D02*
X272705000Y-158403600D01*
X272705000Y-158803600D02*
X273105000Y-158403600D01*
X272705000Y-158916300D02*
X272705000Y-158803600D01*
X271911300Y-159710000D02*
X272705000Y-158916300D01*
X271005000Y-159710000D02*
X271911300Y-159710000D01*
X280290000Y-159197400D02*
X280290000Y-159660000D01*
X279496300Y-158403600D02*
X280290000Y-159197400D01*
X273105000Y-158403600D02*
X279496300Y-158403600D01*
X294252500Y-107266300D02*
X294252500Y-77040000D01*
X293458800Y-108060000D02*
X294252500Y-107266300D01*
X292952500Y-108060000D02*
X293458800Y-108060000D01*
X265045000Y-132925500D02*
X265045000Y-129097500D01*
X263781000Y-134189500D02*
X265045000Y-132925500D01*
X263781000Y-151578000D02*
X263781000Y-134189500D01*
X264485000Y-152282000D02*
X263781000Y-151578000D01*
X264485000Y-157806300D02*
X264485000Y-152282000D01*
X263691300Y-158600000D02*
X264485000Y-157806300D01*
X261900000Y-158600000D02*
X263691300Y-158600000D01*
X260800000Y-159700000D02*
X261900000Y-158600000D01*
X271587500Y-108160000D02*
X270287500Y-108160000D01*
X270287500Y-111426300D02*
X270287500Y-108160000D01*
X271081300Y-112220000D02*
X270287500Y-111426300D01*
X272490600Y-112220000D02*
X271081300Y-112220000D01*
X272887500Y-112616900D02*
X272490600Y-112220000D01*
X272887500Y-119326200D02*
X272887500Y-112616900D01*
X271745000Y-120468700D02*
X272887500Y-119326200D01*
X271745000Y-127197500D02*
X271745000Y-120468700D01*
X267072500Y-104945000D02*
X270287500Y-108160000D01*
X267072500Y-97990000D02*
X267072500Y-104945000D01*
X265172500Y-96090000D02*
X267072500Y-97990000D01*
%TO.N,D4*%
X260985000Y-136067500D02*
X260985000Y-144064000D01*
X259965000Y-135047500D02*
X260985000Y-136067500D01*
X259965000Y-129097500D02*
X259965000Y-135047500D01*
X269282500Y-113240000D02*
X266272500Y-110230000D01*
X271587500Y-113240000D02*
X269282500Y-113240000D01*
X260265000Y-88470000D02*
X260265000Y-109430000D01*
X272155000Y-163640000D02*
X279909300Y-163640000D01*
X271005000Y-164790000D02*
X272155000Y-163640000D01*
X259965000Y-109730000D02*
X260265000Y-109430000D01*
X259965000Y-129097500D02*
X259965000Y-109730000D01*
X267717700Y-156810000D02*
X267717700Y-144064000D01*
X268917800Y-158010000D02*
X267717700Y-156810000D01*
X268917800Y-162846300D02*
X268917800Y-158010000D01*
X269711500Y-163640000D02*
X268917800Y-162846300D01*
X269855000Y-163640000D02*
X269711500Y-163640000D01*
X271005000Y-164790000D02*
X269855000Y-163640000D01*
X299835000Y-109965000D02*
X299835000Y-70105000D01*
X296660000Y-113140000D02*
X299835000Y-109965000D01*
X292952500Y-113140000D02*
X296660000Y-113140000D01*
%TO.N,D3*%
X272255000Y-166080000D02*
X277618500Y-166080000D01*
X271005000Y-167330000D02*
X272255000Y-166080000D01*
X262100000Y-166020000D02*
X262100000Y-163690000D01*
X260800000Y-167320000D02*
X262100000Y-166020000D01*
X300435000Y-112505000D02*
X300435000Y-71640000D01*
X297260000Y-115680000D02*
X300435000Y-112505000D01*
X292952500Y-115680000D02*
X297260000Y-115680000D01*
X265724000Y-127797500D02*
X263725000Y-127797500D01*
X266517700Y-128591300D02*
X265724000Y-127797500D01*
X266517700Y-145877500D02*
X266517700Y-128591300D01*
X257455000Y-91010000D02*
X257455000Y-82290000D01*
X264332500Y-115060000D02*
X263932500Y-114660000D01*
X265912500Y-115060000D02*
X264332500Y-115060000D01*
X266632500Y-115780000D02*
X265912500Y-115060000D01*
X271587500Y-115780000D02*
X266632500Y-115780000D01*
X263725000Y-129603800D02*
X263725000Y-127797500D01*
X262931300Y-130397500D02*
X263725000Y-129603800D01*
X261781900Y-130397500D02*
X262931300Y-130397500D01*
X261385000Y-130000600D02*
X261781900Y-130397500D01*
X261385000Y-116647500D02*
X261385000Y-130000600D01*
X262972500Y-115060000D02*
X261385000Y-116647500D01*
X263532500Y-115060000D02*
X262972500Y-115060000D01*
X263932500Y-114660000D02*
X263532500Y-115060000D01*
X266517700Y-145877500D02*
X266517700Y-163690000D01*
D30*
X266517700Y-145877500D02*
X266517699Y-145877500D01*
X266517699Y-145877500D01*
X266517699Y-145877500D01*
X266517699Y-145877500D01*
X266517699Y-145877500D01*
X266517699Y-145877500D01*
X266517699Y-145877500D01*
X266517699Y-145877499D01*
X266517699Y-145877499D01*
X266517699Y-145877499D01*
X266517699Y-145877499D01*
X266517699Y-145877499D01*
X266517700Y-145877499D01*
X266517700Y-145877499D01*
X266517700Y-145877499D01*
X266517700Y-145877499D01*
X266517700Y-145877499D01*
X266517700Y-145877499D01*
X266517700Y-145877499D01*
X266517700Y-145877499D01*
X266517700Y-145877499D01*
X266517700Y-145877499D01*
X266517700Y-145877499D01*
X266517700Y-145877499D01*
X266517701Y-145877499D01*
X266517701Y-145877499D01*
X266517701Y-145877499D01*
X266517701Y-145877499D01*
X266517701Y-145877499D01*
X266517701Y-145877499D01*
X266517701Y-145877500D01*
X266517701Y-145877500D01*
X266517701Y-145877500D01*
X266517701Y-145877500D01*
X266517701Y-145877500D01*
X266517701Y-145877500D01*
X266517701Y-145877500D01*
X266517700Y-145877500D01*
X266517700Y-145877500D02*
X266517701Y-145877500D01*
X266517701Y-145877500D01*
X266517701Y-145877500D01*
X266517701Y-145877500D01*
X266517701Y-145877500D01*
X266517701Y-145877500D01*
X266517701Y-145877501D01*
X266517701Y-145877501D01*
X266517701Y-145877501D01*
X266517701Y-145877501D01*
X266517701Y-145877501D01*
X266517701Y-145877501D01*
X266517701Y-145877501D01*
X266517700Y-145877501D01*
X266517700Y-145877501D01*
X266517700Y-145877501D01*
X266517700Y-145877501D01*
X266517700Y-145877501D01*
X266517700Y-145877501D01*
X266517700Y-145877501D01*
X266517700Y-145877501D01*
X266517700Y-145877501D01*
X266517700Y-145877501D01*
X266517700Y-145877501D01*
X266517700Y-145877501D01*
X266517699Y-145877501D01*
X266517699Y-145877501D01*
X266517699Y-145877501D01*
X266517699Y-145877501D01*
X266517699Y-145877501D01*
X266517699Y-145877501D01*
X266517699Y-145877500D01*
X266517699Y-145877500D01*
X266517699Y-145877500D01*
X266517699Y-145877500D01*
X266517699Y-145877500D01*
X266517699Y-145877500D01*
X266517700Y-145877500D01*
D29*
X263932500Y-92250000D02*
X263932500Y-114660000D01*
X265172500Y-91010000D02*
X263932500Y-92250000D01*
%TO.N,D2*%
X263181000Y-143464000D02*
X263181000Y-145877500D01*
X258445000Y-101170000D02*
X258445000Y-106890000D01*
X272255000Y-168620000D02*
X279909300Y-168620000D01*
X271005000Y-169870000D02*
X272255000Y-168620000D01*
X301035000Y-111552500D02*
X301035000Y-73440000D01*
X302622500Y-113140000D02*
X301035000Y-111552500D01*
X303112500Y-113140000D02*
X302622500Y-113140000D01*
X258445000Y-80350000D02*
X257645000Y-79550000D01*
X258445000Y-101170000D02*
X258445000Y-80350000D01*
X258445000Y-149789800D02*
X258445000Y-143464000D01*
X257984600Y-150250200D02*
X258445000Y-149789800D01*
X257984600Y-168645000D02*
X257984600Y-150250200D01*
X258445000Y-139257500D02*
X259965000Y-139257500D01*
X258445000Y-143464000D02*
X258445000Y-139257500D01*
X258445000Y-106890000D02*
X258445000Y-139257500D01*
%TO.N,D1*%
X260800000Y-172100000D02*
X260800000Y-172400000D01*
X260000000Y-171300000D02*
X260800000Y-172100000D01*
X259700000Y-171300000D02*
X260000000Y-171300000D01*
X262505000Y-143801500D02*
X260429000Y-145877500D01*
X262505000Y-139257500D02*
X262505000Y-143801500D01*
X265972500Y-109590000D02*
X267672500Y-109590000D01*
X265172500Y-108790000D02*
X265972500Y-109590000D01*
X260985000Y-132397500D02*
X260985000Y-108790000D01*
X262505000Y-133917500D02*
X260985000Y-132397500D01*
X262505000Y-139257500D02*
X262505000Y-133917500D01*
X272255000Y-171160000D02*
X279909300Y-171160000D01*
X271005000Y-172410000D02*
X272255000Y-171160000D01*
X259700000Y-146606500D02*
X260429000Y-145877500D01*
X259700000Y-171300000D02*
X259700000Y-146606500D01*
X296452500Y-74240000D02*
X296452500Y-109580000D01*
X296252500Y-74040000D02*
X296452500Y-74240000D01*
X296150000Y-74040000D02*
X296252500Y-74040000D01*
X292215000Y-70105000D02*
X296150000Y-74040000D01*
%TO.N,D0*%
X256115000Y-144607900D02*
X256115000Y-139620000D01*
X257384600Y-145877500D02*
X256115000Y-144607900D01*
X272155000Y-173800000D02*
X277618500Y-173800000D01*
X271005000Y-174950000D02*
X272155000Y-173800000D01*
X246782500Y-73230000D02*
X248483500Y-73230000D01*
X256115000Y-139620000D02*
X256115000Y-106250000D01*
X257384600Y-173354600D02*
X257755000Y-173725000D01*
X257384600Y-145877500D02*
X257384600Y-173354600D01*
X289675000Y-70105000D02*
X289675000Y-107680000D01*
%TO.N,A11*%
X277745000Y-118471200D02*
X277745000Y-126397500D01*
X278487500Y-117728700D02*
X277745000Y-118471200D01*
X278487500Y-98635000D02*
X278487500Y-117728700D01*
X275312500Y-95460000D02*
X278487500Y-98635000D01*
X274835000Y-95460000D02*
X275312500Y-95460000D01*
X274435000Y-95060000D02*
X274835000Y-95460000D01*
X241045000Y-144759600D02*
X242162900Y-145877500D01*
X241045000Y-134850000D02*
X241045000Y-144759600D01*
X242145000Y-133750000D02*
X241045000Y-134850000D01*
X242145000Y-126640000D02*
X242145000Y-133750000D01*
X243585000Y-125200000D02*
X242145000Y-126640000D01*
X277745000Y-126397500D02*
X277745000Y-129097500D01*
X274035000Y-95460000D02*
X271587500Y-95460000D01*
X274435000Y-95060000D02*
X274035000Y-95460000D01*
X274435000Y-91500000D02*
X274835000Y-91100000D01*
X274435000Y-95060000D02*
X274435000Y-91500000D01*
X270755000Y-73230000D02*
X265172500Y-73230000D01*
X292218800Y-95360000D02*
X292952500Y-95360000D01*
X291425000Y-94566300D02*
X292218800Y-95360000D01*
X291425000Y-92700000D02*
X291425000Y-94566300D01*
X274835000Y-91100000D02*
X279265000Y-91100000D01*
X274435000Y-90700000D02*
X274835000Y-91100000D01*
X274435000Y-70105000D02*
X274435000Y-90700000D01*
%TO.N,Net-(U10-~{WAIT})*%
X251032500Y-114970000D02*
X249932500Y-113870000D01*
X251032500Y-144377500D02*
X251032500Y-114970000D01*
X247857500Y-147552500D02*
X251032500Y-144377500D01*
X241295000Y-147552500D02*
X247857500Y-147552500D01*
X238120000Y-150727500D02*
X241295000Y-147552500D01*
X238120000Y-184326300D02*
X238120000Y-150727500D01*
X237326300Y-185120000D02*
X238120000Y-184326300D01*
X230882400Y-185120000D02*
X237326300Y-185120000D01*
X227062400Y-181300000D02*
X230882400Y-185120000D01*
X225326200Y-181300000D02*
X227062400Y-181300000D01*
X224532400Y-182093800D02*
X225326200Y-181300000D01*
X224532400Y-187892600D02*
X224532400Y-182093800D01*
X222405000Y-190020000D02*
X224532400Y-187892600D01*
%TO.N,Net-(U5-Q1)*%
X264485000Y-173510000D02*
X263385000Y-172410000D01*
X264485000Y-178616300D02*
X264485000Y-173510000D01*
X263691300Y-179410000D02*
X264485000Y-178616300D01*
X262852500Y-179410000D02*
X263691300Y-179410000D01*
X261265000Y-180997500D02*
X262852500Y-179410000D01*
X261265000Y-193860900D02*
X261265000Y-180997500D01*
X260783500Y-194342300D02*
X261265000Y-193860900D01*
X260783500Y-199493300D02*
X260783500Y-194342300D01*
X296290700Y-198768300D02*
X295265700Y-199793300D01*
X296290700Y-196701600D02*
X296290700Y-198768300D01*
X296290700Y-209701600D02*
X296290700Y-205368300D01*
X246637100Y-209726600D02*
X246637100Y-205385000D01*
X246637100Y-201043300D02*
X246637100Y-205385000D01*
X296290700Y-200818300D02*
X295265700Y-199793300D01*
X296290700Y-205368300D02*
X296290700Y-200818300D01*
D30*
X296290700Y-205368300D02*
X296290699Y-205368300D01*
X296290699Y-205368300D01*
X296290699Y-205368300D01*
X296290699Y-205368300D01*
X296290699Y-205368300D01*
X296290699Y-205368300D01*
X296290699Y-205368300D01*
X296290699Y-205368299D01*
X296290699Y-205368299D01*
X296290699Y-205368299D01*
X296290699Y-205368299D01*
X296290699Y-205368299D01*
X296290700Y-205368299D01*
X296290700Y-205368299D01*
X296290700Y-205368299D01*
X296290700Y-205368299D01*
X296290700Y-205368299D01*
X296290700Y-205368299D01*
X296290700Y-205368299D01*
X296290700Y-205368299D01*
X296290700Y-205368299D01*
X296290700Y-205368299D01*
X296290700Y-205368299D01*
X296290700Y-205368299D01*
X296290701Y-205368299D01*
X296290701Y-205368299D01*
X296290701Y-205368299D01*
X296290701Y-205368299D01*
X296290701Y-205368299D01*
X296290701Y-205368299D01*
X296290701Y-205368300D01*
X296290701Y-205368300D01*
X296290701Y-205368300D01*
X296290701Y-205368300D01*
X296290701Y-205368300D01*
X296290701Y-205368300D01*
X296290701Y-205368300D01*
X296290700Y-205368300D01*
X296290700Y-205368300D02*
X296290701Y-205368300D01*
X296290701Y-205368300D01*
X296290701Y-205368300D01*
X296290701Y-205368300D01*
X296290701Y-205368300D01*
X296290701Y-205368300D01*
X296290701Y-205368301D01*
X296290701Y-205368301D01*
X296290701Y-205368301D01*
X296290701Y-205368301D01*
X296290701Y-205368301D01*
X296290701Y-205368301D01*
X296290701Y-205368301D01*
X296290700Y-205368301D01*
X296290700Y-205368301D01*
X296290700Y-205368301D01*
X296290700Y-205368301D01*
X296290700Y-205368301D01*
X296290700Y-205368301D01*
X296290700Y-205368301D01*
X296290700Y-205368301D01*
X296290700Y-205368301D01*
X296290700Y-205368301D01*
X296290700Y-205368301D01*
X296290700Y-205368301D01*
X296290699Y-205368301D01*
X296290699Y-205368301D01*
X296290699Y-205368301D01*
X296290699Y-205368301D01*
X296290699Y-205368301D01*
X296290699Y-205368301D01*
X296290699Y-205368300D01*
X296290699Y-205368300D01*
X296290699Y-205368300D01*
X296290699Y-205368300D01*
X296290699Y-205368300D01*
X296290699Y-205368300D01*
X296290700Y-205368300D01*
D29*
X246637100Y-196701600D02*
X246637100Y-198201600D01*
X246637100Y-201043300D02*
X246637100Y-198201600D01*
%TO.N,Net-(U11-D2)*%
X254280000Y-163340000D02*
X253180000Y-162240000D01*
X254280000Y-167966300D02*
X254280000Y-163340000D01*
X253486300Y-168760000D02*
X254280000Y-167966300D01*
X250592500Y-168760000D02*
X253486300Y-168760000D01*
X249005000Y-170347500D02*
X250592500Y-168760000D01*
X249005000Y-206777500D02*
X249005000Y-170347500D01*
X250592500Y-208365000D02*
X249005000Y-206777500D01*
X251393400Y-208365000D02*
X250592500Y-208365000D01*
X252187100Y-207571300D02*
X251393400Y-208365000D01*
X252187100Y-202343300D02*
X252187100Y-207571300D01*
%TO.N,D5*%
X273982400Y-143296200D02*
X273982400Y-144664000D01*
X271145000Y-140458800D02*
X273982400Y-143296200D01*
X271145000Y-119437500D02*
X271145000Y-140458800D01*
X269557500Y-117850000D02*
X271145000Y-119437500D01*
X263305000Y-117850000D02*
X269557500Y-117850000D01*
X262505000Y-118650000D02*
X263305000Y-117850000D01*
X257845000Y-94350000D02*
X257045000Y-93550000D01*
X257845000Y-118650000D02*
X257845000Y-94350000D01*
X272105000Y-146378900D02*
X272606400Y-145877500D01*
X272105000Y-156014000D02*
X272105000Y-146378900D01*
X272105000Y-156014100D02*
X272105000Y-156014000D01*
X272255000Y-161000000D02*
X277599400Y-161000000D01*
X271005000Y-162250000D02*
X272255000Y-161000000D01*
X262505000Y-118650000D02*
X262505000Y-129097500D01*
X272093800Y-110700000D02*
X271587500Y-110700000D01*
X272887500Y-109906300D02*
X272093800Y-110700000D01*
X272887500Y-102456900D02*
X272887500Y-109906300D01*
X272490600Y-102060000D02*
X272887500Y-102456900D01*
X269860000Y-102060000D02*
X272490600Y-102060000D01*
X268272500Y-100472500D02*
X269860000Y-102060000D01*
X268272500Y-96650000D02*
X268272500Y-100472500D01*
X265172500Y-93550000D02*
X268272500Y-96650000D01*
X301225000Y-68955000D02*
X302375000Y-70105000D01*
X299238800Y-68955000D02*
X301225000Y-68955000D01*
X298445000Y-69748800D02*
X299238800Y-68955000D01*
X298445000Y-109012500D02*
X298445000Y-69748800D01*
X296857500Y-110600000D02*
X298445000Y-109012500D01*
X292952500Y-110600000D02*
X296857500Y-110600000D01*
%TO.N,Net-(U11-D5)*%
X251740000Y-171300000D02*
X253180000Y-169860000D01*
X250992500Y-171300000D02*
X251740000Y-171300000D01*
X249405000Y-172887500D02*
X250992500Y-171300000D01*
X249405000Y-206152900D02*
X249405000Y-172887500D01*
X250787100Y-207535000D02*
X249405000Y-206152900D01*
%TO.N,Net-(U5-Q2)*%
X241219200Y-209726600D02*
X241219200Y-205385000D01*
X290872800Y-205568300D02*
X290872800Y-209701600D01*
X290672800Y-205368300D02*
X290872800Y-205568300D01*
X290872800Y-205168300D02*
X290872800Y-201035000D01*
X290672800Y-205368300D02*
X290872800Y-205168300D01*
X290872800Y-196701600D02*
X290872800Y-201035000D01*
X241319200Y-201043300D02*
X241319200Y-196701600D01*
X241319200Y-205285000D02*
X241219200Y-205385000D01*
X241319200Y-201043300D02*
X241319200Y-205285000D01*
X261900000Y-171355000D02*
X263385000Y-169870000D01*
X261900000Y-178216300D02*
X261900000Y-171355000D01*
X261106300Y-179010000D02*
X261900000Y-178216300D01*
X260312500Y-179010000D02*
X261106300Y-179010000D01*
X258725000Y-180597500D02*
X260312500Y-179010000D01*
X258725000Y-194851600D02*
X258725000Y-180597500D01*
%TO.N,Net-(U11-D4)*%
D30*
X243505000Y-176380000D02*
X243504999Y-176380000D01*
X243504999Y-176380000D01*
X243504999Y-176380000D01*
X243504999Y-176380000D01*
X243504999Y-176380000D01*
X243504999Y-176380000D01*
X243504999Y-176380000D01*
X243504999Y-176379999D01*
X243504999Y-176379999D01*
X243504999Y-176379999D01*
X243504999Y-176379999D01*
X243504999Y-176379999D01*
X243505000Y-176379999D01*
X243505000Y-176379999D01*
X243505000Y-176379999D01*
X243505000Y-176379999D01*
X243505000Y-176379999D01*
X243505000Y-176379999D01*
X243505000Y-176379999D01*
X243505000Y-176379999D01*
X243505000Y-176379999D01*
X243505000Y-176379999D01*
X243505000Y-176379999D01*
X243505000Y-176379999D01*
X243505001Y-176379999D01*
X243505001Y-176379999D01*
X243505001Y-176379999D01*
X243505001Y-176379999D01*
X243505001Y-176379999D01*
X243505001Y-176379999D01*
X243505001Y-176380000D01*
X243505001Y-176380000D01*
X243505001Y-176380000D01*
X243505001Y-176380000D01*
X243505001Y-176380000D01*
X243505001Y-176380000D01*
X243505001Y-176380000D01*
X243505000Y-176380000D01*
X243505000Y-176380000D02*
X243505001Y-176380000D01*
X243505001Y-176380000D01*
X243505001Y-176380000D01*
X243505001Y-176380000D01*
X243505001Y-176380000D01*
X243505001Y-176380000D01*
X243505001Y-176380001D01*
X243505001Y-176380001D01*
X243505001Y-176380001D01*
X243505001Y-176380001D01*
X243505001Y-176380001D01*
X243505001Y-176380001D01*
X243505001Y-176380001D01*
X243505000Y-176380001D01*
X243505000Y-176380001D01*
X243505000Y-176380001D01*
X243505000Y-176380001D01*
X243505000Y-176380001D01*
X243505000Y-176380001D01*
X243505000Y-176380001D01*
X243505000Y-176380001D01*
X243505000Y-176380001D01*
X243505000Y-176380001D01*
X243505000Y-176380001D01*
X243505000Y-176380001D01*
X243504999Y-176380001D01*
X243504999Y-176380001D01*
X243504999Y-176380001D01*
X243504999Y-176380001D01*
X243504999Y-176380001D01*
X243504999Y-176380001D01*
X243504999Y-176380000D01*
X243504999Y-176380000D01*
X243504999Y-176380000D01*
X243504999Y-176380000D01*
X243504999Y-176380000D01*
X243504999Y-176380000D01*
X243505000Y-176380000D01*
D29*
X243505000Y-210090800D02*
X243505000Y-176380000D01*
X241719200Y-211876600D02*
X243505000Y-210090800D01*
X256880000Y-167800000D02*
X256080000Y-167000000D01*
X256880000Y-176980000D02*
X256880000Y-167800000D01*
%TO.N,Net-(U11-D6)*%
X255880000Y-175100000D02*
X253180000Y-172400000D01*
X255880000Y-202243300D02*
X255880000Y-175100000D01*
X254955000Y-203168300D02*
X255880000Y-202243300D01*
%TO.N,!HALT*%
X266212500Y-117450000D02*
X271745000Y-117450000D01*
X265172500Y-116410000D02*
X266212500Y-117450000D01*
X307714300Y-120551800D02*
X307714300Y-145922500D01*
X304612500Y-117450000D02*
X307714300Y-120551800D01*
X234945000Y-71255000D02*
X233795000Y-70105000D01*
X234945000Y-115310000D02*
X234945000Y-71255000D01*
%TO.N,!MREQ*%
X278990000Y-172360000D02*
X275191500Y-172360000D01*
X281292100Y-170772500D02*
X281292100Y-150046900D01*
X279704600Y-172360000D02*
X281292100Y-170772500D01*
X278990000Y-172360000D02*
X279704600Y-172360000D01*
X292255000Y-147136000D02*
X292255000Y-127900000D01*
X221095000Y-136700000D02*
X221095000Y-70105000D01*
X221895000Y-137500000D02*
X221095000Y-136700000D01*
X270125000Y-120537500D02*
X270125000Y-129097500D01*
X268537500Y-118950000D02*
X270125000Y-120537500D01*
X265172500Y-118950000D02*
X268537500Y-118950000D01*
%TO.N,Net-(U11-D1)*%
X254280000Y-158600000D02*
X253180000Y-159700000D01*
X254280000Y-156456900D02*
X254280000Y-158600000D01*
X253883100Y-156060000D02*
X254280000Y-156456900D01*
X247280000Y-156060000D02*
X253883100Y-156060000D01*
X244105000Y-159235000D02*
X247280000Y-156060000D01*
X244105000Y-206710000D02*
X244105000Y-159235000D01*
%TO.N,Net-(U5-Q6)*%
X265201400Y-196701600D02*
X265201400Y-201035000D01*
X265201400Y-205368300D02*
X265201400Y-201035000D01*
X216147800Y-201043300D02*
X216147800Y-196701600D01*
X216147800Y-205385000D02*
X216147800Y-201043300D01*
X265201400Y-205368300D02*
X265201400Y-210626600D01*
X216147800Y-208726600D02*
X217147800Y-209726600D01*
X216147800Y-205385000D02*
X216147800Y-208726600D01*
X264885000Y-161210000D02*
X263385000Y-159710000D01*
X264885000Y-180016300D02*
X264885000Y-161210000D01*
X265678800Y-180810000D02*
X264885000Y-180016300D01*
X265948100Y-180810000D02*
X265678800Y-180810000D01*
X266345000Y-181206900D02*
X265948100Y-180810000D01*
X266345000Y-195558000D02*
X266345000Y-181206900D01*
X265201400Y-196701600D02*
X266345000Y-195558000D01*
%TO.N,Net-(U11-D7)*%
X253886300Y-174940000D02*
X253180000Y-174940000D01*
X254680000Y-175733800D02*
X253886300Y-174940000D01*
X254680000Y-198826600D02*
X254680000Y-175733800D01*
%TO.N,Net-(U5-Q0)*%
X253455000Y-209501600D02*
X253655000Y-209701600D01*
X253455000Y-205360000D02*
X253455000Y-209501600D01*
X303308500Y-201235000D02*
X303308500Y-205368300D01*
X303108500Y-201035000D02*
X303308500Y-201235000D01*
X303308500Y-200835000D02*
X303308500Y-196701600D01*
X303108500Y-201035000D02*
X303308500Y-200835000D01*
X253455000Y-205360000D02*
X253455000Y-201018300D01*
X255280000Y-199193300D02*
X253455000Y-201018300D01*
X255280000Y-196676600D02*
X255280000Y-199193300D01*
X303308500Y-209701600D02*
X303308500Y-205368300D01*
X255280000Y-196676600D02*
X255280000Y-176380000D01*
%TO.N,5V*%
X246125000Y-141580000D02*
X247565000Y-143020000D01*
X246125000Y-136500000D02*
X246125000Y-141580000D01*
X245025000Y-135400000D02*
X246125000Y-136500000D01*
X230442500Y-92450000D02*
X230292500Y-92450000D01*
X306350000Y-128812000D02*
X306350000Y-128049400D01*
X304412500Y-130749400D02*
X306350000Y-128812000D01*
X226705000Y-92450000D02*
X226305000Y-92050000D01*
X230292500Y-92450000D02*
X226705000Y-92450000D01*
X226305000Y-92050000D02*
X226305000Y-82290000D01*
X231542500Y-80850000D02*
X231542500Y-83390000D01*
X232842500Y-102210000D02*
X232442500Y-102610000D01*
X232842500Y-93243800D02*
X232842500Y-102210000D01*
X232048800Y-92450000D02*
X232842500Y-93243800D01*
X230442500Y-92450000D02*
X232048800Y-92450000D01*
X228392500Y-103710000D02*
X228392500Y-101170000D01*
X229492500Y-102610000D02*
X232442500Y-102610000D01*
X228392500Y-103710000D02*
X229492500Y-102610000D01*
X231542500Y-75770000D02*
X231542500Y-73230000D01*
X231542500Y-78310000D02*
X231542500Y-75770000D01*
X213152500Y-80850000D02*
X213152500Y-78310000D01*
X231542500Y-80850000D02*
X231542500Y-78310000D01*
X213152500Y-83390000D02*
X213152500Y-80850000D01*
X213152500Y-78310000D02*
X213152500Y-75770000D01*
X246782500Y-101170000D02*
X246782500Y-103710000D01*
X213152500Y-75770000D02*
X213152500Y-73230000D01*
X246125000Y-134300000D02*
X246125000Y-132820000D01*
X245025000Y-135400000D02*
X246125000Y-134300000D01*
X235585000Y-173350000D02*
X236065000Y-172870000D01*
X232305000Y-173350000D02*
X235585000Y-173350000D01*
X230102500Y-82290000D02*
X226305000Y-82290000D01*
X231542500Y-80850000D02*
X230102500Y-82290000D01*
X253232500Y-133699000D02*
X253232500Y-105750000D01*
X253032500Y-133899100D02*
X253032500Y-152353300D01*
X253232500Y-133699000D02*
X253032500Y-133899100D01*
X211520000Y-73230000D02*
X208395000Y-70105000D01*
X213152500Y-73230000D02*
X211520000Y-73230000D01*
X209805000Y-114393200D02*
X209805000Y-125110000D01*
X210387200Y-113811000D02*
X209805000Y-114393200D01*
X227555000Y-193789900D02*
X227422400Y-193922500D01*
X227555000Y-183500000D02*
X227555000Y-193789900D01*
X226455000Y-182400000D02*
X227555000Y-183500000D01*
X278990000Y-177440000D02*
X279045000Y-177495000D01*
X217805000Y-186520000D02*
X214305000Y-190020000D01*
X218285000Y-186520000D02*
X217805000Y-186520000D01*
X222405000Y-182400000D02*
X218285000Y-186520000D01*
X232842500Y-103010000D02*
X232842500Y-106290000D01*
X232442500Y-102610000D02*
X232842500Y-103010000D01*
X224805000Y-93243800D02*
X224805000Y-115110000D01*
X225598800Y-92450000D02*
X224805000Y-93243800D01*
X225905000Y-92450000D02*
X225598800Y-92450000D01*
X226305000Y-92050000D02*
X225905000Y-92450000D01*
X296447600Y-148897500D02*
X296447600Y-130749400D01*
X262532500Y-91497500D02*
X262532500Y-98630000D01*
X264120000Y-89910000D02*
X262532500Y-91497500D01*
X265827500Y-89910000D02*
X264120000Y-89910000D01*
X267415000Y-88322500D02*
X265827500Y-89910000D01*
X267415000Y-77403800D02*
X267415000Y-88322500D01*
X268208800Y-76610000D02*
X267415000Y-77403800D01*
X270000000Y-76610000D02*
X268208800Y-76610000D01*
X271587500Y-78197500D02*
X270000000Y-76610000D01*
X271587500Y-82760000D02*
X271587500Y-78197500D01*
X295605000Y-178510000D02*
X296405000Y-179310000D01*
X295605000Y-149740100D02*
X295605000Y-178510000D01*
X296447600Y-148897500D02*
X295605000Y-149740100D01*
X258984700Y-177480000D02*
X258584700Y-177080000D01*
X260800000Y-177480000D02*
X258984700Y-177480000D01*
X258584700Y-153820000D02*
X258584700Y-177080000D01*
X258184700Y-177480000D02*
X258584700Y-177080000D01*
X258021900Y-177480000D02*
X258184700Y-177480000D01*
X257625000Y-177876900D02*
X258021900Y-177480000D01*
X257625000Y-181910000D02*
X257625000Y-177876900D01*
X279045000Y-177495000D02*
X279045000Y-179310000D01*
X284290000Y-179310000D02*
X279045000Y-179310000D01*
X280632500Y-192610000D02*
X283465000Y-192610000D01*
X279045000Y-191022500D02*
X280632500Y-192610000D01*
X279045000Y-179310000D02*
X279045000Y-191022500D01*
%TO.N,A4*%
X265885000Y-150066000D02*
X265885000Y-179910000D01*
X223604400Y-149910000D02*
X223604400Y-145877500D01*
X277745000Y-149371700D02*
X277050800Y-150066000D01*
X277745000Y-139257500D02*
X277745000Y-149371700D01*
X276487500Y-93840000D02*
X275687500Y-94640000D01*
X279465000Y-93840000D02*
X276487500Y-93840000D01*
X279665000Y-94040000D02*
X279465000Y-93840000D01*
X279665000Y-122480000D02*
X279665000Y-94040000D01*
X281305000Y-124120000D02*
X279665000Y-122480000D01*
X281305000Y-132577500D02*
X281305000Y-124120000D01*
X277745000Y-136137500D02*
X281305000Y-132577500D01*
X277745000Y-139257500D02*
X277745000Y-136137500D01*
X256655000Y-89910000D02*
X256655000Y-70105000D01*
%TO.N,A5*%
X228785000Y-147091000D02*
X228785000Y-155110000D01*
X259645000Y-89110000D02*
X259645000Y-85630000D01*
X280911300Y-139257500D02*
X280285000Y-139257500D01*
X281705000Y-138463800D02*
X280911300Y-139257500D01*
X281705000Y-120520000D02*
X281705000Y-138463800D01*
X280065000Y-118880000D02*
X281705000Y-120520000D01*
X280065000Y-94507500D02*
X280065000Y-118880000D01*
X281652500Y-92920000D02*
X280065000Y-94507500D01*
X281747500Y-92920000D02*
X281652500Y-92920000D01*
X259195000Y-84380000D02*
X259195000Y-70105000D01*
X259645000Y-84830000D02*
X259195000Y-84380000D01*
X259645000Y-85630000D02*
X259645000Y-84830000D01*
%TO.N,A6*%
X261735000Y-82590000D02*
X261735000Y-70105000D01*
X281747500Y-88860000D02*
X281747500Y-90380000D01*
X282825000Y-139257500D02*
X283845000Y-139257500D01*
X283845000Y-177157100D02*
X283845000Y-139257500D01*
X283292100Y-177710000D02*
X283845000Y-177157100D01*
X284245000Y-138857500D02*
X283845000Y-139257500D01*
X284245000Y-91300000D02*
X284245000Y-138857500D01*
X283848100Y-88860000D02*
X281747500Y-88860000D01*
X284245000Y-89256900D02*
X283848100Y-88860000D01*
X284245000Y-91300000D02*
X284245000Y-89256900D01*
X277265000Y-88860000D02*
X281747500Y-88860000D01*
%TO.N,A7*%
X275585000Y-84665000D02*
X275585000Y-78950000D01*
X278760000Y-87840000D02*
X275585000Y-84665000D01*
X281747500Y-87840000D02*
X278760000Y-87840000D01*
X285365000Y-139257500D02*
X285365000Y-147539100D01*
X265425000Y-68955000D02*
X264275000Y-70105000D01*
X275188100Y-68955000D02*
X265425000Y-68955000D01*
X275585000Y-69351900D02*
X275188100Y-68955000D01*
X275585000Y-78950000D02*
X275585000Y-69351900D01*
X267117700Y-181242700D02*
X267785000Y-181910000D01*
X267117700Y-147539100D02*
X267117700Y-181242700D01*
X286785000Y-89460000D02*
X285985000Y-88660000D01*
X286785000Y-138463800D02*
X286785000Y-89460000D01*
X285991300Y-139257500D02*
X286785000Y-138463800D01*
X285365000Y-139257500D02*
X285991300Y-139257500D01*
%TO.N,Net-(U4-~{E1})*%
X237405000Y-183805000D02*
X237405000Y-143020000D01*
X237520000Y-183920000D02*
X237405000Y-183805000D01*
%TO.N,!IORQ*%
X272180000Y-143677500D02*
X273206500Y-143677500D01*
X269005000Y-140502500D02*
X272180000Y-143677500D01*
X269005000Y-123077500D02*
X269005000Y-140502500D01*
X267417500Y-121490000D02*
X269005000Y-123077500D01*
X265172500Y-121490000D02*
X267417500Y-121490000D01*
X285965000Y-150142500D02*
X285965000Y-143677500D01*
X284890000Y-151217500D02*
X285965000Y-150142500D01*
X284890000Y-180210000D02*
X284890000Y-151217500D01*
X223635000Y-96075000D02*
X223635000Y-70105000D01*
X223605000Y-96105000D02*
X223635000Y-96075000D01*
X223605000Y-124010000D02*
X223605000Y-96105000D01*
%TO.N,GND*%
X251305000Y-152550000D02*
X251305000Y-148952500D01*
X236920000Y-149698300D02*
X236074200Y-148852500D01*
X236920000Y-159315000D02*
X236920000Y-149698300D01*
X236065000Y-160170000D02*
X236920000Y-159315000D01*
X241425000Y-121490000D02*
X241825000Y-121490000D01*
X241425000Y-121090000D02*
X241425000Y-121490000D01*
X241425000Y-111330000D02*
X241425000Y-121090000D01*
X246782500Y-121490000D02*
X241825000Y-121490000D01*
X286665000Y-179637500D02*
X286665000Y-189530000D01*
X286610000Y-179582500D02*
X286665000Y-179637500D01*
X286610000Y-177440000D02*
X286610000Y-179582500D01*
X285565000Y-189530000D02*
X286665000Y-189530000D01*
X253180000Y-178615000D02*
X251305000Y-180490000D01*
X253180000Y-177480000D02*
X253180000Y-178615000D01*
X296830000Y-150710000D02*
X296830000Y-154480000D01*
X286610000Y-150710000D02*
X286610000Y-154580000D01*
X211355000Y-183500000D02*
X210255000Y-182400000D01*
X212805000Y-183500000D02*
X211355000Y-183500000D01*
X213205000Y-183900000D02*
X212805000Y-183500000D01*
X257425000Y-144664000D02*
X257425000Y-139257500D01*
X269269700Y-145877500D02*
X269269700Y-148852500D01*
X302749400Y-128850000D02*
X302749400Y-134050000D01*
X234365000Y-160170000D02*
X232305000Y-158110000D01*
X236065000Y-160170000D02*
X234365000Y-160170000D01*
X302349400Y-150710000D02*
X296830000Y-150710000D01*
X229492500Y-120390000D02*
X228392500Y-121490000D01*
X232048800Y-120390000D02*
X229492500Y-120390000D01*
X232842500Y-121183800D02*
X232048800Y-120390000D01*
X232842500Y-121490000D02*
X232842500Y-121183800D01*
X217255000Y-183500000D02*
X218355000Y-182400000D01*
X213605000Y-183500000D02*
X217255000Y-183500000D01*
X213205000Y-183900000D02*
X213605000Y-183500000D01*
X232325000Y-135400000D02*
X232325000Y-141720000D01*
X305924400Y-154480000D02*
X306930000Y-154480000D01*
X302749400Y-151305000D02*
X305924400Y-154480000D01*
X302749400Y-151110000D02*
X302749400Y-151305000D01*
X302349400Y-150710000D02*
X302749400Y-151110000D01*
X241425000Y-111330000D02*
X241425000Y-102610000D01*
X232725000Y-124100000D02*
X232325000Y-124500000D01*
X239837500Y-124100000D02*
X232725000Y-124100000D01*
X241425000Y-122512500D02*
X239837500Y-124100000D01*
X241425000Y-121890000D02*
X241425000Y-122512500D01*
X241825000Y-121490000D02*
X241425000Y-121890000D01*
X219184100Y-156930900D02*
X219184100Y-150066000D01*
X218005000Y-158110000D02*
X219184100Y-156930900D01*
X230885000Y-124496900D02*
X230885000Y-125200000D01*
X231281900Y-124100000D02*
X230885000Y-124496900D01*
X231925000Y-124100000D02*
X231281900Y-124100000D01*
X232325000Y-124500000D02*
X231925000Y-124100000D01*
X232325000Y-135400000D02*
X232325000Y-124500000D01*
X251305000Y-180490000D02*
X251305000Y-193010000D01*
X303112500Y-128486900D02*
X302749400Y-128850000D01*
X303112500Y-115680000D02*
X303112500Y-128486900D01*
X302749400Y-150310000D02*
X302349400Y-150710000D01*
X302749400Y-134050000D02*
X302749400Y-150310000D01*
X213205000Y-191185000D02*
X213205000Y-183900000D01*
X214792500Y-192772500D02*
X213205000Y-191185000D01*
X223732400Y-192772500D02*
X214792500Y-192772500D01*
X224882400Y-193922500D02*
X223732400Y-192772500D01*
X242205000Y-155725000D02*
X242205000Y-189010000D01*
X245380000Y-152550000D02*
X242205000Y-155725000D01*
X251305000Y-152550000D02*
X245380000Y-152550000D01*
X212960000Y-72130000D02*
X210935000Y-70105000D01*
X213855600Y-72130000D02*
X212960000Y-72130000D01*
X214252500Y-72526900D02*
X213855600Y-72130000D01*
X214252500Y-84133100D02*
X214252500Y-72526900D01*
X213855600Y-84530000D02*
X214252500Y-84133100D01*
X212846300Y-84530000D02*
X213855600Y-84530000D01*
X212052500Y-85323700D02*
X212846300Y-84530000D01*
X212052500Y-104247300D02*
X212052500Y-85323700D01*
X212846300Y-105041000D02*
X212052500Y-104247300D01*
X213855600Y-105041000D02*
X212846300Y-105041000D01*
X214252500Y-105437900D02*
X213855600Y-105041000D01*
X214252500Y-110230000D02*
X214252500Y-105437900D01*
X213152500Y-111330000D02*
X214252500Y-110230000D01*
X286005000Y-189970000D02*
X286005000Y-192610000D01*
X285565000Y-189530000D02*
X286005000Y-189970000D01*
%TO.N,IO1*%
X283025000Y-181910000D02*
X280485000Y-181910000D01*
X280485000Y-189530000D02*
X283025000Y-189530000D01*
X234865000Y-143020000D02*
X234865000Y-138720000D01*
X234865000Y-136700000D02*
X234865000Y-138720000D01*
X281925000Y-183350000D02*
X280485000Y-181910000D01*
X281925000Y-188090000D02*
X281925000Y-183350000D01*
X280485000Y-189530000D02*
X281925000Y-188090000D01*
X234865000Y-151350000D02*
X236065000Y-152550000D01*
X234865000Y-143020000D02*
X234865000Y-151350000D01*
X253886300Y-154620000D02*
X253180000Y-154620000D01*
X254680000Y-155413800D02*
X253886300Y-154620000D01*
X254680000Y-169360000D02*
X254680000Y-155413800D01*
X256280000Y-170960000D02*
X254680000Y-169360000D01*
X256280000Y-188185000D02*
X256280000Y-170960000D01*
X257625000Y-189530000D02*
X256280000Y-188185000D01*
%TO.N,Net-(U11-D3)*%
X251740000Y-166220000D02*
X253180000Y-164780000D01*
X249992500Y-166220000D02*
X251740000Y-166220000D01*
X248405000Y-167807500D02*
X249992500Y-166220000D01*
X248405000Y-208714100D02*
X248405000Y-167807500D01*
X249992500Y-210301600D02*
X248405000Y-208714100D01*
X259389800Y-210301600D02*
X249992500Y-210301600D01*
X260183500Y-209507900D02*
X259389800Y-210301600D01*
X260183500Y-198851600D02*
X260183500Y-209507900D01*
%TO.N,Net-(U5-Q7)*%
X267717800Y-158810000D02*
X267717800Y-179810000D01*
X263805000Y-196048000D02*
X263151400Y-196701600D01*
X263805000Y-180810000D02*
X263805000Y-196048000D01*
X258983500Y-196701600D02*
X258983500Y-201035000D01*
X210130000Y-205585000D02*
X210130000Y-209726600D01*
X209930000Y-205385000D02*
X210130000Y-205585000D01*
X210130000Y-200843300D02*
X210130000Y-196701600D01*
X209930000Y-201043300D02*
X210130000Y-200843300D01*
X210130000Y-205185000D02*
X209930000Y-205385000D01*
X210130000Y-201243300D02*
X210130000Y-205185000D01*
X209930000Y-201043300D02*
X210130000Y-201243300D01*
X258983500Y-204335000D02*
X258983500Y-201035000D01*
X258983500Y-209701600D02*
X258983500Y-204335000D01*
%TD*%
M02*
