M48
; DRILL file KiCad 10.0.1 date 2026-05-14T20:43:53
; FORMAT={-:-/ absolute / metric / decimal}
; #@! TF.CreationDate,2026-05-14T20:43:53+08:00
; #@! TF.GenerationSoftware,Kicad,Pcbnew,10.0.1
; #@! TF.FileFunction,Plated,1,2,PTH
FMAT,2
METRIC
; #@! TA.AperFunction,Plated,PTH,ViaDrill
T1C0.300
; #@! TA.AperFunction,Plated,PTH,ComponentDrill
T2C0.500
; #@! TA.AperFunction,Plated,PTH,ComponentDrill
T3C0.710
; #@! TA.AperFunction,Plated,PTH,ComponentDrill
T4C0.800
; #@! TA.AperFunction,Plated,PTH,ComponentDrill
T5C1.000
; #@! TA.AperFunction,Plated,PTH,ComponentDrill
T6C1.100
; #@! TA.AperFunction,Plated,PTH,ComponentDrill
T7C1.500
%
G90
G05
T1
X15.62Y-122.4
X16.02Y-119.6
X18.57Y-101.9
X18.97Y-99.4
X19.37Y-96.9
X19.77Y-94.287
X20.168Y-81.651
X20.17Y-91.747
X20.37Y-79.1
X20.42Y-74.0
X20.57Y-89.2
X20.77Y-71.4
X20.77Y-76.5
X20.97Y-86.7
X21.37Y-83.277
X21.542Y-68.97
X22.37Y-65.3
X22.67Y-107.0
X28.67Y-125.5
X31.87Y-40.8
X32.27Y-73.1
X32.27Y-78.16
X32.27Y-80.7
X32.319Y-28.149
X32.37Y-75.7
X33.45Y-102.79
X33.55Y-58.1
X37.432Y-67.4
X37.472Y-69.756
X37.77Y-115.2
X38.222Y-67.524
X38.47Y-70.454
X38.47Y-71.254
X38.87Y-68.0
X39.57Y-68.5
X39.57Y-72.9
X39.67Y-71.9
X39.77Y-74.42
X40.27Y-69.012
X40.67Y-76.9
X41.97Y-73.7
X42.174Y-89.322
X42.264Y-84.518
X42.27Y-81.1
X42.77Y-86.2
X42.87Y-78.4
X43.07Y-75.1
X43.57Y-113.051
X43.97Y-104.5
X44.17Y-111.2
X44.296Y-119.926
X44.97Y-105.5
X44.97Y-111.2
X44.97Y-112.4
X45.17Y-117.8
X45.912Y-117.5
X47.17Y-119.0
X47.37Y-68.7
X49.77Y-139.642
X49.77Y-140.842
X50.37Y-68.1
X51.07Y-107.9
X53.47Y-103.8
X54.994Y-104.476
X56.07Y-139.642
X56.07Y-141.317
X56.37Y-54.46
X56.728Y-14.0
X57.47Y-14.3
X58.306Y-112.336
X60.855Y-110.97
X61.17Y-107.48
X62.37Y-139.6
X62.446Y-112.56
X62.47Y-142.592
X64.022Y-97.6
X64.622Y-101.4
X65.67Y-97.8
X65.926Y-105.856
X66.07Y-95.6
X67.186Y-63.084
X67.316Y-96.846
X67.37Y-66.82
X67.37Y-106.58
X67.394Y-93.324
X67.97Y-99.8
X68.115Y-97.745
X68.57Y-139.642
X68.57Y-143.192
X70.57Y-74.4
X70.95Y-104.7
X71.17Y-67.1
X71.27Y-118.1
X71.77Y-115.5
X72.27Y-100.8
X73.87Y-59.7
X73.97Y-42.76
X74.104Y-101.166
X74.77Y-139.642
X74.77Y-143.792
X74.954Y-102.016
X75.07Y-116.3
X75.57Y-29.56
X75.57Y-58.34
X75.57Y-63.42
X75.57Y-72.975
X75.77Y-77.2
X76.122Y-99.3
X76.154Y-109.993
X76.17Y-43.5
X76.17Y-56.7
X76.37Y-59.9
X76.37Y-74.175
X76.47Y-69.0
X76.754Y-110.612
X76.966Y-97.393
X77.496Y-106.374
X77.836Y-111.834
X78.142Y-110.072
X78.17Y-98.1
X78.746Y-96.14
X79.014Y-97.604
X79.87Y-128.3
X80.97Y-139.642
X80.97Y-144.392
X81.17Y-81.3
X81.517Y-117.5
X82.17Y-85.3
X82.17Y-88.9
X82.17Y-106.2
X82.27Y-70.2
X82.37Y-103.4
X82.57Y-117.5
X83.17Y-90.2
X83.17Y-107.4
X83.17Y-115.7
X83.34Y-76.5
X83.53Y-98.602
X83.57Y-97.39
X83.97Y-132.7
X85.55Y-105.0
X85.59Y-89.8
X85.67Y-107.6
X85.67Y-109.0
X85.67Y-110.0
X86.07Y-137.0
X86.07Y-141.317
X86.27Y-84.2
X86.47Y-80.0
X86.47Y-91.0
X87.17Y-139.642
X87.17Y-144.992
X87.67Y-79.4
X87.83Y-105.2
X88.17Y-28.3
X88.17Y-30.8
X88.17Y-33.4
X88.21Y-23.3
X88.21Y-25.7
X88.97Y-80.6
X88.97Y-90.6
X88.97Y-113.11
X90.27Y-76.9
X90.37Y-105.1
X91.47Y-113.51
X91.57Y-81.0
X91.57Y-91.0
X92.17Y-141.317
X92.37Y-61.7
X92.87Y-76.3
X92.91Y-105.2
X93.97Y-113.91
X94.07Y-81.4
X94.07Y-91.4
X94.57Y-61.44
X94.97Y-18.4
X95.45Y-105.5
X96.57Y-114.91
X96.57Y-137.0
X96.59Y-92.0
X96.64Y-82.0
X97.874Y-105.318
X98.37Y-132.5
X99.07Y-17.8
X99.13Y-92.4
X99.18Y-82.4
X100.53Y-105.1
X101.67Y-92.4
X101.72Y-82.4
X102.37Y-109.536
X102.47Y-128.3
X103.023Y-105.047
X104.17Y-91.4
X104.27Y-81.4
X105.374Y-111.901
X106.67Y-47.3
X107.417Y-83.4
X107.421Y-109.851
X107.919Y-84.751
X107.97Y-103.2
X108.45Y-89.4
X109.17Y-47.8
X110.27Y-89.4
X111.37Y-93.4
X111.57Y-112.2
X111.87Y-48.3
X117.57Y-83.7
X121.17Y-111.5
X123.77Y-111.5
X126.27Y-110.3
X130.57Y-116.9
X130.651Y-18.019
X135.77Y-111.0
X137.37Y-111.3
X137.37Y-112.1
X139.47Y-117.7
X140.47Y-111.5
X141.37Y-117.8
X143.47Y-112.1
X150.37Y-113.5
X150.77Y-111.1
T2
X140.47Y-83.5
X140.47Y-85.4
T3
X110.93Y-98.1
X110.93Y-113.34
X113.47Y-98.1
X113.47Y-113.34
X116.01Y-98.1
X116.01Y-113.34
X118.55Y-98.1
X118.55Y-113.34
X121.09Y-98.1
X121.09Y-113.34
X123.63Y-98.1
X123.63Y-113.34
X126.17Y-98.1
X126.17Y-113.34
X128.71Y-98.1
X128.71Y-113.34
X131.25Y-98.1
X131.25Y-113.34
X133.79Y-98.1
X133.79Y-113.34
X136.33Y-98.1
X136.33Y-113.34
X138.87Y-98.1
X138.87Y-113.34
T4
X33.73Y-65.96
X33.73Y-68.5
X33.73Y-71.04
X33.73Y-73.58
X33.73Y-76.12
X33.73Y-78.66
X33.73Y-81.2
X33.73Y-83.74
X33.73Y-86.28
X33.73Y-88.82
X33.73Y-91.36
X33.73Y-93.9
X33.73Y-96.44
X33.73Y-98.98
X33.73Y-101.52
X33.73Y-104.06
X33.73Y-106.6
X33.73Y-109.14
X33.73Y-111.68
X33.73Y-114.22
X35.25Y-43.5
X35.25Y-58.74
X42.26Y-118.0
X42.87Y-43.5
X42.87Y-58.74
X47.06Y-121.2
X48.36Y-123.5
X48.97Y-65.96
X48.97Y-68.5
X48.97Y-71.04
X48.97Y-73.58
X48.97Y-76.12
X48.97Y-78.66
X48.97Y-81.2
X48.97Y-83.74
X48.97Y-86.28
X48.97Y-88.82
X48.97Y-91.36
X48.97Y-93.9
X48.97Y-96.44
X48.97Y-98.98
X48.97Y-101.52
X48.97Y-104.06
X48.97Y-106.6
X48.97Y-109.14
X48.97Y-111.68
X48.97Y-114.22
X49.88Y-118.0
X52.15Y-83.06
X52.15Y-85.6
X52.15Y-88.14
X52.15Y-90.68
X52.15Y-93.22
X52.15Y-95.76
X52.15Y-98.3
X52.15Y-101.56
X52.15Y-104.1
X52.15Y-106.64
X52.15Y-109.18
X52.15Y-111.72
X52.15Y-114.26
X52.15Y-116.8
X53.25Y-70.99
X53.25Y-78.61
X54.68Y-121.2
X54.83Y-16.86
X54.83Y-19.4
X54.83Y-21.94
X54.83Y-24.48
X54.83Y-27.02
X54.83Y-29.56
X54.83Y-32.1
X54.83Y-34.64
X54.83Y-37.18
X54.83Y-39.72
X54.83Y-42.26
X54.83Y-44.8
X54.83Y-47.34
X54.83Y-49.88
X54.83Y-52.42
X54.83Y-54.96
X54.83Y-57.5
X54.83Y-60.04
X54.83Y-62.58
X54.83Y-65.12
X55.98Y-123.5
X59.77Y-83.06
X59.77Y-85.6
X59.77Y-88.14
X59.77Y-90.68
X59.77Y-93.22
X59.77Y-95.76
X59.77Y-98.3
X59.77Y-101.56
X59.77Y-104.1
X59.77Y-106.64
X59.77Y-109.18
X59.77Y-111.72
X59.77Y-114.26
X59.77Y-116.8
X62.555Y-83.12
X62.555Y-85.66
X62.555Y-88.2
X62.555Y-90.74
X62.555Y-93.28
X62.555Y-95.82
X62.555Y-98.36
X62.555Y-100.9
X62.555Y-103.44
X62.555Y-105.98
X62.555Y-108.52
X62.555Y-111.06
X68.49Y-70.99
X68.49Y-78.61
X70.07Y-16.86
X70.07Y-19.4
X70.07Y-21.94
X70.07Y-24.48
X70.07Y-27.02
X70.07Y-29.56
X70.07Y-32.1
X70.07Y-34.64
X70.07Y-37.18
X70.07Y-39.72
X70.07Y-42.26
X70.07Y-44.8
X70.07Y-47.34
X70.07Y-49.88
X70.07Y-52.42
X70.07Y-54.96
X70.07Y-57.5
X70.07Y-60.04
X70.07Y-62.58
X70.07Y-65.12
X70.175Y-83.12
X70.175Y-85.66
X70.175Y-88.2
X70.175Y-90.74
X70.175Y-93.28
X70.175Y-95.82
X70.175Y-98.36
X70.175Y-100.9
X70.175Y-103.44
X70.175Y-105.98
X70.175Y-108.52
X70.175Y-111.06
X72.37Y-16.86
X72.37Y-19.4
X72.37Y-21.94
X72.37Y-24.48
X72.37Y-27.02
X72.37Y-29.56
X72.37Y-32.1
X72.37Y-34.64
X72.37Y-37.18
X72.37Y-39.72
X72.37Y-42.26
X72.37Y-44.8
X72.37Y-47.34
X72.37Y-49.88
X72.37Y-52.42
X72.37Y-54.96
X72.37Y-57.5
X72.37Y-60.04
X72.37Y-62.58
X72.37Y-65.12
X72.65Y-103.1
X72.65Y-105.64
X72.65Y-108.18
X72.65Y-110.72
X72.65Y-113.26
X72.65Y-115.8
X72.65Y-118.34
X72.85Y-82.6
X72.85Y-85.14
X72.85Y-87.68
X72.85Y-90.22
X72.85Y-92.76
X72.85Y-95.3
X72.85Y-97.84
X80.27Y-103.1
X80.27Y-105.64
X80.27Y-108.18
X80.27Y-110.72
X80.27Y-113.26
X80.27Y-115.8
X80.27Y-118.34
X80.47Y-82.6
X80.47Y-85.14
X80.47Y-87.68
X80.47Y-90.22
X80.47Y-92.76
X80.47Y-95.3
X80.47Y-97.84
X83.85Y-103.79
X83.85Y-111.41
X83.89Y-88.4
X83.89Y-96.02
X83.94Y-78.6
X83.94Y-86.22
X86.39Y-103.79
X86.39Y-111.41
X86.43Y-88.4
X86.43Y-96.02
X86.48Y-78.6
X86.48Y-86.22
X87.307Y-115.958
X87.307Y-123.578
X87.61Y-16.86
X87.61Y-19.4
X87.61Y-21.94
X87.61Y-24.48
X87.61Y-27.02
X87.61Y-29.56
X87.61Y-32.1
X87.61Y-34.64
X87.61Y-37.18
X87.61Y-39.72
X87.61Y-42.26
X87.61Y-44.8
X87.61Y-47.34
X87.61Y-49.88
X87.61Y-52.42
X87.61Y-54.96
X87.61Y-57.5
X87.61Y-60.04
X87.61Y-62.58
X87.61Y-65.12
X88.93Y-103.79
X88.93Y-111.41
X88.97Y-88.4
X88.97Y-96.02
X89.02Y-78.6
X89.02Y-86.22
X89.847Y-115.958
X89.847Y-123.578
X91.47Y-103.79
X91.47Y-111.41
X91.51Y-88.4
X91.51Y-96.02
X91.56Y-78.6
X91.56Y-86.22
X92.387Y-115.958
X92.387Y-123.578
X94.01Y-103.79
X94.01Y-111.41
X94.05Y-88.4
X94.05Y-96.02
X94.1Y-78.6
X94.1Y-86.22
X94.927Y-115.958
X94.927Y-123.578
X96.55Y-103.79
X96.55Y-111.41
X96.59Y-88.4
X96.59Y-96.02
X96.64Y-78.6
X96.64Y-86.22
X97.467Y-115.958
X97.467Y-123.578
X99.09Y-103.79
X99.09Y-111.41
X99.13Y-88.4
X99.13Y-96.02
X99.18Y-78.6
X99.18Y-86.22
X100.007Y-115.958
X100.007Y-123.578
X101.63Y-103.79
X101.63Y-111.41
X101.67Y-88.4
X101.67Y-96.02
X101.72Y-78.6
X101.72Y-86.22
X102.547Y-115.958
X102.547Y-123.578
X104.17Y-103.79
X104.17Y-111.41
X104.21Y-88.4
X104.21Y-96.02
X104.26Y-78.6
X104.26Y-86.22
X105.087Y-115.958
X105.087Y-123.578
X106.71Y-103.79
X106.71Y-111.41
X106.75Y-88.4
X106.75Y-96.02
X106.8Y-78.6
X106.8Y-86.22
X107.627Y-115.958
X107.627Y-123.578
X110.09Y-79.58
X110.09Y-94.82
X110.167Y-115.958
X110.167Y-123.578
X112.63Y-79.58
X112.63Y-94.82
X115.17Y-79.58
X115.17Y-94.82
X116.507Y-115.953
X116.507Y-123.573
X117.71Y-79.58
X117.71Y-94.82
X119.047Y-115.953
X119.047Y-123.573
X120.25Y-79.58
X120.25Y-94.82
X121.587Y-115.953
X121.587Y-123.573
X123.59Y-79.38
X123.59Y-94.62
X124.127Y-115.953
X124.127Y-123.573
X126.13Y-79.38
X126.13Y-94.62
X126.667Y-115.953
X126.667Y-123.573
X128.67Y-79.38
X128.67Y-94.62
X129.207Y-115.953
X129.207Y-123.573
X131.21Y-79.38
X131.21Y-94.62
X131.747Y-115.953
X131.747Y-123.573
X133.75Y-79.38
X133.75Y-94.62
X134.287Y-115.953
X134.287Y-123.573
X136.77Y-88.09
X136.77Y-95.71
X136.827Y-115.953
X136.827Y-123.573
X136.87Y-78.29
X136.87Y-85.91
X139.367Y-115.953
X139.367Y-123.573
X139.87Y-88.09
X139.87Y-95.71
T5
X23.94Y-17.91
X23.94Y-20.45
X23.94Y-22.99
X23.94Y-25.53
X23.94Y-28.07
X23.94Y-30.61
X23.94Y-33.15
X23.94Y-35.69
X24.17Y-40.947
X24.17Y-43.487
X24.17Y-46.027
X24.17Y-48.567
X24.17Y-51.107
X24.17Y-53.647
X24.17Y-56.187
X24.17Y-58.727
X24.17Y-61.267
X24.17Y-63.807
X24.17Y-66.347
X24.17Y-68.887
X24.17Y-71.427
X24.17Y-73.967
X24.17Y-76.507
X24.17Y-79.047
X24.17Y-81.587
X24.17Y-84.127
X24.17Y-86.667
X24.17Y-89.207
X24.17Y-91.747
X24.17Y-94.287
X24.17Y-96.827
X24.17Y-99.367
X24.17Y-101.907
X24.17Y-104.447
X24.17Y-106.987
X24.17Y-109.527
X24.17Y-112.067
X24.17Y-114.607
X24.17Y-117.147
X24.17Y-119.687
X24.17Y-122.227
X24.17Y-124.767
X24.17Y-127.307
X24.17Y-129.847
X24.17Y-132.387
X24.17Y-134.927
X24.17Y-137.467
X24.17Y-140.007
X39.17Y-17.91
X39.17Y-20.45
X39.17Y-22.99
X39.17Y-25.53
X39.17Y-28.07
X39.17Y-30.61
X39.17Y-33.15
X39.17Y-35.69
X47.27Y-16.0
X47.27Y-23.6
X48.77Y-27.86
X48.77Y-30.4
X48.77Y-32.94
X48.77Y-35.48
X48.77Y-38.02
X48.77Y-40.56
X48.77Y-43.1
X48.77Y-45.64
X48.77Y-48.18
X48.77Y-50.72
X48.77Y-53.26
X48.77Y-55.8
X48.77Y-58.34
X48.77Y-60.88
X84.17Y-71.035
X84.17Y-73.575
X96.55Y-19.51
X96.55Y-29.67
X96.55Y-40.825
X96.55Y-50.985
X96.55Y-62.14
X96.55Y-72.3
X99.09Y-19.51
X99.09Y-29.67
X99.09Y-40.825
X99.09Y-50.985
X99.09Y-62.14
X99.09Y-72.3
X101.63Y-19.51
X101.63Y-29.67
X101.63Y-40.825
X101.63Y-50.985
X101.63Y-62.14
X101.63Y-72.3
X104.17Y-19.51
X104.17Y-29.67
X104.17Y-40.825
X104.17Y-50.985
X104.17Y-62.14
X104.17Y-72.3
X106.71Y-19.51
X106.71Y-29.67
X106.71Y-40.825
X106.71Y-50.985
X106.71Y-62.14
X106.71Y-72.3
X109.25Y-19.51
X109.25Y-29.67
X109.25Y-40.825
X109.25Y-50.985
X109.25Y-62.14
X109.25Y-72.3
X111.79Y-19.51
X111.79Y-29.67
X111.79Y-40.825
X111.79Y-50.985
X111.79Y-62.14
X111.79Y-72.3
X114.33Y-19.51
X114.33Y-29.67
X114.33Y-40.825
X114.33Y-50.985
X114.33Y-62.14
X114.33Y-72.3
X116.87Y-19.51
X116.87Y-29.67
X116.87Y-40.825
X116.87Y-50.985
X116.87Y-62.14
X116.87Y-72.3
X119.41Y-19.51
X119.41Y-29.67
X119.41Y-40.825
X119.41Y-50.985
X119.41Y-62.14
X119.41Y-72.3
X121.95Y-19.51
X121.95Y-29.67
X121.95Y-40.825
X121.95Y-50.985
X121.95Y-62.14
X121.95Y-72.3
X124.49Y-19.51
X124.49Y-29.67
X124.49Y-40.825
X124.49Y-50.985
X124.49Y-62.14
X124.49Y-72.3
X127.03Y-19.51
X127.03Y-29.67
X127.03Y-40.825
X127.03Y-50.985
X127.03Y-62.14
X127.03Y-72.3
X129.57Y-19.51
X129.57Y-29.67
X129.57Y-40.825
X129.57Y-50.985
X129.57Y-62.14
X129.57Y-72.3
T6
X73.47Y-69.5
X73.47Y-76.0
X77.97Y-69.5
X77.97Y-76.0
T7
X38.27Y-119.143
X38.27Y-139.943
M30
