%TF.GenerationSoftware,KiCad,Pcbnew,10.0.1*%
%TF.CreationDate,2026-05-14T20:43:56+08:00*%
%TF.ProjectId,z80handheld,7a383068-616e-4646-9865-6c642e6b6963,rev?*%
%TF.SameCoordinates,Original*%
%TF.FileFunction,Legend,Bot*%
%TF.FilePolarity,Positive*%
%FSLAX46Y46*%
G04 Gerber Fmt 4.6, Leading zero omitted, Abs format (unit mm)*
G04 Created by KiCad (PCBNEW 10.0.1) date 2026-05-14 20:43:56*
%MOMM*%
%LPD*%
G01*
G04 APERTURE LIST*
%ADD10C,0.150000*%
%ADD11C,0.120000*%
G04 APERTURE END LIST*
D10*
X140584868Y-66458095D02*
X141394391Y-66458095D01*
X141394391Y-66458095D02*
X141489629Y-66505714D01*
X141489629Y-66505714D02*
X141537249Y-66553333D01*
X141537249Y-66553333D02*
X141584868Y-66648571D01*
X141584868Y-66648571D02*
X141584868Y-66839047D01*
X141584868Y-66839047D02*
X141537249Y-66934285D01*
X141537249Y-66934285D02*
X141489629Y-66981904D01*
X141489629Y-66981904D02*
X141394391Y-67029523D01*
X141394391Y-67029523D02*
X140584868Y-67029523D01*
X140584868Y-67410476D02*
X140584868Y-68077142D01*
X140584868Y-68077142D02*
X141584868Y-67648571D01*
X140584868Y-45143095D02*
X141394391Y-45143095D01*
X141394391Y-45143095D02*
X141489629Y-45190714D01*
X141489629Y-45190714D02*
X141537249Y-45238333D01*
X141537249Y-45238333D02*
X141584868Y-45333571D01*
X141584868Y-45333571D02*
X141584868Y-45524047D01*
X141584868Y-45524047D02*
X141537249Y-45619285D01*
X141537249Y-45619285D02*
X141489629Y-45666904D01*
X141489629Y-45666904D02*
X141394391Y-45714523D01*
X141394391Y-45714523D02*
X140584868Y-45714523D01*
X141013439Y-46333571D02*
X140965820Y-46238333D01*
X140965820Y-46238333D02*
X140918201Y-46190714D01*
X140918201Y-46190714D02*
X140822963Y-46143095D01*
X140822963Y-46143095D02*
X140775344Y-46143095D01*
X140775344Y-46143095D02*
X140680106Y-46190714D01*
X140680106Y-46190714D02*
X140632487Y-46238333D01*
X140632487Y-46238333D02*
X140584868Y-46333571D01*
X140584868Y-46333571D02*
X140584868Y-46524047D01*
X140584868Y-46524047D02*
X140632487Y-46619285D01*
X140632487Y-46619285D02*
X140680106Y-46666904D01*
X140680106Y-46666904D02*
X140775344Y-46714523D01*
X140775344Y-46714523D02*
X140822963Y-46714523D01*
X140822963Y-46714523D02*
X140918201Y-46666904D01*
X140918201Y-46666904D02*
X140965820Y-46619285D01*
X140965820Y-46619285D02*
X141013439Y-46524047D01*
X141013439Y-46524047D02*
X141013439Y-46333571D01*
X141013439Y-46333571D02*
X141061058Y-46238333D01*
X141061058Y-46238333D02*
X141108677Y-46190714D01*
X141108677Y-46190714D02*
X141203915Y-46143095D01*
X141203915Y-46143095D02*
X141394391Y-46143095D01*
X141394391Y-46143095D02*
X141489629Y-46190714D01*
X141489629Y-46190714D02*
X141537249Y-46238333D01*
X141537249Y-46238333D02*
X141584868Y-46333571D01*
X141584868Y-46333571D02*
X141584868Y-46524047D01*
X141584868Y-46524047D02*
X141537249Y-46619285D01*
X141537249Y-46619285D02*
X141489629Y-46666904D01*
X141489629Y-46666904D02*
X141394391Y-46714523D01*
X141394391Y-46714523D02*
X141203915Y-46714523D01*
X141203915Y-46714523D02*
X141108677Y-46666904D01*
X141108677Y-46666904D02*
X141061058Y-46619285D01*
X141061058Y-46619285D02*
X141013439Y-46524047D01*
X140584868Y-23828095D02*
X141394391Y-23828095D01*
X141394391Y-23828095D02*
X141489629Y-23875714D01*
X141489629Y-23875714D02*
X141537249Y-23923333D01*
X141537249Y-23923333D02*
X141584868Y-24018571D01*
X141584868Y-24018571D02*
X141584868Y-24209047D01*
X141584868Y-24209047D02*
X141537249Y-24304285D01*
X141537249Y-24304285D02*
X141489629Y-24351904D01*
X141489629Y-24351904D02*
X141394391Y-24399523D01*
X141394391Y-24399523D02*
X140584868Y-24399523D01*
X141584868Y-24923333D02*
X141584868Y-25113809D01*
X141584868Y-25113809D02*
X141537249Y-25209047D01*
X141537249Y-25209047D02*
X141489629Y-25256666D01*
X141489629Y-25256666D02*
X141346772Y-25351904D01*
X141346772Y-25351904D02*
X141156296Y-25399523D01*
X141156296Y-25399523D02*
X140775344Y-25399523D01*
X140775344Y-25399523D02*
X140680106Y-25351904D01*
X140680106Y-25351904D02*
X140632487Y-25304285D01*
X140632487Y-25304285D02*
X140584868Y-25209047D01*
X140584868Y-25209047D02*
X140584868Y-25018571D01*
X140584868Y-25018571D02*
X140632487Y-24923333D01*
X140632487Y-24923333D02*
X140680106Y-24875714D01*
X140680106Y-24875714D02*
X140775344Y-24828095D01*
X140775344Y-24828095D02*
X141013439Y-24828095D01*
X141013439Y-24828095D02*
X141108677Y-24875714D01*
X141108677Y-24875714D02*
X141156296Y-24923333D01*
X141156296Y-24923333D02*
X141203915Y-25018571D01*
X141203915Y-25018571D02*
X141203915Y-25209047D01*
X141203915Y-25209047D02*
X141156296Y-25304285D01*
X141156296Y-25304285D02*
X141108677Y-25351904D01*
X141108677Y-25351904D02*
X141013439Y-25399523D01*
X34001058Y-116856830D02*
X34048677Y-116999687D01*
X34048677Y-116999687D02*
X34096296Y-117047306D01*
X34096296Y-117047306D02*
X34191534Y-117094925D01*
X34191534Y-117094925D02*
X34334391Y-117094925D01*
X34334391Y-117094925D02*
X34429629Y-117047306D01*
X34429629Y-117047306D02*
X34477249Y-116999687D01*
X34477249Y-116999687D02*
X34524868Y-116904449D01*
X34524868Y-116904449D02*
X34524868Y-116523497D01*
X34524868Y-116523497D02*
X33524868Y-116523497D01*
X33524868Y-116523497D02*
X33524868Y-116856830D01*
X33524868Y-116856830D02*
X33572487Y-116952068D01*
X33572487Y-116952068D02*
X33620106Y-116999687D01*
X33620106Y-116999687D02*
X33715344Y-117047306D01*
X33715344Y-117047306D02*
X33810582Y-117047306D01*
X33810582Y-117047306D02*
X33905820Y-116999687D01*
X33905820Y-116999687D02*
X33953439Y-116952068D01*
X33953439Y-116952068D02*
X34001058Y-116856830D01*
X34001058Y-116856830D02*
X34001058Y-116523497D01*
X33524868Y-117380640D02*
X33524868Y-117952068D01*
X34524868Y-117666354D02*
X33524868Y-117666354D01*
X34524868Y-118809211D02*
X34524868Y-118237783D01*
X34524868Y-118523497D02*
X33524868Y-118523497D01*
X33524868Y-118523497D02*
X33667725Y-118428259D01*
X33667725Y-118428259D02*
X33762963Y-118333021D01*
X33762963Y-118333021D02*
X33810582Y-118237783D01*
%TO.C,U7*%
D11*
X89530049Y-58220000D02*
X140230049Y-58220000D01*
X89530049Y-76220000D02*
X89530049Y-58220000D01*
X128300049Y-77250000D02*
X130840049Y-77250000D01*
X133470049Y-76220000D02*
X89530049Y-76220000D01*
X140230049Y-58220000D02*
X140230049Y-76220000D01*
X140230049Y-73950000D02*
X137970049Y-73950000D01*
X140230049Y-76220000D02*
X138370049Y-76220000D01*
X138470049Y-75500000D02*
G75*
G02*
X133370049Y-75500000I-2550000J0D01*
G01*
X133370049Y-75500000D02*
G75*
G02*
X138470049Y-75500000I2550000J0D01*
G01*
X136820049Y-75500000D02*
G75*
G02*
X135020049Y-75500000I-900000J0D01*
G01*
X135020049Y-75500000D02*
G75*
G02*
X136820049Y-75500000I900000J0D01*
G01*
%TO.C,U8*%
X89530049Y-36905000D02*
X140230049Y-36905000D01*
X89530049Y-54905000D02*
X89530049Y-36905000D01*
X128300049Y-55935000D02*
X130840049Y-55935000D01*
X133470049Y-54905000D02*
X89530049Y-54905000D01*
X140230049Y-36905000D02*
X140230049Y-54905000D01*
X140230049Y-52635000D02*
X137970049Y-52635000D01*
X140230049Y-54905000D02*
X138370049Y-54905000D01*
X138470049Y-54185000D02*
G75*
G02*
X133370049Y-54185000I-2550000J0D01*
G01*
X133370049Y-54185000D02*
G75*
G02*
X138470049Y-54185000I2550000J0D01*
G01*
X136820049Y-54185000D02*
G75*
G02*
X135020049Y-54185000I-900000J0D01*
G01*
X135020049Y-54185000D02*
G75*
G02*
X136820049Y-54185000I900000J0D01*
G01*
%TO.C,U9*%
X89530049Y-15590000D02*
X140230049Y-15590000D01*
X89530049Y-33590000D02*
X89530049Y-15590000D01*
X128300049Y-34620000D02*
X130840049Y-34620000D01*
X133470049Y-33590000D02*
X89530049Y-33590000D01*
X140230049Y-15590000D02*
X140230049Y-33590000D01*
X140230049Y-31320000D02*
X137970049Y-31320000D01*
X140230049Y-33590000D02*
X138370049Y-33590000D01*
X138470049Y-32870000D02*
G75*
G02*
X133370049Y-32870000I-2550000J0D01*
G01*
X133370049Y-32870000D02*
G75*
G02*
X138470049Y-32870000I2550000J0D01*
G01*
X136820049Y-32870000D02*
G75*
G02*
X135020049Y-32870000I-900000J0D01*
G01*
X135020049Y-32870000D02*
G75*
G02*
X136820049Y-32870000I900000J0D01*
G01*
%TO.C,BT1*%
X37770049Y-121042545D02*
X38770049Y-121042545D01*
X38270049Y-120542545D02*
X38270049Y-121542545D01*
X41370049Y-120042546D02*
G75*
G02*
X35170049Y-120042546I-3100000J-11499999D01*
G01*
%TD*%
M02*
