%TF.GenerationSoftware,KiCad,Pcbnew,10.0.1*%
%TF.CreationDate,2026-05-14T20:43:56+08:00*%
%TF.ProjectId,z80handheld,7a383068-616e-4646-9865-6c642e6b6963,rev?*%
%TF.SameCoordinates,Original*%
%TF.FileFunction,Copper,L1,Top*%
%TF.FilePolarity,Positive*%
%FSLAX46Y46*%
G04 Gerber Fmt 4.6, Leading zero omitted, Abs format (unit mm)*
G04 Created by KiCad (PCBNEW 10.0.1) date 2026-05-14 20:43:56*
%MOMM*%
%LPD*%
G01*
G04 APERTURE LIST*
G04 Aperture macros list*
%AMRoundRect*
0 Rectangle with rounded corners*
0 $1 Rounding radius*
0 $2 $3 $4 $5 $6 $7 $8 $9 X,Y pos of 4 corners*
0 Add a 4 corners polygon primitive as box body*
4,1,4,$2,$3,$4,$5,$6,$7,$8,$9,$2,$3,0*
0 Add four circle primitives for the rounded corners*
1,1,$1+$1,$2,$3*
1,1,$1+$1,$4,$5*
1,1,$1+$1,$6,$7*
1,1,$1+$1,$8,$9*
0 Add four rect primitives between the rounded corners*
20,1,$1+$1,$2,$3,$4,$5,0*
20,1,$1+$1,$4,$5,$6,$7,0*
20,1,$1+$1,$6,$7,$8,$9,0*
20,1,$1+$1,$8,$9,$2,$3,0*%
G04 Aperture macros list end*
%TA.AperFunction,SMDPad,CuDef*%
%ADD10R,1.050000X0.650000*%
%TD*%
%TA.AperFunction,ComponentPad*%
%ADD11C,1.600000*%
%TD*%
%TA.AperFunction,SMDPad,CuDef*%
%ADD12RoundRect,0.250001X-0.462499X-0.624999X0.462499X-0.624999X0.462499X0.624999X-0.462499X0.624999X0*%
%TD*%
%TA.AperFunction,ComponentPad*%
%ADD13R,1.700000X1.700000*%
%TD*%
%TA.AperFunction,ComponentPad*%
%ADD14C,1.700000*%
%TD*%
%TA.AperFunction,ComponentPad*%
%ADD15RoundRect,0.250000X0.550000X0.550000X-0.550000X0.550000X-0.550000X-0.550000X0.550000X-0.550000X0*%
%TD*%
%TA.AperFunction,SMDPad,CuDef*%
%ADD16RoundRect,0.250001X0.462499X0.624999X-0.462499X0.624999X-0.462499X-0.624999X0.462499X-0.624999X0*%
%TD*%
%TA.AperFunction,ComponentPad*%
%ADD17RoundRect,0.250000X-0.550000X-0.550000X0.550000X-0.550000X0.550000X0.550000X-0.550000X0.550000X0*%
%TD*%
%TA.AperFunction,ComponentPad*%
%ADD18R,1.600000X1.600000*%
%TD*%
%TA.AperFunction,ComponentPad*%
%ADD19RoundRect,0.250000X0.550000X-0.550000X0.550000X0.550000X-0.550000X0.550000X-0.550000X-0.550000X0*%
%TD*%
%TA.AperFunction,ComponentPad*%
%ADD20R,1.524000X2.524000*%
%TD*%
%TA.AperFunction,ComponentPad*%
%ADD21O,1.524000X2.524000*%
%TD*%
%TA.AperFunction,SMDPad,CuDef*%
%ADD22RoundRect,0.250001X0.624999X-0.462499X0.624999X0.462499X-0.624999X0.462499X-0.624999X-0.462499X0*%
%TD*%
%TA.AperFunction,ComponentPad*%
%ADD23R,1.110000X1.110000*%
%TD*%
%TA.AperFunction,ComponentPad*%
%ADD24C,1.110000*%
%TD*%
%TA.AperFunction,ComponentPad*%
%ADD25C,2.000000*%
%TD*%
%TA.AperFunction,ComponentPad*%
%ADD26R,2.000000X2.000000*%
%TD*%
%TA.AperFunction,ComponentPad*%
%ADD27RoundRect,0.250000X-0.550000X0.550000X-0.550000X-0.550000X0.550000X-0.550000X0.550000X0.550000X0*%
%TD*%
%TA.AperFunction,ComponentPad*%
%ADD28C,1.000000*%
%TD*%
%TA.AperFunction,ComponentPad*%
%ADD29R,1.440000X2.000000*%
%TD*%
%TA.AperFunction,ComponentPad*%
%ADD30O,1.440000X2.000000*%
%TD*%
%TA.AperFunction,ViaPad*%
%ADD31C,0.600000*%
%TD*%
%TA.AperFunction,Conductor*%
%ADD32C,0.200000*%
%TD*%
G04 APERTURE END LIST*
D10*
%TO.P,SW58,1,1_1*%
%TO.N,Net-(U5-Q7)*%
X42552249Y-130533300D03*
X46702249Y-130533300D03*
%TO.P,SW58,2,2_2*%
%TO.N,Net-(U11-D6)*%
X42552249Y-132683300D03*
X46702249Y-132683300D03*
%TD*%
%TO.P,SW20,1,1_1*%
%TO.N,Net-(U5-Q2)*%
X73641449Y-139216600D03*
X77791449Y-139216600D03*
%TO.P,SW20,2,2_2*%
%TO.N,Net-(U11-D4)*%
X73641449Y-141366600D03*
X77791449Y-141366600D03*
%TD*%
D11*
%TO.P,R2,1*%
%TO.N,5V*%
X49880049Y-118000000D03*
%TO.P,R2,2*%
%TO.N,Net-(U10-~{NMI})*%
X42260049Y-118000000D03*
%TD*%
D12*
%TO.P,D21,1,K_1*%
%TO.N,!MREQ*%
X27327549Y-128433300D03*
%TO.P,D21,2,A_2*%
%TO.N,5V*%
X30302549Y-128433300D03*
%TD*%
D13*
%TO.P,J5,1,Pin_1_1*%
%TO.N,5V*%
X24170049Y-140007167D03*
D14*
%TO.P,J5,2,Pin_2_2*%
%TO.N,GND*%
X24170049Y-137467167D03*
%TO.P,J5,3,Pin_3_3*%
%TO.N,TX2*%
X24170049Y-134927167D03*
%TO.P,J5,4,Pin_4_4*%
%TO.N,RX2*%
X24170049Y-132387167D03*
%TO.P,J5,5,Pin_5_5*%
%TO.N,!M1*%
X24170049Y-129847167D03*
%TO.P,J5,6,Pin_6_6*%
%TO.N,!MREQ*%
X24170049Y-127307167D03*
%TO.P,J5,7,Pin_7_7*%
%TO.N,!IORQ*%
X24170049Y-124767167D03*
%TO.P,J5,8,Pin_8_8*%
%TO.N,!RD*%
X24170049Y-122227167D03*
%TO.P,J5,9,Pin_9_9*%
%TO.N,!WR*%
X24170049Y-119687167D03*
%TO.P,J5,10,Pin_10_10*%
%TO.N,!INT*%
X24170049Y-117147167D03*
%TO.P,J5,11,Pin_11_11*%
%TO.N,!HALT*%
X24170049Y-114607167D03*
%TO.P,J5,12,Pin_12_12*%
%TO.N,!RESET*%
X24170049Y-112067167D03*
%TO.P,J5,13,Pin_13_13*%
%TO.N,IO8*%
X24170049Y-109527167D03*
%TO.P,J5,14,Pin_14_14*%
%TO.N,CLK*%
X24170049Y-106987167D03*
%TO.P,J5,15,Pin_15_15*%
%TO.N,unconnected-(J5-Pin_15-Pad15)*%
X24170049Y-104447167D03*
%TO.P,J5,16,Pin_16_16*%
%TO.N,/A0*%
X24170049Y-101907167D03*
%TO.P,J5,17,Pin_17_17*%
%TO.N,/A1*%
X24170049Y-99367167D03*
%TO.P,J5,18,Pin_18_18*%
%TO.N,/A2*%
X24170049Y-96827167D03*
%TO.P,J5,19,Pin_19_19*%
%TO.N,/A3*%
X24170049Y-94287167D03*
%TO.P,J5,20,Pin_20_20*%
%TO.N,/A4*%
X24170049Y-91747167D03*
%TO.P,J5,21,Pin_21_21*%
%TO.N,/A5*%
X24170049Y-89207167D03*
%TO.P,J5,22,Pin_22_22*%
%TO.N,/A6*%
X24170049Y-86667167D03*
%TO.P,J5,23,Pin_23_23*%
%TO.N,/A7*%
X24170049Y-84127167D03*
%TO.P,J5,24,Pin_24_24*%
%TO.N,/A8*%
X24170049Y-81587167D03*
%TO.P,J5,25,Pin_25_25*%
%TO.N,/A9*%
X24170049Y-79047167D03*
%TO.P,J5,26,Pin_26_26*%
%TO.N,/A10*%
X24170049Y-76507167D03*
%TO.P,J5,27,Pin_27_27*%
%TO.N,/A11*%
X24170049Y-73967167D03*
%TO.P,J5,28,Pin_28_28*%
%TO.N,/A12*%
X24170049Y-71427167D03*
%TO.P,J5,29,Pin_29_29*%
%TO.N,/A13*%
X24170049Y-68887167D03*
%TO.P,J5,30,Pin_30_30*%
%TO.N,/A14*%
X24170049Y-66347167D03*
%TO.P,J5,31,Pin_31_31*%
%TO.N,A15*%
X24170049Y-63807167D03*
%TO.P,J5,32,Pin_32_32*%
%TO.N,unconnected-(J5-Pin_32-Pad32)*%
X24170049Y-61267167D03*
%TO.P,J5,33,Pin_33_33*%
%TO.N,/D0*%
X24170049Y-58727167D03*
%TO.P,J5,34,Pin_34_34*%
%TO.N,/D1*%
X24170049Y-56187167D03*
%TO.P,J5,35,Pin_35_35*%
%TO.N,/D2*%
X24170049Y-53647167D03*
%TO.P,J5,36,Pin_36_36*%
%TO.N,/D3*%
X24170049Y-51107167D03*
%TO.P,J5,37,Pin_37_37*%
%TO.N,/D4*%
X24170049Y-48567167D03*
%TO.P,J5,38,Pin_38_38*%
%TO.N,/D5*%
X24170049Y-46027167D03*
%TO.P,J5,39,Pin_39_39*%
%TO.N,/D6*%
X24170049Y-43487167D03*
%TO.P,J5,40,Pin_40_40*%
%TO.N,/D7*%
X24170049Y-40947167D03*
%TD*%
D10*
%TO.P,SW31,1,1_1*%
%TO.N,Net-(U5-Q3)*%
X117077249Y-134858300D03*
X121227249Y-134858300D03*
%TO.P,SW31,2,2_2*%
%TO.N,Net-(U11-D1)*%
X117077249Y-137008300D03*
X121227249Y-137008300D03*
%TD*%
D15*
%TO.P,U18,1*%
%TO.N,A15*%
X80470049Y-97840000D03*
D11*
%TO.P,U18,2*%
%TO.N,Net-(U1-Pad4)*%
X80470049Y-95300000D03*
%TO.P,U18,3*%
%TO.N,!CS_EEPROM*%
X80470049Y-92760000D03*
%TO.P,U18,4*%
%TO.N,A15*%
X80470049Y-90220000D03*
%TO.P,U18,5*%
%TO.N,Net-(U1-Pad4)*%
X80470049Y-87680000D03*
%TO.P,U18,6*%
%TO.N,!CS_RAM*%
X80470049Y-85140000D03*
%TO.P,U18,7,GND_7*%
%TO.N,GND*%
X80470049Y-82600000D03*
%TO.P,U18,8*%
%TO.N,!CS_Main*%
X72850049Y-82600000D03*
%TO.P,U18,9*%
%TO.N,Net-(U1-Pad12)*%
X72850049Y-85140000D03*
%TO.P,U18,10*%
%TO.N,Net-(U1-Pad4)*%
X72850049Y-87680000D03*
%TO.P,U18,11*%
%TO.N,unconnected-(U18-Pad11)*%
X72850049Y-90220000D03*
%TO.P,U18,12*%
%TO.N,unconnected-(U18-Pad12)*%
X72850049Y-92760000D03*
%TO.P,U18,13*%
%TO.N,unconnected-(U18-Pad13)*%
X72850049Y-95300000D03*
%TO.P,U18,14,VCC_14*%
%TO.N,5V*%
X72850049Y-97840000D03*
%TD*%
D10*
%TO.P,SW12,1,1_1*%
%TO.N,Net-(U5-Q1)*%
X79859349Y-139216600D03*
X84009349Y-139216600D03*
%TO.P,SW12,2,2_2*%
%TO.N,Net-(U11-D4)*%
X79859349Y-141366600D03*
X84009349Y-141366600D03*
%TD*%
%TO.P,SW61,1,1_1*%
%TO.N,Net-(U5-Q7)*%
X92205749Y-126191600D03*
X96355749Y-126191600D03*
%TO.P,SW61,2,2_2*%
%TO.N,Net-(U11-D3)*%
X92205749Y-128341600D03*
X96355749Y-128341600D03*
%TD*%
D16*
%TO.P,D7,1,K_1*%
%TO.N,GND*%
X30257549Y-101754167D03*
%TO.P,D7,2,A_2*%
%TO.N,/A3*%
X27282549Y-101754167D03*
%TD*%
D10*
%TO.P,SW22,1,1_1*%
%TO.N,Net-(U5-Q2)*%
X123295049Y-130525000D03*
X127445049Y-130525000D03*
%TO.P,SW22,2,2_2*%
%TO.N,Net-(U11-D2)*%
X123295049Y-132675000D03*
X127445049Y-132675000D03*
%TD*%
D11*
%TO.P,R5,1*%
%TO.N,!RESET*%
X139870049Y-88090000D03*
%TO.P,R5,2*%
%TO.N,5V*%
X139870049Y-95710000D03*
%TD*%
D17*
%TO.P,U10,1,A_{11}_1*%
%TO.N,/A11*%
X33730049Y-65960000D03*
D11*
%TO.P,U10,2,A_{12}_2*%
%TO.N,/A12*%
X33730049Y-68500000D03*
%TO.P,U10,3,A_{13}_3*%
%TO.N,/A13*%
X33730049Y-71040000D03*
%TO.P,U10,4,A_{14}_4*%
%TO.N,/A14*%
X33730049Y-73580000D03*
%TO.P,U10,5,A_{15}_5*%
%TO.N,A15*%
X33730049Y-76120000D03*
%TO.P,U10,6,CLK_6*%
%TO.N,CLK*%
X33730049Y-78660000D03*
%TO.P,U10,7,D_{4}_7*%
%TO.N,/D4*%
X33730049Y-81200000D03*
%TO.P,U10,8,D_{3}_8*%
%TO.N,/D3*%
X33730049Y-83740000D03*
%TO.P,U10,9,D_{5}_9*%
%TO.N,/D5*%
X33730049Y-86280000D03*
%TO.P,U10,10,D_{6}_10*%
%TO.N,/D6*%
X33730049Y-88820000D03*
%TO.P,U10,11,V_{CC}_11*%
%TO.N,5V*%
X33730049Y-91360000D03*
%TO.P,U10,12,D_{2}_12*%
%TO.N,/D2*%
X33730049Y-93900000D03*
%TO.P,U10,13,D_{7}_13*%
%TO.N,/D7*%
X33730049Y-96440000D03*
%TO.P,U10,14,D_{0}_14*%
%TO.N,/D0*%
X33730049Y-98980000D03*
%TO.P,U10,15,D_{1}_15*%
%TO.N,/D1*%
X33730049Y-101520000D03*
%TO.P,U10,16,~{INT}_16*%
%TO.N,!INT*%
X33730049Y-104060000D03*
%TO.P,U10,17,~{NMI}_17*%
%TO.N,Net-(U10-~{NMI})*%
X33730049Y-106600000D03*
%TO.P,U10,18,~{HALT}_18*%
%TO.N,!HALT*%
X33730049Y-109140000D03*
%TO.P,U10,19,~{MREQ}_19*%
%TO.N,!MREQ*%
X33730049Y-111680000D03*
%TO.P,U10,20,~{IORQ}_20*%
%TO.N,!IORQ*%
X33730049Y-114220000D03*
%TO.P,U10,21,~{RD}_21*%
%TO.N,!RD*%
X48970049Y-114220000D03*
%TO.P,U10,22,~{WR}_22*%
%TO.N,!WR*%
X48970049Y-111680000D03*
%TO.P,U10,23,~{BUSACK}_23*%
%TO.N,unconnected-(U10-~{BUSACK}-Pad23)*%
X48970049Y-109140000D03*
%TO.P,U10,24,~{WAIT}_24*%
%TO.N,Net-(U10-~{WAIT})*%
X48970049Y-106600000D03*
%TO.P,U10,25,~{BUSREQ}_25*%
%TO.N,Net-(U10-~{BUSREQ})*%
X48970049Y-104060000D03*
%TO.P,U10,26,~{RESET}_26*%
%TO.N,!RESET*%
X48970049Y-101520000D03*
%TO.P,U10,27,~{M1}_27*%
%TO.N,!M1*%
X48970049Y-98980000D03*
%TO.P,U10,28,~{RFSH}_28*%
%TO.N,unconnected-(U10-~{RFSH}-Pad28)*%
X48970049Y-96440000D03*
%TO.P,U10,29,GND_29*%
%TO.N,GND*%
X48970049Y-93900000D03*
%TO.P,U10,30,A_{0}_30*%
%TO.N,/A0*%
X48970049Y-91360000D03*
%TO.P,U10,31,A_{1}_31*%
%TO.N,/A1*%
X48970049Y-88820000D03*
%TO.P,U10,32,A_{2}_32*%
%TO.N,/A2*%
X48970049Y-86280000D03*
%TO.P,U10,33,A_{3}_33*%
%TO.N,/A3*%
X48970049Y-83740000D03*
%TO.P,U10,34,A_{4}_34*%
%TO.N,/A4*%
X48970049Y-81200000D03*
%TO.P,U10,35,A_{5}_35*%
%TO.N,/A5*%
X48970049Y-78660000D03*
%TO.P,U10,36,A_{6}_36*%
%TO.N,/A6*%
X48970049Y-76120000D03*
%TO.P,U10,37,A_{7}_37*%
%TO.N,/A7*%
X48970049Y-73580000D03*
%TO.P,U10,38,A_{8}_38*%
%TO.N,/A8*%
X48970049Y-71040000D03*
%TO.P,U10,39,A_{9}_39*%
%TO.N,/A9*%
X48970049Y-68500000D03*
%TO.P,U10,40,A_{10}_40*%
%TO.N,/A10*%
X48970049Y-65960000D03*
%TD*%
D10*
%TO.P,SW42,1,1_1*%
%TO.N,Net-(U5-Q5)*%
X54987949Y-130533300D03*
X59137949Y-130533300D03*
%TO.P,SW42,2,2_2*%
%TO.N,Net-(U11-D6)*%
X54987949Y-132683300D03*
X59137949Y-132683300D03*
%TD*%
%TO.P,SW50,1,1_1*%
%TO.N,Net-(U5-Q6)*%
X48770049Y-130533300D03*
X52920049Y-130533300D03*
%TO.P,SW50,2,2_2*%
%TO.N,Net-(U11-D6)*%
X48770049Y-132683300D03*
X52920049Y-132683300D03*
%TD*%
%TO.P,SW27,1,1_1*%
%TO.N,Net-(U5-Q3)*%
X67423649Y-134875000D03*
X71573649Y-134875000D03*
%TO.P,SW27,2,2_2*%
%TO.N,Net-(U11-D5)*%
X67423649Y-137025000D03*
X71573649Y-137025000D03*
%TD*%
%TO.P,SW8,1,1_1*%
%TO.N,Net-(U5-Q0)*%
X135730749Y-139191600D03*
X139880749Y-139191600D03*
%TO.P,SW8,2,2_2*%
%TO.N,Net-(U11-D0)*%
X135730749Y-141341600D03*
X139880749Y-141341600D03*
%TD*%
D16*
%TO.P,D36,1,K_1*%
%TO.N,GND*%
X30257549Y-50000267D03*
%TO.P,D36,2,A_2*%
%TO.N,/D4*%
X27282549Y-50000267D03*
%TD*%
D10*
%TO.P,SW7,1,1_1*%
%TO.N,Net-(U5-Q0)*%
X135730749Y-134858300D03*
X139880749Y-134858300D03*
%TO.P,SW7,2,2_2*%
%TO.N,Net-(U11-D1)*%
X135730749Y-137008300D03*
X139880749Y-137008300D03*
%TD*%
%TO.P,SW21,1,1_1*%
%TO.N,Net-(U5-Q2)*%
X123295049Y-126191600D03*
X127445049Y-126191600D03*
%TO.P,SW21,2,2_2*%
%TO.N,Net-(U11-D3)*%
X123295049Y-128341600D03*
X127445049Y-128341600D03*
%TD*%
%TO.P,SW51,1,1_1*%
%TO.N,Net-(U5-Q6)*%
X48770049Y-134875000D03*
X52920049Y-134875000D03*
%TO.P,SW51,2,2_2*%
%TO.N,Net-(U11-D5)*%
X48770049Y-137025000D03*
X52920049Y-137025000D03*
%TD*%
%TO.P,SW39,1,1_1*%
%TO.N,Net-(U5-Q4)*%
X110859349Y-134858300D03*
X115009349Y-134858300D03*
%TO.P,SW39,2,2_2*%
%TO.N,Net-(U11-D1)*%
X110859349Y-137008300D03*
X115009349Y-137008300D03*
%TD*%
D18*
%TO.P,Y3,1,EN_1*%
%TO.N,5V*%
X35250049Y-43500000D03*
D11*
%TO.P,Y3,7,GND_7*%
%TO.N,GND*%
X35250049Y-58740000D03*
%TO.P,Y3,8,OUT_8*%
%TO.N,Net-(U16-XIN)*%
X42870049Y-58740000D03*
%TO.P,Y3,14,Vcc_14*%
%TO.N,5V*%
X42870049Y-43500000D03*
%TD*%
D16*
%TO.P,D32,1,K_1*%
%TO.N,GND*%
X30257549Y-62177667D03*
%TO.P,D32,2,A_2*%
%TO.N,/D0*%
X27282549Y-62177667D03*
%TD*%
D10*
%TO.P,SW17,1,1_1*%
%TO.N,Net-(U5-Q2)*%
X73641449Y-126191600D03*
X77791449Y-126191600D03*
%TO.P,SW17,2,2_2*%
%TO.N,Net-(U11-D7)*%
X73641449Y-128341600D03*
X77791449Y-128341600D03*
%TD*%
%TO.P,SW32,1,1_1*%
%TO.N,Net-(U5-Q3)*%
X117077249Y-139191600D03*
X121227249Y-139191600D03*
%TO.P,SW32,2,2_2*%
%TO.N,Net-(U11-D0)*%
X117077249Y-141341600D03*
X121227249Y-141341600D03*
%TD*%
D16*
%TO.P,D30,1,K_1*%
%TO.N,GND*%
X30257549Y-68266367D03*
%TO.P,D30,2,A_2*%
%TO.N,/A14*%
X27282549Y-68266367D03*
%TD*%
%TO.P,D26,1,K_1*%
%TO.N,GND*%
X30257549Y-80443767D03*
%TO.P,D26,2,A_2*%
%TO.N,/A10*%
X27282549Y-80443767D03*
%TD*%
D10*
%TO.P,SW19,1,1_1*%
%TO.N,Net-(U5-Q2)*%
X73641449Y-134875000D03*
X77791449Y-134875000D03*
%TO.P,SW19,2,2_2*%
%TO.N,Net-(U11-D5)*%
X73641449Y-137025000D03*
X77791449Y-137025000D03*
%TD*%
D15*
%TO.P,U1,1*%
%TO.N,Net-(U4-~{S0})*%
X59770049Y-116800000D03*
D11*
%TO.P,U1,2*%
%TO.N,5V*%
X59770049Y-114260000D03*
%TO.P,U1,3*%
%TO.N,!MREQ*%
X59770049Y-111720000D03*
%TO.P,U1,4*%
%TO.N,Net-(U1-Pad4)*%
X59770049Y-109180000D03*
%TO.P,U1,5*%
%TO.N,Net-(U4-~{S2})*%
X59770049Y-106640000D03*
%TO.P,U1,6*%
%TO.N,IO2*%
X59770049Y-104100000D03*
%TO.P,U1,7,GND_7*%
%TO.N,GND*%
X59770049Y-101560000D03*
%TO.P,U1,8*%
%TO.N,IO3*%
X52150049Y-101560000D03*
%TO.P,U1,9*%
%TO.N,Net-(U4-~{S3})*%
X52150049Y-104100000D03*
%TO.P,U1,10*%
%TO.N,PullIO*%
X52150049Y-106640000D03*
%TO.P,U1,11*%
%TO.N,!M1*%
X52150049Y-109180000D03*
%TO.P,U1,12*%
%TO.N,Net-(U1-Pad12)*%
X52150049Y-111720000D03*
%TO.P,U1,13*%
%TO.N,A15*%
X52150049Y-114260000D03*
%TO.P,U1,14,VCC_14*%
%TO.N,5V*%
X52150049Y-116800000D03*
%TD*%
D10*
%TO.P,SW2,1,1_1*%
%TO.N,Net-(U5-Q0)*%
X86077249Y-130508300D03*
X90227249Y-130508300D03*
%TO.P,SW2,2,2_2*%
%TO.N,Net-(U11-D6)*%
X86077249Y-132658300D03*
X90227249Y-132658300D03*
%TD*%
D15*
%TO.P,U3,1*%
%TO.N,Net-(U4-~{S4})*%
X80270049Y-118340000D03*
D11*
%TO.P,U3,2*%
%TO.N,IO4*%
X80270049Y-115800000D03*
%TO.P,U3,3*%
%TO.N,Net-(U4-~{S5})*%
X80270049Y-113260000D03*
%TO.P,U3,4*%
%TO.N,IO5*%
X80270049Y-110720000D03*
%TO.P,U3,5*%
%TO.N,Net-(U4-~{S6})*%
X80270049Y-108180000D03*
%TO.P,U3,6*%
%TO.N,IO6*%
X80270049Y-105640000D03*
%TO.P,U3,7,GND_7*%
%TO.N,GND*%
X80270049Y-103100000D03*
%TO.P,U3,8*%
%TO.N,IO8*%
X72650049Y-103100000D03*
%TO.P,U3,9*%
%TO.N,Net-(U4-~{S8})*%
X72650049Y-105640000D03*
%TO.P,U3,10*%
%TO.N,!INT*%
X72650049Y-108180000D03*
%TO.P,U3,11*%
%TO.N,Net-(U16-INTR)*%
X72650049Y-110720000D03*
%TO.P,U3,12*%
%TO.N,Net-(U16-MR)*%
X72650049Y-113260000D03*
%TO.P,U3,13*%
%TO.N,!RESET*%
X72650049Y-115800000D03*
%TO.P,U3,14,VCC_14*%
%TO.N,5V*%
X72650049Y-118340000D03*
%TD*%
D10*
%TO.P,SW13,1,1_1*%
%TO.N,Net-(U5-Q1)*%
X129512949Y-126191600D03*
X133662949Y-126191600D03*
%TO.P,SW13,2,2_2*%
%TO.N,Net-(U11-D3)*%
X129512949Y-128341600D03*
X133662949Y-128341600D03*
%TD*%
%TO.P,SW24,1,1_1*%
%TO.N,Net-(U5-Q2)*%
X123295049Y-139191600D03*
X127445049Y-139191600D03*
%TO.P,SW24,2,2_2*%
%TO.N,Net-(U11-D0)*%
X123295049Y-141341600D03*
X127445049Y-141341600D03*
%TD*%
D12*
%TO.P,D12,1,K_1*%
%TO.N,!WR*%
X27327549Y-119983300D03*
%TO.P,D12,2,A_2*%
%TO.N,5V*%
X30302549Y-119983300D03*
%TD*%
%TO.P,D24,1,K_1*%
%TO.N,!M1*%
X27327549Y-131250000D03*
%TO.P,D24,2,A_2*%
%TO.N,5V*%
X30302549Y-131250000D03*
%TD*%
D10*
%TO.P,SW18,1,1_1*%
%TO.N,Net-(U5-Q2)*%
X73641449Y-130533300D03*
X77791449Y-130533300D03*
%TO.P,SW18,2,2_2*%
%TO.N,Net-(U11-D6)*%
X73641449Y-132683300D03*
X77791449Y-132683300D03*
%TD*%
D13*
%TO.P,J3,1,Pin_1_1*%
%TO.N,unconnected-(J3-Pin_1-Pad1)*%
X48770049Y-27860000D03*
D14*
%TO.P,J3,2,Pin_2_2*%
%TO.N,unconnected-(J3-Pin_2-Pad2)*%
X48770049Y-30400000D03*
%TO.P,J3,3,Pin_3_3*%
%TO.N,unconnected-(J3-Pin_3-Pad3)*%
X48770049Y-32940000D03*
%TO.P,J3,4,Pin_4_4*%
%TO.N,unconnected-(J3-Pin_4-Pad4)*%
X48770049Y-35480000D03*
%TO.P,J3,5,Pin_5_5*%
%TO.N,unconnected-(J3-Pin_5-Pad5)*%
X48770049Y-38020000D03*
%TO.P,J3,6,Pin_6_6*%
%TO.N,Net-(J3-Pin_6)*%
X48770049Y-40560000D03*
%TO.P,J3,7,Pin_7_7*%
%TO.N,Net-(J2-Pin_3)*%
X48770049Y-43100000D03*
%TO.P,J3,8,Pin_8_8*%
%TO.N,Net-(J2-Pin_4)*%
X48770049Y-45640000D03*
%TO.P,J3,9,Pin_9_9*%
%TO.N,Net-(J3-Pin_9)*%
X48770049Y-48180000D03*
%TO.P,J3,10,Pin_10_10*%
%TO.N,Net-(J2-Pin_5)*%
X48770049Y-50720000D03*
%TO.P,J3,11,Pin_11_11*%
%TO.N,Net-(J2-Pin_7)*%
X48770049Y-53260000D03*
%TO.P,J3,12,Pin_12_12*%
%TO.N,Net-(J2-Pin_8)*%
X48770049Y-55800000D03*
%TO.P,J3,13,Pin_13_13*%
%TO.N,GND*%
X48770049Y-58340000D03*
%TO.P,J3,14,Pin_14_14*%
%TO.N,5V*%
X48770049Y-60880000D03*
%TD*%
D12*
%TO.P,D18,1,K_1*%
%TO.N,!IORQ*%
X27327549Y-125616700D03*
%TO.P,D18,2,A_2*%
%TO.N,5V*%
X30302549Y-125616700D03*
%TD*%
D10*
%TO.P,SW41,1,1_1*%
%TO.N,Net-(U5-Q5)*%
X54987949Y-126191600D03*
X59137949Y-126191600D03*
%TO.P,SW41,2,2_2*%
%TO.N,Net-(U11-D7)*%
X54987949Y-128341600D03*
X59137949Y-128341600D03*
%TD*%
%TO.P,SW11,1,1_1*%
%TO.N,Net-(U5-Q1)*%
X79859349Y-134875000D03*
X84009349Y-134875000D03*
%TO.P,SW11,2,2_2*%
%TO.N,Net-(U11-D5)*%
X79859349Y-137025000D03*
X84009349Y-137025000D03*
%TD*%
%TO.P,SW38,1,1_1*%
%TO.N,Net-(U5-Q4)*%
X110859349Y-130525000D03*
X115009349Y-130525000D03*
%TO.P,SW38,2,2_2*%
%TO.N,Net-(U11-D2)*%
X110859349Y-132675000D03*
X115009349Y-132675000D03*
%TD*%
%TO.P,SW1,1,1_1*%
%TO.N,Net-(U5-Q0)*%
X86077249Y-126166600D03*
X90227249Y-126166600D03*
%TO.P,SW1,2,2_2*%
%TO.N,Net-(U11-D7)*%
X86077249Y-128316600D03*
X90227249Y-128316600D03*
%TD*%
D19*
%TO.P,U6,1,OE_1*%
%TO.N,GND*%
X83850049Y-111410000D03*
D11*
%TO.P,U6,2,D0_2*%
%TO.N,/D0*%
X86390049Y-111410000D03*
%TO.P,U6,3,D1_3*%
%TO.N,/D1*%
X88930049Y-111410000D03*
%TO.P,U6,4,D2_4*%
%TO.N,/D2*%
X91470049Y-111410000D03*
%TO.P,U6,5,D3_5*%
%TO.N,/D3*%
X94010049Y-111410000D03*
%TO.P,U6,6,D4_6*%
%TO.N,/D4*%
X96550049Y-111410000D03*
%TO.P,U6,7,D5_7*%
%TO.N,/D5*%
X99090049Y-111410000D03*
%TO.P,U6,8,D6_8*%
%TO.N,/D6*%
X101630049Y-111410000D03*
%TO.P,U6,9,D7_9*%
%TO.N,/D7*%
X104170049Y-111410000D03*
%TO.P,U6,10,GND_10*%
%TO.N,GND*%
X106710049Y-111410000D03*
%TO.P,U6,11,Load_11*%
%TO.N,IO4*%
X106710049Y-103790000D03*
%TO.P,U6,12,Q7_12*%
%TO.N,Net-(D23-A)*%
X104170049Y-103790000D03*
%TO.P,U6,13,Q6_13*%
%TO.N,Net-(D20-A)*%
X101630049Y-103790000D03*
%TO.P,U6,14,Q5_14*%
%TO.N,Net-(D17-A)*%
X99090049Y-103790000D03*
%TO.P,U6,15,Q4_15*%
%TO.N,Net-(D14-A)*%
X96550049Y-103790000D03*
%TO.P,U6,16,Q3_16*%
%TO.N,Net-(D11-A)*%
X94010049Y-103790000D03*
%TO.P,U6,17,Q2_17*%
%TO.N,Net-(D8-A)*%
X91470049Y-103790000D03*
%TO.P,U6,18,Q1_18*%
%TO.N,!CS_RAM*%
X88930049Y-103790000D03*
%TO.P,U6,19,Q0_19*%
%TO.N,!CS_EEPROM*%
X86390049Y-103790000D03*
%TO.P,U6,20,VCC_20*%
%TO.N,5V*%
X83850049Y-103790000D03*
%TD*%
D13*
%TO.P,J4,1,Pin_1_1*%
%TO.N,TX1*%
X23940049Y-35690000D03*
D14*
%TO.P,J4,2,Pin_2_2*%
%TO.N,RX1*%
X23940049Y-33150000D03*
%TO.P,J4,3,Pin_3_3*%
%TO.N,unconnected-(J4-Pin_3-Pad3)*%
X23940049Y-30610000D03*
%TO.P,J4,4,Pin_4_4*%
%TO.N,unconnected-(J4-Pin_4-Pad4)*%
X23940049Y-28070000D03*
%TO.P,J4,5,Pin_5_5*%
%TO.N,Net-(J3-Pin_6)*%
X23940049Y-25530000D03*
%TO.P,J4,6,Pin_6_6*%
%TO.N,unconnected-(J4-Pin_6-Pad6)*%
X23940049Y-22990000D03*
%TO.P,J4,7,Pin_7_7*%
%TO.N,unconnected-(J4-Pin_7-Pad7)*%
X23940049Y-20450000D03*
%TO.P,J4,8,Pin_8_8*%
%TO.N,Net-(J3-Pin_9)*%
X23940049Y-17910000D03*
%TD*%
D10*
%TO.P,SW23,1,1_1*%
%TO.N,Net-(U5-Q2)*%
X123295049Y-134858300D03*
X127445049Y-134858300D03*
%TO.P,SW23,2,2_2*%
%TO.N,Net-(U11-D1)*%
X123295049Y-137008300D03*
X127445049Y-137008300D03*
%TD*%
D20*
%TO.P,U14,1,CA_1*%
%TO.N,Net-(R6-Pad2)*%
X110090049Y-94820000D03*
D21*
%TO.P,U14,2,F_2*%
%TO.N,Net-(U14-F)*%
X112630049Y-94820000D03*
%TO.P,U14,3,G_3*%
%TO.N,Net-(U14-G)*%
X115170049Y-94820000D03*
%TO.P,U14,4,E_4*%
%TO.N,Net-(U14-E)*%
X117710049Y-94820000D03*
%TO.P,U14,5,D_5*%
%TO.N,Net-(U14-D)*%
X120250049Y-94820000D03*
%TO.P,U14,6,CA_6*%
%TO.N,Net-(R6-Pad2)*%
X120250049Y-79580000D03*
%TO.P,U14,7,DP_7*%
%TO.N,Net-(U14-DP)*%
X117710049Y-79580000D03*
%TO.P,U14,8,C_8*%
%TO.N,Net-(U14-C)*%
X115170049Y-79580000D03*
%TO.P,U14,9,B_9*%
%TO.N,Net-(U14-B)*%
X112630049Y-79580000D03*
%TO.P,U14,10,A_10*%
%TO.N,Net-(U14-A)*%
X110090049Y-79580000D03*
%TD*%
D10*
%TO.P,SW63,1,1_1*%
%TO.N,Net-(U5-Q7)*%
X92205749Y-134858300D03*
X96355749Y-134858300D03*
%TO.P,SW63,2,2_2*%
%TO.N,Net-(U11-D1)*%
X92205749Y-137008300D03*
X96355749Y-137008300D03*
%TD*%
%TO.P,SW52,1,1_1*%
%TO.N,Net-(U5-Q6)*%
X48770049Y-139216600D03*
X52920049Y-139216600D03*
%TO.P,SW52,2,2_2*%
%TO.N,Net-(U11-D4)*%
X48770049Y-141366600D03*
X52920049Y-141366600D03*
%TD*%
%TO.P,SW35,1,1_1*%
%TO.N,Net-(U5-Q4)*%
X61205749Y-134875000D03*
X65355749Y-134875000D03*
%TO.P,SW35,2,2_2*%
%TO.N,Net-(U11-D5)*%
X61205749Y-137025000D03*
X65355749Y-137025000D03*
%TD*%
D16*
%TO.P,D1,1,K_1*%
%TO.N,GND*%
X30257549Y-110887167D03*
%TO.P,D1,2,A_2*%
%TO.N,/A0*%
X27282549Y-110887167D03*
%TD*%
D10*
%TO.P,SW56,1,1_1*%
%TO.N,Net-(U5-Q6)*%
X98423649Y-139191600D03*
X102573649Y-139191600D03*
%TO.P,SW56,2,2_2*%
%TO.N,Net-(U11-D0)*%
X98423649Y-141341600D03*
X102573649Y-141341600D03*
%TD*%
D16*
%TO.P,D4,1,K_1*%
%TO.N,GND*%
X30257549Y-104798467D03*
%TO.P,D4,2,A_2*%
%TO.N,/A2*%
X27282549Y-104798467D03*
%TD*%
D10*
%TO.P,SW37,1,1_1*%
%TO.N,Net-(U5-Q4)*%
X110859349Y-126191600D03*
X115009349Y-126191600D03*
%TO.P,SW37,2,2_2*%
%TO.N,Net-(U11-D3)*%
X110859349Y-128341600D03*
X115009349Y-128341600D03*
%TD*%
%TO.P,SW3,1,1_1*%
%TO.N,Net-(U5-Q0)*%
X86077249Y-134850000D03*
X90227249Y-134850000D03*
%TO.P,SW3,2,2_2*%
%TO.N,Net-(U11-D5)*%
X86077249Y-137000000D03*
X90227249Y-137000000D03*
%TD*%
D16*
%TO.P,D31,1,K_1*%
%TO.N,GND*%
X30257549Y-65221967D03*
%TO.P,D31,2,A_2*%
%TO.N,A15*%
X27282549Y-65221967D03*
%TD*%
D10*
%TO.P,SW57,1,1_1*%
%TO.N,Net-(U5-Q7)*%
X42552249Y-126191600D03*
X46702249Y-126191600D03*
%TO.P,SW57,2,2_2*%
%TO.N,Net-(U11-D7)*%
X42552249Y-128341600D03*
X46702249Y-128341600D03*
%TD*%
%TO.P,SW29,1,1_1*%
%TO.N,Net-(U5-Q3)*%
X117077249Y-126191600D03*
X121227249Y-126191600D03*
%TO.P,SW29,2,2_2*%
%TO.N,Net-(U11-D3)*%
X117077249Y-128341600D03*
X121227249Y-128341600D03*
%TD*%
D16*
%TO.P,D19,1,K_1*%
%TO.N,GND*%
X30257549Y-89576767D03*
%TO.P,D19,2,A_2*%
%TO.N,/A7*%
X27282549Y-89576767D03*
%TD*%
%TO.P,D25,1,K_1*%
%TO.N,GND*%
X30257549Y-83488067D03*
%TO.P,D25,2,A_2*%
%TO.N,/A9*%
X27282549Y-83488067D03*
%TD*%
D22*
%TO.P,D11,1,K_1*%
%TO.N,GND*%
X93700049Y-101577500D03*
%TO.P,D11,2,A_2*%
%TO.N,Net-(D11-A)*%
X93700049Y-98602500D03*
%TD*%
D16*
%TO.P,D37,1,K_1*%
%TO.N,GND*%
X30257549Y-46955867D03*
%TO.P,D37,2,A_2*%
%TO.N,/D5*%
X27282549Y-46955867D03*
%TD*%
%TO.P,D33,1,K_1*%
%TO.N,GND*%
X30257549Y-59133267D03*
%TO.P,D33,2,A_2*%
%TO.N,/D1*%
X27282549Y-59133267D03*
%TD*%
D10*
%TO.P,SW48,1,1_1*%
%TO.N,Net-(U5-Q5)*%
X104641449Y-139191600D03*
X108791449Y-139191600D03*
%TO.P,SW48,2,2_2*%
%TO.N,Net-(U11-D0)*%
X104641449Y-141341600D03*
X108791449Y-141341600D03*
%TD*%
D22*
%TO.P,D14,1,K_1*%
%TO.N,GND*%
X97090049Y-101577500D03*
%TO.P,D14,2,A_2*%
%TO.N,Net-(D14-A)*%
X97090049Y-98602500D03*
%TD*%
D23*
%TO.P,IC1,1,MOT_1*%
%TO.N,GND*%
X138870049Y-98100000D03*
D24*
%TO.P,IC1,2,X1_2*%
%TO.N,Net-(IC1-X1)*%
X136330049Y-98100000D03*
%TO.P,IC1,3,X2_3*%
%TO.N,Net-(IC1-X2)*%
X133790049Y-98100000D03*
%TO.P,IC1,4,AD0_4*%
%TO.N,/D0*%
X131250049Y-98100000D03*
%TO.P,IC1,5,AD1_5*%
%TO.N,/D1*%
X128710049Y-98100000D03*
%TO.P,IC1,6,AD2_6*%
%TO.N,/D2*%
X126170049Y-98100000D03*
%TO.P,IC1,7,AD3_7*%
%TO.N,/D3*%
X123630049Y-98100000D03*
%TO.P,IC1,8,AD4_8*%
%TO.N,/D4*%
X121090049Y-98100000D03*
%TO.P,IC1,9,AD5_9*%
%TO.N,/D5*%
X118550049Y-98100000D03*
%TO.P,IC1,10,AD6_10*%
%TO.N,/D6*%
X116010049Y-98100000D03*
%TO.P,IC1,11,AD7_11*%
%TO.N,/D7*%
X113470049Y-98100000D03*
%TO.P,IC1,12,GND_1_12*%
%TO.N,GND*%
X110930049Y-98100000D03*
%TO.P,IC1,13,~{CS}_13*%
%TO.N,IO7*%
X110930049Y-113340000D03*
%TO.P,IC1,14,AS_14*%
%TO.N,/A0*%
X113470049Y-113340000D03*
%TO.P,IC1,15,R/~{W}_15*%
%TO.N,!WR*%
X116010049Y-113340000D03*
%TO.P,IC1,16,GND_2_16*%
%TO.N,GND*%
X118550049Y-113340000D03*
%TO.P,IC1,17,DS_17*%
%TO.N,!RD*%
X121090049Y-113340000D03*
%TO.P,IC1,18,~{RESET}_18*%
%TO.N,!RESET*%
X123630049Y-113340000D03*
%TO.P,IC1,19,~{IRQ}_19*%
%TO.N,!INT*%
X126170049Y-113340000D03*
%TO.P,IC1,20,VBAT_20*%
%TO.N,Net-(BT1-+)*%
X128710049Y-113340000D03*
%TO.P,IC1,21,~{RCLR}_21*%
%TO.N,5V*%
X131250049Y-113340000D03*
%TO.P,IC1,22,N.C._22*%
%TO.N,unconnected-(IC1-N.C.-Pad22)*%
X133790049Y-113340000D03*
%TO.P,IC1,23,SQW_23*%
%TO.N,unconnected-(IC1-SQW-Pad23)*%
X136330049Y-113340000D03*
%TO.P,IC1,24,VCC_24*%
%TO.N,5V*%
X138870049Y-113340000D03*
%TD*%
D19*
%TO.P,U13,1,OE_1*%
%TO.N,GND*%
X83890049Y-96020000D03*
D11*
%TO.P,U13,2,D0_2*%
%TO.N,/D0*%
X86430049Y-96020000D03*
%TO.P,U13,3,D1_3*%
%TO.N,/D1*%
X88970049Y-96020000D03*
%TO.P,U13,4,D2_4*%
%TO.N,/D2*%
X91510049Y-96020000D03*
%TO.P,U13,5,D3_5*%
%TO.N,/D3*%
X94050049Y-96020000D03*
%TO.P,U13,6,D4_6*%
%TO.N,/D4*%
X96590049Y-96020000D03*
%TO.P,U13,7,D5_7*%
%TO.N,/D5*%
X99130049Y-96020000D03*
%TO.P,U13,8,D6_8*%
%TO.N,/D6*%
X101670049Y-96020000D03*
%TO.P,U13,9,D7_9*%
%TO.N,/D7*%
X104210049Y-96020000D03*
%TO.P,U13,10,GND_10*%
%TO.N,GND*%
X106750049Y-96020000D03*
%TO.P,U13,11,Load_11*%
%TO.N,IO5*%
X106750049Y-88400000D03*
%TO.P,U13,12,Q7_12*%
%TO.N,Net-(U12-DP)*%
X104210049Y-88400000D03*
%TO.P,U13,13,Q6_13*%
%TO.N,Net-(U12-G)*%
X101670049Y-88400000D03*
%TO.P,U13,14,Q5_14*%
%TO.N,Net-(U12-F)*%
X99130049Y-88400000D03*
%TO.P,U13,15,Q4_15*%
%TO.N,Net-(U12-E)*%
X96590049Y-88400000D03*
%TO.P,U13,16,Q3_16*%
%TO.N,Net-(U12-D)*%
X94050049Y-88400000D03*
%TO.P,U13,17,Q2_17*%
%TO.N,Net-(U12-C)*%
X91510049Y-88400000D03*
%TO.P,U13,18,Q1_18*%
%TO.N,Net-(U12-B)*%
X88970049Y-88400000D03*
%TO.P,U13,19,Q0_19*%
%TO.N,Net-(U12-A)*%
X86430049Y-88400000D03*
%TO.P,U13,20,VCC_20*%
%TO.N,5V*%
X83890049Y-88400000D03*
%TD*%
D10*
%TO.P,SW34,1,1_1*%
%TO.N,Net-(U5-Q4)*%
X61205749Y-130533300D03*
X65355749Y-130533300D03*
%TO.P,SW34,2,2_2*%
%TO.N,Net-(U11-D6)*%
X61205749Y-132683300D03*
X65355749Y-132683300D03*
%TD*%
D16*
%TO.P,D35,1,K_1*%
%TO.N,GND*%
X30257549Y-53044567D03*
%TO.P,D35,2,A_2*%
%TO.N,/D3*%
X27282549Y-53044567D03*
%TD*%
D25*
%TO.P,SW65,1,1_1*%
%TO.N,GND*%
X77970049Y-69500000D03*
X77970049Y-76000000D03*
%TO.P,SW65,2,2_2*%
%TO.N,!RESET*%
X73470049Y-69500000D03*
X73470049Y-76000000D03*
%TD*%
D10*
%TO.P,SW25,1,1_1*%
%TO.N,Net-(U5-Q3)*%
X67423649Y-126191600D03*
X71573649Y-126191600D03*
%TO.P,SW25,2,2_2*%
%TO.N,Net-(U11-D7)*%
X67423649Y-128341600D03*
X71573649Y-128341600D03*
%TD*%
D20*
%TO.P,U12,1,CA_1*%
%TO.N,Net-(R4-Pad2)*%
X123590049Y-94620000D03*
D21*
%TO.P,U12,2,F_2*%
%TO.N,Net-(U12-F)*%
X126130049Y-94620000D03*
%TO.P,U12,3,G_3*%
%TO.N,Net-(U12-G)*%
X128670049Y-94620000D03*
%TO.P,U12,4,E_4*%
%TO.N,Net-(U12-E)*%
X131210049Y-94620000D03*
%TO.P,U12,5,D_5*%
%TO.N,Net-(U12-D)*%
X133750049Y-94620000D03*
%TO.P,U12,6,CA_6*%
%TO.N,Net-(R4-Pad2)*%
X133750049Y-79380000D03*
%TO.P,U12,7,DP_7*%
%TO.N,Net-(U12-DP)*%
X131210049Y-79380000D03*
%TO.P,U12,8,C_8*%
%TO.N,Net-(U12-C)*%
X128670049Y-79380000D03*
%TO.P,U12,9,B_9*%
%TO.N,Net-(U12-B)*%
X126130049Y-79380000D03*
%TO.P,U12,10,A_10*%
%TO.N,Net-(U12-A)*%
X123590049Y-79380000D03*
%TD*%
D10*
%TO.P,SW16,1,1_1*%
%TO.N,Net-(U5-Q1)*%
X129512949Y-139191600D03*
X133662949Y-139191600D03*
%TO.P,SW16,2,2_2*%
%TO.N,Net-(U11-D0)*%
X129512949Y-141341600D03*
X133662949Y-141341600D03*
%TD*%
D15*
%TO.P,U2,1,K_1*%
%TO.N,unconnected-(U2-K-Pad1)*%
X59770049Y-98300000D03*
D11*
%TO.P,U2,2,A_2*%
%TO.N,A15*%
X59770049Y-95760000D03*
%TO.P,U2,3,B_3*%
%TO.N,/A14*%
X59770049Y-93220000D03*
%TO.P,U2,4,C_4*%
%TO.N,/A13*%
X59770049Y-90680000D03*
%TO.P,U2,5,D_5*%
%TO.N,/A12*%
X59770049Y-88140000D03*
%TO.P,U2,6,NC_6*%
%TO.N,unconnected-(U2-NC-Pad6)*%
X59770049Y-85600000D03*
%TO.P,U2,7,Vss_7*%
%TO.N,5V*%
X59770049Y-83060000D03*
%TO.P,U2,8,NC_8*%
%TO.N,unconnected-(U2-NC-Pad8)*%
X52150049Y-83060000D03*
%TO.P,U2,9,E_9*%
%TO.N,/A11*%
X52150049Y-85600000D03*
%TO.P,U2,10,F_10*%
%TO.N,/A10*%
X52150049Y-88140000D03*
%TO.P,U2,11,G_11*%
%TO.N,/A9*%
X52150049Y-90680000D03*
%TO.P,U2,12,H_12*%
%TO.N,/A8*%
X52150049Y-93220000D03*
%TO.P,U2,13,J_13*%
%TO.N,PullIO*%
X52150049Y-95760000D03*
%TO.P,U2,14,Vdd_14*%
%TO.N,GND*%
X52150049Y-98300000D03*
%TD*%
D10*
%TO.P,SW55,1,1_1*%
%TO.N,Net-(U5-Q6)*%
X98423649Y-134858300D03*
X102573649Y-134858300D03*
%TO.P,SW55,2,2_2*%
%TO.N,Net-(U11-D1)*%
X98423649Y-137008300D03*
X102573649Y-137008300D03*
%TD*%
D22*
%TO.P,D23,1,K_1*%
%TO.N,GND*%
X107260049Y-101577500D03*
%TO.P,D23,2,A_2*%
%TO.N,Net-(D23-A)*%
X107260049Y-98602500D03*
%TD*%
D10*
%TO.P,SW4,1,1_1*%
%TO.N,Net-(U5-Q0)*%
X86077249Y-139191600D03*
X90227249Y-139191600D03*
%TO.P,SW4,2,2_2*%
%TO.N,Net-(U11-D4)*%
X86077249Y-141341600D03*
X90227249Y-141341600D03*
%TD*%
%TO.P,SW33,1,1_1*%
%TO.N,Net-(U5-Q4)*%
X61205749Y-126191600D03*
X65355749Y-126191600D03*
%TO.P,SW33,2,2_2*%
%TO.N,Net-(U11-D7)*%
X61205749Y-128341600D03*
X65355749Y-128341600D03*
%TD*%
%TO.P,SW9,1,1_1*%
%TO.N,Net-(U5-Q1)*%
X79859349Y-126191600D03*
X84009349Y-126191600D03*
%TO.P,SW9,2,2_2*%
%TO.N,Net-(U11-D7)*%
X79859349Y-128341600D03*
X84009349Y-128341600D03*
%TD*%
D16*
%TO.P,D2,1,K_1*%
%TO.N,GND*%
X30257549Y-107842867D03*
%TO.P,D2,2,A_2*%
%TO.N,/A1*%
X27282549Y-107842867D03*
%TD*%
D26*
%TO.P,BZ1,1,+_1*%
%TO.N,Net-(BZ1-+)*%
X47270049Y-16000000D03*
D25*
%TO.P,BZ1,2,-_2*%
%TO.N,GND*%
X47270049Y-23600000D03*
%TD*%
D10*
%TO.P,SW6,1,1_1*%
%TO.N,Net-(U5-Q0)*%
X135730749Y-130525000D03*
X139880749Y-130525000D03*
%TO.P,SW6,2,2_2*%
%TO.N,Net-(U11-D2)*%
X135730749Y-132675000D03*
X139880749Y-132675000D03*
%TD*%
%TO.P,SW43,1,1_1*%
%TO.N,Net-(U5-Q5)*%
X54987949Y-134875000D03*
X59137949Y-134875000D03*
%TO.P,SW43,2,2_2*%
%TO.N,Net-(U11-D5)*%
X54987949Y-137025000D03*
X59137949Y-137025000D03*
%TD*%
D16*
%TO.P,D38,1,K_1*%
%TO.N,GND*%
X30257549Y-43911567D03*
%TO.P,D38,2,A_2*%
%TO.N,/D6*%
X27282549Y-43911567D03*
%TD*%
D10*
%TO.P,SW46,1,1_1*%
%TO.N,Net-(U5-Q5)*%
X104641449Y-130525000D03*
X108791449Y-130525000D03*
%TO.P,SW46,2,2_2*%
%TO.N,Net-(U11-D2)*%
X104641449Y-132675000D03*
X108791449Y-132675000D03*
%TD*%
D13*
%TO.P,J1,1,Pin_1_1*%
%TO.N,5V*%
X84170049Y-73575000D03*
D14*
%TO.P,J1,2,Pin_2_2*%
%TO.N,GND*%
X84170049Y-71035000D03*
%TD*%
D10*
%TO.P,SW47,1,1_1*%
%TO.N,Net-(U5-Q5)*%
X104641449Y-134858300D03*
X108791449Y-134858300D03*
%TO.P,SW47,2,2_2*%
%TO.N,Net-(U11-D1)*%
X104641449Y-137008300D03*
X108791449Y-137008300D03*
%TD*%
%TO.P,SW26,1,1_1*%
%TO.N,Net-(U5-Q3)*%
X67423649Y-130533300D03*
X71573649Y-130533300D03*
%TO.P,SW26,2,2_2*%
%TO.N,Net-(U11-D6)*%
X67423649Y-132683300D03*
X71573649Y-132683300D03*
%TD*%
D17*
%TO.P,U16,1,D0_1*%
%TO.N,/D0*%
X72370049Y-16860000D03*
D11*
%TO.P,U16,2,D1_2*%
%TO.N,/D1*%
X72370049Y-19400000D03*
%TO.P,U16,3,D2_3*%
%TO.N,/D2*%
X72370049Y-21940000D03*
%TO.P,U16,4,D3_4*%
%TO.N,/D3*%
X72370049Y-24480000D03*
%TO.P,U16,5,D4_5*%
%TO.N,/D4*%
X72370049Y-27020000D03*
%TO.P,U16,6,D5_6*%
%TO.N,/D5*%
X72370049Y-29560000D03*
%TO.P,U16,7,D6_7*%
%TO.N,/D6*%
X72370049Y-32100000D03*
%TO.P,U16,8,D7_8*%
%TO.N,/D7*%
X72370049Y-34640000D03*
%TO.P,U16,9,RCLK_9*%
%TO.N,Net-(U16-RCLK)*%
X72370049Y-37180000D03*
%TO.P,U16,10,SIN_10*%
%TO.N,TX1*%
X72370049Y-39720000D03*
%TO.P,U16,11,SOUT_11*%
%TO.N,RX1*%
X72370049Y-42260000D03*
%TO.P,U16,12,CS0_12*%
%TO.N,5V*%
X72370049Y-44800000D03*
%TO.P,U16,13,CS1_13*%
X72370049Y-47340000D03*
%TO.P,U16,14,~{CS2}_14*%
%TO.N,IO2*%
X72370049Y-49880000D03*
%TO.P,U16,15,~{BAUDOUT}_15*%
%TO.N,Net-(U16-RCLK)*%
X72370049Y-52420000D03*
%TO.P,U16,16,XIN_16*%
%TO.N,Net-(U16-XIN)*%
X72370049Y-54960000D03*
%TO.P,U16,17,XOUT_17*%
%TO.N,unconnected-(U16-XOUT-Pad17)*%
X72370049Y-57500000D03*
%TO.P,U16,18,~{WR}_18*%
%TO.N,!WR*%
X72370049Y-60040000D03*
%TO.P,U16,19,WR_19*%
%TO.N,unconnected-(U16-WR-Pad19)*%
X72370049Y-62580000D03*
%TO.P,U16,20,GND_20*%
%TO.N,GND*%
X72370049Y-65120000D03*
%TO.P,U16,21,~{RD}_21*%
%TO.N,!RD*%
X87610049Y-65120000D03*
%TO.P,U16,22,RD_22*%
%TO.N,unconnected-(U16-RD-Pad22)*%
X87610049Y-62580000D03*
%TO.P,U16,23,DDIS_23*%
%TO.N,unconnected-(U16-DDIS-Pad23)*%
X87610049Y-60040000D03*
%TO.P,U16,24,~{TXRDY}_24*%
%TO.N,unconnected-(U16-~{TXRDY}-Pad24)*%
X87610049Y-57500000D03*
%TO.P,U16,25,~{ADS}_25*%
%TO.N,GND*%
X87610049Y-54960000D03*
%TO.P,U16,26,A2_26*%
%TO.N,/A2*%
X87610049Y-52420000D03*
%TO.P,U16,27,A1_27*%
%TO.N,/A1*%
X87610049Y-49880000D03*
%TO.P,U16,28,A0_28*%
%TO.N,/A0*%
X87610049Y-47340000D03*
%TO.P,U16,29,~{RXRDY}_29*%
%TO.N,unconnected-(U16-~{RXRDY}-Pad29)*%
X87610049Y-44800000D03*
%TO.P,U16,30,INTR_30*%
%TO.N,Net-(U16-INTR)*%
X87610049Y-42260000D03*
%TO.P,U16,31,~{OUT2}_31*%
%TO.N,unconnected-(U16-~{OUT2}-Pad31)*%
X87610049Y-39720000D03*
%TO.P,U16,32,~{RTS}_32*%
%TO.N,unconnected-(U16-~{RTS}-Pad32)*%
X87610049Y-37180000D03*
%TO.P,U16,33,~{DTR}_33*%
%TO.N,unconnected-(U16-~{DTR}-Pad33)*%
X87610049Y-34640000D03*
%TO.P,U16,34,~{OUT1}_34*%
%TO.N,unconnected-(U16-~{OUT1}-Pad34)*%
X87610049Y-32100000D03*
%TO.P,U16,35,MR_35*%
%TO.N,Net-(U16-MR)*%
X87610049Y-29560000D03*
%TO.P,U16,36,~{CTS}_36*%
%TO.N,5V*%
X87610049Y-27020000D03*
%TO.P,U16,37,~{DSR}_37*%
X87610049Y-24480000D03*
%TO.P,U16,38,~{DCD}_38*%
X87610049Y-21940000D03*
%TO.P,U16,39,~{RI}_39*%
X87610049Y-19400000D03*
%TO.P,U16,40,VCC_40*%
X87610049Y-16860000D03*
%TD*%
D10*
%TO.P,SW60,1,1_1*%
%TO.N,Net-(U5-Q7)*%
X42552249Y-139216600D03*
X46702249Y-139216600D03*
%TO.P,SW60,2,2_2*%
%TO.N,Net-(U11-D4)*%
X42552249Y-141366600D03*
X46702249Y-141366600D03*
%TD*%
D15*
%TO.P,U4,1,~{S0}_1*%
%TO.N,Net-(U4-~{S0})*%
X70175049Y-111060000D03*
D11*
%TO.P,U4,2,~{S1}_2*%
%TO.N,IO1*%
X70175049Y-108520000D03*
%TO.P,U4,3,~{S2}_3*%
%TO.N,Net-(U4-~{S2})*%
X70175049Y-105980000D03*
%TO.P,U4,4,~{S3}_4*%
%TO.N,Net-(U4-~{S3})*%
X70175049Y-103440000D03*
%TO.P,U4,5,~{S4}_5*%
%TO.N,Net-(U4-~{S4})*%
X70175049Y-100900000D03*
%TO.P,U4,6,~{S5}_6*%
%TO.N,Net-(U4-~{S5})*%
X70175049Y-98360000D03*
%TO.P,U4,7,~{S6}_7*%
%TO.N,Net-(U4-~{S6})*%
X70175049Y-95820000D03*
%TO.P,U4,8,~{S7}_8*%
%TO.N,IO7*%
X70175049Y-93280000D03*
%TO.P,U4,9,~{S8}_9*%
%TO.N,Net-(U4-~{S8})*%
X70175049Y-90740000D03*
%TO.P,U4,10,~{S9}_10*%
%TO.N,unconnected-(U4-~{S9}-Pad10)*%
X70175049Y-88200000D03*
%TO.P,U4,11,~{S10}_11*%
%TO.N,unconnected-(U4-~{S10}-Pad11)*%
X70175049Y-85660000D03*
%TO.P,U4,12,GND_12*%
%TO.N,GND*%
X70175049Y-83120000D03*
%TO.P,U4,13,~{S11}_13*%
%TO.N,unconnected-(U4-~{S11}-Pad13)*%
X62555049Y-83120000D03*
%TO.P,U4,14,~{S12}_14*%
%TO.N,unconnected-(U4-~{S12}-Pad14)*%
X62555049Y-85660000D03*
%TO.P,U4,15,~{S13}_15*%
%TO.N,unconnected-(U4-~{S13}-Pad15)*%
X62555049Y-88200000D03*
%TO.P,U4,16,~{S14}_16*%
%TO.N,unconnected-(U4-~{S14}-Pad16)*%
X62555049Y-90740000D03*
%TO.P,U4,17,~{S15}_17*%
%TO.N,unconnected-(U4-~{S15}-Pad17)*%
X62555049Y-93280000D03*
%TO.P,U4,18,~{E0}_18*%
%TO.N,!IORQ*%
X62555049Y-95820000D03*
%TO.P,U4,19,~{E1}_19*%
%TO.N,PullIO*%
X62555049Y-98360000D03*
%TO.P,U4,20,A3_20*%
%TO.N,/A7*%
X62555049Y-100900000D03*
%TO.P,U4,21,A2_21*%
%TO.N,/A6*%
X62555049Y-103440000D03*
%TO.P,U4,22,A1_22*%
%TO.N,/A5*%
X62555049Y-105980000D03*
%TO.P,U4,23,A0_23*%
%TO.N,/A4*%
X62555049Y-108520000D03*
%TO.P,U4,24,VCC_24*%
%TO.N,5V*%
X62555049Y-111060000D03*
%TD*%
D16*
%TO.P,D34,1,K_1*%
%TO.N,GND*%
X30257549Y-56088967D03*
%TO.P,D34,2,A_2*%
%TO.N,/D2*%
X27282549Y-56088967D03*
%TD*%
D17*
%TO.P,U17,1,D0_1*%
%TO.N,/D0*%
X54830049Y-16860000D03*
D11*
%TO.P,U17,2,D1_2*%
%TO.N,/D1*%
X54830049Y-19400000D03*
%TO.P,U17,3,D2_3*%
%TO.N,/D2*%
X54830049Y-21940000D03*
%TO.P,U17,4,D3_4*%
%TO.N,/D3*%
X54830049Y-24480000D03*
%TO.P,U17,5,D4_5*%
%TO.N,/D4*%
X54830049Y-27020000D03*
%TO.P,U17,6,D5_6*%
%TO.N,/D5*%
X54830049Y-29560000D03*
%TO.P,U17,7,D6_7*%
%TO.N,/D6*%
X54830049Y-32100000D03*
%TO.P,U17,8,D7_8*%
%TO.N,/D7*%
X54830049Y-34640000D03*
%TO.P,U17,9,RCLK_9*%
%TO.N,Net-(U17-RCLK)*%
X54830049Y-37180000D03*
%TO.P,U17,10,SIN_10*%
%TO.N,TX2*%
X54830049Y-39720000D03*
%TO.P,U17,11,SOUT_11*%
%TO.N,RX2*%
X54830049Y-42260000D03*
%TO.P,U17,12,CS0_12*%
%TO.N,5V*%
X54830049Y-44800000D03*
%TO.P,U17,13,CS1_13*%
X54830049Y-47340000D03*
%TO.P,U17,14,~{CS2}_14*%
%TO.N,IO3*%
X54830049Y-49880000D03*
%TO.P,U17,15,~{BAUDOUT}_15*%
%TO.N,Net-(U17-RCLK)*%
X54830049Y-52420000D03*
%TO.P,U17,16,XIN_16*%
%TO.N,Net-(U16-XIN)*%
X54830049Y-54960000D03*
%TO.P,U17,17,XOUT_17*%
%TO.N,unconnected-(U17-XOUT-Pad17)*%
X54830049Y-57500000D03*
%TO.P,U17,18,~{WR}_18*%
%TO.N,!WR*%
X54830049Y-60040000D03*
%TO.P,U17,19,WR_19*%
%TO.N,unconnected-(U17-WR-Pad19)*%
X54830049Y-62580000D03*
%TO.P,U17,20,GND_20*%
%TO.N,GND*%
X54830049Y-65120000D03*
%TO.P,U17,21,~{RD}_21*%
%TO.N,!RD*%
X70070049Y-65120000D03*
%TO.P,U17,22,RD_22*%
%TO.N,unconnected-(U17-RD-Pad22)*%
X70070049Y-62580000D03*
%TO.P,U17,23,DDIS_23*%
%TO.N,unconnected-(U17-DDIS-Pad23)*%
X70070049Y-60040000D03*
%TO.P,U17,24,~{TXRDY}_24*%
%TO.N,unconnected-(U17-~{TXRDY}-Pad24)*%
X70070049Y-57500000D03*
%TO.P,U17,25,~{ADS}_25*%
%TO.N,GND*%
X70070049Y-54960000D03*
%TO.P,U17,26,A2_26*%
%TO.N,/A2*%
X70070049Y-52420000D03*
%TO.P,U17,27,A1_27*%
%TO.N,/A1*%
X70070049Y-49880000D03*
%TO.P,U17,28,A0_28*%
%TO.N,/A0*%
X70070049Y-47340000D03*
%TO.P,U17,29,~{RXRDY}_29*%
%TO.N,unconnected-(U17-~{RXRDY}-Pad29)*%
X70070049Y-44800000D03*
%TO.P,U17,30,INTR_30*%
%TO.N,Net-(U16-INTR)*%
X70070049Y-42260000D03*
%TO.P,U17,31,~{OUT2}_31*%
%TO.N,unconnected-(U17-~{OUT2}-Pad31)*%
X70070049Y-39720000D03*
%TO.P,U17,32,~{RTS}_32*%
%TO.N,unconnected-(U17-~{RTS}-Pad32)*%
X70070049Y-37180000D03*
%TO.P,U17,33,~{DTR}_33*%
%TO.N,unconnected-(U17-~{DTR}-Pad33)*%
X70070049Y-34640000D03*
%TO.P,U17,34,~{OUT1}_34*%
%TO.N,unconnected-(U17-~{OUT1}-Pad34)*%
X70070049Y-32100000D03*
%TO.P,U17,35,MR_35*%
%TO.N,Net-(U16-MR)*%
X70070049Y-29560000D03*
%TO.P,U17,36,~{CTS}_36*%
%TO.N,5V*%
X70070049Y-27020000D03*
%TO.P,U17,37,~{DSR}_37*%
X70070049Y-24480000D03*
%TO.P,U17,38,~{DCD}_38*%
X70070049Y-21940000D03*
%TO.P,U17,39,~{RI}_39*%
X70070049Y-19400000D03*
%TO.P,U17,40,VCC_40*%
X70070049Y-16860000D03*
%TD*%
D22*
%TO.P,D8,1,K_1*%
%TO.N,GND*%
X90310049Y-101577500D03*
%TO.P,D8,2,A_2*%
%TO.N,Net-(D8-A)*%
X90310049Y-98602500D03*
%TD*%
D10*
%TO.P,SW53,1,1_1*%
%TO.N,Net-(U5-Q6)*%
X98423649Y-126191600D03*
X102573649Y-126191600D03*
%TO.P,SW53,2,2_2*%
%TO.N,Net-(U11-D3)*%
X98423649Y-128341600D03*
X102573649Y-128341600D03*
%TD*%
D16*
%TO.P,D27,1,K_1*%
%TO.N,GND*%
X30257549Y-77399367D03*
%TO.P,D27,2,A_2*%
%TO.N,/A11*%
X27282549Y-77399367D03*
%TD*%
D12*
%TO.P,D6,1,K_1*%
%TO.N,!HALT*%
X27327549Y-114350000D03*
%TO.P,D6,2,A_2*%
%TO.N,5V*%
X30302549Y-114350000D03*
%TD*%
D10*
%TO.P,SW15,1,1_1*%
%TO.N,Net-(U5-Q1)*%
X129512949Y-134858300D03*
X133662949Y-134858300D03*
%TO.P,SW15,2,2_2*%
%TO.N,Net-(U11-D1)*%
X129512949Y-137008300D03*
X133662949Y-137008300D03*
%TD*%
D22*
%TO.P,D20,1,K_1*%
%TO.N,GND*%
X103870049Y-101577500D03*
%TO.P,D20,2,A_2*%
%TO.N,Net-(D20-A)*%
X103870049Y-98602500D03*
%TD*%
D10*
%TO.P,SW10,1,1_1*%
%TO.N,Net-(U5-Q1)*%
X79859349Y-130533300D03*
X84009349Y-130533300D03*
%TO.P,SW10,2,2_2*%
%TO.N,Net-(U11-D6)*%
X79859349Y-132683300D03*
X84009349Y-132683300D03*
%TD*%
D22*
%TO.P,D3,1,K_1*%
%TO.N,GND*%
X83530049Y-101577500D03*
%TO.P,D3,2,A_2*%
%TO.N,!CS_EEPROM*%
X83530049Y-98602500D03*
%TD*%
D10*
%TO.P,SW28,1,1_1*%
%TO.N,Net-(U5-Q3)*%
X67423649Y-139216600D03*
X71573649Y-139216600D03*
%TO.P,SW28,2,2_2*%
%TO.N,Net-(U11-D4)*%
X67423649Y-141366600D03*
X71573649Y-141366600D03*
%TD*%
%TO.P,SW64,1,1_1*%
%TO.N,Net-(U5-Q7)*%
X92205749Y-139191600D03*
X96355749Y-139191600D03*
%TO.P,SW64,2,2_2*%
%TO.N,Net-(U11-D0)*%
X92205749Y-141341600D03*
X96355749Y-141341600D03*
%TD*%
D11*
%TO.P,R3,1*%
%TO.N,5V*%
X55980049Y-123500000D03*
%TO.P,R3,2*%
%TO.N,Net-(U10-~{WAIT})*%
X48360049Y-123500000D03*
%TD*%
D27*
%TO.P,U5,1,OE_1*%
%TO.N,GND*%
X139367249Y-115953300D03*
D11*
%TO.P,U5,2,D0_2*%
%TO.N,/D0*%
X136827249Y-115953300D03*
%TO.P,U5,3,D1_3*%
%TO.N,/D1*%
X134287249Y-115953300D03*
%TO.P,U5,4,D2_4*%
%TO.N,/D2*%
X131747249Y-115953300D03*
%TO.P,U5,5,D3_5*%
%TO.N,/D3*%
X129207249Y-115953300D03*
%TO.P,U5,6,D4_6*%
%TO.N,/D4*%
X126667249Y-115953300D03*
%TO.P,U5,7,D5_7*%
%TO.N,/D5*%
X124127249Y-115953300D03*
%TO.P,U5,8,D6_8*%
%TO.N,/D6*%
X121587249Y-115953300D03*
%TO.P,U5,9,D7_9*%
%TO.N,/D7*%
X119047249Y-115953300D03*
%TO.P,U5,10,GND_10*%
%TO.N,GND*%
X116507249Y-115953300D03*
%TO.P,U5,11,Load_11*%
%TO.N,5V*%
X116507249Y-123573300D03*
%TO.P,U5,12,Q7_12*%
%TO.N,Net-(U5-Q7)*%
X119047249Y-123573300D03*
%TO.P,U5,13,Q6_13*%
%TO.N,Net-(U5-Q6)*%
X121587249Y-123573300D03*
%TO.P,U5,14,Q5_14*%
%TO.N,Net-(U5-Q5)*%
X124127249Y-123573300D03*
%TO.P,U5,15,Q4_15*%
%TO.N,Net-(U5-Q4)*%
X126667249Y-123573300D03*
%TO.P,U5,16,Q3_16*%
%TO.N,Net-(U5-Q3)*%
X129207249Y-123573300D03*
%TO.P,U5,17,Q2_17*%
%TO.N,Net-(U5-Q2)*%
X131747249Y-123573300D03*
%TO.P,U5,18,Q1_18*%
%TO.N,Net-(U5-Q1)*%
X134287249Y-123573300D03*
%TO.P,U5,19,Q0_19*%
%TO.N,Net-(U5-Q0)*%
X136827249Y-123573300D03*
%TO.P,U5,20,VCC_20*%
%TO.N,5V*%
X139367249Y-123573300D03*
%TD*%
D12*
%TO.P,D9,1,K_1*%
%TO.N,!INT*%
X27327549Y-117166700D03*
%TO.P,D9,2,A_2*%
%TO.N,5V*%
X30302549Y-117166700D03*
%TD*%
D11*
%TO.P,R4,1*%
%TO.N,GND*%
X136770049Y-95710000D03*
%TO.P,R4,2*%
%TO.N,Net-(R4-Pad2)*%
X136770049Y-88090000D03*
%TD*%
%TO.P,R1,1*%
%TO.N,5V*%
X54680049Y-121200000D03*
%TO.P,R1,2*%
%TO.N,Net-(U10-~{BUSREQ})*%
X47060049Y-121200000D03*
%TD*%
D19*
%TO.P,U15,1,OE_1*%
%TO.N,GND*%
X83940049Y-86220000D03*
D11*
%TO.P,U15,2,D0_2*%
%TO.N,/D0*%
X86480049Y-86220000D03*
%TO.P,U15,3,D1_3*%
%TO.N,/D1*%
X89020049Y-86220000D03*
%TO.P,U15,4,D2_4*%
%TO.N,/D2*%
X91560049Y-86220000D03*
%TO.P,U15,5,D3_5*%
%TO.N,/D3*%
X94100049Y-86220000D03*
%TO.P,U15,6,D4_6*%
%TO.N,/D4*%
X96640049Y-86220000D03*
%TO.P,U15,7,D5_7*%
%TO.N,/D5*%
X99180049Y-86220000D03*
%TO.P,U15,8,D6_8*%
%TO.N,/D6*%
X101720049Y-86220000D03*
%TO.P,U15,9,D7_9*%
%TO.N,/D7*%
X104260049Y-86220000D03*
%TO.P,U15,10,GND_10*%
%TO.N,GND*%
X106800049Y-86220000D03*
%TO.P,U15,11,Load_11*%
%TO.N,IO6*%
X106800049Y-78600000D03*
%TO.P,U15,12,Q7_12*%
%TO.N,Net-(U14-DP)*%
X104260049Y-78600000D03*
%TO.P,U15,13,Q6_13*%
%TO.N,Net-(U14-G)*%
X101720049Y-78600000D03*
%TO.P,U15,14,Q5_14*%
%TO.N,Net-(U14-F)*%
X99180049Y-78600000D03*
%TO.P,U15,15,Q4_15*%
%TO.N,Net-(U14-E)*%
X96640049Y-78600000D03*
%TO.P,U15,16,Q3_16*%
%TO.N,Net-(U14-D)*%
X94100049Y-78600000D03*
%TO.P,U15,17,Q2_17*%
%TO.N,Net-(U14-C)*%
X91560049Y-78600000D03*
%TO.P,U15,18,Q1_18*%
%TO.N,Net-(U14-B)*%
X89020049Y-78600000D03*
%TO.P,U15,19,Q0_19*%
%TO.N,Net-(U14-A)*%
X86480049Y-78600000D03*
%TO.P,U15,20,VCC_20*%
%TO.N,5V*%
X83940049Y-78600000D03*
%TD*%
D16*
%TO.P,D28,1,K_1*%
%TO.N,GND*%
X30257549Y-74355067D03*
%TO.P,D28,2,A_2*%
%TO.N,/A12*%
X27282549Y-74355067D03*
%TD*%
D28*
%TO.P,Y2,1,1_1*%
%TO.N,Net-(IC1-X2)*%
X140470049Y-83500000D03*
%TO.P,Y2,2,2_2*%
%TO.N,Net-(IC1-X1)*%
X140470049Y-85400000D03*
%TD*%
D10*
%TO.P,SW59,1,1_1*%
%TO.N,Net-(U5-Q7)*%
X42552249Y-134875000D03*
X46702249Y-134875000D03*
%TO.P,SW59,2,2_2*%
%TO.N,Net-(U11-D5)*%
X42552249Y-137025000D03*
X46702249Y-137025000D03*
%TD*%
D16*
%TO.P,D13,1,K_1*%
%TO.N,GND*%
X30257549Y-95665467D03*
%TO.P,D13,2,A_2*%
%TO.N,/A5*%
X27282549Y-95665467D03*
%TD*%
D10*
%TO.P,SW62,1,1_1*%
%TO.N,Net-(U5-Q7)*%
X92205749Y-130525000D03*
X96355749Y-130525000D03*
%TO.P,SW62,2,2_2*%
%TO.N,Net-(U11-D2)*%
X92205749Y-132675000D03*
X96355749Y-132675000D03*
%TD*%
D12*
%TO.P,D15,1,K_1*%
%TO.N,!RD*%
X27327549Y-122800000D03*
%TO.P,D15,2,A_2*%
%TO.N,5V*%
X30302549Y-122800000D03*
%TD*%
D16*
%TO.P,D22,1,K_1*%
%TO.N,GND*%
X30257549Y-86532467D03*
%TO.P,D22,2,A_2*%
%TO.N,/A8*%
X27282549Y-86532467D03*
%TD*%
%TO.P,D10,1,K_1*%
%TO.N,GND*%
X30257549Y-98709867D03*
%TO.P,D10,2,A_2*%
%TO.N,/A4*%
X27282549Y-98709867D03*
%TD*%
D10*
%TO.P,SW36,1,1_1*%
%TO.N,Net-(U5-Q4)*%
X61205749Y-139216600D03*
X65355749Y-139216600D03*
%TO.P,SW36,2,2_2*%
%TO.N,Net-(U11-D4)*%
X61205749Y-141366600D03*
X65355749Y-141366600D03*
%TD*%
%TO.P,SW30,1,1_1*%
%TO.N,Net-(U5-Q3)*%
X117077249Y-130525000D03*
X121227249Y-130525000D03*
%TO.P,SW30,2,2_2*%
%TO.N,Net-(U11-D2)*%
X117077249Y-132675000D03*
X121227249Y-132675000D03*
%TD*%
%TO.P,SW44,1,1_1*%
%TO.N,Net-(U5-Q5)*%
X54987949Y-139216600D03*
X59137949Y-139216600D03*
%TO.P,SW44,2,2_2*%
%TO.N,Net-(U11-D4)*%
X54987949Y-141366600D03*
X59137949Y-141366600D03*
%TD*%
D13*
%TO.P,J2,1,Pin_1_1*%
%TO.N,5V*%
X39170049Y-17910000D03*
D14*
%TO.P,J2,2,Pin_2_2*%
%TO.N,GND*%
X39170049Y-20450000D03*
%TO.P,J2,3,Pin_3_3*%
%TO.N,Net-(J2-Pin_3)*%
X39170049Y-22990000D03*
%TO.P,J2,4,Pin_4_4*%
%TO.N,Net-(J2-Pin_4)*%
X39170049Y-25530000D03*
%TO.P,J2,5,Pin_5_5*%
%TO.N,Net-(J2-Pin_5)*%
X39170049Y-28070000D03*
%TO.P,J2,6,Pin_6_6*%
%TO.N,Net-(BZ1-+)*%
X39170049Y-30610000D03*
%TO.P,J2,7,Pin_7_7*%
%TO.N,Net-(J2-Pin_7)*%
X39170049Y-33150000D03*
%TO.P,J2,8,Pin_8_8*%
%TO.N,Net-(J2-Pin_8)*%
X39170049Y-35690000D03*
%TD*%
D16*
%TO.P,D39,1,K_1*%
%TO.N,GND*%
X30257549Y-40867167D03*
%TO.P,D39,2,A_2*%
%TO.N,/D7*%
X27282549Y-40867167D03*
%TD*%
D19*
%TO.P,U11,1,OE_1*%
%TO.N,IO1*%
X87307249Y-123578300D03*
D11*
%TO.P,U11,2,D0_2*%
%TO.N,Net-(U11-D0)*%
X89847249Y-123578300D03*
%TO.P,U11,3,D1_3*%
%TO.N,Net-(U11-D1)*%
X92387249Y-123578300D03*
%TO.P,U11,4,D2_4*%
%TO.N,Net-(U11-D2)*%
X94927249Y-123578300D03*
%TO.P,U11,5,D3_5*%
%TO.N,Net-(U11-D3)*%
X97467249Y-123578300D03*
%TO.P,U11,6,D4_6*%
%TO.N,Net-(U11-D4)*%
X100007249Y-123578300D03*
%TO.P,U11,7,D5_7*%
%TO.N,Net-(U11-D5)*%
X102547249Y-123578300D03*
%TO.P,U11,8,D6_8*%
%TO.N,Net-(U11-D6)*%
X105087249Y-123578300D03*
%TO.P,U11,9,D7_9*%
%TO.N,Net-(U11-D7)*%
X107627249Y-123578300D03*
%TO.P,U11,10,GND_10*%
%TO.N,GND*%
X110167249Y-123578300D03*
%TO.P,U11,11,Load_11*%
%TO.N,5V*%
X110167249Y-115958300D03*
%TO.P,U11,12,Q7_12*%
%TO.N,/D0*%
X107627249Y-115958300D03*
%TO.P,U11,13,Q6_13*%
%TO.N,/D1*%
X105087249Y-115958300D03*
%TO.P,U11,14,Q5_14*%
%TO.N,/D2*%
X102547249Y-115958300D03*
%TO.P,U11,15,Q4_15*%
%TO.N,/D3*%
X100007249Y-115958300D03*
%TO.P,U11,16,Q3_16*%
%TO.N,/D4*%
X97467249Y-115958300D03*
%TO.P,U11,17,Q2_17*%
%TO.N,/D5*%
X94927249Y-115958300D03*
%TO.P,U11,18,Q1_18*%
%TO.N,/D6*%
X92387249Y-115958300D03*
%TO.P,U11,19,Q0_19*%
%TO.N,/D7*%
X89847249Y-115958300D03*
%TO.P,U11,20,VCC_20*%
%TO.N,5V*%
X87307249Y-115958300D03*
%TD*%
D10*
%TO.P,SW5,1,1_1*%
%TO.N,Net-(U5-Q0)*%
X135730749Y-126191600D03*
X139880749Y-126191600D03*
%TO.P,SW5,2,2_2*%
%TO.N,Net-(U11-D3)*%
X135730749Y-128341600D03*
X139880749Y-128341600D03*
%TD*%
%TO.P,SW45,1,1_1*%
%TO.N,Net-(U5-Q5)*%
X104641449Y-126191600D03*
X108791449Y-126191600D03*
%TO.P,SW45,2,2_2*%
%TO.N,Net-(U11-D3)*%
X104641449Y-128341600D03*
X108791449Y-128341600D03*
%TD*%
%TO.P,SW49,1,1_1*%
%TO.N,Net-(U5-Q6)*%
X48770049Y-126191600D03*
X52920049Y-126191600D03*
%TO.P,SW49,2,2_2*%
%TO.N,Net-(U11-D7)*%
X48770049Y-128341600D03*
X52920049Y-128341600D03*
%TD*%
D16*
%TO.P,D29,1,K_1*%
%TO.N,GND*%
X30257549Y-71310667D03*
%TO.P,D29,2,A_2*%
%TO.N,/A13*%
X27282549Y-71310667D03*
%TD*%
D22*
%TO.P,D5,1,K_1*%
%TO.N,GND*%
X86920049Y-101577500D03*
%TO.P,D5,2,A_2*%
%TO.N,!CS_RAM*%
X86920049Y-98602500D03*
%TD*%
D10*
%TO.P,SW40,1,1_1*%
%TO.N,Net-(U5-Q4)*%
X110859349Y-139191600D03*
X115009349Y-139191600D03*
%TO.P,SW40,2,2_2*%
%TO.N,Net-(U11-D0)*%
X110859349Y-141341600D03*
X115009349Y-141341600D03*
%TD*%
D11*
%TO.P,R6,1*%
%TO.N,GND*%
X136870049Y-85910000D03*
%TO.P,R6,2*%
%TO.N,Net-(R6-Pad2)*%
X136870049Y-78290000D03*
%TD*%
D16*
%TO.P,D16,1,K_1*%
%TO.N,GND*%
X30257549Y-92621167D03*
%TO.P,D16,2,A_2*%
%TO.N,/A6*%
X27282549Y-92621167D03*
%TD*%
D10*
%TO.P,SW54,1,1_1*%
%TO.N,Net-(U5-Q6)*%
X98423649Y-130525000D03*
X102573649Y-130525000D03*
%TO.P,SW54,2,2_2*%
%TO.N,Net-(U11-D2)*%
X98423649Y-132675000D03*
X102573649Y-132675000D03*
%TD*%
D22*
%TO.P,D17,1,K_1*%
%TO.N,GND*%
X100480049Y-101577500D03*
%TO.P,D17,2,A_2*%
%TO.N,Net-(D17-A)*%
X100480049Y-98602500D03*
%TD*%
D10*
%TO.P,SW14,1,1_1*%
%TO.N,Net-(U5-Q1)*%
X129512949Y-130525000D03*
X133662949Y-130525000D03*
%TO.P,SW14,2,2_2*%
%TO.N,Net-(U11-D2)*%
X129512949Y-132675000D03*
X133662949Y-132675000D03*
%TD*%
D18*
%TO.P,Y1,1,EN_1*%
%TO.N,5V*%
X53250049Y-78610000D03*
D11*
%TO.P,Y1,7,GND_7*%
%TO.N,GND*%
X68490049Y-78610000D03*
%TO.P,Y1,8,OUT_8*%
%TO.N,CLK*%
X68490049Y-70990000D03*
%TO.P,Y1,14,Vcc_14*%
%TO.N,5V*%
X53250049Y-70990000D03*
%TD*%
D29*
%TO.P,U7,1,A14_1*%
%TO.N,/A14*%
X129570049Y-72300000D03*
D30*
%TO.P,U7,2,A12_2*%
%TO.N,/A12*%
X127030049Y-72300000D03*
%TO.P,U7,3,A7_3*%
%TO.N,/A7*%
X124490049Y-72300000D03*
%TO.P,U7,4,A6_4*%
%TO.N,/A6*%
X121950049Y-72300000D03*
%TO.P,U7,5,A5_5*%
%TO.N,/A5*%
X119410049Y-72300000D03*
%TO.P,U7,6,A4_6*%
%TO.N,/A4*%
X116870049Y-72300000D03*
%TO.P,U7,7,A3_7*%
%TO.N,/A3*%
X114330049Y-72300000D03*
%TO.P,U7,8,A2_8*%
%TO.N,/A2*%
X111790049Y-72300000D03*
%TO.P,U7,9,A1_9*%
%TO.N,/A1*%
X109250049Y-72300000D03*
%TO.P,U7,10,A0_10*%
%TO.N,/A0*%
X106710049Y-72300000D03*
%TO.P,U7,11,Q0_11*%
%TO.N,/D0*%
X104170049Y-72300000D03*
%TO.P,U7,12,Q1_12*%
%TO.N,/D1*%
X101630049Y-72300000D03*
%TO.P,U7,13,Q2_13*%
%TO.N,/D2*%
X99090049Y-72300000D03*
%TO.P,U7,14,GND_14*%
%TO.N,GND*%
X96550049Y-72300000D03*
%TO.P,U7,15,Q3_15*%
%TO.N,/D3*%
X96550049Y-62140000D03*
%TO.P,U7,16,Q4_16*%
%TO.N,/D4*%
X99090049Y-62140000D03*
%TO.P,U7,17,Q5_17*%
%TO.N,/D5*%
X101630049Y-62140000D03*
%TO.P,U7,18,Q6_18*%
%TO.N,/D6*%
X104170049Y-62140000D03*
%TO.P,U7,19,Q7_19*%
%TO.N,/D7*%
X106710049Y-62140000D03*
%TO.P,U7,20,~{CS}_20*%
%TO.N,!CS_RAM*%
X109250049Y-62140000D03*
%TO.P,U7,21,A10_21*%
%TO.N,/A10*%
X111790049Y-62140000D03*
%TO.P,U7,22,~{OE}_22*%
%TO.N,!RD*%
X114330049Y-62140000D03*
%TO.P,U7,23,A11_23*%
%TO.N,/A11*%
X116870049Y-62140000D03*
%TO.P,U7,24,A9_24*%
%TO.N,/A9*%
X119410049Y-62140000D03*
%TO.P,U7,25,A8_25*%
%TO.N,/A8*%
X121950049Y-62140000D03*
%TO.P,U7,26,A13_26*%
%TO.N,/A13*%
X124490049Y-62140000D03*
%TO.P,U7,27,~{WE}_27*%
%TO.N,!WR*%
X127030049Y-62140000D03*
%TO.P,U7,28,VCC_28*%
%TO.N,5V*%
X129570049Y-62140000D03*
%TD*%
D29*
%TO.P,U8,1,A14_1*%
%TO.N,/A14*%
X129570049Y-50985000D03*
D30*
%TO.P,U8,2,A12_2*%
%TO.N,/A12*%
X127030049Y-50985000D03*
%TO.P,U8,3,A7_3*%
%TO.N,/A7*%
X124490049Y-50985000D03*
%TO.P,U8,4,A6_4*%
%TO.N,/A6*%
X121950049Y-50985000D03*
%TO.P,U8,5,A5_5*%
%TO.N,/A5*%
X119410049Y-50985000D03*
%TO.P,U8,6,A4_6*%
%TO.N,/A4*%
X116870049Y-50985000D03*
%TO.P,U8,7,A3_7*%
%TO.N,/A3*%
X114330049Y-50985000D03*
%TO.P,U8,8,A2_8*%
%TO.N,/A2*%
X111790049Y-50985000D03*
%TO.P,U8,9,A1_9*%
%TO.N,/A1*%
X109250049Y-50985000D03*
%TO.P,U8,10,A0_10*%
%TO.N,/A0*%
X106710049Y-50985000D03*
%TO.P,U8,11,D0_11*%
%TO.N,/D0*%
X104170049Y-50985000D03*
%TO.P,U8,12,D1_12*%
%TO.N,/D1*%
X101630049Y-50985000D03*
%TO.P,U8,13,D2_13*%
%TO.N,/D2*%
X99090049Y-50985000D03*
%TO.P,U8,14,GND_14*%
%TO.N,GND*%
X96550049Y-50985000D03*
%TO.P,U8,15,D3_15*%
%TO.N,/D3*%
X96550049Y-40825000D03*
%TO.P,U8,16,D4_16*%
%TO.N,/D4*%
X99090049Y-40825000D03*
%TO.P,U8,17,D5_17*%
%TO.N,/D5*%
X101630049Y-40825000D03*
%TO.P,U8,18,D6_18*%
%TO.N,/D6*%
X104170049Y-40825000D03*
%TO.P,U8,19,D7_19*%
%TO.N,/D7*%
X106710049Y-40825000D03*
%TO.P,U8,20,~{CS}_20*%
%TO.N,!CS_EEPROM*%
X109250049Y-40825000D03*
%TO.P,U8,21,A10_21*%
%TO.N,/A10*%
X111790049Y-40825000D03*
%TO.P,U8,22,~{OE}_22*%
%TO.N,!RD*%
X114330049Y-40825000D03*
%TO.P,U8,23,A11_23*%
%TO.N,/A11*%
X116870049Y-40825000D03*
%TO.P,U8,24,A9_24*%
%TO.N,/A9*%
X119410049Y-40825000D03*
%TO.P,U8,25,A8_25*%
%TO.N,/A8*%
X121950049Y-40825000D03*
%TO.P,U8,26,A13_26*%
%TO.N,/A13*%
X124490049Y-40825000D03*
%TO.P,U8,27,~{WE}_27*%
%TO.N,!WR*%
X127030049Y-40825000D03*
%TO.P,U8,28,VCC_28*%
%TO.N,5V*%
X129570049Y-40825000D03*
%TD*%
D29*
%TO.P,U9,1,A14_1*%
%TO.N,/A14*%
X129570049Y-29670000D03*
D30*
%TO.P,U9,2,A12_2*%
%TO.N,/A12*%
X127030049Y-29670000D03*
%TO.P,U9,3,A7_3*%
%TO.N,/A7*%
X124490049Y-29670000D03*
%TO.P,U9,4,A6_4*%
%TO.N,/A6*%
X121950049Y-29670000D03*
%TO.P,U9,5,A5_5*%
%TO.N,/A5*%
X119410049Y-29670000D03*
%TO.P,U9,6,A4_6*%
%TO.N,/A4*%
X116870049Y-29670000D03*
%TO.P,U9,7,A3_7*%
%TO.N,/A3*%
X114330049Y-29670000D03*
%TO.P,U9,8,A2_8*%
%TO.N,/A2*%
X111790049Y-29670000D03*
%TO.P,U9,9,A1_9*%
%TO.N,/A1*%
X109250049Y-29670000D03*
%TO.P,U9,10,A0_10*%
%TO.N,/A0*%
X106710049Y-29670000D03*
%TO.P,U9,11,D0_11*%
%TO.N,/D0*%
X104170049Y-29670000D03*
%TO.P,U9,12,D1_12*%
%TO.N,/D1*%
X101630049Y-29670000D03*
%TO.P,U9,13,D2_13*%
%TO.N,/D2*%
X99090049Y-29670000D03*
%TO.P,U9,14,GND_14*%
%TO.N,GND*%
X96550049Y-29670000D03*
%TO.P,U9,15,D3_15*%
%TO.N,/D3*%
X96550049Y-19510000D03*
%TO.P,U9,16,D4_16*%
%TO.N,/D4*%
X99090049Y-19510000D03*
%TO.P,U9,17,D5_17*%
%TO.N,/D5*%
X101630049Y-19510000D03*
%TO.P,U9,18,D6_18*%
%TO.N,/D6*%
X104170049Y-19510000D03*
%TO.P,U9,19,D7_19*%
%TO.N,/D7*%
X106710049Y-19510000D03*
%TO.P,U9,20,~{CS}_20*%
%TO.N,!CS_Main*%
X109250049Y-19510000D03*
%TO.P,U9,21,A10_21*%
%TO.N,/A10*%
X111790049Y-19510000D03*
%TO.P,U9,22,~{OE}_22*%
%TO.N,!RD*%
X114330049Y-19510000D03*
%TO.P,U9,23,A11_23*%
%TO.N,/A11*%
X116870049Y-19510000D03*
%TO.P,U9,24,A9_24*%
%TO.N,/A9*%
X119410049Y-19510000D03*
%TO.P,U9,25,A8_25*%
%TO.N,/A8*%
X121950049Y-19510000D03*
%TO.P,U9,26,A13_26*%
%TO.N,/A13*%
X124490049Y-19510000D03*
%TO.P,U9,27,~{WE}_27*%
%TO.N,!WR*%
X127030049Y-19510000D03*
%TO.P,U9,28,VCC_28*%
%TO.N,5V*%
X129570049Y-19510000D03*
%TD*%
D26*
%TO.P,BT1,1,+_1*%
%TO.N,Net-(BT1-+)*%
X38270049Y-119142545D03*
D25*
%TO.P,BT1,2,-_2*%
%TO.N,GND*%
X38270049Y-139942545D03*
%TD*%
D31*
%TO.N,Net-(U11-D6)*%
X83970049Y-132700000D03*
%TO.N,Net-(U5-Q2)*%
X74770049Y-143791600D03*
X74770049Y-139641600D03*
%TO.N,Net-(U11-D4)*%
X86070049Y-141316600D03*
%TO.N,5V*%
X130650563Y-18019486D03*
%TO.N,Net-(U10-~{NMI})*%
X37770049Y-115200000D03*
%TO.N,!MREQ*%
X43570046Y-113051469D03*
%TO.N,GND*%
X33550049Y-58100000D03*
X73870049Y-59700000D03*
%TO.N,TX2*%
X56728431Y-14000000D03*
%TO.N,RX2*%
X57470052Y-14300000D03*
%TO.N,!IORQ*%
X64622157Y-101400000D03*
X28670049Y-125500000D03*
X53470049Y-103800000D03*
X65670049Y-97800000D03*
X66070049Y-95600000D03*
X44170046Y-111200000D03*
%TO.N,!RD*%
X15620047Y-122400000D03*
X137370049Y-111299997D03*
X121170049Y-111500000D03*
X140470049Y-111500000D03*
X150770049Y-111100000D03*
%TO.N,!WR*%
X16020047Y-119600000D03*
X137370049Y-112100000D03*
X143470049Y-112100000D03*
X150370049Y-113500000D03*
%TO.N,!INT*%
X76754314Y-110611513D03*
X102370049Y-109535735D03*
X111570049Y-112200000D03*
X85670049Y-109000000D03*
X126270049Y-110300000D03*
%TO.N,!RESET*%
X47170049Y-119000000D03*
X71770049Y-115500000D03*
X44970049Y-105500000D03*
X75070049Y-116300000D03*
X44970049Y-111200000D03*
X123770049Y-111500000D03*
X45911671Y-117500000D03*
X135770049Y-111000000D03*
%TO.N,IO8*%
X61170049Y-107480000D03*
X33450318Y-102789550D03*
X51070049Y-107900000D03*
%TO.N,CLK*%
X32270049Y-80700000D03*
X47370049Y-68700000D03*
X22670049Y-107000000D03*
%TO.N,/A0*%
X18570049Y-101900000D03*
X106670049Y-47300000D03*
X111370049Y-93400000D03*
X107416888Y-83400000D03*
%TO.N,/A1*%
X18970049Y-99400000D03*
X109170049Y-47800000D03*
%TO.N,/A2*%
X111870049Y-48300000D03*
X19370049Y-96900000D03*
%TO.N,/A3*%
X19770049Y-94287167D03*
%TO.N,/A4*%
X20170049Y-91747167D03*
X42173705Y-89321777D03*
%TO.N,/A5*%
X20570049Y-89200000D03*
X42770049Y-86200000D03*
%TO.N,/A6*%
X42263701Y-84517817D03*
X20970049Y-86700000D03*
%TO.N,/A7*%
X21370049Y-83277167D03*
X42270049Y-81100000D03*
%TO.N,/A8*%
X42870049Y-78400000D03*
X20168045Y-81650742D03*
%TO.N,/A9*%
X43070049Y-75100000D03*
X20370049Y-79100000D03*
%TO.N,/A10*%
X20770049Y-76500000D03*
X41970049Y-73700000D03*
%TO.N,/A11*%
X50370049Y-68100000D03*
X20420049Y-74000000D03*
%TO.N,/A12*%
X20770049Y-71400000D03*
X39670049Y-71900000D03*
%TO.N,/A13*%
X32270049Y-73100000D03*
X39570049Y-72900000D03*
X21541568Y-68970064D03*
%TO.N,/A14*%
X22370049Y-65300000D03*
X39770049Y-74420000D03*
X32370049Y-75700000D03*
%TO.N,A15*%
X32270049Y-78160000D03*
X40670049Y-76900000D03*
X67970049Y-99800000D03*
%TO.N,/D0*%
X87670049Y-79400000D03*
X85550049Y-105000000D03*
X38470049Y-71254478D03*
%TO.N,/D1*%
X90270049Y-76900000D03*
X38470049Y-70454475D03*
X88970049Y-113110000D03*
X87830049Y-105200000D03*
%TO.N,/D2*%
X90370049Y-105100000D03*
X92870049Y-76300000D03*
X91470049Y-113510000D03*
X37471520Y-69755946D03*
%TO.N,/D3*%
X92910049Y-105200000D03*
X88210049Y-23300000D03*
X93970049Y-113910000D03*
X37431550Y-67400000D03*
%TO.N,/D4*%
X95450049Y-105500000D03*
X38221918Y-67523785D03*
X88210049Y-25700000D03*
X96570049Y-114910000D03*
%TO.N,/D5*%
X38870049Y-68000000D03*
X97874058Y-105318138D03*
X88170049Y-28300000D03*
%TO.N,/D6*%
X88170049Y-30800000D03*
X39570049Y-68500000D03*
X100530049Y-105100000D03*
%TO.N,/D7*%
X40270049Y-69012149D03*
X88170049Y-33400000D03*
X103022967Y-105047082D03*
%TO.N,Net-(U5-Q3)*%
X68570049Y-143191600D03*
X68570049Y-139641600D03*
%TO.N,Net-(U11-D1)*%
X96570049Y-137000000D03*
%TO.N,Net-(U1-Pad4)*%
X78170049Y-98100000D03*
X71270049Y-118100000D03*
X74954314Y-102015735D03*
X60855049Y-110969789D03*
X62445784Y-112560000D03*
%TO.N,!CS_EEPROM*%
X83530049Y-98602500D03*
X94970049Y-18400000D03*
X83170049Y-90200000D03*
X83340049Y-76500000D03*
X82170049Y-85300000D03*
X82170049Y-88900000D03*
X94570049Y-61440000D03*
%TO.N,!CS_RAM*%
X81170049Y-81300000D03*
X86270049Y-84200000D03*
X107919204Y-84750846D03*
X85590049Y-89800000D03*
%TO.N,!CS_Main*%
X99070049Y-17800000D03*
X92370049Y-61700000D03*
X82270049Y-70200000D03*
%TO.N,Net-(U1-Pad12)*%
X68114631Y-97744582D03*
X67316103Y-96846052D03*
%TO.N,Net-(U5-Q1)*%
X80970049Y-144391600D03*
X80970049Y-139641600D03*
%TO.N,Net-(U11-D3)*%
X102470049Y-128300000D03*
%TO.N,Net-(U11-D2)*%
X98370049Y-132500000D03*
%TO.N,Net-(U10-~{WAIT})*%
X44295784Y-119925735D03*
%TO.N,Net-(U10-~{BUSREQ})*%
X43970049Y-104500000D03*
X44970049Y-112400000D03*
X45170049Y-117800000D03*
%TO.N,Net-(U5-Q5)*%
X56070049Y-141316600D03*
X56070049Y-139641600D03*
%TO.N,Net-(U5-Q6)*%
X49770049Y-139641600D03*
X49770049Y-140841600D03*
%TO.N,Net-(U11-D5)*%
X86070049Y-137000000D03*
%TO.N,Net-(U5-Q0)*%
X87170049Y-144991600D03*
X87170049Y-139641600D03*
%TO.N,Net-(U11-D0)*%
X92170049Y-141316600D03*
%TO.N,Net-(U5-Q4)*%
X62470049Y-142591600D03*
X62370049Y-139600000D03*
%TO.N,Net-(U11-D7)*%
X79870049Y-128300000D03*
%TO.N,Net-(U4-~{S2})*%
X65926103Y-105856052D03*
%TO.N,IO2*%
X70570049Y-74400000D03*
X64022157Y-97600000D03*
X71170049Y-67100000D03*
%TO.N,IO3*%
X67370049Y-66820000D03*
X67185784Y-63084265D03*
X67394314Y-93324265D03*
X56370049Y-54460000D03*
%TO.N,Net-(U4-~{S3})*%
X58305784Y-112335735D03*
X54994314Y-104475735D03*
X67370049Y-106580000D03*
%TO.N,Net-(U4-~{S4})*%
X72270049Y-100800000D03*
%TO.N,IO4*%
X85670049Y-110000000D03*
X107420784Y-109850735D03*
X83170049Y-115700000D03*
%TO.N,IO5*%
X108450049Y-89400000D03*
X107970049Y-103200000D03*
X105373582Y-111901443D03*
X82570049Y-117500000D03*
%TO.N,IO6*%
X83570049Y-97390000D03*
X82170049Y-106200000D03*
%TO.N,Net-(U4-~{S8})*%
X70950049Y-104700000D03*
%TO.N,Net-(U16-INTR)*%
X76470049Y-69000000D03*
X76121519Y-99300000D03*
X77495784Y-106374265D03*
X79014314Y-97604265D03*
X76370049Y-74175000D03*
X76370049Y-59900000D03*
X76170049Y-56700000D03*
X76170049Y-43500000D03*
X77836446Y-111833603D03*
X78142203Y-110072154D03*
%TO.N,Net-(U16-MR)*%
X75570049Y-29560000D03*
X75770049Y-77200000D03*
X76965874Y-97392956D03*
X75570049Y-72975000D03*
X74104314Y-101165735D03*
X75570049Y-63420000D03*
X75570049Y-58340000D03*
%TO.N,Net-(J3-Pin_9)*%
X32319314Y-28149265D03*
X31870049Y-40800000D03*
%TO.N,Net-(R6-Pad2)*%
X117570049Y-83700000D03*
X110270049Y-89400000D03*
%TO.N,Net-(U14-F)*%
X99180049Y-82400000D03*
%TO.N,Net-(U14-G)*%
X101720049Y-82400000D03*
%TO.N,Net-(U14-E)*%
X96640049Y-82000000D03*
%TO.N,Net-(U14-D)*%
X94070049Y-81400000D03*
%TO.N,Net-(U14-DP)*%
X104270049Y-81400000D03*
%TO.N,Net-(U14-C)*%
X91570049Y-81000000D03*
%TO.N,Net-(U14-B)*%
X88970049Y-80600000D03*
%TO.N,Net-(U14-A)*%
X86470049Y-80000000D03*
%TO.N,IO7*%
X85670049Y-107600000D03*
X82370049Y-103400000D03*
X83170049Y-107400000D03*
X78745784Y-96140000D03*
%TO.N,Net-(BT1-+)*%
X130570049Y-116900000D03*
X139470049Y-117700000D03*
X141370049Y-117800000D03*
%TO.N,Net-(U12-DP)*%
X104170049Y-91400000D03*
%TO.N,Net-(U12-G)*%
X101670049Y-92400000D03*
%TO.N,Net-(U12-F)*%
X99130049Y-92400000D03*
%TO.N,Net-(U12-E)*%
X96590049Y-92000000D03*
%TO.N,Net-(U12-D)*%
X94070049Y-91400000D03*
%TO.N,Net-(U12-C)*%
X91570049Y-91000000D03*
%TO.N,Net-(U12-B)*%
X88970049Y-90600000D03*
%TO.N,Net-(U12-A)*%
X86470049Y-91000000D03*
%TO.N,Net-(U16-RCLK)*%
X73970049Y-42760000D03*
%TO.N,IO1*%
X81517021Y-117499999D03*
X76154314Y-109992792D03*
%TD*%
%TO.N,Net-(U5-Q7)*%
D32*
X46702249Y-134875000D02*
X47527249Y-135700000D01*
X96355749Y-134858300D02*
X97180749Y-135683300D01*
X97847349Y-124700000D02*
X96355749Y-126191600D01*
X97180749Y-129700000D02*
X96355749Y-130525000D01*
X117947249Y-122473300D02*
X116051614Y-122473300D01*
X96355749Y-126191600D02*
X97180749Y-127016600D01*
X42552249Y-139216600D02*
X43577249Y-140241600D01*
X114570049Y-124700000D02*
X97847349Y-124700000D01*
X42552249Y-130533300D02*
X41727249Y-131358300D01*
X41727249Y-131358300D02*
X41727249Y-134050000D01*
X47527249Y-135700000D02*
X47527249Y-138391600D01*
X91380749Y-134033300D02*
X92205749Y-134858300D01*
X115407249Y-123862800D02*
X114570049Y-124700000D01*
X116051614Y-122473300D02*
X115407249Y-123117665D01*
X115407249Y-123117665D02*
X115407249Y-123862800D01*
X46702249Y-126191600D02*
X47527249Y-127016600D01*
X119047249Y-123573300D02*
X117947249Y-122473300D01*
X97180749Y-127016600D02*
X97180749Y-129700000D01*
X43577249Y-140241600D02*
X91155749Y-140241600D01*
X97180749Y-138366600D02*
X96355749Y-139191600D01*
X41727249Y-134050000D02*
X42552249Y-134875000D01*
X91155749Y-140241600D02*
X92205749Y-139191600D01*
X92205749Y-130525000D02*
X91380749Y-131350000D01*
X91380749Y-131350000D02*
X91380749Y-134033300D01*
X47527249Y-129708300D02*
X46702249Y-130533300D01*
X47527249Y-127016600D02*
X47527249Y-129708300D01*
X97180749Y-135683300D02*
X97180749Y-138366600D01*
X47527249Y-138391600D02*
X46702249Y-139216600D01*
%TO.N,Net-(U11-D6)*%
X46702249Y-132683300D02*
X47527249Y-133508300D01*
X84009349Y-133347786D02*
X85252249Y-134590686D01*
X65355749Y-132683300D02*
X65355749Y-133372786D01*
X72816449Y-134615686D02*
X72816449Y-135500000D01*
X47527249Y-135082200D02*
X47945049Y-135500000D01*
X79034349Y-134615686D02*
X79034349Y-135500000D01*
X65355749Y-133372786D02*
X66598649Y-134615686D01*
X52920049Y-132683300D02*
X52920049Y-133372786D01*
X59137949Y-133372886D02*
X60380749Y-134615686D01*
X62539049Y-135500000D02*
X65355749Y-132683300D01*
X66598649Y-135500000D02*
X68756949Y-135500000D01*
X83970049Y-132700000D02*
X83992649Y-132700000D01*
X47527249Y-133508300D02*
X47527249Y-135082200D01*
X85252249Y-135475000D02*
X87410549Y-135475000D01*
X71573649Y-132683300D02*
X71573649Y-133372886D01*
X59137949Y-132683300D02*
X59137949Y-133372886D01*
X84009349Y-132683300D02*
X84009349Y-133347786D01*
X47945049Y-135500000D02*
X50103349Y-135500000D01*
X77791449Y-133372786D02*
X79034349Y-134615686D01*
X56321249Y-135500000D02*
X59137949Y-132683300D01*
X79034349Y-135500000D02*
X81192649Y-135500000D01*
X60380749Y-135500000D02*
X62539049Y-135500000D01*
X60380749Y-134615686D02*
X60380749Y-135500000D01*
X77791449Y-132683300D02*
X77791449Y-133372786D01*
X54162949Y-134615686D02*
X54162949Y-135500000D01*
X66598649Y-134615686D02*
X66598649Y-135500000D01*
X81192649Y-135500000D02*
X84009349Y-132683300D01*
X68756949Y-135500000D02*
X71573649Y-132683300D01*
X74974749Y-135500000D02*
X77791449Y-132683300D01*
X87410549Y-135475000D02*
X90227249Y-132658300D01*
X52920049Y-133372786D02*
X54162949Y-134615686D01*
X85252249Y-134590686D02*
X85252249Y-135475000D01*
X83992649Y-132700000D02*
X84009349Y-132683300D01*
X71573649Y-133372886D02*
X72816449Y-134615686D01*
X72816449Y-135500000D02*
X74974749Y-135500000D01*
X54162949Y-135500000D02*
X56321249Y-135500000D01*
X50103349Y-135500000D02*
X52920049Y-132683300D01*
%TO.N,Net-(U5-Q2)*%
X77791449Y-126191600D02*
X78616449Y-127016600D01*
X78616449Y-135700000D02*
X78616449Y-138391600D01*
X115978449Y-143791600D02*
X119553449Y-140216600D01*
X123295049Y-130525000D02*
X122470049Y-131350000D01*
X128270049Y-135683300D02*
X128270049Y-138366600D01*
X74770049Y-143791600D02*
X115978449Y-143791600D01*
X72816449Y-131358300D02*
X72816449Y-134050000D01*
X119553449Y-140216600D02*
X122270049Y-140216600D01*
X128270049Y-138366600D02*
X127445049Y-139191600D01*
X128270049Y-127016600D02*
X128270049Y-129700000D01*
X78616449Y-129708300D02*
X77791449Y-130533300D01*
X128270049Y-129700000D02*
X127445049Y-130525000D01*
X73641449Y-139216600D02*
X74345049Y-139216600D01*
X73641449Y-130533300D02*
X72816449Y-131358300D01*
X122470049Y-134033300D02*
X123295049Y-134858300D01*
X127445049Y-126191600D02*
X128270049Y-127016600D01*
X77791449Y-134875000D02*
X78616449Y-135700000D01*
X74345049Y-139216600D02*
X74770049Y-139641600D01*
X128170049Y-126191600D02*
X130788349Y-123573300D01*
X78616449Y-138391600D02*
X77791449Y-139216600D01*
X122270049Y-140216600D02*
X123295049Y-139191600D01*
X127445049Y-126191600D02*
X128170049Y-126191600D01*
X127445049Y-134858300D02*
X128270049Y-135683300D01*
X122470049Y-131350000D02*
X122470049Y-134033300D01*
X130788349Y-123573300D02*
X131747249Y-123573300D01*
X72816449Y-134050000D02*
X73641449Y-134875000D01*
X78616449Y-127016600D02*
X78616449Y-129708300D01*
%TO.N,Net-(U11-D4)*%
X86070049Y-141334400D02*
X86077249Y-141341600D01*
X86070049Y-141316600D02*
X86070049Y-141334400D01*
%TO.N,5V*%
X130650563Y-18429486D02*
X129570049Y-19510000D01*
X59770049Y-114260000D02*
X62555049Y-111475000D01*
X34150049Y-44600000D02*
X35250049Y-43500000D01*
X48770049Y-60880000D02*
X35834414Y-60880000D01*
X65370049Y-111060000D02*
X72650049Y-118340000D01*
X138870049Y-113340000D02*
X139870049Y-112340000D01*
X140467249Y-114937200D02*
X138870049Y-113340000D01*
X84950049Y-105248529D02*
X85070049Y-105368529D01*
X53250049Y-70990000D02*
X53250049Y-78610000D01*
X57230049Y-116800000D02*
X59770049Y-114260000D01*
X83940049Y-78600000D02*
X83940049Y-73805000D01*
X83940049Y-73805000D02*
X84170049Y-73575000D01*
X85070049Y-105368529D02*
X85070049Y-113721100D01*
X82770049Y-87280000D02*
X82770049Y-79770000D01*
X52150049Y-116800000D02*
X52150049Y-118670000D01*
X53250049Y-65360000D02*
X48770049Y-60880000D01*
X140467249Y-122473300D02*
X140467249Y-114937200D01*
X72370049Y-47340000D02*
X72370049Y-44800000D01*
X71585305Y-17960000D02*
X70485305Y-16860000D01*
X83890049Y-88400000D02*
X82770049Y-87280000D01*
X128550049Y-61120000D02*
X128550049Y-41845000D01*
X54680049Y-121200000D02*
X55980049Y-122500000D01*
X52150049Y-118670000D02*
X54680049Y-121200000D01*
X128550049Y-39805000D02*
X128550049Y-20530000D01*
X32630049Y-92460000D02*
X33730049Y-91360000D01*
X35250049Y-43500000D02*
X42870049Y-43500000D01*
X55930049Y-46240000D02*
X54830049Y-47340000D01*
X130650563Y-18019486D02*
X130650563Y-18429486D01*
X85070049Y-113721100D02*
X87307249Y-115958300D01*
X34150049Y-59195635D02*
X34150049Y-44600000D01*
X62555049Y-111475000D02*
X62555049Y-111060000D01*
X32852549Y-116900000D02*
X30302549Y-114350000D01*
X128550049Y-41845000D02*
X129570049Y-40825000D01*
X42380049Y-14700000D02*
X39170049Y-17910000D01*
X53250049Y-70990000D02*
X53250049Y-65360000D01*
X49920049Y-39890000D02*
X49920049Y-16050000D01*
X49920049Y-16050000D02*
X48570049Y-14700000D01*
X87610049Y-16860000D02*
X74254793Y-16860000D01*
X32630049Y-112022500D02*
X32630049Y-92460000D01*
X73154793Y-17960000D02*
X71585305Y-17960000D01*
X72650049Y-118340000D02*
X74090049Y-116900000D01*
X48570049Y-14700000D02*
X42380049Y-14700000D01*
X71270049Y-46240000D02*
X55930049Y-46240000D01*
X84950049Y-104890000D02*
X84950049Y-105248529D01*
X83850049Y-103790000D02*
X84950049Y-104890000D01*
X128550049Y-20530000D02*
X129570049Y-19510000D01*
X82770049Y-79770000D02*
X83940049Y-78600000D01*
X30302549Y-133874667D02*
X24170049Y-140007167D01*
X52150049Y-116800000D02*
X50950049Y-118000000D01*
X35834414Y-60880000D02*
X34150049Y-59195635D01*
X139870049Y-112340000D02*
X139870049Y-95710000D01*
X129570049Y-62140000D02*
X128550049Y-61120000D01*
X70485305Y-16860000D02*
X70070049Y-16860000D01*
X52150049Y-116800000D02*
X57230049Y-116800000D01*
X74090049Y-116900000D02*
X86365549Y-116900000D01*
X54830049Y-44800000D02*
X54830049Y-47340000D01*
X74254793Y-16860000D02*
X73154793Y-17960000D01*
X49880049Y-118000000D02*
X48780049Y-116900000D01*
X50950049Y-118000000D02*
X49880049Y-118000000D01*
X129570049Y-40825000D02*
X128550049Y-39805000D01*
X62555049Y-111060000D02*
X65370049Y-111060000D01*
X54830049Y-44800000D02*
X49920049Y-39890000D01*
X48780049Y-116900000D02*
X32852549Y-116900000D01*
X30302549Y-114350000D02*
X30302549Y-133874667D01*
X30302549Y-114350000D02*
X32630049Y-112022500D01*
X86365549Y-116900000D02*
X87307249Y-115958300D01*
X139367249Y-123573300D02*
X140467249Y-122473300D01*
X72370049Y-47340000D02*
X71270049Y-46240000D01*
X55980049Y-122500000D02*
X55980049Y-123500000D01*
%TO.N,Net-(U10-~{NMI})*%
X37770049Y-115200000D02*
X35470049Y-112900000D01*
X35470049Y-108340000D02*
X33730049Y-106600000D01*
X35470049Y-112900000D02*
X35470049Y-108340000D01*
%TO.N,!MREQ*%
X24170049Y-127307167D02*
X25296182Y-128433300D01*
X59770049Y-111720000D02*
X58438578Y-113051469D01*
X58438578Y-113051469D02*
X43570046Y-113051469D01*
X25296182Y-128433300D02*
X27327549Y-128433300D01*
%TO.N,GND*%
X102730049Y-104245635D02*
X102085684Y-104890000D01*
X96550049Y-72300000D02*
X97570049Y-71280000D01*
X103870049Y-102289999D02*
X102730049Y-103429999D01*
X86510049Y-56060000D02*
X87610049Y-54960000D01*
X77970049Y-76000000D02*
X75360049Y-78610000D01*
X84990049Y-87270000D02*
X84990049Y-94920000D01*
X73770049Y-56060000D02*
X86510049Y-56060000D01*
X137870049Y-86910000D02*
X137870049Y-94610000D01*
X81570049Y-98624744D02*
X81254793Y-98940000D01*
X89385684Y-104890000D02*
X90310049Y-103965635D01*
X81254793Y-98940000D02*
X80970049Y-98940000D01*
X97650049Y-104245635D02*
X97650049Y-102137500D01*
X83890049Y-96020000D02*
X82550049Y-96020000D01*
X103870049Y-101577500D02*
X103870049Y-102289999D01*
X75360049Y-78610000D02*
X68490049Y-78610000D01*
X107850049Y-94920000D02*
X106750049Y-96020000D01*
X106710049Y-113140000D02*
X107970049Y-114400000D01*
X24170049Y-137467167D02*
X23020049Y-138617167D01*
X138015049Y-98955000D02*
X138870049Y-98100000D01*
X54830049Y-65120000D02*
X55930049Y-66220000D01*
X81570049Y-104400000D02*
X81570049Y-109130000D01*
X23020049Y-138617167D02*
X23020049Y-141157167D01*
X107850049Y-87270000D02*
X107850049Y-94920000D01*
X90310049Y-103965635D02*
X90310049Y-101577500D01*
X103070049Y-103334365D02*
X103070049Y-104245635D01*
X30257549Y-40867167D02*
X30257549Y-110887167D01*
X139367249Y-115953300D02*
X137608949Y-114195000D01*
X36350049Y-59840000D02*
X35250049Y-58740000D01*
X71270049Y-66220000D02*
X72370049Y-65120000D01*
X23020049Y-141157167D02*
X37055427Y-141157167D01*
X83940049Y-86220000D02*
X84990049Y-87270000D01*
X81570049Y-97000000D02*
X81570049Y-98340000D01*
X82635049Y-69500000D02*
X77970049Y-69500000D01*
X138870049Y-98100000D02*
X138870049Y-97810000D01*
X100480049Y-101577500D02*
X100480049Y-103955635D01*
X137608949Y-114195000D02*
X119405049Y-114195000D01*
X93554414Y-104890000D02*
X97005684Y-104890000D01*
X116507249Y-115382800D02*
X116507249Y-115953300D01*
X84990049Y-94920000D02*
X83890049Y-96020000D01*
X80270049Y-99640000D02*
X80270049Y-103100000D01*
X83890049Y-96020000D02*
X84705049Y-96835000D01*
X103870049Y-102534365D02*
X103070049Y-103334365D01*
X100480049Y-103955635D02*
X99545684Y-104890000D01*
X105270049Y-104245635D02*
X105270049Y-103567500D01*
X97570049Y-49965000D02*
X96550049Y-50985000D01*
X90310049Y-104185635D02*
X91014414Y-104890000D01*
X101174414Y-104890000D02*
X100480049Y-104195635D01*
X29290049Y-111854667D02*
X30257549Y-110887167D01*
X137870049Y-94610000D02*
X136770049Y-95710000D01*
X104625684Y-104890000D02*
X105270049Y-104245635D01*
X93700049Y-101577500D02*
X92910049Y-102367500D01*
X136870049Y-85910000D02*
X137870049Y-86910000D01*
X71170049Y-56060000D02*
X73770049Y-56060000D01*
X116507249Y-115953300D02*
X116507249Y-117238300D01*
X118550049Y-113340000D02*
X116507249Y-115382800D01*
X80270049Y-103100000D02*
X81570049Y-104400000D01*
X103714414Y-104890000D02*
X104625684Y-104890000D01*
X54830049Y-65120000D02*
X48770049Y-59060000D01*
X37055427Y-141157167D02*
X38270049Y-139942545D01*
X73870049Y-56160000D02*
X73770049Y-56060000D01*
X103070049Y-104245635D02*
X103714414Y-104890000D01*
X85380049Y-72245000D02*
X85380049Y-84780000D01*
X82550049Y-96020000D02*
X81570049Y-97000000D01*
X48770049Y-59060000D02*
X48770049Y-58340000D01*
X39170049Y-20450000D02*
X42320049Y-23600000D01*
X106710049Y-111410000D02*
X106710049Y-113140000D01*
X138015049Y-114601100D02*
X138015049Y-98955000D01*
X92670048Y-104145636D02*
X92670048Y-102607501D01*
X90310049Y-101577500D02*
X90310049Y-104185635D01*
X91925684Y-104890000D02*
X92670048Y-104145636D01*
X97005684Y-104890000D02*
X97650049Y-104245635D01*
X48770049Y-58340000D02*
X47270049Y-59840000D01*
X84170049Y-71035000D02*
X82635049Y-69500000D01*
X107452549Y-101577500D02*
X110930049Y-98100000D01*
X103870049Y-101577500D02*
X103870049Y-102534365D01*
X29290049Y-132347167D02*
X29290049Y-111854667D01*
X30257549Y-59133267D02*
X32516782Y-59133267D01*
X85380049Y-84780000D02*
X83940049Y-86220000D01*
X107260049Y-101577500D02*
X107452549Y-101577500D01*
X88474414Y-104890000D02*
X89385684Y-104890000D01*
X83850049Y-111410000D02*
X81570049Y-109130000D01*
X97570049Y-52005000D02*
X96550049Y-50985000D01*
X119405049Y-114195000D02*
X118550049Y-113340000D01*
X84705049Y-100402500D02*
X83530049Y-101577500D01*
X110930049Y-98100000D02*
X108830049Y-98100000D01*
X84705049Y-96835000D02*
X84705049Y-100402500D01*
X98294414Y-104890000D02*
X97650049Y-104245635D01*
X87830049Y-102487500D02*
X87830049Y-104245635D01*
X80970049Y-98940000D02*
X80270049Y-99640000D01*
X24170049Y-137467167D02*
X29290049Y-132347167D01*
X84170049Y-71035000D02*
X85380049Y-72245000D01*
X72370049Y-65120000D02*
X73590049Y-65120000D01*
X139367249Y-115953300D02*
X138015049Y-114601100D01*
X83530049Y-101577500D02*
X86920049Y-101577500D01*
X42320049Y-23600000D02*
X47270049Y-23600000D01*
X91014414Y-104890000D02*
X91925684Y-104890000D01*
X55930049Y-66220000D02*
X71270049Y-66220000D01*
X73870049Y-59700000D02*
X73870049Y-56160000D01*
X92670048Y-102607501D02*
X93700049Y-101577500D01*
X116507249Y-117238300D02*
X110167249Y-123578300D01*
X86920049Y-101577500D02*
X87830049Y-102487500D01*
X32516782Y-59133267D02*
X33550049Y-58100000D01*
X108830049Y-98100000D02*
X106750049Y-96020000D01*
X117490049Y-114400000D02*
X118550049Y-113340000D01*
X81570049Y-98340000D02*
X81570049Y-98624744D01*
X97570049Y-71280000D02*
X97570049Y-52005000D01*
X96550049Y-29670000D02*
X97570049Y-30690000D01*
X107970049Y-114400000D02*
X117490049Y-114400000D01*
X77970049Y-76000000D02*
X77970049Y-69500000D01*
X106800049Y-86220000D02*
X107850049Y-87270000D01*
X30257549Y-29362500D02*
X39170049Y-20450000D01*
X77970049Y-69500000D02*
X73590049Y-65120000D01*
X99545684Y-104890000D02*
X98294414Y-104890000D01*
X105270049Y-103567500D02*
X107260049Y-101577500D01*
X102730049Y-103429999D02*
X102730049Y-104245635D01*
X87830049Y-104245635D02*
X88474414Y-104890000D01*
X92910049Y-102367500D02*
X92910049Y-104245635D01*
X102085684Y-104890000D02*
X101174414Y-104890000D01*
X70070049Y-54960000D02*
X71170049Y-56060000D01*
X97650049Y-102137500D02*
X97090049Y-101577500D01*
X47270049Y-59840000D02*
X36350049Y-59840000D01*
X30257549Y-40867167D02*
X30257549Y-29362500D01*
X97570049Y-30690000D02*
X97570049Y-49965000D01*
X92910049Y-104245635D02*
X93554414Y-104890000D01*
X100480049Y-104195635D02*
X100480049Y-101577500D01*
X138870049Y-97810000D02*
X136770049Y-95710000D01*
%TO.N,TX2*%
X56370049Y-14000000D02*
X55870049Y-13500000D01*
X55870049Y-13500000D02*
X14470049Y-13500000D01*
X14470049Y-125227167D02*
X24170049Y-134927167D01*
X14470049Y-13500000D02*
X14470049Y-125227167D01*
X56728431Y-14000000D02*
X56370049Y-14000000D01*
%TO.N,RX2*%
X57170052Y-14600000D02*
X56404363Y-14600000D01*
X57470052Y-14300000D02*
X57170052Y-14600000D01*
X56404363Y-14600000D02*
X55704363Y-13900000D01*
X55704363Y-13900000D02*
X14870049Y-13900000D01*
X14870049Y-123087167D02*
X24170049Y-132387167D01*
X14870049Y-13900000D02*
X14870049Y-123087167D01*
%TO.N,!M1*%
X24170049Y-129847167D02*
X25572882Y-131250000D01*
X25572882Y-131250000D02*
X27327549Y-131250000D01*
%TO.N,!IORQ*%
X48474414Y-110280000D02*
X52605684Y-110280000D01*
X28553349Y-125616700D02*
X28670049Y-125500000D01*
X52605684Y-110280000D02*
X53470049Y-109415635D01*
X44721520Y-111800000D02*
X46954414Y-111800000D01*
X46954414Y-111800000D02*
X48474414Y-110280000D01*
X44170046Y-111200000D02*
X44170046Y-111248526D01*
X26478016Y-124767167D02*
X27327549Y-125616700D01*
X24170049Y-124767167D02*
X26478016Y-124767167D01*
X64622157Y-101400000D02*
X64622157Y-98847892D01*
X27327549Y-125616700D02*
X28553349Y-125616700D01*
X65570049Y-95600000D02*
X65350049Y-95820000D01*
X65350049Y-95820000D02*
X62555049Y-95820000D01*
X64622157Y-98847892D02*
X65670049Y-97800000D01*
X66070049Y-95600000D02*
X65570049Y-95600000D01*
X44170046Y-111248526D02*
X44721520Y-111800000D01*
X53470049Y-109415635D02*
X53470049Y-103800000D01*
%TO.N,!RD*%
X86510049Y-64020000D02*
X71170049Y-64020000D01*
X136370049Y-110900000D02*
X136370049Y-110751471D01*
X150770049Y-111100000D02*
X140870049Y-111100000D01*
X113310049Y-41845000D02*
X114330049Y-40825000D01*
X137370049Y-111299997D02*
X136970052Y-110900000D01*
X136370049Y-110751471D02*
X136018578Y-110400000D01*
X135170049Y-110751471D02*
X135170049Y-110900000D01*
X87610049Y-65120000D02*
X86510049Y-64020000D01*
X113310049Y-61120000D02*
X113310049Y-41845000D01*
X24170049Y-122227167D02*
X26754716Y-122227167D01*
X113310049Y-20530000D02*
X114330049Y-19510000D01*
X113310049Y-39805000D02*
X113310049Y-20530000D01*
X136970052Y-110900000D02*
X136370049Y-110900000D01*
X123521520Y-110900000D02*
X121770049Y-110900000D01*
X135521520Y-110400000D02*
X135170049Y-110751471D01*
X140870049Y-111100000D02*
X140470049Y-111500000D01*
X121770049Y-110900000D02*
X121170049Y-111500000D01*
X15620047Y-122400000D02*
X15792880Y-122227167D01*
X114330049Y-62140000D02*
X113310049Y-61120000D01*
X71170049Y-64020000D02*
X70070049Y-65120000D01*
X114330049Y-40825000D02*
X113310049Y-39805000D01*
X26754716Y-122227167D02*
X27327549Y-122800000D01*
X135170049Y-110900000D02*
X124018578Y-110900000D01*
X15792880Y-122227167D02*
X24170049Y-122227167D01*
X124018578Y-110900000D02*
X123521520Y-110900000D01*
X136018578Y-110400000D02*
X135521520Y-110400000D01*
%TO.N,!WR*%
X68310049Y-64100000D02*
X69172232Y-63237817D01*
X54830049Y-60040000D02*
X58890049Y-64100000D01*
X69614414Y-61480000D02*
X70525684Y-61480000D01*
X16020047Y-119600000D02*
X16107214Y-119687167D01*
X126010049Y-39805000D02*
X127030049Y-40825000D01*
X16107214Y-119687167D02*
X24170049Y-119687167D01*
X127030049Y-40825000D02*
X126010049Y-41845000D01*
X24170049Y-119687167D02*
X27031416Y-119687167D01*
X143470049Y-112100000D02*
X148970049Y-112100000D01*
X70727867Y-61682182D02*
X72370049Y-60040000D01*
X116010049Y-113340000D02*
X117250049Y-112100000D01*
X126010049Y-20530000D02*
X126010049Y-39805000D01*
X127030049Y-19510000D02*
X126010049Y-20530000D01*
X126010049Y-41845000D02*
X126010049Y-61120000D01*
X27031416Y-119687167D02*
X27327549Y-119983300D01*
X70525684Y-61480000D02*
X70727867Y-61682182D01*
X148970049Y-112100000D02*
X150370049Y-113500000D01*
X68970049Y-63035635D02*
X68970049Y-62124365D01*
X117250049Y-112100000D02*
X137370049Y-112100000D01*
X58890049Y-64100000D02*
X68310049Y-64100000D01*
X68970049Y-62124365D02*
X69614414Y-61480000D01*
X126010049Y-61120000D02*
X127030049Y-62140000D01*
X69172232Y-63237817D02*
X68970049Y-63035635D01*
%TO.N,!INT*%
X113470049Y-110300000D02*
X126270049Y-110300000D01*
X62439414Y-109620000D02*
X71210049Y-109620000D01*
X86205784Y-109535735D02*
X102370049Y-109535735D01*
X111570049Y-112200000D02*
X113470049Y-110300000D01*
X75081562Y-110611513D02*
X76754314Y-110611513D01*
X27308016Y-117147167D02*
X27327549Y-117166700D01*
X71210049Y-109620000D02*
X72650049Y-108180000D01*
X60467206Y-112997157D02*
X61455049Y-112009314D01*
X24170049Y-117147167D02*
X27308016Y-117147167D01*
X56774414Y-115700000D02*
X59477257Y-112997157D01*
X72650049Y-108180000D02*
X75081562Y-110611513D01*
X85670049Y-109000000D02*
X86205784Y-109535735D01*
X61455049Y-110604365D02*
X62439414Y-109620000D01*
X61455049Y-112009314D02*
X61455049Y-110604365D01*
X33730049Y-104060000D02*
X45370049Y-115700000D01*
X45370049Y-115700000D02*
X56774414Y-115700000D01*
X59477257Y-112997157D02*
X60467206Y-112997157D01*
%TO.N,!HALT*%
X24170049Y-114607167D02*
X27070382Y-114607167D01*
X27070382Y-114607167D02*
X27327549Y-114350000D01*
%TO.N,!RESET*%
X47170049Y-118600000D02*
X47170049Y-119000000D01*
X45911671Y-117500000D02*
X46070049Y-117500000D01*
X75070049Y-116300000D02*
X74570049Y-115800000D01*
X74570049Y-115800000D02*
X72650049Y-115800000D01*
X44870049Y-111100000D02*
X44870049Y-105600000D01*
X44870049Y-105600000D02*
X44970049Y-105500000D01*
X135270049Y-111500000D02*
X123770049Y-111500000D01*
X73470049Y-76000000D02*
X73470049Y-69500000D01*
X135770049Y-111000000D02*
X135270049Y-111500000D01*
X44970049Y-111200000D02*
X44870049Y-111100000D01*
X46070049Y-117500000D02*
X47170049Y-118600000D01*
%TO.N,IO8*%
X62908114Y-107182570D02*
X61467479Y-107182570D01*
X61467479Y-107182570D02*
X61170049Y-107480000D01*
X71850050Y-102300001D02*
X67790683Y-102300001D01*
X72650049Y-103100000D02*
X71850050Y-102300001D01*
X48218578Y-107900000D02*
X43108128Y-102789550D01*
X67790683Y-102300001D02*
X62908114Y-107182570D01*
X51070049Y-107900000D02*
X48218578Y-107900000D01*
X43108128Y-102789550D02*
X33450318Y-102789550D01*
%TO.N,CLK*%
X35070049Y-77320000D02*
X35070050Y-70805886D01*
X33730049Y-78660000D02*
X35070049Y-77320000D01*
X35270049Y-68147287D02*
X37017336Y-66400000D01*
X32270049Y-80120000D02*
X33730049Y-78660000D01*
X37017336Y-66400000D02*
X45070049Y-66400000D01*
X22682882Y-106987167D02*
X24170049Y-106987167D01*
X35070050Y-70805886D02*
X35270049Y-70605887D01*
X22670049Y-107000000D02*
X22682882Y-106987167D01*
X35270049Y-70605887D02*
X35270049Y-68147287D01*
X32270049Y-80700000D02*
X32270049Y-80120000D01*
X45070049Y-66400000D02*
X47370049Y-68700000D01*
%TO.N,/A0*%
X86510049Y-48440000D02*
X71170049Y-48440000D01*
X106670049Y-47300000D02*
X106710049Y-47340000D01*
X71170049Y-48440000D02*
X70070049Y-47340000D01*
X107730049Y-30690000D02*
X107730049Y-49965000D01*
X25870049Y-103607167D02*
X25870049Y-105823897D01*
X26270049Y-106223897D02*
X26270049Y-106983123D01*
X26270049Y-109874667D02*
X27282549Y-110887167D01*
X24170049Y-101907167D02*
X25870049Y-103607167D01*
X107730049Y-52005000D02*
X106710049Y-50985000D01*
X18570049Y-101900000D02*
X18577216Y-101907167D01*
X106710049Y-29670000D02*
X107730049Y-30690000D01*
X107730049Y-49965000D02*
X106710049Y-50985000D01*
X18577216Y-101907167D02*
X24170049Y-101907167D01*
X26270049Y-108702611D02*
X26270049Y-109874667D01*
X106710049Y-72300000D02*
X107730049Y-71280000D01*
X107730049Y-71280000D02*
X107730049Y-52005000D01*
X111370049Y-87353161D02*
X107416888Y-83400000D01*
X87610049Y-47340000D02*
X86510049Y-48440000D01*
X106710049Y-47340000D02*
X106710049Y-50985000D01*
X25870049Y-105823897D02*
X26270049Y-106223897D01*
X26270049Y-106983123D02*
X26270049Y-108702611D01*
X111370049Y-93400000D02*
X111370049Y-87353161D01*
%TO.N,/A1*%
X26270049Y-105658211D02*
X26911838Y-106300000D01*
X19002882Y-99367167D02*
X24170049Y-99367167D01*
X71170049Y-50980000D02*
X70070049Y-49880000D01*
X27282549Y-106312500D02*
X27282549Y-107842867D01*
X27270049Y-106300000D02*
X27282549Y-106312500D01*
X26911838Y-106300000D02*
X27270049Y-106300000D01*
X25870049Y-102779597D02*
X26270049Y-103179597D01*
X109250049Y-50985000D02*
X110270049Y-52005000D01*
X110270049Y-71280000D02*
X109250049Y-72300000D01*
X26270049Y-103179597D02*
X26270049Y-105658211D01*
X110270049Y-49965000D02*
X109250049Y-50985000D01*
X110270049Y-52005000D02*
X110270049Y-71280000D01*
X87610049Y-49880000D02*
X86510049Y-50980000D01*
X18970049Y-99400000D02*
X19002882Y-99367167D01*
X86510049Y-50980000D02*
X71170049Y-50980000D01*
X25870049Y-101067167D02*
X25870049Y-102779597D01*
X110270049Y-30690000D02*
X110270049Y-49965000D01*
X109250049Y-29670000D02*
X110270049Y-30690000D01*
X109170049Y-50905000D02*
X109250049Y-50985000D01*
X109170049Y-47800000D02*
X109170049Y-50905000D01*
X24170049Y-99367167D02*
X25870049Y-101067167D01*
%TO.N,/A2*%
X87610049Y-52420000D02*
X86510049Y-53520000D01*
X111790049Y-72300000D02*
X112810049Y-71280000D01*
X27282549Y-103312500D02*
X27282549Y-104798467D01*
X111790049Y-48380000D02*
X111790049Y-50985000D01*
X112810049Y-71280000D02*
X112810049Y-52005000D01*
X19370049Y-96900000D02*
X19442882Y-96827167D01*
X24170049Y-96827167D02*
X25870049Y-98527167D01*
X25870049Y-98527167D02*
X25870049Y-99735297D01*
X26270049Y-100135297D02*
X26270049Y-100894423D01*
X112810049Y-30690000D02*
X112810049Y-49965000D01*
X111790049Y-29670000D02*
X112810049Y-30690000D01*
X25870049Y-99735297D02*
X26270049Y-100135297D01*
X26585305Y-102929167D02*
X26956138Y-103300000D01*
X86510049Y-53520000D02*
X71170049Y-53520000D01*
X26270049Y-102613911D02*
X26585305Y-102929167D01*
X26270049Y-100894423D02*
X26270049Y-102613911D01*
X27270049Y-103300000D02*
X27282549Y-103312500D01*
X26956138Y-103300000D02*
X27270049Y-103300000D01*
X71170049Y-53520000D02*
X70070049Y-52420000D01*
X111870049Y-48300000D02*
X111790049Y-48380000D01*
X112810049Y-52005000D02*
X111790049Y-50985000D01*
X19442882Y-96827167D02*
X24170049Y-96827167D01*
X112810049Y-49965000D02*
X111790049Y-50985000D01*
%TO.N,/A3*%
X27282549Y-100312500D02*
X27282549Y-101754167D01*
X115350049Y-71280000D02*
X114330049Y-72300000D01*
X26270049Y-97090896D02*
X26270049Y-99569611D01*
X115350049Y-49965000D02*
X115350049Y-30690000D01*
X115350049Y-52005000D02*
X115350049Y-71280000D01*
X27270049Y-100300000D02*
X27282549Y-100312500D01*
X24170049Y-94990896D02*
X26270049Y-97090896D01*
X27270049Y-100200000D02*
X27270049Y-100300000D01*
X115350049Y-30690000D02*
X114330049Y-29670000D01*
X114330049Y-50985000D02*
X115350049Y-52005000D01*
X114330049Y-50985000D02*
X115350049Y-49965000D01*
X26900438Y-100200000D02*
X27270049Y-100200000D01*
X26270049Y-99569611D02*
X26900438Y-100200000D01*
X19770049Y-94287167D02*
X24170049Y-94287167D01*
X24170049Y-94287167D02*
X24170049Y-94990896D01*
%TO.N,/A4*%
X26644838Y-96900000D02*
X27270049Y-96900000D01*
X54574414Y-103000000D02*
X59654414Y-108080000D01*
X49328728Y-97600000D02*
X51050049Y-99321321D01*
X59654414Y-108080000D02*
X62115049Y-108080000D01*
X51050049Y-102015635D02*
X52034414Y-103000000D01*
X116870049Y-50985000D02*
X117890049Y-52005000D01*
X51050049Y-99321321D02*
X51050049Y-102015635D01*
X24170049Y-91747167D02*
X24170049Y-91946596D01*
X48574414Y-97600000D02*
X49328728Y-97600000D01*
X26270049Y-94046596D02*
X26270049Y-96525211D01*
X27270049Y-96900000D02*
X27270049Y-97100000D01*
X20170049Y-91747167D02*
X24170049Y-91747167D01*
X42173705Y-91199291D02*
X48574414Y-97600000D01*
X27270049Y-97100000D02*
X27282549Y-97112500D01*
X62115049Y-108080000D02*
X62555049Y-108520000D01*
X26270049Y-96525211D02*
X26644838Y-96900000D01*
X27282549Y-97112500D02*
X27282549Y-98709867D01*
X24170049Y-91946596D02*
X26270049Y-94046596D01*
X117890049Y-49965000D02*
X116870049Y-50985000D01*
X116870049Y-29670000D02*
X117890049Y-30690000D01*
X117890049Y-30690000D02*
X117890049Y-49965000D01*
X42173705Y-89321777D02*
X42173705Y-91199291D01*
X117890049Y-71280000D02*
X116870049Y-72300000D01*
X117890049Y-52005000D02*
X117890049Y-71280000D01*
X52034414Y-103000000D02*
X54574414Y-103000000D01*
%TO.N,/A5*%
X20570049Y-89200000D02*
X20577216Y-89207167D01*
X20577216Y-89207167D02*
X24170049Y-89207167D01*
X26270049Y-93480911D02*
X26789138Y-94000000D01*
X120430049Y-71280000D02*
X120430049Y-52005000D01*
X24170049Y-89207167D02*
X26270049Y-91307167D01*
X26789138Y-94000000D02*
X27270049Y-94000000D01*
X51050049Y-98755635D02*
X57694414Y-105400000D01*
X49268728Y-95000000D02*
X51050049Y-96781321D01*
X51050049Y-96781321D02*
X51050049Y-98755635D01*
X119410049Y-50985000D02*
X120430049Y-49965000D01*
X120430049Y-49965000D02*
X120430049Y-30690000D01*
X120430049Y-52005000D02*
X119410049Y-50985000D01*
X42770049Y-86200000D02*
X42770049Y-89255635D01*
X120430049Y-30690000D02*
X119410049Y-29670000D01*
X48514414Y-95000000D02*
X49268728Y-95000000D01*
X61975049Y-105400000D02*
X62555049Y-105980000D01*
X42770049Y-89255635D02*
X48514414Y-95000000D01*
X119410049Y-72300000D02*
X120430049Y-71280000D01*
X27270049Y-94000000D02*
X27282549Y-94012500D01*
X26270049Y-91307167D02*
X26270049Y-93480911D01*
X27282549Y-94012500D02*
X27282549Y-95665467D01*
X57694414Y-105400000D02*
X61975049Y-105400000D01*
%TO.N,/A6*%
X53854414Y-97200000D02*
X59354414Y-102700000D01*
X47870049Y-91815635D02*
X48514414Y-92460000D01*
X122970049Y-52005000D02*
X122970049Y-71280000D01*
X61815049Y-102700000D02*
X62555049Y-103440000D01*
X122970049Y-49965000D02*
X121950049Y-50985000D01*
X59354414Y-102700000D02*
X61815049Y-102700000D01*
X50070049Y-91815635D02*
X50070049Y-91470051D01*
X42546545Y-84517817D02*
X48401571Y-90372843D01*
X21902882Y-86667167D02*
X24170049Y-86667167D01*
X24170049Y-86667167D02*
X26270049Y-88767167D01*
X49425684Y-92460000D02*
X50070049Y-91815635D01*
X121950049Y-50985000D02*
X122970049Y-52005000D01*
X121950049Y-29670000D02*
X122970049Y-30690000D01*
X52034414Y-97200000D02*
X53854414Y-97200000D01*
X26270049Y-90436511D02*
X26933538Y-91100000D01*
X20970049Y-86700000D02*
X21870049Y-86700000D01*
X50134414Y-91534416D02*
X50134414Y-95300000D01*
X50134414Y-95300000D02*
X52034414Y-97200000D01*
X42263701Y-84517817D02*
X42546545Y-84517817D01*
X27270049Y-91100000D02*
X27282549Y-91112500D01*
X47870049Y-90904365D02*
X47870049Y-91815635D01*
X26933538Y-91100000D02*
X27270049Y-91100000D01*
X21870049Y-86700000D02*
X21902882Y-86667167D01*
X26270049Y-88767167D02*
X26270049Y-90436511D01*
X48401571Y-90372843D02*
X47870049Y-90904365D01*
X50070049Y-91470051D02*
X50134414Y-91534416D01*
X27282549Y-91112500D02*
X27282549Y-92621167D01*
X122970049Y-71280000D02*
X121950049Y-72300000D01*
X48514414Y-92460000D02*
X49425684Y-92460000D01*
X122970049Y-30690000D02*
X122970049Y-49965000D01*
%TO.N,/A7*%
X48794414Y-90200000D02*
X49365684Y-90200000D01*
X51694414Y-94660000D02*
X54245305Y-94660000D01*
X49365684Y-90200000D02*
X50650049Y-91484365D01*
X26877838Y-88000000D02*
X27270049Y-88000000D01*
X50650049Y-93615635D02*
X51694414Y-94660000D01*
X27270049Y-88000000D02*
X27270049Y-88300000D01*
X125510049Y-52005000D02*
X124490049Y-50985000D01*
X61755050Y-100100001D02*
X62555049Y-100900000D01*
X24170049Y-84127167D02*
X26270049Y-86227167D01*
X26270049Y-86227167D02*
X26270049Y-87392211D01*
X23320049Y-83277167D02*
X24170049Y-84127167D01*
X27282549Y-88312500D02*
X27282549Y-89576767D01*
X26270049Y-87392211D02*
X26877838Y-88000000D01*
X50650049Y-91484365D02*
X50650049Y-93615635D01*
X125510049Y-49965000D02*
X124490049Y-50985000D01*
X124490049Y-72300000D02*
X125510049Y-71280000D01*
X21370049Y-83277167D02*
X23320049Y-83277167D01*
X42270049Y-83675635D02*
X48794414Y-90200000D01*
X124490049Y-29670000D02*
X125510049Y-30690000D01*
X125510049Y-71280000D02*
X125510049Y-52005000D01*
X27270049Y-88300000D02*
X27282549Y-88312500D01*
X125510049Y-30690000D02*
X125510049Y-49965000D01*
X54245305Y-94660000D02*
X59685306Y-100100001D01*
X42270049Y-81100000D02*
X42270049Y-83675635D01*
X59685306Y-100100001D02*
X61755050Y-100100001D01*
%TO.N,/A8*%
X27270049Y-85000000D02*
X27282549Y-85012500D01*
X48854414Y-87720000D02*
X49425684Y-87720000D01*
X20231620Y-81587167D02*
X24170049Y-81587167D01*
X27282549Y-85012500D02*
X27282549Y-86532467D01*
X24170049Y-82300000D02*
X26870049Y-85000000D01*
X24170049Y-81587167D02*
X24170049Y-82300000D01*
X26870049Y-85000000D02*
X27270049Y-85000000D01*
X121950049Y-19510000D02*
X120930049Y-20530000D01*
X51050049Y-89344365D02*
X51050049Y-92120000D01*
X120930049Y-39805000D02*
X121950049Y-40825000D01*
X120930049Y-20530000D02*
X120930049Y-39805000D01*
X120930049Y-61120000D02*
X121950049Y-62140000D01*
X42870049Y-78400000D02*
X42870049Y-81735635D01*
X121950049Y-40825000D02*
X120930049Y-41845000D01*
X49425684Y-87720000D02*
X51050049Y-89344365D01*
X51050049Y-92120000D02*
X52150049Y-93220000D01*
X42870049Y-81735635D02*
X48854414Y-87720000D01*
X120930049Y-41845000D02*
X120930049Y-61120000D01*
X20168045Y-81650742D02*
X20231620Y-81587167D01*
%TO.N,/A9*%
X52605684Y-87040000D02*
X53250049Y-87684365D01*
X27170049Y-82000000D02*
X27282549Y-82112500D01*
X49425684Y-82300000D02*
X49425684Y-82640000D01*
X20422882Y-79047167D02*
X24170049Y-79047167D01*
X51050049Y-84264365D02*
X51050049Y-86238679D01*
X53250049Y-87684365D02*
X53250049Y-89580000D01*
X47870049Y-81655635D02*
X48514414Y-82300000D01*
X47870049Y-80744365D02*
X47870049Y-81655635D01*
X118390049Y-61120000D02*
X118390049Y-41845000D01*
X119410049Y-62140000D02*
X118390049Y-61120000D01*
X49425684Y-82640000D02*
X51050049Y-84264365D01*
X51050049Y-86238679D02*
X51851369Y-87040000D01*
X43070049Y-75100000D02*
X43652892Y-75100000D01*
X47470049Y-78917157D02*
X47470049Y-79621321D01*
X53250049Y-89580000D02*
X52150049Y-90680000D01*
X26870049Y-82000000D02*
X27170049Y-82000000D01*
X27282549Y-82112500D02*
X27282549Y-83488067D01*
X48514414Y-82300000D02*
X49425684Y-82300000D01*
X24170049Y-79300000D02*
X26870049Y-82000000D01*
X118390049Y-41845000D02*
X119410049Y-40825000D01*
X20370049Y-79100000D02*
X20422882Y-79047167D01*
X47470049Y-79621321D02*
X48231571Y-80382843D01*
X118390049Y-39805000D02*
X118390049Y-20530000D01*
X118390049Y-20530000D02*
X119410049Y-19510000D01*
X51851369Y-87040000D02*
X52605684Y-87040000D01*
X24170049Y-79047167D02*
X24170049Y-79300000D01*
X48231571Y-80382843D02*
X47870049Y-80744365D01*
X119410049Y-40825000D02*
X118390049Y-39805000D01*
X43652892Y-75100000D02*
X47470049Y-78917157D01*
%TO.N,/A10*%
X49145684Y-84900000D02*
X52150049Y-87904365D01*
X41970049Y-73700000D02*
X42252892Y-73700000D01*
X42821520Y-74500000D02*
X42470049Y-74851471D01*
X111790049Y-40825000D02*
X110770049Y-39805000D01*
X43502892Y-75515686D02*
X47070049Y-79082843D01*
X47470049Y-80578680D02*
X47470049Y-81821321D01*
X20777216Y-76507167D02*
X24170049Y-76507167D01*
X43052892Y-74500000D02*
X42821520Y-74500000D01*
X42821520Y-75700000D02*
X43318578Y-75700000D01*
X47870049Y-82221321D02*
X47870049Y-84195635D01*
X42252892Y-73700000D02*
X43052892Y-74500000D01*
X110770049Y-20530000D02*
X111790049Y-19510000D01*
X47870049Y-84195635D02*
X48574414Y-84900000D01*
X110770049Y-39805000D02*
X110770049Y-20530000D01*
X47665885Y-80382843D02*
X47470049Y-80578680D01*
X42470049Y-74851471D02*
X42470049Y-75348529D01*
X47470049Y-81821321D02*
X47870049Y-82221321D01*
X110770049Y-61120000D02*
X110770049Y-41845000D01*
X111790049Y-62140000D02*
X110770049Y-61120000D01*
X27282549Y-79619667D02*
X27282549Y-80443767D01*
X42470049Y-75348529D02*
X42821520Y-75700000D01*
X52150049Y-87904365D02*
X52150049Y-88140000D01*
X20770049Y-76500000D02*
X20777216Y-76507167D01*
X47070049Y-79082843D02*
X47070049Y-79787007D01*
X43318578Y-75700000D02*
X43502892Y-75515686D01*
X48574414Y-84900000D02*
X49145684Y-84900000D01*
X24170049Y-76507167D02*
X27282549Y-79619667D01*
X110770049Y-41845000D02*
X111790049Y-40825000D01*
X47070049Y-79787007D02*
X47665885Y-80382843D01*
%TO.N,/A11*%
X20452882Y-73967167D02*
X24170049Y-73967167D01*
X45195735Y-65960000D02*
X33730049Y-65960000D01*
X115850049Y-20530000D02*
X116870049Y-19510000D01*
X116870049Y-40825000D02*
X115850049Y-39805000D01*
X50370049Y-68100000D02*
X49330049Y-67060000D01*
X49330049Y-67060000D02*
X46295735Y-67060000D01*
X115850049Y-39805000D02*
X115850049Y-20530000D01*
X20420049Y-74000000D02*
X20452882Y-73967167D01*
X24170049Y-73967167D02*
X27282549Y-77079667D01*
X46295735Y-67060000D02*
X45195735Y-65960000D01*
X116870049Y-40825000D02*
X115850049Y-41845000D01*
X27282549Y-77079667D02*
X27282549Y-77399367D01*
X115850049Y-61120000D02*
X116870049Y-62140000D01*
X115850049Y-41845000D02*
X115850049Y-61120000D01*
%TO.N,/A12*%
X128050049Y-71280000D02*
X127030049Y-72300000D01*
X128050049Y-49965000D02*
X127030049Y-50985000D01*
X59770049Y-88140000D02*
X59770049Y-87992993D01*
X128050049Y-52005000D02*
X128050049Y-71280000D01*
X50950710Y-79173654D02*
X50950710Y-74005026D01*
X50950710Y-74005026D02*
X49200658Y-72254974D01*
X49200658Y-72254974D02*
X46315074Y-72254974D01*
X20770049Y-71400000D02*
X21170049Y-71400000D01*
X128050049Y-30690000D02*
X128050049Y-49965000D01*
X24170049Y-71427167D02*
X27097949Y-74355067D01*
X27097949Y-74355067D02*
X27282549Y-74355067D01*
X46315074Y-72254974D02*
X45960100Y-71900000D01*
X21170049Y-71400000D02*
X21197216Y-71427167D01*
X127030049Y-50985000D02*
X128050049Y-52005000D01*
X21197216Y-71427167D02*
X24170049Y-71427167D01*
X127030049Y-29670000D02*
X128050049Y-30690000D01*
X59770049Y-87992993D02*
X50950710Y-79173654D01*
X45960100Y-71900000D02*
X39670049Y-71900000D01*
%TO.N,/A13*%
X51860100Y-81560000D02*
X52771370Y-81560000D01*
X39570049Y-72900000D02*
X40170049Y-72300000D01*
X123470049Y-41845000D02*
X124490049Y-40825000D01*
X26593549Y-71310667D02*
X27282549Y-71310667D01*
X123470049Y-20530000D02*
X124490049Y-19510000D01*
X59770049Y-89695635D02*
X57035075Y-86960661D01*
X57035075Y-86734974D02*
X57340100Y-87040000D01*
X123470049Y-61120000D02*
X123470049Y-41845000D01*
X45794414Y-72300000D02*
X48514414Y-75020000D01*
X48514414Y-75020000D02*
X49425684Y-75020000D01*
X123470049Y-39805000D02*
X123470049Y-20530000D01*
X50550710Y-80093655D02*
X50870049Y-80412995D01*
X59770049Y-90680000D02*
X59770049Y-89695635D01*
X50550710Y-76145026D02*
X50550710Y-80093655D01*
X57035075Y-86960661D02*
X57035075Y-86734974D01*
X50870049Y-80412995D02*
X50870049Y-80569949D01*
X53650049Y-82438680D02*
X53650049Y-83349949D01*
X53650049Y-83349949D02*
X57035075Y-86734974D01*
X21541568Y-68970064D02*
X21624465Y-68887167D01*
X50870049Y-80569949D02*
X51860100Y-81560000D01*
X49425684Y-75020000D02*
X50550710Y-76145026D01*
X52771370Y-81560000D02*
X53650049Y-82438680D01*
X124490049Y-40825000D02*
X123470049Y-39805000D01*
X24170049Y-68887167D02*
X26593549Y-71310667D01*
X40170049Y-72300000D02*
X45794414Y-72300000D01*
X21624465Y-68887167D02*
X24170049Y-68887167D01*
X124490049Y-62140000D02*
X123470049Y-61120000D01*
X32270049Y-73100000D02*
X32270049Y-72500000D01*
X32270049Y-72500000D02*
X33730049Y-71040000D01*
%TO.N,/A14*%
X50070049Y-78204365D02*
X50070049Y-79115635D01*
X50470049Y-80735635D02*
X51694414Y-81960000D01*
X51694414Y-81960000D02*
X52605684Y-81960000D01*
X39770049Y-74420000D02*
X41490049Y-72700000D01*
X26089249Y-68266367D02*
X27282549Y-68266367D01*
X48514414Y-77560000D02*
X49425684Y-77560000D01*
X130590049Y-52005000D02*
X130590049Y-71280000D01*
X129570049Y-50985000D02*
X130590049Y-52005000D01*
X32370049Y-74940000D02*
X33730049Y-73580000D01*
X49425684Y-77560000D02*
X50070049Y-78204365D01*
X130590049Y-49965000D02*
X130590049Y-30690000D01*
X53250049Y-82604365D02*
X53250049Y-84180000D01*
X32370049Y-75700000D02*
X32370049Y-74940000D01*
X53250049Y-84180000D02*
X58370049Y-89300000D01*
X49591370Y-79700000D02*
X50470049Y-80578680D01*
X129570049Y-50985000D02*
X130590049Y-49965000D01*
X58370049Y-89300000D02*
X58370049Y-91820000D01*
X130590049Y-30690000D02*
X129570049Y-29670000D01*
X49485684Y-79700000D02*
X49591370Y-79700000D01*
X52605684Y-81960000D02*
X53250049Y-82604365D01*
X58370049Y-91820000D02*
X59770049Y-93220000D01*
X50070049Y-79115635D02*
X49485684Y-79700000D01*
X43654414Y-72700000D02*
X48514414Y-77560000D01*
X50470049Y-80578680D02*
X50470049Y-80735635D01*
X41490049Y-72700000D02*
X43654414Y-72700000D01*
X22370049Y-65300000D02*
X23122882Y-65300000D01*
X24170049Y-66347167D02*
X26089249Y-68266367D01*
X130590049Y-71280000D02*
X129570049Y-72300000D01*
X23122882Y-65300000D02*
X24170049Y-66347167D01*
%TO.N,A15*%
X32270049Y-77580000D02*
X33730049Y-76120000D01*
X69075049Y-95364365D02*
X69075049Y-98295000D01*
X69750049Y-94720000D02*
X69719414Y-94720000D01*
X32270049Y-78160000D02*
X32270049Y-77580000D01*
X50070049Y-80744365D02*
X50070049Y-82718679D01*
X57970049Y-93960000D02*
X59770049Y-95760000D01*
X47870049Y-78751471D02*
X47870049Y-79455635D01*
X57970049Y-89864365D02*
X57970049Y-93960000D01*
X66270049Y-97551471D02*
X65918578Y-97200000D01*
X79370049Y-96740000D02*
X72650684Y-96740000D01*
X80470049Y-97840000D02*
X79370049Y-96740000D01*
X67970049Y-99400000D02*
X66270049Y-97700000D01*
X65570049Y-97000000D02*
X61010049Y-97000000D01*
X40670049Y-74151471D02*
X41721520Y-73100000D01*
X69719414Y-94720000D02*
X69075049Y-95364365D01*
X69770049Y-94700000D02*
X69750049Y-94720000D01*
X69075049Y-98295000D02*
X67970049Y-99400000D01*
X48514414Y-80100000D02*
X49425684Y-80100000D01*
X50070049Y-82718679D02*
X51851369Y-84500000D01*
X66270049Y-97700000D02*
X66270049Y-97551471D01*
X61010049Y-97000000D02*
X59770049Y-95760000D01*
X79370049Y-96740000D02*
X79370049Y-91320000D01*
X65918578Y-97200000D02*
X65770049Y-97200000D01*
X41721520Y-73100000D02*
X42218578Y-73100000D01*
X49425684Y-80100000D02*
X50070049Y-80744365D01*
X51851369Y-84500000D02*
X52605684Y-84500000D01*
X42218578Y-73100000D02*
X47870049Y-78751471D01*
X40670049Y-76900000D02*
X40670049Y-74151471D01*
X67970049Y-99400000D02*
X67970049Y-99800000D01*
X65770049Y-97200000D02*
X65570049Y-97000000D01*
X79370049Y-91320000D02*
X80470049Y-90220000D01*
X25584849Y-65221967D02*
X27282549Y-65221967D01*
X52605684Y-84500000D02*
X57970049Y-89864365D01*
X24170049Y-63807167D02*
X25584849Y-65221967D01*
X47870049Y-79455635D02*
X48514414Y-80100000D01*
X70610684Y-94700000D02*
X69770049Y-94700000D01*
X72650684Y-96740000D02*
X70610684Y-94700000D01*
%TO.N,/D0*%
X118043476Y-100555000D02*
X117198474Y-101400000D01*
X125070574Y-99000000D02*
X124315572Y-99755000D01*
X54830049Y-16860000D02*
X55930049Y-15760000D01*
X93904464Y-106500000D02*
X93589948Y-106500000D01*
X131250049Y-98100000D02*
X130350049Y-99000000D01*
X102106080Y-108089996D02*
X102063166Y-108047082D01*
X105190049Y-49965000D02*
X104170049Y-50985000D01*
X87530049Y-87270000D02*
X87530049Y-94920000D01*
X119566942Y-100555000D02*
X118043476Y-100555000D01*
X37870049Y-71965686D02*
X37870049Y-94840000D01*
X87230049Y-105448529D02*
X87230049Y-105000000D01*
X127044888Y-99000000D02*
X126689887Y-99355000D01*
X117198474Y-101400000D02*
X114914737Y-101400000D01*
X105190049Y-30690000D02*
X105190049Y-49965000D01*
X96395634Y-107100000D02*
X96195633Y-107300000D01*
X38470049Y-71254478D02*
X38270049Y-71454478D01*
X114914737Y-101400000D02*
X108224732Y-108090000D01*
X105190049Y-18807502D02*
X105190049Y-28650000D01*
X91830150Y-106100000D02*
X89955834Y-106100000D01*
X72370049Y-16860000D02*
X73530049Y-15700000D01*
X38270049Y-71454478D02*
X38270049Y-71565685D01*
X104170049Y-72300000D02*
X98970049Y-77500000D01*
X89955834Y-106100000D02*
X89555835Y-105700000D01*
X125295210Y-99000000D02*
X125070574Y-99000000D01*
X105190049Y-28650000D02*
X104170049Y-29670000D01*
X125650210Y-99355000D02*
X125295210Y-99000000D01*
X98785327Y-107518138D02*
X96962785Y-107518135D01*
X55930049Y-15760000D02*
X71270049Y-15760000D01*
X88078578Y-105800000D02*
X87581520Y-105800000D01*
X27282549Y-61839667D02*
X27282549Y-62177667D01*
X101433242Y-107700002D02*
X99453090Y-107700000D01*
X89555835Y-105700000D02*
X88178578Y-105700000D01*
X120238839Y-100155000D02*
X120102891Y-100019052D01*
X102063166Y-108047082D02*
X101780322Y-108047082D01*
X105190049Y-71280000D02*
X104170049Y-72300000D01*
X102768815Y-108090000D02*
X102106080Y-108089996D01*
X96962785Y-107518135D02*
X96544651Y-107100000D01*
X102082547Y-15700000D02*
X105190049Y-18807502D01*
X96544651Y-107100000D02*
X96395634Y-107100000D01*
X130350049Y-99000000D02*
X127044888Y-99000000D01*
X121941257Y-100155000D02*
X120238839Y-100155000D01*
X99053090Y-107300000D02*
X99003465Y-107300000D01*
X126689887Y-99355000D02*
X125650210Y-99355000D01*
X37870049Y-94840000D02*
X33730049Y-98980000D01*
X88564414Y-77500000D02*
X87670049Y-78394365D01*
X120102891Y-100019052D02*
X119566942Y-100555000D01*
X104170049Y-50985000D02*
X105190049Y-52005000D01*
X87581520Y-105800000D02*
X87230049Y-105448529D01*
X124315572Y-99755000D02*
X122944524Y-99755000D01*
X103762940Y-108090000D02*
X103762934Y-108090006D01*
X108224732Y-108090000D02*
X103762940Y-108090000D01*
X122944524Y-99755000D02*
X122642891Y-99453367D01*
X93489946Y-106600000D02*
X92330148Y-106599999D01*
X86480049Y-86220000D02*
X87530049Y-87270000D01*
X102768819Y-108090005D02*
X102768815Y-108090000D01*
X122642891Y-99453367D02*
X121941257Y-100155000D01*
X94704462Y-107299999D02*
X93904464Y-106500000D01*
X99453090Y-107700000D02*
X99053090Y-107300000D01*
X24170049Y-58727167D02*
X27282549Y-61839667D01*
X93589948Y-106500000D02*
X93489946Y-106600000D01*
X103762934Y-108090006D02*
X102768819Y-108090005D01*
X38270049Y-71565685D02*
X37870049Y-71965686D01*
X73530049Y-15700000D02*
X102082547Y-15700000D01*
X87530049Y-94920000D02*
X86430049Y-96020000D01*
X71270049Y-15760000D02*
X72370049Y-16860000D01*
X99003465Y-107300000D02*
X98785327Y-107518138D01*
X88178578Y-105700000D02*
X88078578Y-105800000D01*
X96195633Y-107300000D02*
X94704462Y-107299999D01*
X87230049Y-105000000D02*
X85550049Y-105000000D01*
X92330148Y-106599999D02*
X91830150Y-106100000D01*
X98970049Y-77500000D02*
X88564414Y-77500000D01*
X101780322Y-108047082D02*
X101433242Y-107700002D01*
X104170049Y-29670000D02*
X105190049Y-30690000D01*
X105190049Y-52005000D02*
X105190049Y-71280000D01*
X87670049Y-78394365D02*
X87670049Y-79400000D01*
%TO.N,/D1*%
X89020049Y-86220000D02*
X90070049Y-87270000D01*
X102650049Y-71280000D02*
X101630049Y-72300000D01*
X102650049Y-18807502D02*
X102650049Y-28650000D01*
X128710049Y-98100000D02*
X127025049Y-98100000D01*
X122655210Y-98900000D02*
X122630574Y-98900000D01*
X126524202Y-98955000D02*
X125815896Y-98955000D01*
X101630049Y-50985000D02*
X102650049Y-49965000D01*
X109649051Y-106100000D02*
X109649048Y-106100000D01*
X101505770Y-107290010D02*
X101451312Y-107290010D01*
X98619642Y-107118138D02*
X97128471Y-107118136D01*
X91995835Y-105700000D02*
X90121520Y-105700000D01*
X93324263Y-106200000D02*
X92495834Y-106200000D01*
X121775572Y-99755000D02*
X120404524Y-99755000D01*
X89770049Y-105300000D02*
X87930049Y-105300000D01*
X124885049Y-98500000D02*
X124885049Y-98619839D01*
X96710336Y-106700000D02*
X96229948Y-106700000D01*
X101505781Y-107290000D02*
X101505770Y-107290010D01*
X103597248Y-107690005D02*
X102934505Y-107690005D01*
X87970049Y-18100000D02*
X89970049Y-16100000D01*
X103597254Y-107690000D02*
X103597248Y-107690005D01*
X102271767Y-107689997D02*
X102228852Y-107647082D01*
X71270049Y-18300000D02*
X72370049Y-19400000D01*
X127025049Y-98100000D02*
X127025049Y-98454153D01*
X99218776Y-106900000D02*
X98837781Y-106900000D01*
X101588926Y-107290000D02*
X101505781Y-107290000D01*
X120102891Y-99453367D02*
X119401257Y-100155000D01*
X117032789Y-101000000D02*
X114749051Y-101000000D01*
X108059047Y-107690000D02*
X103597254Y-107690000D01*
X96029948Y-106900000D02*
X94870148Y-106899999D01*
X99942547Y-16100000D02*
X102650049Y-18807502D01*
X92495834Y-106200000D02*
X91995835Y-105700000D01*
X124149887Y-99355000D02*
X123110210Y-99355000D01*
X73670049Y-18100000D02*
X87970049Y-18100000D01*
X97030049Y-76900000D02*
X90270049Y-76900000D01*
X39070049Y-70895389D02*
X38629135Y-70454475D01*
X101630049Y-72300000D02*
X97030049Y-76900000D01*
X120404524Y-99755000D02*
X120102891Y-99453367D01*
X102650049Y-52005000D02*
X102650049Y-71280000D01*
X101630049Y-50985000D02*
X102650049Y-52005000D01*
X122630574Y-98900000D02*
X121775572Y-99755000D01*
X114749051Y-101000000D02*
X109649051Y-106100000D01*
X38270049Y-72500000D02*
X39070049Y-71700000D01*
X96229948Y-106700000D02*
X96029948Y-106900000D01*
X101441320Y-107300002D02*
X99618776Y-107300000D01*
X102228852Y-107647082D02*
X101946008Y-107647082D01*
X93424264Y-106100000D02*
X93324263Y-106200000D01*
X101451312Y-107290010D02*
X101441320Y-107300002D01*
X101946008Y-107647082D02*
X101588926Y-107290000D01*
X90070049Y-94920000D02*
X88970049Y-96020000D01*
X102650049Y-49965000D02*
X102650049Y-30690000D01*
X24170049Y-56187167D02*
X27116149Y-59133267D01*
X102650049Y-30690000D02*
X101630049Y-29670000D01*
X54830049Y-19400000D02*
X55930049Y-18300000D01*
X90121520Y-105700000D02*
X89770049Y-105348529D01*
X94070150Y-106100000D02*
X93424264Y-106100000D01*
X33730049Y-101520000D02*
X38270049Y-96980000D01*
X27116149Y-59133267D02*
X27282549Y-59133267D01*
X72370049Y-19400000D02*
X73670049Y-18100000D01*
X125360896Y-98500000D02*
X124885049Y-98500000D01*
X123110210Y-99355000D02*
X122655210Y-98900000D01*
X88970049Y-113110000D02*
X88970049Y-111450000D01*
X55930049Y-18300000D02*
X71270049Y-18300000D01*
X89770049Y-105348529D02*
X89770049Y-105300000D01*
X99618776Y-107300000D02*
X99218776Y-106900000D01*
X109649048Y-106100000D02*
X108059047Y-107690000D01*
X124885049Y-98619839D02*
X124149887Y-99355000D01*
X102650049Y-28650000D02*
X101630049Y-29670000D01*
X97128471Y-107118136D02*
X96710336Y-106700000D01*
X127025049Y-98454153D02*
X126524202Y-98955000D01*
X102934505Y-107690005D02*
X102934502Y-107690001D01*
X87930049Y-105300000D02*
X87830049Y-105200000D01*
X119401257Y-100155000D02*
X117877790Y-100155000D01*
X102934502Y-107690001D02*
X102271767Y-107689997D01*
X94870148Y-106899999D02*
X94070150Y-106100000D01*
X38629135Y-70454475D02*
X38470049Y-70454475D01*
X89970049Y-16100000D02*
X99942547Y-16100000D01*
X98837781Y-106900000D02*
X98619642Y-107118138D01*
X88970049Y-111450000D02*
X88930049Y-111410000D01*
X39070049Y-71700000D02*
X39070049Y-70895389D01*
X125815896Y-98955000D02*
X125360896Y-98500000D01*
X90070049Y-87270000D02*
X90070049Y-94920000D01*
X38270049Y-96980000D02*
X38270049Y-72500000D01*
X117877790Y-100155000D02*
X117032789Y-101000000D01*
%TO.N,/D2*%
X101285626Y-106890010D02*
X101275634Y-106900001D01*
X37270049Y-71151473D02*
X37411470Y-71292894D01*
X37270049Y-69957417D02*
X37270049Y-71151473D01*
X91570049Y-113400000D02*
X91470049Y-113300000D01*
X117864525Y-99755000D02*
X117788315Y-99678791D01*
X99784462Y-106900000D02*
X99384462Y-106500000D01*
X95035834Y-106500000D02*
X94450049Y-105914214D01*
X92065684Y-16500000D02*
X99776861Y-16500000D01*
X120115210Y-98900000D02*
X120090573Y-98900000D01*
X37471520Y-69755946D02*
X37270049Y-69957417D01*
X100110049Y-28650000D02*
X99090049Y-29670000D01*
X124485049Y-98454153D02*
X123984202Y-98955000D01*
X101340085Y-106890010D02*
X101285626Y-106890010D01*
X24170049Y-53647167D02*
X26611849Y-56088967D01*
X101754612Y-106890000D02*
X101340096Y-106889999D01*
X37070049Y-71634314D02*
X37070049Y-90560000D01*
X99776861Y-16500000D02*
X100110049Y-16833188D01*
X37411470Y-71292894D02*
X37070049Y-71634314D01*
X87865684Y-20700000D02*
X92065684Y-16500000D01*
X98672095Y-106500000D02*
X98453957Y-106718138D01*
X103431568Y-107290000D02*
X103431563Y-107290005D01*
X102111694Y-107247082D02*
X101754612Y-106890000D01*
X91560049Y-86220000D02*
X92610049Y-87270000D01*
X109483366Y-105700000D02*
X109483363Y-105700000D01*
X120090573Y-98900000D02*
X119235572Y-99755000D01*
X91470049Y-113510000D02*
X91570049Y-113410000D01*
X123275896Y-98955000D02*
X122820896Y-98500000D01*
X100110049Y-30690000D02*
X99090049Y-29670000D01*
X92610049Y-87270000D02*
X92610049Y-94920000D01*
X119235572Y-99755000D02*
X117864525Y-99755000D01*
X98453957Y-106718138D02*
X97294157Y-106718137D01*
X95864263Y-106500000D02*
X95035834Y-106500000D01*
X100110049Y-52005000D02*
X99090049Y-50985000D01*
X116867104Y-100600000D02*
X114583365Y-100600000D01*
X91470049Y-113510000D02*
X91470049Y-111410000D01*
X121609887Y-99355000D02*
X120570210Y-99355000D01*
X94450049Y-105700000D02*
X93258578Y-105700000D01*
X102437454Y-107289998D02*
X102394538Y-107247082D01*
X91570049Y-113410000D02*
X91570049Y-113400000D01*
X72370049Y-21940000D02*
X73610049Y-20700000D01*
X122345049Y-98619839D02*
X121609887Y-99355000D01*
X126170049Y-98100000D02*
X124485049Y-98100000D01*
X99384462Y-106500000D02*
X98672095Y-106500000D01*
X102394538Y-107247082D02*
X102111694Y-107247082D01*
X93158578Y-105800000D02*
X92661520Y-105800000D01*
X95090049Y-76300000D02*
X92870049Y-76300000D01*
X96876021Y-106300000D02*
X96064264Y-106300000D01*
X93258578Y-105700000D02*
X93158578Y-105800000D01*
X99090049Y-72300000D02*
X95090049Y-76300000D01*
X117788315Y-99678791D02*
X116867104Y-100600000D01*
X100110049Y-49965000D02*
X100110049Y-30690000D01*
X101275634Y-106900001D02*
X99784462Y-106900000D01*
X96064264Y-106300000D02*
X95864263Y-106500000D01*
X55930049Y-20840000D02*
X71270049Y-20840000D01*
X107893362Y-107290000D02*
X103431568Y-107290000D01*
X122345049Y-98500000D02*
X122345049Y-98619839D01*
X71270049Y-20840000D02*
X72370049Y-21940000D01*
X73610049Y-20700000D02*
X87865684Y-20700000D01*
X92310049Y-105300000D02*
X90570049Y-105300000D01*
X100110049Y-71280000D02*
X100110049Y-52005000D01*
X90570049Y-105300000D02*
X90370049Y-105100000D01*
X92610049Y-94920000D02*
X91510049Y-96020000D01*
X120570210Y-99355000D02*
X120115210Y-98900000D01*
X92661520Y-105800000D02*
X92310049Y-105448529D01*
X109483363Y-105700000D02*
X107893362Y-107290000D01*
X124485049Y-98100000D02*
X124485049Y-98454153D01*
X100110049Y-16833188D02*
X100110049Y-28650000D01*
X26611849Y-56088967D02*
X27282549Y-56088967D01*
X103431563Y-107290005D02*
X103100191Y-107290005D01*
X99090049Y-50985000D02*
X100110049Y-49965000D01*
X54830049Y-21940000D02*
X55930049Y-20840000D01*
X37070049Y-90560000D02*
X33730049Y-93900000D01*
X92310049Y-105448529D02*
X92310049Y-105300000D01*
X114583365Y-100600000D02*
X109483366Y-105700000D01*
X123984202Y-98955000D02*
X123275896Y-98955000D01*
X94450049Y-105914214D02*
X94450049Y-105700000D01*
X97294157Y-106718137D02*
X96876021Y-106300000D01*
X99090049Y-72300000D02*
X100110049Y-71280000D01*
X122820896Y-98500000D02*
X122345049Y-98500000D01*
X103100188Y-107290002D02*
X102437454Y-107289998D01*
X103100191Y-107290005D02*
X103100188Y-107290002D01*
X101340096Y-106889999D02*
X101340085Y-106890010D01*
%TO.N,/D3*%
X95530049Y-41845000D02*
X95530049Y-61120000D01*
X93970049Y-113910000D02*
X93970049Y-113900000D01*
X102603141Y-106889999D02*
X102560224Y-106847082D01*
X114417679Y-100200000D02*
X108717680Y-105900000D01*
X95201520Y-106100000D02*
X94850049Y-105748529D01*
X54830049Y-24480000D02*
X55930049Y-23380000D01*
X95150049Y-94920000D02*
X94050049Y-96020000D01*
X116701419Y-100200000D02*
X114417679Y-100200000D01*
X120735896Y-98955000D02*
X120280896Y-98500000D01*
X119805049Y-98619839D02*
X119069887Y-99355000D01*
X120280896Y-98500000D02*
X119805049Y-98500000D01*
X36690150Y-68351472D02*
X36070049Y-68971572D01*
X108717678Y-105900000D02*
X107727677Y-106890000D01*
X93970049Y-113900000D02*
X94010049Y-113860000D01*
X95898578Y-105900000D02*
X95698578Y-106100000D01*
X96550049Y-40825000D02*
X95530049Y-41845000D01*
X102560224Y-106847082D02*
X102277380Y-106847082D01*
X94010049Y-113860000D02*
X94010049Y-111410000D01*
X71270049Y-23380000D02*
X72370049Y-24480000D01*
X99950148Y-106500000D02*
X99550148Y-106100000D01*
X36921521Y-68351473D02*
X36690150Y-68351472D01*
X36070049Y-68971572D02*
X36070049Y-70937257D01*
X26107449Y-53044567D02*
X27282549Y-53044567D01*
X103265882Y-106890000D02*
X103265877Y-106890003D01*
X36070049Y-70937257D02*
X35870050Y-71137257D01*
X119069887Y-99355000D02*
X118030210Y-99355000D01*
X97041706Y-105900000D02*
X95898578Y-105900000D01*
X94100049Y-86220000D02*
X95150049Y-87270000D01*
X103265877Y-106890003D02*
X102603141Y-106889999D01*
X37431550Y-67400000D02*
X37431550Y-68300000D01*
X98506411Y-106100000D02*
X98288272Y-106318138D01*
X88110049Y-23200000D02*
X88210049Y-23300000D01*
X72370049Y-24480000D02*
X73650049Y-23200000D01*
X36972994Y-68300000D02*
X36921521Y-68351473D01*
X98288272Y-106318138D02*
X97459843Y-106318138D01*
X35870050Y-71137257D02*
X35870049Y-81600000D01*
X119805049Y-98500000D02*
X119805049Y-98619839D01*
X95530049Y-39805000D02*
X96550049Y-40825000D01*
X117788315Y-99113105D02*
X116701419Y-100200000D01*
X37431550Y-68300000D02*
X36972994Y-68300000D01*
X95530049Y-61120000D02*
X96550049Y-62140000D01*
X123630049Y-98100000D02*
X121945049Y-98100000D01*
X121945049Y-98454153D02*
X121444202Y-98955000D01*
X102277380Y-106847082D02*
X101920298Y-106490000D01*
X101174410Y-106489999D02*
X101174399Y-106490005D01*
X101109949Y-106500001D02*
X99950148Y-106500000D01*
X97459843Y-106318138D02*
X97041706Y-105900000D01*
X99550148Y-106100000D02*
X98506411Y-106100000D01*
X94850049Y-105748529D02*
X94850049Y-105300000D01*
X101920298Y-106490000D02*
X101174410Y-106489999D01*
X55930049Y-23380000D02*
X71270049Y-23380000D01*
X94850049Y-105300000D02*
X93010049Y-105300000D01*
X108717680Y-105900000D02*
X108717678Y-105900000D01*
X24170049Y-51107167D02*
X26107449Y-53044567D01*
X101174399Y-106490005D02*
X101119946Y-106490004D01*
X121945049Y-98100000D02*
X121945049Y-98454153D01*
X96550049Y-19510000D02*
X95530049Y-20530000D01*
X95530049Y-20530000D02*
X95530049Y-39805000D01*
X73650049Y-23200000D02*
X88110049Y-23200000D01*
X95150049Y-87270000D02*
X95150049Y-94920000D01*
X93010049Y-105300000D02*
X92910049Y-105200000D01*
X35870049Y-81600000D02*
X33730049Y-83740000D01*
X101119946Y-106490004D02*
X101109949Y-106500001D01*
X107727677Y-106890000D02*
X103265882Y-106890000D01*
X118030210Y-99355000D02*
X117788315Y-99113105D01*
X121444202Y-98955000D02*
X120735896Y-98955000D01*
X95698578Y-106100000D02*
X95201520Y-106100000D01*
%TO.N,/D4*%
X98070049Y-39805000D02*
X98070049Y-20530000D01*
X98070049Y-20530000D02*
X99090049Y-19510000D01*
X37031550Y-67848529D02*
X37031550Y-67900000D01*
X25603149Y-50000267D02*
X27282549Y-50000267D01*
X96640049Y-86220000D02*
X97690049Y-87270000D01*
X101008724Y-106089999D02*
X101008721Y-106090002D01*
X38221918Y-67523785D02*
X38221918Y-67341839D01*
X35938678Y-68500001D02*
X35957307Y-68518630D01*
X109933863Y-104118129D02*
X108151993Y-105900000D01*
X121090049Y-98100000D02*
X119405049Y-98100000D01*
X117788315Y-98547419D02*
X116535734Y-99800000D01*
X118904202Y-98955000D02*
X118195896Y-98955000D01*
X37680079Y-66800000D02*
X37183021Y-66800000D01*
X103100194Y-106490002D02*
X102768828Y-106490000D01*
X37031550Y-67900000D02*
X36807308Y-67900000D01*
X36807308Y-67900000D02*
X36755836Y-67951472D01*
X54830049Y-27020000D02*
X55930049Y-25920000D01*
X101008721Y-106090002D02*
X100954263Y-106090001D01*
X118195896Y-98955000D02*
X117788315Y-98547419D01*
X102768828Y-106490000D02*
X102725910Y-106447082D01*
X107561992Y-106490000D02*
X103100196Y-106490000D01*
X36831550Y-67151471D02*
X36831550Y-67648529D01*
X99090049Y-40825000D02*
X98070049Y-39805000D01*
X98070049Y-41845000D02*
X98070049Y-61120000D01*
X99715834Y-105700000D02*
X98340725Y-105700000D01*
X108151993Y-105900000D02*
X107561992Y-106490000D01*
X71270049Y-25920000D02*
X72370049Y-27020000D01*
X98122587Y-105918138D02*
X97625529Y-105918138D01*
X73690049Y-25700000D02*
X88210049Y-25700000D01*
X97690049Y-87270000D02*
X97690049Y-94920000D01*
X97690049Y-94920000D02*
X96590049Y-96020000D01*
X97274058Y-105566667D02*
X97274058Y-105500000D01*
X119405049Y-98100000D02*
X119405049Y-98454153D01*
X99090049Y-40825000D02*
X98070049Y-41845000D01*
X102085984Y-106090000D02*
X101008724Y-106089999D01*
X100944263Y-106100000D02*
X100115834Y-106100000D01*
X37183021Y-66800000D02*
X36831550Y-67151471D01*
X109933864Y-104118130D02*
X109933863Y-104118129D01*
X35975934Y-68500001D02*
X35938678Y-68500001D01*
X97274058Y-105500000D02*
X95450049Y-105500000D01*
X35470050Y-70971572D02*
X35470049Y-79460000D01*
X96550049Y-114290000D02*
X96550049Y-111410000D01*
X98340725Y-105700000D02*
X98122587Y-105918138D01*
X116535734Y-99800000D02*
X114251993Y-99800000D01*
X35470049Y-79460000D02*
X33730049Y-81200000D01*
X96570049Y-114310000D02*
X96550049Y-114290000D01*
X114251993Y-99800000D02*
X109933864Y-104118130D01*
X98070049Y-61120000D02*
X99090049Y-62140000D01*
X102443066Y-106447082D02*
X102085984Y-106090000D01*
X24170049Y-48567167D02*
X25603149Y-50000267D01*
X36831550Y-67648529D02*
X37031550Y-67848529D01*
X119405049Y-98454153D02*
X118904202Y-98955000D01*
X102725910Y-106447082D02*
X102443066Y-106447082D01*
X72370049Y-27020000D02*
X73690049Y-25700000D01*
X35670049Y-70771573D02*
X35470050Y-70971572D01*
X38221918Y-67341839D02*
X37680079Y-66800000D01*
X35957307Y-68518630D02*
X35670049Y-68805887D01*
X103100196Y-106490000D02*
X103100194Y-106490002D01*
X36755836Y-67951472D02*
X36524464Y-67951472D01*
X96570049Y-114910000D02*
X96570049Y-114310000D01*
X35670049Y-68805887D02*
X35670049Y-70771573D01*
X55930049Y-25920000D02*
X71270049Y-25920000D01*
X100954263Y-106090001D02*
X100944263Y-106100000D01*
X97625529Y-105918138D02*
X97274058Y-105566667D01*
X100115834Y-106100000D02*
X99715834Y-105700000D01*
X36524464Y-67951472D02*
X35975934Y-68500001D01*
%TO.N,/D5*%
X100610049Y-20530000D02*
X100610049Y-39805000D01*
X36855835Y-68751472D02*
X37087206Y-68751472D01*
X118550049Y-98100000D02*
X117670049Y-98100000D01*
X100778578Y-105700000D02*
X100281520Y-105700000D01*
X25098749Y-46955867D02*
X27282549Y-46955867D01*
X100230049Y-87270000D02*
X100230049Y-94920000D01*
X38870049Y-68700000D02*
X38870049Y-68000000D01*
X117670049Y-98100000D02*
X116370049Y-99400000D01*
X71270049Y-28460000D02*
X72370049Y-29560000D01*
X99180049Y-86220000D02*
X100230049Y-87270000D01*
X24170049Y-46027167D02*
X25098749Y-46955867D01*
X37087206Y-68751472D02*
X37138679Y-68700000D01*
X96027249Y-117058300D02*
X97922884Y-117058300D01*
X54830049Y-29560000D02*
X55930049Y-28460000D01*
X101630049Y-40825000D02*
X100510049Y-41945000D01*
X98567249Y-111932800D02*
X99090049Y-111410000D01*
X100510049Y-61020000D02*
X101630049Y-62140000D01*
X102251670Y-105690000D02*
X100843042Y-105689999D01*
X33730049Y-86280000D02*
X36270049Y-83740000D01*
X37138679Y-68700000D02*
X38870049Y-68700000D01*
X94927249Y-115958300D02*
X96027249Y-117058300D01*
X114086307Y-99400000D02*
X107396307Y-106090000D01*
X100843042Y-105689999D02*
X100815811Y-105662767D01*
X100510049Y-41945000D02*
X100510049Y-61020000D01*
X99930049Y-105300000D02*
X97892196Y-105300000D01*
X73630049Y-28300000D02*
X72370049Y-29560000D01*
X107396307Y-106090000D02*
X102934513Y-106090000D01*
X97922884Y-117058300D02*
X98567249Y-116413935D01*
X102891596Y-106047082D02*
X102608752Y-106047082D01*
X36270049Y-83740000D02*
X36270050Y-71302943D01*
X100230049Y-94920000D02*
X99130049Y-96020000D01*
X98567249Y-116413935D02*
X98567249Y-111932800D01*
X101630049Y-19510000D02*
X100610049Y-20530000D01*
X36270050Y-71302943D02*
X36470049Y-71102943D01*
X116370049Y-99400000D02*
X114086307Y-99400000D01*
X97892196Y-105300000D02*
X97874058Y-105318138D01*
X36470049Y-69137257D02*
X36855835Y-68751472D01*
X100610049Y-39805000D02*
X101630049Y-40825000D01*
X102608752Y-106047082D02*
X102251670Y-105690000D01*
X100281520Y-105700000D02*
X99930049Y-105348529D01*
X36470049Y-71102943D02*
X36470049Y-69137257D01*
X99930049Y-105348529D02*
X99930049Y-105300000D01*
X102934513Y-106090000D02*
X102891596Y-106047082D01*
X88170049Y-28300000D02*
X73630049Y-28300000D01*
X100815811Y-105662767D02*
X100778578Y-105700000D01*
X55930049Y-28460000D02*
X71270049Y-28460000D01*
%TO.N,/D6*%
X103150049Y-41845000D02*
X104170049Y-40825000D01*
X73670049Y-30800000D02*
X72370049Y-32100000D01*
X36870049Y-71268629D02*
X36870049Y-69302943D01*
X54830049Y-32100000D02*
X55930049Y-31000000D01*
X103150049Y-61120000D02*
X103150049Y-41845000D01*
X103150049Y-20530000D02*
X103150049Y-39805000D01*
X107230622Y-105690000D02*
X103100199Y-105690000D01*
X95503263Y-117100000D02*
X95861564Y-117458300D01*
X39570049Y-69100000D02*
X39570049Y-68500000D01*
X98088570Y-117458300D02*
X98446870Y-117100000D01*
X36870049Y-69302943D02*
X37021520Y-69151472D01*
X33730049Y-88820000D02*
X36670049Y-85880000D01*
X36670050Y-71468628D02*
X36870049Y-71268629D01*
X102770049Y-94920000D02*
X101670049Y-96020000D01*
X101008728Y-105290000D02*
X100818729Y-105100000D01*
X101720049Y-86220000D02*
X102770049Y-87270000D01*
X101447249Y-111592800D02*
X101630049Y-111410000D01*
X102251369Y-105290000D02*
X101008728Y-105290000D01*
X24170049Y-43487167D02*
X26858149Y-43487167D01*
X104170049Y-19510000D02*
X103150049Y-20530000D01*
X102422967Y-105118403D02*
X102251369Y-105290000D01*
X26858149Y-43487167D02*
X27282549Y-43911567D01*
X101447249Y-116413935D02*
X101447249Y-111592800D01*
X92387249Y-115958300D02*
X93528949Y-117100000D01*
X37470049Y-69151472D02*
X37470049Y-69134315D01*
X100818729Y-105100000D02*
X100530049Y-105100000D01*
X37270049Y-69134315D02*
X37304364Y-69100000D01*
X88170049Y-30800000D02*
X73670049Y-30800000D01*
X113870049Y-99050574D02*
X107230622Y-105690000D01*
X37470049Y-69134315D02*
X37270049Y-69134315D01*
X98446870Y-117100000D02*
X100761184Y-117100000D01*
X103150049Y-39805000D02*
X104170049Y-40825000D01*
X102774438Y-105647082D02*
X102422967Y-105295611D01*
X102770049Y-87270000D02*
X102770049Y-94920000D01*
X55930049Y-31000000D02*
X71270049Y-31000000D01*
X71270049Y-31000000D02*
X72370049Y-32100000D01*
X116010049Y-98100000D02*
X114325049Y-98100000D01*
X103100199Y-105690000D02*
X103057281Y-105647082D01*
X36670049Y-85880000D02*
X36670050Y-71468628D01*
X114325049Y-98454153D02*
X113870049Y-98909153D01*
X100761184Y-117100000D02*
X101447249Y-116413935D01*
X37304364Y-69100000D02*
X39570049Y-69100000D01*
X104170049Y-62140000D02*
X103150049Y-61120000D01*
X114325049Y-98100000D02*
X114325049Y-98454153D01*
X93528949Y-117100000D02*
X95503263Y-117100000D01*
X95861564Y-117458300D02*
X98088570Y-117458300D01*
X103057281Y-105647082D02*
X102774438Y-105647082D01*
X37021520Y-69151472D02*
X37470049Y-69151472D01*
X113870049Y-98909153D02*
X113870049Y-99050574D01*
X102422967Y-105295611D02*
X102422967Y-105118403D01*
%TO.N,/D7*%
X39067076Y-70202973D02*
X40170049Y-69100000D01*
X24170049Y-40947167D02*
X27202549Y-40947167D01*
X103987249Y-116073935D02*
X103987249Y-111592800D01*
X90988949Y-117100000D02*
X92963263Y-117100000D01*
X38718578Y-69854475D02*
X39067076Y-70202973D01*
X93363264Y-117500000D02*
X95337578Y-117500000D01*
X40170049Y-69100000D02*
X40182198Y-69100000D01*
X33730049Y-96440000D02*
X37470049Y-92700000D01*
X37470049Y-71800000D02*
X37870049Y-71400000D01*
X106710049Y-62140000D02*
X105690049Y-61120000D01*
X38021522Y-70854476D02*
X37870049Y-70703004D01*
X113470049Y-98884888D02*
X107064937Y-105290000D01*
X37870049Y-71400000D02*
X37870049Y-71005949D01*
X100926870Y-117500000D02*
X101326870Y-117100000D01*
X104260049Y-86220000D02*
X105310049Y-87270000D01*
X37870049Y-70703004D02*
X37870049Y-70205946D01*
X106710049Y-40825000D02*
X105690049Y-39805000D01*
X37870049Y-70205946D02*
X38221520Y-69854475D01*
X92963263Y-117100000D02*
X93363264Y-117500000D01*
X38221520Y-69854475D02*
X38718578Y-69854475D01*
X102961184Y-117100000D02*
X103987249Y-116073935D01*
X71270049Y-33540000D02*
X72370049Y-34640000D01*
X27202549Y-40947167D02*
X27282549Y-40867167D01*
X95337578Y-117500000D02*
X95695879Y-117858300D01*
X89847249Y-115958300D02*
X90988949Y-117100000D01*
X98254256Y-117858300D02*
X98612556Y-117500000D01*
X98612556Y-117500000D02*
X100926870Y-117500000D01*
X105690049Y-41845000D02*
X106710049Y-40825000D01*
X37870049Y-71005949D02*
X38021522Y-70854476D01*
X105690049Y-61120000D02*
X105690049Y-41845000D01*
X95695879Y-117858300D02*
X98254256Y-117858300D01*
X107064937Y-105290000D02*
X103265885Y-105290000D01*
X72370049Y-34640000D02*
X73610049Y-33400000D01*
X105690049Y-20530000D02*
X106710049Y-19510000D01*
X105310049Y-87270000D02*
X105310049Y-94920000D01*
X55930049Y-33540000D02*
X71270049Y-33540000D01*
X101326870Y-117100000D02*
X102961184Y-117100000D01*
X105310049Y-94920000D02*
X104210049Y-96020000D01*
X105690049Y-39805000D02*
X105690049Y-20530000D01*
X103987249Y-111592800D02*
X104170049Y-111410000D01*
X73610049Y-33400000D02*
X88170049Y-33400000D01*
X40182198Y-69100000D02*
X40270049Y-69012149D01*
X54830049Y-34640000D02*
X55930049Y-33540000D01*
X103265885Y-105290000D02*
X103022967Y-105047082D01*
X113470049Y-98100000D02*
X113470049Y-98884888D01*
X37470049Y-92700000D02*
X37470049Y-71800000D01*
%TO.N,Net-(U5-Q3)*%
X129207249Y-123573300D02*
X127213949Y-125566600D01*
X72398649Y-138391600D02*
X71573649Y-139216600D01*
X127213949Y-125566600D02*
X121852249Y-125566600D01*
X114684349Y-140216600D02*
X116052249Y-140216600D01*
X111709349Y-143191600D02*
X114684349Y-140216600D01*
X72398649Y-127016600D02*
X72398649Y-129708300D01*
X121852249Y-125566600D02*
X121227249Y-126191600D01*
X66598649Y-131358300D02*
X66598649Y-134050000D01*
X68145049Y-139216600D02*
X68570049Y-139641600D01*
X121227249Y-126191600D02*
X122052249Y-127016600D01*
X116052249Y-140216600D02*
X117077249Y-139191600D01*
X122052249Y-127016600D02*
X122052249Y-129700000D01*
X121227249Y-134858300D02*
X122052249Y-135683300D01*
X116252249Y-131350000D02*
X116252249Y-134033300D01*
X66598649Y-134050000D02*
X67423649Y-134875000D01*
X122052249Y-135683300D02*
X122052249Y-138366600D01*
X71573649Y-126191600D02*
X72398649Y-127016600D01*
X67423649Y-139216600D02*
X68145049Y-139216600D01*
X72398649Y-129708300D02*
X71573649Y-130533300D01*
X116252249Y-134033300D02*
X117077249Y-134858300D01*
X67423649Y-130533300D02*
X66598649Y-131358300D01*
X122052249Y-129700000D02*
X121227249Y-130525000D01*
X117077249Y-130525000D02*
X116252249Y-131350000D01*
X71573649Y-134875000D02*
X72398649Y-135700000D01*
X122052249Y-138366600D02*
X121227249Y-139191600D01*
X72398649Y-135700000D02*
X72398649Y-138391600D01*
X68570049Y-143191600D02*
X111709349Y-143191600D01*
%TO.N,Net-(U11-D1)*%
X122452249Y-137851100D02*
X123295049Y-137008300D01*
X122452249Y-139416600D02*
X122452249Y-137851100D01*
X104641449Y-137008300D02*
X107449749Y-139816600D01*
X123295049Y-137008300D02*
X126103349Y-139816600D01*
X128270049Y-139816600D02*
X128670049Y-139416600D01*
X98423649Y-137008300D02*
X101231949Y-139816600D01*
X119885549Y-139816600D02*
X122052249Y-139816600D01*
X122052249Y-139816600D02*
X122452249Y-139416600D01*
X128670049Y-137851200D02*
X129512949Y-137008300D01*
X128670049Y-139416600D02*
X128670049Y-137851200D01*
X134887949Y-137851100D02*
X135730749Y-137008300D01*
X134887949Y-139416600D02*
X134887949Y-137851100D01*
X117077249Y-137008300D02*
X119885549Y-139816600D01*
X97598649Y-139398700D02*
X97598649Y-137833300D01*
X115834349Y-139816600D02*
X116234349Y-139416600D01*
X107449749Y-139816600D02*
X109616449Y-139816600D01*
X132321249Y-139816600D02*
X134487949Y-139816600D01*
X116234349Y-139416600D02*
X116234349Y-137851200D01*
X110016449Y-137851200D02*
X110859349Y-137008300D01*
X103798649Y-137851100D02*
X104641449Y-137008300D01*
X134487949Y-139816600D02*
X134887949Y-139416600D01*
X92205749Y-137008300D02*
X95014049Y-139816600D01*
X103798649Y-139416600D02*
X103798649Y-137851100D01*
X116234349Y-137851200D02*
X117077249Y-137008300D01*
X97180749Y-139816600D02*
X97598649Y-139398700D01*
X109616449Y-139816600D02*
X110016449Y-139416600D01*
X103398649Y-139816600D02*
X103798649Y-139416600D01*
X95014049Y-139816600D02*
X97180749Y-139816600D01*
X97598649Y-137833300D02*
X98423649Y-137008300D01*
X110016449Y-139416600D02*
X110016449Y-137851200D01*
X126103349Y-139816600D02*
X128270049Y-139816600D01*
X113667649Y-139816600D02*
X115834349Y-139816600D01*
X110859349Y-137008300D02*
X113667649Y-139816600D01*
X101231949Y-139816600D02*
X103398649Y-139816600D01*
X129512949Y-137008300D02*
X132321249Y-139816600D01*
%TO.N,Net-(U1-Pad4)*%
X60855049Y-109846321D02*
X60188728Y-109180000D01*
X65730049Y-112560000D02*
X62445784Y-112560000D01*
X80470049Y-87680000D02*
X81570049Y-88780000D01*
X74954314Y-101315735D02*
X74954314Y-102015735D01*
X60188728Y-109180000D02*
X59770049Y-109180000D01*
X81570049Y-94200000D02*
X80470049Y-95300000D01*
X80470049Y-87680000D02*
X72850049Y-87680000D01*
X60855049Y-110969789D02*
X60855049Y-109846321D01*
X78170049Y-98100000D02*
X74954314Y-101315735D01*
X81570049Y-88780000D02*
X81570049Y-94200000D01*
X71270049Y-118100000D02*
X65730049Y-112560000D01*
%TO.N,!CS_EEPROM*%
X82170049Y-85300000D02*
X82170049Y-77670000D01*
X83170049Y-89900000D02*
X82170049Y-88900000D01*
X94970049Y-18400000D02*
X94970049Y-20216032D01*
X85290049Y-102690000D02*
X86390049Y-103790000D01*
X82770049Y-100565000D02*
X82670305Y-100565000D01*
X83530049Y-98602500D02*
X82770049Y-99362500D01*
X82770049Y-99362500D02*
X82770049Y-100565000D01*
X82670305Y-102590000D02*
X82770049Y-102590000D01*
X83170049Y-90200000D02*
X83170049Y-89900000D01*
X94970049Y-20216032D02*
X94570049Y-20616032D01*
X82170049Y-77670000D02*
X83340049Y-76500000D01*
X94570049Y-20616032D02*
X94570049Y-61440000D01*
X82770049Y-102590000D02*
X82770049Y-102689744D01*
X82670305Y-100565000D02*
X82355049Y-100880256D01*
X82355049Y-102274744D02*
X82670305Y-102590000D01*
X82355049Y-100880256D02*
X82355049Y-102274744D01*
X82770049Y-102689744D02*
X82770305Y-102690000D01*
X82770305Y-102690000D02*
X85290049Y-102690000D01*
%TO.N,!CS_RAM*%
X88930049Y-100612500D02*
X86920049Y-98602500D01*
X81570049Y-81700000D02*
X81570049Y-84040000D01*
X85590049Y-95115686D02*
X85590049Y-89800000D01*
X88930049Y-103790000D02*
X88930049Y-100612500D01*
X85105049Y-96787500D02*
X85105049Y-95600686D01*
X107919204Y-84750846D02*
X107368358Y-84200000D01*
X107368358Y-84200000D02*
X86270049Y-84200000D01*
X81170049Y-81300000D02*
X81570049Y-81700000D01*
X86920049Y-98602500D02*
X85105049Y-96787500D01*
X81570049Y-84040000D02*
X80470049Y-85140000D01*
X85105049Y-95600686D02*
X85590049Y-95115686D01*
%TO.N,!CS_Main*%
X73981419Y-82600000D02*
X82270049Y-74311370D01*
X92370049Y-18000000D02*
X92570049Y-17800000D01*
X72850049Y-82600000D02*
X73981419Y-82600000D01*
X82270049Y-74311370D02*
X82270049Y-70200000D01*
X92570049Y-17800000D02*
X99070049Y-17800000D01*
X92370049Y-61700000D02*
X92370049Y-18000000D01*
%TO.N,Net-(U1-Pad12)*%
X67316103Y-96946054D02*
X68114631Y-97744582D01*
X67316103Y-96846052D02*
X67316103Y-95553946D01*
X69730048Y-84340001D02*
X72050050Y-84340001D01*
X67994314Y-86075735D02*
X69730048Y-84340001D01*
X72050050Y-84340001D02*
X72850049Y-85140000D01*
X67316103Y-96846052D02*
X67316103Y-96946054D01*
X67316103Y-95553946D02*
X67994314Y-94875735D01*
X67994314Y-94875735D02*
X67994314Y-86075735D01*
%TO.N,Net-(U5-Q1)*%
X134487949Y-138366600D02*
X133662949Y-139191600D01*
X134487949Y-127016600D02*
X134487949Y-129700000D01*
X79034349Y-131358300D02*
X79034349Y-134050000D01*
X84009349Y-134875000D02*
X84834349Y-135700000D01*
X80970049Y-144391600D02*
X122945049Y-144391600D01*
X128687949Y-134033300D02*
X129512949Y-134858300D01*
X84834349Y-135700000D02*
X84834349Y-138391600D01*
X79859349Y-139216600D02*
X80545049Y-139216600D01*
X79034349Y-134050000D02*
X79859349Y-134875000D01*
X134487949Y-135683300D02*
X134487949Y-138366600D01*
X128687949Y-131350000D02*
X128687949Y-134033300D01*
X84834349Y-129708300D02*
X84009349Y-130533300D01*
X84834349Y-127016600D02*
X84834349Y-129708300D01*
X133662949Y-126191600D02*
X134487949Y-127016600D01*
X80545049Y-139216600D02*
X80970049Y-139641600D01*
X122945049Y-144391600D02*
X127120049Y-140216600D01*
X133662949Y-124197600D02*
X134287249Y-123573300D01*
X128487949Y-140216600D02*
X129512949Y-139191600D01*
X127120049Y-140216600D02*
X128487949Y-140216600D01*
X134487949Y-129700000D02*
X133662949Y-130525000D01*
X129512949Y-130525000D02*
X128687949Y-131350000D01*
X79859349Y-130533300D02*
X79034349Y-131358300D01*
X133662949Y-134858300D02*
X134487949Y-135683300D01*
X84009349Y-126191600D02*
X84834349Y-127016600D01*
X133662949Y-126191600D02*
X133662949Y-124197600D01*
X84834349Y-138391600D02*
X84009349Y-139216600D01*
%TO.N,Net-(U11-D3)*%
X122470049Y-129166600D02*
X123295049Y-128341600D01*
X119885649Y-131150000D02*
X122052249Y-131150000D01*
X92205749Y-128341600D02*
X95014149Y-131150000D01*
X107449849Y-131150000D02*
X109616449Y-131150000D01*
X128120049Y-131150000D02*
X128687949Y-130582100D01*
X104641449Y-129028600D02*
X104641449Y-128341600D01*
X128687949Y-129166600D02*
X129512949Y-128341600D01*
X134487949Y-131150000D02*
X134887949Y-130750000D01*
X102470049Y-128300000D02*
X102532049Y-128300000D01*
X101232049Y-131150000D02*
X103398649Y-131150000D01*
X115834349Y-131150000D02*
X116234349Y-130750000D01*
X123295049Y-128341600D02*
X126103449Y-131150000D01*
X97180749Y-131150000D02*
X97580749Y-130750000D01*
X110859349Y-128341600D02*
X113667749Y-131150000D01*
X122470049Y-130732200D02*
X122470049Y-129166600D01*
X103398649Y-130271400D02*
X104641449Y-129028600D01*
X109616449Y-131150000D02*
X109616449Y-130353600D01*
X110859349Y-129110700D02*
X110859349Y-128341600D01*
X97580749Y-130750000D02*
X97580749Y-129184500D01*
X104641449Y-128341600D02*
X107449849Y-131150000D01*
X116234349Y-130750000D02*
X116234349Y-129184500D01*
X116234349Y-129184500D02*
X117077249Y-128341600D01*
X126103449Y-131150000D02*
X128120049Y-131150000D01*
X117077249Y-128341600D02*
X119885649Y-131150000D01*
X129512949Y-128341600D02*
X132321349Y-131150000D01*
X97580749Y-129184500D02*
X98423649Y-128341600D01*
X98423649Y-128341600D02*
X101232049Y-131150000D01*
X128687949Y-130582100D02*
X128687949Y-129166600D01*
X102532049Y-128300000D02*
X102573649Y-128341600D01*
X95014149Y-131150000D02*
X97180749Y-131150000D01*
X122052249Y-131150000D02*
X122470049Y-130732200D01*
X109616449Y-130353600D02*
X110859349Y-129110700D01*
X134887949Y-130750000D02*
X134887949Y-129184400D01*
X134887949Y-129184400D02*
X135730749Y-128341600D01*
X103398649Y-131150000D02*
X103398649Y-130271400D01*
X113667749Y-131150000D02*
X115834349Y-131150000D01*
X132321349Y-131150000D02*
X134487949Y-131150000D01*
%TO.N,Net-(U11-D2)*%
X98370049Y-132500000D02*
X98370049Y-132621400D01*
X115009349Y-132675000D02*
X115009349Y-133439300D01*
X112201049Y-135483300D02*
X115009349Y-132675000D01*
X116252249Y-135483300D02*
X118418949Y-135483300D01*
X121227249Y-133356186D02*
X122470049Y-134598986D01*
X116252249Y-134682200D02*
X116252249Y-135483300D01*
X103816449Y-135483300D02*
X105983149Y-135483300D01*
X137072449Y-135483300D02*
X139880749Y-132675000D01*
X134905749Y-134598986D02*
X134905749Y-135483300D01*
X98370049Y-132621400D02*
X98423649Y-132675000D01*
X121227249Y-132675000D02*
X121227249Y-133356186D01*
X122470049Y-134598986D02*
X122470049Y-135483300D01*
X96355749Y-132675000D02*
X96355749Y-133356086D01*
X124636749Y-135483300D02*
X127445049Y-132675000D01*
X130854649Y-135483300D02*
X133662949Y-132675000D01*
X96355749Y-133356086D02*
X97598649Y-134598986D01*
X127445049Y-132675000D02*
X127445049Y-133356086D01*
X97598649Y-134598986D02*
X97598649Y-135483300D01*
X109616449Y-133500000D02*
X109616449Y-135065400D01*
X97598649Y-135483300D02*
X99765349Y-135483300D01*
X128687949Y-134598986D02*
X128687949Y-135483300D01*
X109616449Y-135065400D02*
X110034349Y-135483300D01*
X128687949Y-135483300D02*
X130854649Y-135483300D01*
X103816449Y-134746400D02*
X103816449Y-135483300D01*
X99765349Y-135483300D02*
X102573649Y-132675000D01*
X133662949Y-132675000D02*
X133662949Y-133356186D01*
X110034349Y-135483300D02*
X112201049Y-135483300D01*
X108791449Y-132675000D02*
X109616449Y-133500000D01*
X134905749Y-135483300D02*
X137072449Y-135483300D01*
X115009349Y-133439300D02*
X116252249Y-134682200D01*
X102573649Y-133503600D02*
X103816449Y-134746400D01*
X105983149Y-135483300D02*
X108791449Y-132675000D01*
X118418949Y-135483300D02*
X121227249Y-132675000D01*
X127445049Y-133356086D02*
X128687949Y-134598986D01*
X102573649Y-132675000D02*
X102573649Y-133503600D01*
X122470049Y-135483300D02*
X124636749Y-135483300D01*
X133662949Y-133356186D02*
X134905749Y-134598986D01*
%TO.N,Net-(U10-~{WAIT})*%
X44295784Y-119991370D02*
X47804414Y-123500000D01*
X44295784Y-119925735D02*
X44295784Y-119991370D01*
X47804414Y-123500000D02*
X48360049Y-123500000D01*
%TO.N,Net-(U10-~{BUSREQ})*%
X43570046Y-111448529D02*
X43570046Y-104900003D01*
X44970049Y-112400000D02*
X44521517Y-112400000D01*
X44521517Y-112400000D02*
X43570046Y-111448529D01*
X45170049Y-119310000D02*
X45170049Y-117800000D01*
X47060049Y-121200000D02*
X45170049Y-119310000D01*
X43570046Y-104900003D02*
X43970049Y-104500000D01*
%TO.N,Net-(U5-Q5)*%
X108791449Y-134858300D02*
X109616449Y-135683300D01*
X124127249Y-123573300D02*
X122933949Y-124766600D01*
X59962949Y-135700000D02*
X59962949Y-138391600D01*
X109616449Y-129700000D02*
X108791449Y-130525000D01*
X121520877Y-124766600D02*
X121187477Y-125100000D01*
X59962949Y-138391600D02*
X59137949Y-139216600D01*
X59137949Y-134875000D02*
X59962949Y-135700000D01*
X54162949Y-134050000D02*
X54987949Y-134875000D01*
X122933949Y-124766600D02*
X121520877Y-124766600D01*
X103816449Y-131350000D02*
X103816449Y-134033300D01*
X59962949Y-127016600D02*
X59962949Y-129708300D01*
X103816449Y-134033300D02*
X104641449Y-134858300D01*
X109616449Y-135683300D02*
X109616449Y-138366600D01*
X56070049Y-141316600D02*
X56745049Y-141991600D01*
X121187477Y-125100000D02*
X115535263Y-125100000D01*
X115535263Y-125100000D02*
X115135263Y-125500000D01*
X115135263Y-125500000D02*
X109483049Y-125500000D01*
X109616449Y-138366600D02*
X108791449Y-139191600D01*
X59962949Y-129708300D02*
X59137949Y-130533300D01*
X100473649Y-141991600D02*
X102248649Y-140216600D01*
X54162949Y-131358300D02*
X54162949Y-134050000D01*
X54987949Y-139216600D02*
X55645049Y-139216600D01*
X102248649Y-140216600D02*
X103616449Y-140216600D01*
X103616449Y-140216600D02*
X104641449Y-139191600D01*
X59137949Y-126191600D02*
X59962949Y-127016600D01*
X54987949Y-130533300D02*
X54162949Y-131358300D01*
X109616449Y-127016600D02*
X109616449Y-129700000D01*
X55645049Y-139216600D02*
X56070049Y-139641600D01*
X104641449Y-130525000D02*
X103816449Y-131350000D01*
X109483049Y-125500000D02*
X108791449Y-126191600D01*
X56745049Y-141991600D02*
X100473649Y-141991600D01*
X108791449Y-126191600D02*
X109616449Y-127016600D01*
%TO.N,Net-(U5-Q6)*%
X98423649Y-130525000D02*
X97598649Y-131350000D01*
X53745049Y-138391600D02*
X52920049Y-139216600D01*
X53745049Y-135700000D02*
X53745049Y-138391600D01*
X53745049Y-129708300D02*
X52920049Y-130533300D01*
X102573649Y-134858300D02*
X103398649Y-135683300D01*
X52920049Y-134875000D02*
X53745049Y-135700000D01*
X47945049Y-131358300D02*
X47945049Y-134050000D01*
X48770049Y-130533300D02*
X47945049Y-131358300D01*
X53745049Y-127016600D02*
X53745049Y-129708300D01*
X97598649Y-134033300D02*
X98423649Y-134858300D01*
X115369577Y-124700000D02*
X114969577Y-125100000D01*
X121587249Y-123573300D02*
X120460549Y-124700000D01*
X97598649Y-131350000D02*
X97598649Y-134033300D01*
X114969577Y-125100000D02*
X109317363Y-125100000D01*
X103398649Y-127016600D02*
X103398649Y-129700000D01*
X102573649Y-126191600D02*
X103398649Y-127016600D01*
X52920049Y-126191600D02*
X53745049Y-127016600D01*
X49770049Y-140841600D02*
X49895049Y-140716600D01*
X103265249Y-125500000D02*
X102573649Y-126191600D01*
X103398649Y-135683300D02*
X103398649Y-138366600D01*
X109317363Y-125100000D02*
X108917363Y-125500000D01*
X49345049Y-139216600D02*
X49770049Y-139641600D01*
X96898649Y-140716600D02*
X98423649Y-139191600D01*
X49895049Y-140716600D02*
X96898649Y-140716600D01*
X103398649Y-138366600D02*
X102573649Y-139191600D01*
X103398649Y-129700000D02*
X102573649Y-130525000D01*
X108917363Y-125500000D02*
X103265249Y-125500000D01*
X48770049Y-139216600D02*
X49345049Y-139216600D01*
X47945049Y-134050000D02*
X48770049Y-134875000D01*
X120460549Y-124700000D02*
X115369577Y-124700000D01*
%TO.N,Net-(U11-D5)*%
X82675949Y-139841600D02*
X85227249Y-139841600D01*
X85227249Y-139841600D02*
X85252249Y-139816600D01*
X72398649Y-138971400D02*
X73641449Y-137728600D01*
X70240249Y-139841600D02*
X72398649Y-139841600D01*
X72398649Y-139841600D02*
X72398649Y-138971400D01*
X73641449Y-137025000D02*
X76458049Y-139841600D01*
X47527249Y-139841600D02*
X47527249Y-139042800D01*
X76458049Y-139841600D02*
X78616449Y-139841600D01*
X85252249Y-139816600D02*
X85252249Y-137825000D01*
X45368849Y-139841600D02*
X47527249Y-139841600D01*
X66180749Y-139841600D02*
X66180749Y-138989300D01*
X48770049Y-137025000D02*
X51586649Y-139841600D01*
X51586649Y-139841600D02*
X53728449Y-139841600D01*
X54987949Y-137025000D02*
X57804549Y-139841600D01*
X85252249Y-137825000D02*
X86077249Y-137000000D01*
X54162949Y-139407100D02*
X54162949Y-137850000D01*
X73641449Y-137728600D02*
X73641449Y-137025000D01*
X42552249Y-137025000D02*
X45368849Y-139841600D01*
X54162949Y-137850000D02*
X54987949Y-137025000D01*
X48770049Y-137800000D02*
X48770049Y-137025000D01*
X59962949Y-139841600D02*
X59962949Y-139007100D01*
X79016449Y-139441600D02*
X79016449Y-137867900D01*
X53728449Y-139841600D02*
X54162949Y-139407100D01*
X57804549Y-139841600D02*
X59962949Y-139841600D01*
X61205749Y-137764300D02*
X61205749Y-137025000D01*
X79859349Y-137025000D02*
X82675949Y-139841600D01*
X67423649Y-137746400D02*
X67423649Y-137025000D01*
X61205749Y-137025000D02*
X64022349Y-139841600D01*
X64022349Y-139841600D02*
X66180749Y-139841600D01*
X78616449Y-139841600D02*
X79016449Y-139441600D01*
X67423649Y-137025000D02*
X70240249Y-139841600D01*
X66180749Y-138989300D02*
X67423649Y-137746400D01*
X47527249Y-139042800D02*
X48770049Y-137800000D01*
X79016449Y-137867900D02*
X79859349Y-137025000D01*
X59962949Y-139007100D02*
X61205749Y-137764300D01*
%TO.N,Net-(U5-Q0)*%
X139880749Y-134858300D02*
X140705749Y-135683300D01*
X90227249Y-126166600D02*
X91052249Y-126991600D01*
X134705749Y-140216600D02*
X135730749Y-139191600D01*
X91052249Y-129683300D02*
X90227249Y-130508300D01*
X127312949Y-144991600D02*
X132087949Y-140216600D01*
X90227249Y-134850000D02*
X91052249Y-135675000D01*
X134905749Y-134033300D02*
X135730749Y-134858300D01*
X134905749Y-131350000D02*
X134905749Y-134033300D01*
X139445549Y-126191600D02*
X136827249Y-123573300D01*
X86077249Y-139191600D02*
X86720049Y-139191600D01*
X139880749Y-126191600D02*
X140705749Y-127016600D01*
X86077249Y-130508300D02*
X85252249Y-131333300D01*
X140705749Y-135683300D02*
X140705749Y-138366600D01*
X139880749Y-126191600D02*
X139445549Y-126191600D01*
X140705749Y-127016600D02*
X140705749Y-129700000D01*
X85252249Y-134025000D02*
X86077249Y-134850000D01*
X85252249Y-131333300D02*
X85252249Y-134025000D01*
X140705749Y-129700000D02*
X139880749Y-130525000D01*
X91052249Y-126991600D02*
X91052249Y-129683300D01*
X91052249Y-138366600D02*
X90227249Y-139191600D01*
X135730749Y-130525000D02*
X134905749Y-131350000D01*
X87170049Y-144991600D02*
X127312949Y-144991600D01*
X91052249Y-135675000D02*
X91052249Y-138366600D01*
X140705749Y-138366600D02*
X139880749Y-139191600D01*
X86720049Y-139191600D02*
X87170049Y-139641600D01*
X132087949Y-140216600D02*
X134705749Y-140216600D01*
%TO.N,Net-(U11-D0)*%
X92170049Y-141316600D02*
X92180749Y-141316600D01*
X92180749Y-141316600D02*
X92205749Y-141341600D01*
%TO.N,Net-(U5-Q4)*%
X107216449Y-140216600D02*
X109834349Y-140216600D01*
X115700949Y-125500000D02*
X115009349Y-126191600D01*
X110034349Y-134033300D02*
X110859349Y-134858300D01*
X65355749Y-134875000D02*
X66180749Y-135700000D01*
X115009349Y-134858300D02*
X115834349Y-135683300D01*
X66180749Y-135700000D02*
X66180749Y-138391600D01*
X125073949Y-125166600D02*
X121686563Y-125166600D01*
X110034349Y-131350000D02*
X110034349Y-134033300D01*
X115009349Y-126191600D02*
X115834349Y-127016600D01*
X115834349Y-129700000D02*
X115009349Y-130525000D01*
X61205749Y-130533300D02*
X60380749Y-131358300D01*
X110859349Y-130525000D02*
X110034349Y-131350000D01*
X60380749Y-134050000D02*
X61205749Y-134875000D01*
X109834349Y-140216600D02*
X110859349Y-139191600D01*
X104841449Y-142591600D02*
X107216449Y-140216600D01*
X121686563Y-125166600D02*
X121353163Y-125500000D01*
X115834349Y-135683300D02*
X115834349Y-138366600D01*
X66180749Y-129708300D02*
X65355749Y-130533300D01*
X60380749Y-131358300D02*
X60380749Y-134050000D01*
X121353163Y-125500000D02*
X115700949Y-125500000D01*
X115834349Y-138366600D02*
X115009349Y-139191600D01*
X62470049Y-142591600D02*
X104841449Y-142591600D01*
X126667249Y-123573300D02*
X125073949Y-125166600D01*
X115834349Y-127016600D02*
X115834349Y-129700000D01*
X66180749Y-138391600D02*
X65355749Y-139216600D01*
X66180749Y-127016600D02*
X66180749Y-129708300D01*
X61986649Y-139216600D02*
X62370049Y-139600000D01*
X61205749Y-139216600D02*
X61986649Y-139216600D01*
X65355749Y-126191600D02*
X66180749Y-127016600D01*
%TO.N,Net-(U16-XIN)*%
X55930049Y-53860000D02*
X54830049Y-54960000D01*
X71625684Y-54960000D02*
X70525684Y-53860000D01*
X70525684Y-53860000D02*
X55930049Y-53860000D01*
X52600049Y-57190000D02*
X54830049Y-54960000D01*
X42870049Y-58740000D02*
X44420049Y-57190000D01*
X44420049Y-57190000D02*
X52600049Y-57190000D01*
X72370049Y-54960000D02*
X71625684Y-54960000D01*
%TO.N,Net-(U11-D7)*%
X72798649Y-129184400D02*
X73641449Y-128341600D01*
X45368949Y-131158300D02*
X47527249Y-131158300D01*
X59962949Y-131158300D02*
X60370049Y-130751200D01*
X48770049Y-128341600D02*
X51586749Y-131158300D01*
X67423649Y-129046400D02*
X67423649Y-128341600D01*
X54987949Y-128341600D02*
X57804649Y-131158300D01*
X79870049Y-128330900D02*
X79859349Y-128341600D01*
X79870049Y-128300000D02*
X79870049Y-128330900D01*
X72398649Y-131158300D02*
X72798649Y-130758300D01*
X51586749Y-131158300D02*
X53611749Y-131158300D01*
X54162949Y-130607100D02*
X54162949Y-129166600D01*
X84852249Y-131167614D02*
X85252249Y-130767614D01*
X60370049Y-130751200D02*
X60370049Y-129177300D01*
X53611749Y-131158300D02*
X54162949Y-130607100D01*
X82685363Y-131167614D02*
X84852249Y-131167614D01*
X66180749Y-130289300D02*
X67423649Y-129046400D01*
X76458149Y-131158300D02*
X78616449Y-131158300D01*
X42552249Y-128341600D02*
X45368949Y-131158300D01*
X79016449Y-130758300D02*
X79016449Y-129184500D01*
X47527249Y-131158300D02*
X47927249Y-130758300D01*
X78616449Y-131158300D02*
X79016449Y-130758300D01*
X64022449Y-131158300D02*
X66180749Y-131158300D01*
X85252249Y-129141600D02*
X86077249Y-128316600D01*
X73641449Y-128341600D02*
X76458149Y-131158300D01*
X70240349Y-131158300D02*
X72398649Y-131158300D01*
X61205749Y-128341600D02*
X64022449Y-131158300D01*
X79016449Y-129184500D02*
X79859349Y-128341600D01*
X47927249Y-130758300D02*
X47927249Y-129184400D01*
X57804649Y-131158300D02*
X59962949Y-131158300D01*
X67423649Y-128341600D02*
X70240349Y-131158300D01*
X54162949Y-129166600D02*
X54987949Y-128341600D01*
X66180749Y-131158300D02*
X66180749Y-130289300D01*
X79859349Y-128341600D02*
X82685363Y-131167614D01*
X72798649Y-130758300D02*
X72798649Y-129184400D01*
X47927249Y-129184400D02*
X48770049Y-128341600D01*
X85252249Y-130767614D02*
X85252249Y-129141600D01*
X60370049Y-129177300D02*
X61205749Y-128341600D01*
%TO.N,Net-(U4-~{S2})*%
X66050051Y-105980000D02*
X70175049Y-105980000D01*
X65926103Y-105856052D02*
X66050051Y-105980000D01*
%TO.N,IO2*%
X70570049Y-74400000D02*
X70570049Y-67700000D01*
X59770049Y-104100000D02*
X60210049Y-104540000D01*
X70570049Y-67700000D02*
X71170049Y-67100000D01*
X63010684Y-104540000D02*
X64022157Y-103528527D01*
X64022157Y-103528527D02*
X64022157Y-97600000D01*
X60210049Y-104540000D02*
X63010684Y-104540000D01*
%TO.N,IO3*%
X67185784Y-63084265D02*
X58561519Y-54460000D01*
X67394314Y-92855937D02*
X67370049Y-92831672D01*
X67370049Y-92831672D02*
X67370049Y-66820000D01*
X67394314Y-93324265D02*
X67394314Y-92855937D01*
X58561519Y-54460000D02*
X56370049Y-54460000D01*
%TO.N,Net-(U4-~{S3})*%
X65801522Y-106580000D02*
X65326103Y-106104581D01*
X67370049Y-106580000D02*
X65801522Y-106580000D01*
X54994314Y-104475735D02*
X54994314Y-109024265D01*
X54994314Y-109024265D02*
X58305784Y-112335735D01*
X65326103Y-106104581D02*
X65326103Y-105607523D01*
X67493626Y-103440000D02*
X70175049Y-103440000D01*
X65326103Y-105607523D02*
X67493626Y-103440000D01*
%TO.N,Net-(U4-~{S4})*%
X72170049Y-100800000D02*
X72070049Y-100900000D01*
X72270049Y-100800000D02*
X72170049Y-100800000D01*
X72070049Y-100900000D02*
X70175049Y-100900000D01*
%TO.N,IO4*%
X83170049Y-115700000D02*
X83070049Y-115800000D01*
X83070049Y-115800000D02*
X80270049Y-115800000D01*
X85805784Y-110135735D02*
X107135784Y-110135735D01*
X107135784Y-110135735D02*
X107420784Y-109850735D01*
X85670049Y-110000000D02*
X85805784Y-110135735D01*
%TO.N,Net-(U4-~{S5})*%
X73750049Y-106740000D02*
X80270049Y-113260000D01*
X72228728Y-99340000D02*
X73070049Y-99340000D01*
X73070049Y-99340000D02*
X73070049Y-101665686D01*
X71350049Y-98360000D02*
X71350049Y-98461321D01*
X70175049Y-98360000D02*
X71350049Y-98360000D01*
X73070049Y-101665686D02*
X73750049Y-102345686D01*
X73750049Y-102345686D02*
X73750049Y-106740000D01*
X71350049Y-98461321D02*
X72228728Y-99340000D01*
%TO.N,IO5*%
X111284202Y-97245000D02*
X111785049Y-97745847D01*
X109891049Y-97245000D02*
X111284202Y-97245000D01*
X83328349Y-118258300D02*
X82570049Y-117500000D01*
X104342884Y-118258300D02*
X83328349Y-118258300D01*
X111785049Y-99385000D02*
X107970049Y-103200000D01*
X108450049Y-95804000D02*
X109891049Y-97245000D01*
X106187249Y-112715110D02*
X106187249Y-116413935D01*
X106187249Y-116413935D02*
X104342884Y-118258300D01*
X111785049Y-97745847D02*
X111785049Y-99385000D01*
X105373582Y-111901443D02*
X106187249Y-112715110D01*
X108450049Y-89400000D02*
X108450049Y-95804000D01*
%TO.N,Net-(U4-~{S6})*%
X71750049Y-98295635D02*
X71750049Y-97395000D01*
X72394414Y-98940000D02*
X71750049Y-98295635D01*
X73470049Y-101500000D02*
X73470049Y-98940000D01*
X71750049Y-97395000D02*
X70175049Y-95820000D01*
X80270049Y-108180000D02*
X80150049Y-108180000D01*
X73470049Y-98940000D02*
X72394414Y-98940000D01*
X80150049Y-108180000D02*
X73470049Y-101500000D01*
%TO.N,IO6*%
X82870305Y-97390000D02*
X81970049Y-98290256D01*
X83570049Y-97390000D02*
X82870305Y-97390000D01*
X81970049Y-100699570D02*
X81770049Y-100899570D01*
X82170049Y-104434314D02*
X82170049Y-106200000D01*
X81770049Y-100899570D02*
X81770049Y-104034314D01*
X81970049Y-98290256D02*
X81970049Y-100699570D01*
X81770049Y-104034314D02*
X82170049Y-104434314D01*
%TO.N,Net-(U4-~{S8})*%
X71710049Y-104700000D02*
X72650049Y-105640000D01*
X70950049Y-104700000D02*
X71710049Y-104700000D01*
%TO.N,Net-(U16-INTR)*%
X78142203Y-107020684D02*
X77495784Y-106374265D01*
X78910049Y-97500000D02*
X79014314Y-97604265D01*
X73763652Y-111833603D02*
X77836446Y-111833603D01*
X76370049Y-74175000D02*
X76370049Y-69100000D01*
X76730049Y-43500000D02*
X76870049Y-43360000D01*
X86510049Y-43360000D02*
X76870049Y-43360000D01*
X77921520Y-97500000D02*
X78910049Y-97500000D01*
X76170049Y-43500000D02*
X76730049Y-43500000D01*
X76370049Y-56900000D02*
X76170049Y-56700000D01*
X72650049Y-110720000D02*
X73763652Y-111833603D01*
X78142203Y-110072154D02*
X78142203Y-107020684D01*
X76370049Y-59900000D02*
X76370049Y-56900000D01*
X76870049Y-43360000D02*
X71170049Y-43360000D01*
X87610049Y-42260000D02*
X86510049Y-43360000D01*
X71170049Y-43360000D02*
X70070049Y-42260000D01*
X76121519Y-99300000D02*
X77921520Y-97500000D01*
X76370049Y-69100000D02*
X76470049Y-69000000D01*
%TO.N,Net-(U16-MR)*%
X76965874Y-97392956D02*
X74104314Y-100254516D01*
X75570049Y-58340000D02*
X75570049Y-63420000D01*
X75470049Y-29560000D02*
X75570049Y-29560000D01*
X75770049Y-73175000D02*
X75770049Y-77200000D01*
X72825684Y-30660000D02*
X71914414Y-30660000D01*
X75570049Y-72975000D02*
X75770049Y-73175000D01*
X74104314Y-100254516D02*
X74104314Y-101165735D01*
X75470049Y-29560000D02*
X73925684Y-29560000D01*
X71914414Y-30660000D02*
X70814414Y-29560000D01*
X73925684Y-29560000D02*
X72825684Y-30660000D01*
X87610049Y-29560000D02*
X75470049Y-29560000D01*
X70814414Y-29560000D02*
X70070049Y-29560000D01*
%TO.N,Net-(J3-Pin_6)*%
X48570049Y-23061522D02*
X44808527Y-19300000D01*
X48570049Y-24138478D02*
X48570049Y-23061522D01*
X48770049Y-40560000D02*
X47620049Y-39410000D01*
X30170049Y-19300000D02*
X23940049Y-25530000D01*
X44808527Y-19300000D02*
X30170049Y-19300000D01*
X47620049Y-25088478D02*
X48570049Y-24138478D01*
X47620049Y-39410000D02*
X47620049Y-25088478D01*
%TO.N,Net-(J2-Pin_3)*%
X39170049Y-22990000D02*
X45570049Y-29390000D01*
X45570049Y-29390000D02*
X45570049Y-39900000D01*
X45570049Y-39900000D02*
X48770049Y-43100000D01*
%TO.N,Net-(J2-Pin_4)*%
X39170049Y-25530000D02*
X45170049Y-31530000D01*
X45170049Y-42040000D02*
X48770049Y-45640000D01*
X45170049Y-31530000D02*
X45170049Y-42040000D01*
%TO.N,Net-(J3-Pin_9)*%
X31870049Y-28598530D02*
X32319314Y-28149265D01*
X31870049Y-40800000D02*
X31870049Y-28598530D01*
%TO.N,Net-(J2-Pin_5)*%
X39170049Y-28070000D02*
X44770049Y-33670000D01*
X44770049Y-33670000D02*
X44770049Y-46720000D01*
X44770049Y-46720000D02*
X48770049Y-50720000D01*
%TO.N,Net-(J2-Pin_7)*%
X44370049Y-48860000D02*
X48770049Y-53260000D01*
X44370049Y-38350000D02*
X44370049Y-48860000D01*
X39170049Y-33150000D02*
X44370049Y-38350000D01*
%TO.N,Net-(J2-Pin_8)*%
X43970049Y-40490000D02*
X39170049Y-35690000D01*
X48770049Y-55800000D02*
X43970049Y-51000000D01*
X43970049Y-51000000D02*
X43970049Y-40490000D01*
%TO.N,Net-(D23-A)*%
X106085049Y-101875000D02*
X106085049Y-99777500D01*
X106085049Y-99777500D02*
X107260049Y-98602500D01*
X104170049Y-103790000D02*
X106085049Y-101875000D01*
%TO.N,Net-(D20-A)*%
X102695049Y-99777500D02*
X102695049Y-102725000D01*
X103870049Y-98602500D02*
X102695049Y-99777500D01*
X102695049Y-102725000D02*
X101630049Y-103790000D01*
%TO.N,Net-(D17-A)*%
X99090049Y-99992500D02*
X100480049Y-98602500D01*
X99090049Y-103790000D02*
X99090049Y-99992500D01*
%TO.N,Net-(D14-A)*%
X95915049Y-99777500D02*
X95915049Y-103155000D01*
X95915049Y-103155000D02*
X96550049Y-103790000D01*
X97090049Y-98602500D02*
X95915049Y-99777500D01*
%TO.N,Net-(D11-A)*%
X94010049Y-103790000D02*
X94875049Y-102925000D01*
X94875049Y-99777500D02*
X93700049Y-98602500D01*
X94875049Y-102925000D02*
X94875049Y-99777500D01*
%TO.N,Net-(D8-A)*%
X92270048Y-100562499D02*
X92270048Y-102990001D01*
X90310049Y-98602500D02*
X92270048Y-100562499D01*
X92270048Y-102990001D02*
X91470049Y-103790000D01*
%TO.N,Net-(R6-Pad2)*%
X120250049Y-79580000D02*
X120250049Y-81020000D01*
X136398049Y-77818000D02*
X122012049Y-77818000D01*
X120250049Y-81020000D02*
X117570049Y-83700000D01*
X122012049Y-77818000D02*
X120250049Y-79580000D01*
X110270049Y-89800000D02*
X110090049Y-89980000D01*
X136870049Y-78290000D02*
X136398049Y-77818000D01*
X110270049Y-89400000D02*
X110270049Y-89800000D01*
X110090049Y-89980000D02*
X110090049Y-94820000D01*
%TO.N,Net-(U14-F)*%
X105015633Y-83200000D02*
X105415634Y-82800000D01*
X101968578Y-83000000D02*
X102320049Y-82648529D01*
X101120049Y-82200000D02*
X101120049Y-82648529D01*
X99180049Y-82200000D02*
X101120049Y-82200000D01*
X103524464Y-83200000D02*
X105015633Y-83200000D01*
X99180049Y-82400000D02*
X99180049Y-82200000D01*
X107914038Y-82800000D02*
X108656040Y-83542000D01*
X112630049Y-83602000D02*
X112630049Y-94820000D01*
X105415634Y-82800000D02*
X107914038Y-82800000D01*
X102320049Y-82648529D02*
X102320049Y-82600000D01*
X108656040Y-83542000D02*
X112570049Y-83542000D01*
X101471520Y-83000000D02*
X101968578Y-83000000D01*
X102320049Y-82600000D02*
X102924463Y-82600000D01*
X112570049Y-83542000D02*
X112630049Y-83602000D01*
X102924463Y-82600000D02*
X103524464Y-83200000D01*
X101120049Y-82648529D02*
X101471520Y-83000000D01*
%TO.N,Net-(U14-G)*%
X114938677Y-83142000D02*
X115170049Y-83373372D01*
X115170049Y-83373372D02*
X115170049Y-94820000D01*
X103090149Y-82200000D02*
X103690149Y-82800000D01*
X104849948Y-82800000D02*
X105249949Y-82400000D01*
X108821725Y-83142000D02*
X114938677Y-83142000D01*
X103690149Y-82800000D02*
X104849948Y-82800000D01*
X108079724Y-82400000D02*
X108821725Y-83142000D01*
X101720049Y-82400000D02*
X101920049Y-82200000D01*
X101920049Y-82200000D02*
X103090149Y-82200000D01*
X105249949Y-82400000D02*
X108079724Y-82400000D01*
%TO.N,Net-(U14-E)*%
X96640049Y-82000000D02*
X96670049Y-81970000D01*
X103270049Y-81800000D02*
X103270049Y-81814214D01*
X108987410Y-82742000D02*
X115104363Y-82742000D01*
X105084264Y-82000000D02*
X108245410Y-82000000D01*
X96670049Y-81970000D02*
X96670049Y-81800000D01*
X103270049Y-81814214D02*
X103855834Y-82400000D01*
X96670049Y-81800000D02*
X103270049Y-81800000D01*
X103855834Y-82400000D02*
X104684263Y-82400000D01*
X115104363Y-82742000D02*
X117710049Y-85347686D01*
X117710049Y-85347686D02*
X117710049Y-94820000D01*
X108245410Y-82000000D02*
X108987410Y-82742000D01*
X104684263Y-82400000D02*
X105084264Y-82000000D01*
%TO.N,Net-(U14-D)*%
X109153096Y-82342000D02*
X108411096Y-81600000D01*
X103670049Y-81648529D02*
X103670049Y-81400000D01*
X104518578Y-82000000D02*
X104021520Y-82000000D01*
X104870049Y-81600000D02*
X104870049Y-81648529D01*
X103670049Y-81400000D02*
X94070049Y-81400000D01*
X108411096Y-81600000D02*
X104870049Y-81600000D01*
X104021520Y-82000000D02*
X103670049Y-81648529D01*
X104870049Y-81648529D02*
X104518578Y-82000000D01*
X120250049Y-87322000D02*
X115270049Y-82342000D01*
X120250049Y-94820000D02*
X120250049Y-87322000D01*
X115270049Y-82342000D02*
X109153096Y-82342000D01*
%TO.N,Net-(U14-DP)*%
X109318782Y-81942000D02*
X108576782Y-81200000D01*
X117710049Y-79580000D02*
X115348049Y-81942000D01*
X104470049Y-81200000D02*
X104270049Y-81400000D01*
X108576782Y-81200000D02*
X104470049Y-81200000D01*
X115348049Y-81942000D02*
X109318782Y-81942000D01*
%TO.N,Net-(U14-C)*%
X91770049Y-80800000D02*
X91570049Y-81000000D01*
X115170049Y-79580000D02*
X113208049Y-81542000D01*
X108742468Y-80800000D02*
X91770049Y-80800000D01*
X109484468Y-81542000D02*
X108742468Y-80800000D01*
X113208049Y-81542000D02*
X109484468Y-81542000D01*
%TO.N,Net-(U14-B)*%
X112630049Y-79580000D02*
X111068049Y-81142000D01*
X109650154Y-81142000D02*
X108970049Y-80461895D01*
X111068049Y-81142000D02*
X109650154Y-81142000D01*
X108970049Y-80400000D02*
X89170049Y-80400000D01*
X108970049Y-80461895D02*
X108970049Y-80400000D01*
X89170049Y-80400000D02*
X88970049Y-80600000D01*
%TO.N,Net-(U14-A)*%
X110090049Y-79580000D02*
X109670049Y-80000000D01*
X109670049Y-80000000D02*
X86470049Y-80000000D01*
%TO.N,IO7*%
X86860049Y-108490000D02*
X108070049Y-108490000D01*
X70175049Y-93280000D02*
X70975048Y-94079999D01*
X108070049Y-110480000D02*
X110930049Y-113340000D01*
X76685783Y-94079999D02*
X78745784Y-96140000D01*
X82370049Y-103880000D02*
X82370049Y-103400000D01*
X83170049Y-107400000D02*
X83170049Y-104680000D01*
X85970049Y-107600000D02*
X86860049Y-108490000D01*
X70975048Y-94079999D02*
X76685783Y-94079999D01*
X83170049Y-104680000D02*
X82370049Y-103880000D01*
X108070049Y-108490000D02*
X108070049Y-110480000D01*
X85670049Y-107600000D02*
X85970049Y-107600000D01*
%TO.N,Net-(BT1-+)*%
X38270049Y-138100000D02*
X41727249Y-141557200D01*
X38270049Y-119142545D02*
X38270049Y-138100000D01*
X139953449Y-139816600D02*
X140705749Y-139816600D01*
X41727249Y-141557200D02*
X41727249Y-141991600D01*
X141370049Y-139152300D02*
X141370049Y-117800000D01*
X134178449Y-145591600D02*
X139953449Y-139816600D01*
X139470049Y-117700000D02*
X130970049Y-117700000D01*
X130970049Y-117700000D02*
X130570049Y-117300000D01*
X41727249Y-141991600D02*
X45327249Y-145591600D01*
X130570049Y-117300000D02*
X130570049Y-116900000D01*
X140705749Y-139816600D02*
X141370049Y-139152300D01*
X45327249Y-145591600D02*
X134178449Y-145591600D01*
%TO.N,Net-(U12-DP)*%
X104210049Y-91360000D02*
X104210049Y-88400000D01*
X104170049Y-91400000D02*
X104210049Y-91360000D01*
%TO.N,Net-(U12-G)*%
X101670049Y-92400000D02*
X101670049Y-88400000D01*
%TO.N,Net-(U12-F)*%
X99130049Y-92400000D02*
X99130049Y-88400000D01*
%TO.N,Net-(U12-E)*%
X96590049Y-92000000D02*
X96590049Y-88400000D01*
%TO.N,Net-(U12-D)*%
X94050049Y-91380000D02*
X94050049Y-88400000D01*
X94070049Y-91400000D02*
X94050049Y-91380000D01*
%TO.N,Net-(U12-C)*%
X91510049Y-90940000D02*
X91510049Y-88400000D01*
X91570049Y-91000000D02*
X91510049Y-90940000D01*
%TO.N,Net-(U12-B)*%
X88970049Y-90600000D02*
X88970049Y-88400000D01*
%TO.N,Net-(U12-A)*%
X86470049Y-91000000D02*
X86470049Y-88440000D01*
X86470049Y-88440000D02*
X86430049Y-88400000D01*
%TO.N,Net-(R4-Pad2)*%
X123590049Y-94620000D02*
X133140049Y-85070000D01*
X133140049Y-85070000D02*
X133750049Y-85070000D01*
X133750049Y-85070000D02*
X133750049Y-79380000D01*
X136770049Y-88090000D02*
X133750049Y-85070000D01*
%TO.N,Net-(U16-RCLK)*%
X73970049Y-38780000D02*
X73970049Y-42760000D01*
X72370049Y-37180000D02*
X73970049Y-38780000D01*
%TO.N,IO1*%
X76154314Y-109992792D02*
X73241522Y-107080000D01*
X71615049Y-107080000D02*
X70175049Y-108520000D01*
X73241522Y-107080000D02*
X71615049Y-107080000D01*
X87307249Y-123578300D02*
X87307249Y-123290227D01*
X87307249Y-123290227D02*
X81517021Y-117499999D01*
%TD*%
M02*
